<?xml version="1.0" encoding="utf-8"?>
<!-- Generator: Adobe Illustrator 23.0.6, SVG Export Plug-In . SVG Version: 6.00 Build 0)  -->
<svg version="1.1" id="Ebene_1" xmlns="http://www.w3.org/2000/svg" xmlns:xlink="http://www.w3.org/1999/xlink" x="0px" y="0px"
	 viewBox="0 0 17 18.3" style="enable-background:new 0 0 17 18.3;" xml:space="preserve">
<style type="text/css">
	.st0{fill:#1D1D1B;}
	.st1{fill:#CC6600;stroke:#CC6600;stroke-miterlimit:10;}
	.st2{fill:none;stroke:#CC6600;stroke-miterlimit:10;}
	.st3{enable-background:new    ;}
	.st4{fill:#FFFFFF;}
</style>
<title>ext_icon</title>
<path class="st0" d="M5.6,6.4V4.3c0.1-0.5-0.3-1.1-0.8-1.2c-0.1,0-0.2,0-0.2,0C4.3,3.2,4,3.3,3.8,3.5V2H3v4.4h0.8v-2
	c0-0.3,0.2-0.5,0.4-0.6c0,0,0.1,0,0.1,0c0.3,0,0.5,0.2,0.5,0.5c0,0,0,0.1,0,0.1v2H5.6L5.6,6.4z M8,7V6.8H6.1V7H8L8,7z M10.7,6.4V2
	H9.9v1.5C9.7,3.3,9.4,3.2,9.1,3.2c-0.3,0-0.6,0.1-0.8,0.3C8.1,3.9,7.9,4.3,8,4.8c-0.1,0.5,0.1,1,0.3,1.3c0.2,0.2,0.5,0.3,0.8,0.3
	c0.3,0,0.6-0.1,0.8-0.3v0.3H10.7z M9.9,4.8c0,0.5-0.1,0.9-0.6,0.9S8.8,5.3,8.8,4.8s0.1-0.9,0.5-0.9S9.9,4.3,9.9,4.8L9.9,4.8z
	 M14,6.4V4.3c0-0.6-0.5-1.1-1.1-1.2c-0.1,0-0.2,0-0.3,0c-0.4,0-0.9,0.1-1.1,0.4L12,4.1c0.1-0.2,0.4-0.3,0.6-0.3
	c0.2-0.1,0.5,0.1,0.6,0.3c0,0.1,0,0.1,0,0.2v0.2h-0.8c-0.5-0.1-1,0.3-1.1,0.8c0,0.1,0,0.1,0,0.2c0,0.3,0.1,0.5,0.3,0.7
	c0.2,0.2,0.5,0.3,0.8,0.3c0.3,0,0.6-0.1,0.8-0.3v0.3L14,6.4L14,6.4z M13.2,5.2c0,0.1,0,0.3-0.1,0.4c-0.1,0.1-0.3,0.2-0.5,0.2
	c-0.2,0-0.4-0.1-0.5-0.3c0,0,0-0.1,0-0.1c0-0.2,0.2-0.4,0.4-0.4c0,0,0,0,0,0h0.6L13.2,5.2L13.2,5.2L13.2,5.2z"/>
<path class="st1" d="M0.5,14.4c0,1.1,0.9,2.1,2,2.1l0,0h11.9c1.1,0,2.1-0.9,2.1-2.1l0,0V7.6h-16C0.5,7.6,0.5,14.4,0.5,14.4z"/>
<path class="st2" d="M16.5,2.5c0-1.1-0.9-2-2.1-2c0,0,0,0,0,0H2.5c-1.1,0-2,0.9-2,2v6.8h16V2.5z"/>
<g class="st3">
	<path class="st4" d="M5.3,15.1L3,11.6v3.5H1.9V9.5h1l2.2,3.5V9.5h1.1v5.7H5.3z"/>
	<path class="st4" d="M10.7,15.1l-0.3-1h-2l-0.3,1H6.9l2.1-5.7h0.9l2.1,5.7H10.7z M9.4,11.1l-0.7,2.1h1.4L9.4,11.1z"/>
	<path class="st4" d="M14.3,15.1h-0.8l-1.9-5.7h1.1l1.1,3.7L15,9.5h1.2L14.3,15.1z"/>
</g>
</svg>
