<?xml version="1.0" encoding="utf-8"?>
<!-- Generator: Adobe Illustrator 23.0.6, SVG Export Plug-In . SVG Version: 6.00 Build 0)  -->
<svg version="1.1" id="famillienbüro_1" xmlns="http://www.w3.org/2000/svg" xmlns:xlink="http://www.w3.org/1999/xlink" x="0px"
	 y="0px" width="549.9px" height="59px" viewBox="0 0 549.9 59" style="enable-background:new 0 0 549.9 59;" xml:space="preserve">
<style type="text/css">
	.st0{fill:#1D1D1B;}
</style>
<path class="st0" d="M121.1,38c0,2.3-0.4,3.9-1.4,4.8c-1.7,1.6-3.4,1.8-6,1.8c-3.7,0-5.5-1.8-5.5-4.4c0-2.6,1.9-4.3,5.3-4.3h7.5
	L121.1,38L121.1,38z M130.6,52.1V27c0-8.9-5.6-13.5-16.2-13.5c-6.4,0-10,1.2-13.7,5.3l6.1,5.9c2-2.3,3.7-3.1,7.3-3.1
	c5,0,7.1,1.8,7.1,6v1.9h-9c-8.8,0-13,5-13,11c0,3.4,1.1,6.4,3.1,8.6c2.3,2.3,5.4,3.4,9.7,3.4c4.3,0,6.8-1.1,9.4-3.7v3.3
	C121.3,52.1,130.6,52.1,130.6,52.1z M82.2,33c0,6.2-0.8,11-6.5,11s-6.4-4.7-6.4-11s0.7-10.9,6.4-10.9S82.2,26.8,82.2,33 M91.7,52.1
	V0h-9.5v17.3c-2.5-2.8-5.4-3.8-9.3-3.8c-3.9,0-7.2,1.3-9.3,3.4c-3.8,3.8-3.9,10.3-3.9,16s0.1,12.3,3.9,16.1c2.1,2.1,5.6,3.4,9.4,3.4
	c4,0,6.8-1.1,9.4-4v3.6L91.7,52.1L91.7,52.1z M59.2,56.9H36.5V59h22.7V56.9z M31.4,52.1V27.4c0-8-4.4-13.9-12.7-13.9
	c-3.4,0-6.6,1.3-9.1,3.9V0H0v52.1h9.5V28.8c0-5,3.1-6.7,6.1-6.7s6.2,1.7,6.2,6.7v23.3L31.4,52.1L31.4,52.1z"/>
<path class="st0" d="M167.4,26.4v-8c0-2-1.1-2.8-2.6-2.8s-2.6,0.9-2.6,2.8v8h-2.6V8.2h2.6v6.6c0.9-1,2.1-1.5,3.4-1.5
	c2.9,0,4.5,1.9,4.5,4.8v8.4L167.4,26.4L167.4,26.4z"/>
<path class="st0" d="M182.6,25.1c-0.8,0.9-2.1,1.5-3.9,1.5c-1.8,0-3-0.7-3.9-1.5c-1.2-1.3-1.5-2.9-1.5-5.1s0.3-3.8,1.5-5.1
	c0.8-0.9,2.1-1.5,3.9-1.5c1.8,0,3,0.7,3.9,1.5c1.2,1.3,1.5,2.9,1.5,5.1S183.8,23.8,182.6,25.1z M180.6,16.4
	c-0.5-0.5-1.1-0.7-1.9-0.7c-0.8,0-1.4,0.3-1.9,0.7c-0.8,0.8-0.9,2.1-0.9,3.6c0,1.4,0.1,2.8,0.9,3.6c0.5,0.5,1.1,0.8,1.9,0.8
	c0.8,0,1.4-0.3,1.9-0.8c0.8-0.8,0.9-2.1,0.9-3.6C181.5,18.5,181.4,17.2,180.6,16.4z"/>
<path class="st0" d="M192.7,26.6c-2.9,0-5.8-1.8-5.8-6.7s2.9-6.6,5.8-6.6c1.8,0,3,0.5,4.3,1.8l-1.8,1.7c-0.8-0.9-1.5-1.2-2.5-1.2
	s-1.8,0.4-2.4,1.1c-0.6,0.7-0.8,1.6-0.8,3.1s0.2,2.5,0.8,3.2c0.6,0.7,1.4,1.1,2.4,1.1c1,0,1.7-0.3,2.5-1.2l1.8,1.7
	C195.7,26.1,194.4,26.6,192.7,26.6L192.7,26.6z"/>
<path class="st0" d="M207.6,26.4v-8c0-2-1.1-2.8-2.6-2.8s-2.6,0.9-2.6,2.8v8h-2.6V8.2h2.6v6.6c0.9-1,2.1-1.5,3.4-1.5
	c2.9,0,4.5,1.9,4.5,4.8v8.4L207.6,26.4L207.6,26.4z"/>
<path class="st0" d="M218.4,26.6c-2.1,0-3.9-0.4-5.5-1.9l1.7-1.7c1,1.1,2.5,1.4,3.7,1.4c1.6,0,2.8-0.6,2.8-1.8
	c0-0.9-0.5-1.4-1.7-1.5l-2.1-0.2c-2.4-0.2-3.8-1.3-3.8-3.6c0-2.5,2.2-4,4.9-4c1.9,0,3.6,0.4,4.8,1.5l-1.6,1.7
	c-0.8-0.7-2-0.9-3.2-0.9c-1.6,0-2.4,0.7-2.4,1.7c0,0.8,0.4,1.4,1.8,1.5l2,0.2c2.4,0.2,3.9,1.4,3.9,3.7
	C223.8,25.2,221.5,26.6,218.4,26.6L218.4,26.6z"/>
<path class="st0" d="M232.1,26.6c-2.9,0-5.8-1.8-5.8-6.7s2.9-6.6,5.8-6.6c1.8,0,3,0.5,4.3,1.8l-1.8,1.7c-0.8-0.9-1.5-1.2-2.5-1.2
	s-1.8,0.4-2.4,1.1c-0.6,0.7-0.8,1.6-0.8,3.1s0.2,2.5,0.8,3.2c0.6,0.7,1.4,1.1,2.4,1.1c1,0,1.7-0.3,2.5-1.2l1.8,1.7
	C235.2,26.1,233.9,26.6,232.1,26.6L232.1,26.6z"/>
<path class="st0" d="M247.1,26.4v-8c0-2-1.1-2.8-2.6-2.8s-2.6,0.9-2.6,2.8v8h-2.6V8.2h2.6v6.6c0.9-1,2.1-1.5,3.4-1.5
	c2.9,0,4.5,1.9,4.5,4.8v8.4L247.1,26.4L247.1,26.4z"/>
<path class="st0" d="M261.3,26.4v-1.3c-0.9,1-2.1,1.5-3.5,1.5c-1.3,0-2.4-0.4-3.2-1.2c-1-1-1.3-2.2-1.3-3.7v-8.3h2.6v7.9
	c0,2,1.1,2.9,2.6,2.9c1.5,0,2.7-0.9,2.7-2.9v-7.9h2.6v13H261.3L261.3,26.4z"/>
<path class="st0" d="M271.3,26.4c-2.5,0-3.6-1.7-3.6-3.6V8.2h2.6v14.5c0,1,0.4,1.5,1.4,1.5h1.1v2.2H271.3z"/>
<path class="st0" d="M277.5,20.7c0,2.2,1.2,3.6,3.3,3.6c1.5,0,2.2-0.4,3.1-1.3l1.7,1.6c-1.3,1.3-2.6,2-4.9,2c-3.2,0-5.8-1.7-5.8-6.7
	c0-4.2,2.2-6.6,5.5-6.6s5.5,2.6,5.5,6.2v1.1L277.5,20.7L277.5,20.7z M282.9,17.1c-0.4-1-1.3-1.6-2.6-1.6s-2.2,0.7-2.6,1.6
	c-0.3,0.6-0.3,1-0.3,1.8h5.8C283.3,18.1,283.2,17.7,282.9,17.1L282.9,17.1z"/>
<path class="st0" d="M302.9,26.4v-1.4c-1,1.2-2,1.5-3.4,1.5c-1.3,0-2.5-0.4-3.2-1.1c-1.3-1.3-1.5-3.5-1.5-5.5s0.1-4.2,1.5-5.5
	c0.7-0.7,1.8-1.1,3.1-1.1c1.4,0,2.5,0.3,3.4,1.5V8.2h2.6v18.2L302.9,26.4L302.9,26.4z M300.2,15.6c-2.4,0-2.7,2-2.7,4.3
	s0.4,4.3,2.7,4.3c2.4,0,2.7-2,2.7-4.3S302.6,15.6,300.2,15.6z"/>
<path class="st0" d="M316.5,26.4v-1.2c-0.9,0.9-1.8,1.3-3.5,1.3s-2.7-0.4-3.5-1.2c-0.7-0.7-1-1.7-1-2.8c0-2.2,1.5-3.7,4.5-3.7h3.4
	V18c0-1.6-0.8-2.4-2.8-2.4c-1.4,0-2.1,0.3-2.8,1.3l-1.7-1.6c1.2-1.4,2.5-1.9,4.7-1.9c3.6,0,5.3,1.5,5.3,4.5v8.7L316.5,26.4
	L316.5,26.4z M316.4,20.7h-3c-1.5,0-2.3,0.7-2.3,1.9s0.7,1.8,2.4,1.8c1,0,1.7-0.1,2.4-0.7c0.4-0.4,0.6-1,0.6-1.9L316.4,20.7
	L316.4,20.7z"/>
<path class="st0" d="M330,16.5c-0.6-0.6-1-0.9-1.9-0.9c-1.4,0-2.6,1.1-2.6,2.9v7.9h-2.6v-13h2.6v1.4c0.7-0.9,2-1.6,3.5-1.6
	c1.3,0,2.2,0.3,3.1,1.2L330,16.5z"/>
<path class="st0" d="M350.2,26.4v-7.9c0-2-1.1-2.9-2.6-2.9s-2.7,0.9-2.7,2.8v8h-2.6v-7.9c0-2-1.1-2.9-2.6-2.9s-2.7,0.9-2.7,2.9v7.9
	h-2.6v-13h2.6v1.3c0.9-0.9,2.1-1.5,3.5-1.5c1.6,0,2.9,0.6,3.7,1.9c1-1.3,2.4-1.9,4.1-1.9c1.3,0,2.5,0.4,3.3,1.2c1,1,1.4,2.2,1.4,3.7
	v8.3L350.2,26.4L350.2,26.4z"/>
<path class="st0" d="M361,26.6c-2.1,0-3.9-0.4-5.5-1.9l1.7-1.7c1,1.1,2.5,1.4,3.7,1.4c1.6,0,2.8-0.6,2.8-1.8c0-0.9-0.5-1.4-1.7-1.5
	l-2.1-0.2c-2.4-0.2-3.8-1.3-3.8-3.6c0-2.5,2.2-4,4.9-4c1.9,0,3.6,0.4,4.8,1.5l-1.6,1.7c-0.8-0.7-2-0.9-3.2-0.9
	c-1.6,0-2.4,0.7-2.4,1.7c0,0.8,0.4,1.4,1.8,1.5l2,0.2c2.4,0.2,3.9,1.4,3.9,3.7C366.4,25.2,364.1,26.6,361,26.6z"/>
<path class="st0" d="M373.5,26.4c-2.4,0-3.6-1.7-3.6-3.6v-7.1h-1.5v-2h1.5V9.7h2.6v3.9h2.5v2h-2.5v7c0,0.9,0.5,1.5,1.4,1.5h1.1v2.2
	H373.5L373.5,26.4z"/>
<path class="st0" d="M385.5,26.4v-1.2c-0.9,0.9-1.8,1.3-3.5,1.3s-2.7-0.4-3.5-1.2c-0.7-0.7-1-1.7-1-2.8c0-2.2,1.5-3.7,4.5-3.7h3.4
	V18c0-1.6-0.8-2.4-2.8-2.4c-1.4,0-2.1,0.3-2.8,1.3l-1.7-1.6c1.2-1.4,2.5-1.9,4.7-1.9c3.6,0,5.3,1.5,5.3,4.5v8.7L385.5,26.4
	L385.5,26.4z M385.4,20.7h-3c-1.5,0-2.3,0.7-2.3,1.9s0.7,1.8,2.4,1.8c1,0,1.7-0.1,2.4-0.7c0.4-0.4,0.6-1,0.6-1.9L385.4,20.7
	L385.4,20.7z"/>
<path class="st0" d="M399.4,26.4v-1.4c-1,1.2-2,1.5-3.4,1.5c-1.3,0-2.5-0.4-3.2-1.1c-1.3-1.3-1.5-3.5-1.5-5.5s0.1-4.2,1.5-5.5
	c0.7-0.7,1.8-1.1,3.1-1.1c1.4,0,2.5,0.3,3.4,1.5V8.2h2.6v18.2L399.4,26.4L399.4,26.4z M396.6,15.6c-2.4,0-2.7,2-2.7,4.3
	s0.4,4.3,2.7,4.3s2.7-2,2.7-4.3S399,15.6,396.6,15.6z"/>
<path class="st0" d="M409.8,26.4c-2.4,0-3.6-1.7-3.6-3.6v-7.1h-1.5v-2h1.5V9.7h2.6v3.9h2.5v2h-2.5v7c0,0.9,0.5,1.5,1.4,1.5h1.1v2.2
	H409.8L409.8,26.4z"/>
<path class="st0" d="M161.7,52.1h-1.3V40.7h-1.7v-1h1.7v-2.7c0-1.9,1-3.2,3-3.2h1.1V35h-0.9c-1.3,0-1.9,0.7-1.9,2v2.7h2.8v1h-2.8
	L161.7,52.1L161.7,52.1z"/>
<path class="st0" d="M175.1,50.8c-1,1-2,1.4-3.8,1.4c-1.8,0-2.8-0.3-3.6-1.1c-0.6-0.6-0.9-1.5-0.9-2.4c0-2.2,1.6-3.6,4.3-3.6h4v-1.4
	c0-2-0.9-3-3.5-3c-1.7,0-2.6,0.4-3.4,1.6l-0.9-0.8c1-1.5,2.3-1.9,4.4-1.9c3.3,0,4.8,1.5,4.8,4v8.4h-1.3L175.1,50.8L175.1,50.8z
	 M171.3,46.2c-2.1,0-3.1,0.8-3.1,2.5s1,2.4,3.2,2.4c1.1,0,2.2-0.1,3.1-0.9c0.5-0.4,0.7-1.2,0.7-2.4v-1.6H171.3L171.3,46.2z"/>
<path class="st0" d="M197.4,44.4c0-2.4-1.2-3.7-3.4-3.7s-3.5,1.3-3.5,3.5v7.9h-1.3v-7.7c0-2.4-1.2-3.7-3.4-3.7
	c-2.2,0-3.5,1.3-3.5,3.7v7.7H181V39.7h1.3v1.5c0.9-1.1,2.1-1.6,3.7-1.6c1.8,0,3.2,0.8,4,2.2c0.9-1.5,2.4-2.2,4.2-2.2
	c1.4,0,2.5,0.4,3.2,1.2c0.8,0.8,1.3,2,1.3,3.4v7.9h-1.3L197.4,44.4L197.4,44.4z"/>
<path class="st0" d="M202.9,33.8h1.6v1.6h-1.6V33.8z M203.1,39.7h1.3v12.3h-1.3V39.7z"/>
<path class="st0" d="M208.9,48.9v-15h1.3v15c0,1.4,0.4,2.1,1.9,2.1h0.9v1.1h-1.1C209.9,52.1,208.9,50.8,208.9,48.9L208.9,48.9z"/>
<path class="st0" d="M216.3,33.8h1.6v1.6h-1.6V33.8z M216.5,39.7h1.3v12.3h-1.3V39.7z"/>
<path class="st0" d="M227,51c1.5,0,2.4-0.4,3.4-1.5l1,0.8c-1.2,1.3-2.4,1.9-4.5,1.9c-3.4,0-5.2-2.2-5.2-6.3s1.8-6.3,4.9-6.3
	s4.9,2.2,4.9,6v0.6H223C223,49.3,224.4,51,227,51z M229.9,42.8c-0.5-1.3-1.8-2.1-3.2-2.1s-2.7,0.8-3.2,2.1c-0.3,0.8-0.4,1.1-0.4,2.3
	h7.3C230.2,43.9,230.2,43.5,229.9,42.8z"/>
<path class="st0" d="M243.7,44.4c0-2.4-1.2-3.7-3.4-3.7c-2.2,0-3.5,1.3-3.5,3.7v7.7h-1.3V39.7h1.3v1.5c0.9-1.1,2.1-1.6,3.6-1.6
	c1.4,0,2.5,0.4,3.3,1.2c0.8,0.8,1.3,2,1.3,3.4v7.9h-1.3V44.4z"/>
<path class="st0" d="M257.4,51.1c-0.6,0.6-1.7,1.1-3,1.1c-1.4,0-2.6-0.3-3.7-1.7v1.6h-1.3V33.8h1.3v7.5c1.1-1.4,2.2-1.7,3.7-1.7
	c1.3,0,2.4,0.4,3,1.1c1.2,1.3,1.6,3.3,1.6,5.2C259,47.9,258.7,49.9,257.4,51.1L257.4,51.1z M254.2,40.7c-3,0-3.5,2.6-3.5,5.2
	c0,2.6,0.5,5.2,3.5,5.2s3.5-2.6,3.5-5.2C257.7,43.3,257.3,40.7,254.2,40.7z"/>
<path class="st0" d="M271.1,50.6c-0.9,1.1-2.1,1.6-3.6,1.6c-1.4,0-2.5-0.4-3.3-1.2c-0.8-0.8-1.3-2-1.3-3.4v-7.9h1.3v7.7
	c0,2.4,1.2,3.7,3.4,3.7c2.2,0,3.5-1.3,3.5-3.7v-7.7h1.3v12.3h-1.3V50.6z M264.2,34.7h1.5v2h-1.5V34.7z M269.6,34.7h1.5v2h-1.5V34.7z
	"/>
<path class="st0" d="M281.6,40.7c-2.1,0-3.3,1.8-3.3,3.7v7.6H277V39.7h1.3v1.6c0.7-1.1,2.1-1.8,3.6-1.8c1.2,0,2.1,0.3,3,1.2
	l-0.9,0.9C283.2,41,282.6,40.7,281.6,40.7L281.6,40.7z"/>
<path class="st0" d="M295.2,50.9c-0.9,0.9-2,1.4-3.4,1.4c-1.4,0-2.5-0.5-3.4-1.4c-1.3-1.3-1.5-3.2-1.5-5s0.2-3.7,1.5-5
	c0.9-0.9,2-1.4,3.4-1.4c1.4,0,2.5,0.5,3.4,1.4c1.3,1.3,1.5,3.2,1.5,5S296.5,49.6,295.2,50.9z M294.3,41.8c-0.7-0.7-1.6-1-2.6-1
	c-1,0-1.9,0.4-2.6,1c-1,1-1.1,2.7-1.1,4.1c0,1.4,0.1,3.1,1.1,4.1c0.7,0.7,1.6,1,2.6,1c1,0,1.9-0.4,2.6-1c1-1,1.1-2.7,1.1-4.1
	C295.4,44.5,295.3,42.8,294.3,41.8z"/>
</svg>
