<svg id="b0ca5b17-a893-4b62-8468-3fe86f8e672e" data-name="Ebene 2" xmlns="http://www.w3.org/2000/svg" width="465" height="90" viewBox="0 0 465 90">
  <g>
    <g>
      <path d="M7.28,48.05V61.57H3V48.05H1.16V44.76H3V42.6a5.65,5.65,0,0,1,.3-1.82,4.58,4.58,0,0,1,.91-1.57,4.42,4.42,0,0,1,1.56-1.13A5.42,5.42,0,0,1,8,37.64h2.46V41.3H8.77c-1,0-1.49.52-1.49,1.56v1.9h3.19v3.29Z"/>
      <path d="M12.26,61.57V58.28l7.68-10.13H12.7V44.26H25.46v3.29L17.68,57.68h7.78v3.89Z"/>
      <path d="M45.26,61.57V60.08a5.82,5.82,0,0,1-1.81,1.26,6.47,6.47,0,0,1-2.44.4,6,6,0,0,1-4.42-1.53,5,5,0,0,1-1.07-1.73,6.28,6.28,0,0,1-.36-2.16,5.23,5.23,0,0,1,.36-1.94,4.5,4.5,0,0,1,1.1-1.6,5.38,5.38,0,0,1,1.85-1.08,7.85,7.85,0,0,1,2.6-.4h4.09v-.86a2.61,2.61,0,0,0-.75-2.08,3.75,3.75,0,0,0-2.47-.65,5.89,5.89,0,0,0-1.1.09,3.23,3.23,0,0,0-.85.25,3.06,3.06,0,0,0-.71.43,5.13,5.13,0,0,0-.66.66l-2.76-2.69a6.59,6.59,0,0,1,2.67-1.89,10.65,10.65,0,0,1,3.57-.5,8.53,8.53,0,0,1,5.52,1.53,5.58,5.58,0,0,1,1.86,4.58v11.4Zm-.1-7.31H41.74a2.76,2.76,0,0,0-1.8.52,1.75,1.75,0,0,0-.63,1.44,1.86,1.86,0,0,0,.62,1.45,2.78,2.78,0,0,0,1.88.54,7.42,7.42,0,0,0,1.52-.13,2.42,2.42,0,0,0,1.2-.7,3,3,0,0,0,.63-2.19Z"/>
      <path d="M53.74,41.3V37.78h4.42V41.3Zm.06,20.27V44.26h4.32V61.57Z"/>
    </g>
    <g>
      <path d="M73.8,46.73V52.8H81v1.57H73.8v7.27H72V45.16H82.27v1.57Z"/>
      <path d="M95.61,53.4c0,.88,0,1.65,0,2.31a11,11,0,0,1-.18,1.75A5.43,5.43,0,0,1,95,58.87a5,5,0,0,1-.89,1.2,5.71,5.71,0,0,1-1.9,1.27,5.88,5.88,0,0,1-2.32.44,5.73,5.73,0,0,1-4.21-1.71,4.77,4.77,0,0,1-.89-1.2,5.84,5.84,0,0,1-.47-1.41,11,11,0,0,1-.17-1.75c0-.66,0-1.43,0-2.31s0-1.65,0-2.3a11.18,11.18,0,0,1,.17-1.76,5.62,5.62,0,0,1,.47-1.4,4.64,4.64,0,0,1,.89-1.21,6,6,0,0,1,8.43,0A4.88,4.88,0,0,1,95,47.94a5.23,5.23,0,0,1,.46,1.4,11.1,11.1,0,0,1,.18,1.76C95.6,51.75,95.61,52.52,95.61,53.4Zm-1.76,0c0-.86,0-1.59,0-2.19a9.85,9.85,0,0,0-.15-1.51,3.81,3.81,0,0,0-.34-1.08,3.55,3.55,0,0,0-.63-.84,3.59,3.59,0,0,0-1.28-.87,4.08,4.08,0,0,0-1.57-.32,4,4,0,0,0-1.56.32,3.59,3.59,0,0,0-1.28.87,3.08,3.08,0,0,0-.63.84A4.15,4.15,0,0,0,86,49.7a13.24,13.24,0,0,0-.15,1.51q0,.9,0,2.19t0,2.19A13.68,13.68,0,0,0,86,57.11a4.2,4.2,0,0,0,.35,1.07A3.12,3.12,0,0,0,87,59a3.73,3.73,0,0,0,1.28.87,4.17,4.17,0,0,0,1.56.31,4.26,4.26,0,0,0,1.57-.31A3.73,3.73,0,0,0,92.69,59a3.6,3.6,0,0,0,.63-.85,3.84,3.84,0,0,0,.34-1.07,10.13,10.13,0,0,0,.15-1.52C93.84,55,93.85,54.27,93.85,53.4Z"/>
      <path d="M108.92,61.64l-3.75-7.31h-4v7.31H99.45V45.16h6.32a5.94,5.94,0,0,1,2,.31,4.49,4.49,0,0,1,1.55.9,4,4,0,0,1,1,1.45,4.9,4.9,0,0,1,.36,1.92,4.33,4.33,0,0,1-1,3,4.52,4.52,0,0,1-2.59,1.47L111,61.64Zm0-11.87a2.8,2.8,0,0,0-.91-2.28,3.6,3.6,0,0,0-2.38-.76h-4.4v6.05h4.4A3.7,3.7,0,0,0,108,52,2.78,2.78,0,0,0,108.9,49.77Z"/>
      <path d="M124.27,57.11a4.56,4.56,0,0,1-.4,2,4.06,4.06,0,0,1-1.16,1.47,5.48,5.48,0,0,1-1.8.93,8.15,8.15,0,0,1-2.33.32,8.78,8.78,0,0,1-3.17-.51,7.16,7.16,0,0,1-2.48-1.66l1.2-1.21a6.12,6.12,0,0,0,2.06,1.42,7,7,0,0,0,2.43.39,4.58,4.58,0,0,0,2.85-.8,2.67,2.67,0,0,0,1-2.26,3.44,3.44,0,0,0-.19-1.18,2.17,2.17,0,0,0-.59-.88,2.66,2.66,0,0,0-.82-.5,9,9,0,0,0-1.34-.29l-1.92-.3a6,6,0,0,1-3-1.25,3.91,3.91,0,0,1-1.25-3.08,4.78,4.78,0,0,1,.37-1.91,4.21,4.21,0,0,1,1.05-1.47,4.87,4.87,0,0,1,1.66-.93,6.56,6.56,0,0,1,2.2-.34,7.83,7.83,0,0,1,2.71.42,7.15,7.15,0,0,1,2.2,1.34l-1.14,1.13a5.71,5.71,0,0,0-1.64-1,5.85,5.85,0,0,0-2.2-.36,3.63,3.63,0,0,0-2.57.84,2.92,2.92,0,0,0-.9,2.24,2.42,2.42,0,0,0,.74,1.92,3.94,3.94,0,0,0,1,.56,7.09,7.09,0,0,0,1.24.35l1.81.27,1,.2a5.74,5.74,0,0,1,.79.24,4.24,4.24,0,0,1,.64.32,3.43,3.43,0,0,1,.54.4A4.06,4.06,0,0,1,124.27,57.11Z"/>
      <path d="M138.51,56.88a6.65,6.65,0,0,1-.7,2.07,5.26,5.26,0,0,1-1.25,1.54,5.8,5.8,0,0,1-1.7,1,6.28,6.28,0,0,1-2.07.33,5.92,5.92,0,0,1-2.3-.44,5.65,5.65,0,0,1-1.91-1.27,4.77,4.77,0,0,1-.89-1.2,5.43,5.43,0,0,1-.46-1.41,9.92,9.92,0,0,1-.18-1.75c0-.66,0-1.43,0-2.31s0-1.65,0-2.3a10,10,0,0,1,.18-1.76,5.23,5.23,0,0,1,.46-1.4,4.64,4.64,0,0,1,.89-1.21,5.81,5.81,0,0,1,1.91-1.27,6.11,6.11,0,0,1,2.3-.44,6,6,0,0,1,2.07.34,5.38,5.38,0,0,1,1.7,1,5.13,5.13,0,0,1,1.25,1.54,6.65,6.65,0,0,1,.7,2.07h-1.8a4.41,4.41,0,0,0-1.34-2.43,3.76,3.76,0,0,0-2.58-.91,4.17,4.17,0,0,0-1.56.31,3.55,3.55,0,0,0-1.28.85,3.35,3.35,0,0,0-.63.85,4.11,4.11,0,0,0-.35,1.09,13.68,13.68,0,0,0-.15,1.52q0,.9,0,2.19t0,2.19a14.14,14.14,0,0,0,.15,1.53,4.23,4.23,0,0,0,.35,1.09,3.3,3.3,0,0,0,.63.84,3.57,3.57,0,0,0,1.28.86,4.16,4.16,0,0,0,1.56.3,3.84,3.84,0,0,0,2.6-.9,4.32,4.32,0,0,0,1.36-2.43Z"/>
      <path d="M151.69,61.64V54.12h-7.83v7.52H142.1V45.16h1.76v7.38h7.83V45.16h1.76V61.64Z"/>
      <path d="M169.19,56.2a5.76,5.76,0,0,1-.43,2.26,5,5,0,0,1-1.2,1.77,5.41,5.41,0,0,1-1.83,1.15,6.84,6.84,0,0,1-4.61,0,5.14,5.14,0,0,1-1.81-1.15,5.23,5.23,0,0,1-1.2-1.77,6,6,0,0,1-.43-2.26v-11h1.76v10.9a5.13,5.13,0,0,0,.28,1.72,3.53,3.53,0,0,0,.8,1.29,3.67,3.67,0,0,0,1.26.84,4.4,4.4,0,0,0,1.65.3,4.32,4.32,0,0,0,1.64-.3,3.62,3.62,0,0,0,2.07-2.13,4.67,4.67,0,0,0,.29-1.72V45.16h1.76Z"/>
      <path d="M183.94,61.64l-8.75-13.22V61.64h-1.76V45.16h1.67l8.75,13.17V45.16h1.76V61.64Z"/>
      <path d="M201,55.62a8.27,8.27,0,0,1-.32,2.45,4.77,4.77,0,0,1-1.09,1.81,5.8,5.8,0,0,1-2,1.43,6.14,6.14,0,0,1-2.39.47,5.94,5.94,0,0,1-2.31-.44A5.75,5.75,0,0,1,191,60.07a5,5,0,0,1-.89-1.2,5.43,5.43,0,0,1-.46-1.41,10,10,0,0,1-.17-1.75q0-1,0-2.31c0-.88,0-1.65,0-2.3a10.1,10.1,0,0,1,.17-1.76,5.23,5.23,0,0,1,.46-1.4,4.88,4.88,0,0,1,.89-1.21A5.75,5.75,0,0,1,195.22,45a6.24,6.24,0,0,1,2.16.36,5.35,5.35,0,0,1,1.73,1A5.45,5.45,0,0,1,200.32,48a6.48,6.48,0,0,1,.66,2h-1.76a4.31,4.31,0,0,0-1.4-2.46,3.86,3.86,0,0,0-2.6-.9,4.08,4.08,0,0,0-1.57.32,3.59,3.59,0,0,0-1.28.87,3.55,3.55,0,0,0-.63.84,3.81,3.81,0,0,0-.34,1.08,9.85,9.85,0,0,0-.15,1.51c0,.6,0,1.33,0,2.19s0,1.6,0,2.19a10.41,10.41,0,0,0,.15,1.53,3.88,3.88,0,0,0,.34,1.09,3.88,3.88,0,0,0,1.91,1.7,4.27,4.27,0,0,0,3.29-.06,3.72,3.72,0,0,0,1.4-1.05,3.6,3.6,0,0,0,.72-1.31,5.93,5.93,0,0,0,.21-1.68V54.56h-4.05V53H201Z"/>
      <path d="M214.76,57.11a4.57,4.57,0,0,1-.41,2,4,4,0,0,1-1.15,1.47,5.63,5.63,0,0,1-1.81.93,8.1,8.1,0,0,1-2.33.32,8.82,8.82,0,0,1-3.17-.51,7.26,7.26,0,0,1-2.48-1.66l1.21-1.21a6,6,0,0,0,2.06,1.42,6.88,6.88,0,0,0,2.43.39,4.62,4.62,0,0,0,2.85-.8,2.69,2.69,0,0,0,1-2.26,3.44,3.44,0,0,0-.2-1.18,2.17,2.17,0,0,0-.59-.88,2.45,2.45,0,0,0-.82-.5,9.11,9.11,0,0,0-1.33-.29l-1.92-.3a6,6,0,0,1-3-1.25,3.91,3.91,0,0,1-1.25-3.08,5,5,0,0,1,.37-1.91,4.11,4.11,0,0,1,1.06-1.47,4.82,4.82,0,0,1,1.65-.93,6.56,6.56,0,0,1,2.2-.34,7.79,7.79,0,0,1,2.71.42,7,7,0,0,1,2.2,1.34l-1.13,1.13a5.62,5.62,0,0,0-1.65-1,5.82,5.82,0,0,0-2.2-.36,3.65,3.65,0,0,0-2.57.84,2.92,2.92,0,0,0-.9,2.24,2.45,2.45,0,0,0,.74,1.92,3.84,3.84,0,0,0,1,.56,7,7,0,0,0,1.23.35l1.81.27c.39.07.73.13,1,.2a5.91,5.91,0,0,1,.8.24,5.46,5.46,0,0,1,.64.32,3.43,3.43,0,0,1,.54.4A4.06,4.06,0,0,1,214.76,57.11Z"/>
      <path d="M217.07,61.64V60l8.25-13.25H217.4V45.16h9.91v1.48L219,60.07h8.31v1.57Z"/>
      <path d="M230.71,61.64V45.16H241v1.57h-8.48v5.81h7.23v1.58h-7.23v6H241v1.57Z"/>
      <path d="M254.82,61.64l-8.76-13.22V61.64H244.3V45.16H246l8.75,13.17V45.16h1.76V61.64Z"/>
      <path d="M265.79,46.73V61.64H264V46.73h-4.77V45.16h11.3v1.57Z"/>
      <path d="M282.81,61.64l-3.75-7.31h-4v7.31h-1.76V45.16h6.32a5.94,5.94,0,0,1,2,.31,4.49,4.49,0,0,1,1.55.9,4.16,4.16,0,0,1,1,1.45,4.9,4.9,0,0,1,.36,1.92,4.38,4.38,0,0,1-1,3A4.56,4.56,0,0,1,281,54.17l3.91,7.47Zm0-11.87a2.78,2.78,0,0,0-.92-2.28,3.57,3.57,0,0,0-2.37-.76h-4.4v6.05h4.4a3.67,3.67,0,0,0,2.37-.74A2.76,2.76,0,0,0,282.79,49.77Z"/>
      <path d="M299.5,56.2a5.76,5.76,0,0,1-.43,2.26,5,5,0,0,1-1.2,1.77A5.41,5.41,0,0,1,296,61.38a6.84,6.84,0,0,1-4.61,0,5.14,5.14,0,0,1-1.81-1.15,5.23,5.23,0,0,1-1.2-1.77A5.94,5.94,0,0,1,288,56.2v-11h1.75v10.9a5.13,5.13,0,0,0,.28,1.72,3.53,3.53,0,0,0,.8,1.29,3.67,3.67,0,0,0,1.26.84,4.4,4.4,0,0,0,1.65.3,4.32,4.32,0,0,0,1.64-.3,3.49,3.49,0,0,0,1.26-.84,3.55,3.55,0,0,0,.81-1.29,4.67,4.67,0,0,0,.29-1.72V45.16h1.76Z"/>
      <path d="M316.1,61.64V49.12l-4.51,9.93h-1.51l-4.58-9.93V61.64h-1.76V45.16h1.76l5.37,11.69,5.23-11.69h1.76V61.64Z"/>
      <path d="M81.65,89.43,80.33,85.7h-7.2l-1.32,3.73H69.93L76,72.94h1.48l6,16.49Zm-4.89-14-3.1,8.75h6.16Z"/>
      <path d="M96.35,89.43,87.6,76.21V89.43H85.84V72.94H87.5l8.76,13.18V72.94H98V89.43Z"/>
      <path d="M113.39,83.41a8.2,8.2,0,0,1-.32,2.44A4.81,4.81,0,0,1,112,87.67a5.83,5.83,0,0,1-2,1.42,6.24,6.24,0,0,1-4.7,0,5.7,5.7,0,0,1-1.91-1.27,4.69,4.69,0,0,1-.9-1.21,5.75,5.75,0,0,1-.46-1.4,10.1,10.1,0,0,1-.17-1.76c0-.66,0-1.42,0-2.3s0-1.65,0-2.31a10.2,10.2,0,0,1,.17-1.76,5.9,5.9,0,0,1,.46-1.4,4.65,4.65,0,0,1,.9-1.2,5.72,5.72,0,0,1,4.21-1.72,6.29,6.29,0,0,1,2.17.36,5.3,5.3,0,0,1,1.72,1,5.57,5.57,0,0,1,1.22,1.57,6.65,6.65,0,0,1,.65,2h-1.75a4.38,4.38,0,0,0-1.41-2.47,3.91,3.91,0,0,0-2.6-.89,4,4,0,0,0-1.56.31,3.77,3.77,0,0,0-1.29.87,3.14,3.14,0,0,0-.62.85,3.84,3.84,0,0,0-.35,1.07,10,10,0,0,0-.15,1.52c0,.59,0,1.32,0,2.19s0,1.59,0,2.19a10.13,10.13,0,0,0,.15,1.52,3.77,3.77,0,0,0,.35,1.09,3.48,3.48,0,0,0,.62.85,3.59,3.59,0,0,0,1.29.85,4.16,4.16,0,0,0,1.56.3,4.05,4.05,0,0,0,1.72-.36,3.77,3.77,0,0,0,2.12-2.36,5.93,5.93,0,0,0,.21-1.68V82.34h-4V80.79h5.81Z"/>
      <path d="M117.14,89.43V72.94h10.24v1.58H118.9v5.81h7.23V81.9H118.9v6h8.48v1.57Z"/>
      <path d="M143.49,89.43h-1.66l-3.64-13.2-3.64,13.2h-1.66l-4.22-16.49h1.88l3.23,13.29,3.62-13.29H139l3.62,13.29,3.23-13.29h1.88Z"/>
      <path d="M159.47,89.43l-1.32-3.73H151l-1.32,3.73h-1.88l6.07-16.49h1.48l6,16.49Zm-4.89-14-3.1,8.75h6.16Z"/>
      <path d="M174.17,89.43l-8.75-13.22V89.43h-1.76V72.94h1.67l8.75,13.18V72.94h1.76V89.43Z"/>
      <path d="M191.7,81c0,.57,0,1.17,0,1.81a14.28,14.28,0,0,1-.15,1.86,8,8,0,0,1-.48,1.75,4.3,4.3,0,0,1-1,1.48A5,5,0,0,1,188.27,89a6.83,6.83,0,0,1-2.36.39h-5.65V72.94h5.65a6.83,6.83,0,0,1,2.36.4,5,5,0,0,1,1.81,1.13,4.51,4.51,0,0,1,1,1.43,6.74,6.74,0,0,1,.48,1.62,12.23,12.23,0,0,1,.15,1.73C191.69,79.85,191.7,80.43,191.7,81Zm-1.76,0c0-.51,0-1,0-1.51a12.77,12.77,0,0,0-.11-1.44,5.94,5.94,0,0,0-.32-1.29,3.27,3.27,0,0,0-.65-1,3.56,3.56,0,0,0-1.46-.94,5.89,5.89,0,0,0-1.78-.26H182V87.86h3.59a5.59,5.59,0,0,0,1.78-.27,3.56,3.56,0,0,0,1.46-.94,3.06,3.06,0,0,0,.65-1.1,6.91,6.91,0,0,0,.32-1.41,15.48,15.48,0,0,0,.11-1.56C189.93,82,189.94,81.51,189.94,81Z"/>
      <path d="M199.87,74.52V89.43h-1.76V74.52h-4.77V72.94h11.3v1.58Z"/>
      <path d="M207.37,89.43V72.94h10.24v1.58h-8.48v5.81h7.23V81.9h-7.23v6h8.48v1.57Z"/>
      <path d="M226.34,89.43V72.94h1.76V89.43Z"/>
      <path d="M243,89.43l-8.75-13.22V89.43h-1.76V72.94h1.67l8.75,13.18V72.94h1.76V89.43Z"/>
      <path d="M250.88,74.52v6.06h7.22v1.58h-7.22v7.27h-1.76V72.94h10.23v1.58Z"/>
      <path d="M272.64,81.19c0,.88,0,1.64,0,2.3a10.1,10.1,0,0,1-.17,1.76,5.75,5.75,0,0,1-.46,1.4,4.69,4.69,0,0,1-.9,1.21,5.72,5.72,0,0,1-1.89,1.27,6.14,6.14,0,0,1-2.32.44,5.72,5.72,0,0,1-4.21-1.71,4.69,4.69,0,0,1-.9-1.21,5.75,5.75,0,0,1-.46-1.4,10.1,10.1,0,0,1-.17-1.76c0-.66,0-1.42,0-2.3s0-1.65,0-2.31a10.2,10.2,0,0,1,.17-1.76,5.9,5.9,0,0,1,.46-1.4,4.65,4.65,0,0,1,.9-1.2,6,6,0,0,1,8.42,0,4.65,4.65,0,0,1,.9,1.2,5.9,5.9,0,0,1,.46,1.4,10.2,10.2,0,0,1,.17,1.76C272.64,79.54,272.64,80.31,272.64,81.19Zm-1.75,0c0-.87,0-1.6,0-2.19a10,10,0,0,0-.15-1.52,3.84,3.84,0,0,0-.35-1.07,3.14,3.14,0,0,0-.62-.85,3.86,3.86,0,0,0-1.29-.87,4.08,4.08,0,0,0-3.12,0,3.77,3.77,0,0,0-1.29.87,3.14,3.14,0,0,0-.62.85,3.84,3.84,0,0,0-.35,1.07,10,10,0,0,0-.15,1.52c0,.59,0,1.32,0,2.19s0,1.59,0,2.19a10,10,0,0,0,.15,1.51,3.81,3.81,0,0,0,.35,1.08,3.26,3.26,0,0,0,.62.84,3.77,3.77,0,0,0,1.29.87,4.08,4.08,0,0,0,3.12,0,3.86,3.86,0,0,0,1.29-.87,3.26,3.26,0,0,0,.62-.84,3.81,3.81,0,0,0,.35-1.08,10,10,0,0,0,.15-1.51C270.87,82.78,270.89,82.05,270.89,81.19Z"/>
      <path d="M285.91,89.43l-3.75-7.32h-4v7.32h-1.76V72.94h6.32a5.94,5.94,0,0,1,2,.32,4.33,4.33,0,0,1,1.55.9,4.07,4.07,0,0,1,1,1.45,4.9,4.9,0,0,1,.36,1.92,4.31,4.31,0,0,1-1,3A4.45,4.45,0,0,1,284.06,82L288,89.43Zm0-11.88a2.78,2.78,0,0,0-.92-2.28,3.6,3.6,0,0,0-2.37-.75h-4.4v6h4.4a3.65,3.65,0,0,0,2.37-.74A2.74,2.74,0,0,0,285.89,77.55Z"/>
      <path d="M303.65,89.43V76.9l-4.52,9.94h-1.5L293,76.9V89.43h-1.76V72.94H293l5.38,11.7,5.23-11.7h1.76V89.43Z"/>
      <path d="M319.44,89.43l-1.32-3.73h-7.2l-1.32,3.73h-1.88l6.07-16.49h1.48l6,16.49Zm-4.89-14-3.1,8.75h6.16Z"/>
      <path d="M327.08,74.52V89.43h-1.76V74.52h-4.77V72.94h11.3v1.58Z"/>
      <path d="M334.58,89.43V72.94h1.76V89.43Z"/>
      <path d="M351,89.43l-5-8.78-3.48,4.17v4.61h-1.76V72.94h1.76v9.47l7.69-9.47h2.15l-5.18,6.37,5.93,10.12Z"/>
    </g>
  </g>
</svg>
