<svg id="f01026a7-fa83-44bb-bfa7-952fdfa32ccb" data-name="Ebene 2" xmlns="http://www.w3.org/2000/svg" width="501" height="241" viewBox="0 0 501 241">
  <g>
    <g>
      <g>
        <path d="M44,79.61a1.51,1.51,0,1,1,1.5-1.52A1.5,1.5,0,0,1,44,79.61Z" fill="#ad1815"/>
        <path d="M50,79.61a1.51,1.51,0,1,1,1.5-1.52A1.51,1.51,0,0,1,50,79.61Z" fill="#ad1815"/>
        <path d="M56,79.61a1.51,1.51,0,1,1,1.5-1.52A1.5,1.5,0,0,1,56,79.61Z" fill="#ad1815"/>
        <path d="M62.06,79.61a1.51,1.51,0,1,1,1.5-1.52A1.51,1.51,0,0,1,62.06,79.61Z" fill="#ad1815"/>
        <path d="M68.08,79.61a1.51,1.51,0,1,1,1.5-1.52A1.5,1.5,0,0,1,68.08,79.61Z" fill="#ad1815"/>
      </g>
      <g>
        <path d="M38,83.86a1.51,1.51,0,1,1,1.5-1.51A1.51,1.51,0,0,1,38,83.86Z" fill="#ad1815"/>
        <path d="M44,83.86a1.51,1.51,0,1,1,1.5-1.51A1.5,1.5,0,0,1,44,83.86Z" fill="#ad1815"/>
        <path d="M50,83.86a1.51,1.51,0,1,1,1.5-1.51A1.51,1.51,0,0,1,50,83.86Z" fill="#ad1815"/>
        <path d="M56,83.86a1.51,1.51,0,1,1,1.5-1.51A1.5,1.5,0,0,1,56,83.86Z" fill="#ad1815"/>
        <path d="M62.06,83.86a1.51,1.51,0,1,1,1.5-1.51A1.51,1.51,0,0,1,62.06,83.86Z" fill="#ad1815"/>
        <path d="M68.08,83.86a1.51,1.51,0,1,1,1.5-1.51A1.5,1.5,0,0,1,68.08,83.86Z" fill="#ad1815"/>
      </g>
      <g>
        <path d="M62.06,88.11a1.51,1.51,0,1,1,1.5-1.52A1.51,1.51,0,0,1,62.06,88.11Z" fill="#ad1815"/>
        <path d="M68.08,88.11a1.51,1.51,0,1,1,1.5-1.52A1.5,1.5,0,0,1,68.08,88.11Z" fill="#ad1815"/>
        <path d="M86.16,88.11a1.51,1.51,0,1,1,1.5-1.52A1.51,1.51,0,0,1,86.16,88.11Z" fill="#ad1815"/>
      </g>
      <g>
        <path d="M62.06,92.36a1.51,1.51,0,1,1,1.5-1.52A1.51,1.51,0,0,1,62.06,92.36Z" fill="#ad1815"/>
        <path d="M68.08,92.36a1.51,1.51,0,1,1,1.5-1.52A1.5,1.5,0,0,1,68.08,92.36Z" fill="#ad1815"/>
        <path d="M80.13,92.36a1.51,1.51,0,1,1,1.5-1.52A1.5,1.5,0,0,1,80.13,92.36Z" fill="#ad1815"/>
        <path d="M86.16,92.36a1.51,1.51,0,1,1,1.5-1.52A1.51,1.51,0,0,1,86.16,92.36Z" fill="#ad1815"/>
      </g>
      <g>
        <path d="M62.06,96.62a1.51,1.51,0,1,1,1.5-1.52A1.52,1.52,0,0,1,62.06,96.62Z" fill="#ad1815"/>
        <path d="M68.08,96.62a1.51,1.51,0,1,1,1.5-1.52A1.51,1.51,0,0,1,68.08,96.62Z" fill="#ad1815"/>
        <path d="M80.13,96.62a1.51,1.51,0,1,1,1.5-1.52A1.51,1.51,0,0,1,80.13,96.62Z" fill="#ad1815"/>
        <path d="M86.16,96.62a1.51,1.51,0,1,1,1.5-1.52A1.52,1.52,0,0,1,86.16,96.62Z" fill="#ad1815"/>
        <path d="M104.23,96.62a1.51,1.51,0,1,1,1.5-1.52A1.51,1.51,0,0,1,104.23,96.62Z" fill="#ad1815"/>
      </g>
      <g>
        <path d="M62.06,100.87a1.51,1.51,0,1,1,0-3,1.51,1.51,0,0,1,0,3Z" fill="#ad1815"/>
        <path d="M68.08,100.87a1.51,1.51,0,1,1,1.5-1.52A1.51,1.51,0,0,1,68.08,100.87Z" fill="#ad1815"/>
        <path d="M80.13,100.87a1.51,1.51,0,1,1,1.5-1.52A1.51,1.51,0,0,1,80.13,100.87Z" fill="#ad1815"/>
        <path d="M86.16,100.87a1.51,1.51,0,1,1,0-3,1.51,1.51,0,0,1,0,3Z" fill="#ad1815"/>
        <path d="M98.21,100.87a1.51,1.51,0,1,1,0-3,1.51,1.51,0,0,1,0,3Z" fill="#ad1815"/>
        <path d="M104.23,100.87a1.51,1.51,0,1,1,1.5-1.52A1.51,1.51,0,0,1,104.23,100.87Z" fill="#ad1815"/>
      </g>
      <g>
        <path d="M25.91,105.12a1.51,1.51,0,1,1,1.5-1.52A1.51,1.51,0,0,1,25.91,105.12Z" fill="#ad1815"/>
        <path d="M31.93,105.12a1.51,1.51,0,1,1,1.5-1.52A1.5,1.5,0,0,1,31.93,105.12Z" fill="#ad1815"/>
        <path d="M38,105.12a1.51,1.51,0,1,1,1.5-1.52A1.51,1.51,0,0,1,38,105.12Z" fill="#ad1815"/>
        <path d="M44,105.12a1.51,1.51,0,1,1,1.5-1.52A1.5,1.5,0,0,1,44,105.12Z" fill="#ad1815"/>
        <path d="M50,105.12a1.51,1.51,0,1,1,1.5-1.52A1.51,1.51,0,0,1,50,105.12Z" fill="#ad1815"/>
        <path d="M62.06,105.12a1.51,1.51,0,1,1,1.5-1.52A1.51,1.51,0,0,1,62.06,105.12Z" fill="#ad1815"/>
        <path d="M68.08,105.12a1.51,1.51,0,1,1,1.5-1.52A1.5,1.5,0,0,1,68.08,105.12Z" fill="#ad1815"/>
        <path d="M80.13,105.12a1.51,1.51,0,1,1,1.5-1.52A1.5,1.5,0,0,1,80.13,105.12Z" fill="#ad1815"/>
        <path d="M86.16,105.12a1.51,1.51,0,1,1,1.5-1.52A1.51,1.51,0,0,1,86.16,105.12Z" fill="#ad1815"/>
        <path d="M98.21,105.12a1.51,1.51,0,1,1,1.5-1.52A1.51,1.51,0,0,1,98.21,105.12Z" fill="#ad1815"/>
        <path d="M104.23,105.12a1.51,1.51,0,1,1,1.5-1.52A1.5,1.5,0,0,1,104.23,105.12Z" fill="#ad1815"/>
      </g>
      <g>
        <path d="M19.88,109.37a1.51,1.51,0,1,1,1.5-1.52A1.5,1.5,0,0,1,19.88,109.37Z" fill="#ad1815"/>
        <path d="M25.91,109.37a1.51,1.51,0,1,1,1.5-1.52A1.51,1.51,0,0,1,25.91,109.37Z" fill="#ad1815"/>
        <path d="M31.93,109.37a1.51,1.51,0,1,1,1.5-1.52A1.5,1.5,0,0,1,31.93,109.37Z" fill="#ad1815"/>
        <path d="M38,109.37a1.51,1.51,0,1,1,1.5-1.52A1.51,1.51,0,0,1,38,109.37Z" fill="#ad1815"/>
        <path d="M44,109.37a1.51,1.51,0,1,1,1.5-1.52A1.5,1.5,0,0,1,44,109.37Z" fill="#ad1815"/>
        <path d="M50,109.37a1.51,1.51,0,1,1,1.5-1.52A1.51,1.51,0,0,1,50,109.37Z" fill="#ad1815"/>
        <path d="M62.06,109.37a1.51,1.51,0,1,1,1.5-1.52A1.51,1.51,0,0,1,62.06,109.37Z" fill="#ad1815"/>
        <path d="M68.08,109.37a1.51,1.51,0,1,1,1.5-1.52A1.5,1.5,0,0,1,68.08,109.37Z" fill="#ad1815"/>
        <path d="M80.13,109.37a1.51,1.51,0,1,1,1.5-1.52A1.5,1.5,0,0,1,80.13,109.37Z" fill="#ad1815"/>
        <path d="M86.16,109.37a1.51,1.51,0,1,1,1.5-1.52A1.51,1.51,0,0,1,86.16,109.37Z" fill="#ad1815"/>
        <path d="M98.21,109.37a1.51,1.51,0,1,1,1.5-1.52A1.51,1.51,0,0,1,98.21,109.37Z" fill="#ad1815"/>
        <path d="M104.23,109.37a1.51,1.51,0,1,1,1.5-1.52A1.5,1.5,0,0,1,104.23,109.37Z" fill="#ad1815"/>
      </g>
      <g>
        <path d="M44,113.62a1.51,1.51,0,1,1,1.5-1.52A1.5,1.5,0,0,1,44,113.62Z" fill="#ad1815"/>
        <path d="M50,113.62a1.51,1.51,0,1,1,1.5-1.52A1.51,1.51,0,0,1,50,113.62Z" fill="#ad1815"/>
        <path d="M62.06,113.62a1.51,1.51,0,1,1,1.5-1.52A1.51,1.51,0,0,1,62.06,113.62Z" fill="#ad1815"/>
        <path d="M68.08,113.62a1.51,1.51,0,1,1,1.5-1.52A1.5,1.5,0,0,1,68.08,113.62Z" fill="#ad1815"/>
        <path d="M80.13,113.62a1.51,1.51,0,1,1,1.5-1.52A1.5,1.5,0,0,1,80.13,113.62Z" fill="#ad1815"/>
        <path d="M86.16,113.62a1.51,1.51,0,1,1,1.5-1.52A1.51,1.51,0,0,1,86.16,113.62Z" fill="#ad1815"/>
        <path d="M98.21,113.62a1.51,1.51,0,1,1,1.5-1.52A1.51,1.51,0,0,1,98.21,113.62Z" fill="#ad1815"/>
        <path d="M104.23,113.62a1.51,1.51,0,1,1,1.5-1.52A1.5,1.5,0,0,1,104.23,113.62Z" fill="#ad1815"/>
      </g>
      <g>
        <path d="M44,117.87a1.51,1.51,0,1,1,1.5-1.52A1.5,1.5,0,0,1,44,117.87Z" fill="#ad1815"/>
        <path d="M50,117.87a1.51,1.51,0,1,1,1.5-1.52A1.51,1.51,0,0,1,50,117.87Z" fill="#ad1815"/>
        <path d="M62.06,117.87a1.51,1.51,0,1,1,1.5-1.52A1.51,1.51,0,0,1,62.06,117.87Z" fill="#ad1815"/>
        <path d="M68.08,117.87a1.51,1.51,0,1,1,1.5-1.52A1.5,1.5,0,0,1,68.08,117.87Z" fill="#ad1815"/>
        <path d="M80.13,117.87a1.51,1.51,0,1,1,1.5-1.52A1.5,1.5,0,0,1,80.13,117.87Z" fill="#ad1815"/>
        <path d="M86.16,117.87a1.51,1.51,0,1,1,1.5-1.52A1.51,1.51,0,0,1,86.16,117.87Z" fill="#ad1815"/>
        <path d="M98.21,117.87a1.51,1.51,0,1,1,1.5-1.52A1.51,1.51,0,0,1,98.21,117.87Z" fill="#ad1815"/>
        <path d="M104.23,117.87a1.51,1.51,0,1,1,1.5-1.52A1.5,1.5,0,0,1,104.23,117.87Z" fill="#ad1815"/>
      </g>
      <g>
        <path d="M44,122.12a1.51,1.51,0,1,1,1.5-1.51A1.5,1.5,0,0,1,44,122.12Z" fill="#ad1815"/>
        <path d="M50,122.12a1.51,1.51,0,1,1,1.5-1.51A1.51,1.51,0,0,1,50,122.12Z" fill="#ad1815"/>
        <path d="M62.06,122.12a1.51,1.51,0,1,1,1.5-1.51A1.51,1.51,0,0,1,62.06,122.12Z" fill="#ad1815"/>
        <path d="M68.08,122.12a1.51,1.51,0,1,1,1.5-1.51A1.5,1.5,0,0,1,68.08,122.12Z" fill="#ad1815"/>
        <path d="M80.13,122.12a1.51,1.51,0,1,1,1.5-1.51A1.5,1.5,0,0,1,80.13,122.12Z" fill="#ad1815"/>
        <path d="M86.16,122.12a1.51,1.51,0,1,1,1.5-1.51A1.51,1.51,0,0,1,86.16,122.12Z" fill="#ad1815"/>
        <path d="M98.21,122.12a1.51,1.51,0,1,1,1.5-1.51A1.51,1.51,0,0,1,98.21,122.12Z" fill="#ad1815"/>
        <path d="M104.23,122.12a1.51,1.51,0,1,1,1.5-1.51A1.5,1.5,0,0,1,104.23,122.12Z" fill="#ad1815"/>
      </g>
      <g>
        <path d="M44,126.38a1.51,1.51,0,1,1,1.5-1.52A1.51,1.51,0,0,1,44,126.38Z" fill="#ad1815"/>
        <path d="M50,126.38a1.51,1.51,0,1,1,1.5-1.52A1.52,1.52,0,0,1,50,126.38Z" fill="#ad1815"/>
        <path d="M62.06,126.38a1.51,1.51,0,1,1,1.5-1.52A1.52,1.52,0,0,1,62.06,126.38Z" fill="#ad1815"/>
        <path d="M68.08,126.38a1.51,1.51,0,1,1,1.5-1.52A1.51,1.51,0,0,1,68.08,126.38Z" fill="#ad1815"/>
        <path d="M80.13,126.38a1.51,1.51,0,1,1,1.5-1.52A1.51,1.51,0,0,1,80.13,126.38Z" fill="#ad1815"/>
        <path d="M86.16,126.38a1.51,1.51,0,1,1,1.5-1.52A1.52,1.52,0,0,1,86.16,126.38Z" fill="#ad1815"/>
        <path d="M98.21,126.38a1.51,1.51,0,1,1,1.5-1.52A1.52,1.52,0,0,1,98.21,126.38Z" fill="#ad1815"/>
        <path d="M104.23,126.38a1.51,1.51,0,1,1,1.5-1.52A1.51,1.51,0,0,1,104.23,126.38Z" fill="#ad1815"/>
      </g>
      <g>
        <path d="M44,130.63a1.51,1.51,0,1,1,1.5-1.52A1.51,1.51,0,0,1,44,130.63Z" fill="#ad1815"/>
        <path d="M50,130.63a1.51,1.51,0,1,1,0-3,1.51,1.51,0,0,1,0,3Z" fill="#ad1815"/>
        <path d="M62.06,130.63a1.51,1.51,0,1,1,0-3,1.51,1.51,0,0,1,0,3Z" fill="#ad1815"/>
        <path d="M68.08,130.63a1.51,1.51,0,1,1,1.5-1.52A1.51,1.51,0,0,1,68.08,130.63Z" fill="#ad1815"/>
        <path d="M80.13,130.63a1.51,1.51,0,1,1,1.5-1.52A1.51,1.51,0,0,1,80.13,130.63Z" fill="#ad1815"/>
        <path d="M86.16,130.63a1.51,1.51,0,1,1,0-3,1.51,1.51,0,0,1,0,3Z" fill="#ad1815"/>
        <path d="M98.21,130.63a1.51,1.51,0,1,1,0-3,1.51,1.51,0,0,1,0,3Z" fill="#ad1815"/>
        <path d="M104.23,130.63a1.51,1.51,0,1,1,1.5-1.52A1.51,1.51,0,0,1,104.23,130.63Z" fill="#ad1815"/>
      </g>
      <g>
        <path d="M44,134.88a1.51,1.51,0,1,1,1.5-1.52A1.51,1.51,0,0,1,44,134.88Z" fill="#ad1815"/>
        <path d="M50,134.88a1.51,1.51,0,1,1,0-3,1.51,1.51,0,0,1,0,3Z" fill="#ad1815"/>
        <path d="M62.06,134.88a1.51,1.51,0,1,1,0-3,1.51,1.51,0,0,1,0,3Z" fill="#ad1815"/>
        <path d="M68.08,134.88a1.51,1.51,0,1,1,1.5-1.52A1.51,1.51,0,0,1,68.08,134.88Z" fill="#ad1815"/>
        <path d="M80.13,134.88a1.51,1.51,0,1,1,1.5-1.52A1.51,1.51,0,0,1,80.13,134.88Z" fill="#ad1815"/>
        <path d="M86.16,134.88a1.51,1.51,0,1,1,0-3,1.51,1.51,0,0,1,0,3Z" fill="#ad1815"/>
        <path d="M98.21,134.88a1.51,1.51,0,1,1,0-3,1.51,1.51,0,0,1,0,3Z" fill="#ad1815"/>
        <path d="M104.23,134.88a1.51,1.51,0,1,1,1.5-1.52A1.51,1.51,0,0,1,104.23,134.88Z" fill="#ad1815"/>
      </g>
      <g>
        <path d="M7.83,139.13a1.51,1.51,0,1,1,1.5-1.52A1.51,1.51,0,0,1,7.83,139.13Z" fill="#ad1815"/>
        <path d="M13.86,139.13a1.51,1.51,0,1,1,0-3,1.51,1.51,0,0,1,0,3Z" fill="#ad1815"/>
        <path d="M19.88,139.13a1.51,1.51,0,1,1,1.5-1.52A1.51,1.51,0,0,1,19.88,139.13Z" fill="#ad1815"/>
        <path d="M25.91,139.13a1.51,1.51,0,1,1,0-3,1.51,1.51,0,0,1,0,3Z" fill="#ad1815"/>
        <path d="M31.93,139.13a1.51,1.51,0,1,1,1.5-1.52A1.51,1.51,0,0,1,31.93,139.13Z" fill="#ad1815"/>
        <path d="M44,139.13a1.51,1.51,0,1,1,1.5-1.52A1.51,1.51,0,0,1,44,139.13Z" fill="#ad1815"/>
        <path d="M50,139.13a1.51,1.51,0,1,1,0-3,1.51,1.51,0,0,1,0,3Z" fill="#ad1815"/>
        <path d="M62.06,139.13a1.51,1.51,0,1,1,0-3,1.51,1.51,0,0,1,0,3Z" fill="#ad1815"/>
        <path d="M68.08,139.13a1.51,1.51,0,1,1,1.5-1.52A1.51,1.51,0,0,1,68.08,139.13Z" fill="#ad1815"/>
        <path d="M80.13,139.13a1.51,1.51,0,1,1,1.5-1.52A1.51,1.51,0,0,1,80.13,139.13Z" fill="#ad1815"/>
        <path d="M86.16,139.13a1.51,1.51,0,1,1,0-3,1.51,1.51,0,0,1,0,3Z" fill="#ad1815"/>
        <path d="M98.21,139.13a1.51,1.51,0,1,1,0-3,1.51,1.51,0,0,1,0,3Z" fill="#ad1815"/>
        <path d="M104.23,139.13a1.51,1.51,0,1,1,1.5-1.52A1.51,1.51,0,0,1,104.23,139.13Z" fill="#ad1815"/>
      </g>
      <g>
        <path d="M1.81,143.38a1.51,1.51,0,1,1,1.5-1.52A1.51,1.51,0,0,1,1.81,143.38Z" fill="#ad1815"/>
        <path d="M7.83,143.38a1.51,1.51,0,1,1,1.5-1.52A1.5,1.5,0,0,1,7.83,143.38Z" fill="#ad1815"/>
        <path d="M13.86,143.38a1.51,1.51,0,1,1,1.5-1.52A1.51,1.51,0,0,1,13.86,143.38Z" fill="#ad1815"/>
        <path d="M19.88,143.38a1.51,1.51,0,1,1,1.5-1.52A1.5,1.5,0,0,1,19.88,143.38Z" fill="#ad1815"/>
        <path d="M25.91,143.38a1.51,1.51,0,1,1,1.5-1.52A1.51,1.51,0,0,1,25.91,143.38Z" fill="#ad1815"/>
        <path d="M31.93,143.38a1.51,1.51,0,1,1,1.5-1.52A1.5,1.5,0,0,1,31.93,143.38Z" fill="#ad1815"/>
        <path d="M44,143.38a1.51,1.51,0,1,1,1.5-1.52A1.5,1.5,0,0,1,44,143.38Z" fill="#ad1815"/>
        <path d="M50,143.38a1.51,1.51,0,1,1,1.5-1.52A1.51,1.51,0,0,1,50,143.38Z" fill="#ad1815"/>
        <path d="M62.06,143.38a1.51,1.51,0,1,1,1.5-1.52A1.51,1.51,0,0,1,62.06,143.38Z" fill="#ad1815"/>
        <path d="M68.08,143.38a1.51,1.51,0,1,1,1.5-1.52A1.5,1.5,0,0,1,68.08,143.38Z" fill="#ad1815"/>
        <path d="M80.13,143.38a1.51,1.51,0,1,1,1.5-1.52A1.5,1.5,0,0,1,80.13,143.38Z" fill="#ad1815"/>
        <path d="M86.16,143.38a1.51,1.51,0,1,1,1.5-1.52A1.51,1.51,0,0,1,86.16,143.38Z" fill="#ad1815"/>
        <path d="M98.21,143.38a1.51,1.51,0,1,1,1.5-1.52A1.51,1.51,0,0,1,98.21,143.38Z" fill="#ad1815"/>
      </g>
      <g>
        <path d="M25.91,147.63a1.51,1.51,0,1,1,1.5-1.52A1.51,1.51,0,0,1,25.91,147.63Z" fill="#ad1815"/>
        <path d="M31.93,147.63a1.51,1.51,0,1,1,1.5-1.52A1.5,1.5,0,0,1,31.93,147.63Z" fill="#ad1815"/>
        <path d="M44,147.63a1.51,1.51,0,1,1,1.5-1.52A1.5,1.5,0,0,1,44,147.63Z" fill="#ad1815"/>
        <path d="M50,147.63a1.51,1.51,0,1,1,1.5-1.52A1.51,1.51,0,0,1,50,147.63Z" fill="#ad1815"/>
        <path d="M62.06,147.63a1.51,1.51,0,1,1,1.5-1.52A1.51,1.51,0,0,1,62.06,147.63Z" fill="#ad1815"/>
        <path d="M68.08,147.63a1.51,1.51,0,1,1,1.5-1.52A1.5,1.5,0,0,1,68.08,147.63Z" fill="#ad1815"/>
        <path d="M80.13,147.63a1.51,1.51,0,1,1,1.5-1.52A1.5,1.5,0,0,1,80.13,147.63Z" fill="#ad1815"/>
        <path d="M86.16,147.63a1.51,1.51,0,1,1,1.5-1.52A1.51,1.51,0,0,1,86.16,147.63Z" fill="#ad1815"/>
        <path d="M98.21,147.63a1.51,1.51,0,1,1,1.5-1.52A1.51,1.51,0,0,1,98.21,147.63Z" fill="#ad1815"/>
      </g>
      <g>
        <path d="M25.91,151.89a1.51,1.51,0,1,1,1.5-1.52A1.52,1.52,0,0,1,25.91,151.89Z" fill="#ad1815"/>
        <path d="M31.93,151.89a1.51,1.51,0,1,1,1.5-1.52A1.51,1.51,0,0,1,31.93,151.89Z" fill="#ad1815"/>
        <path d="M44,151.89a1.51,1.51,0,1,1,1.5-1.52A1.51,1.51,0,0,1,44,151.89Z" fill="#ad1815"/>
        <path d="M50,151.89a1.51,1.51,0,1,1,1.5-1.52A1.52,1.52,0,0,1,50,151.89Z" fill="#ad1815"/>
        <path d="M62.06,151.89a1.51,1.51,0,1,1,1.5-1.52A1.52,1.52,0,0,1,62.06,151.89Z" fill="#ad1815"/>
        <path d="M68.08,151.89a1.51,1.51,0,1,1,1.5-1.52A1.51,1.51,0,0,1,68.08,151.89Z" fill="#ad1815"/>
        <path d="M80.13,151.89a1.51,1.51,0,1,1,1.5-1.52A1.51,1.51,0,0,1,80.13,151.89Z" fill="#ad1815"/>
        <path d="M86.16,151.89a1.51,1.51,0,1,1,1.5-1.52A1.52,1.52,0,0,1,86.16,151.89Z" fill="#ad1815"/>
      </g>
      <g>
        <path d="M25.91,156.14a1.51,1.51,0,1,1,1.5-1.52A1.52,1.52,0,0,1,25.91,156.14Z" fill="#ad1815"/>
        <path d="M31.93,156.14a1.51,1.51,0,1,1,1.5-1.52A1.51,1.51,0,0,1,31.93,156.14Z" fill="#ad1815"/>
        <path d="M44,156.14a1.51,1.51,0,1,1,1.5-1.52A1.51,1.51,0,0,1,44,156.14Z" fill="#ad1815"/>
        <path d="M50,156.14a1.51,1.51,0,1,1,1.5-1.52A1.52,1.52,0,0,1,50,156.14Z" fill="#ad1815"/>
        <path d="M62.06,156.14a1.51,1.51,0,1,1,1.5-1.52A1.52,1.52,0,0,1,62.06,156.14Z" fill="#ad1815"/>
        <path d="M68.08,156.14a1.51,1.51,0,1,1,1.5-1.52A1.51,1.51,0,0,1,68.08,156.14Z" fill="#ad1815"/>
        <path d="M80.13,156.14a1.51,1.51,0,1,1,1.5-1.52A1.51,1.51,0,0,1,80.13,156.14Z" fill="#ad1815"/>
        <path d="M86.16,156.14a1.51,1.51,0,1,1,1.5-1.52A1.52,1.52,0,0,1,86.16,156.14Z" fill="#ad1815"/>
      </g>
      <g>
        <path d="M25.91,160.39a1.51,1.51,0,1,1,1.5-1.52A1.52,1.52,0,0,1,25.91,160.39Z" fill="#ad1815"/>
        <path d="M31.93,160.39a1.51,1.51,0,1,1,1.5-1.52A1.51,1.51,0,0,1,31.93,160.39Z" fill="#ad1815"/>
        <path d="M44,160.39a1.51,1.51,0,1,1,1.5-1.52A1.51,1.51,0,0,1,44,160.39Z" fill="#ad1815"/>
        <path d="M50,160.39a1.51,1.51,0,1,1,1.5-1.52A1.52,1.52,0,0,1,50,160.39Z" fill="#ad1815"/>
        <path d="M62.06,160.39a1.51,1.51,0,1,1,1.5-1.52A1.52,1.52,0,0,1,62.06,160.39Z" fill="#ad1815"/>
        <path d="M68.08,160.39a1.51,1.51,0,1,1,1.5-1.52A1.51,1.51,0,0,1,68.08,160.39Z" fill="#ad1815"/>
        <path d="M80.13,160.39a1.51,1.51,0,1,1,1.5-1.52A1.51,1.51,0,0,1,80.13,160.39Z" fill="#ad1815"/>
        <path d="M86.16,160.39a1.51,1.51,0,1,1,1.5-1.52A1.52,1.52,0,0,1,86.16,160.39Z" fill="#ad1815"/>
      </g>
      <g>
        <path d="M25.91,164.64a1.51,1.51,0,1,1,0-3,1.51,1.51,0,0,1,0,3Z" fill="#ad1815"/>
        <path d="M31.93,164.64a1.51,1.51,0,1,1,1.5-1.52A1.51,1.51,0,0,1,31.93,164.64Z" fill="#ad1815"/>
        <path d="M44,164.64a1.51,1.51,0,1,1,1.5-1.52A1.51,1.51,0,0,1,44,164.64Z" fill="#ad1815"/>
        <path d="M50,164.64a1.51,1.51,0,1,1,0-3,1.51,1.51,0,0,1,0,3Z" fill="#ad1815"/>
        <path d="M62.06,164.64a1.51,1.51,0,1,1,0-3,1.51,1.51,0,0,1,0,3Z" fill="#ad1815"/>
        <path d="M68.08,164.64a1.51,1.51,0,1,1,1.5-1.52A1.51,1.51,0,0,1,68.08,164.64Z" fill="#ad1815"/>
        <path d="M80.13,164.64a1.51,1.51,0,1,1,1.5-1.52A1.51,1.51,0,0,1,80.13,164.64Z" fill="#ad1815"/>
      </g>
      <g>
        <path d="M25.91,168.89a1.51,1.51,0,1,1,1.5-1.52A1.51,1.51,0,0,1,25.91,168.89Z" fill="#ad1815"/>
        <path d="M31.93,168.89a1.51,1.51,0,1,1,1.5-1.52A1.5,1.5,0,0,1,31.93,168.89Z" fill="#ad1815"/>
        <path d="M44,168.89a1.51,1.51,0,1,1,1.5-1.52A1.5,1.5,0,0,1,44,168.89Z" fill="#ad1815"/>
        <path d="M50,168.89a1.51,1.51,0,1,1,1.5-1.52A1.51,1.51,0,0,1,50,168.89Z" fill="#ad1815"/>
        <path d="M62.06,168.89a1.51,1.51,0,1,1,1.5-1.52A1.51,1.51,0,0,1,62.06,168.89Z" fill="#ad1815"/>
        <path d="M68.08,168.89a1.51,1.51,0,1,1,1.5-1.52A1.5,1.5,0,0,1,68.08,168.89Z" fill="#ad1815"/>
        <path d="M80.13,168.89a1.51,1.51,0,1,1,1.5-1.52A1.5,1.5,0,0,1,80.13,168.89Z" fill="#ad1815"/>
      </g>
      <g>
        <path d="M25.91,173.14a1.51,1.51,0,1,1,1.5-1.52A1.51,1.51,0,0,1,25.91,173.14Z" fill="#ad1815"/>
        <path d="M31.93,173.14a1.51,1.51,0,1,1,1.5-1.52A1.5,1.5,0,0,1,31.93,173.14Z" fill="#ad1815"/>
        <path d="M44,173.14a1.51,1.51,0,1,1,1.5-1.52A1.5,1.5,0,0,1,44,173.14Z" fill="#ad1815"/>
        <path d="M50,173.14a1.51,1.51,0,1,1,1.5-1.52A1.51,1.51,0,0,1,50,173.14Z" fill="#ad1815"/>
        <path d="M62.06,173.14a1.51,1.51,0,1,1,1.5-1.52A1.51,1.51,0,0,1,62.06,173.14Z" fill="#ad1815"/>
        <path d="M68.08,173.14a1.51,1.51,0,1,1,1.5-1.52A1.5,1.5,0,0,1,68.08,173.14Z" fill="#ad1815"/>
      </g>
      <g>
        <path d="M25.91,177.39a1.51,1.51,0,1,1,1.5-1.52A1.51,1.51,0,0,1,25.91,177.39Z" fill="#ad1815"/>
        <path d="M31.93,177.39a1.51,1.51,0,1,1,1.5-1.52A1.5,1.5,0,0,1,31.93,177.39Z" fill="#ad1815"/>
        <path d="M44,177.39a1.51,1.51,0,1,1,1.5-1.52A1.5,1.5,0,0,1,44,177.39Z" fill="#ad1815"/>
        <path d="M50,177.39a1.51,1.51,0,1,1,1.5-1.52A1.51,1.51,0,0,1,50,177.39Z" fill="#ad1815"/>
        <path d="M62.06,177.39a1.51,1.51,0,1,1,1.5-1.52A1.51,1.51,0,0,1,62.06,177.39Z" fill="#ad1815"/>
        <path d="M68.08,177.39a1.51,1.51,0,1,1,1.5-1.52A1.5,1.5,0,0,1,68.08,177.39Z" fill="#ad1815"/>
      </g>
      <g>
        <path d="M25.91,181.64a1.51,1.51,0,1,1,1.5-1.51A1.51,1.51,0,0,1,25.91,181.64Z" fill="#ad1815"/>
        <path d="M31.93,181.64a1.51,1.51,0,1,1,1.5-1.51A1.5,1.5,0,0,1,31.93,181.64Z" fill="#ad1815"/>
        <path d="M44,181.64a1.51,1.51,0,1,1,1.5-1.51A1.5,1.5,0,0,1,44,181.64Z" fill="#ad1815"/>
        <path d="M50,181.64a1.51,1.51,0,1,1,1.5-1.51A1.51,1.51,0,0,1,50,181.64Z" fill="#ad1815"/>
        <path d="M62.06,181.64a1.51,1.51,0,1,1,1.5-1.51A1.51,1.51,0,0,1,62.06,181.64Z" fill="#ad1815"/>
        <path d="M68.08,181.64a1.51,1.51,0,1,1,1.5-1.51A1.5,1.5,0,0,1,68.08,181.64Z" fill="#ad1815"/>
      </g>
      <g>
        <path d="M25.91,185.89a1.51,1.51,0,1,1,1.5-1.51A1.51,1.51,0,0,1,25.91,185.89Z" fill="#ad1815"/>
        <path d="M31.93,185.89a1.51,1.51,0,1,1,1.5-1.51A1.5,1.5,0,0,1,31.93,185.89Z" fill="#ad1815"/>
        <path d="M44,185.89a1.51,1.51,0,1,1,1.5-1.51A1.5,1.5,0,0,1,44,185.89Z" fill="#ad1815"/>
        <path d="M50,185.89a1.51,1.51,0,1,1,1.5-1.51A1.51,1.51,0,0,1,50,185.89Z" fill="#ad1815"/>
        <path d="M62.06,185.89a1.51,1.51,0,1,1,1.5-1.51A1.51,1.51,0,0,1,62.06,185.89Z" fill="#ad1815"/>
      </g>
      <g>
        <path d="M25.91,190.15a1.51,1.51,0,1,1,1.5-1.52A1.52,1.52,0,0,1,25.91,190.15Z" fill="#ad1815"/>
        <path d="M31.93,190.15a1.51,1.51,0,1,1,1.5-1.52A1.51,1.51,0,0,1,31.93,190.15Z" fill="#ad1815"/>
        <path d="M44,190.15a1.51,1.51,0,1,1,1.5-1.52A1.51,1.51,0,0,1,44,190.15Z" fill="#ad1815"/>
        <path d="M50,190.15a1.51,1.51,0,1,1,1.5-1.52A1.52,1.52,0,0,1,50,190.15Z" fill="#ad1815"/>
        <path d="M62.06,190.15a1.51,1.51,0,1,1,1.5-1.52A1.52,1.52,0,0,1,62.06,190.15Z" fill="#ad1815"/>
      </g>
      <g>
        <path d="M25.91,194.4a1.51,1.51,0,1,1,0-3,1.51,1.51,0,0,1,0,3Z" fill="#ad1815"/>
        <path d="M31.93,194.4a1.51,1.51,0,1,1,1.5-1.52A1.51,1.51,0,0,1,31.93,194.4Z" fill="#ad1815"/>
        <path d="M44,194.4a1.51,1.51,0,1,1,1.5-1.52A1.51,1.51,0,0,1,44,194.4Z" fill="#ad1815"/>
        <path d="M50,194.4a1.51,1.51,0,1,1,0-3,1.51,1.51,0,0,1,0,3Z" fill="#ad1815"/>
      </g>
      <g>
        <path d="M25.91,198.65a1.51,1.51,0,1,1,0-3,1.51,1.51,0,0,1,0,3Z" fill="#ad1815"/>
        <path d="M31.93,198.65a1.51,1.51,0,1,1,1.5-1.52A1.51,1.51,0,0,1,31.93,198.65Z" fill="#ad1815"/>
        <path d="M44,198.65a1.51,1.51,0,1,1,1.5-1.52A1.51,1.51,0,0,1,44,198.65Z" fill="#ad1815"/>
        <path d="M50,198.65a1.51,1.51,0,1,1,0-3,1.51,1.51,0,0,1,0,3Z" fill="#ad1815"/>
      </g>
      <g>
        <path d="M25.91,202.9a1.51,1.51,0,1,1,1.5-1.52A1.51,1.51,0,0,1,25.91,202.9Z" fill="#ad1815"/>
        <path d="M31.93,202.9a1.51,1.51,0,1,1,1.5-1.52A1.5,1.5,0,0,1,31.93,202.9Z" fill="#ad1815"/>
        <path d="M44,202.9a1.51,1.51,0,1,1,1.5-1.52A1.5,1.5,0,0,1,44,202.9Z" fill="#ad1815"/>
        <path d="M50,202.9a1.51,1.51,0,1,1,1.5-1.52A1.51,1.51,0,0,1,50,202.9Z" fill="#ad1815"/>
      </g>
      <g>
        <path d="M25.91,207.15a1.51,1.51,0,1,1,1.5-1.52A1.51,1.51,0,0,1,25.91,207.15Z" fill="#ad1815"/>
        <path d="M31.93,207.15a1.51,1.51,0,1,1,1.5-1.52A1.5,1.5,0,0,1,31.93,207.15Z" fill="#ad1815"/>
        <path d="M44,207.15a1.51,1.51,0,1,1,1.5-1.52A1.5,1.5,0,0,1,44,207.15Z" fill="#ad1815"/>
      </g>
      <g>
        <path d="M25.91,211.4a1.51,1.51,0,1,1,1.5-1.52A1.51,1.51,0,0,1,25.91,211.4Z" fill="#ad1815"/>
        <path d="M31.93,211.4a1.51,1.51,0,1,1,1.5-1.52A1.5,1.5,0,0,1,31.93,211.4Z" fill="#ad1815"/>
        <path d="M44,211.4a1.51,1.51,0,1,1,1.5-1.52A1.5,1.5,0,0,1,44,211.4Z" fill="#ad1815"/>
      </g>
      <g>
        <path d="M25.91,215.66a1.51,1.51,0,1,1,1.5-1.52A1.52,1.52,0,0,1,25.91,215.66Z" fill="#ad1815"/>
        <path d="M31.93,215.66a1.51,1.51,0,1,1,1.5-1.52A1.51,1.51,0,0,1,31.93,215.66Z" fill="#ad1815"/>
      </g>
      <g>
        <path d="M25.91,219.91a1.51,1.51,0,1,1,1.5-1.52A1.52,1.52,0,0,1,25.91,219.91Z" fill="#ad1815"/>
        <path d="M31.93,219.91a1.51,1.51,0,1,1,1.5-1.52A1.51,1.51,0,0,1,31.93,219.91Z" fill="#ad1815"/>
      </g>
      <g>
        <path d="M25.91,224.16a1.51,1.51,0,1,1,0-3,1.51,1.51,0,0,1,0,3Z" fill="#ad1815"/>
        <path d="M31.93,224.16a1.51,1.51,0,1,1,1.5-1.52A1.51,1.51,0,0,1,31.93,224.16Z" fill="#ad1815"/>
      </g>
      <path d="M25.91,228.41a1.51,1.51,0,1,1,0-3,1.51,1.51,0,0,1,0,3Z" fill="#ad1815"/>
      <path d="M25.91,232.66a1.51,1.51,0,1,1,1.5-1.52A1.51,1.51,0,0,1,25.91,232.66Z" fill="#ad1815"/>
    </g>
    <g>
      <path d="M140.7,66.79V55.14a4.13,4.13,0,0,0-.28-1.6,3,3,0,0,0-.71-1,2.54,2.54,0,0,0-1-.57,4,4,0,0,0-1.12-.16,3.57,3.57,0,0,0-1.1.18,2.9,2.9,0,0,0-1,.57,2.7,2.7,0,0,0-.71,1,4.18,4.18,0,0,0-.27,1.58V66.79h-4.77V40.7h4.77v8.76A6.18,6.18,0,0,1,136.63,48a6.24,6.24,0,0,1,2.45-.5,7,7,0,0,1,2.77.51,5.64,5.64,0,0,1,2,1.45,6.1,6.1,0,0,1,1.2,2.22,9.15,9.15,0,0,1,.41,2.78V66.79Z" fill="#000008"/>
      <path d="M147.62,70.27v-1H159v1Z" fill="#000008"/>
      <path d="M170.5,66.79V65a6,6,0,0,1-2.09,1.56,6.94,6.94,0,0,1-2.64.45,7.69,7.69,0,0,1-2.63-.45,5.54,5.54,0,0,1-2-1.27A4.6,4.6,0,0,1,160,63.63a9.32,9.32,0,0,1-.57-2,17.25,17.25,0,0,1-.22-2.2c0-.75,0-1.49,0-2.2s0-1.43,0-2.18a17,17,0,0,1,.22-2.17,9.08,9.08,0,0,1,.57-2,5.17,5.17,0,0,1,1.12-1.67,5.52,5.52,0,0,1,2-1.26,7.9,7.9,0,0,1,5.2,0,5.39,5.39,0,0,1,2.07,1.49V40.7h4.76V66.79Zm-.11-9.57a20.49,20.49,0,0,0-.11-2.16,5.35,5.35,0,0,0-.46-1.72,2.71,2.71,0,0,0-1-1.15,3.65,3.65,0,0,0-3.4,0,2.6,2.6,0,0,0-1,1.15,5.62,5.62,0,0,0-.44,1.72,18.12,18.12,0,0,0-.11,2.16A18.47,18.47,0,0,0,164,59.4a5.53,5.53,0,0,0,.44,1.74,2.63,2.63,0,0,0,1,1.16,3.65,3.65,0,0,0,3.4,0,2.74,2.74,0,0,0,1-1.16,5.26,5.26,0,0,0,.46-1.74A20.89,20.89,0,0,0,170.39,57.22Z" fill="#000008"/>
      <path d="M189.55,66.79V65.14a6.36,6.36,0,0,1-2,1.39,7,7,0,0,1-2.69.44A6.55,6.55,0,0,1,180,65.28a5.3,5.3,0,0,1-1.18-1.9,7.07,7.07,0,0,1-.4-2.38,6,6,0,0,1,.4-2.15A4.92,4.92,0,0,1,180,57.1a5.82,5.82,0,0,1,2-1.19,8.29,8.29,0,0,1,2.87-.44h4.51v-1a2.88,2.88,0,0,0-.83-2.29,4.2,4.2,0,0,0-2.73-.71,7,7,0,0,0-1.2.09,3.69,3.69,0,0,0-.94.28,3.74,3.74,0,0,0-.79.47,6.27,6.27,0,0,0-.73.73l-3-3A7.32,7.32,0,0,1,182.13,48a11.9,11.9,0,0,1,3.94-.55q4,0,6.08,1.69a6.13,6.13,0,0,1,2,5V66.79Zm-.11-8.06h-3.77a3.09,3.09,0,0,0-2,.56,1.93,1.93,0,0,0-.7,1.6,2,2,0,0,0,.68,1.59,3,3,0,0,0,2.07.61,8,8,0,0,0,1.68-.15,2.66,2.66,0,0,0,1.32-.77,3.27,3.27,0,0,0,.7-2.42Z" fill="#000008"/>
    </g>
    <g>
      <path d="M134.89,168.23v14.91h-4.76V168.23h-2v-3.62h2v-2.39a6.15,6.15,0,0,1,.33-2,5,5,0,0,1,2.73-3,6.14,6.14,0,0,1,2.51-.47h2.71v4h-1.87c-1.1,0-1.65.57-1.65,1.72v2.09h3.52v3.62Z" fill="#000008"/>
      <path d="M140.39,183.14v-3.63l8.46-11.17h-8v-4.28h14.07v3.62l-8.57,11.17h8.57v4.29Z" fill="#000008"/>
      <path d="M176.76,183.14v-1.65a6.19,6.19,0,0,1-2,1.39,6.84,6.84,0,0,1-2.69.44,6.61,6.61,0,0,1-4.87-1.68,5.47,5.47,0,0,1-1.17-1.91,6.8,6.8,0,0,1-.41-2.38,5.7,5.7,0,0,1,.41-2.14,4.83,4.83,0,0,1,1.21-1.76,5.68,5.68,0,0,1,2-1.19,8.61,8.61,0,0,1,2.87-.44h4.51v-.95a2.88,2.88,0,0,0-.82-2.29,4.14,4.14,0,0,0-2.73-.71,7,7,0,0,0-1.21.09,4.3,4.3,0,0,0-.94.27,3.15,3.15,0,0,0-.78.48,5.06,5.06,0,0,0-.74.73l-3-3a7.29,7.29,0,0,1,3-2.08,11.9,11.9,0,0,1,3.94-.55c2.69,0,4.71.56,6.08,1.68a6.15,6.15,0,0,1,2,5.06v12.56Zm-.11-8.06h-3.77a3,3,0,0,0-2,.57,2,2,0,0,0-.7,1.59,2.06,2.06,0,0,0,.68,1.6,3,3,0,0,0,2.07.6,8.21,8.21,0,0,0,1.69-.15,2.58,2.58,0,0,0,1.31-.76,3.27,3.27,0,0,0,.7-2.42Z" fill="#000008"/>
      <path d="M186.1,160.8v-3.89H191v3.89Zm.07,22.34V164.06h4.77v19.08Z" fill="#000008"/>
    </g>
    <g>
      <path d="M138.64,109.38v-6.91h-7.19v6.91h-1.62V94.24h1.62V101h7.19V94.24h1.61v15.14Z" fill="#000008"/>
      <path d="M154.78,101.81c0,.81,0,1.51,0,2.11a10.57,10.57,0,0,1-.16,1.62,5.28,5.28,0,0,1-.43,1.29,4.09,4.09,0,0,1-.82,1.1,5.34,5.34,0,0,1-1.74,1.17,5.5,5.5,0,0,1-2.13.41,5.27,5.27,0,0,1-3.87-1.58,4.31,4.31,0,0,1-.82-1.1,4.88,4.88,0,0,1-.42-1.29,8.54,8.54,0,0,1-.16-1.62c0-.6,0-1.3,0-2.11s0-1.52,0-2.12a8.51,8.51,0,0,1,.16-1.61,4.88,4.88,0,0,1,.42-1.29,4.53,4.53,0,0,1,.82-1.11,5.55,5.55,0,0,1,7.74,0,4.29,4.29,0,0,1,.82,1.11,5.28,5.28,0,0,1,.43,1.29,10.56,10.56,0,0,1,.16,1.61C154.77,100.29,154.78,101,154.78,101.81Zm-1.62,0q0-1.2,0-2a9.68,9.68,0,0,0-.14-1.39,3.49,3.49,0,0,0-.32-1,3,3,0,0,0-.57-.78,3.47,3.47,0,0,0-1.18-.8,3.82,3.82,0,0,0-2.87,0,3.38,3.38,0,0,0-1.18.8,2.83,2.83,0,0,0-.58.78,3.49,3.49,0,0,0-.32,1,11.37,11.37,0,0,0-.14,1.39q0,.81,0,2t0,2a11.58,11.58,0,0,0,.14,1.39,3.71,3.71,0,0,0,.32,1,2.83,2.83,0,0,0,.58.78,3.36,3.36,0,0,0,1.18.79,3.7,3.7,0,0,0,2.87,0,3.45,3.45,0,0,0,1.18-.79,3,3,0,0,0,.57-.78,3.71,3.71,0,0,0,.32-1,9.83,9.83,0,0,0,.14-1.39Q153.16,103,153.16,101.81Z" fill="#000008"/>
      <path d="M168.86,105a6.45,6.45,0,0,1-.65,1.9,5,5,0,0,1-1.15,1.42,5.2,5.2,0,0,1-1.56.88,5.78,5.78,0,0,1-1.9.31,5.51,5.51,0,0,1-2.11-.41,5.32,5.32,0,0,1-1.76-1.17,4.26,4.26,0,0,1-.81-1.1,4.55,4.55,0,0,1-.43-1.29,9.44,9.44,0,0,1-.16-1.62c0-.6,0-1.3,0-2.11s0-1.52,0-2.12a9.42,9.42,0,0,1,.16-1.61,4.55,4.55,0,0,1,.43-1.29,4.48,4.48,0,0,1,.81-1.11,5.32,5.32,0,0,1,1.76-1.17,5.86,5.86,0,0,1,4-.09,4.87,4.87,0,0,1,2.71,2.29,6.62,6.62,0,0,1,.65,1.91H167.2A4,4,0,0,0,166,96.38a3.47,3.47,0,0,0-2.37-.82,3.9,3.9,0,0,0-1.43.27,3.36,3.36,0,0,0-1.18.79,3.29,3.29,0,0,0-.58.78,3.5,3.5,0,0,0-.31,1A8.94,8.94,0,0,0,160,99.8q0,.81,0,2t0,2a8.8,8.8,0,0,0,.14,1.4,3.57,3.57,0,0,0,.31,1,3.29,3.29,0,0,0,.58.78,3.36,3.36,0,0,0,1.18.79,3.9,3.9,0,0,0,1.43.27,3.5,3.5,0,0,0,2.39-.83,4,4,0,0,0,1.25-2.23Z" fill="#000008"/>
      <path d="M181.15,109.38v-6.91H174v6.91h-1.61V94.24H174V101h7.19V94.24h1.62v15.14Z" fill="#000008"/>
      <path d="M196.48,105.21a4.17,4.17,0,0,1-.37,1.8,3.77,3.77,0,0,1-1.06,1.35,4.91,4.91,0,0,1-1.66.85,7.23,7.23,0,0,1-2.14.3,8.14,8.14,0,0,1-2.91-.47,6.54,6.54,0,0,1-2.28-1.53l1.11-1.11a5.31,5.31,0,0,0,1.89,1.3,6.32,6.32,0,0,0,2.23.36,4.2,4.2,0,0,0,2.62-.73,2.46,2.46,0,0,0,1-2.08,3.14,3.14,0,0,0-.18-1.08,1.93,1.93,0,0,0-.54-.81,2.66,2.66,0,0,0-.76-.46,7.19,7.19,0,0,0-1.22-.26l-1.77-.28a5.52,5.52,0,0,1-2.78-1.15,3.57,3.57,0,0,1-1.15-2.83,4.37,4.37,0,0,1,.34-1.75,3.65,3.65,0,0,1,1-1.35,4.25,4.25,0,0,1,1.52-.86,6,6,0,0,1,2-.31,7.31,7.31,0,0,1,2.48.38,6.65,6.65,0,0,1,2,1.24l-1.05,1a5,5,0,0,0-1.51-1,5.37,5.37,0,0,0-2-.33,3.35,3.35,0,0,0-2.36.77,2.7,2.7,0,0,0-.83,2.06,2.24,2.24,0,0,0,.68,1.76,3.28,3.28,0,0,0,.91.51,6.1,6.1,0,0,0,1.13.32l1.66.26.95.18a4.91,4.91,0,0,1,.73.22,4.05,4.05,0,0,1,.59.29,3.59,3.59,0,0,1,.5.37A3.74,3.74,0,0,1,196.48,105.21Z" fill="#000008"/>
      <path d="M209.93,105a6.45,6.45,0,0,1-.65,1.9,5,5,0,0,1-1.15,1.42,5.2,5.2,0,0,1-1.56.88,5.87,5.87,0,0,1-1.9.31,5.51,5.51,0,0,1-2.11-.41,5.32,5.32,0,0,1-1.76-1.17,4.31,4.31,0,0,1-.82-1.1,4.88,4.88,0,0,1-.42-1.29,9.44,9.44,0,0,1-.16-1.62c0-.6,0-1.3,0-2.11s0-1.52,0-2.12a9.42,9.42,0,0,1,.16-1.61,4.88,4.88,0,0,1,.42-1.29,4.53,4.53,0,0,1,.82-1.11,5.32,5.32,0,0,1,1.76-1.17,5.5,5.5,0,0,1,2.11-.4,5.61,5.61,0,0,1,1.9.31,4.87,4.87,0,0,1,2.71,2.29,6.62,6.62,0,0,1,.65,1.91h-1.66A4,4,0,0,0,207,96.38a3.43,3.43,0,0,0-2.36-.82,3.9,3.9,0,0,0-1.43.27,3.36,3.36,0,0,0-1.18.79,3,3,0,0,0-.58.78,3.49,3.49,0,0,0-.32,1A10.47,10.47,0,0,0,201,99.8c0,.54,0,1.21,0,2s0,1.46,0,2a10.3,10.3,0,0,0,.13,1.4,3.56,3.56,0,0,0,.32,1,3,3,0,0,0,.58.78,3.36,3.36,0,0,0,1.18.79,3.9,3.9,0,0,0,1.43.27,3.45,3.45,0,0,0,2.38-.83,3.94,3.94,0,0,0,1.26-2.23Z" fill="#000008"/>
      <path d="M222.3,109.38v-6.91h-7.18v6.91H213.5V94.24h1.62V101h7.18V94.24h1.62v15.14Z" fill="#000008"/>
      <path d="M238.79,104.38a5.25,5.25,0,0,1-.4,2.08,4.7,4.7,0,0,1-1.1,1.62,5.05,5.05,0,0,1-1.68,1.06,6.26,6.26,0,0,1-4.24,0,4.77,4.77,0,0,1-1.66-1.06,4.7,4.7,0,0,1-1.1-1.62,5.43,5.43,0,0,1-.39-2.08V94.24h1.61v10a4.59,4.59,0,0,0,.26,1.58,3.27,3.27,0,0,0,.73,1.19,3.46,3.46,0,0,0,1.16.77,4.36,4.36,0,0,0,3,0,3.46,3.46,0,0,0,1.16-.77,3.29,3.29,0,0,0,.74-1.19,4.36,4.36,0,0,0,.27-1.58v-10h1.62Z" fill="#000008"/>
      <path d="M243.23,109.38V94.24h1.62v13.69h7.74v1.45Z" fill="#000008"/>
      <path d="M255.82,109.38V94.24h9.4v1.44h-7.78V101h6.63v1.45h-6.63v5.46h7.78v1.45Z" fill="#000008"/>
      <path d="M286.85,101.64c0,.52,0,1.08,0,1.66a12.07,12.07,0,0,1-.14,1.71,7.36,7.36,0,0,1-.43,1.61,4.22,4.22,0,0,1-.91,1.36,4.47,4.47,0,0,1-1.66,1,6.21,6.21,0,0,1-2.17.36h-5.19V94.24h5.19a6.21,6.21,0,0,1,2.17.36,4.47,4.47,0,0,1,1.66,1,4.24,4.24,0,0,1,.91,1.31,6.23,6.23,0,0,1,.43,1.49,10.44,10.44,0,0,1,.14,1.59C286.85,100.58,286.85,101.11,286.85,101.64Zm-1.62,0c0-.47,0-.93,0-1.39a9.23,9.23,0,0,0-.09-1.32,5.51,5.51,0,0,0-.3-1.18,2.92,2.92,0,0,0-.59-1,3.31,3.31,0,0,0-1.34-.86,5.08,5.08,0,0,0-1.64-.25H278v12.25h3.3a5.37,5.37,0,0,0,1.64-.24,3.31,3.31,0,0,0,1.34-.86,2.87,2.87,0,0,0,.59-1,6.67,6.67,0,0,0,.3-1.3,11.13,11.13,0,0,0,.09-1.44C285.23,102.59,285.23,102.11,285.23,101.64Z" fill="#000008"/>
      <path d="M299.57,109.38,298.36,106h-6.62l-1.21,3.42h-1.72l5.57-15.14h1.36l5.55,15.14Zm-4.49-12.82-2.85,8h5.66Z" fill="#000008"/>
      <path d="M312.93,109.38l-3.45-6.72h-3.64v6.72h-1.61V94.24H310a5.5,5.5,0,0,1,1.81.28,4.3,4.3,0,0,1,1.43.83,3.82,3.82,0,0,1,.92,1.33,4.58,4.58,0,0,1,.33,1.77,4,4,0,0,1-.91,2.71,4.18,4.18,0,0,1-2.39,1.35l3.6,6.87Zm0-10.91a2.56,2.56,0,0,0-.84-2.1,3.31,3.31,0,0,0-2.18-.69h-4v5.55h4a3.31,3.31,0,0,0,2.18-.68A2.5,2.5,0,0,0,312.9,98.47Z" fill="#000008"/>
      <path d="M330.24,109.38V97.87L326.09,107h-1.38l-4.21-9.13v11.51h-1.62V94.24h1.62L325.43,105l4.81-10.74h1.61v15.14Z" fill="#000008"/>
      <path d="M345.68,105.21a4.32,4.32,0,0,1-.37,1.8,3.8,3.8,0,0,1-1.07,1.35,4.91,4.91,0,0,1-1.66.85,7.12,7.12,0,0,1-2.13.3,8.16,8.16,0,0,1-2.92-.47,6.51,6.51,0,0,1-2.27-1.53l1.1-1.11a5.43,5.43,0,0,0,1.9,1.3,6.28,6.28,0,0,0,2.23.36,4.17,4.17,0,0,0,2.61-.73,2.46,2.46,0,0,0,1-2.08,3.14,3.14,0,0,0-.18-1.08,1.93,1.93,0,0,0-.54-.81,2.42,2.42,0,0,0-.76-.46,7.19,7.19,0,0,0-1.22-.26l-1.76-.28a5.52,5.52,0,0,1-2.79-1.15,3.57,3.57,0,0,1-1.15-2.83,4.37,4.37,0,0,1,.34-1.75,3.77,3.77,0,0,1,1-1.35,4.34,4.34,0,0,1,1.52-.86,6.08,6.08,0,0,1,2-.31,7.41,7.41,0,0,1,2.49.38,6.61,6.61,0,0,1,2,1.24l-1,1a5,5,0,0,0-1.51-1,5.4,5.4,0,0,0-2-.33,3.35,3.35,0,0,0-2.36.77,2.66,2.66,0,0,0-.83,2.06,2.21,2.21,0,0,0,.68,1.76,3.21,3.21,0,0,0,.9.51,6,6,0,0,0,1.14.32l1.66.26.94.18a5.47,5.47,0,0,1,.74.22,3.92,3.92,0,0,1,.58.29,3.08,3.08,0,0,1,.5.37A3.75,3.75,0,0,1,345.68,105.21Z" fill="#000008"/>
      <path d="M353.42,95.68v13.7H351.8V95.68h-4.38V94.24H357.8v1.44Z" fill="#000008"/>
      <path d="M369.12,109.38,367.9,106h-6.61l-1.21,3.42h-1.73l5.58-15.14h1.36l5.55,15.14Zm-4.49-12.82-2.85,8h5.66Z" fill="#000008"/>
      <path d="M384.39,101.64c0,.52,0,1.08,0,1.66a13.76,13.76,0,0,1-.14,1.71,7.38,7.38,0,0,1-.44,1.61,4.19,4.19,0,0,1-.9,1.36,4.64,4.64,0,0,1-1.66,1,6.25,6.25,0,0,1-2.17.36h-5.19V94.24h5.19a6.25,6.25,0,0,1,2.17.36,4.64,4.64,0,0,1,1.66,1,4.21,4.21,0,0,1,.9,1.31,6.25,6.25,0,0,1,.44,1.49,11.89,11.89,0,0,1,.14,1.59C384.38,100.58,384.39,101.11,384.39,101.64Zm-1.62,0c0-.47,0-.93,0-1.39a10.89,10.89,0,0,0-.1-1.32,5,5,0,0,0-.29-1.18,3,3,0,0,0-.6-1,3.24,3.24,0,0,0-1.34-.86,5,5,0,0,0-1.64-.25H375.5v12.25h3.29a5.33,5.33,0,0,0,1.64-.24,3.24,3.24,0,0,0,1.34-.86,2.88,2.88,0,0,0,.6-1,6,6,0,0,0,.29-1.3,13.2,13.2,0,0,0,.1-1.44C382.77,102.59,382.77,102.11,382.77,101.64Z" fill="#000008"/>
      <path d="M392.88,95.68v13.7h-1.61V95.68h-4.39V94.24h10.38v1.44Z" fill="#000008"/>
      <path d="M140.19,129.9a5.39,5.39,0,0,1-.39,2.08,4.87,4.87,0,0,1-1.11,1.62,5.05,5.05,0,0,1-1.68,1.06,6.23,6.23,0,0,1-4.23,0,4.81,4.81,0,0,1-1.67-1.06A4.7,4.7,0,0,1,130,132a5.39,5.39,0,0,1-.39-2.08V119.76h1.61v10a4.57,4.57,0,0,0,.26,1.57,3.27,3.27,0,0,0,.73,1.19,3.46,3.46,0,0,0,1.16.77,4.1,4.1,0,0,0,1.51.27,4,4,0,0,0,1.51-.27,3.36,3.36,0,0,0,1.16-.77,3.45,3.45,0,0,0,.75-1.19,4.57,4.57,0,0,0,.26-1.57v-10h1.62Z" fill="#000008"/>
      <path d="M154,134.9l-8-12.14V134.9h-1.61V119.76h1.53l8,12.1v-12.1h1.61V134.9Z" fill="#000008"/>
      <path d="M160.39,134.9V119.76H162V134.9Z" fill="#000008"/>
      <path d="M171.69,134.9h-1.32l-5-15.14h1.7L171,132,175,119.76h1.7Z" fill="#000008"/>
      <path d="M180,134.9V119.76h9.4v1.45h-7.78v5.33h6.63V128h-6.63v5.47h7.78v1.44Z" fill="#000008"/>
      <path d="M201.48,134.9,198,128.18H194.4v6.72h-1.62V119.76h5.81a5.33,5.33,0,0,1,1.81.29,3.86,3.86,0,0,1,1.42.83,3.68,3.68,0,0,1,.93,1.32,4.58,4.58,0,0,1,.33,1.77,4,4,0,0,1-.92,2.71,4.16,4.16,0,0,1-2.38,1.35l3.6,6.87Zm0-10.91a2.54,2.54,0,0,0-.84-2.09,3.33,3.33,0,0,0-2.18-.69h-4v5.55h4a3.38,3.38,0,0,0,2.18-.68A2.54,2.54,0,0,0,201.46,124Z" fill="#000008"/>
      <path d="M216.09,130.73a4.17,4.17,0,0,1-.37,1.8,3.77,3.77,0,0,1-1.06,1.35,5,5,0,0,1-1.66.85,7.23,7.23,0,0,1-2.14.3,8.14,8.14,0,0,1-2.91-.47,6.54,6.54,0,0,1-2.28-1.53l1.11-1.11a5.31,5.31,0,0,0,1.89,1.3,6.32,6.32,0,0,0,2.23.36,4.2,4.2,0,0,0,2.62-.73,2.46,2.46,0,0,0,1-2.07,3.16,3.16,0,0,0-.18-1.09,2,2,0,0,0-.55-.81,2.49,2.49,0,0,0-.75-.46,7.19,7.19,0,0,0-1.22-.26l-1.77-.28a5.6,5.6,0,0,1-2.79-1.15,3.59,3.59,0,0,1-1.14-2.82,4.38,4.38,0,0,1,.34-1.76,3.74,3.74,0,0,1,1-1.35,4.6,4.6,0,0,1,1.52-.86,6.1,6.1,0,0,1,2-.31,7.31,7.31,0,0,1,2.48.38,6.5,6.5,0,0,1,2,1.24l-1,1a5,5,0,0,0-1.51-1,5.37,5.37,0,0,0-2-.33,3.35,3.35,0,0,0-2.36.77,2.7,2.7,0,0,0-.83,2.06,2.24,2.24,0,0,0,.68,1.76,3.14,3.14,0,0,0,.91.51,6.12,6.12,0,0,0,1.13.33l1.66.25.95.18a4.86,4.86,0,0,1,.73.23,4,4,0,0,1,.59.28,4.29,4.29,0,0,1,.5.37A3.74,3.74,0,0,1,216.09,130.73Z" fill="#000008"/>
      <path d="M220.11,134.9V119.76h1.62V134.9Z" fill="#000008"/>
      <path d="M231.11,121.21V134.9h-1.62V121.21h-4.38v-1.45h10.38v1.45Z" fill="#000008"/>
      <path d="M243.7,128.65v6.25h-1.62v-6.25l-4.51-8.89h1.75l3.57,7.25,3.53-7.25h1.75Z" fill="#000008"/>
      <path d="M267.2,127.33c0,.81,0,1.51,0,2.12a10.56,10.56,0,0,1-.16,1.61,4.89,4.89,0,0,1-.43,1.29,4.29,4.29,0,0,1-.82,1.11,5.16,5.16,0,0,1-1.74,1.16,5.5,5.5,0,0,1-2.13.41,5.3,5.3,0,0,1-3.87-1.57,4.81,4.81,0,0,1-.82-1.11,4.88,4.88,0,0,1-.42-1.29,9.42,9.42,0,0,1-.16-1.61c0-.61,0-1.31,0-2.12s0-1.51,0-2.12a9.42,9.42,0,0,1,.16-1.61,4.88,4.88,0,0,1,.42-1.29,4.56,4.56,0,0,1,.82-1.1,5.53,5.53,0,0,1,7.74,0,4.09,4.09,0,0,1,.82,1.1,4.89,4.89,0,0,1,.43,1.29,10.56,10.56,0,0,1,.16,1.61C267.19,125.82,267.2,126.52,267.2,127.33Zm-1.62,0q0-1.18,0-2a9.68,9.68,0,0,0-.14-1.39,3.2,3.2,0,0,0-.32-1,3,3,0,0,0-.57-.78,3.62,3.62,0,0,0-1.18-.8,3.82,3.82,0,0,0-2.87,0,3.52,3.52,0,0,0-1.18.8,3,3,0,0,0-.58.78,3.84,3.84,0,0,0-.32,1,9.84,9.84,0,0,0-.13,1.39c0,.55,0,1.22,0,2s0,1.46,0,2a9.84,9.84,0,0,0,.13,1.39,3.84,3.84,0,0,0,.32,1,3,3,0,0,0,.58.78,3.52,3.52,0,0,0,1.18.8,3.82,3.82,0,0,0,2.87,0,3.62,3.62,0,0,0,1.18-.8,3,3,0,0,0,.57-.78,3.2,3.2,0,0,0,.32-1,9.68,9.68,0,0,0,.14-1.39Q265.58,128.51,265.58,127.33Z" fill="#000008"/>
      <path d="M272.73,121.21v5.57h6.63v1.44h-6.63v6.68h-1.62V119.76h9.4v1.45Z" fill="#000008"/>
      <path d="M298,134.9l-1.21-3.42h-6.61l-1.22,3.42h-1.72l5.57-15.14h1.36l5.56,15.14Zm-4.48-12.82-2.85,8h5.65Z" fill="#000008"/>
      <path d="M313,124.2a4.76,4.76,0,0,1-.34,1.85,3.92,3.92,0,0,1-1,1.41,4.3,4.3,0,0,1-1.48.89,5.49,5.49,0,0,1-1.9.32h-4v6.23h-1.62V119.76h5.64a5.49,5.49,0,0,1,1.9.31,4,4,0,0,1,1.48.89,4.16,4.16,0,0,1,1,1.4A4.71,4.71,0,0,1,313,124.2Zm-1.62,0a2.76,2.76,0,0,0-.89-2.25,3.49,3.49,0,0,0-2.32-.74h-3.87v6h3.87a3.5,3.5,0,0,0,2.32-.75A2.79,2.79,0,0,0,311.37,124.2Z" fill="#000008"/>
      <path d="M326.8,124.2a4.76,4.76,0,0,1-.34,1.85,3.78,3.78,0,0,1-.95,1.41,4.4,4.4,0,0,1-1.48.89,5.49,5.49,0,0,1-1.9.32h-4v6.23h-1.62V119.76h5.64a5.49,5.49,0,0,1,1.9.31,4.1,4.1,0,0,1,1.48.89,4,4,0,0,1,.95,1.4A4.71,4.71,0,0,1,326.8,124.2Zm-1.61,0a2.79,2.79,0,0,0-.89-2.25,3.49,3.49,0,0,0-2.32-.74h-3.87v6H322a3.5,3.5,0,0,0,2.32-.75A2.82,2.82,0,0,0,325.19,124.2Z" fill="#000008"/>
      <path d="M329.93,134.9V119.76h1.62v13.7h7.74v1.44Z" fill="#000008"/>
      <path d="M342.14,134.9V119.76h1.62V134.9Z" fill="#000008"/>
      <path d="M348.41,134.9V119.76h9.4v1.45H350v5.33h6.63V128H350v5.47h7.78v1.44Z" fill="#000008"/>
      <path d="M371.74,127.16c0,.52,0,1.08,0,1.66a10.76,10.76,0,0,1-.14,1.71,7.21,7.21,0,0,1-.43,1.61,4.12,4.12,0,0,1-.91,1.36,4.51,4.51,0,0,1-1.65,1,6.29,6.29,0,0,1-2.17.36h-5.19V119.76h5.19a6.29,6.29,0,0,1,2.17.36,4.51,4.51,0,0,1,1.65,1,4.36,4.36,0,0,1,.91,1.31,6.37,6.37,0,0,1,.43,1.49,9.31,9.31,0,0,1,.14,1.59C371.74,126.1,371.74,126.64,371.74,127.16Zm-1.61,0c0-.47,0-.93,0-1.39a11.05,11.05,0,0,0-.1-1.32,5.51,5.51,0,0,0-.3-1.18,2.92,2.92,0,0,0-.59-1,3.31,3.31,0,0,0-1.34-.86,5.33,5.33,0,0,0-1.64-.24h-3.3v12.25h3.3a5.32,5.32,0,0,0,1.64-.25,3.31,3.31,0,0,0,1.34-.86,2.87,2.87,0,0,0,.59-1,6.67,6.67,0,0,0,.3-1.3,13.19,13.19,0,0,0,.1-1.43C370.12,128.11,370.13,127.63,370.13,127.16Z" fill="#000008"/>
      <path d="M391.84,130.73a4.17,4.17,0,0,1-.37,1.8,3.77,3.77,0,0,1-1.06,1.35,5.11,5.11,0,0,1-1.66.85,7.23,7.23,0,0,1-2.14.3,8.1,8.1,0,0,1-2.91-.47,6.54,6.54,0,0,1-2.28-1.53l1.11-1.11a5.31,5.31,0,0,0,1.89,1.3,6.32,6.32,0,0,0,2.23.36,4.2,4.2,0,0,0,2.62-.73,2.46,2.46,0,0,0,1-2.07,3.15,3.15,0,0,0-.19-1.09,1.93,1.93,0,0,0-.54-.81,2.49,2.49,0,0,0-.75-.46,7.35,7.35,0,0,0-1.23-.26l-1.76-.28a5.52,5.52,0,0,1-2.79-1.15,3.6,3.6,0,0,1-1.15-2.82,4.56,4.56,0,0,1,.34-1.76,3.77,3.77,0,0,1,1-1.35,4.6,4.6,0,0,1,1.52-.86,6.08,6.08,0,0,1,2-.31,7.33,7.33,0,0,1,2.49.38,6.5,6.5,0,0,1,2,1.24l-1,1a5,5,0,0,0-1.51-1,5.37,5.37,0,0,0-2-.33,3.35,3.35,0,0,0-2.36.77,2.7,2.7,0,0,0-.83,2.06,2.24,2.24,0,0,0,.68,1.76,3.21,3.21,0,0,0,.9.51,6.23,6.23,0,0,0,1.14.33l1.66.25.95.18a5.26,5.26,0,0,1,.73.23,4.6,4.6,0,0,1,.59.28,4.29,4.29,0,0,1,.5.37A3.74,3.74,0,0,1,391.84,130.73Z" fill="#000008"/>
      <path d="M405,130.52a6.45,6.45,0,0,1-.65,1.9,4.88,4.88,0,0,1-1.15,1.42,5,5,0,0,1-1.56.88,5.61,5.61,0,0,1-1.9.31,5.51,5.51,0,0,1-2.11-.41,5.14,5.14,0,0,1-1.76-1.16,4.53,4.53,0,0,1-.82-1.11,4.88,4.88,0,0,1-.42-1.29,9.42,9.42,0,0,1-.16-1.61c0-.61,0-1.31,0-2.12s0-1.51,0-2.12a9.42,9.42,0,0,1,.16-1.61,4.88,4.88,0,0,1,.42-1.29,4.31,4.31,0,0,1,.82-1.1,5,5,0,0,1,1.76-1.17,5.51,5.51,0,0,1,2.11-.41,5.61,5.61,0,0,1,1.9.31,5.2,5.2,0,0,1,1.56.88,5,5,0,0,1,1.15,1.42,6.45,6.45,0,0,1,.65,1.9h-1.66a3.94,3.94,0,0,0-1.24-2.23,3.39,3.39,0,0,0-2.36-.83,3.9,3.9,0,0,0-1.43.27,3.36,3.36,0,0,0-1.18.79,3,3,0,0,0-.58.78,3.56,3.56,0,0,0-.32,1,10.15,10.15,0,0,0-.13,1.4c0,.55,0,1.22,0,2s0,1.46,0,2a10.15,10.15,0,0,0,.13,1.4,3.56,3.56,0,0,0,.32,1,3,3,0,0,0,.58.78,3.36,3.36,0,0,0,1.18.79,3.9,3.9,0,0,0,1.43.27,3.45,3.45,0,0,0,2.38-.83,3.91,3.91,0,0,0,1.26-2.23Z" fill="#000008"/>
      <path d="M408.9,134.9V119.76h1.61V134.9Z" fill="#000008"/>
      <path d="M415.26,134.9V119.76h9.4v1.45h-7.79v5.33h6.64V128h-6.64v5.47h7.79v1.44Z" fill="#000008"/>
      <path d="M437.86,134.9l-8-12.14V134.9h-1.62V119.76h1.53l8,12.1v-12.1h1.62V134.9Z" fill="#000008"/>
      <path d="M453.39,130.52a6.18,6.18,0,0,1-.65,1.9,4.73,4.73,0,0,1-1.15,1.42,5,5,0,0,1-1.56.88,5.79,5.79,0,0,1-4-.1,5.1,5.1,0,0,1-1.75-1.16,4.29,4.29,0,0,1-.82-1.11,4.89,4.89,0,0,1-.43-1.29,10.56,10.56,0,0,1-.16-1.61c0-.61,0-1.31,0-2.12s0-1.51,0-2.12a10.56,10.56,0,0,1,.16-1.61,4.89,4.89,0,0,1,.43-1.29,4.09,4.09,0,0,1,.82-1.1A5,5,0,0,1,446,120a5.79,5.79,0,0,1,4-.1,5.2,5.2,0,0,1,1.56.88,4.85,4.85,0,0,1,1.15,1.42,6.18,6.18,0,0,1,.65,1.9h-1.66a4,4,0,0,0-1.23-2.23,3.4,3.4,0,0,0-2.36-.83,3.92,3.92,0,0,0-1.44.27,3.45,3.45,0,0,0-1.18.79,3,3,0,0,0-.57.78,3.56,3.56,0,0,0-.32,1,10,10,0,0,0-.14,1.4q0,.83,0,2t0,2a10,10,0,0,0,.14,1.4,3.56,3.56,0,0,0,.32,1,3,3,0,0,0,.57.78,3.45,3.45,0,0,0,1.18.79,3.92,3.92,0,0,0,1.44.27,3.47,3.47,0,0,0,2.38-.83,3.84,3.84,0,0,0,1.25-2.23Z" fill="#000008"/>
      <path d="M456.9,134.9V119.76h9.4v1.45h-7.78v5.33h6.63V128h-6.63v5.47h7.78v1.44Z" fill="#000008"/>
      <path d="M479.1,130.73a4.17,4.17,0,0,1-.37,1.8,3.77,3.77,0,0,1-1.06,1.35,5,5,0,0,1-1.66.85,7.23,7.23,0,0,1-2.14.3,8.14,8.14,0,0,1-2.91-.47,6.54,6.54,0,0,1-2.28-1.53l1.11-1.11a5.31,5.31,0,0,0,1.89,1.3,6.32,6.32,0,0,0,2.23.36,4.2,4.2,0,0,0,2.62-.73,2.46,2.46,0,0,0,1-2.07,3.16,3.16,0,0,0-.18-1.09,2,2,0,0,0-.55-.81,2.49,2.49,0,0,0-.75-.46,7.19,7.19,0,0,0-1.22-.26l-1.77-.28a5.6,5.6,0,0,1-2.79-1.15,3.59,3.59,0,0,1-1.14-2.82,4.38,4.38,0,0,1,.34-1.76,3.74,3.74,0,0,1,1-1.35,4.6,4.6,0,0,1,1.52-.86,6.1,6.1,0,0,1,2-.31,7.31,7.31,0,0,1,2.48.38,6.5,6.5,0,0,1,2,1.24l-1,1a5,5,0,0,0-1.51-1,5.37,5.37,0,0,0-2-.33,3.35,3.35,0,0,0-2.36.77,2.7,2.7,0,0,0-.83,2.06,2.24,2.24,0,0,0,.68,1.76,3.14,3.14,0,0,0,.91.51,6.12,6.12,0,0,0,1.13.33l1.66.25.95.18a4.86,4.86,0,0,1,.73.23,4,4,0,0,1,.59.28,4.29,4.29,0,0,1,.5.37A3.74,3.74,0,0,1,479.1,130.73Z" fill="#000008"/>
    </g>
    <g>
      <path d="M131.45,198v5.57h6.63v1.45h-6.63v6.68h-1.62V196.58h9.4V198Z" fill="#000008"/>
      <path d="M152.61,204.15c0,.81,0,1.52,0,2.12a10.83,10.83,0,0,1-.16,1.62,4.94,4.94,0,0,1-.43,1.28,4.13,4.13,0,0,1-.82,1.11,5.34,5.34,0,0,1-1.74,1.17,5.5,5.5,0,0,1-2.13.4,5.26,5.26,0,0,1-3.87-1.57,4.6,4.6,0,0,1-.82-1.11,4.93,4.93,0,0,1-.42-1.28,9.66,9.66,0,0,1-.16-1.62c0-.6,0-1.31,0-2.12s0-1.51,0-2.11a9.66,9.66,0,0,1,.16-1.62,5.14,5.14,0,0,1,.42-1.29,4.56,4.56,0,0,1,.82-1.1,5.55,5.55,0,0,1,7.74,0,4.09,4.09,0,0,1,.82,1.1,5.15,5.15,0,0,1,.43,1.29,10.83,10.83,0,0,1,.16,1.62C152.6,202.64,152.61,203.35,152.61,204.15Zm-1.62,0q0-1.18,0-2a9.83,9.83,0,0,0-.14-1.39,3.39,3.39,0,0,0-.32-1,3.13,3.13,0,0,0-.57-.77,3.47,3.47,0,0,0-1.18-.8,3.7,3.7,0,0,0-2.87,0,3.38,3.38,0,0,0-1.18.8,3.18,3.18,0,0,0-.58.77,4.11,4.11,0,0,0-.32,1,10,10,0,0,0-.13,1.39c0,.55,0,1.22,0,2s0,1.47,0,2a10.15,10.15,0,0,0,.13,1.4,4.11,4.11,0,0,0,.32,1,3.18,3.18,0,0,0,.58.77,3.38,3.38,0,0,0,1.18.8,3.7,3.7,0,0,0,2.87,0,3.47,3.47,0,0,0,1.18-.8,3.13,3.13,0,0,0,.57-.77,3.39,3.39,0,0,0,.32-1,10,10,0,0,0,.14-1.4Q151,205.35,151,204.15Z" fill="#000008"/>
      <path d="M165.52,211.73,162.08,205h-3.64v6.73h-1.61V196.58h5.8a5.54,5.54,0,0,1,1.81.29,4.14,4.14,0,0,1,1.43.83,3.73,3.73,0,0,1,.92,1.33,4.49,4.49,0,0,1,.33,1.76,4.06,4.06,0,0,1-.91,2.72,4.18,4.18,0,0,1-2.39,1.35l3.6,6.87Zm0-10.91a2.56,2.56,0,0,0-.84-2.1,3.31,3.31,0,0,0-2.18-.69h-4v5.55h4a3.36,3.36,0,0,0,2.18-.68A2.52,2.52,0,0,0,165.5,200.82Z" fill="#000008"/>
      <path d="M180.69,207.56a4.15,4.15,0,0,1-.37,1.79,3.72,3.72,0,0,1-1.06,1.36,5.2,5.2,0,0,1-1.66.85,7.59,7.59,0,0,1-2.14.29,8.15,8.15,0,0,1-2.91-.46,6.72,6.72,0,0,1-2.28-1.54l1.11-1.1a5.59,5.59,0,0,0,1.89,1.3,6.32,6.32,0,0,0,2.23.36,4.2,4.2,0,0,0,2.62-.74,2.46,2.46,0,0,0,1-2.07,3.16,3.16,0,0,0-.18-1.09,2,2,0,0,0-.55-.8,2.15,2.15,0,0,0-.75-.46,8.08,8.08,0,0,0-1.22-.27l-1.77-.27a5.6,5.6,0,0,1-2.79-1.15,3.6,3.6,0,0,1-1.14-2.83A4.34,4.34,0,0,1,171,199a3.69,3.69,0,0,1,1-1.36,4.78,4.78,0,0,1,1.52-.86,6.37,6.37,0,0,1,2-.3,7.07,7.07,0,0,1,2.48.38,6.28,6.28,0,0,1,2,1.23l-1,1a5.21,5.21,0,0,0-1.51-1,5.37,5.37,0,0,0-2-.33,3.31,3.31,0,0,0-2.36.77,2.68,2.68,0,0,0-.83,2.06,2.22,2.22,0,0,0,.68,1.75,3.15,3.15,0,0,0,.91.52,6.1,6.1,0,0,0,1.13.32l1.66.26a9,9,0,0,1,.95.18,4,4,0,0,1,.73.22,3.24,3.24,0,0,1,.59.29,3.39,3.39,0,0,1,.5.37A3.72,3.72,0,0,1,180.69,207.56Z" fill="#000008"/>
      <path d="M194.8,207.34a6.52,6.52,0,0,1-.65,1.91,4.84,4.84,0,0,1-1.15,1.41,5,5,0,0,1-1.56.88,5.86,5.86,0,0,1-4-.09,5.32,5.32,0,0,1-1.76-1.17,4.31,4.31,0,0,1-.81-1.11,4.59,4.59,0,0,1-.43-1.28,9.66,9.66,0,0,1-.16-1.62c0-.6,0-1.31,0-2.12s0-1.51,0-2.11a9.66,9.66,0,0,1,.16-1.62,4.78,4.78,0,0,1,.43-1.29,4.26,4.26,0,0,1,.81-1.1,5.32,5.32,0,0,1,1.76-1.17,5.5,5.5,0,0,1,2.11-.4,5.78,5.78,0,0,1,1.9.3,5,5,0,0,1,1.56.89,4.84,4.84,0,0,1,1.15,1.41,6.45,6.45,0,0,1,.65,1.9h-1.66a4,4,0,0,0-1.23-2.23,3.48,3.48,0,0,0-2.37-.83,3.72,3.72,0,0,0-1.43.28,3.2,3.2,0,0,0-1.18.78,3.51,3.51,0,0,0-.58.78,3.68,3.68,0,0,0-.31,1,8.8,8.8,0,0,0-.14,1.4q0,.83,0,2t0,2a8.82,8.82,0,0,0,.14,1.41,3.68,3.68,0,0,0,.31,1,3.46,3.46,0,0,0,.58.77,3.23,3.23,0,0,0,1.18.79,3.91,3.91,0,0,0,1.43.28,3.55,3.55,0,0,0,2.39-.83,4,4,0,0,0,1.25-2.24Z" fill="#000008"/>
      <path d="M207.56,211.73v-6.92h-7.19v6.92h-1.62V196.58h1.62v6.79h7.19v-6.79h1.61v15.15Z" fill="#000008"/>
      <path d="M224.25,206.73a5.37,5.37,0,0,1-.39,2.07,4.86,4.86,0,0,1-1.11,1.63,5,5,0,0,1-1.68,1,6.23,6.23,0,0,1-4.23,0,4.77,4.77,0,0,1-2.77-2.68,5.37,5.37,0,0,1-.39-2.07V196.58h1.62v10a4.54,4.54,0,0,0,.25,1.57,3.24,3.24,0,0,0,1.89,2,4.1,4.1,0,0,0,1.51.28,4,4,0,0,0,1.51-.28,3.34,3.34,0,0,0,1.16-.76,3.49,3.49,0,0,0,.75-1.2,4.53,4.53,0,0,0,.26-1.57v-10h1.62Z" fill="#000008"/>
      <path d="M238.4,211.73l-8-12.15v12.15h-1.61V196.58h1.53l8,12.1v-12.1h1.61v15.15Z" fill="#000008"/>
      <path d="M254.78,206.2a7.66,7.66,0,0,1-.29,2.24,4.49,4.49,0,0,1-1,1.67,5.41,5.41,0,0,1-1.84,1.31,5.6,5.6,0,0,1-2.2.43,5.52,5.52,0,0,1-2.12-.4,5.32,5.32,0,0,1-1.76-1.17,4.31,4.31,0,0,1-.81-1.11,4.59,4.59,0,0,1-.43-1.28,9.66,9.66,0,0,1-.16-1.62c0-.6,0-1.31,0-2.12s0-1.51,0-2.11a9.66,9.66,0,0,1,.16-1.62,4.78,4.78,0,0,1,.43-1.29,4.26,4.26,0,0,1,.81-1.1,5.26,5.26,0,0,1,3.88-1.57,5.71,5.71,0,0,1,2,.33,4.76,4.76,0,0,1,1.59.93,5,5,0,0,1,1.11,1.44,5.72,5.72,0,0,1,.61,1.83h-1.62a4,4,0,0,0-1.28-2.27,3.56,3.56,0,0,0-2.39-.82,3.74,3.74,0,0,0-1.44.29,3.65,3.65,0,0,0-1.76,1.57,3.72,3.72,0,0,0-.31,1,8.55,8.55,0,0,0-.14,1.39q0,.83,0,2t0,2a8.82,8.82,0,0,0,.14,1.41,3.68,3.68,0,0,0,.31,1,3.46,3.46,0,0,0,.58.77,3.31,3.31,0,0,0,1.18.79,3.9,3.9,0,0,0,3,0,3.49,3.49,0,0,0,1.29-1,3.38,3.38,0,0,0,.66-1.2,5.79,5.79,0,0,0,.19-1.54v-1.15h-3.72v-1.43h5.33Z" fill="#000008"/>
      <path d="M268.39,207.56a4.16,4.16,0,0,1-.38,1.79,3.62,3.62,0,0,1-1.06,1.36,5.1,5.1,0,0,1-1.66.85,7.53,7.53,0,0,1-2.14.29,8.15,8.15,0,0,1-2.91-.46,6.59,6.59,0,0,1-2.27-1.54l1.1-1.1a5.78,5.78,0,0,0,1.89,1.3,6.38,6.38,0,0,0,2.24.36,4.17,4.17,0,0,0,2.61-.74,2.46,2.46,0,0,0,1-2.07,3.16,3.16,0,0,0-.18-1.09,2,2,0,0,0-.54-.8,2.18,2.18,0,0,0-.76-.46,8.08,8.08,0,0,0-1.22-.27l-1.77-.27a5.52,5.52,0,0,1-2.78-1.15,3.57,3.57,0,0,1-1.15-2.83,4.34,4.34,0,0,1,.34-1.75,3.72,3.72,0,0,1,1-1.36,4.67,4.67,0,0,1,1.52-.86,6.31,6.31,0,0,1,2-.3,7.16,7.16,0,0,1,2.49.38,6.38,6.38,0,0,1,2,1.23l-1,1a5.35,5.35,0,0,0-1.51-1,5.42,5.42,0,0,0-2-.33,3.32,3.32,0,0,0-2.36.77,2.68,2.68,0,0,0-.83,2.06,2.19,2.19,0,0,0,.69,1.75,3.23,3.23,0,0,0,.9.52,6,6,0,0,0,1.14.32l1.66.26a8.78,8.78,0,0,1,.94.18,4.33,4.33,0,0,1,.74.22,3.49,3.49,0,0,1,.58.29,2.94,2.94,0,0,1,.5.37A3.72,3.72,0,0,1,268.39,207.56Z" fill="#000008"/>
      <path d="M271.47,211.73v-1.54L279.05,198h-7.28v-1.45h9.11v1.36l-7.64,12.34h7.64v1.45Z" fill="#000008"/>
      <path d="M284.75,211.73V196.58h9.4V198h-7.79v5.34H293v1.44h-6.64v5.47h7.79v1.45Z" fill="#000008"/>
      <path d="M307.65,211.73l-8-12.15v12.15H298V196.58h1.53l8,12.1v-12.1h1.61v15.15Z" fill="#000008"/>
      <path d="M318.77,198v13.7h-1.62V198h-4.38v-1.45h10.38V198Z" fill="#000008"/>
      <path d="M335.44,211.73,332,205h-3.64v6.73h-1.61V196.58h5.8a5.54,5.54,0,0,1,1.81.29,4.14,4.14,0,0,1,1.43.83,3.73,3.73,0,0,1,.92,1.33,4.49,4.49,0,0,1,.33,1.76,4,4,0,0,1-.91,2.72,4.18,4.18,0,0,1-2.39,1.35l3.6,6.87Zm0-10.91a2.56,2.56,0,0,0-.84-2.1,3.31,3.31,0,0,0-2.18-.69h-4v5.55h4a3.36,3.36,0,0,0,2.18-.68A2.52,2.52,0,0,0,335.41,200.82Z" fill="#000008"/>
      <path d="M351.49,206.73a5.37,5.37,0,0,1-.39,2.07,4.72,4.72,0,0,1-1.11,1.63,5,5,0,0,1-1.68,1,6.23,6.23,0,0,1-4.23,0,5,5,0,0,1-1.67-1,4.81,4.81,0,0,1-1.09-1.63,5.2,5.2,0,0,1-.4-2.07V196.58h1.62v10a4.54,4.54,0,0,0,.25,1.57,3.22,3.22,0,0,0,1.9,2,4,4,0,0,0,1.51.28,4.1,4.1,0,0,0,1.51-.28,3.44,3.44,0,0,0,1.16-.76,3.47,3.47,0,0,0,.74-1.2,4.31,4.31,0,0,0,.27-1.57v-10h1.61Z" fill="#000008"/>
      <path d="M367.35,211.73V200.22l-4.15,9.12h-1.38l-4.22-9.12v11.51H356V196.58h1.61l4.94,10.74,4.81-10.74H369v15.15Z" fill="#000008"/>
      <path d="M138.66,240.37l-1.21-3.43h-6.62l-1.21,3.43H127.9l5.57-15.15h1.36l5.55,15.15Zm-4.49-12.83-2.85,8H137Z" fill="#000008"/>
      <path d="M153.45,240.37l-8-12.15v12.15h-1.62V225.22h1.53l8,12.11V225.22H155v15.15Z" fill="#000008"/>
      <path d="M169.83,234.84a7.32,7.32,0,0,1-.3,2.24,4.36,4.36,0,0,1-1,1.67,5.32,5.32,0,0,1-1.84,1.31,5.6,5.6,0,0,1-2.2.43,5.47,5.47,0,0,1-2.11-.4,5.32,5.32,0,0,1-1.76-1.17,4.19,4.19,0,0,1-.82-1.11,4.93,4.93,0,0,1-.42-1.28,8.71,8.71,0,0,1-.16-1.62c0-.6,0-1.31,0-2.12s0-1.51,0-2.11a8.71,8.71,0,0,1,.16-1.62,4.93,4.93,0,0,1,.42-1.28,4.19,4.19,0,0,1,.82-1.11,5.26,5.26,0,0,1,3.87-1.57,5.77,5.77,0,0,1,2,.33,4.89,4.89,0,0,1,1.58.93,4.94,4.94,0,0,1,1.12,1.44,6.26,6.26,0,0,1,.61,1.83h-1.62a4,4,0,0,0-1.29-2.27,3.59,3.59,0,0,0-2.39-.82,3.69,3.69,0,0,0-1.43.29,3.29,3.29,0,0,0-1.18.8,2.94,2.94,0,0,0-.58.77,3.71,3.71,0,0,0-.32,1,11.55,11.55,0,0,0-.14,1.4c0,.54,0,1.21,0,2s0,1.47,0,2a12,12,0,0,0,.14,1.41,3.67,3.67,0,0,0,.32,1,2.94,2.94,0,0,0,.58.77,3.15,3.15,0,0,0,1.18.79,3.68,3.68,0,0,0,1.43.28,4,4,0,0,0,1.59-.33,3.57,3.57,0,0,0,1.94-2.17,5.4,5.4,0,0,0,.19-1.54v-1.15h-3.72v-1.43h5.34Z" fill="#000008"/>
      <path d="M174,240.37V225.22h9.4v1.45h-7.78V232h6.64v1.44h-6.64v5.47h7.78v1.45Z" fill="#000008"/>
      <path d="M199.9,240.37h-1.53L195,228.24l-3.34,12.13h-1.53l-3.87-15.15H188l3,12.21,3.33-12.21h1.45l3.32,12.21,3-12.21h1.73Z" fill="#000008"/>
      <path d="M215.12,240.37l-1.21-3.43H207.3l-1.22,3.43h-1.72l5.57-15.15h1.37l5.55,15.15Zm-4.48-12.83-2.85,8h5.65Z" fill="#000008"/>
      <path d="M229.91,240.37l-8-12.15v12.15h-1.61V225.22h1.53l8,12.11V225.22h1.61v15.15Z" fill="#000008"/>
      <path d="M246.58,232.62c0,.53,0,1.08,0,1.66a12.09,12.09,0,0,1-.14,1.72,7.14,7.14,0,0,1-.44,1.6,3.85,3.85,0,0,1-.9,1.36,4.42,4.42,0,0,1-1.66,1,6,6,0,0,1-2.17.37h-5.19V225.22h5.19a6.21,6.21,0,0,1,2.17.36,4.57,4.57,0,0,1,1.66,1,4,4,0,0,1,.9,1.3,6.53,6.53,0,0,1,.44,1.49,10.46,10.46,0,0,1,.14,1.6C246.58,231.56,246.58,232.1,246.58,232.62Zm-1.62,0c0-.46,0-.93,0-1.39s0-.9-.09-1.32a5.67,5.67,0,0,0-.3-1.18,2.66,2.66,0,0,0-.6-.95,3.21,3.21,0,0,0-1.34-.87,5.26,5.26,0,0,0-1.63-.24h-3.3v12.25H241a5.26,5.26,0,0,0,1.63-.24,3.21,3.21,0,0,0,1.34-.87,2.66,2.66,0,0,0,.6-1,6.4,6.4,0,0,0,.3-1.29q.07-.69.09-1.44C245,233.58,245,233.09,245,232.62Z" fill="#000008"/>
      <path d="M255.29,226.67v13.7h-1.62v-13.7h-4.38v-1.45h10.38v1.45Z" fill="#000008"/>
      <path d="M263.26,240.37V225.22h9.4v1.45h-7.79V232h6.64v1.44h-6.64v5.47h7.79v1.45Z" fill="#000008"/>
      <path d="M282.59,240.37V225.22h1.62v15.15Z" fill="#000008"/>
      <path d="M298.48,240.37l-8-12.15v12.15h-1.61V225.22h1.53l8,12.11V225.22H300v15.15Z" fill="#000008"/>
      <path d="M306.26,226.67v5.57h6.63v1.45h-6.63v6.68h-1.62V225.22H314v1.45Z" fill="#000008"/>
      <path d="M327.42,232.79c0,.81,0,1.52,0,2.12a10.83,10.83,0,0,1-.16,1.62,4.94,4.94,0,0,1-.43,1.28,4,4,0,0,1-.82,1.11,5.34,5.34,0,0,1-1.74,1.17,5.5,5.5,0,0,1-2.13.4,5.26,5.26,0,0,1-3.87-1.57,4.42,4.42,0,0,1-.82-1.11,4.93,4.93,0,0,1-.42-1.28,9.66,9.66,0,0,1-.16-1.62c0-.6,0-1.31,0-2.12s0-1.51,0-2.11a9.66,9.66,0,0,1,.16-1.62,4.93,4.93,0,0,1,.42-1.28,4.42,4.42,0,0,1,.82-1.11,5.55,5.55,0,0,1,7.74,0,4,4,0,0,1,.82,1.11,4.94,4.94,0,0,1,.43,1.28,10.83,10.83,0,0,1,.16,1.62C327.41,231.28,327.42,232,327.42,232.79Zm-1.62,0c0-.79,0-1.46,0-2a9.83,9.83,0,0,0-.14-1.4,3.39,3.39,0,0,0-.32-1,3.13,3.13,0,0,0-.57-.77,3.47,3.47,0,0,0-1.18-.8,3.7,3.7,0,0,0-2.87,0,3.38,3.38,0,0,0-1.18.8,3.46,3.46,0,0,0-.58.77,4.11,4.11,0,0,0-.32,1,10,10,0,0,0-.13,1.4c0,.54,0,1.21,0,2s0,1.47,0,2a10.15,10.15,0,0,0,.13,1.4,4.11,4.11,0,0,0,.32,1,3.46,3.46,0,0,0,.58.77,3.38,3.38,0,0,0,1.18.8,3.7,3.7,0,0,0,2.87,0,3.47,3.47,0,0,0,1.18-.8,3.13,3.13,0,0,0,.57-.77,3.39,3.39,0,0,0,.32-1,10,10,0,0,0,.14-1.4Q325.8,234,325.8,232.79Z" fill="#000008"/>
      <path d="M340.34,240.37l-3.45-6.72h-3.64v6.72h-1.61V225.22h5.8a5.5,5.5,0,0,1,1.81.29,4.14,4.14,0,0,1,1.43.83,3.73,3.73,0,0,1,.92,1.33,4.49,4.49,0,0,1,.33,1.76,4,4,0,0,1-.91,2.72,4.18,4.18,0,0,1-2.39,1.35l3.6,6.87Zm0-10.91a2.56,2.56,0,0,0-.84-2.1,3.31,3.31,0,0,0-2.18-.69h-4v5.55h4a3.36,3.36,0,0,0,2.18-.68A2.52,2.52,0,0,0,340.31,229.46Z" fill="#000008"/>
      <path d="M357.44,240.37V228.86L353.29,238h-1.38l-4.22-9.12v11.51h-1.61V225.22h1.61L352.63,236l4.81-10.74h1.61v15.15Z" fill="#000008"/>
      <path d="M373.22,240.37,372,236.94H365.4l-1.21,3.43h-1.73L368,225.22h1.36L375,240.37Zm-4.48-12.83-2.85,8h5.65Z" fill="#000008"/>
      <path d="M381.37,226.67v13.7h-1.62v-13.7h-4.38v-1.45h10.38v1.45Z" fill="#000008"/>
      <path d="M389.33,240.37V225.22H391v15.15Z" fill="#000008"/>
      <path d="M405,240.37l-4.61-8.06-3.19,3.82v4.24h-1.62V225.22h1.62v8.7l7.06-8.7h2l-4.77,5.85,5.45,9.3Z" fill="#000008"/>
    </g>
  </g>
</svg>
