<svg id="b46e40a9-3ea6-4a7e-9079-ebfb39c6d64d" data-name="Ebene 2" xmlns="http://www.w3.org/2000/svg" width="465" height="90" viewBox="0 0 465 90">
  <g>
    <g>
      <path d="M7.28,19.6V33.12H3V19.6H1.16V16.31H3V14.15a5.54,5.54,0,0,1,.3-1.81A4.48,4.48,0,0,1,5.73,9.63,5.43,5.43,0,0,1,8,9.2h2.46v3.65H8.77c-1,0-1.49.52-1.49,1.56v1.9h3.19V19.6Z"/>
      <path d="M12.26,33.12V29.83L19.94,19.7H12.7V15.81H25.46V19.1L17.68,29.24h7.78v3.88Z"/>
      <path d="M46,33.12V31.5a5.49,5.49,0,0,1-1.89,1.41,6.41,6.41,0,0,1-2.4.41,7,7,0,0,1-2.39-.41,5.11,5.11,0,0,1-1.86-1.15,4.23,4.23,0,0,1-1-1.49,8.55,8.55,0,0,1-.52-1.83,14.26,14.26,0,0,1-.2-2c0-.68,0-1.35,0-2s0-1.3,0-2a14.14,14.14,0,0,1,.2-2,8.15,8.15,0,0,1,.52-1.82,4.71,4.71,0,0,1,1-1.51A5.09,5.09,0,0,1,39.26,16,7.16,7.16,0,0,1,44,16a4.92,4.92,0,0,1,1.88,1.35V9.46h4.32V33.12Zm-.1-8.67a17,17,0,0,0-.1-2,4.69,4.69,0,0,0-.42-1.56,2.55,2.55,0,0,0-.89-1.05,2.84,2.84,0,0,0-1.55-.38,2.78,2.78,0,0,0-1.54.38,2.39,2.39,0,0,0-.88,1.05,5,5,0,0,0-.4,1.56,17,17,0,0,0-.1,2,17.47,17.47,0,0,0,.1,2,5.08,5.08,0,0,0,.4,1.58,2.36,2.36,0,0,0,.88,1,2.7,2.7,0,0,0,1.54.39,2.76,2.76,0,0,0,1.55-.39,2.52,2.52,0,0,0,.89-1,4.81,4.81,0,0,0,.42-1.58A17.47,17.47,0,0,0,45.86,24.45Z"/>
      <path d="M65.1,33.12l-4.25-7.21L59,28v5.15H54.7V9.46H59V22.89l5.75-7.08H70l-6.19,7,6.65,10.33Z"/>
      <path d="M93.08,33.12V22.66a3.85,3.85,0,0,0-.25-1.5,2.42,2.42,0,0,0-.66-1,2.55,2.55,0,0,0-.93-.53,3.07,3.07,0,0,0-1-.17,3,3,0,0,0-1,.17,2.82,2.82,0,0,0-.93.51,2.55,2.55,0,0,0-.68.95,3.44,3.44,0,0,0-.27,1.43V33.12H83V22.66a3.85,3.85,0,0,0-.25-1.5,2.42,2.42,0,0,0-.66-1,2.55,2.55,0,0,0-.93-.53,3.12,3.12,0,0,0-2,0,2.55,2.55,0,0,0-.93.53,2.68,2.68,0,0,0-.68,1,3.66,3.66,0,0,0-.27,1.5V33.12H72.94V15.81h4.22v1.6a6,6,0,0,1,2-1.33,6,6,0,0,1,2.32-.47,6.18,6.18,0,0,1,2.61.53,5.13,5.13,0,0,1,2,1.66,6.88,6.88,0,0,1,2.33-1.67,7.21,7.21,0,0,1,2.85-.52,7,7,0,0,1,2.41.4,4.9,4.9,0,0,1,1.85,1.13A6,6,0,0,1,97,19.42a8.26,8.26,0,0,1,.41,2.64V33.12Z"/>
      <path d="M101.66,12.85V9.33h4.42v3.52Zm.06,20.27V15.81H106V33.12Z"/>
    </g>
    <g>
      <path d="M121.83,18.29v6.06h7.23v1.58h-7.23V33.2h-1.76V16.71h10.24v1.58Z"/>
      <path d="M143.64,25c0,.88,0,1.65,0,2.31a11.3,11.3,0,0,1-.17,1.76,5.36,5.36,0,0,1-.47,1.4,4.44,4.44,0,0,1-.89,1.2,5.79,5.79,0,0,1-1.9,1.28,6.05,6.05,0,0,1-2.31.44,5.72,5.72,0,0,1-4.22-1.72,4.66,4.66,0,0,1-.89-1.2,5.35,5.35,0,0,1-.46-1.4,10.2,10.2,0,0,1-.17-1.76q0-1,0-2.31c0-.88,0-1.64,0-2.3a10.1,10.1,0,0,1,.17-1.76,5.35,5.35,0,0,1,.46-1.4,4.66,4.66,0,0,1,.89-1.2,6,6,0,0,1,8.43,0,4.44,4.44,0,0,1,.89,1.2,5.36,5.36,0,0,1,.47,1.4,11.18,11.18,0,0,1,.17,1.76C143.63,23.31,143.64,24.07,143.64,25Zm-1.76,0c0-.86,0-1.59,0-2.18a10,10,0,0,0-.15-1.52,4.15,4.15,0,0,0-.35-1.08,3.26,3.26,0,0,0-.62-.84,3.86,3.86,0,0,0-1.29-.87,4,4,0,0,0-1.56-.31,4.07,4.07,0,0,0-1.57.31,3.73,3.73,0,0,0-1.28.87,3.55,3.55,0,0,0-.63.84,3.81,3.81,0,0,0-.34,1.08,10,10,0,0,0-.15,1.52c0,.59,0,1.32,0,2.18s0,1.6,0,2.19a10,10,0,0,0,.15,1.52,3.92,3.92,0,0,0,.34,1.08,3.55,3.55,0,0,0,.63.84,3.73,3.73,0,0,0,1.28.87,4.07,4.07,0,0,0,1.57.31,4,4,0,0,0,1.56-.31,3.86,3.86,0,0,0,1.29-.87,3.26,3.26,0,0,0,.62-.84,4.28,4.28,0,0,0,.35-1.08,10,10,0,0,0,.15-1.52Q141.88,26.26,141.88,25Z"/>
      <path d="M157,33.2l-3.75-7.32h-4V33.2h-1.76V16.71h6.32a6.26,6.26,0,0,1,2,.31,4.35,4.35,0,0,1,1.55.91,3.89,3.89,0,0,1,1,1.44,5,5,0,0,1,.36,1.93,4.37,4.37,0,0,1-1,2.95,4.59,4.59,0,0,1-2.59,1.47L159,33.2Zm0-11.88A2.77,2.77,0,0,0,156,19a3.62,3.62,0,0,0-2.37-.75h-4.4v6h4.4a3.67,3.67,0,0,0,2.37-.74A2.75,2.75,0,0,0,156.93,21.32Z"/>
      <path d="M172.31,28.66a4.61,4.61,0,0,1-.41,2,4.2,4.2,0,0,1-1.15,1.47,5.42,5.42,0,0,1-1.81.92,7.76,7.76,0,0,1-2.33.33,8.82,8.82,0,0,1-3.17-.51A7.2,7.2,0,0,1,161,31.16l1.21-1.2a6,6,0,0,0,2.06,1.41,6.88,6.88,0,0,0,2.43.39,4.55,4.55,0,0,0,2.85-.8,2.68,2.68,0,0,0,1-2.25,3.45,3.45,0,0,0-.2-1.19,2.24,2.24,0,0,0-.59-.88,2.52,2.52,0,0,0-.82-.49,7.94,7.94,0,0,0-1.33-.29l-1.92-.3a6.13,6.13,0,0,1-3-1.25,3.92,3.92,0,0,1-1.25-3.08,4.93,4.93,0,0,1,.37-1.91,4,4,0,0,1,1.06-1.47,4.6,4.6,0,0,1,1.65-.94,6.56,6.56,0,0,1,2.2-.34,7.83,7.83,0,0,1,2.71.42,7.23,7.23,0,0,1,2.2,1.34l-1.13,1.14a5.46,5.46,0,0,0-1.65-1.06,5.82,5.82,0,0,0-2.2-.36,3.63,3.63,0,0,0-2.57.84,2.92,2.92,0,0,0-.9,2.24,2.45,2.45,0,0,0,.74,1.92,3.65,3.65,0,0,0,1,.56,7.34,7.34,0,0,0,1.24.35l1.81.28c.38.06.73.12,1,.19a4.73,4.73,0,0,1,.8.25,4.21,4.21,0,0,1,.64.31,3.43,3.43,0,0,1,.54.4A4.09,4.09,0,0,1,172.31,28.66Z"/>
      <path d="M186.55,28.43a6.93,6.93,0,0,1-.71,2.07A5.26,5.26,0,0,1,184.59,32a5.38,5.38,0,0,1-1.7,1,6.22,6.22,0,0,1-2.06.34,6,6,0,0,1-2.3-.44,5.73,5.73,0,0,1-1.91-1.28,4.49,4.49,0,0,1-.9-1.2,5.35,5.35,0,0,1-.46-1.4,10.2,10.2,0,0,1-.17-1.76q0-1,0-2.31c0-.88,0-1.64,0-2.3a10.1,10.1,0,0,1,.17-1.76,5.35,5.35,0,0,1,.46-1.4,4.49,4.49,0,0,1,.9-1.2A5.73,5.73,0,0,1,178.53,17a6,6,0,0,1,2.3-.44,6,6,0,0,1,2.06.34,5.38,5.38,0,0,1,1.7,1,5.26,5.26,0,0,1,1.25,1.54,6.93,6.93,0,0,1,.71,2.07h-1.81a4.29,4.29,0,0,0-1.34-2.43,3.75,3.75,0,0,0-2.57-.9,4.16,4.16,0,0,0-1.56.3,3.59,3.59,0,0,0-1.29.85,3.45,3.45,0,0,0-1,1.94,10.14,10.14,0,0,0-.15,1.53c0,.59,0,1.32,0,2.18s0,1.6,0,2.19a10.14,10.14,0,0,0,.15,1.53,3.49,3.49,0,0,0,.35,1.09,3.26,3.26,0,0,0,.62.84,3.61,3.61,0,0,0,1.29.86,4.16,4.16,0,0,0,1.56.3,3.82,3.82,0,0,0,2.59-.9,4.27,4.27,0,0,0,1.37-2.43Z"/>
      <path d="M199.72,33.2V25.67H191.9V33.2h-1.76V16.71h1.76V24.1h7.82V16.71h1.76V33.2Z"/>
      <path d="M217.23,27.76A5.89,5.89,0,0,1,216.8,30a5.25,5.25,0,0,1-1.21,1.78,5.35,5.35,0,0,1-1.83,1.14,6.66,6.66,0,0,1-4.6,0,5.31,5.31,0,0,1-1.82-1.14A5.2,5.2,0,0,1,206.15,30a5.71,5.71,0,0,1-.43-2.25v-11h1.76V27.62a4.87,4.87,0,0,0,.28,1.71,3.63,3.63,0,0,0,.79,1.3,3.73,3.73,0,0,0,1.27.83,4.63,4.63,0,0,0,3.28,0,3.73,3.73,0,0,0,1.27-.83,4,4,0,0,0,.81-1.3,4.87,4.87,0,0,0,.29-1.71V16.71h1.76Z"/>
      <path d="M232,33.2,223.22,20V33.2h-1.76V16.71h1.67l8.75,13.18V16.71h1.76V33.2Z"/>
      <path d="M249.06,27.18a7.93,7.93,0,0,1-.32,2.44,4.81,4.81,0,0,1-1.09,1.82,5.87,5.87,0,0,1-2,1.42,6.24,6.24,0,0,1-4.7,0A5.73,5.73,0,0,1,239,31.62a4.24,4.24,0,0,1-.89-1.2,5.36,5.36,0,0,1-.47-1.4,10.2,10.2,0,0,1-.17-1.76c0-.66,0-1.43,0-2.31s0-1.64,0-2.3a10.1,10.1,0,0,1,.17-1.76,5.36,5.36,0,0,1,.47-1.4,4.24,4.24,0,0,1,.89-1.2,5.69,5.69,0,0,1,4.21-1.72,6.29,6.29,0,0,1,2.17.36,5.3,5.3,0,0,1,1.72,1,5.48,5.48,0,0,1,1.22,1.56,7.17,7.17,0,0,1,.66,2h-1.76a4.34,4.34,0,0,0-1.4-2.46,3.88,3.88,0,0,0-2.61-.89,4,4,0,0,0-1.56.31,3.86,3.86,0,0,0-1.29.87,3.26,3.26,0,0,0-.62.84,3.81,3.81,0,0,0-.35,1.08,10,10,0,0,0-.15,1.52c0,.59,0,1.32,0,2.18s0,1.6,0,2.19a10.14,10.14,0,0,0,.15,1.53,3.77,3.77,0,0,0,.35,1.09,3.26,3.26,0,0,0,.62.84,3.7,3.7,0,0,0,1.29.86,4.16,4.16,0,0,0,1.56.3A4.29,4.29,0,0,0,245,31.4a3.89,3.89,0,0,0,1.4-1A3.6,3.6,0,0,0,247.1,29a6.34,6.34,0,0,0,.2-1.68V26.11h-4.05V24.56h5.81Z"/>
      <path d="M262.79,28.66a4.61,4.61,0,0,1-.4,2,4.23,4.23,0,0,1-1.16,1.47,5.24,5.24,0,0,1-1.81.92,7.7,7.7,0,0,1-2.32.33,8.78,8.78,0,0,1-3.17-.51,7.2,7.2,0,0,1-2.48-1.67l1.2-1.2a6.08,6.08,0,0,0,2.06,1.41,7,7,0,0,0,2.43.39A4.51,4.51,0,0,0,260,31a2.65,2.65,0,0,0,1-2.25,3.46,3.46,0,0,0-.19-1.19,2.24,2.24,0,0,0-.59-.88,2.56,2.56,0,0,0-.83-.49,7.49,7.49,0,0,0-1.33-.29l-1.92-.3a6.14,6.14,0,0,1-3-1.25,3.89,3.89,0,0,1-1.25-3.08,4.75,4.75,0,0,1,.37-1.91,4,4,0,0,1,1.05-1.47,4.73,4.73,0,0,1,1.66-.94,6.56,6.56,0,0,1,2.2-.34,7.83,7.83,0,0,1,2.71.42,7.35,7.35,0,0,1,2.2,1.34l-1.14,1.14a5.54,5.54,0,0,0-1.64-1.06,5.85,5.85,0,0,0-2.2-.36,3.63,3.63,0,0,0-2.57.84,2.93,2.93,0,0,0-.91,2.24,2.42,2.42,0,0,0,.75,1.92,3.65,3.65,0,0,0,1,.56,7.09,7.09,0,0,0,1.24.35l1.8.28c.39.06.73.12,1,.19a4.45,4.45,0,0,1,.8.25,3.71,3.71,0,0,1,1.18.71A4.06,4.06,0,0,1,262.79,28.66Z"/>
      <path d="M265.11,33.2V31.53l8.24-13.24h-7.92V16.71h9.91v1.48L267,31.62h8.31V33.2Z"/>
      <path d="M278.75,33.2V16.71H289v1.58h-8.47V24.1h7.22v1.57h-7.22v5.95H289V33.2Z"/>
      <path d="M302.85,33.2,294.1,20V33.2h-1.76V16.71H294l8.76,13.18V16.71h1.76V33.2Z"/>
      <path d="M313.82,18.29V33.2h-1.75V18.29h-4.78V16.71h11.3v1.58Z"/>
      <path d="M330.84,33.2l-3.75-7.32h-4V33.2h-1.76V16.71h6.32a6.21,6.21,0,0,1,2,.31,4.35,4.35,0,0,1,1.55.91,3.91,3.91,0,0,1,1,1.44,5,5,0,0,1,.36,1.93,4.32,4.32,0,0,1-1,2.95A4.52,4.52,0,0,1,329,25.72l3.91,7.48Zm0-11.88a2.8,2.8,0,0,0-.91-2.28,3.65,3.65,0,0,0-2.38-.75h-4.4v6h4.4a3.7,3.7,0,0,0,2.38-.74A2.78,2.78,0,0,0,330.82,21.32Z"/>
      <path d="M347.54,27.76a5.89,5.89,0,0,1-.43,2.25,5.25,5.25,0,0,1-1.21,1.78,5.4,5.4,0,0,1-1.82,1.14,6.68,6.68,0,0,1-4.61,0,5.31,5.31,0,0,1-1.82-1.14A5.2,5.2,0,0,1,336.46,30a5.71,5.71,0,0,1-.43-2.25v-11h1.76V27.62a4.87,4.87,0,0,0,.28,1.71,3.52,3.52,0,0,0,.8,1.3,3.6,3.6,0,0,0,1.26.83,4.32,4.32,0,0,0,1.64.3,4.4,4.4,0,0,0,1.65-.3,3.79,3.79,0,0,0,1.26-.83,4,4,0,0,0,.81-1.3,4.87,4.87,0,0,0,.29-1.71V16.71h1.76Z"/>
      <path d="M364.14,33.2V20.67l-4.52,9.93h-1.5l-4.59-9.93V33.2h-1.76V16.71h1.76l5.38,11.69,5.23-11.69h1.76V33.2Z"/>
      <path d="M131.51,52.55c0,.58,0,1.18,0,1.81a14.28,14.28,0,0,1-.15,1.86,7.3,7.3,0,0,1-.48,1.75,4.3,4.3,0,0,1-1,1.48,4.82,4.82,0,0,1-1.81,1.14,6.79,6.79,0,0,1-2.36.39h-5.65V44.5h5.65a6.79,6.79,0,0,1,2.36.39A4.93,4.93,0,0,1,129.89,46a4.62,4.62,0,0,1,1,1.43,6.56,6.56,0,0,1,.48,1.62,12.24,12.24,0,0,1,.15,1.74C131.51,51.4,131.51,52,131.51,52.55Zm-1.76,0c0-.51,0-1,0-1.51a11.07,11.07,0,0,0-.11-1.44,5.85,5.85,0,0,0-.32-1.28,3,3,0,0,0-.65-1,3.46,3.46,0,0,0-1.46-.94,5.59,5.59,0,0,0-1.78-.27h-3.59V59.41h3.59a5.59,5.59,0,0,0,1.78-.27,3.56,3.56,0,0,0,1.46-.94,2.92,2.92,0,0,0,.65-1.1,6.91,6.91,0,0,0,.32-1.41,13,13,0,0,0,.11-1.56C129.75,53.59,129.75,53.06,129.75,52.55Z"/>
      <path d="M135.31,61V44.5h1.76V61Z"/>
      <path d="M152.44,55a8.32,8.32,0,0,1-.32,2.45A4.77,4.77,0,0,1,151,59.22a5.86,5.86,0,0,1-2,1.43,6.22,6.22,0,0,1-2.4.47,6,6,0,0,1-2.3-.44,5.7,5.7,0,0,1-1.91-1.27,4.69,4.69,0,0,1-.9-1.21,5.61,5.61,0,0,1-.46-1.4,10,10,0,0,1-.17-1.76c0-.65,0-1.42,0-2.3s0-1.65,0-2.3a10,10,0,0,1,.17-1.76,5.61,5.61,0,0,1,.46-1.4,4.69,4.69,0,0,1,.9-1.21,5.72,5.72,0,0,1,4.21-1.71,6.2,6.2,0,0,1,2.16.36,5.25,5.25,0,0,1,1.73,1,5.67,5.67,0,0,1,1.22,1.56,6.65,6.65,0,0,1,.65,2h-1.75a4.38,4.38,0,0,0-1.41-2.47,3.91,3.91,0,0,0-2.6-.89,4,4,0,0,0-1.56.32,3.61,3.61,0,0,0-1.29.86,3.48,3.48,0,0,0-.62.85,3.81,3.81,0,0,0-.35,1.08,9.85,9.85,0,0,0-.15,1.51c0,.6,0,1.33,0,2.19s0,1.59,0,2.19a10.41,10.41,0,0,0,.15,1.53,3.81,3.81,0,0,0,.35,1.08,3.3,3.3,0,0,0,.62.85,3.61,3.61,0,0,0,1.29.86,4.16,4.16,0,0,0,1.56.3,4.21,4.21,0,0,0,1.72-.36,3.76,3.76,0,0,0,1.41-1.06,3.69,3.69,0,0,0,.71-1.3,5.93,5.93,0,0,0,.21-1.68V53.9h-4.05V52.35h5.81Z"/>
      <path d="M156.19,61V44.5H158V61Z"/>
      <path d="M167.21,46.07V61h-1.76V46.07h-4.77V44.5H172v1.57Z"/>
      <path d="M182.94,61l-1.32-3.73h-7.21L173.09,61h-1.87l6.07-16.48h1.48l6,16.48Zm-4.89-14L175,55.77h6.16Z"/>
      <path d="M187.13,61V44.5h1.76V59.41h8.42V61Z"/>
      <path d="M200.05,61V44.5h10.23v1.57h-8.47v5.81H209v1.58h-7.22v5.95h8.47V61Z"/>
      <path d="M229.27,61l-5-8.77-3.47,4.17V61H219V44.5h1.76V54l7.69-9.47h2.15l-5.19,6.36L231.35,61Z"/>
      <path d="M244.39,52.74c0,.88,0,1.65,0,2.3a10,10,0,0,1-.17,1.76,5.61,5.61,0,0,1-.46,1.4,4.69,4.69,0,0,1-.9,1.21,5.72,5.72,0,0,1-1.89,1.27,6.1,6.1,0,0,1-2.32.44,5.72,5.72,0,0,1-4.21-1.71,4.43,4.43,0,0,1-.89-1.21,5.24,5.24,0,0,1-.47-1.4,10,10,0,0,1-.17-1.76c0-.65,0-1.42,0-2.3s0-1.65,0-2.3a10,10,0,0,1,.17-1.76,5.24,5.24,0,0,1,.47-1.4,4.43,4.43,0,0,1,.89-1.21,6,6,0,0,1,8.42,0,4.69,4.69,0,0,1,.9,1.21,5.61,5.61,0,0,1,.46,1.4,10,10,0,0,1,.17,1.76C244.38,51.09,244.39,51.86,244.39,52.74Zm-1.76,0c0-.86,0-1.59,0-2.19a9.85,9.85,0,0,0-.15-1.51,3.81,3.81,0,0,0-.35-1.08,3.48,3.48,0,0,0-.62-.85,3.61,3.61,0,0,0-1.29-.86,4,4,0,0,0-3.12,0,3.7,3.7,0,0,0-1.29.86,3.48,3.48,0,0,0-.62.85A3.81,3.81,0,0,0,234.8,49a9.85,9.85,0,0,0-.15,1.51q0,.9,0,2.19t0,2.19a9.85,9.85,0,0,0,.15,1.51,3.81,3.81,0,0,0,.35,1.08,3.48,3.48,0,0,0,.62.85,3.7,3.7,0,0,0,1.29.86,4,4,0,0,0,3.12,0,3.61,3.61,0,0,0,1.29-.86,3.48,3.48,0,0,0,.62-.85,3.81,3.81,0,0,0,.35-1.08,9.85,9.85,0,0,0,.15-1.51C242.62,54.33,242.63,53.6,242.63,52.74Z"/>
      <path d="M260.55,61V48.46L256,58.39h-1.5l-4.59-9.93V61h-1.76V44.5h1.76l5.38,11.69,5.23-11.69h1.76V61Z"/>
      <path d="M279.09,61V48.46l-4.51,9.93h-1.51l-4.58-9.93V61h-1.76V44.5h1.76l5.37,11.69,5.23-11.69h1.76V61Z"/>
      <path d="M296.55,55.54a5.76,5.76,0,0,1-.43,2.26,5,5,0,0,1-1.2,1.77,5.57,5.57,0,0,1-1.83,1.15,6.84,6.84,0,0,1-4.61,0,5.29,5.29,0,0,1-1.81-1.15,5.23,5.23,0,0,1-1.2-1.77,6,6,0,0,1-.43-2.26v-11h1.76V55.4a5.13,5.13,0,0,0,.28,1.72,3.61,3.61,0,0,0,.8,1.29,3.67,3.67,0,0,0,1.26.84,4.4,4.4,0,0,0,1.65.3,4.32,4.32,0,0,0,1.64-.3,3.57,3.57,0,0,0,1.26-.84,3.63,3.63,0,0,0,.81-1.29,4.67,4.67,0,0,0,.29-1.72V44.5h1.76Z"/>
      <path d="M311.25,61,302.5,47.76V61h-1.76V44.5h1.67l8.75,13.17V44.5h1.76V61Z"/>
      <path d="M317.34,61V44.5h1.76V61Z"/>
      <path d="M333.78,61l-5-8.77-3.47,4.17V61h-1.76V44.5h1.76V54L333,44.5h2.16l-5.19,6.36L335.87,61Z"/>
      <path d="M347.84,61l-1.32-3.73h-7.2L338,61h-1.88l6.07-16.48h1.48l6,16.48ZM343,47l-3.1,8.75H346Z"/>
      <path d="M355.48,46.07V61h-1.76V46.07H349V44.5h11.3v1.57Z"/>
      <path d="M363,61V44.5h1.76V61Z"/>
      <path d="M380.07,52.74c0,.88,0,1.65,0,2.3a11,11,0,0,1-.18,1.76,5.23,5.23,0,0,1-.46,1.4,4.88,4.88,0,0,1-.89,1.21,5.87,5.87,0,0,1-1.9,1.27,6.07,6.07,0,0,1-2.32.44,5.73,5.73,0,0,1-4.21-1.71,4.64,4.64,0,0,1-.89-1.21,5.24,5.24,0,0,1-.47-1.4,11.06,11.06,0,0,1-.17-1.76c0-.65,0-1.42,0-2.3s0-1.65,0-2.3a11.06,11.06,0,0,1,.17-1.76,5.24,5.24,0,0,1,.47-1.4,4.64,4.64,0,0,1,.89-1.21,6,6,0,0,1,8.43,0,4.88,4.88,0,0,1,.89,1.21,5.23,5.23,0,0,1,.46,1.4,11,11,0,0,1,.18,1.76C380.06,51.09,380.07,51.86,380.07,52.74Zm-1.76,0c0-.86,0-1.59,0-2.19a9.85,9.85,0,0,0-.15-1.51,3.31,3.31,0,0,0-1-1.93,3.57,3.57,0,0,0-1.28-.86,4.08,4.08,0,0,0-1.57-.32,4,4,0,0,0-1.56.32,3.57,3.57,0,0,0-1.28.86,3.28,3.28,0,0,0-.63.85,4.15,4.15,0,0,0-.35,1.08,13.24,13.24,0,0,0-.15,1.51q0,.9,0,2.19t0,2.19a13.24,13.24,0,0,0,.15,1.51,4.15,4.15,0,0,0,.35,1.08,3.28,3.28,0,0,0,.63.85,3.57,3.57,0,0,0,1.28.86,4,4,0,0,0,1.56.32,4.08,4.08,0,0,0,1.57-.32,3.57,3.57,0,0,0,1.28-.86,3.31,3.31,0,0,0,1-1.93,9.85,9.85,0,0,0,.15-1.51C378.3,54.33,378.31,53.6,378.31,52.74Z"/>
      <path d="M394.38,61l-8.75-13.22V61h-1.76V44.5h1.66l8.76,13.17V44.5h1.76V61Z"/>
      <path d="M131.35,83.33a5.71,5.71,0,0,1-.43,2.25,5.38,5.38,0,0,1-1.2,1.78,5.55,5.55,0,0,1-1.83,1.14,6.68,6.68,0,0,1-4.61,0,5.4,5.4,0,0,1-1.82-1.14,5.2,5.2,0,0,1-1.19-1.78,5.71,5.71,0,0,1-.43-2.25v-11h1.76V83.19a4.87,4.87,0,0,0,.28,1.71,3.52,3.52,0,0,0,.8,1.3,3.69,3.69,0,0,0,1.26.83,4.32,4.32,0,0,0,1.64.3,4.37,4.37,0,0,0,1.65-.3,3.79,3.79,0,0,0,1.26-.83,3.67,3.67,0,0,0,.81-1.3,4.87,4.87,0,0,0,.29-1.71V72.28h1.76Z"/>
      <path d="M146.05,88.77,137.3,75.55V88.77h-1.76V72.28h1.67L146,85.46V72.28h1.76V88.77Z"/>
      <path d="M163.58,80.34c0,.57,0,1.17,0,1.81a14.28,14.28,0,0,1-.15,1.86,8,8,0,0,1-.48,1.75,4.4,4.4,0,0,1-1,1.48,5,5,0,0,1-1.81,1.13,6.6,6.6,0,0,1-2.36.4h-5.65V72.28h5.65a6.6,6.6,0,0,1,2.36.4A5,5,0,0,1,162,73.81a4.58,4.58,0,0,1,1,1.42,7,7,0,0,1,.48,1.62,12.5,12.5,0,0,1,.15,1.74C163.58,79.19,163.58,79.77,163.58,80.34Zm-1.76,0c0-.51,0-1,0-1.52a12.77,12.77,0,0,0-.11-1.43,5.8,5.8,0,0,0-.32-1.29,3.16,3.16,0,0,0-.65-1,3.56,3.56,0,0,0-1.46-.94,5.89,5.89,0,0,0-1.78-.26H153.9V87.19h3.59a5.89,5.89,0,0,0,1.78-.26,3.56,3.56,0,0,0,1.46-.94,3.06,3.06,0,0,0,.65-1.1,6.91,6.91,0,0,0,.32-1.41,15.68,15.68,0,0,0,.11-1.57C161.82,81.37,161.82,80.85,161.82,80.34Z"/>
      <path d="M185.16,88.77V76.24l-4.52,9.93h-1.5l-4.59-9.93V88.77h-1.76V72.28h1.76L179.93,84l5.23-11.69h1.76V88.77Z"/>
      <path d="M191.34,88.77V72.28h10.23v1.58H193.1v5.81h7.22v1.57H193.1v6h8.47v1.58Z"/>
      <path d="M216.32,80.34c0,.57,0,1.17,0,1.81a14.28,14.28,0,0,1-.15,1.86,7.93,7.93,0,0,1-.47,1.75,4.58,4.58,0,0,1-1,1.48,4.89,4.89,0,0,1-1.8,1.13,6.6,6.6,0,0,1-2.36.4h-5.65V72.28h5.65a6.6,6.6,0,0,1,2.36.4,4.89,4.89,0,0,1,1.8,1.13,4.8,4.8,0,0,1,1,1.42,7,7,0,0,1,.47,1.62,12.5,12.5,0,0,1,.15,1.74C216.32,79.19,216.32,79.77,216.32,80.34Zm-1.76,0c0-.51,0-1,0-1.52a12.84,12.84,0,0,0-.1-1.43,5.31,5.31,0,0,0-.33-1.29,3.14,3.14,0,0,0-.64-1,3.63,3.63,0,0,0-1.46-.94,6,6,0,0,0-1.79-.26h-3.58V87.19h3.58a6,6,0,0,0,1.79-.26,3.63,3.63,0,0,0,1.46-.94,3,3,0,0,0,.64-1.1,6.31,6.31,0,0,0,.33-1.41c.06-.5.09-1,.1-1.57S214.56,80.85,214.56,80.34Z"/>
      <path d="M220.12,88.77V72.28h1.76V88.77Z"/>
      <path d="M226.3,88.77V72.28h10.24v1.58h-8.48v5.81h7.23v1.57h-7.23v6h8.48v1.58Z"/>
      <path d="M250.36,88.77l-8.75-13.22V88.77h-1.76V72.28h1.66l8.76,13.18V72.28H252V88.77Z"/>
      <path d="M255.82,83.3V81.75h6.35V83.3Z"/>
      <path d="M266,88.77V72.28h1.76V88.77Z"/>
      <path d="M282.66,88.77l-8.75-13.22V88.77h-1.76V72.28h1.66l8.76,13.18V72.28h1.76V88.77Z"/>
      <path d="M299.26,88.77l-8.75-13.22V88.77h-1.76V72.28h1.67l8.75,13.18V72.28h1.76V88.77Z"/>
      <path d="M316.25,80.52c0,.88,0,1.65,0,2.31a10.2,10.2,0,0,1-.17,1.76,5.75,5.75,0,0,1-.46,1.4,4.49,4.49,0,0,1-.9,1.2,5.75,5.75,0,0,1-1.89,1.28,6.14,6.14,0,0,1-2.32.44,5.69,5.69,0,0,1-4.21-1.72,4.49,4.49,0,0,1-.9-1.2,5.75,5.75,0,0,1-.46-1.4,10.2,10.2,0,0,1-.17-1.76q0-1,0-2.31c0-.88,0-1.64,0-2.3a10.1,10.1,0,0,1,.17-1.76,5.75,5.75,0,0,1,.46-1.4,4.49,4.49,0,0,1,.9-1.2,6,6,0,0,1,8.42,0,4.49,4.49,0,0,1,.9,1.2,5.75,5.75,0,0,1,.46,1.4,10.1,10.1,0,0,1,.17,1.76C316.25,78.88,316.25,79.64,316.25,80.52Zm-1.75,0c0-.86,0-1.59,0-2.18a10,10,0,0,0-.15-1.52,3.81,3.81,0,0,0-.35-1.08,3.26,3.26,0,0,0-.62-.84,3.86,3.86,0,0,0-1.29-.87,4.08,4.08,0,0,0-3.12,0,3.77,3.77,0,0,0-1.29.87,3.26,3.26,0,0,0-.62.84,3.81,3.81,0,0,0-.35,1.08,10,10,0,0,0-.15,1.52c0,.59,0,1.32,0,2.18s0,1.6,0,2.19a10,10,0,0,0,.15,1.52,3.92,3.92,0,0,0,.35,1.08,3.26,3.26,0,0,0,.62.84,3.77,3.77,0,0,0,1.29.87,4.08,4.08,0,0,0,3.12,0,3.86,3.86,0,0,0,1.29-.87,3.26,3.26,0,0,0,.62-.84,3.92,3.92,0,0,0,.35-1.08,10,10,0,0,0,.15-1.52C314.48,82.12,314.5,81.39,314.5,80.52Z"/>
      <path d="M324.47,88.77H323l-5.42-16.49h1.85l4.29,13.34L328,72.28h1.85Z"/>
      <path d="M340.92,88.77,339.59,85h-7.2l-1.32,3.73H329.2l6.07-16.49h1.48l6,16.49Zm-4.89-14-3.1,8.75h6.16Z"/>
      <path d="M348.55,73.86V88.77H346.8V73.86H342V72.28h11.3v1.58Z"/>
      <path d="M356.06,88.77V72.28h1.76V88.77Z"/>
      <path d="M373.14,80.52c0,.88,0,1.65,0,2.31a10.2,10.2,0,0,1-.17,1.76,5.75,5.75,0,0,1-.46,1.4,4.49,4.49,0,0,1-.9,1.2,5.75,5.75,0,0,1-1.89,1.28,6.14,6.14,0,0,1-2.32.44,5.69,5.69,0,0,1-4.21-1.72,4.49,4.49,0,0,1-.9-1.2,5.75,5.75,0,0,1-.46-1.4,10.2,10.2,0,0,1-.17-1.76q0-1,0-2.31c0-.88,0-1.64,0-2.3a10.1,10.1,0,0,1,.17-1.76,5.75,5.75,0,0,1,.46-1.4,4.49,4.49,0,0,1,.9-1.2,6,6,0,0,1,8.42,0,4.49,4.49,0,0,1,.9,1.2,5.75,5.75,0,0,1,.46,1.4,10.1,10.1,0,0,1,.17,1.76C373.14,78.88,373.14,79.64,373.14,80.52Zm-1.75,0c0-.86,0-1.59,0-2.18a10,10,0,0,0-.15-1.52,3.81,3.81,0,0,0-.35-1.08,3.26,3.26,0,0,0-.62-.84,3.86,3.86,0,0,0-1.29-.87,4.08,4.08,0,0,0-3.12,0,3.77,3.77,0,0,0-1.29.87,3.26,3.26,0,0,0-.62.84,3.81,3.81,0,0,0-.35,1.08,10,10,0,0,0-.15,1.52c0,.59,0,1.32,0,2.18s0,1.6,0,2.19a10,10,0,0,0,.15,1.52,3.92,3.92,0,0,0,.35,1.08,3.26,3.26,0,0,0,.62.84,3.77,3.77,0,0,0,1.29.87,4.08,4.08,0,0,0,3.12,0,3.86,3.86,0,0,0,1.29-.87,3.26,3.26,0,0,0,.62-.84,3.92,3.92,0,0,0,.35-1.08,10,10,0,0,0,.15-1.52C371.37,82.12,371.39,81.39,371.39,80.52Z"/>
      <path d="M387.45,88.77,378.7,75.55V88.77h-1.76V72.28h1.67l8.75,13.18V72.28h1.76V88.77Z"/>
    </g>
  </g>
</svg>
