<svg id="be08c880-9af5-4fee-b262-d2a8274d4a99" data-name="Ebene 2" xmlns="http://www.w3.org/2000/svg" width="501" height="241" viewBox="0 0 501 241">
  <g>
    <g>
      <g>
        <path d="M43.94,50.88a1.51,1.51,0,1,1,1.5-1.52A1.51,1.51,0,0,1,43.94,50.88Z" fill="#d4762a"/>
        <path d="M50,50.88a1.51,1.51,0,1,1,1.5-1.52A1.51,1.51,0,0,1,50,50.88Z" fill="#d4762a"/>
        <path d="M56,50.88a1.51,1.51,0,1,1,1.5-1.52A1.51,1.51,0,0,1,56,50.88Z" fill="#d4762a"/>
        <path d="M62,50.88a1.51,1.51,0,1,1,1.5-1.52A1.51,1.51,0,0,1,62,50.88Z" fill="#d4762a"/>
        <path d="M68,50.88a1.51,1.51,0,1,1,1.5-1.52A1.51,1.51,0,0,1,68,50.88Z" fill="#d4762a"/>
      </g>
      <g>
        <path d="M37.92,55.12a1.51,1.51,0,1,1,1.5-1.51A1.51,1.51,0,0,1,37.92,55.12Z" fill="#d4762a"/>
        <path d="M43.94,55.12a1.51,1.51,0,1,1,1.5-1.51A1.5,1.5,0,0,1,43.94,55.12Z" fill="#d4762a"/>
        <path d="M50,55.12a1.51,1.51,0,1,1,1.5-1.51A1.5,1.5,0,0,1,50,55.12Z" fill="#d4762a"/>
        <path d="M56,55.12a1.51,1.51,0,1,1,1.5-1.51A1.5,1.5,0,0,1,56,55.12Z" fill="#d4762a"/>
        <path d="M62,55.12a1.51,1.51,0,1,1,1.5-1.51A1.5,1.5,0,0,1,62,55.12Z" fill="#d4762a"/>
        <path d="M68,55.12a1.51,1.51,0,1,1,1.5-1.51A1.5,1.5,0,0,1,68,55.12Z" fill="#d4762a"/>
      </g>
      <g>
        <path d="M62,59.37a1.51,1.51,0,1,1,1.5-1.52A1.5,1.5,0,0,1,62,59.37Z" fill="#d4762a"/>
        <path d="M68,59.37a1.51,1.51,0,1,1,1.5-1.52A1.5,1.5,0,0,1,68,59.37Z" fill="#d4762a"/>
        <path d="M86.08,59.37a1.51,1.51,0,1,1,1.5-1.52A1.5,1.5,0,0,1,86.08,59.37Z" fill="#d4762a"/>
      </g>
      <g>
        <path d="M62,63.62a1.51,1.51,0,1,1,1.5-1.52A1.51,1.51,0,0,1,62,63.62Z" fill="#d4762a"/>
        <path d="M68,63.62a1.51,1.51,0,1,1,1.5-1.52A1.51,1.51,0,0,1,68,63.62Z" fill="#d4762a"/>
        <path d="M80.06,63.62a1.51,1.51,0,1,1,1.5-1.52A1.51,1.51,0,0,1,80.06,63.62Z" fill="#d4762a"/>
        <path d="M86.08,63.62a1.51,1.51,0,1,1,1.5-1.52A1.51,1.51,0,0,1,86.08,63.62Z" fill="#d4762a"/>
      </g>
      <g>
        <path d="M62,67.86a1.51,1.51,0,1,1,1.5-1.51A1.5,1.5,0,0,1,62,67.86Z" fill="#d4762a"/>
        <path d="M68,67.86a1.51,1.51,0,1,1,1.5-1.51A1.5,1.5,0,0,1,68,67.86Z" fill="#d4762a"/>
        <path d="M80.06,67.86a1.51,1.51,0,1,1,1.5-1.51A1.5,1.5,0,0,1,80.06,67.86Z" fill="#d4762a"/>
        <path d="M86.08,67.86a1.51,1.51,0,1,1,1.5-1.51A1.5,1.5,0,0,1,86.08,67.86Z" fill="#d4762a"/>
        <path d="M104.14,67.86a1.51,1.51,0,1,1,1.5-1.51A1.5,1.5,0,0,1,104.14,67.86Z" fill="#d4762a"/>
      </g>
      <g>
        <path d="M62,72.11a1.51,1.51,0,1,1,1.5-1.52A1.5,1.5,0,0,1,62,72.11Z" fill="#d4762a"/>
        <path d="M68,72.11a1.51,1.51,0,1,1,1.5-1.52A1.5,1.5,0,0,1,68,72.11Z" fill="#d4762a"/>
        <path d="M80.06,72.11a1.51,1.51,0,1,1,1.5-1.52A1.5,1.5,0,0,1,80.06,72.11Z" fill="#d4762a"/>
        <path d="M86.08,72.11a1.51,1.51,0,1,1,1.5-1.52A1.5,1.5,0,0,1,86.08,72.11Z" fill="#d4762a"/>
        <path d="M98.12,72.11a1.51,1.51,0,1,1,1.5-1.52A1.5,1.5,0,0,1,98.12,72.11Z" fill="#d4762a"/>
        <path d="M104.14,72.11a1.51,1.51,0,1,1,1.5-1.52A1.5,1.5,0,0,1,104.14,72.11Z" fill="#d4762a"/>
      </g>
      <g>
        <path d="M25.88,76.36a1.51,1.51,0,1,1,1.5-1.52A1.51,1.51,0,0,1,25.88,76.36Z" fill="#d4762a"/>
        <path d="M31.9,76.36a1.51,1.51,0,1,1,1.5-1.52A1.51,1.51,0,0,1,31.9,76.36Z" fill="#d4762a"/>
        <path d="M37.92,76.36a1.51,1.51,0,1,1,1.5-1.52A1.51,1.51,0,0,1,37.92,76.36Z" fill="#d4762a"/>
        <path d="M43.94,76.36a1.51,1.51,0,1,1,1.5-1.52A1.5,1.5,0,0,1,43.94,76.36Z" fill="#d4762a"/>
        <path d="M50,76.36a1.51,1.51,0,1,1,1.5-1.52A1.5,1.5,0,0,1,50,76.36Z" fill="#d4762a"/>
        <path d="M62,76.36a1.51,1.51,0,1,1,1.5-1.52A1.5,1.5,0,0,1,62,76.36Z" fill="#d4762a"/>
        <path d="M68,76.36a1.51,1.51,0,1,1,1.5-1.52A1.5,1.5,0,0,1,68,76.36Z" fill="#d4762a"/>
        <path d="M80.06,76.36a1.51,1.51,0,1,1,1.5-1.52A1.5,1.5,0,0,1,80.06,76.36Z" fill="#d4762a"/>
        <path d="M86.08,76.36a1.51,1.51,0,1,1,1.5-1.52A1.5,1.5,0,0,1,86.08,76.36Z" fill="#d4762a"/>
        <path d="M98.12,76.36a1.51,1.51,0,1,1,1.5-1.52A1.5,1.5,0,0,1,98.12,76.36Z" fill="#d4762a"/>
        <path d="M104.14,76.36a1.51,1.51,0,1,1,1.5-1.52A1.5,1.5,0,0,1,104.14,76.36Z" fill="#d4762a"/>
      </g>
      <g>
        <path d="M19.87,80.61a1.51,1.51,0,1,1,0-3,1.51,1.51,0,0,1,0,3Z" fill="#d4762a"/>
        <path d="M25.88,80.61a1.51,1.51,0,1,1,0-3,1.51,1.51,0,0,1,0,3Z" fill="#d4762a"/>
        <path d="M31.9,80.61a1.51,1.51,0,1,1,0-3,1.51,1.51,0,0,1,0,3Z" fill="#d4762a"/>
        <path d="M37.92,80.61a1.51,1.51,0,1,1,0-3,1.51,1.51,0,0,1,0,3Z" fill="#d4762a"/>
        <path d="M43.94,80.61a1.51,1.51,0,1,1,1.5-1.52A1.51,1.51,0,0,1,43.94,80.61Z" fill="#d4762a"/>
        <path d="M50,80.61a1.51,1.51,0,1,1,1.5-1.52A1.51,1.51,0,0,1,50,80.61Z" fill="#d4762a"/>
        <path d="M62,80.61a1.51,1.51,0,1,1,1.5-1.52A1.51,1.51,0,0,1,62,80.61Z" fill="#d4762a"/>
        <path d="M68,80.61a1.51,1.51,0,1,1,1.5-1.52A1.51,1.51,0,0,1,68,80.61Z" fill="#d4762a"/>
        <path d="M80.06,80.61a1.51,1.51,0,1,1,1.5-1.52A1.51,1.51,0,0,1,80.06,80.61Z" fill="#d4762a"/>
        <path d="M86.08,80.61a1.51,1.51,0,1,1,1.5-1.52A1.51,1.51,0,0,1,86.08,80.61Z" fill="#d4762a"/>
        <path d="M98.12,80.61a1.51,1.51,0,1,1,1.5-1.52A1.51,1.51,0,0,1,98.12,80.61Z" fill="#d4762a"/>
        <path d="M104.14,80.61a1.51,1.51,0,1,1,1.5-1.52A1.51,1.51,0,0,1,104.14,80.61Z" fill="#d4762a"/>
      </g>
      <g>
        <path d="M43.94,84.85a1.51,1.51,0,1,1,1.5-1.51A1.5,1.5,0,0,1,43.94,84.85Z" fill="#d4762a"/>
        <path d="M50,84.85a1.51,1.51,0,1,1,1.5-1.51A1.5,1.5,0,0,1,50,84.85Z" fill="#d4762a"/>
        <path d="M62,84.85a1.51,1.51,0,1,1,1.5-1.51A1.5,1.5,0,0,1,62,84.85Z" fill="#d4762a"/>
        <path d="M68,84.85a1.51,1.51,0,1,1,1.5-1.51A1.5,1.5,0,0,1,68,84.85Z" fill="#d4762a"/>
        <path d="M80.06,84.85a1.51,1.51,0,1,1,1.5-1.51A1.5,1.5,0,0,1,80.06,84.85Z" fill="#d4762a"/>
        <path d="M86.08,84.85a1.51,1.51,0,1,1,1.5-1.51A1.5,1.5,0,0,1,86.08,84.85Z" fill="#d4762a"/>
        <path d="M98.12,84.85a1.51,1.51,0,1,1,1.5-1.51A1.5,1.5,0,0,1,98.12,84.85Z" fill="#d4762a"/>
        <path d="M104.14,84.85a1.51,1.51,0,1,1,1.5-1.51A1.5,1.5,0,0,1,104.14,84.85Z" fill="#d4762a"/>
      </g>
      <g>
        <path d="M43.94,89.1a1.51,1.51,0,1,1,1.5-1.52A1.5,1.5,0,0,1,43.94,89.1Z" fill="#d4762a"/>
        <path d="M50,89.1a1.51,1.51,0,1,1,1.5-1.52A1.5,1.5,0,0,1,50,89.1Z" fill="#d4762a"/>
        <path d="M62,89.1a1.51,1.51,0,1,1,1.5-1.52A1.5,1.5,0,0,1,62,89.1Z" fill="#d4762a"/>
        <path d="M68,89.1a1.51,1.51,0,1,1,1.5-1.52A1.5,1.5,0,0,1,68,89.1Z" fill="#d4762a"/>
        <path d="M80.06,89.1a1.51,1.51,0,1,1,1.5-1.52A1.5,1.5,0,0,1,80.06,89.1Z" fill="#d4762a"/>
        <path d="M86.08,89.1a1.51,1.51,0,1,1,1.5-1.52A1.5,1.5,0,0,1,86.08,89.1Z" fill="#d4762a"/>
        <path d="M98.12,89.1a1.51,1.51,0,1,1,1.5-1.52A1.5,1.5,0,0,1,98.12,89.1Z" fill="#d4762a"/>
        <path d="M104.14,89.1a1.51,1.51,0,1,1,1.5-1.52A1.5,1.5,0,0,1,104.14,89.1Z" fill="#d4762a"/>
      </g>
      <g>
        <path d="M43.94,93.35a1.51,1.51,0,1,1,1.5-1.52A1.5,1.5,0,0,1,43.94,93.35Z" fill="#d4762a"/>
        <path d="M50,93.35a1.51,1.51,0,1,1,1.5-1.52A1.5,1.5,0,0,1,50,93.35Z" fill="#d4762a"/>
        <path d="M62,93.35a1.51,1.51,0,1,1,1.5-1.52A1.5,1.5,0,0,1,62,93.35Z" fill="#d4762a"/>
        <path d="M68,93.35a1.51,1.51,0,1,1,1.5-1.52A1.5,1.5,0,0,1,68,93.35Z" fill="#d4762a"/>
        <path d="M80.06,93.35a1.51,1.51,0,1,1,1.5-1.52A1.5,1.5,0,0,1,80.06,93.35Z" fill="#d4762a"/>
        <path d="M86.08,93.35a1.51,1.51,0,1,1,1.5-1.52A1.5,1.5,0,0,1,86.08,93.35Z" fill="#d4762a"/>
        <path d="M98.12,93.35a1.51,1.51,0,1,1,1.5-1.52A1.5,1.5,0,0,1,98.12,93.35Z" fill="#d4762a"/>
        <path d="M104.14,93.35a1.51,1.51,0,1,1,1.5-1.52A1.5,1.5,0,0,1,104.14,93.35Z" fill="#d4762a"/>
      </g>
      <g>
        <path d="M43.94,97.6a1.51,1.51,0,1,1,1.5-1.52A1.51,1.51,0,0,1,43.94,97.6Z" fill="#d4762a"/>
        <path d="M50,97.6a1.51,1.51,0,1,1,1.5-1.52A1.51,1.51,0,0,1,50,97.6Z" fill="#d4762a"/>
        <path d="M62,97.6a1.51,1.51,0,1,1,1.5-1.52A1.51,1.51,0,0,1,62,97.6Z" fill="#d4762a"/>
        <path d="M68,97.6a1.51,1.51,0,1,1,1.5-1.52A1.51,1.51,0,0,1,68,97.6Z" fill="#d4762a"/>
        <path d="M80.06,97.6a1.51,1.51,0,1,1,1.5-1.52A1.51,1.51,0,0,1,80.06,97.6Z" fill="#d4762a"/>
        <path d="M86.08,97.6a1.51,1.51,0,1,1,1.5-1.52A1.51,1.51,0,0,1,86.08,97.6Z" fill="#d4762a"/>
        <path d="M98.12,97.6a1.51,1.51,0,1,1,1.5-1.52A1.51,1.51,0,0,1,98.12,97.6Z" fill="#d4762a"/>
        <path d="M104.14,97.6a1.51,1.51,0,1,1,1.5-1.52A1.51,1.51,0,0,1,104.14,97.6Z" fill="#d4762a"/>
      </g>
      <g>
        <path d="M43.94,101.85a1.51,1.51,0,1,1,1.5-1.52A1.51,1.51,0,0,1,43.94,101.85Z" fill="#d4762a"/>
        <path d="M50,101.85a1.51,1.51,0,1,1,1.5-1.52A1.51,1.51,0,0,1,50,101.85Z" fill="#d4762a"/>
        <path d="M62,101.85a1.51,1.51,0,1,1,1.5-1.52A1.51,1.51,0,0,1,62,101.85Z" fill="#d4762a"/>
        <path d="M68,101.85a1.51,1.51,0,1,1,1.5-1.52A1.51,1.51,0,0,1,68,101.85Z" fill="#d4762a"/>
        <path d="M80.06,101.85a1.51,1.51,0,1,1,1.5-1.52A1.51,1.51,0,0,1,80.06,101.85Z" fill="#d4762a"/>
        <path d="M86.08,101.85a1.51,1.51,0,1,1,1.5-1.52A1.51,1.51,0,0,1,86.08,101.85Z" fill="#d4762a"/>
        <path d="M98.12,101.85a1.51,1.51,0,1,1,1.5-1.52A1.51,1.51,0,0,1,98.12,101.85Z" fill="#d4762a"/>
        <path d="M104.14,101.85a1.51,1.51,0,1,1,1.5-1.52A1.51,1.51,0,0,1,104.14,101.85Z" fill="#d4762a"/>
      </g>
      <g>
        <path d="M43.94,106.09a1.51,1.51,0,1,1,1.5-1.51A1.5,1.5,0,0,1,43.94,106.09Z" fill="#d4762a"/>
        <path d="M50,106.09a1.51,1.51,0,1,1,1.5-1.51A1.5,1.5,0,0,1,50,106.09Z" fill="#d4762a"/>
        <path d="M62,106.09a1.51,1.51,0,1,1,1.5-1.51A1.5,1.5,0,0,1,62,106.09Z" fill="#d4762a"/>
        <path d="M68,106.09a1.51,1.51,0,1,1,1.5-1.51A1.5,1.5,0,0,1,68,106.09Z" fill="#d4762a"/>
        <path d="M80.06,106.09a1.51,1.51,0,1,1,1.5-1.51A1.5,1.5,0,0,1,80.06,106.09Z" fill="#d4762a"/>
        <path d="M86.08,106.09a1.51,1.51,0,1,1,1.5-1.51A1.5,1.5,0,0,1,86.08,106.09Z" fill="#d4762a"/>
        <path d="M98.12,106.09a1.51,1.51,0,1,1,1.5-1.51A1.5,1.5,0,0,1,98.12,106.09Z" fill="#d4762a"/>
        <path d="M104.14,106.09a1.51,1.51,0,1,1,1.5-1.51A1.5,1.5,0,0,1,104.14,106.09Z" fill="#d4762a"/>
      </g>
      <g>
        <path d="M7.83,110.34a1.51,1.51,0,1,1,0-3,1.51,1.51,0,0,1,0,3Z" fill="#d4762a"/>
        <path d="M13.85,110.34a1.51,1.51,0,1,1,0-3,1.51,1.51,0,0,1,0,3Z" fill="#d4762a"/>
        <path d="M19.87,110.34a1.51,1.51,0,1,1,0-3,1.51,1.51,0,0,1,0,3Z" fill="#d4762a"/>
        <path d="M25.88,110.34a1.51,1.51,0,1,1,1.5-1.52A1.51,1.51,0,0,1,25.88,110.34Z" fill="#d4762a"/>
        <path d="M31.9,110.34a1.51,1.51,0,1,1,1.5-1.52A1.51,1.51,0,0,1,31.9,110.34Z" fill="#d4762a"/>
        <path d="M43.94,110.34a1.51,1.51,0,1,1,1.5-1.52A1.5,1.5,0,0,1,43.94,110.34Z" fill="#d4762a"/>
        <path d="M50,110.34a1.51,1.51,0,1,1,1.5-1.52A1.5,1.5,0,0,1,50,110.34Z" fill="#d4762a"/>
        <path d="M62,110.34a1.51,1.51,0,1,1,1.5-1.52A1.5,1.5,0,0,1,62,110.34Z" fill="#d4762a"/>
        <path d="M68,110.34a1.51,1.51,0,1,1,1.5-1.52A1.5,1.5,0,0,1,68,110.34Z" fill="#d4762a"/>
        <path d="M80.06,110.34a1.51,1.51,0,1,1,1.5-1.52A1.5,1.5,0,0,1,80.06,110.34Z" fill="#d4762a"/>
        <path d="M86.08,110.34a1.51,1.51,0,1,1,1.5-1.52A1.5,1.5,0,0,1,86.08,110.34Z" fill="#d4762a"/>
        <path d="M98.12,110.34a1.51,1.51,0,1,1,1.5-1.52A1.5,1.5,0,0,1,98.12,110.34Z" fill="#d4762a"/>
        <path d="M104.14,110.34a1.51,1.51,0,1,1,1.5-1.52A1.5,1.5,0,0,1,104.14,110.34Z" fill="#d4762a"/>
      </g>
      <g>
        <path d="M1.81,114.59a1.51,1.51,0,1,1,0-3,1.51,1.51,0,0,1,0,3Z" fill="#d4762a"/>
        <path d="M7.83,114.59a1.51,1.51,0,1,1,0-3,1.51,1.51,0,0,1,0,3Z" fill="#d4762a"/>
        <path d="M13.85,114.59a1.51,1.51,0,1,1,0-3,1.51,1.51,0,0,1,0,3Z" fill="#d4762a"/>
        <path d="M19.87,114.59a1.51,1.51,0,1,1,0-3,1.51,1.51,0,0,1,0,3Z" fill="#d4762a"/>
        <path d="M25.88,114.59a1.51,1.51,0,1,1,0-3,1.51,1.51,0,0,1,0,3Z" fill="#d4762a"/>
        <path d="M31.9,114.59a1.51,1.51,0,1,1,0-3,1.51,1.51,0,0,1,0,3Z" fill="#d4762a"/>
        <path d="M43.94,114.59a1.51,1.51,0,1,1,1.5-1.52A1.51,1.51,0,0,1,43.94,114.59Z" fill="#d4762a"/>
        <path d="M50,114.59a1.51,1.51,0,1,1,1.5-1.52A1.51,1.51,0,0,1,50,114.59Z" fill="#d4762a"/>
        <path d="M62,114.59a1.51,1.51,0,1,1,1.5-1.52A1.51,1.51,0,0,1,62,114.59Z" fill="#d4762a"/>
        <path d="M68,114.59a1.51,1.51,0,1,1,1.5-1.52A1.51,1.51,0,0,1,68,114.59Z" fill="#d4762a"/>
        <path d="M80.06,114.59a1.51,1.51,0,1,1,1.5-1.52A1.51,1.51,0,0,1,80.06,114.59Z" fill="#d4762a"/>
        <path d="M86.08,114.59a1.51,1.51,0,1,1,1.5-1.52A1.51,1.51,0,0,1,86.08,114.59Z" fill="#d4762a"/>
        <path d="M98.12,114.59a1.51,1.51,0,1,1,1.5-1.52A1.51,1.51,0,0,1,98.12,114.59Z" fill="#d4762a"/>
      </g>
      <g>
        <path d="M25.88,118.84a1.51,1.51,0,1,1,0-3,1.51,1.51,0,0,1,0,3Z" fill="#d4762a"/>
        <path d="M31.9,118.84a1.51,1.51,0,1,1,0-3,1.51,1.51,0,0,1,0,3Z" fill="#d4762a"/>
        <path d="M43.94,118.84a1.51,1.51,0,1,1,1.5-1.52A1.51,1.51,0,0,1,43.94,118.84Z" fill="#d4762a"/>
        <path d="M50,118.84a1.51,1.51,0,1,1,1.5-1.52A1.51,1.51,0,0,1,50,118.84Z" fill="#d4762a"/>
        <path d="M62,118.84a1.51,1.51,0,1,1,1.5-1.52A1.51,1.51,0,0,1,62,118.84Z" fill="#d4762a"/>
        <path d="M68,118.84a1.51,1.51,0,1,1,1.5-1.52A1.51,1.51,0,0,1,68,118.84Z" fill="#d4762a"/>
        <path d="M80.06,118.84a1.51,1.51,0,1,1,1.5-1.52A1.51,1.51,0,0,1,80.06,118.84Z" fill="#d4762a"/>
        <path d="M86.08,118.84a1.51,1.51,0,1,1,1.5-1.52A1.51,1.51,0,0,1,86.08,118.84Z" fill="#d4762a"/>
        <path d="M98.12,118.84a1.51,1.51,0,1,1,1.5-1.52A1.51,1.51,0,0,1,98.12,118.84Z" fill="#d4762a"/>
      </g>
      <g>
        <path d="M25.88,123.08a1.51,1.51,0,1,1,1.5-1.51A1.51,1.51,0,0,1,25.88,123.08Z" fill="#d4762a"/>
        <path d="M31.9,123.08a1.51,1.51,0,1,1,1.5-1.51A1.51,1.51,0,0,1,31.9,123.08Z" fill="#d4762a"/>
        <path d="M43.94,123.08a1.51,1.51,0,1,1,1.5-1.51A1.5,1.5,0,0,1,43.94,123.08Z" fill="#d4762a"/>
        <path d="M50,123.08a1.51,1.51,0,1,1,1.5-1.51A1.5,1.5,0,0,1,50,123.08Z" fill="#d4762a"/>
        <path d="M62,123.08a1.51,1.51,0,1,1,1.5-1.51A1.5,1.5,0,0,1,62,123.08Z" fill="#d4762a"/>
        <path d="M68,123.08a1.51,1.51,0,1,1,1.5-1.51A1.5,1.5,0,0,1,68,123.08Z" fill="#d4762a"/>
        <path d="M80.06,123.08a1.51,1.51,0,1,1,1.5-1.51A1.5,1.5,0,0,1,80.06,123.08Z" fill="#d4762a"/>
        <path d="M86.08,123.08a1.51,1.51,0,1,1,1.5-1.51A1.5,1.5,0,0,1,86.08,123.08Z" fill="#d4762a"/>
      </g>
      <g>
        <path d="M25.88,127.33a1.51,1.51,0,1,1,1.5-1.52A1.51,1.51,0,0,1,25.88,127.33Z" fill="#d4762a"/>
        <path d="M31.9,127.33a1.51,1.51,0,1,1,1.5-1.52A1.51,1.51,0,0,1,31.9,127.33Z" fill="#d4762a"/>
        <path d="M43.94,127.33a1.51,1.51,0,1,1,1.5-1.52A1.5,1.5,0,0,1,43.94,127.33Z" fill="#d4762a"/>
        <path d="M50,127.33a1.51,1.51,0,1,1,1.5-1.52A1.5,1.5,0,0,1,50,127.33Z" fill="#d4762a"/>
        <path d="M62,127.33a1.51,1.51,0,1,1,1.5-1.52A1.5,1.5,0,0,1,62,127.33Z" fill="#d4762a"/>
        <path d="M68,127.33a1.51,1.51,0,1,1,1.5-1.52A1.5,1.5,0,0,1,68,127.33Z" fill="#d4762a"/>
        <path d="M80.06,127.33a1.51,1.51,0,1,1,1.5-1.52A1.5,1.5,0,0,1,80.06,127.33Z" fill="#d4762a"/>
        <path d="M86.08,127.33a1.51,1.51,0,1,1,1.5-1.52A1.5,1.5,0,0,1,86.08,127.33Z" fill="#d4762a"/>
      </g>
      <g>
        <path d="M25.88,131.58a1.51,1.51,0,1,1,0-3,1.51,1.51,0,0,1,0,3Z" fill="#d4762a"/>
        <path d="M31.9,131.58a1.51,1.51,0,1,1,0-3,1.51,1.51,0,0,1,0,3Z" fill="#d4762a"/>
        <path d="M43.94,131.58a1.51,1.51,0,1,1,1.5-1.52A1.51,1.51,0,0,1,43.94,131.58Z" fill="#d4762a"/>
        <path d="M50,131.58a1.51,1.51,0,1,1,1.5-1.52A1.51,1.51,0,0,1,50,131.58Z" fill="#d4762a"/>
        <path d="M62,131.58a1.51,1.51,0,1,1,1.5-1.52A1.51,1.51,0,0,1,62,131.58Z" fill="#d4762a"/>
        <path d="M68,131.58a1.51,1.51,0,1,1,1.5-1.52A1.51,1.51,0,0,1,68,131.58Z" fill="#d4762a"/>
        <path d="M80.06,131.58a1.51,1.51,0,1,1,1.5-1.52A1.51,1.51,0,0,1,80.06,131.58Z" fill="#d4762a"/>
        <path d="M86.08,131.58a1.51,1.51,0,1,1,1.5-1.52A1.51,1.51,0,0,1,86.08,131.58Z" fill="#d4762a"/>
      </g>
      <g>
        <path d="M25.88,135.83a1.51,1.51,0,1,1,0-3,1.51,1.51,0,0,1,0,3Z" fill="#d4762a"/>
        <path d="M31.9,135.83a1.51,1.51,0,1,1,0-3,1.51,1.51,0,0,1,0,3Z" fill="#d4762a"/>
        <path d="M43.94,135.83a1.51,1.51,0,1,1,1.5-1.52A1.51,1.51,0,0,1,43.94,135.83Z" fill="#d4762a"/>
        <path d="M50,135.83a1.51,1.51,0,1,1,1.5-1.52A1.51,1.51,0,0,1,50,135.83Z" fill="#d4762a"/>
        <path d="M62,135.83a1.51,1.51,0,1,1,1.5-1.52A1.51,1.51,0,0,1,62,135.83Z" fill="#d4762a"/>
        <path d="M68,135.83a1.51,1.51,0,1,1,1.5-1.52A1.51,1.51,0,0,1,68,135.83Z" fill="#d4762a"/>
        <path d="M80.06,135.83a1.51,1.51,0,1,1,1.5-1.52A1.51,1.51,0,0,1,80.06,135.83Z" fill="#d4762a"/>
      </g>
      <g>
        <path d="M25.88,140.08a1.51,1.51,0,1,1,1.5-1.52A1.52,1.52,0,0,1,25.88,140.08Z" fill="#d4762a"/>
        <path d="M31.9,140.08a1.51,1.51,0,1,1,1.5-1.52A1.52,1.52,0,0,1,31.9,140.08Z" fill="#d4762a"/>
        <path d="M43.94,140.08a1.51,1.51,0,1,1,1.5-1.52A1.51,1.51,0,0,1,43.94,140.08Z" fill="#d4762a"/>
        <path d="M50,140.08a1.51,1.51,0,1,1,1.5-1.52A1.51,1.51,0,0,1,50,140.08Z" fill="#d4762a"/>
        <path d="M62,140.08a1.51,1.51,0,1,1,1.5-1.52A1.51,1.51,0,0,1,62,140.08Z" fill="#d4762a"/>
        <path d="M68,140.08a1.51,1.51,0,1,1,1.5-1.52A1.51,1.51,0,0,1,68,140.08Z" fill="#d4762a"/>
        <path d="M80.06,140.08a1.51,1.51,0,1,1,1.5-1.52A1.51,1.51,0,0,1,80.06,140.08Z" fill="#d4762a"/>
      </g>
      <g>
        <path d="M25.88,144.32a1.51,1.51,0,1,1,1.5-1.51A1.51,1.51,0,0,1,25.88,144.32Z" fill="#d4762a"/>
        <path d="M31.9,144.32a1.51,1.51,0,1,1,1.5-1.51A1.51,1.51,0,0,1,31.9,144.32Z" fill="#d4762a"/>
        <path d="M43.94,144.32a1.51,1.51,0,1,1,1.5-1.51A1.5,1.5,0,0,1,43.94,144.32Z" fill="#d4762a"/>
        <path d="M50,144.32a1.51,1.51,0,1,1,1.5-1.51A1.5,1.5,0,0,1,50,144.32Z" fill="#d4762a"/>
        <path d="M62,144.32a1.51,1.51,0,1,1,1.5-1.51A1.5,1.5,0,0,1,62,144.32Z" fill="#d4762a"/>
        <path d="M68,144.32a1.51,1.51,0,1,1,1.5-1.51A1.5,1.5,0,0,1,68,144.32Z" fill="#d4762a"/>
      </g>
      <g>
        <path d="M25.88,148.57a1.51,1.51,0,1,1,0-3,1.51,1.51,0,0,1,0,3Z" fill="#d4762a"/>
        <path d="M31.9,148.57a1.51,1.51,0,1,1,0-3,1.51,1.51,0,0,1,0,3Z" fill="#d4762a"/>
        <path d="M43.94,148.57a1.51,1.51,0,1,1,1.5-1.52A1.51,1.51,0,0,1,43.94,148.57Z" fill="#d4762a"/>
        <path d="M50,148.57a1.51,1.51,0,1,1,1.5-1.52A1.51,1.51,0,0,1,50,148.57Z" fill="#d4762a"/>
        <path d="M62,148.57a1.51,1.51,0,1,1,1.5-1.52A1.51,1.51,0,0,1,62,148.57Z" fill="#d4762a"/>
        <path d="M68,148.57a1.51,1.51,0,1,1,1.5-1.52A1.51,1.51,0,0,1,68,148.57Z" fill="#d4762a"/>
      </g>
      <g>
        <path d="M25.88,152.82a1.51,1.51,0,1,1,0-3,1.51,1.51,0,0,1,0,3Z" fill="#d4762a"/>
        <path d="M31.9,152.82a1.51,1.51,0,1,1,0-3,1.51,1.51,0,0,1,0,3Z" fill="#d4762a"/>
        <path d="M43.94,152.82a1.51,1.51,0,1,1,1.5-1.52A1.51,1.51,0,0,1,43.94,152.82Z" fill="#d4762a"/>
        <path d="M50,152.82a1.51,1.51,0,1,1,1.5-1.52A1.51,1.51,0,0,1,50,152.82Z" fill="#d4762a"/>
        <path d="M62,152.82a1.51,1.51,0,1,1,1.5-1.52A1.51,1.51,0,0,1,62,152.82Z" fill="#d4762a"/>
        <path d="M68,152.82a1.51,1.51,0,1,1,1.5-1.52A1.51,1.51,0,0,1,68,152.82Z" fill="#d4762a"/>
      </g>
      <g>
        <path d="M25.88,157.06a1.51,1.51,0,1,1,1.5-1.51A1.51,1.51,0,0,1,25.88,157.06Z" fill="#d4762a"/>
        <path d="M31.9,157.06a1.51,1.51,0,1,1,1.5-1.51A1.51,1.51,0,0,1,31.9,157.06Z" fill="#d4762a"/>
        <path d="M43.94,157.06a1.51,1.51,0,1,1,1.5-1.51A1.5,1.5,0,0,1,43.94,157.06Z" fill="#d4762a"/>
        <path d="M50,157.06a1.51,1.51,0,1,1,1.5-1.51A1.5,1.5,0,0,1,50,157.06Z" fill="#d4762a"/>
        <path d="M62,157.06a1.51,1.51,0,1,1,1.5-1.51A1.5,1.5,0,0,1,62,157.06Z" fill="#d4762a"/>
      </g>
      <g>
        <path d="M25.88,161.31a1.51,1.51,0,1,1,1.5-1.52A1.51,1.51,0,0,1,25.88,161.31Z" fill="#d4762a"/>
        <path d="M31.9,161.31a1.51,1.51,0,1,1,1.5-1.52A1.51,1.51,0,0,1,31.9,161.31Z" fill="#d4762a"/>
        <path d="M43.94,161.31a1.51,1.51,0,1,1,1.5-1.52A1.5,1.5,0,0,1,43.94,161.31Z" fill="#d4762a"/>
        <path d="M50,161.31a1.51,1.51,0,1,1,1.5-1.52A1.5,1.5,0,0,1,50,161.31Z" fill="#d4762a"/>
        <path d="M62,161.31a1.51,1.51,0,1,1,1.5-1.52A1.5,1.5,0,0,1,62,161.31Z" fill="#d4762a"/>
      </g>
      <g>
        <path d="M25.88,165.56a1.51,1.51,0,1,1,1.5-1.52A1.51,1.51,0,0,1,25.88,165.56Z" fill="#d4762a"/>
        <path d="M31.9,165.56A1.51,1.51,0,1,1,33.4,164,1.51,1.51,0,0,1,31.9,165.56Z" fill="#d4762a"/>
        <path d="M43.94,165.56a1.51,1.51,0,1,1,1.5-1.52A1.5,1.5,0,0,1,43.94,165.56Z" fill="#d4762a"/>
        <path d="M50,165.56a1.51,1.51,0,1,1,1.5-1.52A1.5,1.5,0,0,1,50,165.56Z" fill="#d4762a"/>
      </g>
      <g>
        <path d="M25.88,169.81a1.51,1.51,0,1,1,0-3,1.51,1.51,0,0,1,0,3Z" fill="#d4762a"/>
        <path d="M31.9,169.81a1.51,1.51,0,1,1,0-3,1.51,1.51,0,0,1,0,3Z" fill="#d4762a"/>
        <path d="M43.94,169.81a1.51,1.51,0,1,1,1.5-1.52A1.51,1.51,0,0,1,43.94,169.81Z" fill="#d4762a"/>
        <path d="M50,169.81a1.51,1.51,0,1,1,1.5-1.52A1.51,1.51,0,0,1,50,169.81Z" fill="#d4762a"/>
      </g>
      <g>
        <path d="M25.88,174.06a1.51,1.51,0,1,1,0-3,1.51,1.51,0,0,1,0,3Z" fill="#d4762a"/>
        <path d="M31.9,174.06a1.51,1.51,0,1,1,0-3,1.51,1.51,0,0,1,0,3Z" fill="#d4762a"/>
        <path d="M43.94,174.06a1.51,1.51,0,1,1,1.5-1.52A1.51,1.51,0,0,1,43.94,174.06Z" fill="#d4762a"/>
        <path d="M50,174.06a1.51,1.51,0,1,1,1.5-1.52A1.51,1.51,0,0,1,50,174.06Z" fill="#d4762a"/>
      </g>
      <g>
        <path d="M25.88,178.3a1.51,1.51,0,1,1,1.5-1.52A1.51,1.51,0,0,1,25.88,178.3Z" fill="#d4762a"/>
        <path d="M31.9,178.3a1.51,1.51,0,1,1,1.5-1.52A1.51,1.51,0,0,1,31.9,178.3Z" fill="#d4762a"/>
        <path d="M43.94,178.3a1.51,1.51,0,1,1,1.5-1.52A1.5,1.5,0,0,1,43.94,178.3Z" fill="#d4762a"/>
      </g>
      <g>
        <path d="M25.88,182.55a1.51,1.51,0,1,1,1.5-1.52A1.51,1.51,0,0,1,25.88,182.55Z" fill="#d4762a"/>
        <path d="M31.9,182.55A1.51,1.51,0,1,1,33.4,181,1.51,1.51,0,0,1,31.9,182.55Z" fill="#d4762a"/>
        <path d="M43.94,182.55a1.51,1.51,0,1,1,1.5-1.52A1.5,1.5,0,0,1,43.94,182.55Z" fill="#d4762a"/>
      </g>
      <g>
        <path d="M25.88,186.8a1.51,1.51,0,1,1,0-3,1.51,1.51,0,0,1,0,3Z" fill="#d4762a"/>
        <path d="M31.9,186.8a1.51,1.51,0,1,1,0-3,1.51,1.51,0,0,1,0,3Z" fill="#d4762a"/>
      </g>
      <g>
        <path d="M25.88,191a1.51,1.51,0,1,1,1.5-1.51A1.51,1.51,0,0,1,25.88,191Z" fill="#d4762a"/>
        <path d="M31.9,191a1.51,1.51,0,1,1,1.5-1.51A1.51,1.51,0,0,1,31.9,191Z" fill="#d4762a"/>
      </g>
      <g>
        <path d="M25.88,195.29a1.51,1.51,0,1,1,1.5-1.51A1.51,1.51,0,0,1,25.88,195.29Z" fill="#d4762a"/>
        <path d="M31.9,195.29a1.51,1.51,0,1,1,1.5-1.51A1.51,1.51,0,0,1,31.9,195.29Z" fill="#d4762a"/>
      </g>
      <path d="M25.88,199.54a1.51,1.51,0,1,1,1.5-1.52A1.51,1.51,0,0,1,25.88,199.54Z" fill="#d4762a"/>
      <path d="M25.88,203.79a1.51,1.51,0,1,1,0-3,1.51,1.51,0,0,1,0,3Z" fill="#d4762a"/>
    </g>
    <g>
      <path d="M140.56,38.05V26.41a4.13,4.13,0,0,0-.27-1.59,3,3,0,0,0-.71-1,2.54,2.54,0,0,0-1-.57,4,4,0,0,0-1.12-.16,3.57,3.57,0,0,0-1.1.18,2.77,2.77,0,0,0-1,.57,2.71,2.71,0,0,0-.72,1,4.12,4.12,0,0,0-.27,1.57V38.05h-4.76V12h4.76v8.75a6.32,6.32,0,0,1,2.12-1.48,6.24,6.24,0,0,1,2.45-.5,7,7,0,0,1,2.77.52,5.46,5.46,0,0,1,2,1.44,6.12,6.12,0,0,1,1.21,2.22,9.16,9.16,0,0,1,.4,2.78V38.05Z" fill="#000008"/>
      <path d="M147.48,41.54V40.48h11.34v1.06Z" fill="#000008"/>
      <path d="M170.34,38.05V36.26a5.85,5.85,0,0,1-2.08,1.55,6.78,6.78,0,0,1-2.64.46,7.48,7.48,0,0,1-2.64-.46,5.43,5.43,0,0,1-2-1.26,4.6,4.6,0,0,1-1.12-1.65,9.32,9.32,0,0,1-.57-2A17.28,17.28,0,0,1,159,30.7c0-.76,0-1.49,0-2.2s0-1.43,0-2.18a17.31,17.31,0,0,1,.22-2.18,9.15,9.15,0,0,1,.57-2,5.17,5.17,0,0,1,1.12-1.67,5.65,5.65,0,0,1,2-1.26,7.5,7.5,0,0,1,2.61-.46,7.26,7.26,0,0,1,2.58.43,5.21,5.21,0,0,1,2.07,1.48V12H175V38.05Zm-.11-9.55a20.49,20.49,0,0,0-.11-2.16,5.1,5.1,0,0,0-.46-1.72,2.76,2.76,0,0,0-1-1.15,3.67,3.67,0,0,0-3.41,0,2.67,2.67,0,0,0-1,1.15,5.93,5.93,0,0,0-.44,1.72,20.49,20.49,0,0,0-.11,2.16,21,21,0,0,0,.11,2.18,6,6,0,0,0,.44,1.74,2.73,2.73,0,0,0,1,1.15,3.67,3.67,0,0,0,3.41,0,2.82,2.82,0,0,0,1-1.15,5.16,5.16,0,0,0,.46-1.74A21,21,0,0,0,170.23,28.5Z" fill="#000008"/>
      <path d="M189.37,38.05V36.4a6.36,6.36,0,0,1-2,1.4,7.08,7.08,0,0,1-2.69.43,6.59,6.59,0,0,1-4.87-1.68,5.52,5.52,0,0,1-1.17-1.9,6.83,6.83,0,0,1-.4-2.38,5.66,5.66,0,0,1,.4-2.14,4.83,4.83,0,0,1,1.21-1.76,5.83,5.83,0,0,1,2-1.19,8.57,8.57,0,0,1,2.87-.44h4.5v-.95a2.88,2.88,0,0,0-.82-2.29,4.2,4.2,0,0,0-2.73-.71,7.2,7.2,0,0,0-1.21.09,3.88,3.88,0,0,0-1.72.75,6.27,6.27,0,0,0-.73.73l-3-3a7.42,7.42,0,0,1,3-2.09,12.17,12.17,0,0,1,3.94-.55c2.68,0,4.7.57,6.07,1.69A6.13,6.13,0,0,1,194,25.5V38.05Zm-.11-8h-3.77a3,3,0,0,0-2,.57,1.93,1.93,0,0,0-.7,1.59,2,2,0,0,0,.68,1.59,3,3,0,0,0,2.07.61,8.11,8.11,0,0,0,1.68-.15,2.67,2.67,0,0,0,1.32-.77,3.3,3.3,0,0,0,.69-2.42Z" fill="#000008"/>
    </g>
    <g>
      <path d="M134.77,139.41V154.3H130V139.41h-2v-3.62h2v-2.38a6.17,6.17,0,0,1,.33-2,4.9,4.9,0,0,1,2.72-3,6,6,0,0,1,2.51-.48h2.71v4h-1.87c-1.1,0-1.64.57-1.64,1.72v2.09h3.51v3.62Z" fill="#000008"/>
      <path d="M140.25,154.3v-3.62l8.46-11.16h-8v-4.28h14.05v3.62L146.22,150h8.56v4.28Z" fill="#000008"/>
      <path d="M177.36,154.3v-1.79a5.92,5.92,0,0,1-2.08,1.56,6.94,6.94,0,0,1-2.64.45,7.69,7.69,0,0,1-2.63-.45,5.62,5.62,0,0,1-2-1.27,4.65,4.65,0,0,1-1.12-1.64,10.2,10.2,0,0,1-.56-2,14.13,14.13,0,0,1-.22-2.19c0-.76,0-1.49,0-2.2s0-1.43,0-2.18a14,14,0,0,1,.22-2.17,9.65,9.65,0,0,1,.56-2,5.12,5.12,0,0,1,1.12-1.66,5.62,5.62,0,0,1,2-1.27,7.55,7.55,0,0,1,2.62-.45,7.35,7.35,0,0,1,2.58.42,5.25,5.25,0,0,1,2.06,1.48v-8.67H182V154.3Zm-.11-9.55a20.63,20.63,0,0,0-.1-2.16,5.62,5.62,0,0,0-.46-1.72,2.71,2.71,0,0,0-1-1.15,3.65,3.65,0,0,0-3.4,0,2.6,2.6,0,0,0-1,1.15,5.62,5.62,0,0,0-.44,1.72,18.12,18.12,0,0,0-.11,2.16,18.58,18.58,0,0,0,.11,2.18,5.68,5.68,0,0,0,.44,1.74,2.6,2.6,0,0,0,1,1.15,3.65,3.65,0,0,0,3.4,0,2.71,2.71,0,0,0,1-1.15,5.67,5.67,0,0,0,.46-1.74A21.16,21.16,0,0,0,177.25,144.75Z" fill="#000008"/>
      <path d="M198.44,154.3l-4.68-7.94-2,2.27v5.67H187V128.25h4.76V143l6.33-7.79h5.74l-6.8,7.68,7.32,11.38Z" fill="#000008"/>
      <path d="M229.26,154.3V142.78a4.38,4.38,0,0,0-.27-1.65,2.88,2.88,0,0,0-.74-1.06,2.76,2.76,0,0,0-1-.59,3.69,3.69,0,0,0-1.12-.18,3.63,3.63,0,0,0-1.11.18,2.81,2.81,0,0,0-1.78,1.61,4,4,0,0,0-.29,1.58V154.3h-4.76V142.78a4.38,4.38,0,0,0-.27-1.65,2.88,2.88,0,0,0-.74-1.06,2.76,2.76,0,0,0-1-.59,3.54,3.54,0,0,0-2.23,0,2.88,2.88,0,0,0-1,.59,3.15,3.15,0,0,0-.75,1.06,4.17,4.17,0,0,0-.29,1.65V154.3h-4.76V135.24h4.65V137a6.79,6.79,0,0,1,4.76-2,6.75,6.75,0,0,1,2.87.58,5.66,5.66,0,0,1,2.18,1.83,7.63,7.63,0,0,1,2.56-1.85,8.24,8.24,0,0,1,3.15-.56,7.64,7.64,0,0,1,2.65.44,5.24,5.24,0,0,1,2,1.24,6.53,6.53,0,0,1,1.63,2.51,8.79,8.79,0,0,1,.46,2.91V154.3Z" fill="#000008"/>
      <path d="M238.7,132V128.1h4.87V132Zm.08,22.32V135.24h4.75V154.3Z" fill="#000008"/>
    </g>
    <g>
      <path d="M138.51,80.61V73.7h-7.19v6.91h-1.61V65.48h1.61v6.78h7.19V65.48h1.61V80.61Z" fill="#000008"/>
      <path d="M154.63,73c0,.81,0,1.52,0,2.12a9.42,9.42,0,0,1-.16,1.61,4.88,4.88,0,0,1-.42,1.29,4.31,4.31,0,0,1-.82,1.1,5.34,5.34,0,0,1-1.74,1.17,5.5,5.5,0,0,1-2.13.41,5.23,5.23,0,0,1-3.86-1.58,4.09,4.09,0,0,1-.82-1.1,4.89,4.89,0,0,1-.43-1.29,10.56,10.56,0,0,1-.16-1.61c0-.6,0-1.31,0-2.12s0-1.51,0-2.11a10.83,10.83,0,0,1,.16-1.62,4.94,4.94,0,0,1,.43-1.28,4.29,4.29,0,0,1,.82-1.11,5.54,5.54,0,0,1,7.73,0A4.53,4.53,0,0,1,154,68a4.93,4.93,0,0,1,.42,1.28,9.66,9.66,0,0,1,.16,1.62C154.63,71.53,154.63,72.24,154.63,73ZM153,73c0-.79,0-1.46,0-2a10,10,0,0,0-.14-1.4,3.52,3.52,0,0,0-.32-1,3,3,0,0,0-.57-.78,3.47,3.47,0,0,0-1.18-.8,3.82,3.82,0,0,0-2.87,0,3.38,3.38,0,0,0-1.18.8,3,3,0,0,0-.57.78,3.22,3.22,0,0,0-.32,1,10,10,0,0,0-.14,1.4c0,.54,0,1.21,0,2s0,1.47,0,2a9.68,9.68,0,0,0,.14,1.39,3.2,3.2,0,0,0,.32,1,3,3,0,0,0,.57.78,3.36,3.36,0,0,0,1.18.79,3.7,3.7,0,0,0,2.87,0,3.45,3.45,0,0,0,1.18-.79,3,3,0,0,0,.57-.78,3.49,3.49,0,0,0,.32-1,9.68,9.68,0,0,0,.14-1.39Q153,74.24,153,73Z" fill="#000008"/>
      <path d="M168.7,76.23a6.18,6.18,0,0,1-.65,1.9,4.82,4.82,0,0,1-1.14,1.42,5.38,5.38,0,0,1-1.57.88,5.76,5.76,0,0,1-1.89.31,5.51,5.51,0,0,1-2.11-.41,5.42,5.42,0,0,1-1.76-1.17,4.26,4.26,0,0,1-.81-1.1,4.89,4.89,0,0,1-.43-1.29,10.56,10.56,0,0,1-.16-1.61c0-.6,0-1.31,0-2.12s0-1.51,0-2.11a10.83,10.83,0,0,1,.16-1.62,4.94,4.94,0,0,1,.43-1.28,4.48,4.48,0,0,1,.81-1.11,5.24,5.24,0,0,1,1.76-1.16,5.76,5.76,0,0,1,4-.1,5.38,5.38,0,0,1,1.57.88A4.78,4.78,0,0,1,168.05,68a6.24,6.24,0,0,1,.65,1.91H167a4,4,0,0,0-1.23-2.24,3.43,3.43,0,0,0-2.36-.82,3.9,3.9,0,0,0-1.43.27,3.36,3.36,0,0,0-1.18.79,3.13,3.13,0,0,0-.57.77,3.36,3.36,0,0,0-.32,1,10.15,10.15,0,0,0-.14,1.41c0,.54,0,1.21,0,2s0,1.47,0,2a10,10,0,0,0,.14,1.4,3.27,3.27,0,0,0,.32,1,3,3,0,0,0,.57.78A3.2,3.2,0,0,0,162,79a3.72,3.72,0,0,0,1.43.28,3.52,3.52,0,0,0,2.38-.83,3.91,3.91,0,0,0,1.26-2.23Z" fill="#000008"/>
      <path d="M181,80.61V73.7H173.8v6.91h-1.61V65.48h1.61v6.78H181V65.48h1.62V80.61Z" fill="#000008"/>
      <path d="M196.3,76.44a4.17,4.17,0,0,1-.37,1.8,3.77,3.77,0,0,1-1.06,1.35,4.91,4.91,0,0,1-1.66.85,7.17,7.17,0,0,1-2.13.3,8.16,8.16,0,0,1-2.92-.47,6.6,6.6,0,0,1-2.27-1.53L187,77.63a5.31,5.31,0,0,0,1.89,1.3,6.28,6.28,0,0,0,2.23.36,4.19,4.19,0,0,0,2.61-.73,2.46,2.46,0,0,0,1-2.07,3.16,3.16,0,0,0-.18-1.09,2.06,2.06,0,0,0-.54-.81,2.42,2.42,0,0,0-.76-.45,8.08,8.08,0,0,0-1.22-.27l-1.76-.27a5.52,5.52,0,0,1-2.79-1.15,3.6,3.6,0,0,1-1.15-2.83,4.51,4.51,0,0,1,.34-1.75,3.77,3.77,0,0,1,1-1.35,4.6,4.6,0,0,1,1.52-.86,6.08,6.08,0,0,1,2-.31,7.41,7.41,0,0,1,2.49.38,6.57,6.57,0,0,1,2,1.24l-1,1a4.92,4.92,0,0,0-1.51-1,5.31,5.31,0,0,0-2-.33,3.35,3.35,0,0,0-2.36.77,2.66,2.66,0,0,0-.83,2.06,2.17,2.17,0,0,0,.68,1.75,3.23,3.23,0,0,0,.9.52,6,6,0,0,0,1.14.32l1.66.25c.35.06.67.12.94.19a4,4,0,0,1,.73.22,3.24,3.24,0,0,1,.59.29,2.94,2.94,0,0,1,.5.37A3.71,3.71,0,0,1,196.3,76.44Z" fill="#000008"/>
      <path d="M209.73,76.23a6.18,6.18,0,0,1-.65,1.9,4.82,4.82,0,0,1-1.14,1.42,5.2,5.2,0,0,1-1.56.88,5.87,5.87,0,0,1-1.9.31,5.51,5.51,0,0,1-2.11-.41,5.27,5.27,0,0,1-1.75-1.17,4.09,4.09,0,0,1-.82-1.1,5.28,5.28,0,0,1-.43-1.29,10.56,10.56,0,0,1-.16-1.61c0-.6,0-1.31,0-2.12s0-1.51,0-2.11a10.83,10.83,0,0,1,.16-1.62A5.35,5.35,0,0,1,199.8,68a4.29,4.29,0,0,1,.82-1.11,5.1,5.1,0,0,1,1.75-1.16,5.51,5.51,0,0,1,2.11-.41,5.61,5.61,0,0,1,1.9.31,5.2,5.2,0,0,1,1.56.88A4.78,4.78,0,0,1,209.08,68a6.24,6.24,0,0,1,.65,1.91h-1.66a3.93,3.93,0,0,0-1.23-2.24,3.43,3.43,0,0,0-2.36-.82,3.9,3.9,0,0,0-1.43.27,3.45,3.45,0,0,0-1.18.79,3.13,3.13,0,0,0-.57.77,3.36,3.36,0,0,0-.32,1,10.15,10.15,0,0,0-.14,1.41c0,.54,0,1.21,0,2s0,1.47,0,2a10,10,0,0,0,.14,1.4,3.27,3.27,0,0,0,.32,1,3,3,0,0,0,.57.78,3.29,3.29,0,0,0,1.18.78,3.72,3.72,0,0,0,1.43.28,3.5,3.5,0,0,0,2.38-.83,3.91,3.91,0,0,0,1.26-2.23Z" fill="#000008"/>
      <path d="M222.1,80.61V73.7h-7.18v6.91H213.3V65.48h1.62v6.78h7.18V65.48h1.61V80.61Z" fill="#000008"/>
      <path d="M238.57,75.61a5.21,5.21,0,0,1-.4,2.08,4.7,4.7,0,0,1-1.1,1.62,4.78,4.78,0,0,1-1.68,1,6.08,6.08,0,0,1-4.23,0,4.74,4.74,0,0,1-1.67-1,4.82,4.82,0,0,1-1.09-1.62,5.39,5.39,0,0,1-.39-2.08V65.48h1.61v10a4.57,4.57,0,0,0,.26,1.57,3.27,3.27,0,0,0,.73,1.19,3.21,3.21,0,0,0,1.16.76,3.83,3.83,0,0,0,1.51.28,3.9,3.9,0,0,0,1.51-.28,3.25,3.25,0,0,0,1.15-.76,3.45,3.45,0,0,0,.75-1.19,4.57,4.57,0,0,0,.26-1.57v-10h1.62Z" fill="#000008"/>
      <path d="M243,80.61V65.48h1.61V79.16h7.74v1.45Z" fill="#000008"/>
      <path d="M255.59,80.61V65.48H265v1.44H257.2v5.34h6.63V73.7H257.2v5.46H265v1.45Z" fill="#000008"/>
      <path d="M286.59,72.87c0,.53,0,1.08,0,1.66a12.07,12.07,0,0,1-.14,1.71,7.21,7.21,0,0,1-.43,1.61,4.12,4.12,0,0,1-.91,1.36,4.47,4.47,0,0,1-1.66,1,6.2,6.2,0,0,1-2.16.36h-5.19V65.48h5.19a6.2,6.2,0,0,1,2.16.36,4.47,4.47,0,0,1,1.66,1,4.24,4.24,0,0,1,.91,1.31,6.23,6.23,0,0,1,.43,1.49,10.22,10.22,0,0,1,.14,1.59C286.59,71.81,286.59,72.35,286.59,72.87Zm-1.62,0c0-.46,0-.93,0-1.39a11.1,11.1,0,0,0-.09-1.32,5.67,5.67,0,0,0-.3-1.18,3,3,0,0,0-.59-1,3.31,3.31,0,0,0-1.34-.86,5.32,5.32,0,0,0-1.64-.25h-3.29V79.16H281a5.33,5.33,0,0,0,1.64-.24,3.31,3.31,0,0,0,1.34-.86,2.87,2.87,0,0,0,.59-1,6.5,6.5,0,0,0,.3-1.3,13.22,13.22,0,0,0,.09-1.43C285,73.82,285,73.34,285,72.87Z" fill="#000008"/>
      <path d="M299.3,80.61l-1.21-3.42h-6.61l-1.21,3.42h-1.73l5.57-15.13h1.36L301,80.61Zm-4.49-12.82-2.84,8h5.65Z" fill="#000008"/>
      <path d="M312.64,80.61l-3.44-6.72h-3.64v6.72H304V65.48h5.8a5.33,5.33,0,0,1,1.81.29,4.07,4.07,0,0,1,1.42.82,3.8,3.8,0,0,1,.93,1.33,4.73,4.73,0,0,1,.32,1.77,4,4,0,0,1-.91,2.71,4.16,4.16,0,0,1-2.38,1.35l3.59,6.86Zm0-10.9a2.57,2.57,0,0,0-.84-2.1,3.33,3.33,0,0,0-2.18-.69h-4v5.55h4a3.38,3.38,0,0,0,2.18-.68A2.52,2.52,0,0,0,312.62,69.71Z" fill="#000008"/>
      <path d="M329.94,80.61V69.11l-4.15,9.12h-1.38l-4.2-9.12v11.5h-1.62V65.48h1.62l4.93,10.73,4.8-10.73h1.61V80.61Z" fill="#000008"/>
      <path d="M345.36,76.44a4.17,4.17,0,0,1-.37,1.8,3.77,3.77,0,0,1-1.06,1.35,4.91,4.91,0,0,1-1.66.85,7.12,7.12,0,0,1-2.13.3,8.07,8.07,0,0,1-2.91-.47A6.54,6.54,0,0,1,335,78.74l1.11-1.11a5.31,5.31,0,0,0,1.89,1.3,6.32,6.32,0,0,0,2.23.36,4.17,4.17,0,0,0,2.61-.73,2.46,2.46,0,0,0,1-2.07,3.16,3.16,0,0,0-.18-1.09,2.06,2.06,0,0,0-.54-.81,2.31,2.31,0,0,0-.76-.45,8.08,8.08,0,0,0-1.22-.27l-1.76-.27a5.56,5.56,0,0,1-2.79-1.15,3.6,3.6,0,0,1-1.14-2.83,4.34,4.34,0,0,1,.34-1.75,3.74,3.74,0,0,1,1-1.35,4.6,4.6,0,0,1,1.52-.86,6.08,6.08,0,0,1,2-.31,7.41,7.41,0,0,1,2.49.38,6.73,6.73,0,0,1,2,1.24l-1,1a5,5,0,0,0-1.5-1,5.4,5.4,0,0,0-2-.33,3.35,3.35,0,0,0-2.36.77,2.7,2.7,0,0,0-.83,2.06,2.2,2.2,0,0,0,.68,1.75,3.23,3.23,0,0,0,.9.52,6,6,0,0,0,1.14.32l1.66.25c.35.06.67.12.94.19a4.33,4.33,0,0,1,.74.22,3.49,3.49,0,0,1,.58.29,2.94,2.94,0,0,1,.5.37A3.71,3.71,0,0,1,345.36,76.44Z" fill="#000008"/>
      <path d="M353.1,66.92V80.61h-1.62V66.92h-4.37V65.48h10.37v1.44Z" fill="#000008"/>
      <path d="M368.78,80.61l-1.21-3.42H361l-1.21,3.42H358l5.57-15.13H365l5.54,15.13ZM364.3,67.79l-2.85,8h5.65Z" fill="#000008"/>
      <path d="M384,72.87c0,.53,0,1.08,0,1.66a13.76,13.76,0,0,1-.14,1.71,7.23,7.23,0,0,1-.44,1.61,3.94,3.94,0,0,1-.9,1.36,4.55,4.55,0,0,1-1.66,1,6.2,6.2,0,0,1-2.16.36h-5.19V65.48h5.19a6.2,6.2,0,0,1,2.16.36,4.55,4.55,0,0,1,1.66,1,4,4,0,0,1,.9,1.31,6.25,6.25,0,0,1,.44,1.49,11.61,11.61,0,0,1,.14,1.59C384,71.81,384,72.35,384,72.87Zm-1.62,0c0-.46,0-.93,0-1.39s0-.9-.09-1.32A5.67,5.67,0,0,0,382,69a2.84,2.84,0,0,0-.6-1,3.21,3.21,0,0,0-1.33-.86,5.37,5.37,0,0,0-1.64-.25h-3.29V79.16h3.29a5.37,5.37,0,0,0,1.64-.24,3.21,3.21,0,0,0,1.33-.86,2.74,2.74,0,0,0,.6-1,6.5,6.5,0,0,0,.3-1.3c.05-.46.08-.94.09-1.43S382.42,73.34,382.42,72.87Z" fill="#000008"/>
      <path d="M392.53,66.92V80.61h-1.62V66.92h-4.38V65.48H396.9v1.44Z" fill="#000008"/>
      <path d="M140.06,101.11a5.25,5.25,0,0,1-.4,2.08,4.7,4.7,0,0,1-1.1,1.62,5,5,0,0,1-1.68,1,6.23,6.23,0,0,1-4.23,0,4.88,4.88,0,0,1-1.67-1,4.82,4.82,0,0,1-1.09-1.62,5.43,5.43,0,0,1-.39-2.08V91h1.61v10a4.57,4.57,0,0,0,.26,1.57,3.27,3.27,0,0,0,.73,1.19,3.34,3.34,0,0,0,1.16.76,4.18,4.18,0,0,0,3,0,3.34,3.34,0,0,0,1.16-.76,3.45,3.45,0,0,0,.75-1.19,4.57,4.57,0,0,0,.26-1.57V91h1.62Z" fill="#000008"/>
      <path d="M153.87,106.11l-8-12.14v12.14h-1.62V91h1.53l8,12.09V91h1.62v15.13Z" fill="#000008"/>
      <path d="M160.24,106.11V91h1.62v15.13Z" fill="#000008"/>
      <path d="M171.53,106.11h-1.32l-5-15.13h1.7l3.93,12.24L174.8,91h1.7Z" fill="#000008"/>
      <path d="M179.79,106.11V91h9.39v1.44h-7.77v5.34H188V99.2h-6.63v5.46h7.77v1.45Z" fill="#000008"/>
      <path d="M201.3,106.11l-3.45-6.72h-3.63v6.72H192.6V91h5.81a5.48,5.48,0,0,1,1.8.28,4.3,4.3,0,0,1,1.43.83,3.82,3.82,0,0,1,.92,1.33,4.54,4.54,0,0,1,.33,1.77,4,4,0,0,1-.91,2.7,4.08,4.08,0,0,1-2.38,1.35l3.59,6.87Zm0-10.9a2.55,2.55,0,0,0-.83-2.1,3.33,3.33,0,0,0-2.18-.69h-4V98h4a3.38,3.38,0,0,0,2.18-.68A2.51,2.51,0,0,0,201.27,95.21Z" fill="#000008"/>
      <path d="M215.89,101.94a4.17,4.17,0,0,1-.37,1.8,3.77,3.77,0,0,1-1.06,1.35,4.91,4.91,0,0,1-1.66.85,7.13,7.13,0,0,1-2.13.29,8.08,8.08,0,0,1-2.91-.46,6.54,6.54,0,0,1-2.28-1.53l1.11-1.11a5.31,5.31,0,0,0,1.89,1.3,6.32,6.32,0,0,0,2.23.36,4.17,4.17,0,0,0,2.61-.73,2.46,2.46,0,0,0,1-2.08,3.14,3.14,0,0,0-.18-1.08,2.06,2.06,0,0,0-.54-.81,2.31,2.31,0,0,0-.76-.45,7,7,0,0,0-1.22-.27l-1.76-.27A5.65,5.65,0,0,1,207,98a3.6,3.6,0,0,1-1.14-2.83,4.34,4.34,0,0,1,.34-1.75,3.62,3.62,0,0,1,1-1.35,4.43,4.43,0,0,1,1.52-.86,6.08,6.08,0,0,1,2-.31,7.41,7.41,0,0,1,2.49.38,6.73,6.73,0,0,1,2,1.24l-1.05,1a5,5,0,0,0-1.5-1,5.4,5.4,0,0,0-2-.33,3.35,3.35,0,0,0-2.36.77,2.7,2.7,0,0,0-.83,2.06,2.22,2.22,0,0,0,.68,1.75,3.23,3.23,0,0,0,.9.52,6,6,0,0,0,1.14.32l1.66.25.94.18a5.42,5.42,0,0,1,.74.23,4.46,4.46,0,0,1,.58.28,3.66,3.66,0,0,1,.5.38A3.71,3.71,0,0,1,215.89,101.94Z" fill="#000008"/>
      <path d="M219.91,106.11V91h1.61v15.13Z" fill="#000008"/>
      <path d="M230.9,92.42v13.69h-1.62V92.42H224.9V91h10.37v1.44Z" fill="#000008"/>
      <path d="M243.47,99.86v6.25h-1.61V99.86L237.35,91h1.75l3.57,7.24L246.19,91h1.75Z" fill="#000008"/>
      <path d="M267,98.54c0,.81,0,1.52,0,2.12a8.51,8.51,0,0,1-.16,1.61,5,5,0,0,1-.42,1.29,4.09,4.09,0,0,1-.82,1.1,5.34,5.34,0,0,1-1.74,1.17,5.5,5.5,0,0,1-2.13.4,5.23,5.23,0,0,1-3.86-1.57,4.09,4.09,0,0,1-.82-1.1,5.43,5.43,0,0,1-.43-1.29,10.56,10.56,0,0,1-.16-1.61c0-.6,0-1.31,0-2.12s0-1.51,0-2.11a10.83,10.83,0,0,1,.16-1.62,5.35,5.35,0,0,1,.43-1.28,4.29,4.29,0,0,1,.82-1.11,5.54,5.54,0,0,1,7.73,0,4.29,4.29,0,0,1,.82,1.11,4.93,4.93,0,0,1,.42,1.28,8.71,8.71,0,0,1,.16,1.62C267,97,267,97.74,267,98.54Zm-1.62,0q0-1.19,0-2a10,10,0,0,0-.14-1.39,3.71,3.71,0,0,0-.32-1,3.13,3.13,0,0,0-.57-.77,3.47,3.47,0,0,0-1.18-.8,3.82,3.82,0,0,0-2.87,0,3.47,3.47,0,0,0-1.18.8,3.13,3.13,0,0,0-.57.77,3.39,3.39,0,0,0-.32,1,10,10,0,0,0-.14,1.39q0,.82,0,2t0,2a9.68,9.68,0,0,0,.14,1.39,3.29,3.29,0,0,0,.32,1,3,3,0,0,0,.57.78,3.45,3.45,0,0,0,1.18.79,3.7,3.7,0,0,0,2.87,0,3.45,3.45,0,0,0,1.18-.79,3,3,0,0,0,.57-.78,3.6,3.6,0,0,0,.32-1,9.68,9.68,0,0,0,.14-1.39Q265.34,99.74,265.34,98.54Z" fill="#000008"/>
      <path d="M272.48,92.42V98h6.63v1.45h-6.63v6.67h-1.62V91h9.4v1.44Z" fill="#000008"/>
      <path d="M297.68,106.11l-1.21-3.42h-6.61l-1.21,3.42h-1.72L292.5,91h1.36l5.54,15.13ZM293.2,93.29l-2.85,8H296Z" fill="#000008"/>
      <path d="M312.7,95.42a4.76,4.76,0,0,1-.34,1.85,3.82,3.82,0,0,1-.95,1.4,4.3,4.3,0,0,1-1.48.89,5.26,5.26,0,0,1-1.9.32h-4v6.23H302.4V91H308a5.49,5.49,0,0,1,1.9.31,4,4,0,0,1,2.43,2.29A4.71,4.71,0,0,1,312.7,95.42Zm-1.61,0a2.76,2.76,0,0,0-.89-2.25,3.5,3.5,0,0,0-2.32-.75H304v6h3.87a3.45,3.45,0,0,0,2.32-.76A2.8,2.8,0,0,0,311.09,95.42Z" fill="#000008"/>
      <path d="M326.51,95.42a5,5,0,0,1-.34,1.85,4,4,0,0,1-1,1.4,4.3,4.3,0,0,1-1.48.89,5.23,5.23,0,0,1-1.9.32h-4v6.23H316.2V91h5.63a5.45,5.45,0,0,1,1.9.31,4,4,0,0,1,1.48.89,4.16,4.16,0,0,1,1,1.4A4.9,4.9,0,0,1,326.51,95.42Zm-1.62,0a2.73,2.73,0,0,0-.89-2.25,3.48,3.48,0,0,0-2.32-.75h-3.86v6h3.86a3.43,3.43,0,0,0,2.32-.76A2.76,2.76,0,0,0,324.89,95.42Z" fill="#000008"/>
      <path d="M329.63,106.11V91h1.62v13.68H339v1.45Z" fill="#000008"/>
      <path d="M341.83,106.11V91h1.61v15.13Z" fill="#000008"/>
      <path d="M348.1,106.11V91h9.39v1.44h-7.78v5.34h6.63V99.2h-6.63v5.46h7.78v1.45Z" fill="#000008"/>
      <path d="M371.41,98.37c0,.53,0,1.08,0,1.66a13.76,13.76,0,0,1-.14,1.71,7.38,7.38,0,0,1-.44,1.61,4,4,0,0,1-.9,1.36,4.55,4.55,0,0,1-1.66,1,6.21,6.21,0,0,1-2.17.36h-5.18V91h5.18a6.21,6.21,0,0,1,2.17.36,4.55,4.55,0,0,1,1.66,1,4,4,0,0,1,.9,1.31,6.31,6.31,0,0,1,.44,1.48,11.9,11.9,0,0,1,.14,1.6C371.4,97.31,371.41,97.85,371.41,98.37Zm-1.62,0c0-.46,0-.93,0-1.39s0-.9-.09-1.32a5.67,5.67,0,0,0-.3-1.18,2.84,2.84,0,0,0-.6-1,3.18,3.18,0,0,0-1.34-.86,5,5,0,0,0-1.63-.25h-3.3v12.24h3.3a5.26,5.26,0,0,0,1.63-.24,3.18,3.18,0,0,0,1.34-.86,2.74,2.74,0,0,0,.6-1,6.67,6.67,0,0,0,.3-1.3c.05-.46.08-.94.09-1.43S369.79,98.84,369.79,98.37Z" fill="#000008"/>
      <path d="M391.49,101.94a4.17,4.17,0,0,1-.38,1.8,3.66,3.66,0,0,1-1.06,1.35,5,5,0,0,1-1.65.85,7.24,7.24,0,0,1-2.14.29,8.15,8.15,0,0,1-2.91-.46,6.54,6.54,0,0,1-2.28-1.53l1.11-1.11a5.31,5.31,0,0,0,1.89,1.3,6.32,6.32,0,0,0,2.23.36,4.2,4.2,0,0,0,2.62-.73,2.48,2.48,0,0,0,.95-2.08,3.14,3.14,0,0,0-.18-1.08,2.06,2.06,0,0,0-.54-.81,2.27,2.27,0,0,0-.75-.45,7.16,7.16,0,0,0-1.23-.27l-1.76-.27A5.61,5.61,0,0,1,382.63,98a3.57,3.57,0,0,1-1.15-2.83,4.34,4.34,0,0,1,.34-1.75,3.65,3.65,0,0,1,1-1.35,4.29,4.29,0,0,1,1.51-.86,6.08,6.08,0,0,1,2-.31,7.33,7.33,0,0,1,2.49.38,6.61,6.61,0,0,1,2,1.24l-1,1a5,5,0,0,0-1.51-1,5.37,5.37,0,0,0-2-.33,3.35,3.35,0,0,0-2.36.77,2.7,2.7,0,0,0-.83,2.06,2.22,2.22,0,0,0,.68,1.75,3.15,3.15,0,0,0,.91.52,6.1,6.1,0,0,0,1.13.32l1.66.25.95.18a5.26,5.26,0,0,1,.73.23,3.91,3.91,0,0,1,.58.28,3.14,3.14,0,0,1,.5.38A3.72,3.72,0,0,1,391.49,101.94Z" fill="#000008"/>
      <path d="M404.64,101.73a6.18,6.18,0,0,1-.65,1.9,4.68,4.68,0,0,1-1.15,1.41,5,5,0,0,1-1.56.89,5.76,5.76,0,0,1-1.89.3,5.5,5.5,0,0,1-2.11-.4,5.32,5.32,0,0,1-1.76-1.17,4.26,4.26,0,0,1-.81-1.1,4.66,4.66,0,0,1-.43-1.29,10.56,10.56,0,0,1-.16-1.61c0-.6,0-1.31,0-2.12s0-1.51,0-2.11a10.83,10.83,0,0,1,.16-1.62,4.59,4.59,0,0,1,.43-1.28,4.48,4.48,0,0,1,.81-1.11,5.32,5.32,0,0,1,1.76-1.17,5.7,5.7,0,0,1,2.11-.4,5.51,5.51,0,0,1,1.89.31,5,5,0,0,1,1.56.88A4.68,4.68,0,0,1,404,93.45a6.24,6.24,0,0,1,.65,1.91H403a4,4,0,0,0-1.23-2.24,3.43,3.43,0,0,0-2.36-.82,3.9,3.9,0,0,0-1.43.27,3.36,3.36,0,0,0-1.18.79,3.46,3.46,0,0,0-.58.77,3.68,3.68,0,0,0-.31,1,8.8,8.8,0,0,0-.14,1.4q0,.82,0,2t0,2a8.68,8.68,0,0,0,.14,1.4,3.57,3.57,0,0,0,.31,1,3.29,3.29,0,0,0,.58.78,3.2,3.2,0,0,0,1.18.78,3.72,3.72,0,0,0,1.43.28,3.52,3.52,0,0,0,2.38-.83,3.84,3.84,0,0,0,1.25-2.23Z" fill="#000008"/>
      <path d="M408.53,106.11V91h1.61v15.13Z" fill="#000008"/>
      <path d="M414.88,106.11V91h9.39v1.44H416.5v5.34h6.63V99.2H416.5v5.46h7.77v1.45Z" fill="#000008"/>
      <path d="M437.47,106.11l-8-12.14v12.14h-1.62V91h1.53l8,12.09V91H439v15.13Z" fill="#000008"/>
      <path d="M453,101.73a6.18,6.18,0,0,1-.65,1.9,4.66,4.66,0,0,1-1.14,1.41,5.07,5.07,0,0,1-1.57.89,5.76,5.76,0,0,1-1.89.3,5.5,5.5,0,0,1-2.11-.4,5.27,5.27,0,0,1-1.75-1.17,4.09,4.09,0,0,1-.82-1.1,5,5,0,0,1-.43-1.29,10.56,10.56,0,0,1-.16-1.61c0-.6,0-1.31,0-2.12s0-1.51,0-2.11a10.83,10.83,0,0,1,.16-1.62,4.94,4.94,0,0,1,.43-1.28,4.29,4.29,0,0,1,.82-1.11,5.27,5.27,0,0,1,1.75-1.17,5.7,5.7,0,0,1,2.11-.4,5.51,5.51,0,0,1,1.89.31,5,5,0,0,1,1.57.88,4.66,4.66,0,0,1,1.14,1.41,6.24,6.24,0,0,1,.65,1.91h-1.66a4,4,0,0,0-1.23-2.24,3.43,3.43,0,0,0-2.36-.82,3.9,3.9,0,0,0-1.43.27,3.36,3.36,0,0,0-1.18.79,3.13,3.13,0,0,0-.57.77,3.36,3.36,0,0,0-.32,1,10.15,10.15,0,0,0-.14,1.4q0,.82,0,2t0,2a10,10,0,0,0,.14,1.4,3.27,3.27,0,0,0,.32,1,3,3,0,0,0,.57.78,3.2,3.2,0,0,0,1.18.78,3.72,3.72,0,0,0,1.43.28,3.5,3.5,0,0,0,2.38-.83,3.91,3.91,0,0,0,1.26-2.23Z" fill="#000008"/>
      <path d="M456.49,106.11V91h9.39v1.44H458.1v5.34h6.63V99.2H458.1v5.46h7.78v1.45Z" fill="#000008"/>
      <path d="M478.67,101.94a4.17,4.17,0,0,1-.37,1.8,3.77,3.77,0,0,1-1.06,1.35,5,5,0,0,1-1.66.85,7.24,7.24,0,0,1-2.14.29,8.15,8.15,0,0,1-2.91-.46,6.6,6.6,0,0,1-2.27-1.53l1.1-1.11a5.43,5.43,0,0,0,1.9,1.3,6.28,6.28,0,0,0,2.23.36,4.19,4.19,0,0,0,2.61-.73,2.46,2.46,0,0,0,1-2.08,3.14,3.14,0,0,0-.18-1.08,2.08,2.08,0,0,0-.55-.81,2.27,2.27,0,0,0-.75-.45,7,7,0,0,0-1.22-.27l-1.77-.27A5.61,5.61,0,0,1,469.81,98a3.6,3.6,0,0,1-1.15-2.83,4.51,4.51,0,0,1,.34-1.75A3.77,3.77,0,0,1,470,92a4.34,4.34,0,0,1,1.52-.86,6,6,0,0,1,2-.31,7.31,7.31,0,0,1,2.48.38,6.5,6.5,0,0,1,2,1.24l-1,1a5,5,0,0,0-1.51-1,5.37,5.37,0,0,0-2-.33,3.33,3.33,0,0,0-2.35.77,2.66,2.66,0,0,0-.83,2.06,2.18,2.18,0,0,0,.68,1.75,3.23,3.23,0,0,0,.9.52,6,6,0,0,0,1.14.32l1.65.25.95.18a4.86,4.86,0,0,1,.73.23,4.6,4.6,0,0,1,.59.28,4.4,4.4,0,0,1,.5.38A3.71,3.71,0,0,1,478.67,101.94Z" fill="#000008"/>
    </g>
    <g>
      <path d="M131.32,169.18v5.57H138v1.44h-6.63v6.67h-1.61V167.74h9.39v1.44Z" fill="#000008"/>
      <path d="M152.47,175.3c0,.81,0,1.51,0,2.11a10.7,10.7,0,0,1-.16,1.62,5.35,5.35,0,0,1-.43,1.28,4,4,0,0,1-.82,1.11,5.34,5.34,0,0,1-1.74,1.17,5.48,5.48,0,0,1-2.12.4,5.26,5.26,0,0,1-3.87-1.57,4,4,0,0,1-.82-1.11,5.35,5.35,0,0,1-.43-1.28,9.61,9.61,0,0,1-.15-1.62c0-.6,0-1.3,0-2.11s0-1.51,0-2.11a9.51,9.51,0,0,1,.15-1.62,5.35,5.35,0,0,1,.43-1.28,4,4,0,0,1,.82-1.11,5.54,5.54,0,0,1,7.73,0,4,4,0,0,1,.82,1.11,5.35,5.35,0,0,1,.43,1.28,10.57,10.57,0,0,1,.16,1.62C152.46,173.79,152.47,174.49,152.47,175.3Zm-1.62,0q0-1.19,0-2a9.83,9.83,0,0,0-.14-1.39,3.71,3.71,0,0,0-.32-1,3.13,3.13,0,0,0-.57-.77,3.47,3.47,0,0,0-1.18-.8,3.7,3.7,0,0,0-2.87,0,3.47,3.47,0,0,0-1.18.8,3.13,3.13,0,0,0-.57.77,3.71,3.71,0,0,0-.32,1,9.83,9.83,0,0,0-.14,1.39q0,.83,0,2t0,2a9.83,9.83,0,0,0,.14,1.39,3.71,3.71,0,0,0,.32,1,3.13,3.13,0,0,0,.57.77,3.47,3.47,0,0,0,1.18.8,3.7,3.7,0,0,0,2.87,0,3.47,3.47,0,0,0,1.18-.8,3.13,3.13,0,0,0,.57-.77,3.71,3.71,0,0,0,.32-1,9.83,9.83,0,0,0,.14-1.39Q150.85,176.49,150.85,175.3Z" fill="#000008"/>
      <path d="M165.37,182.86l-3.44-6.71h-3.64v6.71h-1.61V167.74h5.8a5.58,5.58,0,0,1,1.81.28,4.09,4.09,0,0,1,1.42.83,3.71,3.71,0,0,1,.93,1.33,4.68,4.68,0,0,1,.32,1.76,4,4,0,0,1-.91,2.71,4.16,4.16,0,0,1-2.38,1.35l3.59,6.86Zm0-10.9a2.55,2.55,0,0,0-.84-2.09,3.33,3.33,0,0,0-2.18-.69h-4v5.55h4a3.38,3.38,0,0,0,2.18-.68A2.54,2.54,0,0,0,165.35,172Z" fill="#000008"/>
      <path d="M180.53,178.7a4.2,4.2,0,0,1-.38,1.8,3.55,3.55,0,0,1-1.06,1.34,4.74,4.74,0,0,1-1.66.85,7.12,7.12,0,0,1-2.13.3,7.89,7.89,0,0,1-2.91-.47,6.54,6.54,0,0,1-2.28-1.53l1.11-1.1a5.45,5.45,0,0,0,1.89,1.3,6.32,6.32,0,0,0,2.23.36,4.15,4.15,0,0,0,2.61-.74,2.44,2.44,0,0,0,1-2.07,3.1,3.1,0,0,0-.18-1.08,1.93,1.93,0,0,0-.54-.81,2.42,2.42,0,0,0-.76-.46,7.19,7.19,0,0,0-1.22-.26l-1.76-.28a5.57,5.57,0,0,1-2.78-1.14,3.6,3.6,0,0,1-1.15-2.83,4.34,4.34,0,0,1,.34-1.75,3.58,3.58,0,0,1,1-1.35,4.43,4.43,0,0,1,1.52-.86,6.08,6.08,0,0,1,2-.31,7.37,7.37,0,0,1,2.49.38,6.77,6.77,0,0,1,2,1.23l-1,1a5.21,5.21,0,0,0-1.51-1,5.37,5.37,0,0,0-2-.33,3.31,3.31,0,0,0-2.36.77,2.67,2.67,0,0,0-.83,2,2.22,2.22,0,0,0,.68,1.76,3.21,3.21,0,0,0,.9.51,6.23,6.23,0,0,0,1.14.33l1.66.25.94.18a7.43,7.43,0,0,1,.74.22,6.27,6.27,0,0,1,.58.29,3.59,3.59,0,0,1,.5.37A3.74,3.74,0,0,1,180.53,178.7Z" fill="#000008"/>
      <path d="M194.62,178.49a6.45,6.45,0,0,1-.65,1.9,4.68,4.68,0,0,1-1.15,1.41,5,5,0,0,1-1.56.88,5.86,5.86,0,0,1-4-.09,5.38,5.38,0,0,1-1.75-1.17,4.42,4.42,0,0,1-.82-1.11,4.93,4.93,0,0,1-.42-1.28,9.55,9.55,0,0,1-.16-1.62c0-.6,0-1.3,0-2.11s0-1.51,0-2.11a9.44,9.44,0,0,1,.16-1.62,4.93,4.93,0,0,1,.42-1.28,4.42,4.42,0,0,1,.82-1.11,5.38,5.38,0,0,1,1.75-1.17,5.86,5.86,0,0,1,4-.09,5,5,0,0,1,1.56.88,4.68,4.68,0,0,1,1.15,1.41,6.45,6.45,0,0,1,.65,1.9H193a4,4,0,0,0-1.23-2.23,3.45,3.45,0,0,0-2.36-.83,3.68,3.68,0,0,0-1.43.28,3.15,3.15,0,0,0-1.18.79,2.79,2.79,0,0,0-.58.77,3.67,3.67,0,0,0-.32,1,10.3,10.3,0,0,0-.13,1.4c0,.55,0,1.22,0,2s0,1.46,0,2a10.3,10.3,0,0,0,.13,1.4,3.67,3.67,0,0,0,.32,1,2.79,2.79,0,0,0,.58.77,3.15,3.15,0,0,0,1.18.79,3.68,3.68,0,0,0,1.43.28,3.52,3.52,0,0,0,2.38-.83,3.93,3.93,0,0,0,1.25-2.23Z" fill="#000008"/>
      <path d="M207.37,182.86V176h-7.19v6.9h-1.61V167.74h1.61v6.77h7.19v-6.77H209v15.12Z" fill="#000008"/>
      <path d="M224,177.87a5.37,5.37,0,0,1-.39,2.07,4.74,4.74,0,0,1-1.1,1.63,5.19,5.19,0,0,1-1.68,1.05,6.23,6.23,0,0,1-4.23,0,4.94,4.94,0,0,1-1.67-1.05,4.72,4.72,0,0,1-1.09-1.63,5.2,5.2,0,0,1-.4-2.07V167.74h1.62v10a4.64,4.64,0,0,0,.25,1.58,3.37,3.37,0,0,0,.74,1.19,3.3,3.3,0,0,0,1.15.76,4.21,4.21,0,0,0,3,0,3.44,3.44,0,0,0,1.16-.76,3.37,3.37,0,0,0,.74-1.19,4.4,4.4,0,0,0,.27-1.58v-10H224Z" fill="#000008"/>
      <path d="M238.18,182.86l-8-12.13v12.13h-1.61V167.74h1.53l8,12.09V167.74h1.61v15.12Z" fill="#000008"/>
      <path d="M254.55,177.34a7.32,7.32,0,0,1-.3,2.24,4.36,4.36,0,0,1-1,1.67,5.28,5.28,0,0,1-1.83,1.31,5.83,5.83,0,0,1-4.32,0,5.27,5.27,0,0,1-1.75-1.17,4.19,4.19,0,0,1-.82-1.11,4.93,4.93,0,0,1-.42-1.28,8.62,8.62,0,0,1-.16-1.62c0-.6,0-1.3,0-2.11s0-1.51,0-2.11a8.54,8.54,0,0,1,.16-1.62,4.93,4.93,0,0,1,.42-1.28,4.19,4.19,0,0,1,.82-1.11,5.26,5.26,0,0,1,3.87-1.57,5.71,5.71,0,0,1,2,.33,4.94,4.94,0,0,1,1.59.93,5.09,5.09,0,0,1,1.11,1.44,6.3,6.3,0,0,1,.61,1.82h-1.62a4,4,0,0,0-1.28-2.26,3.61,3.61,0,0,0-2.39-.82,3.74,3.74,0,0,0-1.44.29,3.47,3.47,0,0,0-1.18.8,3.13,3.13,0,0,0-.57.77,3.71,3.71,0,0,0-.32,1,9.83,9.83,0,0,0-.14,1.39q0,.83,0,2t0,2a10.15,10.15,0,0,0,.14,1.4,3.67,3.67,0,0,0,.32,1,3,3,0,0,0,.57.77,3.31,3.31,0,0,0,1.18.79,3.73,3.73,0,0,0,1.44.28,3.89,3.89,0,0,0,1.58-.33,3.49,3.49,0,0,0,1.29-1,3.21,3.21,0,0,0,.65-1.2,5.38,5.38,0,0,0,.2-1.54v-1.15h-3.72v-1.42h5.33Z" fill="#000008"/>
      <path d="M268.14,178.7a4.2,4.2,0,0,1-.37,1.8,3.65,3.65,0,0,1-1.06,1.34,4.83,4.83,0,0,1-1.66.85,7.23,7.23,0,0,1-2.14.3,7.93,7.93,0,0,1-2.91-.47,6.6,6.6,0,0,1-2.27-1.53l1.1-1.1a5.57,5.57,0,0,0,1.9,1.3,6.28,6.28,0,0,0,2.23.36,4.19,4.19,0,0,0,2.61-.74,2.44,2.44,0,0,0,1-2.07,3.1,3.1,0,0,0-.18-1.08,2,2,0,0,0-.55-.81,2.49,2.49,0,0,0-.75-.46,7.19,7.19,0,0,0-1.22-.26l-1.77-.28a5.61,5.61,0,0,1-2.78-1.14,3.63,3.63,0,0,1-1.15-2.83,4.51,4.51,0,0,1,.34-1.75,3.6,3.6,0,0,1,1-1.35,4.34,4.34,0,0,1,1.52-.86,6,6,0,0,1,2-.31,7.31,7.31,0,0,1,2.48.38,6.65,6.65,0,0,1,2,1.23l-1,1a5.21,5.21,0,0,0-1.51-1,5.37,5.37,0,0,0-2-.33,3.28,3.28,0,0,0-2.35.77,2.64,2.64,0,0,0-.83,2,2.19,2.19,0,0,0,.68,1.76,3.21,3.21,0,0,0,.9.51,6,6,0,0,0,1.14.33l1.65.25.95.18a6.49,6.49,0,0,1,.73.22,5.41,5.41,0,0,1,.59.29,4.29,4.29,0,0,1,.5.37A3.73,3.73,0,0,1,268.14,178.7Z" fill="#000008"/>
      <path d="M271.23,182.86v-1.53l7.56-12.15h-7.27v-1.44h9.1v1.35L273,181.42h7.63v1.44Z" fill="#000008"/>
      <path d="M284.49,182.86V167.74h9.39v1.44H286.1v5.33h6.63V176H286.1v5.46h7.78v1.44Z" fill="#000008"/>
      <path d="M307.37,182.86l-8-12.13v12.13h-1.62V167.74h1.53l8,12.09V167.74h1.61v15.12Z" fill="#000008"/>
      <path d="M318.48,169.18v13.68h-1.62V169.18h-4.37v-1.44h10.36v1.44Z" fill="#000008"/>
      <path d="M335.13,182.86l-3.44-6.71h-3.64v6.71h-1.61V167.74h5.8a5.58,5.58,0,0,1,1.81.28,4.09,4.09,0,0,1,1.42.83,3.71,3.71,0,0,1,.93,1.33,4.68,4.68,0,0,1,.32,1.76,4,4,0,0,1-.91,2.71,4.16,4.16,0,0,1-2.38,1.35l3.59,6.86Zm0-10.9a2.55,2.55,0,0,0-.84-2.09,3.33,3.33,0,0,0-2.18-.69h-4v5.55h4a3.38,3.38,0,0,0,2.18-.68A2.54,2.54,0,0,0,335.11,172Z" fill="#000008"/>
      <path d="M351.17,177.87a5.37,5.37,0,0,1-.39,2.07,4.74,4.74,0,0,1-1.1,1.63,5.19,5.19,0,0,1-1.68,1.05,6.23,6.23,0,0,1-4.23,0,4.94,4.94,0,0,1-1.67-1.05,4.72,4.72,0,0,1-1.09-1.63,5.2,5.2,0,0,1-.4-2.07V167.74h1.62v10a4.64,4.64,0,0,0,.25,1.58,3.37,3.37,0,0,0,.74,1.19,3.3,3.3,0,0,0,1.15.76,3.9,3.9,0,0,0,1.51.28,3.83,3.83,0,0,0,1.51-.28,3.44,3.44,0,0,0,1.16-.76,3.37,3.37,0,0,0,.74-1.19,4.4,4.4,0,0,0,.27-1.58v-10h1.61Z" fill="#000008"/>
      <path d="M367,182.86V171.37l-4.14,9.11h-1.38l-4.21-9.11v11.49h-1.61V167.74h1.61l4.93,10.73,4.8-10.73h1.62v15.12Z" fill="#000008"/>
      <path d="M140.21,203.75c0,.52,0,1.07,0,1.65a13.76,13.76,0,0,1-.14,1.71,7.23,7.23,0,0,1-.44,1.61,4.09,4.09,0,0,1-.9,1.36,4.64,4.64,0,0,1-1.66,1,6.21,6.21,0,0,1-2.17.36h-5.18V196.35h5.18a6.21,6.21,0,0,1,2.17.36,4.64,4.64,0,0,1,1.66,1,4.33,4.33,0,0,1,.9,1.31,6.39,6.39,0,0,1,.44,1.49,11.75,11.75,0,0,1,.14,1.59C140.2,202.69,140.21,203.22,140.21,203.75Zm-1.62,0c0-.47,0-.94,0-1.4a10.72,10.72,0,0,0-.1-1.31,5,5,0,0,0-.29-1.18,2.79,2.79,0,0,0-.6-1,3.18,3.18,0,0,0-1.34-.86,5.26,5.26,0,0,0-1.63-.24h-3.3V210h3.3a5.26,5.26,0,0,0,1.63-.25,3.18,3.18,0,0,0,1.34-.86,2.66,2.66,0,0,0,.6-1,5.88,5.88,0,0,0,.29-1.3,12.84,12.84,0,0,0,.1-1.43C138.59,204.69,138.59,204.21,138.59,203.75Z" fill="#000008"/>
      <path d="M144.41,211.48V196.35H146v15.13Z" fill="#000008"/>
      <path d="M160.87,206a7.36,7.36,0,0,1-.3,2.24,4.44,4.44,0,0,1-1,1.67,5.29,5.29,0,0,1-1.84,1.3,5.58,5.58,0,0,1-2.2.44,5.51,5.51,0,0,1-2.11-.41,5.4,5.4,0,0,1-1.75-1.16,4.29,4.29,0,0,1-.82-1.11,5.28,5.28,0,0,1-.43-1.29,10.56,10.56,0,0,1-.16-1.61c0-.6,0-1.31,0-2.11s0-1.52,0-2.12a10.56,10.56,0,0,1,.16-1.61,5.28,5.28,0,0,1,.43-1.29,4.09,4.09,0,0,1,.82-1.1,5.24,5.24,0,0,1,3.86-1.58,5.73,5.73,0,0,1,2,.33,4.74,4.74,0,0,1,1.58.94,4.9,4.9,0,0,1,1.12,1.43,6.26,6.26,0,0,1,.61,1.83h-1.62a3.93,3.93,0,0,0-1.29-2.26,3.81,3.81,0,0,0-3.82-.53,3.45,3.45,0,0,0-1.18.79,3,3,0,0,0-.57.78,3.49,3.49,0,0,0-.32,1,9.68,9.68,0,0,0-.14,1.39q0,.81,0,2c0,.79,0,1.46,0,2a10.15,10.15,0,0,0,.14,1.41,3.67,3.67,0,0,0,.32,1,3.13,3.13,0,0,0,.57.77,3.45,3.45,0,0,0,1.18.79,4,4,0,0,0,3-.06,3.46,3.46,0,0,0,1.28-1,3.38,3.38,0,0,0,.66-1.2,5.48,5.48,0,0,0,.19-1.55V205h-3.72v-1.43h5.34Z" fill="#000008"/>
      <path d="M165,211.48V196.35h1.61v15.13Z" fill="#000008"/>
      <path d="M176.2,197.8v13.68h-1.62V197.8h-4.37v-1.45h10.37v1.45Z" fill="#000008"/>
      <path d="M191.74,211.48l-1.21-3.42h-6.61l-1.21,3.42H181l5.56-15.13h1.36l5.55,15.13Zm-4.49-12.81-2.84,8h5.65Z" fill="#000008"/>
      <path d="M196.87,211.48V196.35h1.61V210h7.74v1.44Z" fill="#000008"/>
      <path d="M209.81,211.48V196.35h9.39v1.45h-7.77v5.33h6.63v1.44h-6.63V210h7.77v1.44Z" fill="#000008"/>
      <path d="M238.54,211.48l-4.61-8-3.19,3.82v4.23h-1.61V196.35h1.61V205l7.06-8.69h2L235,202.19l5.44,9.29Z" fill="#000008"/>
      <path d="M253.25,203.92c0,.8,0,1.51,0,2.11a9.42,9.42,0,0,1-.16,1.61,4.88,4.88,0,0,1-.42,1.29,4.53,4.53,0,0,1-.82,1.11,5.47,5.47,0,0,1-1.74,1.16,5.54,5.54,0,0,1-2.13.41,5.3,5.3,0,0,1-3.87-1.57,4.48,4.48,0,0,1-.81-1.11,4.55,4.55,0,0,1-.43-1.29,10.56,10.56,0,0,1-.16-1.61c0-.6,0-1.31,0-2.11s0-1.52,0-2.12a10.56,10.56,0,0,1,.16-1.61,4.55,4.55,0,0,1,.43-1.29,4.26,4.26,0,0,1,.81-1.1,5.53,5.53,0,0,1,7.74,0,4.31,4.31,0,0,1,.82,1.1,4.88,4.88,0,0,1,.42,1.29,9.42,9.42,0,0,1,.16,1.61C253.25,202.4,253.25,203.11,253.25,203.92Zm-1.61,0q0-1.2,0-2a11.37,11.37,0,0,0-.14-1.39,3.49,3.49,0,0,0-.32-1,2.83,2.83,0,0,0-.58-.78,3.32,3.32,0,0,0-1.17-.79,3.7,3.7,0,0,0-2.87,0,3.36,3.36,0,0,0-1.18.79,3.29,3.29,0,0,0-.58.78,3.5,3.5,0,0,0-.31,1,8.43,8.43,0,0,0-.14,1.39q0,.81,0,2c0,.79,0,1.46,0,2a8.68,8.68,0,0,0,.14,1.4,3.53,3.53,0,0,0,.31,1,3.29,3.29,0,0,0,.58.78,3.52,3.52,0,0,0,1.18.8,3.82,3.82,0,0,0,2.87,0,3.48,3.48,0,0,0,1.17-.8,2.83,2.83,0,0,0,.58-.78,3.52,3.52,0,0,0,.32-1,11.77,11.77,0,0,0,.14-1.4C251.63,205.38,251.64,204.71,251.64,203.92Z" fill="#000008"/>
      <path d="M268.81,211.48V200l-4.14,9.12h-1.38L259.08,200v11.5h-1.61V196.35h1.61L264,207.08l4.8-10.73h1.62v15.13Z" fill="#000008"/>
      <path d="M286.41,211.48V200l-4.14,9.12h-1.38L276.68,200v11.5h-1.62V196.35h1.62l4.93,10.73,4.8-10.73H288v15.13Z" fill="#000008"/>
      <path d="M303.09,206.49a5.37,5.37,0,0,1-.39,2.07,4.59,4.59,0,0,1-1.11,1.62,4.86,4.86,0,0,1-1.68,1.06,6.2,6.2,0,0,1-4.22,0,4.85,4.85,0,0,1-2.77-2.68,5.37,5.37,0,0,1-.39-2.07V196.35h1.61v10a4.57,4.57,0,0,0,.26,1.57,3.19,3.19,0,0,0,.73,1.19,3.46,3.46,0,0,0,1.16.77,4.36,4.36,0,0,0,3,0,3.29,3.29,0,0,0,1.9-2,4.35,4.35,0,0,0,.27-1.57v-10h1.61Z" fill="#000008"/>
      <path d="M317.23,211.48l-8-12.13v12.13h-1.62V196.35h1.53l8,12.09V196.35h1.62v15.13Z" fill="#000008"/>
      <path d="M323.38,211.48V196.35H325v15.13Z" fill="#000008"/>
      <path d="M339,211.48l-4.61-8-3.19,3.82v4.23h-1.61V196.35h1.61V205l7.06-8.69h2l-4.76,5.84,5.44,9.29Z" fill="#000008"/>
      <path d="M354.16,211.48,353,208.06h-6.61l-1.21,3.42h-1.72L349,196.35h1.36l5.54,15.13Zm-4.48-12.81-2.85,8h5.65Z" fill="#000008"/>
      <path d="M362.3,197.8v13.68h-1.62V197.8H356.3v-1.45h10.37v1.45Z" fill="#000008"/>
      <path d="M370.26,211.48V196.35h1.61v15.13Z" fill="#000008"/>
      <path d="M386.68,203.92c0,.8,0,1.51,0,2.11a10.56,10.56,0,0,1-.16,1.61,5.28,5.28,0,0,1-.43,1.29,4.29,4.29,0,0,1-.82,1.11,5.39,5.39,0,0,1-3.86,1.57,5.3,5.3,0,0,1-3.87-1.57,4.29,4.29,0,0,1-.82-1.11,5.28,5.28,0,0,1-.43-1.29,9.49,9.49,0,0,1-.15-1.61c0-.6,0-1.31,0-2.11s0-1.52,0-2.12a9.49,9.49,0,0,1,.15-1.61,5.28,5.28,0,0,1,.43-1.29,4.09,4.09,0,0,1,.82-1.1,5.52,5.52,0,0,1,7.73,0,4.09,4.09,0,0,1,.82,1.1,5.28,5.28,0,0,1,.43,1.29,10.56,10.56,0,0,1,.16,1.61C386.67,202.4,386.68,203.11,386.68,203.92Zm-1.62,0q0-1.2,0-2a9.68,9.68,0,0,0-.14-1.39,3.49,3.49,0,0,0-.32-1,3,3,0,0,0-.57-.78,3.45,3.45,0,0,0-1.18-.79,3.7,3.7,0,0,0-2.87,0,3.45,3.45,0,0,0-1.18.79,3,3,0,0,0-.57.78,3.49,3.49,0,0,0-.32,1,9.68,9.68,0,0,0-.14,1.39q0,.81,0,2c0,.79,0,1.46,0,2a10,10,0,0,0,.14,1.4,3.52,3.52,0,0,0,.32,1,3,3,0,0,0,.57.78,3.62,3.62,0,0,0,1.18.8,3.82,3.82,0,0,0,2.87,0,3.62,3.62,0,0,0,1.18-.8,3,3,0,0,0,.57-.78,3.52,3.52,0,0,0,.32-1,10,10,0,0,0,.14-1.4C385.05,205.38,385.06,204.71,385.06,203.92Z" fill="#000008"/>
      <path d="M400.54,211.48l-8-12.13v12.13h-1.62V196.35h1.53l8,12.09V196.35h1.62v15.13Z" fill="#000008"/>
      <path d="M140.06,235.1a5.2,5.2,0,0,1-.4,2.07,4.74,4.74,0,0,1-1.1,1.63,5.19,5.19,0,0,1-1.68,1,6.23,6.23,0,0,1-4.23,0,5,5,0,0,1-1.67-1,4.86,4.86,0,0,1-1.09-1.63,5.37,5.37,0,0,1-.39-2.07V225h1.61v10a4.59,4.59,0,0,0,.26,1.58,3.18,3.18,0,0,0,1.89,1.95,4.18,4.18,0,0,0,3,0,3.34,3.34,0,0,0,1.16-.76,3.55,3.55,0,0,0,.75-1.19,4.59,4.59,0,0,0,.26-1.58V225h1.62Z" fill="#000008"/>
      <path d="M154.2,240.1l-8-12.14V240.1h-1.61V225h1.53l8,12.09V225h1.62V240.1Z" fill="#000008"/>
      <path d="M170.85,232.36c0,.52,0,1.08,0,1.66a13.76,13.76,0,0,1-.14,1.71,7.14,7.14,0,0,1-.44,1.6,3.85,3.85,0,0,1-.9,1.36,4.42,4.42,0,0,1-1.66,1,6,6,0,0,1-2.17.37h-5.18V225h5.18a6.21,6.21,0,0,1,2.17.36,4.55,4.55,0,0,1,1.66,1,4,4,0,0,1,.9,1.31,6.31,6.31,0,0,1,.44,1.48,11.9,11.9,0,0,1,.14,1.6C170.84,231.3,170.85,231.84,170.85,232.36Zm-1.62,0c0-.47,0-.93,0-1.39a11.05,11.05,0,0,0-.1-1.32,5,5,0,0,0-.29-1.18,2.75,2.75,0,0,0-.6-.95,3.18,3.18,0,0,0-1.34-.86,5,5,0,0,0-1.63-.25H162v12.24h3.3a5.26,5.26,0,0,0,1.63-.24,3.28,3.28,0,0,0,1.34-.86,2.74,2.74,0,0,0,.6-1,6,6,0,0,0,.29-1.3,13.19,13.19,0,0,0,.1-1.43C169.23,233.31,169.23,232.83,169.23,232.36Z" fill="#000008"/>
      <path d="M192.56,240.1V228.6l-4.14,9.12H187l-4.21-9.12v11.5h-1.61V225h1.61l4.93,10.73,4.8-10.73h1.62V240.1Z" fill="#000008"/>
      <path d="M198.81,240.1V225h9.4v1.44h-7.78v5.33h6.63v1.45h-6.63v5.46h7.78v1.45Z" fill="#000008"/>
      <path d="M222.55,232.36c0,.52,0,1.08,0,1.66a12.07,12.07,0,0,1-.14,1.71,7.12,7.12,0,0,1-.43,1.6,4,4,0,0,1-.91,1.36,4.35,4.35,0,0,1-1.66,1,6,6,0,0,1-2.16.37h-5.19V225h5.19a6.2,6.2,0,0,1,2.16.36,4.47,4.47,0,0,1,1.66,1,4.24,4.24,0,0,1,.91,1.31,6.29,6.29,0,0,1,.43,1.48,10.46,10.46,0,0,1,.14,1.6C222.55,231.3,222.55,231.84,222.55,232.36Zm-1.62,0c0-.47,0-.93,0-1.39a11.1,11.1,0,0,0-.09-1.32,5.51,5.51,0,0,0-.3-1.18,2.88,2.88,0,0,0-.59-.95,3.31,3.31,0,0,0-1.34-.86,5,5,0,0,0-1.64-.25h-3.29v12.24H217a5.33,5.33,0,0,0,1.64-.24,3.42,3.42,0,0,0,1.34-.86,2.87,2.87,0,0,0,.59-1,6.67,6.67,0,0,0,.3-1.3,13.22,13.22,0,0,0,.09-1.43C220.93,233.31,220.93,232.83,220.93,232.36Z" fill="#000008"/>
      <path d="M226.75,240.1V225h1.62V240.1Z" fill="#000008"/>
      <path d="M233,240.1V225h9.39v1.44H234.6v5.33h6.63v1.45H234.6v5.46h7.77v1.45Z" fill="#000008"/>
      <path d="M255.87,240.1l-8-12.14V240.1h-1.62V225h1.53l8,12.09V225h1.62V240.1Z" fill="#000008"/>
      <path d="M261.64,235.08v-1.42h5.82v1.42Z" fill="#000008"/>
      <path d="M271.72,240.1V225h1.62V240.1Z" fill="#000008"/>
      <path d="M287.6,240.1l-8-12.14V240.1H278V225h1.53l8,12.09V225h1.61V240.1Z" fill="#000008"/>
      <path d="M303.4,240.1l-8-12.14V240.1h-1.61V225h1.53l8,12.09V225h1.61V240.1Z" fill="#000008"/>
      <path d="M319.73,232.53c0,.81,0,1.51,0,2.12a10.56,10.56,0,0,1-.16,1.61,5.15,5.15,0,0,1-.43,1.29,4.26,4.26,0,0,1-.81,1.1,5.33,5.33,0,0,1-3.87,1.57,5.26,5.26,0,0,1-3.87-1.57,4.31,4.31,0,0,1-.82-1.1,5.14,5.14,0,0,1-.42-1.29,8.51,8.51,0,0,1-.16-1.61c0-.61,0-1.31,0-2.12s0-1.51,0-2.11a8.62,8.62,0,0,1,.16-1.62,4.93,4.93,0,0,1,.42-1.28,4.35,4.35,0,0,1,.82-1.11,5.55,5.55,0,0,1,7.74,0,4.31,4.31,0,0,1,.81,1.11,4.94,4.94,0,0,1,.43,1.28,10.7,10.7,0,0,1,.16,1.62C319.72,231,319.73,231.72,319.73,232.53Zm-1.62,0q0-1.18,0-2a9.83,9.83,0,0,0-.14-1.39,3.39,3.39,0,0,0-.32-1,3.13,3.13,0,0,0-.57-.77,3.38,3.38,0,0,0-1.18-.8,3.7,3.7,0,0,0-2.87,0,3.47,3.47,0,0,0-1.18.8,3.13,3.13,0,0,0-.57.77,3.71,3.71,0,0,0-.32,1,9.83,9.83,0,0,0-.14,1.39q0,.82,0,2t0,2a9.83,9.83,0,0,0,.14,1.39,3.71,3.71,0,0,0,.32,1,3,3,0,0,0,.57.77,3.47,3.47,0,0,0,1.18.8,3.7,3.7,0,0,0,2.87,0,3.38,3.38,0,0,0,1.18-.8,3,3,0,0,0,.57-.77,3.39,3.39,0,0,0,.32-1,9.83,9.83,0,0,0,.14-1.39Q318.11,233.72,318.11,232.53Z" fill="#000008"/>
      <path d="M328.47,240.1h-1.32l-5-15.13h1.7l3.93,12.24L331.74,225h1.7Z" fill="#000008"/>
      <path d="M344.29,240.1l-1.21-3.43h-6.61l-1.21,3.43h-1.72L339.1,225h1.36L346,240.1Zm-4.49-12.82-2.84,8h5.65Z" fill="#000008"/>
      <path d="M352.42,226.41V240.1h-1.61V226.41h-4.38V225H356.8v1.44Z" fill="#000008"/>
      <path d="M360.38,240.1V225H362V240.1Z" fill="#000008"/>
      <path d="M376.8,232.53c0,.81,0,1.51,0,2.12a9.42,9.42,0,0,1-.16,1.61,5.14,5.14,0,0,1-.42,1.29,4.31,4.31,0,0,1-.82,1.1,5.34,5.34,0,0,1-1.74,1.17,5.5,5.5,0,0,1-2.13.4,5.22,5.22,0,0,1-3.86-1.57,4.09,4.09,0,0,1-.82-1.1,5.15,5.15,0,0,1-.43-1.29,10.56,10.56,0,0,1-.16-1.61c0-.61,0-1.31,0-2.12s0-1.51,0-2.11a10.7,10.7,0,0,1,.16-1.62,4.94,4.94,0,0,1,.43-1.28,4.13,4.13,0,0,1,.82-1.11,5.54,5.54,0,0,1,7.73,0,4.35,4.35,0,0,1,.82,1.11,4.93,4.93,0,0,1,.42,1.28,9.55,9.55,0,0,1,.16,1.62C376.8,231,376.8,231.72,376.8,232.53Zm-1.61,0q0-1.18,0-2a9.83,9.83,0,0,0-.14-1.39,3.71,3.71,0,0,0-.32-1,3.13,3.13,0,0,0-.57-.77,3.47,3.47,0,0,0-1.18-.8,3.7,3.7,0,0,0-2.87,0,3.38,3.38,0,0,0-1.18.8,3.13,3.13,0,0,0-.57.77,3.39,3.39,0,0,0-.32,1,9.83,9.83,0,0,0-.14,1.39q0,.82,0,2t0,2a9.83,9.83,0,0,0,.14,1.39,3.39,3.39,0,0,0,.32,1,3,3,0,0,0,.57.77,3.38,3.38,0,0,0,1.18.8,3.7,3.7,0,0,0,2.87,0,3.47,3.47,0,0,0,1.18-.8,3,3,0,0,0,.57-.77,3.71,3.71,0,0,0,.32-1,9.83,9.83,0,0,0,.14-1.39Q375.19,233.72,375.19,232.53Z" fill="#000008"/>
      <path d="M390.66,240.1l-8-12.14V240.1H381V225h1.53l8,12.09V225h1.61V240.1Z" fill="#000008"/>
    </g>
  </g>
</svg>
