<svg id="ffd66317-efbe-4c1a-bf82-6bdc0698ba21" data-name="Ebene 2" xmlns="http://www.w3.org/2000/svg" width="465" height="90" viewBox="0 0 465 90">
  <g>
    <g>
      <path d="M7.28,48.05V61.57H3V48.05H1.16V44.76H3V42.6a5.65,5.65,0,0,1,.3-1.82,4.58,4.58,0,0,1,.91-1.57,4.42,4.42,0,0,1,1.56-1.13A5.42,5.42,0,0,1,8,37.64h2.46V41.3H8.77c-1,0-1.49.52-1.49,1.56v1.9h3.19v3.29Z"/>
      <path d="M12.26,61.57V58.28l7.68-10.13H12.7V44.26H25.46v3.29L17.68,57.68h7.78v3.89Z"/>
      <path d="M56.53,61.57V51.1a4,4,0,0,0-.25-1.49,2.66,2.66,0,0,0-.67-1,2.53,2.53,0,0,0-.93-.53,3.27,3.27,0,0,0-2,0,2.51,2.51,0,0,0-.93.52,2.61,2.61,0,0,0-.69.94A3.65,3.65,0,0,0,50.78,51V61.57H46.46V51.1a3.8,3.8,0,0,0-.25-1.49,2.66,2.66,0,0,0-.67-1,2.53,2.53,0,0,0-.93-.53,3.27,3.27,0,0,0-2,0,2.53,2.53,0,0,0-.93.53,2.83,2.83,0,0,0-.69,1,3.79,3.79,0,0,0-.26,1.49V61.57H36.39V44.26h4.22v1.59a6.21,6.21,0,0,1,2-1.33,6.09,6.09,0,0,1,2.33-.46,6.24,6.24,0,0,1,2.61.53,5.19,5.19,0,0,1,2,1.66,7,7,0,0,1,2.32-1.68,7.41,7.41,0,0,1,2.86-.51,7,7,0,0,1,2.41.4A4.74,4.74,0,0,1,59,45.59a5.85,5.85,0,0,1,1.48,2.27,8,8,0,0,1,.42,2.64V61.57Z"/>
      <path d="M79.66,52.9c0,.64,0,1.31,0,2a13,13,0,0,1-.2,2,7.81,7.81,0,0,1-.53,1.82,4.56,4.56,0,0,1-1,1.5,5.15,5.15,0,0,1-1.85,1.15,6.86,6.86,0,0,1-2.37.41,6.58,6.58,0,0,1-2.33-.38A4.76,4.76,0,0,1,69.49,60v7.88H65.17V44.26h4.19v1.63a5.21,5.21,0,0,1,1.91-1.42,6.46,6.46,0,0,1,2.41-.41,6.86,6.86,0,0,1,2.37.41,5.15,5.15,0,0,1,1.85,1.15,5.06,5.06,0,0,1,1,1.51,7.73,7.73,0,0,1,.53,1.81,13,13,0,0,1,.2,2C79.65,51.6,79.66,52.25,79.66,52.9Zm-4.32,0a19.57,19.57,0,0,0-.1-2,5.23,5.23,0,0,0-.4-1.56A2.33,2.33,0,0,0,74,48.33,2.74,2.74,0,0,0,72.41,48a2.7,2.7,0,0,0-1.54.38A2.33,2.33,0,0,0,70,49.38a5,5,0,0,0-.4,1.56,17,17,0,0,0-.1,2,17.47,17.47,0,0,0,.1,2,5,5,0,0,0,.4,1.57,2.33,2.33,0,0,0,.88,1,2.78,2.78,0,0,0,1.54.38A2.82,2.82,0,0,0,74,57.5a2.33,2.33,0,0,0,.88-1,5.3,5.3,0,0,0,.4-1.57C75.3,54.27,75.34,53.61,75.34,52.9Z"/>
      <path d="M88.86,61.57a5.41,5.41,0,0,1-2.27-.43A4.63,4.63,0,0,1,85,60a4.28,4.28,0,0,1-.89-1.58,5.86,5.86,0,0,1-.29-1.81V48.05H82V44.76h1.82V39.64h4.32v5.12h3.06v3.29H88.16v8.3c0,1,.5,1.57,1.5,1.57h1.56v3.65Z"/>
    </g>
    <g>
      <path d="M106.82,46.73V52.8H114v1.57h-7.22v7.27h-1.76V45.16h10.23v1.57Z"/>
      <path d="M128.63,53.4c0,.88,0,1.65,0,2.31a11,11,0,0,1-.18,1.75,5.43,5.43,0,0,1-.46,1.41,5,5,0,0,1-.89,1.2,5.71,5.71,0,0,1-1.9,1.27,5.88,5.88,0,0,1-2.32.44,5.73,5.73,0,0,1-4.21-1.71,4.77,4.77,0,0,1-.89-1.2,5.84,5.84,0,0,1-.47-1.41,11,11,0,0,1-.17-1.75c0-.66,0-1.43,0-2.31s0-1.65,0-2.3a11.18,11.18,0,0,1,.17-1.76,5.62,5.62,0,0,1,.47-1.4,4.64,4.64,0,0,1,.89-1.21,6,6,0,0,1,8.43,0,4.88,4.88,0,0,1,.89,1.21,5.23,5.23,0,0,1,.46,1.4,11.1,11.1,0,0,1,.18,1.76C128.62,51.75,128.63,52.52,128.63,53.4Zm-1.76,0c0-.86,0-1.59,0-2.19a9.85,9.85,0,0,0-.15-1.51,3.81,3.81,0,0,0-.34-1.08,3.55,3.55,0,0,0-.63-.84,3.59,3.59,0,0,0-1.28-.87,4.08,4.08,0,0,0-1.57-.32,4,4,0,0,0-1.56.32,3.59,3.59,0,0,0-1.28.87,3.08,3.08,0,0,0-.63.84A4.15,4.15,0,0,0,119,49.7a13.24,13.24,0,0,0-.15,1.51q0,.9,0,2.19t0,2.19a13.68,13.68,0,0,0,.15,1.52,4.2,4.2,0,0,0,.35,1.07A3.12,3.12,0,0,0,120,59a3.73,3.73,0,0,0,1.28.87,4.17,4.17,0,0,0,1.56.31,4.26,4.26,0,0,0,1.57-.31,3.73,3.73,0,0,0,1.28-.87,3.6,3.6,0,0,0,.63-.85,3.84,3.84,0,0,0,.34-1.07,10.13,10.13,0,0,0,.15-1.52C126.86,55,126.87,54.27,126.87,53.4Z"/>
      <path d="M141.94,61.64l-3.75-7.31h-4v7.31h-1.76V45.16h6.32a5.94,5.94,0,0,1,2,.31,4.4,4.4,0,0,1,1.55.9,4,4,0,0,1,1,1.45,4.9,4.9,0,0,1,.36,1.92,4.33,4.33,0,0,1-1,3,4.52,4.52,0,0,1-2.59,1.47L144,61.64Zm0-11.87a2.77,2.77,0,0,0-.91-2.28,3.58,3.58,0,0,0-2.38-.76h-4.4v6.05h4.4A3.68,3.68,0,0,0,141,52,2.75,2.75,0,0,0,141.92,49.77Z"/>
      <path d="M157.29,57.11a4.56,4.56,0,0,1-.4,2,4.06,4.06,0,0,1-1.16,1.47,5.48,5.48,0,0,1-1.8.93,8.15,8.15,0,0,1-2.33.32,8.78,8.78,0,0,1-3.17-.51A7.16,7.16,0,0,1,146,59.61l1.2-1.21a6.12,6.12,0,0,0,2.06,1.42,7,7,0,0,0,2.43.39,4.58,4.58,0,0,0,2.85-.8,2.68,2.68,0,0,0,1-2.26,3.44,3.44,0,0,0-.2-1.18,2.17,2.17,0,0,0-.59-.88,2.55,2.55,0,0,0-.82-.5,9,9,0,0,0-1.34-.29l-1.92-.3a6,6,0,0,1-3-1.25,3.91,3.91,0,0,1-1.25-3.08,4.78,4.78,0,0,1,.37-1.91,4.21,4.21,0,0,1,1.05-1.47,4.87,4.87,0,0,1,1.66-.93,6.56,6.56,0,0,1,2.2-.34,7.83,7.83,0,0,1,2.71.42,7.15,7.15,0,0,1,2.2,1.34l-1.14,1.13a5.71,5.71,0,0,0-1.64-1,5.85,5.85,0,0,0-2.2-.36,3.63,3.63,0,0,0-2.57.84,2.92,2.92,0,0,0-.9,2.24,2.42,2.42,0,0,0,.74,1.92,3.94,3.94,0,0,0,1,.56,7.09,7.09,0,0,0,1.24.35l1.81.27,1,.2a5.74,5.74,0,0,1,.79.24,4.24,4.24,0,0,1,.64.32,3.5,3.5,0,0,1,.55.4A4.08,4.08,0,0,1,157.29,57.11Z"/>
      <path d="M171.53,56.88a6.65,6.65,0,0,1-.7,2.07,5.26,5.26,0,0,1-1.25,1.54,5.8,5.8,0,0,1-1.7,1,6.27,6.27,0,0,1-2.06.33,5.94,5.94,0,0,1-2.31-.44,5.65,5.65,0,0,1-1.91-1.27,4.77,4.77,0,0,1-.89-1.2,5.43,5.43,0,0,1-.46-1.41,11,11,0,0,1-.18-1.75c0-.66,0-1.43,0-2.31s0-1.65,0-2.3a11.1,11.1,0,0,1,.18-1.76,5.23,5.23,0,0,1,.46-1.4,4.64,4.64,0,0,1,.89-1.21,5.81,5.81,0,0,1,1.91-1.27,6.13,6.13,0,0,1,2.31-.44,6,6,0,0,1,2.06.34,5.38,5.38,0,0,1,1.7,1,5.13,5.13,0,0,1,1.25,1.54,6.65,6.65,0,0,1,.7,2.07h-1.8a4.41,4.41,0,0,0-1.34-2.43,3.75,3.75,0,0,0-2.57-.91,4.18,4.18,0,0,0-1.57.31,3.55,3.55,0,0,0-1.28.85,3.35,3.35,0,0,0-.63.85,3.78,3.78,0,0,0-.34,1.09,11.47,11.47,0,0,0-.16,1.52q0,.9,0,2.19t0,2.19a11.83,11.83,0,0,0,.16,1.53,3.88,3.88,0,0,0,.34,1.09,3.3,3.3,0,0,0,.63.84,3.57,3.57,0,0,0,1.28.86,4.18,4.18,0,0,0,1.57.3,3.84,3.84,0,0,0,2.59-.9,4.32,4.32,0,0,0,1.36-2.43Z"/>
      <path d="M184.71,61.64V54.12h-7.83v7.52h-1.76V45.16h1.76v7.38h7.83V45.16h1.76V61.64Z"/>
      <path d="M202.21,56.2a5.76,5.76,0,0,1-.43,2.26,5,5,0,0,1-1.2,1.77,5.41,5.41,0,0,1-1.83,1.15,6.84,6.84,0,0,1-4.61,0,5.14,5.14,0,0,1-1.81-1.15,5.23,5.23,0,0,1-1.2-1.77,5.94,5.94,0,0,1-.42-2.26v-11h1.75v10.9a5.13,5.13,0,0,0,.28,1.72,3.53,3.53,0,0,0,.8,1.29,3.67,3.67,0,0,0,1.26.84,4.4,4.4,0,0,0,1.65.3,4.32,4.32,0,0,0,1.64-.3,3.62,3.62,0,0,0,2.07-2.13,4.67,4.67,0,0,0,.29-1.72V45.16h1.76Z"/>
      <path d="M217,61.64l-8.75-13.22V61.64h-1.76V45.16h1.67l8.75,13.17V45.16h1.76V61.64Z"/>
      <path d="M234.05,55.62a8.27,8.27,0,0,1-.32,2.45,4.77,4.77,0,0,1-1.09,1.81,5.8,5.8,0,0,1-2,1.43,6.14,6.14,0,0,1-2.39.47,5.94,5.94,0,0,1-2.31-.44A5.75,5.75,0,0,1,224,60.07a5,5,0,0,1-.89-1.2,5.43,5.43,0,0,1-.46-1.41,10,10,0,0,1-.17-1.75q0-1,0-2.31c0-.88,0-1.65,0-2.3a10.1,10.1,0,0,1,.17-1.76,5.23,5.23,0,0,1,.46-1.4,4.88,4.88,0,0,1,.89-1.21A5.75,5.75,0,0,1,228.24,45a6.2,6.2,0,0,1,2.16.36,5.35,5.35,0,0,1,1.73,1A5.45,5.45,0,0,1,233.34,48a6.48,6.48,0,0,1,.66,2h-1.76a4.31,4.31,0,0,0-1.4-2.46,3.86,3.86,0,0,0-2.6-.9,4.08,4.08,0,0,0-1.57.32,3.68,3.68,0,0,0-1.28.87,3.55,3.55,0,0,0-.63.84,3.81,3.81,0,0,0-.34,1.08,9.85,9.85,0,0,0-.15,1.51c0,.6,0,1.33,0,2.19s0,1.6,0,2.19a10.41,10.41,0,0,0,.15,1.53,3.88,3.88,0,0,0,.34,1.09,3.55,3.55,0,0,0,.63.84,3.66,3.66,0,0,0,1.28.86,4.27,4.27,0,0,0,3.29-.06,3.72,3.72,0,0,0,1.4-1.05,3.6,3.6,0,0,0,.72-1.31,5.93,5.93,0,0,0,.21-1.68V54.56h-4V53h5.81Z"/>
      <path d="M247.78,57.11a4.72,4.72,0,0,1-.4,2,4.17,4.17,0,0,1-1.16,1.47,5.63,5.63,0,0,1-1.81.93,8.1,8.1,0,0,1-2.33.32,8.82,8.82,0,0,1-3.17-.51,7.26,7.26,0,0,1-2.48-1.66l1.21-1.21a6,6,0,0,0,2.06,1.42,6.88,6.88,0,0,0,2.43.39,4.62,4.62,0,0,0,2.85-.8,2.69,2.69,0,0,0,1-2.26,3.44,3.44,0,0,0-.2-1.18,2.08,2.08,0,0,0-.59-.88,2.45,2.45,0,0,0-.82-.5,9.11,9.11,0,0,0-1.33-.29l-1.92-.3a6,6,0,0,1-3-1.25,3.91,3.91,0,0,1-1.25-3.08,4.79,4.79,0,0,1,.38-1.91,4,4,0,0,1,1.05-1.47,4.82,4.82,0,0,1,1.65-.93,6.56,6.56,0,0,1,2.2-.34,7.79,7.79,0,0,1,2.71.42,7,7,0,0,1,2.2,1.34l-1.13,1.13a5.62,5.62,0,0,0-1.65-1,5.82,5.82,0,0,0-2.2-.36,3.65,3.65,0,0,0-2.57.84,2.92,2.92,0,0,0-.9,2.24,2.45,2.45,0,0,0,.74,1.92,3.84,3.84,0,0,0,1,.56,7,7,0,0,0,1.23.35l1.81.27c.39.07.73.13,1,.2a5.91,5.91,0,0,1,.8.24,5.46,5.46,0,0,1,.64.32,3.43,3.43,0,0,1,.54.4A4.06,4.06,0,0,1,247.78,57.11Z"/>
      <path d="M250.09,61.64V60l8.25-13.25h-7.92V45.16h9.91v1.48L252,60.07h8.31v1.57Z"/>
      <path d="M263.73,61.64V45.16H274v1.57h-8.48v5.81h7.23v1.58h-7.23v6H274v1.57Z"/>
      <path d="M287.84,61.64l-8.76-13.22V61.64h-1.76V45.16H279l8.75,13.17V45.16h1.76V61.64Z"/>
      <path d="M298.81,46.73V61.64h-1.76V46.73h-4.77V45.16h11.3v1.57Z"/>
      <path d="M315.83,61.64l-3.75-7.31h-4v7.31h-1.76V45.16h6.32a5.94,5.94,0,0,1,2,.31,4.49,4.49,0,0,1,1.55.9,4.16,4.16,0,0,1,1,1.45,4.9,4.9,0,0,1,.36,1.92,4.38,4.38,0,0,1-1,3A4.56,4.56,0,0,1,314,54.17l3.91,7.47Zm0-11.87a2.78,2.78,0,0,0-.92-2.28,3.57,3.57,0,0,0-2.37-.76h-4.4v6.05h4.4a3.67,3.67,0,0,0,2.37-.74A2.76,2.76,0,0,0,315.81,49.77Z"/>
      <path d="M332.52,56.2a5.76,5.76,0,0,1-.43,2.26,5,5,0,0,1-1.2,1.77,5.41,5.41,0,0,1-1.83,1.15,6.84,6.84,0,0,1-4.61,0,5.27,5.27,0,0,1-3-2.92A5.94,5.94,0,0,1,321,56.2v-11h1.76v10.9a5.13,5.13,0,0,0,.27,1.72,3.53,3.53,0,0,0,.8,1.29,3.67,3.67,0,0,0,1.26.84,4.4,4.4,0,0,0,1.65.3,4.32,4.32,0,0,0,1.64-.3,3.49,3.49,0,0,0,1.26-.84,3.55,3.55,0,0,0,.81-1.29,4.67,4.67,0,0,0,.29-1.72V45.16h1.76Z"/>
      <path d="M349.12,61.64V49.12l-4.51,9.93H343.1l-4.58-9.93V61.64h-1.76V45.16h1.76l5.37,11.69,5.23-11.69h1.76V61.64Z"/>
      <path d="M117.42,89.43V76.9l-4.51,9.94H111.4l-4.58-9.94V89.43h-1.76V72.94h1.76l5.37,11.7,5.23-11.7h1.76V89.43Z"/>
      <path d="M133.21,89.43l-1.32-3.73h-7.2l-1.32,3.73H121.5l6.07-16.49h1.48l6,16.49Zm-4.88-14-3.1,8.75h6.16Z"/>
      <path d="M140.85,74.52V89.43H139.1V74.52h-4.77V72.94h11.29v1.58Z"/>
      <path d="M148.36,89.43V72.94h10.23v1.58h-8.47v5.81h7.22V81.9h-7.22v6h8.47v1.57Z"/>
      <path d="M171.37,89.43l-3.75-7.32h-4v7.32H161.9V72.94h6.32a5.94,5.94,0,0,1,2,.32,4.33,4.33,0,0,1,1.55.9,4.07,4.07,0,0,1,1,1.45,4.9,4.9,0,0,1,.36,1.92,4.31,4.31,0,0,1-1,3A4.45,4.45,0,0,1,169.52,82l3.91,7.48Zm0-11.88a2.78,2.78,0,0,0-.92-2.28,3.6,3.6,0,0,0-2.37-.75h-4.4v6h4.4a3.65,3.65,0,0,0,2.37-.74A2.74,2.74,0,0,0,171.35,77.55Z"/>
      <path d="M176.74,89.43V72.94h1.76V89.43Z"/>
      <path d="M192.54,89.43l-1.33-3.73H184l-1.32,3.73h-1.87l6.07-16.49h1.48l6,16.49Zm-4.89-14-3.1,8.75h6.16Z"/>
      <path d="M196.73,89.43V72.94h1.76V87.86h8.42v1.57Z"/>
      <path d="M209,84V82.41h6.34V84Z"/>
      <path d="M235.86,84a6,6,0,0,1-.43,2.26,5.23,5.23,0,0,1-3,2.91,6.66,6.66,0,0,1-4.6,0,5.14,5.14,0,0,1-3-2.91,5.76,5.76,0,0,1-.43-2.26v-11h1.76V83.85a5.11,5.11,0,0,0,.27,1.71,3.8,3.8,0,0,0,.8,1.3,3.73,3.73,0,0,0,1.27.83,4.63,4.63,0,0,0,3.28,0,3.73,3.73,0,0,0,1.27-.83,4,4,0,0,0,.81-1.3,4.87,4.87,0,0,0,.29-1.71V72.94h1.76Z"/>
      <path d="M250.56,89.43l-8.75-13.22V89.43h-1.76V72.94h1.66l8.76,13.18V72.94h1.76V89.43Z"/>
      <path d="M268.09,81c0,.57,0,1.17,0,1.81a11.48,11.48,0,0,1-.15,1.86,7.93,7.93,0,0,1-.47,1.75,4.33,4.33,0,0,1-1,1.48,4.91,4.91,0,0,1-1.8,1.14,6.83,6.83,0,0,1-2.36.39h-5.65V72.94h5.65a6.83,6.83,0,0,1,2.36.4,4.89,4.89,0,0,1,1.8,1.13,4.54,4.54,0,0,1,1,1.43,6.73,6.73,0,0,1,.47,1.62,9.85,9.85,0,0,1,.15,1.73C268.08,79.85,268.09,80.43,268.09,81Zm-1.76,0c0-.51,0-1,0-1.51a10.85,10.85,0,0,0-.1-1.44,5.94,5.94,0,0,0-.32-1.29,3.27,3.27,0,0,0-.65-1,3.56,3.56,0,0,0-1.46-.94,5.93,5.93,0,0,0-1.78-.26h-3.59V87.86H262a5.63,5.63,0,0,0,1.78-.27,3.56,3.56,0,0,0,1.46-.94,3.06,3.06,0,0,0,.65-1.1,6.91,6.91,0,0,0,.32-1.41,13.05,13.05,0,0,0,.1-1.56C266.32,82,266.33,81.51,266.33,81Z"/>
      <path d="M288.53,77.78a5.23,5.23,0,0,1-.37,2,4.33,4.33,0,0,1-1,1.53,4.91,4.91,0,0,1-1.61,1,6,6,0,0,1-2.07.35h-4.38v6.78H277.3V72.94h6.14a6.24,6.24,0,0,1,2.07.34,4.59,4.59,0,0,1,1.61,1,4.52,4.52,0,0,1,1,1.53A5.13,5.13,0,0,1,288.53,77.78Zm-1.76,0a3,3,0,0,0-1-2.45,3.82,3.82,0,0,0-2.53-.81h-4.21v6.55h4.21a3.77,3.77,0,0,0,2.53-.82A3,3,0,0,0,286.77,77.78Z"/>
      <path d="M301,89.43l-3.75-7.32h-4v7.32h-1.76V72.94h6.32a5.94,5.94,0,0,1,2,.32,4.33,4.33,0,0,1,1.55.9,4.07,4.07,0,0,1,1,1.45,4.9,4.9,0,0,1,.36,1.92,4.31,4.31,0,0,1-1,3A4.45,4.45,0,0,1,299.16,82l3.91,7.48Zm0-11.88a2.78,2.78,0,0,0-.92-2.28,3.62,3.62,0,0,0-2.37-.75h-4.4v6h4.4a3.67,3.67,0,0,0,2.37-.74A2.74,2.74,0,0,0,301,77.55Z"/>
      <path d="M317.29,81.19c0,.88,0,1.64,0,2.3a10.1,10.1,0,0,1-.17,1.76,5.35,5.35,0,0,1-.46,1.4,4.88,4.88,0,0,1-.89,1.21,5.87,5.87,0,0,1-1.9,1.27,6.07,6.07,0,0,1-2.32.44,5.73,5.73,0,0,1-4.21-1.71,4.43,4.43,0,0,1-.89-1.21,5.36,5.36,0,0,1-.47-1.4,10.1,10.1,0,0,1-.17-1.76c0-.66,0-1.42,0-2.3s0-1.65,0-2.31a10.2,10.2,0,0,1,.17-1.76,5.49,5.49,0,0,1,.47-1.4,4.39,4.39,0,0,1,.89-1.2,6,6,0,0,1,8.43,0,4.84,4.84,0,0,1,.89,1.2,5.48,5.48,0,0,1,.46,1.4,10.2,10.2,0,0,1,.17,1.76Q317.29,79.87,317.29,81.19Zm-1.76,0c0-.87,0-1.6,0-2.19a10,10,0,0,0-.15-1.52,3.84,3.84,0,0,0-.34-1.07,3.41,3.41,0,0,0-.63-.85,3.77,3.77,0,0,0-1.29-.87,4.08,4.08,0,0,0-3.12,0,3.86,3.86,0,0,0-1.29.87,3.14,3.14,0,0,0-.62.85,3.84,3.84,0,0,0-.35,1.07,10,10,0,0,0-.15,1.52q0,.89,0,2.19t0,2.19a10,10,0,0,0,.15,1.51,3.81,3.81,0,0,0,.35,1.08,3.26,3.26,0,0,0,.62.84,3.86,3.86,0,0,0,1.29.87,4.08,4.08,0,0,0,3.12,0,3.77,3.77,0,0,0,1.29-.87A3.55,3.55,0,0,0,315,86a3.81,3.81,0,0,0,.34-1.08,10,10,0,0,0,.15-1.51C315.52,82.78,315.53,82.05,315.53,81.19Z"/>
      <path d="M320,89.43V87.76l8.24-13.24h-7.92V72.94h9.91v1.49l-8.31,13.43h8.31v1.57Z"/>
      <path d="M333.61,89.43V72.94h10.24v1.58h-8.48v5.81h7.23V81.9h-7.23v6h8.48v1.57Z"/>
      <path d="M357.09,84.89a4.58,4.58,0,0,1-.41,2,4,4,0,0,1-1.15,1.47,5.42,5.42,0,0,1-1.81.92,7.76,7.76,0,0,1-2.33.33,8.82,8.82,0,0,1-3.17-.51,7.29,7.29,0,0,1-2.48-1.67l1.21-1.2A5.85,5.85,0,0,0,349,87.6a6.88,6.88,0,0,0,2.43.39,4.61,4.61,0,0,0,2.85-.79,2.71,2.71,0,0,0,1-2.26,3.4,3.4,0,0,0-.2-1.18,2.11,2.11,0,0,0-.59-.88,2.45,2.45,0,0,0-.82-.5,7.94,7.94,0,0,0-1.33-.29l-1.92-.3a6.08,6.08,0,0,1-3-1.25,3.92,3.92,0,0,1-1.25-3.08,4.93,4.93,0,0,1,.37-1.91,4,4,0,0,1,1.06-1.47,4.84,4.84,0,0,1,1.65-.94,6.82,6.82,0,0,1,2.2-.34,7.79,7.79,0,0,1,2.71.42,7.23,7.23,0,0,1,2.2,1.34l-1.13,1.14a5.42,5.42,0,0,0-1.65-1,5.82,5.82,0,0,0-2.2-.36,3.65,3.65,0,0,0-2.57.84,2.91,2.91,0,0,0-.9,2.24,2.41,2.41,0,0,0,.74,1.91,3.33,3.33,0,0,0,1,.56,6.22,6.22,0,0,0,1.23.35l1.81.28c.39.06.73.13,1,.2a5.91,5.91,0,0,1,.8.24,5.43,5.43,0,0,1,.64.31,3.49,3.49,0,0,1,.54.41A4,4,0,0,1,357.09,84.89Z"/>
      <path d="M370,84.89a4.58,4.58,0,0,1-.41,2,4,4,0,0,1-1.16,1.47,5.28,5.28,0,0,1-1.8.92,7.76,7.76,0,0,1-2.33.33,8.82,8.82,0,0,1-3.17-.51,7.2,7.2,0,0,1-2.48-1.67l1.21-1.2a5.76,5.76,0,0,0,2.06,1.41,6.88,6.88,0,0,0,2.43.39,4.61,4.61,0,0,0,2.85-.79,2.71,2.71,0,0,0,1-2.26,3.4,3.4,0,0,0-.2-1.18,2.11,2.11,0,0,0-.59-.88,2.55,2.55,0,0,0-.82-.5,7.94,7.94,0,0,0-1.33-.29l-1.92-.3a6,6,0,0,1-3-1.25,3.92,3.92,0,0,1-1.25-3.08,4.93,4.93,0,0,1,.37-1.91,4.12,4.12,0,0,1,1.05-1.47,4.89,4.89,0,0,1,1.66-.94,6.82,6.82,0,0,1,2.2-.34,7.83,7.83,0,0,1,2.71.42,7.23,7.23,0,0,1,2.2,1.34l-1.14,1.14a5.38,5.38,0,0,0-1.64-1,5.85,5.85,0,0,0-2.2-.36,3.63,3.63,0,0,0-2.57.84,2.91,2.91,0,0,0-.9,2.24,2.38,2.38,0,0,0,.74,1.91,3.4,3.4,0,0,0,1,.56,6.52,6.52,0,0,0,1.24.35l1.81.28c.38.06.73.13,1,.2a5.91,5.91,0,0,1,.8.24,4.62,4.62,0,0,1,.63.31,3.15,3.15,0,0,1,.55.41A4.05,4.05,0,0,1,370,84.89Z"/>
      <path d="M378.16,74.52V89.43H376.4V74.52h-4.77V72.94h11.3v1.58Z"/>
      <path d="M385.66,89.43V72.94H395.9v1.58h-8.48v5.81h7.23V81.9h-7.23v6h8.48v1.57Z"/>
      <path d="M410.07,84.66a6.93,6.93,0,0,1-.71,2.07,5.13,5.13,0,0,1-1.25,1.54,5.38,5.38,0,0,1-1.7,1,6,6,0,0,1-2.06.34,6.13,6.13,0,0,1-2.31-.44,5.91,5.91,0,0,1-1.91-1.27,4.88,4.88,0,0,1-.89-1.21,5.35,5.35,0,0,1-.46-1.4,11.1,11.1,0,0,1-.18-1.76c0-.66,0-1.42,0-2.3s0-1.65,0-2.31a11.23,11.23,0,0,1,.18-1.76,5.48,5.48,0,0,1,.46-1.4,4.84,4.84,0,0,1,.89-1.2A5.75,5.75,0,0,1,402,73.25a6,6,0,0,1,2.31-.45,6.27,6.27,0,0,1,2.06.34,5.38,5.38,0,0,1,1.7,1,5.26,5.26,0,0,1,1.25,1.54,6.93,6.93,0,0,1,.71,2.07h-1.81a4.38,4.38,0,0,0-1.34-2.43,3.75,3.75,0,0,0-2.57-.9,4.25,4.25,0,0,0-1.57.3,3.88,3.88,0,0,0-1.91,1.7,3.88,3.88,0,0,0-.34,1.09,10.27,10.27,0,0,0-.15,1.53c0,.59,0,1.32,0,2.19s0,1.59,0,2.19a10.13,10.13,0,0,0,.15,1.52,3.29,3.29,0,0,0,1,1.94,3.55,3.55,0,0,0,1.28.85,4.25,4.25,0,0,0,1.57.3,3.82,3.82,0,0,0,2.59-.9,4.32,4.32,0,0,0,1.37-2.43Z"/>
      <path d="M423.19,89.43V81.9h-7.82v7.53h-1.76V72.94h1.76v7.39h7.82V72.94H425V89.43Z"/>
      <path d="M439.89,89.43l-8.75-13.22V89.43h-1.76V72.94H431l8.76,13.18V72.94h1.76V89.43Z"/>
      <path d="M446,89.43V72.94h1.76V89.43Z"/>
      <path d="M462.42,89.43l-5-8.78-3.47,4.17v4.61h-1.76V72.94h1.76v9.47l7.69-9.47h2.15l-5.19,6.37,5.93,10.12Z"/>
    </g>
  </g>
</svg>
