<svg id="ae48f8da-03dd-4b19-83e4-ebb01e219200" data-name="Ebene 2" xmlns="http://www.w3.org/2000/svg" width="501" height="241" viewBox="0 0 501 241">
  <g>
    <g>
      <g>
        <path d="M44,79.53A1.51,1.51,0,1,1,45.48,78,1.5,1.5,0,0,1,44,79.53Z" fill="#192d64"/>
        <path d="M50,79.53A1.51,1.51,0,1,1,51.51,78,1.51,1.51,0,0,1,50,79.53Z" fill="#192d64"/>
        <path d="M56,79.53A1.51,1.51,0,1,1,57.53,78,1.5,1.5,0,0,1,56,79.53Z" fill="#192d64"/>
        <path d="M62.06,79.53A1.51,1.51,0,1,1,63.56,78,1.51,1.51,0,0,1,62.06,79.53Z" fill="#192d64"/>
        <path d="M68.08,79.53A1.51,1.51,0,1,1,69.58,78,1.5,1.5,0,0,1,68.08,79.53Z" fill="#192d64"/>
      </g>
      <g>
        <path d="M38,83.79a1.51,1.51,0,1,1,1.5-1.52A1.52,1.52,0,0,1,38,83.79Z" fill="#192d64"/>
        <path d="M44,83.79a1.51,1.51,0,1,1,1.5-1.52A1.51,1.51,0,0,1,44,83.79Z" fill="#192d64"/>
        <path d="M50,83.79a1.51,1.51,0,1,1,1.5-1.52A1.52,1.52,0,0,1,50,83.79Z" fill="#192d64"/>
        <path d="M56,83.79a1.51,1.51,0,1,1,1.5-1.52A1.51,1.51,0,0,1,56,83.79Z" fill="#192d64"/>
        <path d="M62.06,83.79a1.51,1.51,0,1,1,1.5-1.52A1.52,1.52,0,0,1,62.06,83.79Z" fill="#192d64"/>
        <path d="M68.08,83.79a1.51,1.51,0,1,1,1.5-1.52A1.51,1.51,0,0,1,68.08,83.79Z" fill="#192d64"/>
      </g>
      <g>
        <path d="M62.06,88a1.51,1.51,0,1,1,1.5-1.52A1.52,1.52,0,0,1,62.06,88Z" fill="#192d64"/>
        <path d="M68.08,88a1.51,1.51,0,1,1,1.5-1.52A1.51,1.51,0,0,1,68.08,88Z" fill="#192d64"/>
        <path d="M86.16,88a1.51,1.51,0,1,1,1.5-1.52A1.52,1.52,0,0,1,86.16,88Z" fill="#192d64"/>
      </g>
      <g>
        <path d="M62.06,92.29a1.51,1.51,0,1,1,1.5-1.52A1.52,1.52,0,0,1,62.06,92.29Z" fill="#192d64"/>
        <path d="M68.08,92.29a1.51,1.51,0,1,1,1.5-1.52A1.51,1.51,0,0,1,68.08,92.29Z" fill="#192d64"/>
        <path d="M80.13,92.29a1.51,1.51,0,1,1,1.5-1.52A1.51,1.51,0,0,1,80.13,92.29Z" fill="#192d64"/>
        <path d="M86.16,92.29a1.51,1.51,0,1,1,1.5-1.52A1.52,1.52,0,0,1,86.16,92.29Z" fill="#192d64"/>
      </g>
      <g>
        <path d="M62.06,96.54A1.51,1.51,0,1,1,63.56,95,1.52,1.52,0,0,1,62.06,96.54Z" fill="#192d64"/>
        <path d="M68.08,96.54A1.51,1.51,0,1,1,69.58,95,1.51,1.51,0,0,1,68.08,96.54Z" fill="#192d64"/>
        <path d="M80.13,96.54A1.51,1.51,0,1,1,81.63,95,1.51,1.51,0,0,1,80.13,96.54Z" fill="#192d64"/>
        <path d="M86.16,96.54A1.51,1.51,0,1,1,87.66,95,1.52,1.52,0,0,1,86.16,96.54Z" fill="#192d64"/>
        <path d="M104.23,96.54a1.51,1.51,0,1,1,1.5-1.52A1.51,1.51,0,0,1,104.23,96.54Z" fill="#192d64"/>
      </g>
      <g>
        <path d="M62.06,100.79a1.51,1.51,0,1,1,1.5-1.52A1.51,1.51,0,0,1,62.06,100.79Z" fill="#192d64"/>
        <path d="M68.08,100.79a1.51,1.51,0,1,1,1.5-1.52A1.5,1.5,0,0,1,68.08,100.79Z" fill="#192d64"/>
        <path d="M80.13,100.79a1.51,1.51,0,1,1,1.5-1.52A1.5,1.5,0,0,1,80.13,100.79Z" fill="#192d64"/>
        <path d="M86.16,100.79a1.51,1.51,0,1,1,1.5-1.52A1.51,1.51,0,0,1,86.16,100.79Z" fill="#192d64"/>
        <path d="M98.21,100.79a1.51,1.51,0,1,1,1.5-1.52A1.51,1.51,0,0,1,98.21,100.79Z" fill="#192d64"/>
        <path d="M104.23,100.79a1.51,1.51,0,1,1,1.5-1.52A1.5,1.5,0,0,1,104.23,100.79Z" fill="#192d64"/>
      </g>
      <g>
        <path d="M25.91,105a1.51,1.51,0,1,1,1.5-1.52A1.51,1.51,0,0,1,25.91,105Z" fill="#192d64"/>
        <path d="M31.93,105a1.51,1.51,0,1,1,1.5-1.52A1.5,1.5,0,0,1,31.93,105Z" fill="#192d64"/>
        <path d="M38,105a1.51,1.51,0,1,1,1.5-1.52A1.51,1.51,0,0,1,38,105Z" fill="#192d64"/>
        <path d="M44,105a1.51,1.51,0,1,1,1.5-1.52A1.5,1.5,0,0,1,44,105Z" fill="#192d64"/>
        <path d="M50,105a1.51,1.51,0,1,1,1.5-1.52A1.51,1.51,0,0,1,50,105Z" fill="#192d64"/>
        <path d="M62.06,105a1.51,1.51,0,1,1,1.5-1.52A1.51,1.51,0,0,1,62.06,105Z" fill="#192d64"/>
        <path d="M68.08,105a1.51,1.51,0,1,1,1.5-1.52A1.5,1.5,0,0,1,68.08,105Z" fill="#192d64"/>
        <path d="M80.13,105a1.51,1.51,0,1,1,1.5-1.52A1.5,1.5,0,0,1,80.13,105Z" fill="#192d64"/>
        <path d="M86.16,105a1.51,1.51,0,1,1,1.5-1.52A1.51,1.51,0,0,1,86.16,105Z" fill="#192d64"/>
        <path d="M98.21,105a1.51,1.51,0,1,1,1.5-1.52A1.51,1.51,0,0,1,98.21,105Z" fill="#192d64"/>
        <path d="M104.23,105a1.51,1.51,0,1,1,1.5-1.52A1.5,1.5,0,0,1,104.23,105Z" fill="#192d64"/>
      </g>
      <g>
        <path d="M19.88,109.29a1.51,1.51,0,1,1,1.5-1.52A1.5,1.5,0,0,1,19.88,109.29Z" fill="#192d64"/>
        <path d="M25.91,109.29a1.51,1.51,0,1,1,1.5-1.52A1.51,1.51,0,0,1,25.91,109.29Z" fill="#192d64"/>
        <path d="M31.93,109.29a1.51,1.51,0,1,1,1.5-1.52A1.5,1.5,0,0,1,31.93,109.29Z" fill="#192d64"/>
        <path d="M38,109.29a1.51,1.51,0,1,1,1.5-1.52A1.51,1.51,0,0,1,38,109.29Z" fill="#192d64"/>
        <path d="M44,109.29a1.51,1.51,0,1,1,1.5-1.52A1.5,1.5,0,0,1,44,109.29Z" fill="#192d64"/>
        <path d="M50,109.29a1.51,1.51,0,1,1,1.5-1.52A1.51,1.51,0,0,1,50,109.29Z" fill="#192d64"/>
        <path d="M62.06,109.29a1.51,1.51,0,1,1,1.5-1.52A1.51,1.51,0,0,1,62.06,109.29Z" fill="#192d64"/>
        <path d="M68.08,109.29a1.51,1.51,0,1,1,1.5-1.52A1.5,1.5,0,0,1,68.08,109.29Z" fill="#192d64"/>
        <path d="M80.13,109.29a1.51,1.51,0,1,1,1.5-1.52A1.5,1.5,0,0,1,80.13,109.29Z" fill="#192d64"/>
        <path d="M86.16,109.29a1.51,1.51,0,1,1,1.5-1.52A1.51,1.51,0,0,1,86.16,109.29Z" fill="#192d64"/>
        <path d="M98.21,109.29a1.51,1.51,0,1,1,1.5-1.52A1.51,1.51,0,0,1,98.21,109.29Z" fill="#192d64"/>
        <path d="M104.23,109.29a1.51,1.51,0,1,1,1.5-1.52A1.5,1.5,0,0,1,104.23,109.29Z" fill="#192d64"/>
      </g>
      <g>
        <path d="M44,113.54a1.51,1.51,0,1,1,1.5-1.52A1.5,1.5,0,0,1,44,113.54Z" fill="#192d64"/>
        <path d="M50,113.54a1.51,1.51,0,1,1,1.5-1.52A1.51,1.51,0,0,1,50,113.54Z" fill="#192d64"/>
        <path d="M62.06,113.54a1.51,1.51,0,1,1,1.5-1.52A1.51,1.51,0,0,1,62.06,113.54Z" fill="#192d64"/>
        <path d="M68.08,113.54a1.51,1.51,0,1,1,1.5-1.52A1.5,1.5,0,0,1,68.08,113.54Z" fill="#192d64"/>
        <path d="M80.13,113.54a1.51,1.51,0,1,1,1.5-1.52A1.5,1.5,0,0,1,80.13,113.54Z" fill="#192d64"/>
        <path d="M86.16,113.54a1.51,1.51,0,1,1,1.5-1.52A1.51,1.51,0,0,1,86.16,113.54Z" fill="#192d64"/>
        <path d="M98.21,113.54a1.51,1.51,0,1,1,1.5-1.52A1.51,1.51,0,0,1,98.21,113.54Z" fill="#192d64"/>
        <path d="M104.23,113.54a1.51,1.51,0,1,1,1.5-1.52A1.5,1.5,0,0,1,104.23,113.54Z" fill="#192d64"/>
      </g>
      <g>
        <path d="M44,117.79a1.51,1.51,0,1,1,1.5-1.52A1.5,1.5,0,0,1,44,117.79Z" fill="#192d64"/>
        <path d="M50,117.79a1.51,1.51,0,1,1,1.5-1.52A1.51,1.51,0,0,1,50,117.79Z" fill="#192d64"/>
        <path d="M62.06,117.79a1.51,1.51,0,1,1,1.5-1.52A1.51,1.51,0,0,1,62.06,117.79Z" fill="#192d64"/>
        <path d="M68.08,117.79a1.51,1.51,0,1,1,1.5-1.52A1.5,1.5,0,0,1,68.08,117.79Z" fill="#192d64"/>
        <path d="M80.13,117.79a1.51,1.51,0,1,1,1.5-1.52A1.5,1.5,0,0,1,80.13,117.79Z" fill="#192d64"/>
        <path d="M86.16,117.79a1.51,1.51,0,1,1,1.5-1.52A1.51,1.51,0,0,1,86.16,117.79Z" fill="#192d64"/>
        <path d="M98.21,117.79a1.51,1.51,0,1,1,1.5-1.52A1.51,1.51,0,0,1,98.21,117.79Z" fill="#192d64"/>
        <path d="M104.23,117.79a1.51,1.51,0,1,1,1.5-1.52A1.5,1.5,0,0,1,104.23,117.79Z" fill="#192d64"/>
      </g>
      <g>
        <path d="M44,122.05a1.51,1.51,0,1,1,1.5-1.52A1.51,1.51,0,0,1,44,122.05Z" fill="#192d64"/>
        <path d="M50,122.05a1.51,1.51,0,1,1,1.5-1.52A1.52,1.52,0,0,1,50,122.05Z" fill="#192d64"/>
        <path d="M62.06,122.05a1.51,1.51,0,1,1,1.5-1.52A1.52,1.52,0,0,1,62.06,122.05Z" fill="#192d64"/>
        <path d="M68.08,122.05a1.51,1.51,0,1,1,1.5-1.52A1.51,1.51,0,0,1,68.08,122.05Z" fill="#192d64"/>
        <path d="M80.13,122.05a1.51,1.51,0,1,1,1.5-1.52A1.51,1.51,0,0,1,80.13,122.05Z" fill="#192d64"/>
        <path d="M86.16,122.05a1.51,1.51,0,1,1,1.5-1.52A1.52,1.52,0,0,1,86.16,122.05Z" fill="#192d64"/>
        <path d="M98.21,122.05a1.51,1.51,0,1,1,1.5-1.52A1.52,1.52,0,0,1,98.21,122.05Z" fill="#192d64"/>
        <path d="M104.23,122.05a1.51,1.51,0,1,1,1.5-1.52A1.51,1.51,0,0,1,104.23,122.05Z" fill="#192d64"/>
      </g>
      <g>
        <path d="M44,126.3a1.51,1.51,0,1,1,1.5-1.52A1.51,1.51,0,0,1,44,126.3Z" fill="#192d64"/>
        <path d="M50,126.3a1.51,1.51,0,1,1,1.5-1.52A1.52,1.52,0,0,1,50,126.3Z" fill="#192d64"/>
        <path d="M62.06,126.3a1.51,1.51,0,1,1,1.5-1.52A1.52,1.52,0,0,1,62.06,126.3Z" fill="#192d64"/>
        <path d="M68.08,126.3a1.51,1.51,0,1,1,1.5-1.52A1.51,1.51,0,0,1,68.08,126.3Z" fill="#192d64"/>
        <path d="M80.13,126.3a1.51,1.51,0,1,1,1.5-1.52A1.51,1.51,0,0,1,80.13,126.3Z" fill="#192d64"/>
        <path d="M86.16,126.3a1.51,1.51,0,1,1,1.5-1.52A1.52,1.52,0,0,1,86.16,126.3Z" fill="#192d64"/>
        <path d="M98.21,126.3a1.51,1.51,0,1,1,1.5-1.52A1.52,1.52,0,0,1,98.21,126.3Z" fill="#192d64"/>
        <path d="M104.23,126.3a1.51,1.51,0,1,1,1.5-1.52A1.51,1.51,0,0,1,104.23,126.3Z" fill="#192d64"/>
      </g>
      <g>
        <path d="M44,130.55a1.51,1.51,0,1,1,1.5-1.52A1.5,1.5,0,0,1,44,130.55Z" fill="#192d64"/>
        <path d="M50,130.55a1.51,1.51,0,1,1,1.5-1.52A1.51,1.51,0,0,1,50,130.55Z" fill="#192d64"/>
        <path d="M62.06,130.55a1.51,1.51,0,1,1,1.5-1.52A1.51,1.51,0,0,1,62.06,130.55Z" fill="#192d64"/>
        <path d="M68.08,130.55a1.51,1.51,0,1,1,1.5-1.52A1.5,1.5,0,0,1,68.08,130.55Z" fill="#192d64"/>
        <path d="M80.13,130.55a1.51,1.51,0,1,1,1.5-1.52A1.5,1.5,0,0,1,80.13,130.55Z" fill="#192d64"/>
        <path d="M86.16,130.55a1.51,1.51,0,1,1,1.5-1.52A1.51,1.51,0,0,1,86.16,130.55Z" fill="#192d64"/>
        <path d="M98.21,130.55a1.51,1.51,0,1,1,1.5-1.52A1.51,1.51,0,0,1,98.21,130.55Z" fill="#192d64"/>
        <path d="M104.23,130.55a1.51,1.51,0,1,1,1.5-1.52A1.5,1.5,0,0,1,104.23,130.55Z" fill="#192d64"/>
      </g>
      <g>
        <path d="M44,134.8a1.51,1.51,0,1,1,1.5-1.52A1.5,1.5,0,0,1,44,134.8Z" fill="#192d64"/>
        <path d="M50,134.8a1.51,1.51,0,1,1,1.5-1.52A1.51,1.51,0,0,1,50,134.8Z" fill="#192d64"/>
        <path d="M62.06,134.8a1.51,1.51,0,1,1,1.5-1.52A1.51,1.51,0,0,1,62.06,134.8Z" fill="#192d64"/>
        <path d="M68.08,134.8a1.51,1.51,0,1,1,1.5-1.52A1.5,1.5,0,0,1,68.08,134.8Z" fill="#192d64"/>
        <path d="M80.13,134.8a1.51,1.51,0,1,1,1.5-1.52A1.5,1.5,0,0,1,80.13,134.8Z" fill="#192d64"/>
        <path d="M86.16,134.8a1.51,1.51,0,1,1,1.5-1.52A1.51,1.51,0,0,1,86.16,134.8Z" fill="#192d64"/>
        <path d="M98.21,134.8a1.51,1.51,0,1,1,1.5-1.52A1.51,1.51,0,0,1,98.21,134.8Z" fill="#192d64"/>
        <path d="M104.23,134.8a1.51,1.51,0,1,1,1.5-1.52A1.5,1.5,0,0,1,104.23,134.8Z" fill="#192d64"/>
      </g>
      <g>
        <path d="M7.83,139.05a1.51,1.51,0,1,1,1.5-1.52A1.5,1.5,0,0,1,7.83,139.05Z" fill="#192d64"/>
        <path d="M13.86,139.05a1.51,1.51,0,1,1,1.5-1.52A1.51,1.51,0,0,1,13.86,139.05Z" fill="#192d64"/>
        <path d="M19.88,139.05a1.51,1.51,0,1,1,1.5-1.52A1.5,1.5,0,0,1,19.88,139.05Z" fill="#192d64"/>
        <path d="M25.91,139.05a1.51,1.51,0,1,1,1.5-1.52A1.51,1.51,0,0,1,25.91,139.05Z" fill="#192d64"/>
        <path d="M31.93,139.05a1.51,1.51,0,1,1,1.5-1.52A1.5,1.5,0,0,1,31.93,139.05Z" fill="#192d64"/>
        <path d="M44,139.05a1.51,1.51,0,1,1,1.5-1.52A1.5,1.5,0,0,1,44,139.05Z" fill="#192d64"/>
        <path d="M50,139.05a1.51,1.51,0,1,1,1.5-1.52A1.51,1.51,0,0,1,50,139.05Z" fill="#192d64"/>
        <path d="M62.06,139.05a1.51,1.51,0,1,1,1.5-1.52A1.51,1.51,0,0,1,62.06,139.05Z" fill="#192d64"/>
        <path d="M68.08,139.05a1.51,1.51,0,1,1,1.5-1.52A1.5,1.5,0,0,1,68.08,139.05Z" fill="#192d64"/>
        <path d="M80.13,139.05a1.51,1.51,0,1,1,1.5-1.52A1.5,1.5,0,0,1,80.13,139.05Z" fill="#192d64"/>
        <path d="M86.16,139.05a1.51,1.51,0,1,1,1.5-1.52A1.51,1.51,0,0,1,86.16,139.05Z" fill="#192d64"/>
        <path d="M98.21,139.05a1.51,1.51,0,1,1,1.5-1.52A1.51,1.51,0,0,1,98.21,139.05Z" fill="#192d64"/>
        <path d="M104.23,139.05a1.51,1.51,0,1,1,1.5-1.52A1.5,1.5,0,0,1,104.23,139.05Z" fill="#192d64"/>
      </g>
      <g>
        <path d="M1.81,143.3a1.51,1.51,0,1,1,1.5-1.52A1.51,1.51,0,0,1,1.81,143.3Z" fill="#192d64"/>
        <path d="M7.83,143.3a1.51,1.51,0,1,1,1.5-1.52A1.5,1.5,0,0,1,7.83,143.3Z" fill="#192d64"/>
        <path d="M13.86,143.3a1.51,1.51,0,1,1,1.5-1.52A1.51,1.51,0,0,1,13.86,143.3Z" fill="#192d64"/>
        <path d="M19.88,143.3a1.51,1.51,0,1,1,1.5-1.52A1.5,1.5,0,0,1,19.88,143.3Z" fill="#192d64"/>
        <path d="M25.91,143.3a1.51,1.51,0,1,1,1.5-1.52A1.51,1.51,0,0,1,25.91,143.3Z" fill="#192d64"/>
        <path d="M31.93,143.3a1.51,1.51,0,1,1,1.5-1.52A1.5,1.5,0,0,1,31.93,143.3Z" fill="#192d64"/>
        <path d="M44,143.3a1.51,1.51,0,1,1,1.5-1.52A1.5,1.5,0,0,1,44,143.3Z" fill="#192d64"/>
        <path d="M50,143.3a1.51,1.51,0,1,1,1.5-1.52A1.51,1.51,0,0,1,50,143.3Z" fill="#192d64"/>
        <path d="M62.06,143.3a1.51,1.51,0,1,1,1.5-1.52A1.51,1.51,0,0,1,62.06,143.3Z" fill="#192d64"/>
        <path d="M68.08,143.3a1.51,1.51,0,1,1,1.5-1.52A1.5,1.5,0,0,1,68.08,143.3Z" fill="#192d64"/>
        <path d="M80.13,143.3a1.51,1.51,0,1,1,1.5-1.52A1.5,1.5,0,0,1,80.13,143.3Z" fill="#192d64"/>
        <path d="M86.16,143.3a1.51,1.51,0,1,1,1.5-1.52A1.51,1.51,0,0,1,86.16,143.3Z" fill="#192d64"/>
        <path d="M98.21,143.3a1.51,1.51,0,1,1,1.5-1.52A1.51,1.51,0,0,1,98.21,143.3Z" fill="#192d64"/>
      </g>
      <g>
        <path d="M25.91,147.56a1.51,1.51,0,1,1,1.5-1.52A1.52,1.52,0,0,1,25.91,147.56Z" fill="#192d64"/>
        <path d="M31.93,147.56a1.51,1.51,0,1,1,1.5-1.52A1.51,1.51,0,0,1,31.93,147.56Z" fill="#192d64"/>
        <path d="M44,147.56a1.51,1.51,0,1,1,1.5-1.52A1.51,1.51,0,0,1,44,147.56Z" fill="#192d64"/>
        <path d="M50,147.56a1.51,1.51,0,1,1,1.5-1.52A1.52,1.52,0,0,1,50,147.56Z" fill="#192d64"/>
        <path d="M62.06,147.56a1.51,1.51,0,1,1,1.5-1.52A1.52,1.52,0,0,1,62.06,147.56Z" fill="#192d64"/>
        <path d="M68.08,147.56a1.51,1.51,0,1,1,1.5-1.52A1.51,1.51,0,0,1,68.08,147.56Z" fill="#192d64"/>
        <path d="M80.13,147.56a1.51,1.51,0,1,1,1.5-1.52A1.51,1.51,0,0,1,80.13,147.56Z" fill="#192d64"/>
        <path d="M86.16,147.56a1.51,1.51,0,1,1,1.5-1.52A1.52,1.52,0,0,1,86.16,147.56Z" fill="#192d64"/>
        <path d="M98.21,147.56a1.51,1.51,0,1,1,1.5-1.52A1.52,1.52,0,0,1,98.21,147.56Z" fill="#192d64"/>
      </g>
      <g>
        <path d="M25.91,151.81a1.51,1.51,0,1,1,1.5-1.52A1.52,1.52,0,0,1,25.91,151.81Z" fill="#192d64"/>
        <path d="M31.93,151.81a1.51,1.51,0,1,1,1.5-1.52A1.51,1.51,0,0,1,31.93,151.81Z" fill="#192d64"/>
        <path d="M44,151.81a1.51,1.51,0,1,1,1.5-1.52A1.51,1.51,0,0,1,44,151.81Z" fill="#192d64"/>
        <path d="M50,151.81a1.51,1.51,0,1,1,1.5-1.52A1.52,1.52,0,0,1,50,151.81Z" fill="#192d64"/>
        <path d="M62.06,151.81a1.51,1.51,0,1,1,1.5-1.52A1.52,1.52,0,0,1,62.06,151.81Z" fill="#192d64"/>
        <path d="M68.08,151.81a1.51,1.51,0,1,1,1.5-1.52A1.51,1.51,0,0,1,68.08,151.81Z" fill="#192d64"/>
        <path d="M80.13,151.81a1.51,1.51,0,1,1,1.5-1.52A1.51,1.51,0,0,1,80.13,151.81Z" fill="#192d64"/>
        <path d="M86.16,151.81a1.51,1.51,0,1,1,1.5-1.52A1.52,1.52,0,0,1,86.16,151.81Z" fill="#192d64"/>
      </g>
      <g>
        <path d="M25.91,156.06a1.51,1.51,0,1,1,0-3,1.51,1.51,0,0,1,0,3Z" fill="#192d64"/>
        <path d="M31.93,156.06a1.51,1.51,0,1,1,1.5-1.52A1.51,1.51,0,0,1,31.93,156.06Z" fill="#192d64"/>
        <path d="M44,156.06a1.51,1.51,0,1,1,1.5-1.52A1.51,1.51,0,0,1,44,156.06Z" fill="#192d64"/>
        <path d="M50,156.06a1.51,1.51,0,1,1,0-3,1.51,1.51,0,0,1,0,3Z" fill="#192d64"/>
        <path d="M62.06,156.06a1.51,1.51,0,1,1,0-3,1.51,1.51,0,0,1,0,3Z" fill="#192d64"/>
        <path d="M68.08,156.06a1.51,1.51,0,1,1,1.5-1.52A1.51,1.51,0,0,1,68.08,156.06Z" fill="#192d64"/>
        <path d="M80.13,156.06a1.51,1.51,0,1,1,1.5-1.52A1.51,1.51,0,0,1,80.13,156.06Z" fill="#192d64"/>
        <path d="M86.16,156.06a1.51,1.51,0,1,1,0-3,1.51,1.51,0,0,1,0,3Z" fill="#192d64"/>
      </g>
      <g>
        <path d="M25.91,160.31a1.51,1.51,0,1,1,0-3,1.51,1.51,0,0,1,0,3Z" fill="#192d64"/>
        <path d="M31.93,160.31a1.51,1.51,0,1,1,1.5-1.52A1.51,1.51,0,0,1,31.93,160.31Z" fill="#192d64"/>
        <path d="M44,160.31a1.51,1.51,0,1,1,1.5-1.52A1.51,1.51,0,0,1,44,160.31Z" fill="#192d64"/>
        <path d="M50,160.31a1.51,1.51,0,1,1,0-3,1.51,1.51,0,0,1,0,3Z" fill="#192d64"/>
        <path d="M62.06,160.31a1.51,1.51,0,1,1,0-3,1.51,1.51,0,0,1,0,3Z" fill="#192d64"/>
        <path d="M68.08,160.31a1.51,1.51,0,1,1,1.5-1.52A1.51,1.51,0,0,1,68.08,160.31Z" fill="#192d64"/>
        <path d="M80.13,160.31a1.51,1.51,0,1,1,1.5-1.52A1.51,1.51,0,0,1,80.13,160.31Z" fill="#192d64"/>
        <path d="M86.16,160.31a1.51,1.51,0,1,1,0-3,1.51,1.51,0,0,1,0,3Z" fill="#192d64"/>
      </g>
      <g>
        <path d="M25.91,164.56a1.51,1.51,0,1,1,1.5-1.52A1.51,1.51,0,0,1,25.91,164.56Z" fill="#192d64"/>
        <path d="M31.93,164.56a1.51,1.51,0,1,1,1.5-1.52A1.5,1.5,0,0,1,31.93,164.56Z" fill="#192d64"/>
        <path d="M44,164.56a1.51,1.51,0,1,1,1.5-1.52A1.5,1.5,0,0,1,44,164.56Z" fill="#192d64"/>
        <path d="M50,164.56a1.51,1.51,0,1,1,1.5-1.52A1.51,1.51,0,0,1,50,164.56Z" fill="#192d64"/>
        <path d="M62.06,164.56a1.51,1.51,0,1,1,1.5-1.52A1.51,1.51,0,0,1,62.06,164.56Z" fill="#192d64"/>
        <path d="M68.08,164.56a1.51,1.51,0,1,1,1.5-1.52A1.5,1.5,0,0,1,68.08,164.56Z" fill="#192d64"/>
        <path d="M80.13,164.56a1.51,1.51,0,1,1,1.5-1.52A1.5,1.5,0,0,1,80.13,164.56Z" fill="#192d64"/>
      </g>
      <g>
        <path d="M25.91,168.81a1.51,1.51,0,1,1,1.5-1.52A1.51,1.51,0,0,1,25.91,168.81Z" fill="#192d64"/>
        <path d="M31.93,168.81a1.51,1.51,0,1,1,1.5-1.52A1.5,1.5,0,0,1,31.93,168.81Z" fill="#192d64"/>
        <path d="M44,168.81a1.51,1.51,0,1,1,1.5-1.52A1.5,1.5,0,0,1,44,168.81Z" fill="#192d64"/>
        <path d="M50,168.81a1.51,1.51,0,1,1,1.5-1.52A1.51,1.51,0,0,1,50,168.81Z" fill="#192d64"/>
        <path d="M62.06,168.81a1.51,1.51,0,1,1,1.5-1.52A1.51,1.51,0,0,1,62.06,168.81Z" fill="#192d64"/>
        <path d="M68.08,168.81a1.51,1.51,0,1,1,1.5-1.52A1.5,1.5,0,0,1,68.08,168.81Z" fill="#192d64"/>
        <path d="M80.13,168.81a1.51,1.51,0,1,1,1.5-1.52A1.5,1.5,0,0,1,80.13,168.81Z" fill="#192d64"/>
      </g>
      <g>
        <path d="M25.91,173.06a1.51,1.51,0,1,1,1.5-1.51A1.51,1.51,0,0,1,25.91,173.06Z" fill="#192d64"/>
        <path d="M31.93,173.06a1.51,1.51,0,1,1,1.5-1.51A1.5,1.5,0,0,1,31.93,173.06Z" fill="#192d64"/>
        <path d="M44,173.06a1.51,1.51,0,1,1,1.5-1.51A1.5,1.5,0,0,1,44,173.06Z" fill="#192d64"/>
        <path d="M50,173.06a1.51,1.51,0,1,1,1.5-1.51A1.51,1.51,0,0,1,50,173.06Z" fill="#192d64"/>
        <path d="M62.06,173.06a1.51,1.51,0,1,1,1.5-1.51A1.51,1.51,0,0,1,62.06,173.06Z" fill="#192d64"/>
        <path d="M68.08,173.06a1.51,1.51,0,1,1,1.5-1.51A1.5,1.5,0,0,1,68.08,173.06Z" fill="#192d64"/>
      </g>
      <g>
        <path d="M25.91,177.31a1.51,1.51,0,1,1,1.5-1.51A1.51,1.51,0,0,1,25.91,177.31Z" fill="#192d64"/>
        <path d="M31.93,177.31a1.51,1.51,0,1,1,1.5-1.51A1.5,1.5,0,0,1,31.93,177.31Z" fill="#192d64"/>
        <path d="M44,177.31a1.51,1.51,0,1,1,1.5-1.51A1.5,1.5,0,0,1,44,177.31Z" fill="#192d64"/>
        <path d="M50,177.31a1.51,1.51,0,1,1,1.5-1.51A1.51,1.51,0,0,1,50,177.31Z" fill="#192d64"/>
        <path d="M62.06,177.31a1.51,1.51,0,1,1,1.5-1.51A1.51,1.51,0,0,1,62.06,177.31Z" fill="#192d64"/>
        <path d="M68.08,177.31a1.51,1.51,0,1,1,1.5-1.51A1.5,1.5,0,0,1,68.08,177.31Z" fill="#192d64"/>
      </g>
      <g>
        <path d="M25.91,181.57a1.51,1.51,0,1,1,1.5-1.52A1.52,1.52,0,0,1,25.91,181.57Z" fill="#192d64"/>
        <path d="M31.93,181.57a1.51,1.51,0,1,1,1.5-1.52A1.51,1.51,0,0,1,31.93,181.57Z" fill="#192d64"/>
        <path d="M44,181.57a1.51,1.51,0,1,1,1.5-1.52A1.51,1.51,0,0,1,44,181.57Z" fill="#192d64"/>
        <path d="M50,181.57a1.51,1.51,0,1,1,1.5-1.52A1.52,1.52,0,0,1,50,181.57Z" fill="#192d64"/>
        <path d="M62.06,181.57a1.51,1.51,0,1,1,1.5-1.52A1.52,1.52,0,0,1,62.06,181.57Z" fill="#192d64"/>
        <path d="M68.08,181.57a1.51,1.51,0,1,1,1.5-1.52A1.51,1.51,0,0,1,68.08,181.57Z" fill="#192d64"/>
      </g>
      <g>
        <path d="M25.91,185.82a1.51,1.51,0,1,1,1.5-1.52A1.52,1.52,0,0,1,25.91,185.82Z" fill="#192d64"/>
        <path d="M31.93,185.82a1.51,1.51,0,1,1,1.5-1.52A1.51,1.51,0,0,1,31.93,185.82Z" fill="#192d64"/>
        <path d="M44,185.82a1.51,1.51,0,1,1,1.5-1.52A1.51,1.51,0,0,1,44,185.82Z" fill="#192d64"/>
        <path d="M50,185.82a1.51,1.51,0,1,1,1.5-1.52A1.52,1.52,0,0,1,50,185.82Z" fill="#192d64"/>
        <path d="M62.06,185.82a1.51,1.51,0,1,1,1.5-1.52A1.52,1.52,0,0,1,62.06,185.82Z" fill="#192d64"/>
      </g>
      <g>
        <path d="M25.91,190.07a1.51,1.51,0,1,1,0-3,1.51,1.51,0,0,1,0,3Z" fill="#192d64"/>
        <path d="M31.93,190.07a1.51,1.51,0,1,1,1.5-1.52A1.51,1.51,0,0,1,31.93,190.07Z" fill="#192d64"/>
        <path d="M44,190.07a1.51,1.51,0,1,1,1.5-1.52A1.51,1.51,0,0,1,44,190.07Z" fill="#192d64"/>
        <path d="M50,190.07a1.51,1.51,0,1,1,0-3,1.51,1.51,0,0,1,0,3Z" fill="#192d64"/>
        <path d="M62.06,190.07a1.51,1.51,0,1,1,0-3,1.51,1.51,0,0,1,0,3Z" fill="#192d64"/>
      </g>
      <g>
        <path d="M25.91,194.32a1.51,1.51,0,1,1,1.5-1.52A1.51,1.51,0,0,1,25.91,194.32Z" fill="#192d64"/>
        <path d="M31.93,194.32a1.51,1.51,0,1,1,1.5-1.52A1.5,1.5,0,0,1,31.93,194.32Z" fill="#192d64"/>
        <path d="M44,194.32a1.51,1.51,0,1,1,1.5-1.52A1.5,1.5,0,0,1,44,194.32Z" fill="#192d64"/>
        <path d="M50,194.32a1.51,1.51,0,1,1,1.5-1.52A1.51,1.51,0,0,1,50,194.32Z" fill="#192d64"/>
      </g>
      <g>
        <path d="M25.91,198.57a1.51,1.51,0,1,1,1.5-1.52A1.51,1.51,0,0,1,25.91,198.57Z" fill="#192d64"/>
        <path d="M31.93,198.57a1.51,1.51,0,1,1,1.5-1.52A1.5,1.5,0,0,1,31.93,198.57Z" fill="#192d64"/>
        <path d="M44,198.57a1.51,1.51,0,1,1,1.5-1.52A1.5,1.5,0,0,1,44,198.57Z" fill="#192d64"/>
        <path d="M50,198.57a1.51,1.51,0,1,1,1.5-1.52A1.51,1.51,0,0,1,50,198.57Z" fill="#192d64"/>
      </g>
      <g>
        <path d="M25.91,202.82a1.51,1.51,0,1,1,1.5-1.52A1.51,1.51,0,0,1,25.91,202.82Z" fill="#192d64"/>
        <path d="M31.93,202.82a1.51,1.51,0,1,1,1.5-1.52A1.5,1.5,0,0,1,31.93,202.82Z" fill="#192d64"/>
        <path d="M44,202.82a1.51,1.51,0,1,1,1.5-1.52A1.5,1.5,0,0,1,44,202.82Z" fill="#192d64"/>
        <path d="M50,202.82a1.51,1.51,0,1,1,1.5-1.52A1.51,1.51,0,0,1,50,202.82Z" fill="#192d64"/>
      </g>
      <g>
        <path d="M25.91,207.07a1.51,1.51,0,1,1,1.5-1.52A1.51,1.51,0,0,1,25.91,207.07Z" fill="#192d64"/>
        <path d="M31.93,207.07a1.51,1.51,0,1,1,1.5-1.52A1.5,1.5,0,0,1,31.93,207.07Z" fill="#192d64"/>
        <path d="M44,207.07a1.51,1.51,0,1,1,1.5-1.52A1.5,1.5,0,0,1,44,207.07Z" fill="#192d64"/>
      </g>
      <g>
        <path d="M25.91,211.32a1.51,1.51,0,1,1,1.5-1.51A1.51,1.51,0,0,1,25.91,211.32Z" fill="#192d64"/>
        <path d="M31.93,211.32a1.51,1.51,0,1,1,1.5-1.51A1.5,1.5,0,0,1,31.93,211.32Z" fill="#192d64"/>
        <path d="M44,211.32a1.51,1.51,0,1,1,1.5-1.51A1.5,1.5,0,0,1,44,211.32Z" fill="#192d64"/>
      </g>
      <g>
        <path d="M25.91,215.58a1.51,1.51,0,1,1,1.5-1.52A1.52,1.52,0,0,1,25.91,215.58Z" fill="#192d64"/>
        <path d="M31.93,215.58a1.51,1.51,0,1,1,1.5-1.52A1.51,1.51,0,0,1,31.93,215.58Z" fill="#192d64"/>
      </g>
      <g>
        <path d="M25.91,219.83a1.51,1.51,0,1,1,1.5-1.52A1.52,1.52,0,0,1,25.91,219.83Z" fill="#192d64"/>
        <path d="M31.93,219.83a1.51,1.51,0,1,1,1.5-1.52A1.51,1.51,0,0,1,31.93,219.83Z" fill="#192d64"/>
      </g>
      <g>
        <path d="M25.91,224.08a1.51,1.51,0,1,1,1.5-1.52A1.51,1.51,0,0,1,25.91,224.08Z" fill="#192d64"/>
        <path d="M31.93,224.08a1.51,1.51,0,1,1,1.5-1.52A1.5,1.5,0,0,1,31.93,224.08Z" fill="#192d64"/>
      </g>
      <path d="M25.91,228.33a1.51,1.51,0,1,1,1.5-1.52A1.51,1.51,0,0,1,25.91,228.33Z" fill="#192d64"/>
      <path d="M25.91,232.58a1.51,1.51,0,1,1,1.5-1.52A1.51,1.51,0,0,1,25.91,232.58Z" fill="#192d64"/>
    </g>
    <g>
      <path d="M140.7,66.71V55.06a4.13,4.13,0,0,0-.28-1.6,3,3,0,0,0-.71-1,2.54,2.54,0,0,0-1-.57,4,4,0,0,0-1.12-.16,3.57,3.57,0,0,0-1.1.18,2.9,2.9,0,0,0-1,.57,2.78,2.78,0,0,0-.71,1,4.18,4.18,0,0,0-.27,1.58V66.71h-4.77V40.63h4.77v8.75a6.32,6.32,0,0,1,2.12-1.48,6.24,6.24,0,0,1,2.45-.5,6.81,6.81,0,0,1,2.77.52,5.49,5.49,0,0,1,2,1.44,6.18,6.18,0,0,1,1.2,2.22,9.15,9.15,0,0,1,.41,2.78V66.71Z" fill="#000008"/>
      <path d="M147.62,70.19v-1H159v1Z" fill="#000008"/>
      <path d="M170.5,66.71v-1.8a6,6,0,0,1-2.09,1.56,6.93,6.93,0,0,1-2.64.46,7.7,7.7,0,0,1-2.63-.46,5.66,5.66,0,0,1-2-1.26A4.78,4.78,0,0,1,160,63.56a9.58,9.58,0,0,1-.57-2,17.25,17.25,0,0,1-.22-2.2c0-.75,0-1.48,0-2.19s0-1.44,0-2.18a17.12,17.12,0,0,1,.22-2.18,9.08,9.08,0,0,1,.57-2,5.17,5.17,0,0,1,1.12-1.67,5.65,5.65,0,0,1,2-1.26,7.56,7.56,0,0,1,2.62-.46,7.31,7.31,0,0,1,2.58.42,5.49,5.49,0,0,1,2.07,1.49V40.63h4.76V66.71Zm-.11-9.56a20.35,20.35,0,0,0-.11-2.16,5.41,5.41,0,0,0-.46-1.73,2.77,2.77,0,0,0-1-1.15,3.65,3.65,0,0,0-3.4,0,2.66,2.66,0,0,0-1,1.15A5.69,5.69,0,0,0,164,55a18,18,0,0,0-.11,2.16,18.69,18.69,0,0,0,.11,2.18,5.68,5.68,0,0,0,.44,1.74,2.66,2.66,0,0,0,1,1.15,3.65,3.65,0,0,0,3.4,0,2.77,2.77,0,0,0,1-1.15,5.4,5.4,0,0,0,.46-1.74A21.18,21.18,0,0,0,170.39,57.15Z" fill="#000008"/>
      <path d="M189.55,66.71V65.06a6.36,6.36,0,0,1-2,1.39,7,7,0,0,1-2.69.44A6.59,6.59,0,0,1,180,65.21a5.43,5.43,0,0,1-1.18-1.91,7.07,7.07,0,0,1-.4-2.38,5.86,5.86,0,0,1,.4-2.14A5,5,0,0,1,180,57a5.82,5.82,0,0,1,2-1.19,8.53,8.53,0,0,1,2.87-.44h4.51v-1a2.87,2.87,0,0,0-.83-2.29,4.13,4.13,0,0,0-2.73-.72,7,7,0,0,0-1.2.09,4.15,4.15,0,0,0-.94.28,3.74,3.74,0,0,0-.79.47,5.7,5.7,0,0,0-.73.74l-3-3A7.32,7.32,0,0,1,182.13,48a12.17,12.17,0,0,1,3.94-.55q4,0,6.08,1.69a6.15,6.15,0,0,1,2,5V66.71Zm-.11-8.06h-3.77a3,3,0,0,0-2,.57,1.91,1.91,0,0,0-.7,1.59,2,2,0,0,0,.68,1.59,3,3,0,0,0,2.07.61,8,8,0,0,0,1.68-.15,2.59,2.59,0,0,0,1.32-.77,3.25,3.25,0,0,0,.7-2.42Z" fill="#000008"/>
    </g>
    <g>
      <path d="M134.89,168.15v14.91h-4.76V168.15h-2v-3.62h2v-2.38a6.17,6.17,0,0,1,.33-2,5.06,5.06,0,0,1,1-1.74,4.91,4.91,0,0,1,1.72-1.24,6,6,0,0,1,2.51-.48h2.71v4h-1.87c-1.1,0-1.65.57-1.65,1.72v2.09h3.52v3.62Z" fill="#000008"/>
      <path d="M140.39,183.06v-3.62l8.46-11.18h-8V164h14.07v3.62l-8.57,11.18h8.57v4.28Z" fill="#000008"/>
      <path d="M189.18,183.06V171.52a4.13,4.13,0,0,0-.28-1.64,2.79,2.79,0,0,0-.73-1.07,2.85,2.85,0,0,0-1-.58A3.65,3.65,0,0,0,186,168a3.71,3.71,0,0,0-1.12.19,3.13,3.13,0,0,0-1,.56,3,3,0,0,0-.75,1.05,3.93,3.93,0,0,0-.29,1.57v11.65h-4.76V171.52a4.13,4.13,0,0,0-.28-1.64,2.74,2.74,0,0,0-1.75-1.65,3.76,3.76,0,0,0-1.12-.19,3.71,3.71,0,0,0-1.12.19,2.73,2.73,0,0,0-1,.58,3.08,3.08,0,0,0-.76,1.07,4.12,4.12,0,0,0-.29,1.64v11.54H167V164h4.65v1.76a6.74,6.74,0,0,1,4.76-2,6.77,6.77,0,0,1,2.88.58,5.77,5.77,0,0,1,2.18,1.84,7.5,7.5,0,0,1,2.56-1.85,8.12,8.12,0,0,1,3.15-.57,7.66,7.66,0,0,1,2.66.44,5.44,5.44,0,0,1,2,1.24,6.53,6.53,0,0,1,1.63,2.51,8.79,8.79,0,0,1,.46,2.91v12.2Z" fill="#000008"/>
      <path d="M214.67,173.5c0,.71,0,1.44,0,2.2a17.25,17.25,0,0,1-.22,2.2,9.35,9.35,0,0,1-.59,2,5.13,5.13,0,0,1-1.1,1.65,5.47,5.47,0,0,1-2,1.26,7.33,7.33,0,0,1-2.62.46,7.12,7.12,0,0,1-2.56-.42,5.33,5.33,0,0,1-2.06-1.48v8.68H198.7V164h4.62v1.79a5.83,5.83,0,0,1,2.1-1.55,6.92,6.92,0,0,1,2.66-.46,7.33,7.33,0,0,1,2.62.46,5.47,5.47,0,0,1,2,1.26,5.7,5.7,0,0,1,1.1,1.67,9,9,0,0,1,.59,2,17.31,17.31,0,0,1,.22,2.18C214.66,172.07,214.67,172.79,214.67,173.5Zm-4.76,0a20.49,20.49,0,0,0-.11-2.16,5.62,5.62,0,0,0-.44-1.72,2.69,2.69,0,0,0-1-1.16,3.06,3.06,0,0,0-1.7-.42,3.09,3.09,0,0,0-1.71.42,2.76,2.76,0,0,0-1,1.16,5.93,5.93,0,0,0-.44,1.72,20.49,20.49,0,0,0-.11,2.16,21,21,0,0,0,.11,2.18,6,6,0,0,0,.44,1.74,2.76,2.76,0,0,0,1,1.16,3.09,3.09,0,0,0,1.71.42,3.06,3.06,0,0,0,1.7-.42,2.69,2.69,0,0,0,1-1.16,5.68,5.68,0,0,0,.44-1.74A21,21,0,0,0,209.91,173.5Z" fill="#000008"/>
      <path d="M224.82,183.06a6.14,6.14,0,0,1-2.51-.47,5.06,5.06,0,0,1-1.72-1.25,4.86,4.86,0,0,1-1-1.74,6.43,6.43,0,0,1-.31-2v-9.45h-2v-3.62h2v-5.64h4.76v5.64h3.37v3.62h-3.37v9.16c0,1.15.55,1.72,1.65,1.72h1.72v4Z" fill="#000008"/>
    </g>
    <g>
      <path d="M138.64,109.3v-6.91h-7.19v6.91h-1.62V94.16h1.62v6.78h7.19V94.16h1.61V109.3Z" fill="#000008"/>
      <path d="M154.78,101.73c0,.81,0,1.51,0,2.12a10.56,10.56,0,0,1-.16,1.61,5.28,5.28,0,0,1-.43,1.29,4.29,4.29,0,0,1-.82,1.11,5.34,5.34,0,0,1-1.74,1.17,5.69,5.69,0,0,1-2.13.4,5.26,5.26,0,0,1-3.87-1.57,4.53,4.53,0,0,1-.82-1.11,4.88,4.88,0,0,1-.42-1.29,8.51,8.51,0,0,1-.16-1.61c0-.61,0-1.31,0-2.12s0-1.51,0-2.12a8.51,8.51,0,0,1,.16-1.61,4.88,4.88,0,0,1,.42-1.29,4.31,4.31,0,0,1,.82-1.1,5.53,5.53,0,0,1,7.74,0,4.09,4.09,0,0,1,.82,1.1A5.28,5.28,0,0,1,154.6,98a10.56,10.56,0,0,1,.16,1.61C154.77,100.22,154.78,100.92,154.78,101.73Zm-1.62,0q0-1.19,0-2a9.68,9.68,0,0,0-.14-1.39,3.6,3.6,0,0,0-.32-1,3,3,0,0,0-.57-.78,3.62,3.62,0,0,0-1.18-.8,3.82,3.82,0,0,0-2.87,0,3.52,3.52,0,0,0-1.18.8,2.83,2.83,0,0,0-.58.78,3.6,3.6,0,0,0-.32,1,11.37,11.37,0,0,0-.14,1.39q0,.82,0,2t0,2a11.37,11.37,0,0,0,.14,1.39,3.49,3.49,0,0,0,.32,1,2.83,2.83,0,0,0,.58.78,3.52,3.52,0,0,0,1.18.8,3.82,3.82,0,0,0,2.87,0,3.62,3.62,0,0,0,1.18-.8,3,3,0,0,0,.57-.78,3.49,3.49,0,0,0,.32-1,9.68,9.68,0,0,0,.14-1.39Q153.16,102.92,153.16,101.73Z" fill="#000008"/>
      <path d="M168.86,104.92a6.45,6.45,0,0,1-.65,1.9,4.88,4.88,0,0,1-1.15,1.42,5,5,0,0,1-1.56.88,5.53,5.53,0,0,1-1.9.31,5.7,5.7,0,0,1-2.11-.4,5.32,5.32,0,0,1-1.76-1.17,4.48,4.48,0,0,1-.81-1.11,4.55,4.55,0,0,1-.43-1.29,9.42,9.42,0,0,1-.16-1.61c0-.61,0-1.31,0-2.12s0-1.51,0-2.12a9.42,9.42,0,0,1,.16-1.61,4.55,4.55,0,0,1,.43-1.29,4.26,4.26,0,0,1,.81-1.1,5.17,5.17,0,0,1,1.76-1.17,5.79,5.79,0,0,1,4-.1,5.2,5.2,0,0,1,1.56.88,5,5,0,0,1,1.15,1.42,6.45,6.45,0,0,1,.65,1.9H167.2A4,4,0,0,0,166,96.31a3.43,3.43,0,0,0-2.37-.83,3.9,3.9,0,0,0-1.43.27,3.36,3.36,0,0,0-1.18.79,3.29,3.29,0,0,0-.58.78,3.57,3.57,0,0,0-.31,1,8.68,8.68,0,0,0-.14,1.4q0,.82,0,2t0,2a8.68,8.68,0,0,0,.14,1.4,3.57,3.57,0,0,0,.31,1,3.29,3.29,0,0,0,.58.78,3.36,3.36,0,0,0,1.18.79,3.9,3.9,0,0,0,1.43.27,3.5,3.5,0,0,0,2.39-.83,4,4,0,0,0,1.25-2.23Z" fill="#000008"/>
      <path d="M181.15,109.3v-6.91H174v6.91h-1.61V94.16H174v6.78h7.19V94.16h1.62V109.3Z" fill="#000008"/>
      <path d="M196.48,105.13a4.17,4.17,0,0,1-.37,1.8,3.77,3.77,0,0,1-1.06,1.35,4.91,4.91,0,0,1-1.66.85,7.23,7.23,0,0,1-2.14.3,8.14,8.14,0,0,1-2.91-.47,6.54,6.54,0,0,1-2.28-1.53l1.11-1.11a5.31,5.31,0,0,0,1.89,1.3,6.32,6.32,0,0,0,2.23.36,4.2,4.2,0,0,0,2.62-.73,2.46,2.46,0,0,0,1-2.07,3.16,3.16,0,0,0-.18-1.09,2,2,0,0,0-.54-.81,2.42,2.42,0,0,0-.76-.45,6.17,6.17,0,0,0-1.22-.27l-1.77-.28a5.52,5.52,0,0,1-2.78-1.15,3.56,3.56,0,0,1-1.15-2.82,4.38,4.38,0,0,1,.34-1.76,3.65,3.65,0,0,1,1-1.35,4.4,4.4,0,0,1,1.52-.86,6,6,0,0,1,2-.31,7.06,7.06,0,0,1,2.48.39,6.42,6.42,0,0,1,2,1.23l-1.05,1a5,5,0,0,0-1.51-1,5.37,5.37,0,0,0-2-.33,3.35,3.35,0,0,0-2.36.77,2.71,2.71,0,0,0-.83,2.06,2.24,2.24,0,0,0,.68,1.76,3.28,3.28,0,0,0,.91.51,6.12,6.12,0,0,0,1.13.33l1.66.25.95.18a4.86,4.86,0,0,1,.73.23,4,4,0,0,1,.59.28,3.59,3.59,0,0,1,.5.37A3.74,3.74,0,0,1,196.48,105.13Z" fill="#000008"/>
      <path d="M209.93,104.92a6.45,6.45,0,0,1-.65,1.9,4.88,4.88,0,0,1-1.15,1.42,5,5,0,0,1-1.56.88,5.61,5.61,0,0,1-1.9.31,5.7,5.7,0,0,1-2.11-.4,5.32,5.32,0,0,1-1.76-1.17,4.53,4.53,0,0,1-.82-1.11,4.88,4.88,0,0,1-.42-1.29,9.42,9.42,0,0,1-.16-1.61c0-.61,0-1.31,0-2.12s0-1.51,0-2.12a9.42,9.42,0,0,1,.16-1.61,4.88,4.88,0,0,1,.42-1.29,4.31,4.31,0,0,1,.82-1.1,5.17,5.17,0,0,1,1.76-1.17,5.51,5.51,0,0,1,2.11-.41,5.61,5.61,0,0,1,1.9.31,5.2,5.2,0,0,1,1.56.88,5,5,0,0,1,1.15,1.42,6.45,6.45,0,0,1,.65,1.9h-1.66A3.94,3.94,0,0,0,207,96.31a3.39,3.39,0,0,0-2.36-.83,3.9,3.9,0,0,0-1.43.27,3.36,3.36,0,0,0-1.18.79,3,3,0,0,0-.58.78,3.56,3.56,0,0,0-.32,1,10.15,10.15,0,0,0-.13,1.4c0,.55,0,1.22,0,2s0,1.46,0,2a10.15,10.15,0,0,0,.13,1.4,3.56,3.56,0,0,0,.32,1,3,3,0,0,0,.58.78,3.36,3.36,0,0,0,1.18.79,3.9,3.9,0,0,0,1.43.27,3.45,3.45,0,0,0,2.38-.83,3.91,3.91,0,0,0,1.26-2.23Z" fill="#000008"/>
      <path d="M222.3,109.3v-6.91h-7.18v6.91H213.5V94.16h1.62v6.78h7.18V94.16h1.62V109.3Z" fill="#000008"/>
      <path d="M238.79,104.3a5.21,5.21,0,0,1-.4,2.08,4.7,4.7,0,0,1-1.1,1.62,5.05,5.05,0,0,1-1.68,1.06,6.26,6.26,0,0,1-4.24,0,4.77,4.77,0,0,1-1.66-1.06,4.7,4.7,0,0,1-1.1-1.62,5.39,5.39,0,0,1-.39-2.08V94.16h1.61v10a4.57,4.57,0,0,0,.26,1.57,3.19,3.19,0,0,0,.73,1.19,3.46,3.46,0,0,0,1.16.77,4.36,4.36,0,0,0,3,0,3.46,3.46,0,0,0,1.16-.77,3.21,3.21,0,0,0,.74-1.19,4.35,4.35,0,0,0,.27-1.57v-10h1.62Z" fill="#000008"/>
      <path d="M243.23,109.3V94.16h1.62v13.7h7.74v1.44Z" fill="#000008"/>
      <path d="M255.82,109.3V94.16h9.4v1.45h-7.78v5.33h6.63v1.45h-6.63v5.47h7.78v1.44Z" fill="#000008"/>
      <path d="M286.85,101.56c0,.52,0,1.08,0,1.66a12.07,12.07,0,0,1-.14,1.71,7.21,7.21,0,0,1-.43,1.61,4.12,4.12,0,0,1-.91,1.36,4.47,4.47,0,0,1-1.66,1,6.21,6.21,0,0,1-2.17.36h-5.19V94.16h5.19a6.21,6.21,0,0,1,2.17.36,4.47,4.47,0,0,1,1.66,1,4.36,4.36,0,0,1,.91,1.31,6.37,6.37,0,0,1,.43,1.49,10.44,10.44,0,0,1,.14,1.59C286.85,100.5,286.85,101,286.85,101.56Zm-1.62,0c0-.47,0-.93,0-1.39a9.33,9.33,0,0,0-.09-1.32,5.51,5.51,0,0,0-.3-1.18,2.92,2.92,0,0,0-.59-1,3.31,3.31,0,0,0-1.34-.86,5.37,5.37,0,0,0-1.64-.24H278v12.25h3.3a5.37,5.37,0,0,0,1.64-.25,3.31,3.31,0,0,0,1.34-.86,2.87,2.87,0,0,0,.59-1,6.67,6.67,0,0,0,.3-1.3,11.09,11.09,0,0,0,.09-1.43C285.23,102.51,285.23,102,285.23,101.56Z" fill="#000008"/>
      <path d="M299.57,109.3l-1.21-3.42h-6.62l-1.21,3.42h-1.72l5.57-15.14h1.36l5.55,15.14Zm-4.49-12.82-2.85,8h5.66Z" fill="#000008"/>
      <path d="M312.93,109.3l-3.45-6.72h-3.64v6.72h-1.61V94.16H310a5.25,5.25,0,0,1,1.81.29,4,4,0,0,1,1.43.83,3.78,3.78,0,0,1,.92,1.32,4.58,4.58,0,0,1,.33,1.77,4,4,0,0,1-.91,2.71,4.18,4.18,0,0,1-2.39,1.35l3.6,6.87Zm0-10.91a2.55,2.55,0,0,0-.84-2.09,3.31,3.31,0,0,0-2.18-.69h-4v5.55h4a3.36,3.36,0,0,0,2.18-.68A2.54,2.54,0,0,0,312.9,98.39Z" fill="#000008"/>
      <path d="M330.24,109.3V97.8l-4.15,9.12h-1.38L320.5,97.8v11.5h-1.62V94.16h1.62l4.93,10.74,4.81-10.74h1.61V109.3Z" fill="#000008"/>
      <path d="M345.68,105.13a4.32,4.32,0,0,1-.37,1.8,3.8,3.8,0,0,1-1.07,1.35,4.91,4.91,0,0,1-1.66.85,7.12,7.12,0,0,1-2.13.3,8.16,8.16,0,0,1-2.92-.47,6.51,6.51,0,0,1-2.27-1.53l1.1-1.11a5.43,5.43,0,0,0,1.9,1.3,6.28,6.28,0,0,0,2.23.36,4.17,4.17,0,0,0,2.61-.73,2.46,2.46,0,0,0,1-2.07,3.16,3.16,0,0,0-.18-1.09,2,2,0,0,0-.54-.81,2.21,2.21,0,0,0-.76-.45,6.17,6.17,0,0,0-1.22-.27l-1.76-.28a5.52,5.52,0,0,1-2.79-1.15,3.56,3.56,0,0,1-1.15-2.82,4.38,4.38,0,0,1,.34-1.76,3.77,3.77,0,0,1,1-1.35,4.5,4.5,0,0,1,1.52-.86,6.08,6.08,0,0,1,2-.31,7.15,7.15,0,0,1,2.49.39,6.38,6.38,0,0,1,2,1.23l-1,1a5,5,0,0,0-1.51-1,5.4,5.4,0,0,0-2-.33,3.35,3.35,0,0,0-2.36.77,2.68,2.68,0,0,0-.83,2.06,2.21,2.21,0,0,0,.68,1.76,3.21,3.21,0,0,0,.9.51,6,6,0,0,0,1.14.33l1.66.25.94.18a5.42,5.42,0,0,1,.74.23,3.91,3.91,0,0,1,.58.28,3.08,3.08,0,0,1,.5.37A3.75,3.75,0,0,1,345.68,105.13Z" fill="#000008"/>
      <path d="M353.42,95.61V109.3H351.8V95.61h-4.38V94.16H357.8v1.45Z" fill="#000008"/>
      <path d="M369.12,109.3l-1.22-3.42h-6.61l-1.21,3.42h-1.73l5.58-15.14h1.36l5.55,15.14Zm-4.49-12.82-2.85,8h5.66Z" fill="#000008"/>
      <path d="M384.39,101.56c0,.52,0,1.08,0,1.66a13.76,13.76,0,0,1-.14,1.71,7.23,7.23,0,0,1-.44,1.61,4.09,4.09,0,0,1-.9,1.36,4.64,4.64,0,0,1-1.66,1,6.25,6.25,0,0,1-2.17.36h-5.19V94.16h5.19a6.25,6.25,0,0,1,2.17.36,4.64,4.64,0,0,1,1.66,1,4.33,4.33,0,0,1,.9,1.31,6.39,6.39,0,0,1,.44,1.49,11.89,11.89,0,0,1,.14,1.59C384.38,100.5,384.39,101,384.39,101.56Zm-1.62,0c0-.47,0-.93,0-1.39a11.05,11.05,0,0,0-.1-1.32,5,5,0,0,0-.29-1.18,3,3,0,0,0-.6-1,3.24,3.24,0,0,0-1.34-.86,5.33,5.33,0,0,0-1.64-.24H375.5v12.25h3.29a5.32,5.32,0,0,0,1.64-.25,3.24,3.24,0,0,0,1.34-.86,2.88,2.88,0,0,0,.6-1,6,6,0,0,0,.29-1.3,13.19,13.19,0,0,0,.1-1.43C382.77,102.51,382.77,102,382.77,101.56Z" fill="#000008"/>
      <path d="M392.88,95.61V109.3h-1.61V95.61h-4.39V94.16h10.38v1.45Z" fill="#000008"/>
      <path d="M140.19,129.83a5.37,5.37,0,0,1-.39,2.07,5,5,0,0,1-1.11,1.63,5.19,5.19,0,0,1-1.68,1.05,6.23,6.23,0,0,1-4.23,0,4.94,4.94,0,0,1-1.67-1.05,4.84,4.84,0,0,1-1.1-1.63,5.37,5.37,0,0,1-.39-2.07V119.68h1.61v10a4.57,4.57,0,0,0,.26,1.57,3.19,3.19,0,0,0,.73,1.19,3.46,3.46,0,0,0,1.16.77,4.1,4.1,0,0,0,1.51.27,4,4,0,0,0,1.51-.27,3.34,3.34,0,0,0,1.91-2,4.57,4.57,0,0,0,.26-1.57v-10h1.62Z" fill="#000008"/>
      <path d="M154,134.82l-8-12.14v12.14h-1.61V119.68h1.53l8,12.1v-12.1h1.61v15.14Z" fill="#000008"/>
      <path d="M160.39,134.82V119.68H162v15.14Z" fill="#000008"/>
      <path d="M171.69,134.82h-1.32l-5-15.14h1.7L171,131.93,175,119.68h1.7Z" fill="#000008"/>
      <path d="M180,134.82V119.68h9.4v1.45h-7.78v5.33h6.63v1.45h-6.63v5.47h7.78v1.44Z" fill="#000008"/>
      <path d="M201.48,134.82,198,128.1H194.4v6.72h-1.62V119.68h5.81a5.58,5.58,0,0,1,1.81.29,4,4,0,0,1,1.42.83,3.63,3.63,0,0,1,.93,1.33,4.49,4.49,0,0,1,.33,1.76,4,4,0,0,1-.92,2.71,4.16,4.16,0,0,1-2.38,1.35l3.6,6.87Zm0-10.91a2.55,2.55,0,0,0-.84-2.09,3.33,3.33,0,0,0-2.18-.69h-4v5.55h4a3.38,3.38,0,0,0,2.18-.68A2.54,2.54,0,0,0,201.46,123.91Z" fill="#000008"/>
      <path d="M216.09,130.65a4.17,4.17,0,0,1-.37,1.8,3.77,3.77,0,0,1-1.06,1.35,4.83,4.83,0,0,1-1.66.85,7.23,7.23,0,0,1-2.14.3,8.14,8.14,0,0,1-2.91-.47,6.54,6.54,0,0,1-2.28-1.53l1.11-1.1a5.41,5.41,0,0,0,1.89,1.29,6.32,6.32,0,0,0,2.23.36,4.2,4.2,0,0,0,2.62-.73,2.46,2.46,0,0,0,1-2.07,3.16,3.16,0,0,0-.18-1.09,2.08,2.08,0,0,0-.55-.81,2.27,2.27,0,0,0-.75-.45,7,7,0,0,0-1.22-.27L210,127.8a5.6,5.6,0,0,1-2.79-1.14,3.61,3.61,0,0,1-1.14-2.83,4.38,4.38,0,0,1,.34-1.76,3.74,3.74,0,0,1,1-1.35,4.6,4.6,0,0,1,1.52-.86,6.36,6.36,0,0,1,2-.31,7.06,7.06,0,0,1,2.48.39,6.28,6.28,0,0,1,2,1.23l-1,1a5.25,5.25,0,0,0-1.51-1,5.37,5.37,0,0,0-2-.33,3.31,3.31,0,0,0-2.36.78,2.67,2.67,0,0,0-.83,2,2.22,2.22,0,0,0,.68,1.76,3.4,3.4,0,0,0,.91.52,6.1,6.1,0,0,0,1.13.32l1.66.25.95.18a4.86,4.86,0,0,1,.73.23,4,4,0,0,1,.59.28,3.47,3.47,0,0,1,.5.38A3.71,3.71,0,0,1,216.09,130.65Z" fill="#000008"/>
      <path d="M220.11,134.82V119.68h1.62v15.14Z" fill="#000008"/>
      <path d="M231.11,121.13v13.69h-1.62V121.13h-4.38v-1.45h10.38v1.45Z" fill="#000008"/>
      <path d="M243.7,128.57v6.25h-1.62v-6.25l-4.51-8.89h1.75l3.57,7.25,3.53-7.25h1.75Z" fill="#000008"/>
      <path d="M267.2,127.25c0,.81,0,1.52,0,2.12A10.56,10.56,0,0,1,267,131a4.89,4.89,0,0,1-.43,1.29,4.29,4.29,0,0,1-.82,1.11,5.34,5.34,0,0,1-1.74,1.17,5.5,5.5,0,0,1-2.13.4,5.26,5.26,0,0,1-3.87-1.57,4.81,4.81,0,0,1-.82-1.11,4.88,4.88,0,0,1-.42-1.29,9.42,9.42,0,0,1-.16-1.61c0-.6,0-1.31,0-2.12s0-1.51,0-2.11a9.44,9.44,0,0,1,.16-1.62,5,5,0,0,1,.42-1.29,4.56,4.56,0,0,1,.82-1.1,5.53,5.53,0,0,1,7.74,0,4.09,4.09,0,0,1,.82,1.1,5,5,0,0,1,.43,1.29,10.57,10.57,0,0,1,.16,1.62C267.19,125.74,267.2,126.44,267.2,127.25Zm-1.62,0q0-1.19,0-2a9.83,9.83,0,0,0-.14-1.39,3.39,3.39,0,0,0-.32-1,3.18,3.18,0,0,0-.57-.78,3.45,3.45,0,0,0-1.18-.79,3.7,3.7,0,0,0-2.87,0,3.36,3.36,0,0,0-1.18.79,3.22,3.22,0,0,0-.58.78,4.11,4.11,0,0,0-.32,1,10,10,0,0,0-.13,1.39c0,.55,0,1.22,0,2s0,1.47,0,2a9.84,9.84,0,0,0,.13,1.39,3.84,3.84,0,0,0,.32,1,3,3,0,0,0,.58.78,3.38,3.38,0,0,0,1.18.8,3.82,3.82,0,0,0,2.87,0,3.47,3.47,0,0,0,1.18-.8,3,3,0,0,0,.57-.78,3.2,3.2,0,0,0,.32-1,9.68,9.68,0,0,0,.14-1.39Q265.58,128.45,265.58,127.25Z" fill="#000008"/>
      <path d="M272.73,121.13v5.57h6.63v1.45h-6.63v6.67h-1.62V119.68h9.4v1.45Z" fill="#000008"/>
      <path d="M298,134.82l-1.21-3.42h-6.61l-1.22,3.42h-1.72l5.57-15.14h1.36l5.56,15.14ZM293.47,122l-2.85,8h5.65Z" fill="#000008"/>
      <path d="M313,124.12a4.82,4.82,0,0,1-.34,1.86,4,4,0,0,1-1,1.4,4.3,4.3,0,0,1-1.48.89,5.26,5.26,0,0,1-1.9.32h-4v6.23h-1.62V119.68h5.64a5.49,5.49,0,0,1,1.9.31,4,4,0,0,1,1.48.89,4.11,4.11,0,0,1,1,1.41A4.66,4.66,0,0,1,313,124.12Zm-1.62,0a2.76,2.76,0,0,0-.89-2.25,3.55,3.55,0,0,0-2.32-.74h-3.87v6h3.87a3.5,3.5,0,0,0,2.32-.76A2.79,2.79,0,0,0,311.37,124.12Z" fill="#000008"/>
      <path d="M326.8,124.12a4.82,4.82,0,0,1-.34,1.86,3.82,3.82,0,0,1-.95,1.4,4.4,4.4,0,0,1-1.48.89,5.26,5.26,0,0,1-1.9.32h-4v6.23h-1.62V119.68h5.64a5.49,5.49,0,0,1,1.9.31,4.1,4.1,0,0,1,1.48.89,4,4,0,0,1,.95,1.41A4.66,4.66,0,0,1,326.8,124.12Zm-1.61,0a2.79,2.79,0,0,0-.89-2.25,3.55,3.55,0,0,0-2.32-.74h-3.87v6H322a3.5,3.5,0,0,0,2.32-.76A2.82,2.82,0,0,0,325.19,124.12Z" fill="#000008"/>
      <path d="M329.93,134.82V119.68h1.62v13.7h7.74v1.44Z" fill="#000008"/>
      <path d="M342.14,134.82V119.68h1.62v15.14Z" fill="#000008"/>
      <path d="M348.41,134.82V119.68h9.4v1.45H350v5.33h6.63v1.45H350v5.47h7.78v1.44Z" fill="#000008"/>
      <path d="M371.74,127.08c0,.53,0,1.08,0,1.66a10.76,10.76,0,0,1-.14,1.71,7.21,7.21,0,0,1-.43,1.61,4.12,4.12,0,0,1-.91,1.36,4.51,4.51,0,0,1-1.65,1,6.29,6.29,0,0,1-2.17.36h-5.19V119.68h5.19a6.29,6.29,0,0,1,2.17.36,4.51,4.51,0,0,1,1.65,1,4.36,4.36,0,0,1,.91,1.31,6.37,6.37,0,0,1,.43,1.49,9.34,9.34,0,0,1,.14,1.6C371.74,126,371.74,126.56,371.74,127.08Zm-1.61,0c0-.47,0-.93,0-1.39a11.05,11.05,0,0,0-.1-1.32,5.51,5.51,0,0,0-.3-1.18,2.92,2.92,0,0,0-.59-1,3.31,3.31,0,0,0-1.34-.86,5.33,5.33,0,0,0-1.64-.24h-3.3v12.25h3.3a5,5,0,0,0,1.64-.25,3.31,3.31,0,0,0,1.34-.86,2.78,2.78,0,0,0,.59-1,6.5,6.5,0,0,0,.3-1.3,13.19,13.19,0,0,0,.1-1.43C370.12,128,370.13,127.55,370.13,127.08Z" fill="#000008"/>
      <path d="M391.84,130.65a4.17,4.17,0,0,1-.37,1.8,3.77,3.77,0,0,1-1.06,1.35,4.92,4.92,0,0,1-1.66.85,7.23,7.23,0,0,1-2.14.3,8.1,8.1,0,0,1-2.91-.47,6.54,6.54,0,0,1-2.28-1.53l1.11-1.1a5.41,5.41,0,0,0,1.89,1.29,6.32,6.32,0,0,0,2.23.36,4.2,4.2,0,0,0,2.62-.73,2.46,2.46,0,0,0,1-2.07,3.15,3.15,0,0,0-.19-1.09,2.06,2.06,0,0,0-.54-.81,2.27,2.27,0,0,0-.75-.45,7.16,7.16,0,0,0-1.23-.27l-1.76-.28a5.52,5.52,0,0,1-2.79-1.14,3.62,3.62,0,0,1-1.15-2.83,4.56,4.56,0,0,1,.34-1.76,3.77,3.77,0,0,1,1-1.35,4.6,4.6,0,0,1,1.52-.86,6.35,6.35,0,0,1,2-.31,7.08,7.08,0,0,1,2.49.39,6.28,6.28,0,0,1,2,1.23l-1,1a5.25,5.25,0,0,0-1.51-1,5.37,5.37,0,0,0-2-.33,3.31,3.31,0,0,0-2.36.78,2.67,2.67,0,0,0-.83,2,2.22,2.22,0,0,0,.68,1.76,3.49,3.49,0,0,0,.9.52,6.2,6.2,0,0,0,1.14.32l1.66.25.95.18a5.26,5.26,0,0,1,.73.23,4.6,4.6,0,0,1,.59.28,3.47,3.47,0,0,1,.5.38A3.71,3.71,0,0,1,391.84,130.65Z" fill="#000008"/>
      <path d="M405,130.44a6.52,6.52,0,0,1-.65,1.91,4.84,4.84,0,0,1-1.15,1.41,5,5,0,0,1-1.56.88,5.61,5.61,0,0,1-1.9.31,5.5,5.5,0,0,1-2.11-.4,5.32,5.32,0,0,1-1.76-1.17,4.53,4.53,0,0,1-.82-1.11,4.88,4.88,0,0,1-.42-1.29,9.42,9.42,0,0,1-.16-1.61c0-.6,0-1.31,0-2.12s0-1.51,0-2.11a9.44,9.44,0,0,1,.16-1.62,5,5,0,0,1,.42-1.29,4.31,4.31,0,0,1,.82-1.1,5.32,5.32,0,0,1,1.76-1.17,5.51,5.51,0,0,1,2.11-.41,5.87,5.87,0,0,1,1.9.31,5.2,5.2,0,0,1,1.56.88,5,5,0,0,1,1.15,1.42,6.45,6.45,0,0,1,.65,1.9h-1.66a4,4,0,0,0-1.24-2.23,3.43,3.43,0,0,0-2.36-.83,3.72,3.72,0,0,0-1.43.28,3.2,3.2,0,0,0-1.18.78,3,3,0,0,0-.58.78,3.67,3.67,0,0,0-.32,1,10.3,10.3,0,0,0-.13,1.4c0,.55,0,1.22,0,2s0,1.47,0,2a10.31,10.31,0,0,0,.13,1.41,3.67,3.67,0,0,0,.32,1,3.18,3.18,0,0,0,.58.77,3.36,3.36,0,0,0,1.18.79,3.9,3.9,0,0,0,1.43.27,3.45,3.45,0,0,0,2.38-.83,3.91,3.91,0,0,0,1.26-2.23Z" fill="#000008"/>
      <path d="M408.9,134.82V119.68h1.61v15.14Z" fill="#000008"/>
      <path d="M415.26,134.82V119.68h9.4v1.45h-7.79v5.33h6.64v1.45h-6.64v5.47h7.79v1.44Z" fill="#000008"/>
      <path d="M437.86,134.82l-8-12.14v12.14h-1.62V119.68h1.53l8,12.1v-12.1h1.62v15.14Z" fill="#000008"/>
      <path d="M453.39,130.44a6.24,6.24,0,0,1-.65,1.91,4.68,4.68,0,0,1-1.15,1.41,5,5,0,0,1-1.56.88,5.86,5.86,0,0,1-4-.09,5.27,5.27,0,0,1-1.75-1.17,4.29,4.29,0,0,1-.82-1.11A4.89,4.89,0,0,1,443,131a10.56,10.56,0,0,1-.16-1.61c0-.6,0-1.31,0-2.12s0-1.51,0-2.11a10.57,10.57,0,0,1,.16-1.62,5,5,0,0,1,.43-1.29,4.09,4.09,0,0,1,.82-1.1A5.27,5.27,0,0,1,446,120a5.56,5.56,0,0,1,2.12-.41,5.76,5.76,0,0,1,1.89.31,5.2,5.2,0,0,1,1.56.88,4.85,4.85,0,0,1,1.15,1.42,6.18,6.18,0,0,1,.65,1.9h-1.66a4,4,0,0,0-1.23-2.23,3.45,3.45,0,0,0-2.36-.83,3.73,3.73,0,0,0-1.44.28,3.29,3.29,0,0,0-1.18.78,3,3,0,0,0-.57.78,3.67,3.67,0,0,0-.32,1,10.15,10.15,0,0,0-.14,1.4q0,.83,0,2t0,2a10.15,10.15,0,0,0,.14,1.41,3.67,3.67,0,0,0,.32,1,3.13,3.13,0,0,0,.57.77,3.45,3.45,0,0,0,1.18.79,3.92,3.92,0,0,0,1.44.27,3.47,3.47,0,0,0,2.38-.83,3.84,3.84,0,0,0,1.25-2.23Z" fill="#000008"/>
      <path d="M456.9,134.82V119.68h9.4v1.45h-7.78v5.33h6.63v1.45h-6.63v5.47h7.78v1.44Z" fill="#000008"/>
      <path d="M479.1,130.65a4.17,4.17,0,0,1-.37,1.8,3.77,3.77,0,0,1-1.06,1.35,4.83,4.83,0,0,1-1.66.85,7.23,7.23,0,0,1-2.14.3,8.14,8.14,0,0,1-2.91-.47,6.54,6.54,0,0,1-2.28-1.53l1.11-1.1a5.41,5.41,0,0,0,1.89,1.29,6.32,6.32,0,0,0,2.23.36,4.2,4.2,0,0,0,2.62-.73,2.46,2.46,0,0,0,1-2.07,3.16,3.16,0,0,0-.18-1.09,2.08,2.08,0,0,0-.55-.81,2.27,2.27,0,0,0-.75-.45,7,7,0,0,0-1.22-.27L473,127.8a5.6,5.6,0,0,1-2.79-1.14,3.61,3.61,0,0,1-1.14-2.83,4.38,4.38,0,0,1,.34-1.76,3.74,3.74,0,0,1,1-1.35,4.6,4.6,0,0,1,1.52-.86,6.36,6.36,0,0,1,2-.31,7.06,7.06,0,0,1,2.48.39,6.28,6.28,0,0,1,2,1.23l-1,1a5.25,5.25,0,0,0-1.51-1,5.37,5.37,0,0,0-2-.33,3.31,3.31,0,0,0-2.36.78,2.67,2.67,0,0,0-.83,2,2.22,2.22,0,0,0,.68,1.76,3.4,3.4,0,0,0,.91.52,6.1,6.1,0,0,0,1.13.32l1.66.25.95.18a4.86,4.86,0,0,1,.73.23,4,4,0,0,1,.59.28,3.47,3.47,0,0,1,.5.38A3.71,3.71,0,0,1,479.1,130.65Z" fill="#000008"/>
    </g>
    <g>
      <path d="M131.45,198v5.57h6.63V205h-6.63v6.68h-1.62V196.5h9.4V198Z" fill="#000008"/>
      <path d="M152.61,204.08c0,.8,0,1.51,0,2.11a10.83,10.83,0,0,1-.16,1.62,5.15,5.15,0,0,1-.43,1.29,4.09,4.09,0,0,1-.82,1.1,5.34,5.34,0,0,1-1.74,1.17,5.5,5.5,0,0,1-2.13.41,5.27,5.27,0,0,1-3.87-1.58,4.56,4.56,0,0,1-.82-1.1,5.14,5.14,0,0,1-.42-1.29,9.66,9.66,0,0,1-.16-1.62c0-.6,0-1.31,0-2.11s0-1.52,0-2.12a9.66,9.66,0,0,1,.16-1.62,4.93,4.93,0,0,1,.42-1.28,4.6,4.6,0,0,1,.82-1.11,5.55,5.55,0,0,1,7.74,0,4.13,4.13,0,0,1,.82,1.11,4.94,4.94,0,0,1,.43,1.28,10.83,10.83,0,0,1,.16,1.62C152.6,202.56,152.61,203.27,152.61,204.08Zm-1.62,0q0-1.2,0-2a10,10,0,0,0-.14-1.4,3.39,3.39,0,0,0-.32-1,3.13,3.13,0,0,0-.57-.77,3.47,3.47,0,0,0-1.18-.8,3.7,3.7,0,0,0-2.87,0,3.38,3.38,0,0,0-1.18.8,3.18,3.18,0,0,0-.58.77,4.11,4.11,0,0,0-.32,1,10.15,10.15,0,0,0-.13,1.4c0,.54,0,1.21,0,2s0,1.46,0,2a10,10,0,0,0,.13,1.39,4.11,4.11,0,0,0,.32,1,3.18,3.18,0,0,0,.58.77,3.38,3.38,0,0,0,1.18.8,3.7,3.7,0,0,0,2.87,0,3.47,3.47,0,0,0,1.18-.8,3.13,3.13,0,0,0,.57-.77,3.39,3.39,0,0,0,.32-1,9.83,9.83,0,0,0,.14-1.39Q151,205.27,151,204.08Z" fill="#000008"/>
      <path d="M165.52,211.65l-3.44-6.72h-3.64v6.72h-1.61V196.5h5.8a5.54,5.54,0,0,1,1.81.29,4.14,4.14,0,0,1,1.43.83,3.82,3.82,0,0,1,.92,1.33,4.54,4.54,0,0,1,.33,1.77,4,4,0,0,1-.91,2.71,4.18,4.18,0,0,1-2.39,1.35l3.6,6.87Zm0-10.91a2.56,2.56,0,0,0-.84-2.1,3.31,3.31,0,0,0-2.18-.69h-4v5.55h4a3.31,3.31,0,0,0,2.18-.68A2.52,2.52,0,0,0,165.5,200.74Z" fill="#000008"/>
      <path d="M180.69,207.48a4.2,4.2,0,0,1-.37,1.8,3.77,3.77,0,0,1-1.06,1.35,5,5,0,0,1-1.66.85,7.23,7.23,0,0,1-2.14.3,8.14,8.14,0,0,1-2.91-.47,6.54,6.54,0,0,1-2.28-1.53l1.11-1.11a5.45,5.45,0,0,0,1.89,1.3,6.32,6.32,0,0,0,2.23.36,4.2,4.2,0,0,0,2.62-.74,2.43,2.43,0,0,0,1-2.07,3.06,3.06,0,0,0-.18-1.08,2,2,0,0,0-.55-.81,2.31,2.31,0,0,0-.75-.46,7.19,7.19,0,0,0-1.22-.26l-1.77-.28a5.6,5.6,0,0,1-2.79-1.15,3.6,3.6,0,0,1-1.14-2.83,4.34,4.34,0,0,1,.34-1.75,3.74,3.74,0,0,1,1-1.35,4.43,4.43,0,0,1,1.52-.86,6.1,6.1,0,0,1,2-.31,7.07,7.07,0,0,1,2.48.38,6.65,6.65,0,0,1,2,1.23l-1,1a5,5,0,0,0-1.51-1,5.37,5.37,0,0,0-2-.33,3.35,3.35,0,0,0-2.36.77,2.68,2.68,0,0,0-.83,2.06,2.24,2.24,0,0,0,.68,1.76,3.14,3.14,0,0,0,.91.51,6.1,6.1,0,0,0,1.13.32l1.66.26a9,9,0,0,1,.95.18,4.91,4.91,0,0,1,.73.22,4.05,4.05,0,0,1,.59.29,3.39,3.39,0,0,1,.5.37A3.72,3.72,0,0,1,180.69,207.48Z" fill="#000008"/>
      <path d="M194.8,207.27a6.45,6.45,0,0,1-.65,1.9,4.84,4.84,0,0,1-1.15,1.41,5,5,0,0,1-1.56.89,5.78,5.78,0,0,1-1.9.31,5.51,5.51,0,0,1-2.11-.41,5.32,5.32,0,0,1-1.76-1.17,4.26,4.26,0,0,1-.81-1.1,4.78,4.78,0,0,1-.43-1.29,9.66,9.66,0,0,1-.16-1.62c0-.6,0-1.31,0-2.11s0-1.52,0-2.12a9.66,9.66,0,0,1,.16-1.62,4.59,4.59,0,0,1,.43-1.28,4.31,4.31,0,0,1,.81-1.11,5.32,5.32,0,0,1,1.76-1.17,5.86,5.86,0,0,1,4-.09,5,5,0,0,1,1.56.88,4.84,4.84,0,0,1,1.15,1.41,6.52,6.52,0,0,1,.65,1.91h-1.66a4,4,0,0,0-1.23-2.24,3.48,3.48,0,0,0-2.37-.83,3.91,3.91,0,0,0-1.43.28,3.23,3.23,0,0,0-1.18.79,3.46,3.46,0,0,0-.58.77,3.68,3.68,0,0,0-.31,1,8.82,8.82,0,0,0-.14,1.41q0,.81,0,2t0,2a8.8,8.8,0,0,0,.14,1.4,3.68,3.68,0,0,0,.31,1,3.51,3.51,0,0,0,.58.78,3.2,3.2,0,0,0,1.18.78,3.72,3.72,0,0,0,1.43.28,3.55,3.55,0,0,0,2.39-.83,4,4,0,0,0,1.25-2.23Z" fill="#000008"/>
      <path d="M207.56,211.65v-6.91h-7.19v6.91h-1.62V196.5h1.62v6.79h7.19V196.5h1.61v15.15Z" fill="#000008"/>
      <path d="M224.25,206.65a5.37,5.37,0,0,1-.39,2.07,4.77,4.77,0,0,1-1.11,1.63,4.83,4.83,0,0,1-1.68,1.05,6.08,6.08,0,0,1-4.23,0,4.79,4.79,0,0,1-1.67-1.05,4.89,4.89,0,0,1-1.1-1.63,5.37,5.37,0,0,1-.39-2.07V196.5h1.62v10a4.64,4.64,0,0,0,.25,1.58,3.37,3.37,0,0,0,.74,1.19,3.3,3.3,0,0,0,1.15.76,3.9,3.9,0,0,0,1.51.28,3.83,3.83,0,0,0,1.51-.28,3.34,3.34,0,0,0,1.16-.76,3.55,3.55,0,0,0,.75-1.19,4.63,4.63,0,0,0,.26-1.58v-10h1.62Z" fill="#000008"/>
      <path d="M238.4,211.65l-8-12.15v12.15h-1.61V196.5h1.53l8,12.11V196.5h1.61v15.15Z" fill="#000008"/>
      <path d="M254.78,206.12a7.62,7.62,0,0,1-.29,2.24,4.41,4.41,0,0,1-1,1.67,5.41,5.41,0,0,1-1.84,1.31,5.61,5.61,0,0,1-2.2.44,5.52,5.52,0,0,1-2.12-.41,5.32,5.32,0,0,1-1.76-1.17,4.26,4.26,0,0,1-.81-1.1,4.78,4.78,0,0,1-.43-1.29,9.66,9.66,0,0,1-.16-1.62c0-.6,0-1.31,0-2.11s0-1.52,0-2.12a9.66,9.66,0,0,1,.16-1.62,4.59,4.59,0,0,1,.43-1.28,4.31,4.31,0,0,1,.81-1.11,5.26,5.26,0,0,1,3.88-1.57,5.71,5.71,0,0,1,2,.33,4.94,4.94,0,0,1,1.59.93,5.23,5.23,0,0,1,1.11,1.44,5.72,5.72,0,0,1,.61,1.83h-1.62a4,4,0,0,0-1.28-2.27,3.61,3.61,0,0,0-2.39-.82,3.74,3.74,0,0,0-1.44.29,3.65,3.65,0,0,0-1.76,1.57,3.72,3.72,0,0,0-.31,1,8.68,8.68,0,0,0-.14,1.4q0,.81,0,2t0,2a8.8,8.8,0,0,0,.14,1.4,3.68,3.68,0,0,0,.31,1,3.51,3.51,0,0,0,.58.78,3.29,3.29,0,0,0,1.18.78,3.73,3.73,0,0,0,1.44.28A3.89,3.89,0,0,0,251,210a3.49,3.49,0,0,0,1.29-1,3.38,3.38,0,0,0,.66-1.2,5.79,5.79,0,0,0,.19-1.54v-1.15h-3.72v-1.43h5.33Z" fill="#000008"/>
      <path d="M268.39,207.48a4.2,4.2,0,0,1-.38,1.8,3.66,3.66,0,0,1-1.06,1.35,4.91,4.91,0,0,1-1.66.85,7.19,7.19,0,0,1-2.14.3,8.14,8.14,0,0,1-2.91-.47,6.42,6.42,0,0,1-2.27-1.53l1.1-1.11A5.63,5.63,0,0,0,261,210a6.38,6.38,0,0,0,2.24.36,4.17,4.17,0,0,0,2.61-.74,2.43,2.43,0,0,0,1-2.07,3.06,3.06,0,0,0-.18-1.08,1.93,1.93,0,0,0-.54-.81,2.35,2.35,0,0,0-.76-.46,7.19,7.19,0,0,0-1.22-.26l-1.77-.28a5.52,5.52,0,0,1-2.78-1.15,3.57,3.57,0,0,1-1.15-2.83,4.34,4.34,0,0,1,.34-1.75,3.77,3.77,0,0,1,1-1.35,4.34,4.34,0,0,1,1.52-.86,6,6,0,0,1,2-.31,7.16,7.16,0,0,1,2.49.38,6.77,6.77,0,0,1,2,1.23l-1,1a5.17,5.17,0,0,0-1.51-1,5.42,5.42,0,0,0-2-.33,3.37,3.37,0,0,0-2.36.77,2.68,2.68,0,0,0-.83,2.06,2.21,2.21,0,0,0,.69,1.76,3.21,3.21,0,0,0,.9.51,6,6,0,0,0,1.14.32l1.66.26a8.78,8.78,0,0,1,.94.18,5.47,5.47,0,0,1,.74.22,4.48,4.48,0,0,1,.58.29,2.94,2.94,0,0,1,.5.37A3.72,3.72,0,0,1,268.39,207.48Z" fill="#000008"/>
      <path d="M271.47,211.65v-1.53L279.05,198h-7.28V196.5h9.11v1.37l-7.64,12.33h7.64v1.45Z" fill="#000008"/>
      <path d="M284.75,211.65V196.5h9.4V198h-7.79v5.34H293v1.45h-6.64v5.46h7.79v1.45Z" fill="#000008"/>
      <path d="M307.65,211.65l-8-12.15v12.15H298V196.5h1.53l8,12.11V196.5h1.61v15.15Z" fill="#000008"/>
      <path d="M318.77,198v13.7h-1.62V198h-4.38V196.5h10.38V198Z" fill="#000008"/>
      <path d="M335.44,211.65,332,204.93h-3.64v6.72h-1.61V196.5h5.8a5.54,5.54,0,0,1,1.81.29,4.14,4.14,0,0,1,1.43.83,3.82,3.82,0,0,1,.92,1.33,4.54,4.54,0,0,1,.33,1.77,4,4,0,0,1-.91,2.71,4.18,4.18,0,0,1-2.39,1.35l3.6,6.87Zm0-10.91a2.56,2.56,0,0,0-.84-2.1,3.31,3.31,0,0,0-2.18-.69h-4v5.55h4a3.31,3.31,0,0,0,2.18-.68A2.52,2.52,0,0,0,335.41,200.74Z" fill="#000008"/>
      <path d="M351.49,206.65a5.37,5.37,0,0,1-.39,2.07,4.63,4.63,0,0,1-1.11,1.63,4.83,4.83,0,0,1-1.68,1.05,6.08,6.08,0,0,1-4.23,0,4.88,4.88,0,0,1-1.67-1.05,4.72,4.72,0,0,1-1.09-1.63,5.2,5.2,0,0,1-.4-2.07V196.5h1.62v10a4.64,4.64,0,0,0,.25,1.58,3.23,3.23,0,0,0,1.9,2,3.83,3.83,0,0,0,1.51.28,3.9,3.9,0,0,0,1.51-.28,3.44,3.44,0,0,0,1.16-.76,3.52,3.52,0,0,0,.74-1.19,4.4,4.4,0,0,0,.27-1.58v-10h1.61Z" fill="#000008"/>
      <path d="M367.35,211.65V200.14l-4.15,9.13h-1.38l-4.22-9.13v11.51H356V196.5h1.61l4.94,10.75,4.81-10.75H369v15.15Z" fill="#000008"/>
      <path d="M141.19,240.29V228.78L137,237.91h-1.38l-4.21-9.13v11.51h-1.62V225.15h1.62l4.93,10.74,4.81-10.74h1.61v15.14Z" fill="#000008"/>
      <path d="M157,240.29l-1.21-3.43h-6.62l-1.21,3.43h-1.72l5.57-15.14h1.36l5.55,15.14Zm-4.49-12.83-2.85,8h5.66Z" fill="#000008"/>
      <path d="M165.12,226.59v13.7H163.5v-13.7h-4.38v-1.44H169.5v1.44Z" fill="#000008"/>
      <path d="M173.09,240.29V225.15h9.4v1.44H174.7v5.34h6.64v1.45H174.7v5.46h7.79v1.45Z" fill="#000008"/>
      <path d="M195,240.29l-3.45-6.72H188v6.72h-1.61V225.15h5.8a5.5,5.5,0,0,1,1.81.28,4.14,4.14,0,0,1,1.43.83,3.82,3.82,0,0,1,.92,1.33,4.54,4.54,0,0,1,.33,1.77,4,4,0,0,1-.91,2.71,4.19,4.19,0,0,1-2.38,1.35l3.59,6.87Zm0-10.91a2.56,2.56,0,0,0-.84-2.1,3.33,3.33,0,0,0-2.18-.69H188v5.55H192a3.32,3.32,0,0,0,2.18-.68A2.52,2.52,0,0,0,195,229.38Z" fill="#000008"/>
      <path d="M200.78,240.29V225.15h1.62v15.14Z" fill="#000008"/>
      <path d="M216.56,240.29l-1.22-3.43h-6.61l-1.21,3.43h-1.73l5.58-15.14h1.36l5.55,15.14Zm-4.49-12.83-2.85,8h5.66Z" fill="#000008"/>
      <path d="M221.69,240.29V225.15h1.62v13.69h7.74v1.45Z" fill="#000008"/>
      <path d="M231.1,235.27v-1.43h5.83v1.43Z" fill="#000008"/>
      <path d="M257.67,235.29a5.38,5.38,0,0,1-.4,2.07,4.65,4.65,0,0,1-1.1,1.63,5,5,0,0,1-1.68,1,6.1,6.1,0,0,1-4.24,0,4.88,4.88,0,0,1-1.67-1,4.76,4.76,0,0,1-1.09-1.63,5.37,5.37,0,0,1-.39-2.07V225.15h1.61v10a4.63,4.63,0,0,0,.26,1.58,3.35,3.35,0,0,0,.73,1.19,3.44,3.44,0,0,0,1.16.76,4.21,4.21,0,0,0,3,0,3.44,3.44,0,0,0,1.16-.76,3.37,3.37,0,0,0,.74-1.19,4.4,4.4,0,0,0,.27-1.58v-10h1.62Z" fill="#000008"/>
      <path d="M271.82,240.29l-8-12.15v12.15h-1.62V225.15h1.53l8,12.1v-12.1h1.62v15.14Z" fill="#000008"/>
      <path d="M288.48,232.55c0,.52,0,1.07,0,1.66a12.07,12.07,0,0,1-.14,1.71,7.12,7.12,0,0,1-.43,1.6,4,4,0,0,1-.91,1.36,4.37,4.37,0,0,1-1.66,1.05,6.2,6.2,0,0,1-2.16.36H278V225.15h5.19a6.2,6.2,0,0,1,2.16.36,4.47,4.47,0,0,1,1.66,1,4.24,4.24,0,0,1,.91,1.31,6.23,6.23,0,0,1,.43,1.49,10.33,10.33,0,0,1,.14,1.59C288.48,231.49,288.48,232,288.48,232.55Zm-1.61,0c0-.47,0-.94,0-1.4a9.33,9.33,0,0,0-.09-1.32,5.67,5.67,0,0,0-.3-1.18,3,3,0,0,0-.59-1,3.31,3.31,0,0,0-1.34-.86,5.08,5.08,0,0,0-1.64-.25h-3.3v12.25h3.3a5.37,5.37,0,0,0,1.64-.24,3.42,3.42,0,0,0,1.34-.86,2.87,2.87,0,0,0,.59-1,6.67,6.67,0,0,0,.3-1.3,11.13,11.13,0,0,0,.09-1.44C286.86,233.5,286.87,233,286.87,232.55Z" fill="#000008"/>
      <path d="M309.18,229.59a5,5,0,0,1-.34,1.85,4,4,0,0,1-1,1.4,4.42,4.42,0,0,1-1.48.9,5.49,5.49,0,0,1-1.9.32h-4v6.23h-1.62V225.15h5.64a5.74,5.74,0,0,1,1.9.3,4.26,4.26,0,0,1,1.48.9,4.16,4.16,0,0,1,1,1.4A4.9,4.9,0,0,1,309.18,229.59Zm-1.62,0a2.76,2.76,0,0,0-.89-2.25,3.5,3.5,0,0,0-2.32-.75h-3.87v6h3.87a3.5,3.5,0,0,0,2.32-.75A2.83,2.83,0,0,0,307.56,229.59Z" fill="#000008"/>
      <path d="M321.59,240.29l-3.45-6.72h-3.63v6.72h-1.62V225.15h5.81a5.48,5.48,0,0,1,1.8.28,4,4,0,0,1,1.43.83,3.69,3.69,0,0,1,.92,1.33,4.54,4.54,0,0,1,.33,1.77,4,4,0,0,1-.91,2.71,4.19,4.19,0,0,1-2.38,1.35l3.59,6.87Zm0-10.91a2.56,2.56,0,0,0-.84-2.1,3.33,3.33,0,0,0-2.18-.69h-4v5.55h4a3.32,3.32,0,0,0,2.18-.68A2.52,2.52,0,0,0,321.57,229.38Z" fill="#000008"/>
      <path d="M337.47,232.72c0,.8,0,1.51,0,2.11a10.7,10.7,0,0,1-.16,1.62,5.59,5.59,0,0,1-.43,1.29,4.09,4.09,0,0,1-.82,1.1A5.34,5.34,0,0,1,334.3,240a5.5,5.5,0,0,1-2.13.41,5.27,5.27,0,0,1-3.87-1.58,4.31,4.31,0,0,1-.82-1.1,5.14,5.14,0,0,1-.42-1.29,8.62,8.62,0,0,1-.16-1.62c0-.6,0-1.31,0-2.11s0-1.52,0-2.12a8.71,8.71,0,0,1,.16-1.62,4.93,4.93,0,0,1,.42-1.28,4.35,4.35,0,0,1,.82-1.11,5.55,5.55,0,0,1,7.74,0,4.13,4.13,0,0,1,.82,1.11,5.35,5.35,0,0,1,.43,1.28,10.83,10.83,0,0,1,.16,1.62C337.46,231.2,337.47,231.91,337.47,232.72Zm-1.62,0q0-1.2,0-2a10,10,0,0,0-.14-1.4,3.52,3.52,0,0,0-.32-1,3,3,0,0,0-.57-.78,3.47,3.47,0,0,0-1.18-.8,3.74,3.74,0,0,0-1.44-.29,3.69,3.69,0,0,0-1.43.29,3.42,3.42,0,0,0-1.19.8,3,3,0,0,0-.57.78,3.52,3.52,0,0,0-.32,1,10,10,0,0,0-.14,1.4q0,.81,0,2t0,2a9.83,9.83,0,0,0,.14,1.39,3.71,3.71,0,0,0,.32,1,3.13,3.13,0,0,0,.57.77,3.42,3.42,0,0,0,1.19.8,3.69,3.69,0,0,0,1.43.29,3.74,3.74,0,0,0,1.44-.29,3.47,3.47,0,0,0,1.18-.8,3.13,3.13,0,0,0,.57-.77,3.71,3.71,0,0,0,.32-1,9.83,9.83,0,0,0,.14-1.39Q335.85,233.91,335.85,232.72Z" fill="#000008"/>
      <path d="M340.58,240.29v-1.53l7.57-12.17h-7.27v-1.44H350v1.36l-7.63,12.33H350v1.45Z" fill="#000008"/>
      <path d="M353.85,240.29V225.15h9.4v1.44h-7.78v5.34h6.63v1.45h-6.63v5.46h7.78v1.45Z" fill="#000008"/>
      <path d="M376.8,236.12a4.2,4.2,0,0,1-.38,1.8,3.66,3.66,0,0,1-1.06,1.35,4.91,4.91,0,0,1-1.66.85,7.19,7.19,0,0,1-2.14.3,8.14,8.14,0,0,1-2.91-.47,6.42,6.42,0,0,1-2.27-1.53l1.1-1.11a5.63,5.63,0,0,0,1.89,1.3,6.38,6.38,0,0,0,2.24.36,4.24,4.24,0,0,0,2.61-.73,2.46,2.46,0,0,0,1-2.08,3.1,3.1,0,0,0-.18-1.08,1.93,1.93,0,0,0-.54-.81,2.35,2.35,0,0,0-.76-.46,7.19,7.19,0,0,0-1.22-.26l-1.77-.28a5.52,5.52,0,0,1-2.78-1.15,3.57,3.57,0,0,1-1.15-2.83,4.34,4.34,0,0,1,.34-1.75,3.77,3.77,0,0,1,1-1.35,4.34,4.34,0,0,1,1.52-.86,6,6,0,0,1,2-.31,7.41,7.41,0,0,1,2.49.38,6.77,6.77,0,0,1,2,1.23l-1,1.05a5.17,5.17,0,0,0-1.51-1,5.42,5.42,0,0,0-2-.33,3.37,3.37,0,0,0-2.36.77,2.69,2.69,0,0,0-.82,2.06,2.21,2.21,0,0,0,.68,1.76,3.21,3.21,0,0,0,.9.51,6,6,0,0,0,1.14.32l1.66.26a8.78,8.78,0,0,1,.94.18,5.47,5.47,0,0,1,.74.22,4.48,4.48,0,0,1,.58.29,2.94,2.94,0,0,1,.5.37A3.72,3.72,0,0,1,376.8,236.12Z" fill="#000008"/>
      <path d="M390.24,236.12a4.2,4.2,0,0,1-.38,1.8,3.66,3.66,0,0,1-1.06,1.35,4.91,4.91,0,0,1-1.66.85,7.19,7.19,0,0,1-2.14.3,8.14,8.14,0,0,1-2.91-.47,6.54,6.54,0,0,1-2.28-1.53l1.11-1.11a5.54,5.54,0,0,0,1.89,1.3,6.38,6.38,0,0,0,2.24.36,4.26,4.26,0,0,0,2.61-.73,2.46,2.46,0,0,0,1-2.08,3.1,3.1,0,0,0-.18-1.08,1.93,1.93,0,0,0-.54-.81,2.35,2.35,0,0,0-.76-.46,7.19,7.19,0,0,0-1.22-.26l-1.77-.28a5.52,5.52,0,0,1-2.78-1.15,3.57,3.57,0,0,1-1.15-2.83,4.34,4.34,0,0,1,.34-1.75,3.77,3.77,0,0,1,1-1.35,4.25,4.25,0,0,1,1.52-.86,6,6,0,0,1,2-.31,7.41,7.41,0,0,1,2.49.38,6.9,6.9,0,0,1,2,1.23l-1.05,1.05a4.92,4.92,0,0,0-1.51-1,5.33,5.33,0,0,0-2-.33,3.37,3.37,0,0,0-2.36.77,2.7,2.7,0,0,0-.83,2.06,2.24,2.24,0,0,0,.68,1.76,3.43,3.43,0,0,0,.91.51,6,6,0,0,0,1.14.32l1.65.26a9,9,0,0,1,.95.18,5.47,5.47,0,0,1,.74.22,4.48,4.48,0,0,1,.58.29,2.94,2.94,0,0,1,.5.37A3.72,3.72,0,0,1,390.24,236.12Z" fill="#000008"/>
      <path d="M399,226.59v13.7h-1.62v-13.7H393v-1.44h10.38v1.44Z" fill="#000008"/>
      <path d="M407,240.29V225.15h9.4v1.44h-7.79v5.34h6.64v1.45h-6.64v5.46h7.79v1.45Z" fill="#000008"/>
      <path d="M429.92,235.91a6.18,6.18,0,0,1-.65,1.9,4.68,4.68,0,0,1-1.15,1.41,5,5,0,0,1-1.56.89,5.76,5.76,0,0,1-1.89.31,5.56,5.56,0,0,1-2.12-.41,5.27,5.27,0,0,1-1.75-1.17,4.09,4.09,0,0,1-.82-1.1,5.15,5.15,0,0,1-.43-1.29,10.7,10.7,0,0,1-.16-1.62c0-.6,0-1.31,0-2.11s0-1.52,0-2.12a10.83,10.83,0,0,1,.16-1.62,4.94,4.94,0,0,1,.43-1.28,4.13,4.13,0,0,1,.82-1.11,5.27,5.27,0,0,1,1.75-1.17,5.86,5.86,0,0,1,4-.09,5,5,0,0,1,1.56.88,4.68,4.68,0,0,1,1.15,1.41,6.24,6.24,0,0,1,.65,1.91h-1.66a4,4,0,0,0-1.23-2.24,3.45,3.45,0,0,0-2.36-.83,3.93,3.93,0,0,0-1.44.28,3.31,3.31,0,0,0-1.18.79,3.13,3.13,0,0,0-.57.77,3.36,3.36,0,0,0-.32,1,10.15,10.15,0,0,0-.14,1.41q0,.81,0,2t0,2a10.15,10.15,0,0,0,.14,1.4,3.36,3.36,0,0,0,.32,1,3,3,0,0,0,.57.78,3.29,3.29,0,0,0,1.18.78,3.73,3.73,0,0,0,1.44.28,3.52,3.52,0,0,0,2.38-.83,3.93,3.93,0,0,0,1.25-2.23Z" fill="#000008"/>
      <path d="M442.68,240.29v-6.91h-7.19v6.91h-1.62V225.15h1.62v6.78h7.19v-6.78h1.61v15.14Z" fill="#000008"/>
      <path d="M458.59,240.29l-8-12.15v12.15h-1.61V225.15h1.53l8,12.1v-12.1h1.61v15.14Z" fill="#000008"/>
      <path d="M464.74,240.29V225.15h1.62v15.14Z" fill="#000008"/>
      <path d="M480.4,240.29l-4.61-8.06-3.19,3.83v4.23H471V225.15h1.62v8.69l7.06-8.69h2L476.87,231l5.45,9.3Z" fill="#000008"/>
    </g>
  </g>
</svg>
