<svg id="aa53c8db-34e8-4687-93f0-d74cca52a83a" data-name="Ebene 2" xmlns="http://www.w3.org/2000/svg" width="465" height="90" viewBox="0 0 465 90">
  <g>
    <g>
      <path d="M7.28,19.6V33.12H3V19.6H1.16V16.31H3V14.15a5.54,5.54,0,0,1,.3-1.81A4.48,4.48,0,0,1,5.73,9.63,5.43,5.43,0,0,1,8,9.2h2.46v3.65H8.77c-1,0-1.49.52-1.49,1.56v1.9h3.19V19.6Z"/>
      <path d="M12.26,33.12V29.83L19.94,19.7H12.7V15.81H25.46V19.1L17.68,29.24h7.78v3.88Z"/>
      <path d="M46.46,33.12V22.66a3.85,3.85,0,0,0-.25-1.5,2.54,2.54,0,0,0-.67-1,2.4,2.4,0,0,0-.93-.53,3.09,3.09,0,0,0-2,0,2.4,2.4,0,0,0-.93.53,2.7,2.7,0,0,0-.69,1,3.84,3.84,0,0,0-.26,1.5V33.12H36.39V15.81h4.22v1.6a5.67,5.67,0,0,1,2-1.35,6.27,6.27,0,0,1,2.33-.45,6.36,6.36,0,0,1,2.33.4A5.12,5.12,0,0,1,49,17.14a5.27,5.27,0,0,1,1.41,2.28,9.58,9.58,0,0,1,.35,2.64V33.12Z"/>
      <path d="M69.59,24.45c0,.64,0,1.31,0,2a14.28,14.28,0,0,1-.19,2,8.59,8.59,0,0,1-.54,1.83,4.62,4.62,0,0,1-1,1.49A5.15,5.15,0,0,1,66,32.91a6.86,6.86,0,0,1-2.37.41,6.36,6.36,0,0,1-2.33-.38,4.88,4.88,0,0,1-1.86-1.34v7.87H55.1V15.81h4.19v1.63A5.06,5.06,0,0,1,61.2,16a6.26,6.26,0,0,1,2.41-.42A6.64,6.64,0,0,1,66,16a5.13,5.13,0,0,1,1.85,1.14,5.19,5.19,0,0,1,1,1.51,8.18,8.18,0,0,1,.54,1.82,14.14,14.14,0,0,1,.19,2C69.58,23.15,69.59,23.81,69.59,24.45Zm-4.32,0a19.57,19.57,0,0,0-.1-2,5.23,5.23,0,0,0-.4-1.56,2.39,2.39,0,0,0-.88-1.05,3.33,3.33,0,0,0-3.09,0,2.39,2.39,0,0,0-.88,1.05,5,5,0,0,0-.4,1.56,17,17,0,0,0-.1,2,17.47,17.47,0,0,0,.1,2,5.08,5.08,0,0,0,.4,1.58,2.36,2.36,0,0,0,.88,1,3.26,3.26,0,0,0,3.09,0,2.36,2.36,0,0,0,.88-1,5.37,5.37,0,0,0,.4-1.58C65.23,25.82,65.27,25.16,65.27,24.45Z"/>
      <path d="M80.85,33.12H77.46L71.08,15.81h4.56l3.52,10.7,3.49-10.7H87.2Z"/>
    </g>
    <g>
      <path d="M103.28,18.29v6.06h7.22v1.58h-7.22V33.2h-1.76V16.71h10.23v1.58Z"/>
      <path d="M125.09,25q0,1.32,0,2.31a10.2,10.2,0,0,1-.17,1.76,5.35,5.35,0,0,1-.46,1.4,4.66,4.66,0,0,1-.89,1.2,5.9,5.9,0,0,1-1.9,1.28,6.07,6.07,0,0,1-2.32.44,5.7,5.7,0,0,1-4.21-1.72,4.24,4.24,0,0,1-.89-1.2,5.36,5.36,0,0,1-.47-1.4,10.2,10.2,0,0,1-.17-1.76c0-.66,0-1.43,0-2.31s0-1.64,0-2.3a10.1,10.1,0,0,1,.17-1.76,5.36,5.36,0,0,1,.47-1.4,4.24,4.24,0,0,1,.89-1.2,6,6,0,0,1,8.43,0,4.66,4.66,0,0,1,.89,1.2,5.35,5.35,0,0,1,.46,1.4,10.1,10.1,0,0,1,.17,1.76C125.08,23.31,125.09,24.07,125.09,25Zm-1.76,0c0-.86,0-1.59,0-2.18a10,10,0,0,0-.15-1.52,3.52,3.52,0,0,0-.35-1.08,3.26,3.26,0,0,0-.62-.84,3.77,3.77,0,0,0-1.29-.87,4.08,4.08,0,0,0-3.12,0,3.86,3.86,0,0,0-1.29.87,3.26,3.26,0,0,0-.62.84,3.81,3.81,0,0,0-.35,1.08,10,10,0,0,0-.15,1.52c0,.59,0,1.32,0,2.18s0,1.6,0,2.19a10,10,0,0,0,.15,1.52,3.92,3.92,0,0,0,.35,1.08,3.26,3.26,0,0,0,.62.84,3.86,3.86,0,0,0,1.29.87,4.08,4.08,0,0,0,3.12,0,3.77,3.77,0,0,0,1.29-.87,3.26,3.26,0,0,0,.62-.84,3.61,3.61,0,0,0,.35-1.08,10,10,0,0,0,.15-1.52C123.32,26.55,123.33,25.82,123.33,25Z"/>
      <path d="M138.4,33.2l-3.75-7.32h-4V33.2h-1.76V16.71h6.32a6.21,6.21,0,0,1,2,.31,4.35,4.35,0,0,1,1.55.91,4,4,0,0,1,1,1.44,5,5,0,0,1,.36,1.93,4.32,4.32,0,0,1-1,2.95,4.56,4.56,0,0,1-2.59,1.47l3.91,7.48Zm0-11.88a2.78,2.78,0,0,0-.92-2.28,3.62,3.62,0,0,0-2.37-.75h-4.4v6h4.4a3.67,3.67,0,0,0,2.37-.74A2.76,2.76,0,0,0,138.38,21.32Z"/>
      <path d="M153.75,28.66a4.61,4.61,0,0,1-.4,2,4.23,4.23,0,0,1-1.16,1.47,5.24,5.24,0,0,1-1.81.92,7.7,7.7,0,0,1-2.32.33,8.83,8.83,0,0,1-3.18-.51,7.16,7.16,0,0,1-2.47-1.67l1.2-1.2a6.08,6.08,0,0,0,2.06,1.41,7,7,0,0,0,2.43.39A4.51,4.51,0,0,0,151,31a2.65,2.65,0,0,0,1-2.25,3.46,3.46,0,0,0-.19-1.19,2.24,2.24,0,0,0-.59-.88,2.56,2.56,0,0,0-.83-.49,7.71,7.71,0,0,0-1.33-.29l-1.92-.3a6.14,6.14,0,0,1-3-1.25,3.89,3.89,0,0,1-1.25-3.08,4.75,4.75,0,0,1,.37-1.91,4,4,0,0,1,1.05-1.47,4.73,4.73,0,0,1,1.66-.94,6.56,6.56,0,0,1,2.2-.34,7.73,7.73,0,0,1,2.7.42A7.4,7.4,0,0,1,153,18.33l-1.14,1.14a5.54,5.54,0,0,0-1.64-1.06,5.85,5.85,0,0,0-2.2-.36,3.63,3.63,0,0,0-2.57.84,2.9,2.9,0,0,0-.91,2.24,2.45,2.45,0,0,0,.74,1.92,3.89,3.89,0,0,0,1,.56,7.09,7.09,0,0,0,1.24.35l1.8.28c.39.06.73.12,1,.19a4.73,4.73,0,0,1,.8.25,3.8,3.8,0,0,1,.64.31,3.43,3.43,0,0,1,.54.4A4.06,4.06,0,0,1,153.75,28.66Z"/>
      <path d="M168,28.43a6.92,6.92,0,0,1-.7,2.07,5.26,5.26,0,0,1-3,2.5,6.22,6.22,0,0,1-2.06.34,6.11,6.11,0,0,1-2.3-.44,5.83,5.83,0,0,1-1.91-1.28,4.44,4.44,0,0,1-.89-1.2,5.36,5.36,0,0,1-.47-1.4,11.3,11.3,0,0,1-.17-1.76c0-.66,0-1.43,0-2.31s0-1.64,0-2.3a11.18,11.18,0,0,1,.17-1.76,5.36,5.36,0,0,1,.47-1.4,4.44,4.44,0,0,1,.89-1.2A5.83,5.83,0,0,1,160,17a6.11,6.11,0,0,1,2.3-.44,6,6,0,0,1,2.06.34,5.26,5.26,0,0,1,3,2.5,6.92,6.92,0,0,1,.7,2.07h-1.8a4.36,4.36,0,0,0-1.35-2.43,3.73,3.73,0,0,0-2.57-.9,4.16,4.16,0,0,0-1.56.3,3.67,3.67,0,0,0-1.29.85,3.48,3.48,0,0,0-.62.85,4.11,4.11,0,0,0-.35,1.09,13.64,13.64,0,0,0-.15,1.53c0,.59,0,1.32,0,2.18s0,1.6,0,2.19a13.64,13.64,0,0,0,.15,1.53,4.11,4.11,0,0,0,.35,1.09,3.26,3.26,0,0,0,.62.84,3.7,3.7,0,0,0,1.29.86,4.16,4.16,0,0,0,1.56.3,3.84,3.84,0,0,0,2.6-.9,4.25,4.25,0,0,0,1.36-2.43Z"/>
      <path d="M181.17,33.2V25.67h-7.83V33.2h-1.76V16.71h1.76V24.1h7.83V16.71h1.76V33.2Z"/>
      <path d="M198.67,27.76a5.71,5.71,0,0,1-.43,2.25,5.09,5.09,0,0,1-1.2,1.78,5.55,5.55,0,0,1-1.83,1.14,6.68,6.68,0,0,1-4.61,0,5.12,5.12,0,0,1-3-2.92,5.89,5.89,0,0,1-.43-2.25v-11h1.76V27.62a5.11,5.11,0,0,0,.28,1.71,3.65,3.65,0,0,0,.8,1.3,3.79,3.79,0,0,0,1.26.83,4.66,4.66,0,0,0,3.29,0,3.79,3.79,0,0,0,1.26-.83,3.67,3.67,0,0,0,.81-1.3,4.87,4.87,0,0,0,.29-1.71V16.71h1.76Z"/>
      <path d="M213.42,33.2,204.67,20V33.2h-1.76V16.71h1.67l8.75,13.18V16.71h1.76V33.2Z"/>
      <path d="M230.51,27.18a7.91,7.91,0,0,1-.33,2.44,4.79,4.79,0,0,1-1.08,1.82,5.91,5.91,0,0,1-2,1.42,6,6,0,0,1-2.39.48,6.13,6.13,0,0,1-2.31-.44,5.83,5.83,0,0,1-1.91-1.28,4.66,4.66,0,0,1-.89-1.2,5.35,5.35,0,0,1-.46-1.4,11.23,11.23,0,0,1-.18-1.76c0-.66,0-1.43,0-2.31s0-1.64,0-2.3a11.1,11.1,0,0,1,.18-1.76,5.35,5.35,0,0,1,.46-1.4,4.66,4.66,0,0,1,.89-1.2,5.71,5.71,0,0,1,4.22-1.72,6.24,6.24,0,0,1,2.16.36,5.35,5.35,0,0,1,1.73,1,5.45,5.45,0,0,1,1.21,1.56,6.57,6.57,0,0,1,.66,2H228.7A4.34,4.34,0,0,0,227.3,19a3.85,3.85,0,0,0-2.6-.89,4,4,0,0,0-1.57.31,3.73,3.73,0,0,0-1.28.87,3.3,3.3,0,0,0-.63.84,3.81,3.81,0,0,0-.34,1.08,11.29,11.29,0,0,0-.16,1.52c0,.59,0,1.32,0,2.18s0,1.6,0,2.19a11.45,11.45,0,0,0,.16,1.53,3.78,3.78,0,0,0,.34,1.09,3.3,3.3,0,0,0,.63.84,3.57,3.57,0,0,0,1.28.86,4.27,4.27,0,0,0,3.29-.06,3.72,3.72,0,0,0,1.4-1,3.6,3.6,0,0,0,.72-1.31,5.93,5.93,0,0,0,.21-1.68V26.11H224.7V24.56h5.81Z"/>
      <path d="M244.24,28.66a4.61,4.61,0,0,1-.41,2,4.12,4.12,0,0,1-1.16,1.47,5.28,5.28,0,0,1-1.8.92,7.76,7.76,0,0,1-2.33.33,8.82,8.82,0,0,1-3.17-.51,7.2,7.2,0,0,1-2.48-1.67L234.1,30a6,6,0,0,0,2.06,1.41,6.88,6.88,0,0,0,2.43.39,4.55,4.55,0,0,0,2.85-.8,2.68,2.68,0,0,0,1-2.25,3.45,3.45,0,0,0-.2-1.19,2.24,2.24,0,0,0-.59-.88,2.52,2.52,0,0,0-.82-.49,7.94,7.94,0,0,0-1.33-.29l-1.92-.3a6.13,6.13,0,0,1-3-1.25,3.92,3.92,0,0,1-1.25-3.08,4.93,4.93,0,0,1,.37-1.91,4,4,0,0,1,1.06-1.47,4.6,4.6,0,0,1,1.65-.94,6.56,6.56,0,0,1,2.2-.34,7.83,7.83,0,0,1,2.71.42,7.23,7.23,0,0,1,2.2,1.34l-1.13,1.14a5.46,5.46,0,0,0-1.65-1.06,5.82,5.82,0,0,0-2.2-.36,3.63,3.63,0,0,0-2.57.84,2.92,2.92,0,0,0-.9,2.24,2.45,2.45,0,0,0,.74,1.92,3.65,3.65,0,0,0,1,.56A7.34,7.34,0,0,0,238,24l1.81.28c.38.06.73.12,1,.19a4.73,4.73,0,0,1,.8.25,3.69,3.69,0,0,1,.63.31,3.09,3.09,0,0,1,.55.4A4.09,4.09,0,0,1,244.24,28.66Z"/>
      <path d="M246.55,33.2V31.53l8.25-13.24h-7.92V16.71h9.91v1.48l-8.32,13.43h8.32V33.2Z"/>
      <path d="M260.19,33.2V16.71h10.23v1.58H262V24.1h7.22v1.57H262v5.95h8.47V33.2Z"/>
      <path d="M284.29,33.2,275.54,20V33.2h-1.76V16.71h1.67l8.75,13.18V16.71H286V33.2Z"/>
      <path d="M295.27,18.29V33.2h-1.76V18.29h-4.77V16.71H300v1.58Z"/>
      <path d="M312.29,33.2l-3.75-7.32h-4V33.2h-1.76V16.71h6.32a6.26,6.26,0,0,1,2,.31,4.35,4.35,0,0,1,1.55.91,4,4,0,0,1,1,1.44A5.18,5.18,0,0,1,314,21.3a4.37,4.37,0,0,1-1,2.95,4.59,4.59,0,0,1-2.59,1.47l3.91,7.48Zm0-11.88a2.77,2.77,0,0,0-.91-2.28,3.62,3.62,0,0,0-2.37-.75h-4.4v6H309a3.67,3.67,0,0,0,2.37-.74A2.75,2.75,0,0,0,312.26,21.32Z"/>
      <path d="M329,27.76a5.71,5.71,0,0,1-.43,2.25,5.09,5.09,0,0,1-1.2,1.78,5.55,5.55,0,0,1-1.83,1.14,6.68,6.68,0,0,1-4.61,0,5.12,5.12,0,0,1-3-2.92,5.89,5.89,0,0,1-.43-2.25v-11h1.76V27.62a5.11,5.11,0,0,0,.28,1.71,3.65,3.65,0,0,0,.8,1.3,3.79,3.79,0,0,0,1.26.83,4.37,4.37,0,0,0,1.65.3,4.32,4.32,0,0,0,1.64-.3,3.79,3.79,0,0,0,1.26-.83,3.67,3.67,0,0,0,.81-1.3,4.87,4.87,0,0,0,.29-1.71V16.71H329Z"/>
      <path d="M345.58,33.2V20.67l-4.51,9.93h-1.51L335,20.67V33.2h-1.76V16.71H335l5.37,11.69,5.23-11.69h1.76V33.2Z"/>
      <path d="M112,61l-8.75-13.22V61h-1.76V44.5h1.66l8.76,13.17V44.5h1.76V61Z"/>
      <path d="M127.73,61l-1.32-3.73h-7.2L117.89,61H116l6.07-16.48h1.48l6,16.48Zm-4.89-14-3.1,8.75h6.16Z"/>
      <path d="M142.55,56.21a7,7,0,0,1-.71,2.08,5.39,5.39,0,0,1-1.25,1.54,5.8,5.8,0,0,1-1.7,1,6.27,6.27,0,0,1-2.06.33,6.13,6.13,0,0,1-2.31-.44,5.91,5.91,0,0,1-1.91-1.27,4.88,4.88,0,0,1-.89-1.21,5.23,5.23,0,0,1-.46-1.4,11,11,0,0,1-.18-1.76c0-.65,0-1.42,0-2.3s0-1.65,0-2.3a11,11,0,0,1,.18-1.76,5.23,5.23,0,0,1,.46-1.4,4.88,4.88,0,0,1,.89-1.21,5.87,5.87,0,0,1,4.22-1.71,6.27,6.27,0,0,1,2.06.33,5.8,5.8,0,0,1,1.7,1,5.26,5.26,0,0,1,1.25,1.54,7,7,0,0,1,.71,2.08h-1.81a4.41,4.41,0,0,0-1.34-2.44,3.75,3.75,0,0,0-2.57-.9,4.25,4.25,0,0,0-1.57.3,3.88,3.88,0,0,0-1.91,1.7A4,4,0,0,0,133,49a10.41,10.41,0,0,0-.15,1.53c0,.6,0,1.33,0,2.19s0,1.59,0,2.19a10.41,10.41,0,0,0,.15,1.53,3.81,3.81,0,0,0,.34,1.08,3.83,3.83,0,0,0,1.91,1.71,4.25,4.25,0,0,0,1.57.3,3.78,3.78,0,0,0,2.59-.91,4.27,4.27,0,0,0,1.37-2.43Z"/>
      <path d="M155.67,61V53.46h-7.82V61h-1.76V44.5h1.76v7.38h7.82V44.5h1.76V61Z"/>
      <path d="M171.44,61V53.46h-7.82V61h-1.76V44.5h1.76v7.38h7.82V44.5h1.76V61Z"/>
      <path d="M187.23,61l-1.32-3.73h-7.2L177.39,61h-1.87l6.06-16.48h1.49l6,16.48Zm-4.88-14-3.1,8.75h6.15Z"/>
      <path d="M191.42,61V44.5h1.76V59.41h8.43V61Z"/>
      <path d="M207.33,46.07V61h-1.76V46.07H200.8V44.5h11.3v1.57Z"/>
      <path d="M214.83,61V44.5h1.76V61Z"/>
      <path d="M232,55a8,8,0,0,1-.33,2.45,4.65,4.65,0,0,1-1.09,1.81,5.68,5.68,0,0,1-2,1.43,6.21,6.21,0,0,1-2.39.47,6.13,6.13,0,0,1-2.31-.44,5.81,5.81,0,0,1-1.91-1.27,4.64,4.64,0,0,1-.89-1.21,5.23,5.23,0,0,1-.46-1.4,11,11,0,0,1-.18-1.76c0-.65,0-1.42,0-2.3s0-1.65,0-2.3a11,11,0,0,1,.18-1.76,5.23,5.23,0,0,1,.46-1.4,4.64,4.64,0,0,1,.89-1.21,5.74,5.74,0,0,1,4.22-1.71,6.28,6.28,0,0,1,2.16.36,5.2,5.2,0,0,1,1.72,1,5.48,5.48,0,0,1,1.22,1.56,6.39,6.39,0,0,1,.66,2h-1.76a4.37,4.37,0,0,0-1.4-2.47,3.91,3.91,0,0,0-2.6-.89,4,4,0,0,0-1.57.32,3.57,3.57,0,0,0-1.28.86,3.53,3.53,0,0,0-.63.85,4.15,4.15,0,0,0-.35,1.08,13.24,13.24,0,0,0-.15,1.51q0,.9,0,2.19t0,2.19a14.14,14.14,0,0,0,.15,1.53,4.15,4.15,0,0,0,.35,1.08,3.35,3.35,0,0,0,.63.85,3.57,3.57,0,0,0,1.28.86,4.18,4.18,0,0,0,1.57.3,4.24,4.24,0,0,0,1.72-.36,3.72,3.72,0,0,0,1.4-1.06,3.56,3.56,0,0,0,.72-1.3,5.93,5.93,0,0,0,.21-1.68V53.9h-4.05V52.35H232Z"/>
      <path d="M235.72,61V44.5H246v1.57h-8.47v5.81h7.22v1.58h-7.22v5.95H246V61Z"/>
      <path d="M265.91,49.34a5.18,5.18,0,0,1-.37,2,4.33,4.33,0,0,1-1,1.53,4.91,4.91,0,0,1-1.61,1,6,6,0,0,1-2.07.35h-4.38V61h-1.76V44.5h6.14a6.24,6.24,0,0,1,2.07.33,4.75,4.75,0,0,1,1.61,1,4.52,4.52,0,0,1,1,1.53A5.14,5.14,0,0,1,265.91,49.34Zm-1.76,0a3,3,0,0,0-1-2.46,3.82,3.82,0,0,0-2.53-.81h-4.21v6.55h4.21a3.77,3.77,0,0,0,2.53-.82A3,3,0,0,0,264.15,49.34Z"/>
      <path d="M278.39,61l-3.75-7.31h-4V61h-1.76V44.5h6.32a5.94,5.94,0,0,1,2,.31,4.49,4.49,0,0,1,1.55.9,4.16,4.16,0,0,1,1,1.45,4.9,4.9,0,0,1,.36,1.92,4.34,4.34,0,0,1-1,3,4.45,4.45,0,0,1-2.59,1.47L280.45,61Zm0-11.88a2.81,2.81,0,0,0-.92-2.28,3.62,3.62,0,0,0-2.37-.75h-4.4v6h4.4a3.61,3.61,0,0,0,2.37-.74A2.74,2.74,0,0,0,278.37,49.1Z"/>
      <path d="M294.67,52.74c0,.88,0,1.65,0,2.3a10,10,0,0,1-.17,1.76,5.23,5.23,0,0,1-.46,1.4,4.88,4.88,0,0,1-.89,1.21,5.87,5.87,0,0,1-1.9,1.27,6.07,6.07,0,0,1-2.32.44,5.73,5.73,0,0,1-4.21-1.71,4.43,4.43,0,0,1-.89-1.21,5.24,5.24,0,0,1-.47-1.4,10,10,0,0,1-.17-1.76c0-.65,0-1.42,0-2.3s0-1.65,0-2.3a10,10,0,0,1,.17-1.76,5.24,5.24,0,0,1,.47-1.4,4.43,4.43,0,0,1,.89-1.21,6,6,0,0,1,8.43,0,4.88,4.88,0,0,1,.89,1.21,5.23,5.23,0,0,1,.46,1.4,10,10,0,0,1,.17,1.76C294.66,51.09,294.67,51.86,294.67,52.74Zm-1.76,0c0-.86,0-1.59,0-2.19a9.85,9.85,0,0,0-.15-1.51,3.31,3.31,0,0,0-1-1.93,3.61,3.61,0,0,0-1.29-.86,4,4,0,0,0-3.12,0,3.7,3.7,0,0,0-1.29.86,3.48,3.48,0,0,0-.62.85,3.81,3.81,0,0,0-.35,1.08,9.85,9.85,0,0,0-.15,1.51q0,.9,0,2.19t0,2.19a9.85,9.85,0,0,0,.15,1.51,3.81,3.81,0,0,0,.35,1.08,3.48,3.48,0,0,0,.62.85,3.7,3.7,0,0,0,1.29.86,4,4,0,0,0,3.12,0,3.61,3.61,0,0,0,1.29-.86,3.31,3.31,0,0,0,1-1.93,9.85,9.85,0,0,0,.15-1.51C292.9,54.33,292.91,53.6,292.91,52.74Z"/>
      <path d="M297.4,61V59.32l8.24-13.25h-7.92V44.5h9.91V46l-8.31,13.43h8.31V61Z"/>
      <path d="M311,61V44.5h10.24v1.57h-8.48v5.81H320v1.58h-7.23v5.95h8.48V61Z"/>
      <path d="M334.47,56.44a4.58,4.58,0,0,1-.41,2,4,4,0,0,1-1.15,1.47,5.63,5.63,0,0,1-1.81.93,8.1,8.1,0,0,1-2.33.32,8.82,8.82,0,0,1-3.17-.51A7.26,7.26,0,0,1,323.12,59l1.21-1.21a5.85,5.85,0,0,0,2.06,1.41,6.65,6.65,0,0,0,2.43.4,4.62,4.62,0,0,0,2.85-.8,2.69,2.69,0,0,0,1-2.26,3.44,3.44,0,0,0-.2-1.18,2.17,2.17,0,0,0-.59-.88,2.45,2.45,0,0,0-.82-.5,9.11,9.11,0,0,0-1.33-.29l-1.92-.3a6,6,0,0,1-3-1.25A3.92,3.92,0,0,1,323.56,49a5,5,0,0,1,.37-1.91A4,4,0,0,1,325,45.63a5,5,0,0,1,1.65-.94,6.83,6.83,0,0,1,2.2-.33,7.79,7.79,0,0,1,2.71.42,6.86,6.86,0,0,1,2.2,1.34l-1.13,1.13a5.62,5.62,0,0,0-1.65-1,5.82,5.82,0,0,0-2.2-.36,3.65,3.65,0,0,0-2.57.84,2.92,2.92,0,0,0-.9,2.24,2.41,2.41,0,0,0,.74,1.91,3.33,3.33,0,0,0,1,.56,5.61,5.61,0,0,0,1.23.35l1.81.28c.39.06.73.13,1,.2a5.91,5.91,0,0,1,.8.24,5.43,5.43,0,0,1,.64.31,4.26,4.26,0,0,1,.54.41A4,4,0,0,1,334.47,56.44Z"/>
      <path d="M347.37,56.44a4.58,4.58,0,0,1-.41,2,4.06,4.06,0,0,1-1.16,1.47,5.48,5.48,0,0,1-1.8.93,8.15,8.15,0,0,1-2.33.32,8.78,8.78,0,0,1-3.17-.51A7.16,7.16,0,0,1,336,59l1.2-1.21a5.88,5.88,0,0,0,2.07,1.41,6.65,6.65,0,0,0,2.43.4,4.56,4.56,0,0,0,2.84-.8,2.68,2.68,0,0,0,1.05-2.26,3.44,3.44,0,0,0-.2-1.18,2.17,2.17,0,0,0-.59-.88,2.55,2.55,0,0,0-.82-.5,9.11,9.11,0,0,0-1.33-.29l-1.93-.3a6,6,0,0,1-3-1.25A3.92,3.92,0,0,1,336.46,49a4.78,4.78,0,0,1,.37-1.91,4.12,4.12,0,0,1,1.05-1.47,5.06,5.06,0,0,1,1.66-.94,6.83,6.83,0,0,1,2.2-.33,7.83,7.83,0,0,1,2.71.42,6.86,6.86,0,0,1,2.2,1.34l-1.14,1.13a5.57,5.57,0,0,0-1.64-1,5.85,5.85,0,0,0-2.2-.36,3.63,3.63,0,0,0-2.57.84,2.92,2.92,0,0,0-.9,2.24,2.38,2.38,0,0,0,.74,1.91,3.4,3.4,0,0,0,1,.56,5.86,5.86,0,0,0,1.24.35L343,52c.38.06.73.13,1,.2a6.38,6.38,0,0,1,.8.24,4.62,4.62,0,0,1,.63.31,4.36,4.36,0,0,1,.55.41A4.07,4.07,0,0,1,347.37,56.44Z"/>
      <path d="M350.7,61V44.5h10.23v1.57h-8.47v5.81h7.22v1.58h-7.22v5.95h8.47V61Z"/>
      <path d="M380.94,55.54a5.76,5.76,0,0,1-.43,2.26,5.09,5.09,0,0,1-1.2,1.77,5.57,5.57,0,0,1-1.83,1.15,6.84,6.84,0,0,1-4.61,0,5.43,5.43,0,0,1-1.82-1.15,5.21,5.21,0,0,1-1.19-1.77,5.76,5.76,0,0,1-.43-2.26v-11h1.76V55.4a4.89,4.89,0,0,0,.28,1.72,3.48,3.48,0,0,0,.8,1.29,3.67,3.67,0,0,0,1.26.84,4.32,4.32,0,0,0,1.64.3,4.37,4.37,0,0,0,1.65-.3,3.62,3.62,0,0,0,2.07-2.13,4.88,4.88,0,0,0,.29-1.72V44.5h1.76Z"/>
      <path d="M395.64,61l-8.75-13.22V61h-1.76V44.5h1.67l8.75,13.17V44.5h1.76V61Z"/>
      <path d="M413.17,52.55c0,.58,0,1.18,0,1.81a14.28,14.28,0,0,1-.15,1.86,7.3,7.3,0,0,1-.48,1.75,4.3,4.3,0,0,1-1,1.48,4.9,4.9,0,0,1-1.81,1.14,6.79,6.79,0,0,1-2.36.39h-5.65V44.5h5.65a6.79,6.79,0,0,1,2.36.39A5,5,0,0,1,411.55,46a4.62,4.62,0,0,1,1,1.43,6.56,6.56,0,0,1,.48,1.62,12.24,12.24,0,0,1,.15,1.74C413.17,51.4,413.17,52,413.17,52.55Zm-1.76,0c0-.51,0-1,0-1.51a11.07,11.07,0,0,0-.11-1.44,5.85,5.85,0,0,0-.32-1.28,3,3,0,0,0-.65-1,3.46,3.46,0,0,0-1.46-.94,5.59,5.59,0,0,0-1.78-.27h-3.59V59.41h3.59a5.59,5.59,0,0,0,1.78-.27,3.56,3.56,0,0,0,1.46-.94,2.92,2.92,0,0,0,.65-1.1,6.91,6.91,0,0,0,.32-1.41,13,13,0,0,0,.11-1.56C411.41,53.59,411.41,53.06,411.41,52.55Z"/>
      <path d="M106.17,88.77h-1.43L99.32,72.28h1.85l4.28,13.34,4.29-13.34h1.85Z"/>
      <path d="M114.07,88.77V72.28H124.3v1.58h-8.47v5.81h7.22v1.57h-7.22v6h8.47v1.58Z"/>
      <path d="M137.34,88.77l-3.76-7.32h-4v7.32h-1.76V72.28h6.32a6.26,6.26,0,0,1,2,.31,4.44,4.44,0,0,1,1.55.91,4,4,0,0,1,1,1.44,5,5,0,0,1,.36,1.93,4.37,4.37,0,0,1-1,2.95,4.58,4.58,0,0,1-2.6,1.47l3.92,7.48Zm0-11.88a2.77,2.77,0,0,0-.91-2.28,3.62,3.62,0,0,0-2.37-.75h-4.4v6H134a3.67,3.67,0,0,0,2.37-.74A2.74,2.74,0,0,0,137.31,76.89Z"/>
      <path d="M144.72,73.86v6.06H152V81.5h-7.23v7.27H143V72.28H153.2v1.58Z"/>
      <path d="M164.52,88.77,163.2,85H156l-1.32,3.73H152.8l6.07-16.49h1.48l6,16.49Zm-4.89-14-3.1,8.75h6.16Z"/>
      <path d="M178.55,88.77V81.24h-7.83v7.53H169V72.28h1.76v7.39h7.83V72.28h1.76V88.77Z"/>
      <path d="M194.46,88.77l-3.75-7.32h-4v7.32H185V72.28h6.32a6.26,6.26,0,0,1,2,.31,4.35,4.35,0,0,1,1.55.91,3.89,3.89,0,0,1,1,1.44,5,5,0,0,1,.36,1.93,4.37,4.37,0,0,1-1,2.95,4.59,4.59,0,0,1-2.59,1.47l3.91,7.48Zm0-11.88a2.77,2.77,0,0,0-.91-2.28,3.62,3.62,0,0,0-2.37-.75h-4.4v6h4.4a3.67,3.67,0,0,0,2.37-.74A2.74,2.74,0,0,0,194.43,76.89Z"/>
      <path d="M200.08,88.77V72.28h10.24v1.58h-8.48v5.81h7.23v1.57h-7.23v6h8.48v1.58Z"/>
      <path d="M224.39,88.77l-8.75-13.22V88.77h-1.76V72.28h1.67l8.75,13.18V72.28h1.76V88.77Z"/>
    </g>
  </g>
</svg>
