<svg id="a0d24fcc-d9b1-4484-b2b9-a81ac51da3ab" data-name="Ebene 2" xmlns="http://www.w3.org/2000/svg" width="501" height="241" viewBox="0 0 501 241">
  <g>
    <g>
      <g>
        <path d="M44,50.7a1.51,1.51,0,1,1,1.5-1.52A1.5,1.5,0,0,1,44,50.7Z" fill="#406c03"/>
        <path d="M50,50.7a1.51,1.51,0,1,1,1.5-1.52A1.51,1.51,0,0,1,50,50.7Z" fill="#406c03"/>
        <path d="M56,50.7a1.51,1.51,0,1,1,1.5-1.52A1.5,1.5,0,0,1,56,50.7Z" fill="#406c03"/>
        <path d="M62.06,50.7a1.51,1.51,0,1,1,1.5-1.52A1.51,1.51,0,0,1,62.06,50.7Z" fill="#406c03"/>
        <path d="M68.08,50.7a1.51,1.51,0,1,1,1.5-1.52A1.5,1.5,0,0,1,68.08,50.7Z" fill="#406c03"/>
      </g>
      <g>
        <path d="M38,55a1.51,1.51,0,1,1,1.5-1.52A1.52,1.52,0,0,1,38,55Z" fill="#406c03"/>
        <path d="M44,55a1.51,1.51,0,1,1,1.5-1.52A1.51,1.51,0,0,1,44,55Z" fill="#406c03"/>
        <path d="M50,55a1.51,1.51,0,1,1,1.5-1.52A1.52,1.52,0,0,1,50,55Z" fill="#406c03"/>
        <path d="M56,55a1.51,1.51,0,1,1,1.5-1.52A1.51,1.51,0,0,1,56,55Z" fill="#406c03"/>
        <path d="M62.06,55a1.51,1.51,0,1,1,1.5-1.52A1.52,1.52,0,0,1,62.06,55Z" fill="#406c03"/>
        <path d="M68.08,55a1.51,1.51,0,1,1,1.5-1.52A1.51,1.51,0,0,1,68.08,55Z" fill="#406c03"/>
      </g>
      <g>
        <path d="M62.06,59.2a1.51,1.51,0,1,1,1.5-1.51A1.51,1.51,0,0,1,62.06,59.2Z" fill="#406c03"/>
        <path d="M68.08,59.2a1.51,1.51,0,1,1,1.5-1.51A1.5,1.5,0,0,1,68.08,59.2Z" fill="#406c03"/>
        <path d="M86.16,59.2a1.51,1.51,0,1,1,1.5-1.51A1.51,1.51,0,0,1,86.16,59.2Z" fill="#406c03"/>
      </g>
      <g>
        <path d="M62.06,63.46a1.51,1.51,0,1,1,1.5-1.52A1.52,1.52,0,0,1,62.06,63.46Z" fill="#406c03"/>
        <path d="M68.08,63.46a1.51,1.51,0,1,1,1.5-1.52A1.51,1.51,0,0,1,68.08,63.46Z" fill="#406c03"/>
        <path d="M80.13,63.46a1.51,1.51,0,1,1,1.5-1.52A1.51,1.51,0,0,1,80.13,63.46Z" fill="#406c03"/>
        <path d="M86.16,63.46a1.51,1.51,0,1,1,1.5-1.52A1.52,1.52,0,0,1,86.16,63.46Z" fill="#406c03"/>
      </g>
      <g>
        <path d="M62.06,67.71a1.51,1.51,0,1,1,1.5-1.52A1.52,1.52,0,0,1,62.06,67.71Z" fill="#406c03"/>
        <path d="M68.08,67.71a1.51,1.51,0,1,1,1.5-1.52A1.51,1.51,0,0,1,68.08,67.71Z" fill="#406c03"/>
        <path d="M80.13,67.71a1.51,1.51,0,1,1,1.5-1.52A1.51,1.51,0,0,1,80.13,67.71Z" fill="#406c03"/>
        <path d="M86.16,67.71a1.51,1.51,0,1,1,1.5-1.52A1.52,1.52,0,0,1,86.16,67.71Z" fill="#406c03"/>
        <path d="M104.23,67.71a1.51,1.51,0,1,1,1.5-1.52A1.51,1.51,0,0,1,104.23,67.71Z" fill="#406c03"/>
      </g>
      <g>
        <path d="M62.06,72a1.51,1.51,0,1,1,0-3,1.51,1.51,0,0,1,0,3Z" fill="#406c03"/>
        <path d="M68.08,72a1.51,1.51,0,1,1,1.5-1.52A1.51,1.51,0,0,1,68.08,72Z" fill="#406c03"/>
        <path d="M80.13,72a1.51,1.51,0,1,1,1.5-1.52A1.51,1.51,0,0,1,80.13,72Z" fill="#406c03"/>
        <path d="M86.16,72a1.51,1.51,0,1,1,0-3,1.51,1.51,0,0,1,0,3Z" fill="#406c03"/>
        <path d="M98.21,72a1.51,1.51,0,1,1,0-3,1.51,1.51,0,0,1,0,3Z" fill="#406c03"/>
        <path d="M104.23,72a1.51,1.51,0,1,1,1.5-1.52A1.51,1.51,0,0,1,104.23,72Z" fill="#406c03"/>
      </g>
      <g>
        <path d="M25.91,76.21a1.51,1.51,0,1,1,1.5-1.52A1.51,1.51,0,0,1,25.91,76.21Z" fill="#406c03"/>
        <path d="M31.93,76.21a1.51,1.51,0,1,1,1.5-1.52A1.5,1.5,0,0,1,31.93,76.21Z" fill="#406c03"/>
        <path d="M38,76.21a1.51,1.51,0,1,1,1.5-1.52A1.51,1.51,0,0,1,38,76.21Z" fill="#406c03"/>
        <path d="M44,76.21a1.51,1.51,0,1,1,1.5-1.52A1.5,1.5,0,0,1,44,76.21Z" fill="#406c03"/>
        <path d="M50,76.21a1.51,1.51,0,1,1,1.5-1.52A1.51,1.51,0,0,1,50,76.21Z" fill="#406c03"/>
        <path d="M62.06,76.21a1.51,1.51,0,1,1,1.5-1.52A1.51,1.51,0,0,1,62.06,76.21Z" fill="#406c03"/>
        <path d="M68.08,76.21a1.51,1.51,0,1,1,1.5-1.52A1.5,1.5,0,0,1,68.08,76.21Z" fill="#406c03"/>
        <path d="M80.13,76.21a1.51,1.51,0,1,1,1.5-1.52A1.5,1.5,0,0,1,80.13,76.21Z" fill="#406c03"/>
        <path d="M86.16,76.21a1.51,1.51,0,1,1,1.5-1.52A1.51,1.51,0,0,1,86.16,76.21Z" fill="#406c03"/>
        <path d="M98.21,76.21a1.51,1.51,0,1,1,1.5-1.52A1.51,1.51,0,0,1,98.21,76.21Z" fill="#406c03"/>
        <path d="M104.23,76.21a1.51,1.51,0,1,1,1.5-1.52A1.5,1.5,0,0,1,104.23,76.21Z" fill="#406c03"/>
      </g>
      <g>
        <path d="M19.88,80.46a1.51,1.51,0,1,1,1.5-1.52A1.5,1.5,0,0,1,19.88,80.46Z" fill="#406c03"/>
        <path d="M25.91,80.46a1.51,1.51,0,1,1,1.5-1.52A1.51,1.51,0,0,1,25.91,80.46Z" fill="#406c03"/>
        <path d="M31.93,80.46a1.51,1.51,0,1,1,1.5-1.52A1.5,1.5,0,0,1,31.93,80.46Z" fill="#406c03"/>
        <path d="M38,80.46a1.51,1.51,0,1,1,1.5-1.52A1.51,1.51,0,0,1,38,80.46Z" fill="#406c03"/>
        <path d="M44,80.46a1.51,1.51,0,1,1,1.5-1.52A1.5,1.5,0,0,1,44,80.46Z" fill="#406c03"/>
        <path d="M50,80.46a1.51,1.51,0,1,1,1.5-1.52A1.51,1.51,0,0,1,50,80.46Z" fill="#406c03"/>
        <path d="M62.06,80.46a1.51,1.51,0,1,1,1.5-1.52A1.51,1.51,0,0,1,62.06,80.46Z" fill="#406c03"/>
        <path d="M68.08,80.46a1.51,1.51,0,1,1,1.5-1.52A1.5,1.5,0,0,1,68.08,80.46Z" fill="#406c03"/>
        <path d="M80.13,80.46a1.51,1.51,0,1,1,1.5-1.52A1.5,1.5,0,0,1,80.13,80.46Z" fill="#406c03"/>
        <path d="M86.16,80.46a1.51,1.51,0,1,1,1.5-1.52A1.51,1.51,0,0,1,86.16,80.46Z" fill="#406c03"/>
        <path d="M98.21,80.46a1.51,1.51,0,1,1,1.5-1.52A1.51,1.51,0,0,1,98.21,80.46Z" fill="#406c03"/>
        <path d="M104.23,80.46a1.51,1.51,0,1,1,1.5-1.52A1.5,1.5,0,0,1,104.23,80.46Z" fill="#406c03"/>
      </g>
      <g>
        <path d="M44,84.71a1.51,1.51,0,1,1,1.5-1.52A1.5,1.5,0,0,1,44,84.71Z" fill="#406c03"/>
        <path d="M50,84.71a1.51,1.51,0,1,1,1.5-1.52A1.51,1.51,0,0,1,50,84.71Z" fill="#406c03"/>
        <path d="M62.06,84.71a1.51,1.51,0,1,1,1.5-1.52A1.51,1.51,0,0,1,62.06,84.71Z" fill="#406c03"/>
        <path d="M68.08,84.71a1.51,1.51,0,1,1,1.5-1.52A1.5,1.5,0,0,1,68.08,84.71Z" fill="#406c03"/>
        <path d="M80.13,84.71a1.51,1.51,0,1,1,1.5-1.52A1.5,1.5,0,0,1,80.13,84.71Z" fill="#406c03"/>
        <path d="M86.16,84.71a1.51,1.51,0,1,1,1.5-1.52A1.51,1.51,0,0,1,86.16,84.71Z" fill="#406c03"/>
        <path d="M98.21,84.71a1.51,1.51,0,1,1,1.5-1.52A1.51,1.51,0,0,1,98.21,84.71Z" fill="#406c03"/>
        <path d="M104.23,84.71a1.51,1.51,0,1,1,1.5-1.52A1.5,1.5,0,0,1,104.23,84.71Z" fill="#406c03"/>
      </g>
      <g>
        <path d="M44,89a1.51,1.51,0,1,1,1.5-1.52A1.5,1.5,0,0,1,44,89Z" fill="#406c03"/>
        <path d="M50,89a1.51,1.51,0,1,1,1.5-1.52A1.51,1.51,0,0,1,50,89Z" fill="#406c03"/>
        <path d="M62.06,89a1.51,1.51,0,1,1,1.5-1.52A1.51,1.51,0,0,1,62.06,89Z" fill="#406c03"/>
        <path d="M68.08,89a1.51,1.51,0,1,1,1.5-1.52A1.5,1.5,0,0,1,68.08,89Z" fill="#406c03"/>
        <path d="M80.13,89a1.51,1.51,0,1,1,1.5-1.52A1.5,1.5,0,0,1,80.13,89Z" fill="#406c03"/>
        <path d="M86.16,89a1.51,1.51,0,1,1,1.5-1.52A1.51,1.51,0,0,1,86.16,89Z" fill="#406c03"/>
        <path d="M98.21,89a1.51,1.51,0,1,1,1.5-1.52A1.51,1.51,0,0,1,98.21,89Z" fill="#406c03"/>
        <path d="M104.23,89a1.51,1.51,0,1,1,1.5-1.52A1.5,1.5,0,0,1,104.23,89Z" fill="#406c03"/>
      </g>
      <g>
        <path d="M44,93.22a1.51,1.51,0,1,1,1.5-1.52A1.51,1.51,0,0,1,44,93.22Z" fill="#406c03"/>
        <path d="M50,93.22a1.51,1.51,0,1,1,1.5-1.52A1.52,1.52,0,0,1,50,93.22Z" fill="#406c03"/>
        <path d="M62.06,93.22a1.51,1.51,0,1,1,1.5-1.52A1.52,1.52,0,0,1,62.06,93.22Z" fill="#406c03"/>
        <path d="M68.08,93.22a1.51,1.51,0,1,1,1.5-1.52A1.51,1.51,0,0,1,68.08,93.22Z" fill="#406c03"/>
        <path d="M80.13,93.22a1.51,1.51,0,1,1,1.5-1.52A1.51,1.51,0,0,1,80.13,93.22Z" fill="#406c03"/>
        <path d="M86.16,93.22a1.51,1.51,0,1,1,1.5-1.52A1.52,1.52,0,0,1,86.16,93.22Z" fill="#406c03"/>
        <path d="M98.21,93.22a1.51,1.51,0,1,1,1.5-1.52A1.52,1.52,0,0,1,98.21,93.22Z" fill="#406c03"/>
        <path d="M104.23,93.22a1.51,1.51,0,1,1,1.5-1.52A1.51,1.51,0,0,1,104.23,93.22Z" fill="#406c03"/>
      </g>
      <g>
        <path d="M44,97.47A1.51,1.51,0,1,1,45.48,96,1.51,1.51,0,0,1,44,97.47Z" fill="#406c03"/>
        <path d="M50,97.47A1.51,1.51,0,1,1,51.51,96,1.52,1.52,0,0,1,50,97.47Z" fill="#406c03"/>
        <path d="M62.06,97.47A1.51,1.51,0,1,1,63.56,96,1.52,1.52,0,0,1,62.06,97.47Z" fill="#406c03"/>
        <path d="M68.08,97.47A1.51,1.51,0,1,1,69.58,96,1.51,1.51,0,0,1,68.08,97.47Z" fill="#406c03"/>
        <path d="M80.13,97.47A1.51,1.51,0,1,1,81.63,96,1.51,1.51,0,0,1,80.13,97.47Z" fill="#406c03"/>
        <path d="M86.16,97.47A1.51,1.51,0,1,1,87.66,96,1.52,1.52,0,0,1,86.16,97.47Z" fill="#406c03"/>
        <path d="M98.21,97.47A1.51,1.51,0,1,1,99.71,96,1.52,1.52,0,0,1,98.21,97.47Z" fill="#406c03"/>
        <path d="M104.23,97.47a1.51,1.51,0,1,1,1.5-1.52A1.51,1.51,0,0,1,104.23,97.47Z" fill="#406c03"/>
      </g>
      <g>
        <path d="M44,101.72a1.51,1.51,0,1,1,1.5-1.52A1.51,1.51,0,0,1,44,101.72Z" fill="#406c03"/>
        <path d="M50,101.72a1.51,1.51,0,1,1,0-3,1.51,1.51,0,0,1,0,3Z" fill="#406c03"/>
        <path d="M62.06,101.72a1.51,1.51,0,1,1,0-3,1.51,1.51,0,0,1,0,3Z" fill="#406c03"/>
        <path d="M68.08,101.72a1.51,1.51,0,1,1,1.5-1.52A1.51,1.51,0,0,1,68.08,101.72Z" fill="#406c03"/>
        <path d="M80.13,101.72a1.51,1.51,0,1,1,1.5-1.52A1.51,1.51,0,0,1,80.13,101.72Z" fill="#406c03"/>
        <path d="M86.16,101.72a1.51,1.51,0,1,1,0-3,1.51,1.51,0,0,1,0,3Z" fill="#406c03"/>
        <path d="M98.21,101.72a1.51,1.51,0,1,1,0-3,1.51,1.51,0,0,1,0,3Z" fill="#406c03"/>
        <path d="M104.23,101.72a1.51,1.51,0,1,1,1.5-1.52A1.51,1.51,0,0,1,104.23,101.72Z" fill="#406c03"/>
      </g>
      <g>
        <path d="M44,106a1.51,1.51,0,1,1,1.5-1.52A1.5,1.5,0,0,1,44,106Z" fill="#406c03"/>
        <path d="M50,106a1.51,1.51,0,1,1,1.5-1.52A1.51,1.51,0,0,1,50,106Z" fill="#406c03"/>
        <path d="M62.06,106a1.51,1.51,0,1,1,1.5-1.52A1.51,1.51,0,0,1,62.06,106Z" fill="#406c03"/>
        <path d="M68.08,106a1.51,1.51,0,1,1,1.5-1.52A1.5,1.5,0,0,1,68.08,106Z" fill="#406c03"/>
        <path d="M80.13,106a1.51,1.51,0,1,1,1.5-1.52A1.5,1.5,0,0,1,80.13,106Z" fill="#406c03"/>
        <path d="M86.16,106a1.51,1.51,0,1,1,1.5-1.52A1.51,1.51,0,0,1,86.16,106Z" fill="#406c03"/>
        <path d="M98.21,106a1.51,1.51,0,1,1,1.5-1.52A1.51,1.51,0,0,1,98.21,106Z" fill="#406c03"/>
        <path d="M104.23,106a1.51,1.51,0,1,1,1.5-1.52A1.5,1.5,0,0,1,104.23,106Z" fill="#406c03"/>
      </g>
      <g>
        <path d="M7.83,110.22a1.51,1.51,0,1,1,1.5-1.52A1.5,1.5,0,0,1,7.83,110.22Z" fill="#406c03"/>
        <path d="M13.86,110.22a1.51,1.51,0,1,1,1.5-1.52A1.51,1.51,0,0,1,13.86,110.22Z" fill="#406c03"/>
        <path d="M19.88,110.22a1.51,1.51,0,1,1,1.5-1.52A1.5,1.5,0,0,1,19.88,110.22Z" fill="#406c03"/>
        <path d="M25.91,110.22a1.51,1.51,0,1,1,1.5-1.52A1.51,1.51,0,0,1,25.91,110.22Z" fill="#406c03"/>
        <path d="M31.93,110.22a1.51,1.51,0,1,1,1.5-1.52A1.5,1.5,0,0,1,31.93,110.22Z" fill="#406c03"/>
        <path d="M44,110.22a1.51,1.51,0,1,1,1.5-1.52A1.5,1.5,0,0,1,44,110.22Z" fill="#406c03"/>
        <path d="M50,110.22a1.51,1.51,0,1,1,1.5-1.52A1.51,1.51,0,0,1,50,110.22Z" fill="#406c03"/>
        <path d="M62.06,110.22a1.51,1.51,0,1,1,1.5-1.52A1.51,1.51,0,0,1,62.06,110.22Z" fill="#406c03"/>
        <path d="M68.08,110.22a1.51,1.51,0,1,1,1.5-1.52A1.5,1.5,0,0,1,68.08,110.22Z" fill="#406c03"/>
        <path d="M80.13,110.22a1.51,1.51,0,1,1,1.5-1.52A1.5,1.5,0,0,1,80.13,110.22Z" fill="#406c03"/>
        <path d="M86.16,110.22a1.51,1.51,0,1,1,1.5-1.52A1.51,1.51,0,0,1,86.16,110.22Z" fill="#406c03"/>
        <path d="M98.21,110.22a1.51,1.51,0,1,1,1.5-1.52A1.51,1.51,0,0,1,98.21,110.22Z" fill="#406c03"/>
        <path d="M104.23,110.22a1.51,1.51,0,1,1,1.5-1.52A1.5,1.5,0,0,1,104.23,110.22Z" fill="#406c03"/>
      </g>
      <g>
        <path d="M1.81,114.47A1.51,1.51,0,1,1,3.31,113,1.51,1.51,0,0,1,1.81,114.47Z" fill="#406c03"/>
        <path d="M7.83,114.47A1.51,1.51,0,1,1,9.33,113,1.5,1.5,0,0,1,7.83,114.47Z" fill="#406c03"/>
        <path d="M13.86,114.47a1.51,1.51,0,1,1,1.5-1.52A1.51,1.51,0,0,1,13.86,114.47Z" fill="#406c03"/>
        <path d="M19.88,114.47a1.51,1.51,0,1,1,1.5-1.52A1.5,1.5,0,0,1,19.88,114.47Z" fill="#406c03"/>
        <path d="M25.91,114.47a1.51,1.51,0,1,1,1.5-1.52A1.51,1.51,0,0,1,25.91,114.47Z" fill="#406c03"/>
        <path d="M31.93,114.47a1.51,1.51,0,1,1,1.5-1.52A1.5,1.5,0,0,1,31.93,114.47Z" fill="#406c03"/>
        <path d="M44,114.47a1.51,1.51,0,1,1,1.5-1.52A1.5,1.5,0,0,1,44,114.47Z" fill="#406c03"/>
        <path d="M50,114.47a1.51,1.51,0,1,1,1.5-1.52A1.51,1.51,0,0,1,50,114.47Z" fill="#406c03"/>
        <path d="M62.06,114.47a1.51,1.51,0,1,1,1.5-1.52A1.51,1.51,0,0,1,62.06,114.47Z" fill="#406c03"/>
        <path d="M68.08,114.47a1.51,1.51,0,1,1,1.5-1.52A1.5,1.5,0,0,1,68.08,114.47Z" fill="#406c03"/>
        <path d="M80.13,114.47a1.51,1.51,0,1,1,1.5-1.52A1.5,1.5,0,0,1,80.13,114.47Z" fill="#406c03"/>
        <path d="M86.16,114.47a1.51,1.51,0,1,1,1.5-1.52A1.51,1.51,0,0,1,86.16,114.47Z" fill="#406c03"/>
        <path d="M98.21,114.47a1.51,1.51,0,1,1,1.5-1.52A1.51,1.51,0,0,1,98.21,114.47Z" fill="#406c03"/>
      </g>
      <g>
        <path d="M25.91,118.72a1.51,1.51,0,1,1,1.5-1.51A1.51,1.51,0,0,1,25.91,118.72Z" fill="#406c03"/>
        <path d="M31.93,118.72a1.51,1.51,0,1,1,1.5-1.51A1.5,1.5,0,0,1,31.93,118.72Z" fill="#406c03"/>
        <path d="M44,118.72a1.51,1.51,0,1,1,1.5-1.51A1.5,1.5,0,0,1,44,118.72Z" fill="#406c03"/>
        <path d="M50,118.72a1.51,1.51,0,1,1,1.5-1.51A1.51,1.51,0,0,1,50,118.72Z" fill="#406c03"/>
        <path d="M62.06,118.72a1.51,1.51,0,1,1,1.5-1.51A1.51,1.51,0,0,1,62.06,118.72Z" fill="#406c03"/>
        <path d="M68.08,118.72a1.51,1.51,0,1,1,1.5-1.51A1.5,1.5,0,0,1,68.08,118.72Z" fill="#406c03"/>
        <path d="M80.13,118.72a1.51,1.51,0,1,1,1.5-1.51A1.5,1.5,0,0,1,80.13,118.72Z" fill="#406c03"/>
        <path d="M86.16,118.72a1.51,1.51,0,1,1,1.5-1.51A1.51,1.51,0,0,1,86.16,118.72Z" fill="#406c03"/>
        <path d="M98.21,118.72a1.51,1.51,0,1,1,1.5-1.51A1.51,1.51,0,0,1,98.21,118.72Z" fill="#406c03"/>
      </g>
      <g>
        <path d="M25.91,123a1.51,1.51,0,1,1,1.5-1.52A1.52,1.52,0,0,1,25.91,123Z" fill="#406c03"/>
        <path d="M31.93,123a1.51,1.51,0,1,1,1.5-1.52A1.51,1.51,0,0,1,31.93,123Z" fill="#406c03"/>
        <path d="M44,123a1.51,1.51,0,1,1,1.5-1.52A1.51,1.51,0,0,1,44,123Z" fill="#406c03"/>
        <path d="M50,123a1.51,1.51,0,1,1,1.5-1.52A1.52,1.52,0,0,1,50,123Z" fill="#406c03"/>
        <path d="M62.06,123a1.51,1.51,0,1,1,1.5-1.52A1.52,1.52,0,0,1,62.06,123Z" fill="#406c03"/>
        <path d="M68.08,123a1.51,1.51,0,1,1,1.5-1.52A1.51,1.51,0,0,1,68.08,123Z" fill="#406c03"/>
        <path d="M80.13,123a1.51,1.51,0,1,1,1.5-1.52A1.51,1.51,0,0,1,80.13,123Z" fill="#406c03"/>
        <path d="M86.16,123a1.51,1.51,0,1,1,1.5-1.52A1.52,1.52,0,0,1,86.16,123Z" fill="#406c03"/>
      </g>
      <g>
        <path d="M25.91,127.23a1.51,1.51,0,1,1,1.5-1.52A1.52,1.52,0,0,1,25.91,127.23Z" fill="#406c03"/>
        <path d="M31.93,127.23a1.51,1.51,0,1,1,1.5-1.52A1.51,1.51,0,0,1,31.93,127.23Z" fill="#406c03"/>
        <path d="M44,127.23a1.51,1.51,0,1,1,1.5-1.52A1.51,1.51,0,0,1,44,127.23Z" fill="#406c03"/>
        <path d="M50,127.23a1.51,1.51,0,1,1,1.5-1.52A1.52,1.52,0,0,1,50,127.23Z" fill="#406c03"/>
        <path d="M62.06,127.23a1.51,1.51,0,1,1,1.5-1.52A1.52,1.52,0,0,1,62.06,127.23Z" fill="#406c03"/>
        <path d="M68.08,127.23a1.51,1.51,0,1,1,1.5-1.52A1.51,1.51,0,0,1,68.08,127.23Z" fill="#406c03"/>
        <path d="M80.13,127.23a1.51,1.51,0,1,1,1.5-1.52A1.51,1.51,0,0,1,80.13,127.23Z" fill="#406c03"/>
        <path d="M86.16,127.23a1.51,1.51,0,1,1,1.5-1.52A1.52,1.52,0,0,1,86.16,127.23Z" fill="#406c03"/>
      </g>
      <g>
        <path d="M25.91,131.48a1.51,1.51,0,1,1,0-3,1.51,1.51,0,0,1,0,3Z" fill="#406c03"/>
        <path d="M31.93,131.48a1.51,1.51,0,1,1,1.5-1.52A1.51,1.51,0,0,1,31.93,131.48Z" fill="#406c03"/>
        <path d="M44,131.48a1.51,1.51,0,1,1,1.5-1.52A1.51,1.51,0,0,1,44,131.48Z" fill="#406c03"/>
        <path d="M50,131.48a1.51,1.51,0,1,1,0-3,1.51,1.51,0,0,1,0,3Z" fill="#406c03"/>
        <path d="M62.06,131.48a1.51,1.51,0,1,1,0-3,1.51,1.51,0,0,1,0,3Z" fill="#406c03"/>
        <path d="M68.08,131.48a1.51,1.51,0,1,1,1.5-1.52A1.51,1.51,0,0,1,68.08,131.48Z" fill="#406c03"/>
        <path d="M80.13,131.48a1.51,1.51,0,1,1,1.5-1.52A1.51,1.51,0,0,1,80.13,131.48Z" fill="#406c03"/>
        <path d="M86.16,131.48a1.51,1.51,0,1,1,0-3,1.51,1.51,0,0,1,0,3Z" fill="#406c03"/>
      </g>
      <g>
        <path d="M25.91,135.73a1.51,1.51,0,1,1,1.5-1.52A1.51,1.51,0,0,1,25.91,135.73Z" fill="#406c03"/>
        <path d="M31.93,135.73a1.51,1.51,0,1,1,1.5-1.52A1.5,1.5,0,0,1,31.93,135.73Z" fill="#406c03"/>
        <path d="M44,135.73a1.51,1.51,0,1,1,1.5-1.52A1.5,1.5,0,0,1,44,135.73Z" fill="#406c03"/>
        <path d="M50,135.73a1.51,1.51,0,1,1,1.5-1.52A1.51,1.51,0,0,1,50,135.73Z" fill="#406c03"/>
        <path d="M62.06,135.73a1.51,1.51,0,1,1,1.5-1.52A1.51,1.51,0,0,1,62.06,135.73Z" fill="#406c03"/>
        <path d="M68.08,135.73a1.51,1.51,0,1,1,1.5-1.52A1.5,1.5,0,0,1,68.08,135.73Z" fill="#406c03"/>
        <path d="M80.13,135.73a1.51,1.51,0,1,1,1.5-1.52A1.5,1.5,0,0,1,80.13,135.73Z" fill="#406c03"/>
      </g>
      <g>
        <path d="M25.91,140a1.51,1.51,0,1,1,1.5-1.52A1.51,1.51,0,0,1,25.91,140Z" fill="#406c03"/>
        <path d="M31.93,140a1.51,1.51,0,1,1,1.5-1.52A1.5,1.5,0,0,1,31.93,140Z" fill="#406c03"/>
        <path d="M44,140a1.51,1.51,0,1,1,1.5-1.52A1.5,1.5,0,0,1,44,140Z" fill="#406c03"/>
        <path d="M50,140a1.51,1.51,0,1,1,1.5-1.52A1.51,1.51,0,0,1,50,140Z" fill="#406c03"/>
        <path d="M62.06,140a1.51,1.51,0,1,1,1.5-1.52A1.51,1.51,0,0,1,62.06,140Z" fill="#406c03"/>
        <path d="M68.08,140a1.51,1.51,0,1,1,1.5-1.52A1.5,1.5,0,0,1,68.08,140Z" fill="#406c03"/>
        <path d="M80.13,140a1.51,1.51,0,1,1,1.5-1.52A1.5,1.5,0,0,1,80.13,140Z" fill="#406c03"/>
      </g>
      <g>
        <path d="M25.91,144.23a1.51,1.51,0,1,1,1.5-1.51A1.51,1.51,0,0,1,25.91,144.23Z" fill="#406c03"/>
        <path d="M31.93,144.23a1.51,1.51,0,1,1,1.5-1.51A1.5,1.5,0,0,1,31.93,144.23Z" fill="#406c03"/>
        <path d="M44,144.23a1.51,1.51,0,1,1,1.5-1.51A1.5,1.5,0,0,1,44,144.23Z" fill="#406c03"/>
        <path d="M50,144.23a1.51,1.51,0,1,1,1.5-1.51A1.51,1.51,0,0,1,50,144.23Z" fill="#406c03"/>
        <path d="M62.06,144.23a1.51,1.51,0,1,1,1.5-1.51A1.51,1.51,0,0,1,62.06,144.23Z" fill="#406c03"/>
        <path d="M68.08,144.23a1.51,1.51,0,1,1,1.5-1.51A1.5,1.5,0,0,1,68.08,144.23Z" fill="#406c03"/>
      </g>
      <g>
        <path d="M25.91,148.48a1.51,1.51,0,1,1,1.5-1.52A1.51,1.51,0,0,1,25.91,148.48Z" fill="#406c03"/>
        <path d="M31.93,148.48a1.51,1.51,0,1,1,1.5-1.52A1.5,1.5,0,0,1,31.93,148.48Z" fill="#406c03"/>
        <path d="M44,148.48a1.51,1.51,0,1,1,1.5-1.52A1.5,1.5,0,0,1,44,148.48Z" fill="#406c03"/>
        <path d="M50,148.48a1.51,1.51,0,1,1,1.5-1.52A1.51,1.51,0,0,1,50,148.48Z" fill="#406c03"/>
        <path d="M62.06,148.48a1.51,1.51,0,1,1,1.5-1.52A1.51,1.51,0,0,1,62.06,148.48Z" fill="#406c03"/>
        <path d="M68.08,148.48a1.51,1.51,0,1,1,1.5-1.52A1.5,1.5,0,0,1,68.08,148.48Z" fill="#406c03"/>
      </g>
      <g>
        <path d="M25.91,152.74a1.51,1.51,0,1,1,1.5-1.52A1.52,1.52,0,0,1,25.91,152.74Z" fill="#406c03"/>
        <path d="M31.93,152.74a1.51,1.51,0,1,1,1.5-1.52A1.51,1.51,0,0,1,31.93,152.74Z" fill="#406c03"/>
        <path d="M44,152.74a1.51,1.51,0,1,1,1.5-1.52A1.51,1.51,0,0,1,44,152.74Z" fill="#406c03"/>
        <path d="M50,152.74a1.51,1.51,0,1,1,1.5-1.52A1.52,1.52,0,0,1,50,152.74Z" fill="#406c03"/>
        <path d="M62.06,152.74a1.51,1.51,0,1,1,1.5-1.52A1.52,1.52,0,0,1,62.06,152.74Z" fill="#406c03"/>
        <path d="M68.08,152.74a1.51,1.51,0,1,1,1.5-1.52A1.51,1.51,0,0,1,68.08,152.74Z" fill="#406c03"/>
      </g>
      <g>
        <path d="M25.91,157a1.51,1.51,0,1,1,1.5-1.52A1.52,1.52,0,0,1,25.91,157Z" fill="#406c03"/>
        <path d="M31.93,157a1.51,1.51,0,1,1,1.5-1.52A1.51,1.51,0,0,1,31.93,157Z" fill="#406c03"/>
        <path d="M44,157a1.51,1.51,0,1,1,1.5-1.52A1.51,1.51,0,0,1,44,157Z" fill="#406c03"/>
        <path d="M50,157a1.51,1.51,0,1,1,1.5-1.52A1.52,1.52,0,0,1,50,157Z" fill="#406c03"/>
        <path d="M62.06,157a1.51,1.51,0,1,1,1.5-1.52A1.52,1.52,0,0,1,62.06,157Z" fill="#406c03"/>
      </g>
      <g>
        <path d="M25.91,161.24a1.51,1.51,0,1,1,0-3,1.51,1.51,0,0,1,0,3Z" fill="#406c03"/>
        <path d="M31.93,161.24a1.51,1.51,0,1,1,1.5-1.52A1.51,1.51,0,0,1,31.93,161.24Z" fill="#406c03"/>
        <path d="M44,161.24a1.51,1.51,0,1,1,1.5-1.52A1.51,1.51,0,0,1,44,161.24Z" fill="#406c03"/>
        <path d="M50,161.24a1.51,1.51,0,1,1,0-3,1.51,1.51,0,0,1,0,3Z" fill="#406c03"/>
        <path d="M62.06,161.24a1.51,1.51,0,1,1,0-3,1.51,1.51,0,0,1,0,3Z" fill="#406c03"/>
      </g>
      <g>
        <path d="M25.91,165.49a1.51,1.51,0,1,1,1.5-1.52A1.51,1.51,0,0,1,25.91,165.49Z" fill="#406c03"/>
        <path d="M31.93,165.49a1.51,1.51,0,1,1,1.5-1.52A1.5,1.5,0,0,1,31.93,165.49Z" fill="#406c03"/>
        <path d="M44,165.49a1.51,1.51,0,1,1,1.5-1.52A1.5,1.5,0,0,1,44,165.49Z" fill="#406c03"/>
        <path d="M50,165.49a1.51,1.51,0,1,1,1.5-1.52A1.51,1.51,0,0,1,50,165.49Z" fill="#406c03"/>
      </g>
      <g>
        <path d="M25.91,169.74a1.51,1.51,0,1,1,1.5-1.52A1.51,1.51,0,0,1,25.91,169.74Z" fill="#406c03"/>
        <path d="M31.93,169.74a1.51,1.51,0,1,1,1.5-1.52A1.5,1.5,0,0,1,31.93,169.74Z" fill="#406c03"/>
        <path d="M44,169.74a1.51,1.51,0,1,1,1.5-1.52A1.5,1.5,0,0,1,44,169.74Z" fill="#406c03"/>
        <path d="M50,169.74a1.51,1.51,0,1,1,1.5-1.52A1.51,1.51,0,0,1,50,169.74Z" fill="#406c03"/>
      </g>
      <g>
        <path d="M25.91,174a1.51,1.51,0,1,1,1.5-1.52A1.51,1.51,0,0,1,25.91,174Z" fill="#406c03"/>
        <path d="M31.93,174a1.51,1.51,0,1,1,1.5-1.52A1.5,1.5,0,0,1,31.93,174Z" fill="#406c03"/>
        <path d="M44,174a1.51,1.51,0,1,1,1.5-1.52A1.5,1.5,0,0,1,44,174Z" fill="#406c03"/>
        <path d="M50,174a1.51,1.51,0,1,1,1.5-1.52A1.51,1.51,0,0,1,50,174Z" fill="#406c03"/>
      </g>
      <g>
        <path d="M25.91,178.24a1.51,1.51,0,1,1,1.5-1.52A1.51,1.51,0,0,1,25.91,178.24Z" fill="#406c03"/>
        <path d="M31.93,178.24a1.51,1.51,0,1,1,1.5-1.52A1.5,1.5,0,0,1,31.93,178.24Z" fill="#406c03"/>
        <path d="M44,178.24a1.51,1.51,0,1,1,1.5-1.52A1.5,1.5,0,0,1,44,178.24Z" fill="#406c03"/>
      </g>
      <g>
        <path d="M25.91,182.49a1.51,1.51,0,1,1,1.5-1.51A1.51,1.51,0,0,1,25.91,182.49Z" fill="#406c03"/>
        <path d="M31.93,182.49a1.51,1.51,0,1,1,1.5-1.51A1.5,1.5,0,0,1,31.93,182.49Z" fill="#406c03"/>
        <path d="M44,182.49a1.51,1.51,0,1,1,1.5-1.51A1.5,1.5,0,0,1,44,182.49Z" fill="#406c03"/>
      </g>
      <g>
        <path d="M25.91,186.75a1.51,1.51,0,1,1,1.5-1.52A1.52,1.52,0,0,1,25.91,186.75Z" fill="#406c03"/>
        <path d="M31.93,186.75a1.51,1.51,0,1,1,1.5-1.52A1.51,1.51,0,0,1,31.93,186.75Z" fill="#406c03"/>
      </g>
      <g>
        <path d="M25.91,191a1.51,1.51,0,1,1,1.5-1.52A1.52,1.52,0,0,1,25.91,191Z" fill="#406c03"/>
        <path d="M31.93,191a1.51,1.51,0,1,1,1.5-1.52A1.51,1.51,0,0,1,31.93,191Z" fill="#406c03"/>
      </g>
      <g>
        <path d="M25.91,195.25a1.51,1.51,0,1,1,1.5-1.52A1.51,1.51,0,0,1,25.91,195.25Z" fill="#406c03"/>
        <path d="M31.93,195.25a1.51,1.51,0,1,1,1.5-1.52A1.5,1.5,0,0,1,31.93,195.25Z" fill="#406c03"/>
      </g>
      <path d="M25.91,199.5a1.51,1.51,0,1,1,1.5-1.52A1.51,1.51,0,0,1,25.91,199.5Z" fill="#406c03"/>
      <path d="M25.91,203.75a1.51,1.51,0,1,1,1.5-1.52A1.51,1.51,0,0,1,25.91,203.75Z" fill="#406c03"/>
    </g>
    <g>
      <path d="M140.7,37.88V26.23a4.13,4.13,0,0,0-.28-1.6,3,3,0,0,0-.71-1,2.54,2.54,0,0,0-1-.57,4,4,0,0,0-1.12-.16,3.57,3.57,0,0,0-1.1.18,2.9,2.9,0,0,0-1,.57,2.78,2.78,0,0,0-.71,1,4.18,4.18,0,0,0-.27,1.58V37.88h-4.77V11.8h4.77v8.75a6.32,6.32,0,0,1,2.12-1.48,6.24,6.24,0,0,1,2.45-.5,6.81,6.81,0,0,1,2.77.52,5.49,5.49,0,0,1,2,1.44,6.18,6.18,0,0,1,1.2,2.22,9.15,9.15,0,0,1,.41,2.78V37.88Z" fill="#000008"/>
      <path d="M147.62,41.36v-1H159v1Z" fill="#000008"/>
      <path d="M170.5,37.88v-1.8a6,6,0,0,1-2.09,1.56,6.93,6.93,0,0,1-2.64.46,7.7,7.7,0,0,1-2.63-.46,5.66,5.66,0,0,1-2-1.26A4.78,4.78,0,0,1,160,34.73a9.58,9.58,0,0,1-.57-2,17.25,17.25,0,0,1-.22-2.2c0-.75,0-1.48,0-2.19s0-1.44,0-2.18A17.12,17.12,0,0,1,159.4,24a9.08,9.08,0,0,1,.57-2,5.17,5.17,0,0,1,1.12-1.67,5.65,5.65,0,0,1,2-1.26,7.56,7.56,0,0,1,2.62-.46,7.31,7.31,0,0,1,2.58.42,5.49,5.49,0,0,1,2.07,1.49V11.8h4.76V37.88Zm-.11-9.56a20.35,20.35,0,0,0-.11-2.16,5.41,5.41,0,0,0-.46-1.73,2.77,2.77,0,0,0-1-1.15,3.65,3.65,0,0,0-3.4,0,2.66,2.66,0,0,0-1,1.15,5.69,5.69,0,0,0-.44,1.73,18,18,0,0,0-.11,2.16A18.69,18.69,0,0,0,164,30.5a5.68,5.68,0,0,0,.44,1.74,2.66,2.66,0,0,0,1,1.15,3.65,3.65,0,0,0,3.4,0,2.77,2.77,0,0,0,1-1.15,5.4,5.4,0,0,0,.46-1.74A21.18,21.18,0,0,0,170.39,28.32Z" fill="#000008"/>
      <path d="M189.55,37.88V36.23a6.36,6.36,0,0,1-2,1.39,7,7,0,0,1-2.69.44A6.59,6.59,0,0,1,180,36.38a5.43,5.43,0,0,1-1.18-1.91,7.07,7.07,0,0,1-.4-2.38,5.86,5.86,0,0,1,.4-2.14A5,5,0,0,1,180,28.19a5.82,5.82,0,0,1,2-1.19,8.53,8.53,0,0,1,2.87-.44h4.51v-.95a2.87,2.87,0,0,0-.83-2.29,4.13,4.13,0,0,0-2.73-.72,7,7,0,0,0-1.2.09,4.15,4.15,0,0,0-.94.28,3.74,3.74,0,0,0-.79.47,5.7,5.7,0,0,0-.73.74l-3-3a7.32,7.32,0,0,1,2.95-2.09,12.17,12.17,0,0,1,3.94-.55q4,0,6.08,1.69a6.15,6.15,0,0,1,2,5V37.88Zm-.11-8.06h-3.77a3,3,0,0,0-2,.57A1.91,1.91,0,0,0,183,32a2,2,0,0,0,.68,1.59,3,3,0,0,0,2.07.61,8,8,0,0,0,1.68-.15,2.59,2.59,0,0,0,1.32-.77,3.25,3.25,0,0,0,.7-2.42Z" fill="#000008"/>
    </g>
    <g>
      <path d="M134.89,139.32v14.91h-4.76V139.32h-2V135.7h2v-2.38a6.17,6.17,0,0,1,.33-2,5,5,0,0,1,2.73-3,6.14,6.14,0,0,1,2.51-.47h2.71v4h-1.87c-1.1,0-1.65.57-1.65,1.72v2.09h3.52v3.62Z" fill="#000008"/>
      <path d="M140.39,154.23v-3.62l8.46-11.18h-8v-4.28h14.07v3.62L146.36,150h8.57v4.28Z" fill="#000008"/>
      <path d="M178.08,154.23V142.69a4.13,4.13,0,0,0-.28-1.64,2.74,2.74,0,0,0-1.75-1.65,3.76,3.76,0,0,0-1.12-.19,3.71,3.71,0,0,0-1.12.19,2.73,2.73,0,0,0-1,.58,3.08,3.08,0,0,0-.76,1.07,4.12,4.12,0,0,0-.29,1.64v11.54H167V135.15h4.65v1.76a6.27,6.27,0,0,1,2.2-1.49,6.85,6.85,0,0,1,2.56-.49,6.93,6.93,0,0,1,2.57.44,5.66,5.66,0,0,1,1.94,1.24,5.91,5.91,0,0,1,1.56,2.51,10.73,10.73,0,0,1,.38,2.91v12.2Z" fill="#000008"/>
      <path d="M203.57,144.67c0,.71,0,1.44,0,2.2a17.25,17.25,0,0,1-.22,2.2,9.35,9.35,0,0,1-.59,2,5,5,0,0,1-1.1,1.65,5.47,5.47,0,0,1-2,1.26,7.33,7.33,0,0,1-2.62.46,7.12,7.12,0,0,1-2.56-.42,5.33,5.33,0,0,1-2.06-1.48v8.68H187.6V135.15h4.62v1.79a5.83,5.83,0,0,1,2.1-1.55,6.92,6.92,0,0,1,2.66-.46,7.33,7.33,0,0,1,2.62.46,5.11,5.11,0,0,1,3.13,2.93,9,9,0,0,1,.59,2,17.31,17.31,0,0,1,.22,2.18C203.56,143.24,203.57,144,203.57,144.67Zm-4.76,0a20.49,20.49,0,0,0-.11-2.16,5.62,5.62,0,0,0-.44-1.72,2.69,2.69,0,0,0-1-1.16,3.06,3.06,0,0,0-1.7-.42,3.09,3.09,0,0,0-1.71.42,2.76,2.76,0,0,0-1,1.16,5.93,5.93,0,0,0-.44,1.72,20.49,20.49,0,0,0-.11,2.16,21,21,0,0,0,.11,2.18,6,6,0,0,0,.44,1.74,2.76,2.76,0,0,0,1,1.16,3.09,3.09,0,0,0,1.71.42,3.06,3.06,0,0,0,1.7-.42,2.69,2.69,0,0,0,1-1.16,5.68,5.68,0,0,0,.44-1.74A21,21,0,0,0,198.81,144.67Z" fill="#000008"/>
      <path d="M216,154.23h-3.74l-7-19.08h5l3.88,11.79L218,135.15h5Z" fill="#000008"/>
    </g>
    <g>
      <path d="M138.64,80.47V73.56h-7.19v6.91h-1.62V65.33h1.62v6.78h7.19V65.33h1.61V80.47Z" fill="#000008"/>
      <path d="M154.78,72.9c0,.81,0,1.51,0,2.12a10.56,10.56,0,0,1-.16,1.61,5.28,5.28,0,0,1-.43,1.29,4.29,4.29,0,0,1-.82,1.11,5.34,5.34,0,0,1-1.74,1.17,5.69,5.69,0,0,1-2.13.4A5.26,5.26,0,0,1,145.61,79a4.53,4.53,0,0,1-.82-1.11,4.88,4.88,0,0,1-.42-1.29,8.51,8.51,0,0,1-.16-1.61c0-.61,0-1.31,0-2.12s0-1.51,0-2.12a8.51,8.51,0,0,1,.16-1.61,4.88,4.88,0,0,1,.42-1.29,4.31,4.31,0,0,1,.82-1.1,5.53,5.53,0,0,1,7.74,0,4.09,4.09,0,0,1,.82,1.1,5.28,5.28,0,0,1,.43,1.29,10.56,10.56,0,0,1,.16,1.61C154.77,71.39,154.78,72.09,154.78,72.9Zm-1.62,0q0-1.19,0-2A9.68,9.68,0,0,0,153,69.5a3.6,3.6,0,0,0-.32-1,3,3,0,0,0-.57-.78,3.62,3.62,0,0,0-1.18-.8,3.82,3.82,0,0,0-2.87,0,3.52,3.52,0,0,0-1.18.8,2.83,2.83,0,0,0-.58.78,3.6,3.6,0,0,0-.32,1,11.37,11.37,0,0,0-.14,1.39q0,.83,0,2t0,2A11.37,11.37,0,0,0,146,76.3a3.49,3.49,0,0,0,.32,1,2.83,2.83,0,0,0,.58.78,3.52,3.52,0,0,0,1.18.8,3.82,3.82,0,0,0,2.87,0,3.62,3.62,0,0,0,1.18-.8,3,3,0,0,0,.57-.78,3.49,3.49,0,0,0,.32-1,9.68,9.68,0,0,0,.14-1.39Q153.16,74.09,153.16,72.9Z" fill="#000008"/>
      <path d="M168.86,76.09a6.45,6.45,0,0,1-.65,1.9,4.88,4.88,0,0,1-1.15,1.42,5,5,0,0,1-1.56.88,5.53,5.53,0,0,1-1.9.31,5.7,5.7,0,0,1-2.11-.4A5.32,5.32,0,0,1,159.73,79a4.48,4.48,0,0,1-.81-1.11,4.55,4.55,0,0,1-.43-1.29,9.42,9.42,0,0,1-.16-1.61c0-.61,0-1.31,0-2.12s0-1.51,0-2.12a9.42,9.42,0,0,1,.16-1.61,4.55,4.55,0,0,1,.43-1.29,4.26,4.26,0,0,1,.81-1.1,5.17,5.17,0,0,1,1.76-1.17,5.79,5.79,0,0,1,4-.1,5.2,5.2,0,0,1,1.56.88,5,5,0,0,1,1.15,1.42,6.45,6.45,0,0,1,.65,1.9H167.2A4,4,0,0,0,166,67.48a3.43,3.43,0,0,0-2.37-.83,3.9,3.9,0,0,0-1.43.27,3.36,3.36,0,0,0-1.18.79,3.29,3.29,0,0,0-.58.78,3.57,3.57,0,0,0-.31,1,8.68,8.68,0,0,0-.14,1.4q0,.83,0,2t0,2a8.68,8.68,0,0,0,.14,1.4,3.57,3.57,0,0,0,.31,1,3.29,3.29,0,0,0,.58.78,3.36,3.36,0,0,0,1.18.79,3.9,3.9,0,0,0,1.43.27,3.5,3.5,0,0,0,2.39-.83,4,4,0,0,0,1.25-2.23Z" fill="#000008"/>
      <path d="M181.15,80.47V73.56H174v6.91h-1.61V65.33H174v6.78h7.19V65.33h1.62V80.47Z" fill="#000008"/>
      <path d="M196.48,76.3a4.17,4.17,0,0,1-.37,1.8,3.77,3.77,0,0,1-1.06,1.35,4.91,4.91,0,0,1-1.66.85,7.23,7.23,0,0,1-2.14.3,8.14,8.14,0,0,1-2.91-.47,6.54,6.54,0,0,1-2.28-1.53l1.11-1.11a5.31,5.31,0,0,0,1.89,1.3,6.32,6.32,0,0,0,2.23.36,4.2,4.2,0,0,0,2.62-.73,2.46,2.46,0,0,0,1-2.07,3.16,3.16,0,0,0-.18-1.09,2,2,0,0,0-.54-.81,2.42,2.42,0,0,0-.76-.45,6.17,6.17,0,0,0-1.22-.27l-1.77-.28a5.52,5.52,0,0,1-2.78-1.15,3.56,3.56,0,0,1-1.15-2.82,4.38,4.38,0,0,1,.34-1.76,3.65,3.65,0,0,1,1-1.35,4.4,4.4,0,0,1,1.52-.86,6,6,0,0,1,2-.31,7.31,7.31,0,0,1,2.48.38,6.65,6.65,0,0,1,2,1.24l-1.05,1a5,5,0,0,0-1.51-1,5.37,5.37,0,0,0-2-.33,3.35,3.35,0,0,0-2.36.77,2.71,2.71,0,0,0-.83,2.06,2.24,2.24,0,0,0,.68,1.76,3.28,3.28,0,0,0,.91.51,6.12,6.12,0,0,0,1.13.33l1.66.25.95.18a4.86,4.86,0,0,1,.73.23,4,4,0,0,1,.59.28,3.59,3.59,0,0,1,.5.37A3.74,3.74,0,0,1,196.48,76.3Z" fill="#000008"/>
      <path d="M209.93,76.09a6.45,6.45,0,0,1-.65,1.9,4.88,4.88,0,0,1-1.15,1.42,5,5,0,0,1-1.56.88,5.61,5.61,0,0,1-1.9.31,5.7,5.7,0,0,1-2.11-.4A5.32,5.32,0,0,1,200.8,79a4.53,4.53,0,0,1-.82-1.11,4.88,4.88,0,0,1-.42-1.29A9.42,9.42,0,0,1,199.4,75c0-.61,0-1.31,0-2.12s0-1.51,0-2.12a9.42,9.42,0,0,1,.16-1.61,4.88,4.88,0,0,1,.42-1.29,4.31,4.31,0,0,1,.82-1.1,5.17,5.17,0,0,1,1.76-1.17,5.51,5.51,0,0,1,2.11-.41,5.61,5.61,0,0,1,1.9.31,5.2,5.2,0,0,1,1.56.88,5,5,0,0,1,1.15,1.42,6.45,6.45,0,0,1,.65,1.9h-1.66A3.94,3.94,0,0,0,207,67.48a3.39,3.39,0,0,0-2.36-.83,3.9,3.9,0,0,0-1.43.27,3.36,3.36,0,0,0-1.18.79,3,3,0,0,0-.58.78,3.56,3.56,0,0,0-.32,1,10.15,10.15,0,0,0-.13,1.4c0,.55,0,1.22,0,2s0,1.46,0,2a10.15,10.15,0,0,0,.13,1.4,3.56,3.56,0,0,0,.32,1,3,3,0,0,0,.58.78,3.36,3.36,0,0,0,1.18.79,3.9,3.9,0,0,0,1.43.27,3.45,3.45,0,0,0,2.38-.83,3.91,3.91,0,0,0,1.26-2.23Z" fill="#000008"/>
      <path d="M222.3,80.47V73.56h-7.18v6.91H213.5V65.33h1.62v6.78h7.18V65.33h1.62V80.47Z" fill="#000008"/>
      <path d="M238.79,75.47a5.21,5.21,0,0,1-.4,2.08,4.7,4.7,0,0,1-1.1,1.62,5.05,5.05,0,0,1-1.68,1.06,6.26,6.26,0,0,1-4.24,0,4.77,4.77,0,0,1-1.66-1.06,4.7,4.7,0,0,1-1.1-1.62,5.39,5.39,0,0,1-.39-2.08V65.33h1.61v10a4.57,4.57,0,0,0,.26,1.57,3.19,3.19,0,0,0,.73,1.19,3.46,3.46,0,0,0,1.16.77,4.36,4.36,0,0,0,3,0,3.46,3.46,0,0,0,1.16-.77,3.21,3.21,0,0,0,.74-1.19,4.35,4.35,0,0,0,.27-1.57v-10h1.62Z" fill="#000008"/>
      <path d="M243.23,80.47V65.33h1.62V79h7.74v1.44Z" fill="#000008"/>
      <path d="M255.82,80.47V65.33h9.4v1.45h-7.78v5.33h6.63v1.45h-6.63V79h7.78v1.44Z" fill="#000008"/>
      <path d="M286.85,72.73c0,.52,0,1.08,0,1.66a12.07,12.07,0,0,1-.14,1.71,7.21,7.21,0,0,1-.43,1.61,4.12,4.12,0,0,1-.91,1.36,4.47,4.47,0,0,1-1.66,1,6.21,6.21,0,0,1-2.17.36h-5.19V65.33h5.19a6.21,6.21,0,0,1,2.17.36,4.47,4.47,0,0,1,1.66,1,4.36,4.36,0,0,1,.91,1.31,6.37,6.37,0,0,1,.43,1.49,10.44,10.44,0,0,1,.14,1.59C286.85,71.67,286.85,72.21,286.85,72.73Zm-1.62,0c0-.47,0-.93,0-1.39a9.33,9.33,0,0,0-.09-1.32,5.51,5.51,0,0,0-.3-1.18,2.92,2.92,0,0,0-.59-1A3.31,3.31,0,0,0,282.9,67a5.37,5.37,0,0,0-1.64-.24H278V79h3.3a5.37,5.37,0,0,0,1.64-.25,3.31,3.31,0,0,0,1.34-.86,2.87,2.87,0,0,0,.59-1,6.67,6.67,0,0,0,.3-1.3,11.09,11.09,0,0,0,.09-1.43C285.23,73.68,285.23,73.2,285.23,72.73Z" fill="#000008"/>
      <path d="M299.57,80.47l-1.21-3.42h-6.62l-1.21,3.42h-1.72l5.57-15.14h1.36l5.55,15.14Zm-4.49-12.82-2.85,8h5.66Z" fill="#000008"/>
      <path d="M312.93,80.47l-3.45-6.72h-3.64v6.72h-1.61V65.33H310a5.25,5.25,0,0,1,1.81.29,4,4,0,0,1,1.43.83,3.78,3.78,0,0,1,.92,1.32,4.58,4.58,0,0,1,.33,1.77,4,4,0,0,1-.91,2.71,4.18,4.18,0,0,1-2.39,1.35l3.6,6.87Zm0-10.91a2.54,2.54,0,0,0-.84-2.09,3.31,3.31,0,0,0-2.18-.69h-4v5.55h4a3.36,3.36,0,0,0,2.18-.68A2.54,2.54,0,0,0,312.9,69.56Z" fill="#000008"/>
      <path d="M330.24,80.47V69l-4.15,9.12h-1.38L320.5,69v11.5h-1.62V65.33h1.62l4.93,10.74,4.81-10.74h1.61V80.47Z" fill="#000008"/>
      <path d="M345.68,76.3a4.32,4.32,0,0,1-.37,1.8,3.8,3.8,0,0,1-1.07,1.35,4.91,4.91,0,0,1-1.66.85,7.12,7.12,0,0,1-2.13.3,8.16,8.16,0,0,1-2.92-.47,6.51,6.51,0,0,1-2.27-1.53l1.1-1.11a5.43,5.43,0,0,0,1.9,1.3,6.28,6.28,0,0,0,2.23.36,4.17,4.17,0,0,0,2.61-.73,2.46,2.46,0,0,0,1-2.07,3.16,3.16,0,0,0-.18-1.09,2,2,0,0,0-.54-.81,2.21,2.21,0,0,0-.76-.45,6.17,6.17,0,0,0-1.22-.27l-1.76-.28a5.52,5.52,0,0,1-2.79-1.15,3.56,3.56,0,0,1-1.15-2.82,4.38,4.38,0,0,1,.34-1.76,3.77,3.77,0,0,1,1-1.35,4.5,4.5,0,0,1,1.52-.86,6.08,6.08,0,0,1,2-.31,7.41,7.41,0,0,1,2.49.38,6.61,6.61,0,0,1,2,1.24l-1,1a5,5,0,0,0-1.51-1,5.4,5.4,0,0,0-2-.33,3.35,3.35,0,0,0-2.36.77,2.68,2.68,0,0,0-.83,2.06,2.21,2.21,0,0,0,.68,1.76,3.21,3.21,0,0,0,.9.51A6,6,0,0,0,340,72l1.66.25.94.18a5.42,5.42,0,0,1,.74.23,3.91,3.91,0,0,1,.58.28,3.08,3.08,0,0,1,.5.37A3.75,3.75,0,0,1,345.68,76.3Z" fill="#000008"/>
      <path d="M353.42,66.78V80.47H351.8V66.78h-4.38V65.33H357.8v1.45Z" fill="#000008"/>
      <path d="M369.12,80.47l-1.22-3.42h-6.61l-1.21,3.42h-1.73l5.58-15.14h1.36l5.55,15.14Zm-4.49-12.82-2.85,8h5.66Z" fill="#000008"/>
      <path d="M384.39,72.73c0,.52,0,1.08,0,1.66a13.76,13.76,0,0,1-.14,1.71,7.23,7.23,0,0,1-.44,1.61,4.09,4.09,0,0,1-.9,1.36,4.64,4.64,0,0,1-1.66,1,6.25,6.25,0,0,1-2.17.36h-5.19V65.33h5.19a6.25,6.25,0,0,1,2.17.36,4.64,4.64,0,0,1,1.66,1,4.33,4.33,0,0,1,.9,1.31,6.39,6.39,0,0,1,.44,1.49,11.89,11.89,0,0,1,.14,1.59C384.38,71.67,384.39,72.21,384.39,72.73Zm-1.62,0c0-.47,0-.93,0-1.39a11.05,11.05,0,0,0-.1-1.32,5,5,0,0,0-.29-1.18,3,3,0,0,0-.6-1,3.24,3.24,0,0,0-1.34-.86,5.33,5.33,0,0,0-1.64-.24H375.5V79h3.29a5.32,5.32,0,0,0,1.64-.25,3.24,3.24,0,0,0,1.34-.86,2.88,2.88,0,0,0,.6-1,6,6,0,0,0,.29-1.3,13.19,13.19,0,0,0,.1-1.43C382.77,73.68,382.77,73.2,382.77,72.73Z" fill="#000008"/>
      <path d="M392.88,66.78V80.47h-1.61V66.78h-4.39V65.33h10.38v1.45Z" fill="#000008"/>
      <path d="M140.19,101a5.37,5.37,0,0,1-.39,2.07,5,5,0,0,1-1.11,1.63,5.19,5.19,0,0,1-1.68,1,6.23,6.23,0,0,1-4.23,0,4.94,4.94,0,0,1-1.67-1,4.84,4.84,0,0,1-1.1-1.63,5.37,5.37,0,0,1-.39-2.07V90.85h1.61v10a4.57,4.57,0,0,0,.26,1.57,3.19,3.19,0,0,0,.73,1.19,3.46,3.46,0,0,0,1.16.77,4.1,4.1,0,0,0,1.51.27,4,4,0,0,0,1.51-.27,3.34,3.34,0,0,0,1.91-2,4.57,4.57,0,0,0,.26-1.57v-10h1.62Z" fill="#000008"/>
      <path d="M154,106l-8-12.14V106h-1.61V90.85h1.53l8,12.1V90.85h1.61V106Z" fill="#000008"/>
      <path d="M160.39,106V90.85H162V106Z" fill="#000008"/>
      <path d="M171.69,106h-1.32l-5-15.14h1.7L171,103.1,175,90.85h1.7Z" fill="#000008"/>
      <path d="M180,106V90.85h9.4V92.3h-7.78v5.33h6.63v1.45h-6.63v5.47h7.78V106Z" fill="#000008"/>
      <path d="M201.48,106,198,99.27H194.4V106h-1.62V90.85h5.81a5.58,5.58,0,0,1,1.81.29,4,4,0,0,1,1.42.83,3.63,3.63,0,0,1,.93,1.33,4.49,4.49,0,0,1,.33,1.76,4,4,0,0,1-.92,2.71,4.16,4.16,0,0,1-2.38,1.35l3.6,6.87Zm0-10.91a2.55,2.55,0,0,0-.84-2.09,3.33,3.33,0,0,0-2.18-.69h-4v5.55h4a3.38,3.38,0,0,0,2.18-.68A2.54,2.54,0,0,0,201.46,95.08Z" fill="#000008"/>
      <path d="M216.09,101.82a4.17,4.17,0,0,1-.37,1.8,3.77,3.77,0,0,1-1.06,1.35,5,5,0,0,1-1.66.85,7.23,7.23,0,0,1-2.14.3,8.14,8.14,0,0,1-2.91-.47,6.54,6.54,0,0,1-2.28-1.53l1.11-1.1a5.41,5.41,0,0,0,1.89,1.29,6.32,6.32,0,0,0,2.23.36,4.2,4.2,0,0,0,2.62-.73,2.46,2.46,0,0,0,1-2.07,3.16,3.16,0,0,0-.18-1.09,2.08,2.08,0,0,0-.55-.81,2.27,2.27,0,0,0-.75-.45,7,7,0,0,0-1.22-.27L210,99a5.6,5.6,0,0,1-2.79-1.14A3.61,3.61,0,0,1,206.08,95a4.38,4.38,0,0,1,.34-1.76,3.74,3.74,0,0,1,1-1.35A4.6,4.6,0,0,1,208.9,91a6.36,6.36,0,0,1,2-.31,7.06,7.06,0,0,1,2.48.39,6.28,6.28,0,0,1,2,1.23l-1,1a5.25,5.25,0,0,0-1.51-1,5.37,5.37,0,0,0-2-.33,3.31,3.31,0,0,0-2.36.78,2.67,2.67,0,0,0-.83,2,2.22,2.22,0,0,0,.68,1.76,3.4,3.4,0,0,0,.91.52,6.1,6.1,0,0,0,1.13.32l1.66.25.95.18a4.86,4.86,0,0,1,.73.23,4,4,0,0,1,.59.28,3.47,3.47,0,0,1,.5.38A3.71,3.71,0,0,1,216.09,101.82Z" fill="#000008"/>
      <path d="M220.11,106V90.85h1.62V106Z" fill="#000008"/>
      <path d="M231.11,92.3V106h-1.62V92.3h-4.38V90.85h10.38V92.3Z" fill="#000008"/>
      <path d="M243.7,99.74V106h-1.62V99.74l-4.51-8.89h1.75l3.57,7.25,3.53-7.25h1.75Z" fill="#000008"/>
      <path d="M267.2,98.42c0,.81,0,1.52,0,2.12a10.56,10.56,0,0,1-.16,1.61,4.89,4.89,0,0,1-.43,1.29,4.29,4.29,0,0,1-.82,1.11,5.34,5.34,0,0,1-1.74,1.17,5.5,5.5,0,0,1-2.13.4,5.26,5.26,0,0,1-3.87-1.57,4.81,4.81,0,0,1-.82-1.11,4.88,4.88,0,0,1-.42-1.29,9.42,9.42,0,0,1-.16-1.61c0-.6,0-1.31,0-2.12s0-1.51,0-2.11a9.44,9.44,0,0,1,.16-1.62,5,5,0,0,1,.42-1.29,4.56,4.56,0,0,1,.82-1.1,5.53,5.53,0,0,1,7.74,0,4.09,4.09,0,0,1,.82,1.1,5,5,0,0,1,.43,1.29,10.57,10.57,0,0,1,.16,1.62C267.19,96.91,267.2,97.61,267.2,98.42Zm-1.62,0q0-1.19,0-2a9.83,9.83,0,0,0-.14-1.39,3.39,3.39,0,0,0-.32-1,3.18,3.18,0,0,0-.57-.78,3.45,3.45,0,0,0-1.18-.79,3.7,3.7,0,0,0-2.87,0,3.36,3.36,0,0,0-1.18.79,3.22,3.22,0,0,0-.58.78,4.11,4.11,0,0,0-.32,1,10,10,0,0,0-.13,1.39c0,.55,0,1.22,0,2s0,1.47,0,2a9.84,9.84,0,0,0,.13,1.39,3.84,3.84,0,0,0,.32,1,3,3,0,0,0,.58.78,3.38,3.38,0,0,0,1.18.8,3.82,3.82,0,0,0,2.87,0,3.47,3.47,0,0,0,1.18-.8,3,3,0,0,0,.57-.78,3.2,3.2,0,0,0,.32-1,9.68,9.68,0,0,0,.14-1.39Q265.58,99.62,265.58,98.42Z" fill="#000008"/>
      <path d="M272.73,92.3v5.57h6.63v1.45h-6.63V106h-1.62V90.85h9.4V92.3Z" fill="#000008"/>
      <path d="M298,106l-1.21-3.42h-6.61L288.91,106h-1.72l5.57-15.14h1.36L299.68,106Zm-4.48-12.82-2.85,8h5.65Z" fill="#000008"/>
      <path d="M313,95.29a4.82,4.82,0,0,1-.34,1.86,4,4,0,0,1-1,1.4,4.3,4.3,0,0,1-1.48.89,5.26,5.26,0,0,1-1.9.32h-4V106h-1.62V90.85h5.64a5.49,5.49,0,0,1,1.9.31,4,4,0,0,1,1.48.89,4.11,4.11,0,0,1,1,1.41A4.66,4.66,0,0,1,313,95.29Zm-1.62,0a2.76,2.76,0,0,0-.89-2.25,3.49,3.49,0,0,0-2.32-.74h-3.87v6h3.87a3.5,3.5,0,0,0,2.32-.76A2.79,2.79,0,0,0,311.37,95.29Z" fill="#000008"/>
      <path d="M326.8,95.29a4.82,4.82,0,0,1-.34,1.86,3.82,3.82,0,0,1-.95,1.4,4.4,4.4,0,0,1-1.48.89,5.26,5.26,0,0,1-1.9.32h-4V106h-1.62V90.85h5.64a5.49,5.49,0,0,1,1.9.31,4.1,4.1,0,0,1,1.48.89,4,4,0,0,1,.95,1.41A4.66,4.66,0,0,1,326.8,95.29Zm-1.61,0A2.79,2.79,0,0,0,324.3,93,3.49,3.49,0,0,0,322,92.3h-3.87v6H322a3.5,3.5,0,0,0,2.32-.76A2.82,2.82,0,0,0,325.19,95.29Z" fill="#000008"/>
      <path d="M329.93,106V90.85h1.62v13.7h7.74V106Z" fill="#000008"/>
      <path d="M342.14,106V90.85h1.62V106Z" fill="#000008"/>
      <path d="M348.41,106V90.85h9.4V92.3H350v5.33h6.63v1.45H350v5.47h7.78V106Z" fill="#000008"/>
      <path d="M371.74,98.25c0,.53,0,1.08,0,1.66a10.76,10.76,0,0,1-.14,1.71,7.21,7.21,0,0,1-.43,1.61,4.12,4.12,0,0,1-.91,1.36,4.51,4.51,0,0,1-1.65,1,6.29,6.29,0,0,1-2.17.36h-5.19V90.85h5.19a6.29,6.29,0,0,1,2.17.36,4.51,4.51,0,0,1,1.65,1,4.36,4.36,0,0,1,.91,1.31,6.37,6.37,0,0,1,.43,1.49,9.34,9.34,0,0,1,.14,1.6C371.74,97.19,371.74,97.73,371.74,98.25Zm-1.61,0c0-.47,0-.93,0-1.39a11.05,11.05,0,0,0-.1-1.32,5.51,5.51,0,0,0-.3-1.18,2.92,2.92,0,0,0-.59-1,3.31,3.31,0,0,0-1.34-.86,5.33,5.33,0,0,0-1.64-.24h-3.3v12.25h3.3a5,5,0,0,0,1.64-.25,3.31,3.31,0,0,0,1.34-.86,2.87,2.87,0,0,0,.59-1,6.5,6.5,0,0,0,.3-1.3,13.19,13.19,0,0,0,.1-1.43C370.12,99.2,370.13,98.72,370.13,98.25Z" fill="#000008"/>
      <path d="M391.84,101.82a4.17,4.17,0,0,1-.37,1.8,3.77,3.77,0,0,1-1.06,1.35,5.11,5.11,0,0,1-1.66.85,7.23,7.23,0,0,1-2.14.3,8.1,8.1,0,0,1-2.91-.47,6.54,6.54,0,0,1-2.28-1.53l1.11-1.1a5.41,5.41,0,0,0,1.89,1.29,6.32,6.32,0,0,0,2.23.36,4.2,4.2,0,0,0,2.62-.73,2.46,2.46,0,0,0,1-2.07,3.15,3.15,0,0,0-.19-1.09,2.06,2.06,0,0,0-.54-.81,2.27,2.27,0,0,0-.75-.45,7.16,7.16,0,0,0-1.23-.27L385.76,99A5.52,5.52,0,0,1,383,97.83,3.62,3.62,0,0,1,381.82,95a4.56,4.56,0,0,1,.34-1.76,3.77,3.77,0,0,1,1-1.35,4.6,4.6,0,0,1,1.52-.86,6.35,6.35,0,0,1,2-.31,7.08,7.08,0,0,1,2.49.39,6.28,6.28,0,0,1,2,1.23l-1,1a5.25,5.25,0,0,0-1.51-1,5.37,5.37,0,0,0-2-.33,3.31,3.31,0,0,0-2.36.78,2.67,2.67,0,0,0-.83,2,2.22,2.22,0,0,0,.68,1.76,3.49,3.49,0,0,0,.9.52,6.2,6.2,0,0,0,1.14.32l1.66.25.95.18a5.26,5.26,0,0,1,.73.23,4.6,4.6,0,0,1,.59.28,3.47,3.47,0,0,1,.5.38A3.71,3.71,0,0,1,391.84,101.82Z" fill="#000008"/>
      <path d="M405,101.61a6.52,6.52,0,0,1-.65,1.91,4.84,4.84,0,0,1-1.15,1.41,5,5,0,0,1-1.56.88,5.61,5.61,0,0,1-1.9.31,5.5,5.5,0,0,1-2.11-.4,5.32,5.32,0,0,1-1.76-1.17,4.53,4.53,0,0,1-.82-1.11,4.88,4.88,0,0,1-.42-1.29,9.42,9.42,0,0,1-.16-1.61c0-.6,0-1.31,0-2.12s0-1.51,0-2.11a9.44,9.44,0,0,1,.16-1.62,5,5,0,0,1,.42-1.29,4.31,4.31,0,0,1,.82-1.1,5.32,5.32,0,0,1,1.76-1.17,5.51,5.51,0,0,1,2.11-.41,5.87,5.87,0,0,1,1.9.31,5.2,5.2,0,0,1,1.56.88,5,5,0,0,1,1.15,1.42,6.45,6.45,0,0,1,.65,1.9h-1.66A4,4,0,0,0,402.11,93a3.43,3.43,0,0,0-2.36-.83,3.72,3.72,0,0,0-1.43.28,3.2,3.2,0,0,0-1.18.78,3,3,0,0,0-.58.78,3.67,3.67,0,0,0-.32,1,10.3,10.3,0,0,0-.13,1.4c0,.55,0,1.22,0,2s0,1.47,0,2a10,10,0,0,0,.13,1.4,3.46,3.46,0,0,0,.32,1,3,3,0,0,0,.58.78,3.36,3.36,0,0,0,1.18.79,3.9,3.9,0,0,0,1.43.27,3.45,3.45,0,0,0,2.38-.83,3.91,3.91,0,0,0,1.26-2.23Z" fill="#000008"/>
      <path d="M408.9,106V90.85h1.61V106Z" fill="#000008"/>
      <path d="M415.26,106V90.85h9.4V92.3h-7.79v5.33h6.64v1.45h-6.64v5.47h7.79V106Z" fill="#000008"/>
      <path d="M437.86,106l-8-12.14V106h-1.62V90.85h1.53l8,12.1V90.85h1.62V106Z" fill="#000008"/>
      <path d="M453.39,101.61a6.24,6.24,0,0,1-.65,1.91,4.68,4.68,0,0,1-1.15,1.41,5,5,0,0,1-1.56.88,5.86,5.86,0,0,1-4-.09,5.27,5.27,0,0,1-1.75-1.17,4.29,4.29,0,0,1-.82-1.11,4.89,4.89,0,0,1-.43-1.29,10.56,10.56,0,0,1-.16-1.61c0-.6,0-1.31,0-2.12s0-1.51,0-2.11a10.57,10.57,0,0,1,.16-1.62,5,5,0,0,1,.43-1.29,4.09,4.09,0,0,1,.82-1.1A5.27,5.27,0,0,1,446,91.13a5.56,5.56,0,0,1,2.12-.41A5.76,5.76,0,0,1,450,91a5.2,5.2,0,0,1,1.56.88,4.85,4.85,0,0,1,1.15,1.42,6.18,6.18,0,0,1,.65,1.9h-1.66A4,4,0,0,0,450.5,93a3.45,3.45,0,0,0-2.36-.83,3.73,3.73,0,0,0-1.44.28,3.29,3.29,0,0,0-1.18.78A3,3,0,0,0,445,94a3.67,3.67,0,0,0-.32,1,10.15,10.15,0,0,0-.14,1.4q0,.82,0,2t0,2a9.83,9.83,0,0,0,.14,1.4,3.46,3.46,0,0,0,.32,1,3,3,0,0,0,.57.78,3.45,3.45,0,0,0,1.18.79,3.92,3.92,0,0,0,1.44.27,3.47,3.47,0,0,0,2.38-.83,3.84,3.84,0,0,0,1.25-2.23Z" fill="#000008"/>
      <path d="M456.9,106V90.85h9.4V92.3h-7.78v5.33h6.63v1.45h-6.63v5.47h7.78V106Z" fill="#000008"/>
      <path d="M479.1,101.82a4.17,4.17,0,0,1-.37,1.8,3.77,3.77,0,0,1-1.06,1.35,5,5,0,0,1-1.66.85,7.23,7.23,0,0,1-2.14.3,8.14,8.14,0,0,1-2.91-.47,6.54,6.54,0,0,1-2.28-1.53l1.11-1.1a5.41,5.41,0,0,0,1.89,1.29,6.32,6.32,0,0,0,2.23.36,4.2,4.2,0,0,0,2.62-.73,2.46,2.46,0,0,0,1-2.07,3.16,3.16,0,0,0-.18-1.09,2.08,2.08,0,0,0-.55-.81,2.27,2.27,0,0,0-.75-.45,7,7,0,0,0-1.22-.27L473,99a5.6,5.6,0,0,1-2.79-1.14A3.61,3.61,0,0,1,469.09,95a4.38,4.38,0,0,1,.34-1.76,3.74,3.74,0,0,1,1-1.35,4.6,4.6,0,0,1,1.52-.86,6.36,6.36,0,0,1,2-.31,7.06,7.06,0,0,1,2.48.39,6.28,6.28,0,0,1,2,1.23l-1,1a5.25,5.25,0,0,0-1.51-1,5.37,5.37,0,0,0-2-.33,3.31,3.31,0,0,0-2.36.78,2.67,2.67,0,0,0-.83,2,2.22,2.22,0,0,0,.68,1.76,3.4,3.4,0,0,0,.91.52,6.1,6.1,0,0,0,1.13.32l1.66.25.95.18a4.86,4.86,0,0,1,.73.23,4,4,0,0,1,.59.28,3.47,3.47,0,0,1,.5.38A3.71,3.71,0,0,1,479.1,101.82Z" fill="#000008"/>
    </g>
    <g>
      <path d="M131.45,169.12v5.57h6.63v1.45h-6.63v6.68h-1.62V167.67h9.4v1.45Z" fill="#000008"/>
      <path d="M152.61,175.25c0,.8,0,1.51,0,2.11a10.83,10.83,0,0,1-.16,1.62,5.15,5.15,0,0,1-.43,1.29,4.09,4.09,0,0,1-.82,1.1,5.34,5.34,0,0,1-1.74,1.17,5.5,5.5,0,0,1-2.13.41,5.27,5.27,0,0,1-3.87-1.58,4.56,4.56,0,0,1-.82-1.1,5.14,5.14,0,0,1-.42-1.29,9.66,9.66,0,0,1-.16-1.62c0-.6,0-1.31,0-2.11s0-1.52,0-2.12a9.66,9.66,0,0,1,.16-1.62,4.93,4.93,0,0,1,.42-1.28,4.6,4.6,0,0,1,.82-1.11,5.55,5.55,0,0,1,7.74,0,4.13,4.13,0,0,1,.82,1.11,4.94,4.94,0,0,1,.43,1.28,10.83,10.83,0,0,1,.16,1.62C152.6,173.73,152.61,174.44,152.61,175.25Zm-1.62,0q0-1.2,0-2a10,10,0,0,0-.14-1.4,3.39,3.39,0,0,0-.32-1,3.13,3.13,0,0,0-.57-.77,3.47,3.47,0,0,0-1.18-.8,3.7,3.7,0,0,0-2.87,0,3.38,3.38,0,0,0-1.18.8,3.18,3.18,0,0,0-.58.77,4.11,4.11,0,0,0-.32,1,10.15,10.15,0,0,0-.13,1.4c0,.54,0,1.21,0,2s0,1.46,0,2a10,10,0,0,0,.13,1.39,4.11,4.11,0,0,0,.32,1,3.18,3.18,0,0,0,.58.77,3.38,3.38,0,0,0,1.18.8,3.7,3.7,0,0,0,2.87,0,3.47,3.47,0,0,0,1.18-.8,3.13,3.13,0,0,0,.57-.77,3.39,3.39,0,0,0,.32-1,9.83,9.83,0,0,0,.14-1.39Q151,176.44,151,175.25Z" fill="#000008"/>
      <path d="M165.52,182.82l-3.44-6.72h-3.64v6.72h-1.61V167.67h5.8a5.54,5.54,0,0,1,1.81.29,4.14,4.14,0,0,1,1.43.83,3.82,3.82,0,0,1,.92,1.33,4.54,4.54,0,0,1,.33,1.77,4,4,0,0,1-.91,2.71,4.18,4.18,0,0,1-2.39,1.35l3.6,6.87Zm0-10.91a2.56,2.56,0,0,0-.84-2.1,3.31,3.31,0,0,0-2.18-.69h-4v5.55h4a3.31,3.31,0,0,0,2.18-.68A2.52,2.52,0,0,0,165.5,171.91Z" fill="#000008"/>
      <path d="M180.69,178.65a4.2,4.2,0,0,1-.37,1.8,3.77,3.77,0,0,1-1.06,1.35,5,5,0,0,1-1.66.85,7.23,7.23,0,0,1-2.14.3,8.14,8.14,0,0,1-2.91-.47,6.54,6.54,0,0,1-2.28-1.53l1.11-1.11a5.45,5.45,0,0,0,1.89,1.3,6.32,6.32,0,0,0,2.23.36,4.2,4.2,0,0,0,2.62-.74,2.44,2.44,0,0,0,1-2.07,3.06,3.06,0,0,0-.18-1.08,2,2,0,0,0-.55-.81,2.31,2.31,0,0,0-.75-.46,7.19,7.19,0,0,0-1.22-.26l-1.77-.28a5.6,5.6,0,0,1-2.79-1.15,3.6,3.6,0,0,1-1.14-2.83,4.34,4.34,0,0,1,.34-1.75,3.74,3.74,0,0,1,1-1.35,4.43,4.43,0,0,1,1.52-.86,6.1,6.1,0,0,1,2-.31,7.07,7.07,0,0,1,2.48.38,6.65,6.65,0,0,1,2,1.23l-1,1.05a5,5,0,0,0-1.51-1,5.37,5.37,0,0,0-2-.33,3.35,3.35,0,0,0-2.36.77,2.68,2.68,0,0,0-.83,2.06,2.24,2.24,0,0,0,.68,1.76,3.14,3.14,0,0,0,.91.51,6.1,6.1,0,0,0,1.13.32l1.66.26a9,9,0,0,1,.95.18,4.91,4.91,0,0,1,.73.22,4.05,4.05,0,0,1,.59.29,3.39,3.39,0,0,1,.5.37A3.72,3.72,0,0,1,180.69,178.65Z" fill="#000008"/>
      <path d="M194.8,178.44a6.45,6.45,0,0,1-.65,1.9,4.84,4.84,0,0,1-1.15,1.41,5,5,0,0,1-1.56.89,5.78,5.78,0,0,1-1.9.31,5.51,5.51,0,0,1-2.11-.41,5.32,5.32,0,0,1-1.76-1.17,4.26,4.26,0,0,1-.81-1.1,4.78,4.78,0,0,1-.43-1.29,9.66,9.66,0,0,1-.16-1.62c0-.6,0-1.31,0-2.11s0-1.52,0-2.12a9.66,9.66,0,0,1,.16-1.62,4.59,4.59,0,0,1,.43-1.28,4.31,4.31,0,0,1,.81-1.11,5.32,5.32,0,0,1,1.76-1.17,5.86,5.86,0,0,1,4-.09,5,5,0,0,1,1.56.88,4.84,4.84,0,0,1,1.15,1.41,6.52,6.52,0,0,1,.65,1.91h-1.66a4,4,0,0,0-1.23-2.24,3.48,3.48,0,0,0-2.37-.83,3.91,3.91,0,0,0-1.43.28,3.23,3.23,0,0,0-1.18.79,3.46,3.46,0,0,0-.58.77,3.68,3.68,0,0,0-.31,1,8.82,8.82,0,0,0-.14,1.41q0,.81,0,2t0,2a8.8,8.8,0,0,0,.14,1.4,3.68,3.68,0,0,0,.31,1,3.51,3.51,0,0,0,.58.78,3.2,3.2,0,0,0,1.18.78,3.72,3.72,0,0,0,1.43.28,3.55,3.55,0,0,0,2.39-.83,4,4,0,0,0,1.25-2.23Z" fill="#000008"/>
      <path d="M207.56,182.82v-6.91h-7.19v6.91h-1.62V167.67h1.62v6.79h7.19v-6.79h1.61v15.15Z" fill="#000008"/>
      <path d="M224.25,177.82a5.37,5.37,0,0,1-.39,2.07,4.77,4.77,0,0,1-1.11,1.63,4.83,4.83,0,0,1-1.68,1,6.08,6.08,0,0,1-4.23,0,4.79,4.79,0,0,1-1.67-1,4.89,4.89,0,0,1-1.1-1.63,5.37,5.37,0,0,1-.39-2.07V167.67h1.62v10a4.64,4.64,0,0,0,.25,1.58,3.37,3.37,0,0,0,.74,1.19,3.3,3.3,0,0,0,1.15.76,3.9,3.9,0,0,0,1.51.28,3.83,3.83,0,0,0,1.51-.28,3.34,3.34,0,0,0,1.16-.76,3.55,3.55,0,0,0,.75-1.19,4.63,4.63,0,0,0,.26-1.58v-10h1.62Z" fill="#000008"/>
      <path d="M238.4,182.82l-8-12.15v12.15h-1.61V167.67h1.53l8,12.11V167.67h1.61v15.15Z" fill="#000008"/>
      <path d="M254.78,177.29a7.62,7.62,0,0,1-.29,2.24,4.41,4.41,0,0,1-1,1.67,5.41,5.41,0,0,1-1.84,1.31,5.61,5.61,0,0,1-2.2.44,5.52,5.52,0,0,1-2.12-.41,5.32,5.32,0,0,1-1.76-1.17,4.26,4.26,0,0,1-.81-1.1,4.78,4.78,0,0,1-.43-1.29,9.66,9.66,0,0,1-.16-1.62c0-.6,0-1.31,0-2.11s0-1.52,0-2.12a9.66,9.66,0,0,1,.16-1.62,4.59,4.59,0,0,1,.43-1.28,4.31,4.31,0,0,1,.81-1.11,5.26,5.26,0,0,1,3.88-1.57,5.71,5.71,0,0,1,2,.33,4.94,4.94,0,0,1,1.59.93,5.23,5.23,0,0,1,1.11,1.44,5.72,5.72,0,0,1,.61,1.83h-1.62a4,4,0,0,0-1.28-2.27,3.61,3.61,0,0,0-2.39-.82,3.74,3.74,0,0,0-1.44.29,3.65,3.65,0,0,0-1.76,1.57,3.72,3.72,0,0,0-.31,1,8.68,8.68,0,0,0-.14,1.4q0,.81,0,2t0,2a8.8,8.8,0,0,0,.14,1.4,3.68,3.68,0,0,0,.31,1,3.51,3.51,0,0,0,.58.78,3.29,3.29,0,0,0,1.18.78,3.73,3.73,0,0,0,1.44.28,3.89,3.89,0,0,0,1.58-.33,3.49,3.49,0,0,0,1.29-1A3.38,3.38,0,0,0,253,179a5.79,5.79,0,0,0,.19-1.54v-1.15h-3.72v-1.43h5.33Z" fill="#000008"/>
      <path d="M268.39,178.65a4.2,4.2,0,0,1-.38,1.8A3.66,3.66,0,0,1,267,181.8a4.91,4.91,0,0,1-1.66.85,7.19,7.19,0,0,1-2.14.3,8.14,8.14,0,0,1-2.91-.47A6.42,6.42,0,0,1,258,181l1.1-1.11a5.63,5.63,0,0,0,1.89,1.3,6.38,6.38,0,0,0,2.24.36,4.17,4.17,0,0,0,2.61-.74,2.44,2.44,0,0,0,1-2.07,3.06,3.06,0,0,0-.18-1.08,1.93,1.93,0,0,0-.54-.81,2.35,2.35,0,0,0-.76-.46,7.19,7.19,0,0,0-1.22-.26l-1.77-.28a5.52,5.52,0,0,1-2.78-1.15,3.57,3.57,0,0,1-1.15-2.83,4.34,4.34,0,0,1,.34-1.75,3.77,3.77,0,0,1,1-1.35,4.34,4.34,0,0,1,1.52-.86,6,6,0,0,1,2-.31,7.16,7.16,0,0,1,2.49.38,6.77,6.77,0,0,1,2,1.23l-1,1.05a5.17,5.17,0,0,0-1.51-1,5.42,5.42,0,0,0-2-.33,3.37,3.37,0,0,0-2.36.77,2.68,2.68,0,0,0-.83,2.06,2.21,2.21,0,0,0,.69,1.76,3.21,3.21,0,0,0,.9.51,6,6,0,0,0,1.14.32l1.66.26a8.78,8.78,0,0,1,.94.18,5.47,5.47,0,0,1,.74.22,4.48,4.48,0,0,1,.58.29,2.94,2.94,0,0,1,.5.37A3.72,3.72,0,0,1,268.39,178.65Z" fill="#000008"/>
      <path d="M271.47,182.82v-1.53l7.58-12.17h-7.28v-1.45h9.11V169l-7.64,12.33h7.64v1.45Z" fill="#000008"/>
      <path d="M284.75,182.82V167.67h9.4v1.45h-7.79v5.34H293v1.45h-6.64v5.46h7.79v1.45Z" fill="#000008"/>
      <path d="M307.65,182.82l-8-12.15v12.15H298V167.67h1.53l8,12.11V167.67h1.61v15.15Z" fill="#000008"/>
      <path d="M318.77,169.12v13.7h-1.62v-13.7h-4.38v-1.45h10.38v1.45Z" fill="#000008"/>
      <path d="M335.44,182.82,332,176.1h-3.64v6.72h-1.61V167.67h5.8a5.54,5.54,0,0,1,1.81.29,4.14,4.14,0,0,1,1.43.83,3.82,3.82,0,0,1,.92,1.33,4.54,4.54,0,0,1,.33,1.77,4,4,0,0,1-.91,2.71,4.18,4.18,0,0,1-2.39,1.35l3.6,6.87Zm0-10.91a2.56,2.56,0,0,0-.84-2.1,3.31,3.31,0,0,0-2.18-.69h-4v5.55h4a3.31,3.31,0,0,0,2.18-.68A2.52,2.52,0,0,0,335.41,171.91Z" fill="#000008"/>
      <path d="M351.49,177.82a5.37,5.37,0,0,1-.39,2.07,4.63,4.63,0,0,1-1.11,1.63,4.83,4.83,0,0,1-1.68,1,6.08,6.08,0,0,1-4.23,0,4.88,4.88,0,0,1-1.67-1,4.72,4.72,0,0,1-1.09-1.63,5.2,5.2,0,0,1-.4-2.07V167.67h1.62v10a4.64,4.64,0,0,0,.25,1.58,3.23,3.23,0,0,0,1.9,1.95,3.83,3.83,0,0,0,1.51.28,3.9,3.9,0,0,0,1.51-.28,3.44,3.44,0,0,0,1.16-.76,3.52,3.52,0,0,0,.74-1.19,4.4,4.4,0,0,0,.27-1.58v-10h1.61Z" fill="#000008"/>
      <path d="M367.35,182.82V171.31l-4.15,9.13h-1.38l-4.22-9.13v11.51H356V167.67h1.61l4.94,10.75,4.81-10.75H369v15.15Z" fill="#000008"/>
      <path d="M139.49,211.46l-8-12.15v12.15h-1.62V196.32h1.53l8,12.1v-12.1H141v15.14Z" fill="#000008"/>
      <path d="M155.18,211.46,154,208h-6.62l-1.21,3.43h-1.72L150,196.32h1.36l5.55,15.14Zm-4.49-12.83-2.85,8h5.66Z" fill="#000008"/>
      <path d="M169.9,207.08a6.45,6.45,0,0,1-.65,1.9,4.84,4.84,0,0,1-1.15,1.41,5,5,0,0,1-1.56.89,5.78,5.78,0,0,1-1.9.31,5.51,5.51,0,0,1-2.11-.41,5.32,5.32,0,0,1-1.76-1.17,4.26,4.26,0,0,1-.81-1.1,4.78,4.78,0,0,1-.43-1.29,9.55,9.55,0,0,1-.16-1.62c0-.6,0-1.31,0-2.11s0-1.52,0-2.12a9.66,9.66,0,0,1,.16-1.62,4.59,4.59,0,0,1,.43-1.28,4.31,4.31,0,0,1,.81-1.11,5.32,5.32,0,0,1,1.76-1.17,5.86,5.86,0,0,1,4-.09,5,5,0,0,1,1.56.88,4.84,4.84,0,0,1,1.15,1.41,6.52,6.52,0,0,1,.65,1.91h-1.66a4,4,0,0,0-1.23-2.24,3.48,3.48,0,0,0-2.37-.83,3.91,3.91,0,0,0-1.43.28,3.23,3.23,0,0,0-1.18.79,3.46,3.46,0,0,0-.58.77,3.68,3.68,0,0,0-.31,1,8.82,8.82,0,0,0-.14,1.41q0,.81,0,2t0,2a8.8,8.8,0,0,0,.14,1.4,3.68,3.68,0,0,0,.31,1,3.51,3.51,0,0,0,.58.78,3.2,3.2,0,0,0,1.18.78,3.72,3.72,0,0,0,1.43.28,3.55,3.55,0,0,0,2.39-.83,4,4,0,0,0,1.25-2.23Z" fill="#000008"/>
      <path d="M182.66,211.46v-6.91h-7.19v6.91h-1.62V196.32h1.62v6.78h7.19v-6.78h1.61v15.14Z" fill="#000008"/>
      <path d="M197.72,211.46v-6.91h-7.19v6.91h-1.62V196.32h1.62v6.78h7.19v-6.78h1.61v15.14Z" fill="#000008"/>
      <path d="M213.51,211.46,212.29,208h-6.61l-1.21,3.43h-1.72l5.57-15.14h1.36l5.55,15.14ZM209,198.63l-2.85,8h5.66Z" fill="#000008"/>
      <path d="M218.64,211.46V196.32h1.62V210H228v1.45Z" fill="#000008"/>
      <path d="M234.61,197.76v13.7H233v-13.7h-4.38v-1.44H239v1.44Z" fill="#000008"/>
      <path d="M242.58,211.46V196.32h1.61v15.14Z" fill="#000008"/>
      <path d="M259.05,205.93a7.27,7.27,0,0,1-.3,2.24,4.17,4.17,0,0,1-1,1.67,5.28,5.28,0,0,1-1.83,1.31,5.66,5.66,0,0,1-2.21.44,5.51,5.51,0,0,1-2.11-.41,5.32,5.32,0,0,1-1.76-1.17,4.56,4.56,0,0,1-.82-1.1,5.14,5.14,0,0,1-.42-1.29,9.55,9.55,0,0,1-.16-1.62c0-.6,0-1.31,0-2.11s0-1.52,0-2.12a9.66,9.66,0,0,1,.16-1.62,4.93,4.93,0,0,1,.42-1.28,4.6,4.6,0,0,1,.82-1.11,5.26,5.26,0,0,1,3.87-1.57,5.73,5.73,0,0,1,2,.33,5,5,0,0,1,1.59.93,5.23,5.23,0,0,1,1.11,1.44,6,6,0,0,1,.61,1.83h-1.62a4,4,0,0,0-1.28-2.27,3.64,3.64,0,0,0-2.4-.82,3.73,3.73,0,0,0-1.43.29,3.38,3.38,0,0,0-1.18.8,3.29,3.29,0,0,0-.58.78,3.89,3.89,0,0,0-.32,1,10.15,10.15,0,0,0-.13,1.4c0,.54,0,1.21,0,2s0,1.46,0,2a10.3,10.3,0,0,0,.13,1.4,4.05,4.05,0,0,0,.32,1,3.51,3.51,0,0,0,.58.78,3.2,3.2,0,0,0,1.18.78,3.72,3.72,0,0,0,1.43.28,3.94,3.94,0,0,0,1.59-.33,3.38,3.38,0,0,0,1.28-1,3.1,3.1,0,0,0,.66-1.2,5.38,5.38,0,0,0,.2-1.54V205h-3.73v-1.42h5.34Z" fill="#000008"/>
      <path d="M263.18,211.46V196.32h9.4v1.44h-7.79v5.34h6.64v1.45h-6.64V210h7.79v1.45Z" fill="#000008"/>
      <path d="M292.82,200.76a4.76,4.76,0,0,1-.34,1.85,3.82,3.82,0,0,1-1,1.4,4.52,4.52,0,0,1-1.48.9,5.55,5.55,0,0,1-1.91.32h-4v6.23h-1.61V196.32h5.63a5.8,5.8,0,0,1,1.91.3,4.36,4.36,0,0,1,1.48.9,4,4,0,0,1,1,1.4A4.71,4.71,0,0,1,292.82,200.76Zm-1.61,0a2.73,2.73,0,0,0-.9-2.25,3.45,3.45,0,0,0-2.31-.75h-3.88v6H288a3.45,3.45,0,0,0,2.31-.75A2.8,2.8,0,0,0,291.21,200.76Z" fill="#000008"/>
      <path d="M305.24,211.46l-3.45-6.72h-3.64v6.72h-1.61V196.32h5.8a5.5,5.5,0,0,1,1.81.28,4.14,4.14,0,0,1,1.43.83,3.82,3.82,0,0,1,.92,1.33,4.54,4.54,0,0,1,.33,1.77,4,4,0,0,1-.91,2.71,4.18,4.18,0,0,1-2.39,1.35l3.6,6.87Zm0-10.91a2.56,2.56,0,0,0-.84-2.1,3.31,3.31,0,0,0-2.18-.69h-4v5.55h4a3.31,3.31,0,0,0,2.18-.68A2.52,2.52,0,0,0,305.21,200.55Z" fill="#000008"/>
      <path d="M321.11,203.89c0,.8,0,1.51,0,2.11a8.62,8.62,0,0,1-.16,1.62,5.14,5.14,0,0,1-.42,1.29,4.31,4.31,0,0,1-.82,1.1,5.34,5.34,0,0,1-1.74,1.17,5.57,5.57,0,0,1-2.13.41A5.27,5.27,0,0,1,312,210a4.09,4.09,0,0,1-.82-1.1,5.59,5.59,0,0,1-.43-1.29,10.7,10.7,0,0,1-.16-1.62c0-.6,0-1.31,0-2.11s0-1.52,0-2.12a10.83,10.83,0,0,1,.16-1.62,5.35,5.35,0,0,1,.43-1.28,4.13,4.13,0,0,1,.82-1.11,5.55,5.55,0,0,1,7.74,0,4.35,4.35,0,0,1,.82,1.11,4.93,4.93,0,0,1,.42,1.28,8.71,8.71,0,0,1,.16,1.62C321.11,202.37,321.11,203.08,321.11,203.89Zm-1.61,0q0-1.2,0-2a11.77,11.77,0,0,0-.14-1.4,3.52,3.52,0,0,0-.32-1,2.83,2.83,0,0,0-.58-.78,3.38,3.38,0,0,0-1.18-.8,3.7,3.7,0,0,0-2.87,0,3.47,3.47,0,0,0-1.18.8,3,3,0,0,0-.57.78,3.52,3.52,0,0,0-.32,1,10,10,0,0,0-.14,1.4q0,.81,0,2t0,2a9.83,9.83,0,0,0,.14,1.39,3.71,3.71,0,0,0,.32,1,3.13,3.13,0,0,0,.57.77,3.47,3.47,0,0,0,1.18.8,3.7,3.7,0,0,0,2.87,0,3.38,3.38,0,0,0,1.18-.8,2.94,2.94,0,0,0,.58-.77,3.71,3.71,0,0,0,.32-1,11.58,11.58,0,0,0,.14-1.39Q319.5,205.08,319.5,203.89Z" fill="#000008"/>
      <path d="M324.23,211.46v-1.53l7.57-12.17h-7.27v-1.44h9.1v1.36L326,210h7.64v1.45Z" fill="#000008"/>
      <path d="M337.5,211.46V196.32h9.4v1.44h-7.78v5.34h6.63v1.45h-6.63V210h7.78v1.45Z" fill="#000008"/>
      <path d="M360.44,207.29a4.2,4.2,0,0,1-.37,1.8,3.77,3.77,0,0,1-1.06,1.35,4.91,4.91,0,0,1-1.66.85,7.23,7.23,0,0,1-2.14.3,8.14,8.14,0,0,1-2.91-.47,6.54,6.54,0,0,1-2.28-1.53l1.11-1.11a5.45,5.45,0,0,0,1.89,1.3,6.32,6.32,0,0,0,2.23.36,4.27,4.27,0,0,0,2.62-.73,2.46,2.46,0,0,0,1-2.08,3.1,3.1,0,0,0-.18-1.08,1.86,1.86,0,0,0-.55-.81,2.31,2.31,0,0,0-.75-.46,7.19,7.19,0,0,0-1.22-.26l-1.77-.28a5.52,5.52,0,0,1-2.78-1.15,3.57,3.57,0,0,1-1.15-2.83,4.34,4.34,0,0,1,.34-1.75,3.65,3.65,0,0,1,1-1.35,4.25,4.25,0,0,1,1.52-.86,6,6,0,0,1,2-.31,7.31,7.31,0,0,1,2.48.38,6.81,6.81,0,0,1,2,1.23l-1.05,1a5,5,0,0,0-1.51-1,5.37,5.37,0,0,0-2-.33,3.35,3.35,0,0,0-2.36.77,2.68,2.68,0,0,0-.83,2.06,2.24,2.24,0,0,0,.68,1.76,3.28,3.28,0,0,0,.91.51,6.1,6.1,0,0,0,1.13.32l1.66.26a9,9,0,0,1,1,.18,4.91,4.91,0,0,1,.73.22,4.05,4.05,0,0,1,.59.29,2.94,2.94,0,0,1,.5.37A3.72,3.72,0,0,1,360.44,207.29Z" fill="#000008"/>
      <path d="M373.88,207.29a4.2,4.2,0,0,1-.37,1.8,3.77,3.77,0,0,1-1.06,1.35,5,5,0,0,1-1.66.85,7.23,7.23,0,0,1-2.14.3,8.14,8.14,0,0,1-2.91-.47,6.54,6.54,0,0,1-2.28-1.53l1.11-1.11a5.45,5.45,0,0,0,1.89,1.3,6.32,6.32,0,0,0,2.23.36,4.27,4.27,0,0,0,2.62-.73,2.46,2.46,0,0,0,1-2.08,3.1,3.1,0,0,0-.18-1.08,2,2,0,0,0-.55-.81,2.31,2.31,0,0,0-.75-.46,7.19,7.19,0,0,0-1.22-.26l-1.77-.28a5.6,5.6,0,0,1-2.79-1.15,3.6,3.6,0,0,1-1.14-2.83,4.34,4.34,0,0,1,.34-1.75,3.74,3.74,0,0,1,1-1.35,4.43,4.43,0,0,1,1.52-.86,6.1,6.1,0,0,1,2-.31,7.31,7.31,0,0,1,2.48.38,6.65,6.65,0,0,1,2,1.23l-1,1a5,5,0,0,0-1.51-1,5.37,5.37,0,0,0-2-.33,3.35,3.35,0,0,0-2.36.77,2.68,2.68,0,0,0-.83,2.06,2.24,2.24,0,0,0,.68,1.76,3.14,3.14,0,0,0,.91.51,6.1,6.1,0,0,0,1.13.32l1.66.26a9,9,0,0,1,1,.18,4.91,4.91,0,0,1,.73.22,4.05,4.05,0,0,1,.59.29,3.39,3.39,0,0,1,.5.37A3.72,3.72,0,0,1,373.88,207.29Z" fill="#000008"/>
      <path d="M377.74,211.46V196.32h9.4v1.44h-7.78v5.34H386v1.45h-6.64V210h7.78v1.45Z" fill="#000008"/>
      <path d="M407.43,206.46a5.37,5.37,0,0,1-.39,2.07,4.54,4.54,0,0,1-1.11,1.63,4.83,4.83,0,0,1-1.68,1.05,6.08,6.08,0,0,1-4.23,0,4.88,4.88,0,0,1-1.67-1.05,4.63,4.63,0,0,1-1.09-1.63,5.2,5.2,0,0,1-.4-2.07V196.32h1.62v10a4.64,4.64,0,0,0,.25,1.58,3.23,3.23,0,0,0,1.9,2,3.83,3.83,0,0,0,1.51.28,3.9,3.9,0,0,0,1.51-.28,3.44,3.44,0,0,0,1.16-.76,3.52,3.52,0,0,0,.74-1.19,4.4,4.4,0,0,0,.27-1.58v-10h1.61Z" fill="#000008"/>
      <path d="M421.58,211.46l-8-12.15v12.15h-1.62V196.32h1.53l8,12.1v-12.1h1.62v15.14Z" fill="#000008"/>
      <path d="M438.25,203.72c0,.52,0,1.07,0,1.66a12.07,12.07,0,0,1-.14,1.71,7.12,7.12,0,0,1-.43,1.6,4,4,0,0,1-.91,1.36,4.44,4.44,0,0,1-1.66,1,6.21,6.21,0,0,1-2.17.36h-5.19V196.32h5.19a6.21,6.21,0,0,1,2.17.36,4.55,4.55,0,0,1,1.66,1,4.24,4.24,0,0,1,.91,1.31,6.23,6.23,0,0,1,.43,1.49,10.33,10.33,0,0,1,.14,1.59C438.25,202.66,438.25,203.19,438.25,203.72Zm-1.62,0c0-.47,0-.94,0-1.4a11.1,11.1,0,0,0-.09-1.32,5.67,5.67,0,0,0-.3-1.18,2.84,2.84,0,0,0-.6-.95,3.18,3.18,0,0,0-1.34-.86,5,5,0,0,0-1.63-.25h-3.3V210h3.3a5.26,5.26,0,0,0,1.63-.24,3.28,3.28,0,0,0,1.34-.86,2.74,2.74,0,0,0,.6-1,6.67,6.67,0,0,0,.3-1.3,13.25,13.25,0,0,0,.09-1.44C436.63,204.67,436.63,204.18,436.63,203.72Z" fill="#000008"/>
      <path d="M134.11,240.1h-1.32l-5-15.14h1.7l3.94,12.25L137.38,225h1.7Z" fill="#000008"/>
      <path d="M142.45,240.1V225h9.4v1.44h-7.78v5.34h6.63v1.45h-6.63v5.46h7.78v1.45Z" fill="#000008"/>
      <path d="M164.4,240.1,161,233.38h-3.63v6.72H155.7V225h5.81a5.58,5.58,0,0,1,1.81.28,4.26,4.26,0,0,1,1.42.83,3.71,3.71,0,0,1,.93,1.33,4.58,4.58,0,0,1,.33,1.77,4,4,0,0,1-.92,2.71,4.16,4.16,0,0,1-2.38,1.35l3.59,6.87Zm0-10.91a2.56,2.56,0,0,0-.84-2.1,3.33,3.33,0,0,0-2.18-.69h-4V232h4a3.32,3.32,0,0,0,2.18-.68A2.52,2.52,0,0,0,164.38,229.19Z" fill="#000008"/>
      <path d="M171.76,226.4V232h6.63v1.44h-6.63v6.68h-1.62V225h9.4v1.44Z" fill="#000008"/>
      <path d="M191.23,240.1,190,236.68h-6.61l-1.22,3.42h-1.72L186,225h1.36L193,240.1Zm-4.49-12.82-2.85,8h5.66Z" fill="#000008"/>
      <path d="M205.17,240.1v-6.91H198v6.91h-1.61V225H198v6.78h7.19V225h1.62V240.1Z" fill="#000008"/>
      <path d="M220.13,240.1l-3.45-6.72H213v6.72h-1.61V225h5.8a5.5,5.5,0,0,1,1.81.28,4.3,4.3,0,0,1,1.43.83,3.82,3.82,0,0,1,.92,1.33,4.58,4.58,0,0,1,.33,1.77,4,4,0,0,1-.91,2.71,4.18,4.18,0,0,1-2.39,1.35l3.6,6.87Zm0-10.91a2.56,2.56,0,0,0-.84-2.1,3.31,3.31,0,0,0-2.18-.69h-4V232h4a3.31,3.31,0,0,0,2.18-.68A2.52,2.52,0,0,0,220.1,229.19Z" fill="#000008"/>
      <path d="M225.87,240.1V225h9.4v1.44h-7.79v5.34h6.64v1.45h-6.64v5.46h7.79v1.45Z" fill="#000008"/>
      <path d="M248.77,240.1l-8-12.14V240.1h-1.61V225h1.53l8,12.1V225h1.62V240.1Z" fill="#000008"/>
    </g>
  </g>
</svg>
