<?xml version="1.0" encoding="utf-8"?>
<!-- Generator: Adobe Illustrator 23.0.6, SVG Export Plug-In . SVG Version: 6.00 Build 0)  -->
<svg version="1.1" id="Ebene_1" xmlns="http://www.w3.org/2000/svg" xmlns:xlink="http://www.w3.org/1999/xlink" x="0px" y="0px"
	 width="131.6px" height="59.1px" viewBox="0 0 131.6 59.1" style="enable-background:new 0 0 131.6 59.1;" xml:space="preserve">
<g id="h_da_unten">
	<g>
		<path d="M121.7,38c0,2.3-0.4,3.9-1.4,4.8c-1.7,1.6-3.4,1.8-6,1.8c-3.7,0-5.5-1.8-5.5-4.4s1.9-4.3,5.3-4.3h7.5L121.7,38L121.7,38z
			 M131.2,52.1V27c0-8.9-5.6-13.5-16.2-13.5c-6.4,0-10,1.2-13.8,5.3l6.1,5.9c2-2.3,3.7-3.1,7.3-3.1c5.1,0,7.1,1.8,7.1,6v1.9h-9
			c-8.8,0-13,5-13,11.1c0,3.4,1.1,6.4,3.2,8.6c2.3,2.3,5.4,3.4,9.7,3.4s6.8-1.1,9.4-3.7v3.3C122,52.1,131.2,52.1,131.2,52.1z
			 M82.8,33c0,6.2-0.8,11-6.5,11s-6.4-4.8-6.4-11s0.7-10.9,6.4-10.9S82.8,26.8,82.8,33 M92.3,52.1V0h-9.5v17.3
			c-2.5-2.8-5.4-3.8-9.3-3.8s-7.2,1.3-9.3,3.4c-3.8,3.8-3.9,10.3-3.9,16s0.1,12.3,3.9,16.1c2.1,2.1,5.6,3.4,9.4,3.4
			c4,0,6.8-1.1,9.4-4v3.6L92.3,52.1L92.3,52.1z M59.8,56.9H37.1v2.2h22.7V56.9z M32,52.1V27.4c0-8.1-4.4-13.9-12.7-13.9
			c-3.4,0-6.6,1.3-9.1,4V0H0.6v52.1h9.5V28.8c0-5,3.2-6.7,6.1-6.7s6.2,1.7,6.2,6.7v23.3L32,52.1L32,52.1z"/>
	</g>
</g>
</svg>
