<?xml version="1.0" encoding="UTF-8"?>
<svg id="hochschulsport_1" data-name="hochschulsport 1" xmlns="http://www.w3.org/2000/svg" width="222mm" height="30.77mm" viewBox="0 0 629.29 87.23">
  <g>
    <path d="m121.1,38.04c0,2.34-.36,3.88-1.39,4.83-1.68,1.61-3.36,1.83-6,1.83-3.73,0-5.49-1.76-5.49-4.39s1.9-4.32,5.34-4.32h7.53v2.05Zm9.51,14.05v-25.09c0-8.92-5.56-13.46-16.24-13.46-6.36,0-10.02,1.17-13.75,5.27l6.07,5.93c1.97-2.27,3.66-3.15,7.32-3.15,5.05,0,7.09,1.83,7.09,6v1.9h-9c-8.85,0-13.02,4.98-13.02,11.05,0,3.36,1.1,6.44,3.15,8.56,2.27,2.27,5.41,3.36,9.73,3.36s6.8-1.1,9.36-3.66v3.29h9.29Zm-48.42-19.09c0,6.22-.81,10.97-6.51,10.97s-6.43-4.75-6.43-10.97.73-10.9,6.43-10.9,6.51,4.68,6.51,10.9m9.51,19.09V0h-9.51v17.34c-2.49-2.78-5.41-3.81-9.29-3.81s-7.17,1.32-9.29,3.44c-3.81,3.81-3.88,10.31-3.88,16.02s.07,12.29,3.88,16.09c2.12,2.12,5.63,3.44,9.36,3.44,4.03,0,6.8-1.1,9.44-4.02v3.58h9.29Zm-32.53,4.81h-22.67v2.15h22.67v-2.15Zm-27.78-4.81v-24.65c0-8.05-4.39-13.9-12.73-13.9-3.37,0-6.59,1.32-9.14,3.95V0H0v52.08h9.51v-23.26c0-4.98,3.15-6.73,6.14-6.73s6.22,1.68,6.22,6.73v23.26h9.51Z" fill="#1d1d1b"/>
    <g>
      <path d="m167.43,26.45v-7.97c0-1.97-1.15-2.84-2.61-2.84s-2.64.9-2.64,2.84v7.97h-2.61V8.21h2.61v6.56c.9-.97,2.08-1.46,3.36-1.46,2.89,0,4.51,1.95,4.51,4.77v8.38h-2.61Z" fill="#1d1d1b"/>
      <path d="m182.56,25.07c-.84.87-2.13,1.54-3.89,1.54s-3.02-.67-3.87-1.54c-1.23-1.28-1.54-2.92-1.54-5.12s.31-3.82,1.54-5.1c.85-.87,2.1-1.54,3.87-1.54s3.05.67,3.89,1.54c1.23,1.28,1.54,2.92,1.54,5.1s-.31,3.84-1.54,5.12Zm-1.97-8.69c-.49-.49-1.15-.74-1.92-.74s-1.41.26-1.9.74c-.79.79-.9,2.15-.9,3.56s.1,2.77.9,3.56c.49.49,1.13.77,1.9.77s1.43-.28,1.92-.77c.79-.79.9-2.15.9-3.56s-.1-2.77-.9-3.56Z" fill="#1d1d1b"/>
      <path d="m192.65,26.61c-2.92,0-5.79-1.79-5.79-6.66s2.87-6.64,5.79-6.64c1.79,0,3.05.51,4.28,1.82l-1.79,1.74c-.82-.9-1.46-1.23-2.49-1.23s-1.84.41-2.41,1.15c-.56.72-.77,1.64-.77,3.15s.21,2.46.77,3.18c.56.74,1.41,1.15,2.41,1.15s1.67-.33,2.49-1.23l1.79,1.72c-1.23,1.31-2.49,1.84-4.28,1.84Z" fill="#1d1d1b"/>
      <path d="m207.63,26.45v-7.97c0-1.97-1.15-2.84-2.61-2.84s-2.64.9-2.64,2.84v7.97h-2.61V8.21h2.61v6.56c.9-.97,2.08-1.46,3.36-1.46,2.89,0,4.51,1.95,4.51,4.77v8.38h-2.61Z" fill="#1d1d1b"/>
      <path d="m218.42,26.61c-2.13,0-3.92-.36-5.46-1.87l1.72-1.72c1.05,1.08,2.46,1.36,3.74,1.36,1.59,0,2.84-.56,2.84-1.79,0-.87-.49-1.43-1.74-1.54l-2.07-.18c-2.43-.21-3.84-1.31-3.84-3.59,0-2.54,2.18-3.97,4.89-3.97,1.95,0,3.61.41,4.82,1.46l-1.64,1.67c-.82-.69-1.97-.95-3.2-.95-1.56,0-2.36.69-2.36,1.67,0,.77.41,1.36,1.79,1.49l2.05.18c2.43.21,3.87,1.36,3.87,3.66,0,2.72-2.31,4.12-5.41,4.12Z" fill="#1d1d1b"/>
      <path d="m232.14,26.61c-2.92,0-5.79-1.79-5.79-6.66s2.87-6.64,5.79-6.64c1.79,0,3.05.51,4.28,1.82l-1.79,1.74c-.82-.9-1.46-1.23-2.49-1.23s-1.84.41-2.41,1.15c-.56.72-.77,1.64-.77,3.15s.21,2.46.77,3.18c.56.74,1.41,1.15,2.41,1.15s1.67-.33,2.49-1.23l1.79,1.72c-1.23,1.31-2.49,1.84-4.28,1.84Z" fill="#1d1d1b"/>
      <path d="m247.12,26.45v-7.97c0-1.97-1.15-2.84-2.61-2.84s-2.64.9-2.64,2.84v7.97h-2.61V8.21h2.61v6.56c.9-.97,2.08-1.46,3.36-1.46,2.89,0,4.51,1.95,4.51,4.77v8.38h-2.61Z" fill="#1d1d1b"/>
      <path d="m261.33,26.45v-1.31c-.9.97-2.15,1.46-3.46,1.46s-2.43-.44-3.2-1.18c-1-.97-1.31-2.2-1.31-3.66v-8.3h2.61v7.92c0,2.02,1.15,2.9,2.61,2.9s2.69-.9,2.69-2.9v-7.92h2.61v12.99h-2.56Z" fill="#1d1d1b"/>
      <path d="m271.27,26.45c-2.49,0-3.56-1.67-3.56-3.59v-14.65h2.61v14.5c0,1,.36,1.51,1.41,1.51h1.15v2.23h-1.61Z" fill="#1d1d1b"/>
      <path d="m277.46,20.71c0,2.23,1.18,3.64,3.3,3.64,1.46,0,2.23-.41,3.15-1.33l1.67,1.56c-1.33,1.33-2.59,2.02-4.87,2.02-3.25,0-5.84-1.72-5.84-6.66,0-4.2,2.18-6.64,5.51-6.64s5.51,2.56,5.51,6.25v1.15h-8.43Zm5.48-3.59c-.41-.97-1.33-1.64-2.56-1.64s-2.18.67-2.59,1.64c-.26.59-.31.97-.33,1.77h5.84c-.03-.79-.1-1.18-.36-1.77Z" fill="#1d1d1b"/>
      <path d="m302.95,26.45v-1.38c-.97,1.18-2.02,1.54-3.43,1.54-1.31,0-2.46-.44-3.18-1.15-1.31-1.31-1.46-3.54-1.46-5.51s.15-4.18,1.46-5.48c.72-.72,1.84-1.15,3.15-1.15,1.38,0,2.46.33,3.41,1.46v-6.56h2.61v18.24h-2.56Zm-2.74-10.81c-2.36,0-2.72,2-2.72,4.3s.36,4.33,2.72,4.33,2.69-2.02,2.69-4.33-.33-4.3-2.69-4.3Z" fill="#1d1d1b"/>
      <path d="m316.49,26.45v-1.18c-.95.95-1.84,1.33-3.46,1.33s-2.69-.38-3.48-1.18c-.67-.69-1.02-1.69-1.02-2.79,0-2.18,1.51-3.74,4.48-3.74h3.43v-.92c0-1.64-.82-2.43-2.84-2.43-1.43,0-2.13.33-2.84,1.26l-1.72-1.61c1.23-1.43,2.51-1.87,4.66-1.87,3.56,0,5.35,1.51,5.35,4.46v8.69h-2.56Zm-.05-5.74h-3.05c-1.54,0-2.33.69-2.33,1.87s.74,1.84,2.38,1.84c1,0,1.74-.08,2.43-.74.38-.38.56-1,.56-1.92v-1.05Z" fill="#1d1d1b"/>
      <path d="m329.98,16.51c-.59-.59-1.05-.87-1.95-.87-1.41,0-2.59,1.13-2.59,2.92v7.89h-2.61v-12.99h2.56v1.41c.67-.92,2-1.56,3.46-1.56,1.26,0,2.2.33,3.1,1.23l-1.97,1.97Z" fill="#1d1d1b"/>
      <path d="m350.19,26.45v-7.92c0-2.02-1.15-2.9-2.61-2.9s-2.69.9-2.69,2.77v8.04h-2.61v-7.92c0-2.02-1.15-2.9-2.61-2.9s-2.69.9-2.69,2.9v7.92h-2.61v-12.99h2.56v1.31c.87-.95,2.15-1.46,3.46-1.46,1.61,0,2.87.64,3.69,1.9,1.05-1.28,2.36-1.9,4.07-1.9,1.33,0,2.51.44,3.28,1.18,1,.97,1.38,2.2,1.38,3.66v8.3h-2.61Z" fill="#1d1d1b"/>
      <path d="m361,26.61c-2.13,0-3.92-.36-5.46-1.87l1.72-1.72c1.05,1.08,2.46,1.36,3.74,1.36,1.59,0,2.84-.56,2.84-1.79,0-.87-.49-1.43-1.74-1.54l-2.07-.18c-2.43-.21-3.84-1.31-3.84-3.59,0-2.54,2.18-3.97,4.89-3.97,1.95,0,3.61.41,4.82,1.46l-1.64,1.67c-.82-.69-1.97-.95-3.2-.95-1.56,0-2.36.69-2.36,1.67,0,.77.41,1.36,1.79,1.49l2.05.18c2.43.21,3.87,1.36,3.87,3.66,0,2.72-2.31,4.12-5.41,4.12Z" fill="#1d1d1b"/>
      <path d="m373.53,26.45c-2.43,0-3.56-1.74-3.56-3.61v-7.15h-1.49v-2h1.49v-3.95h2.61v3.95h2.51v2h-2.51v7.02c0,.95.46,1.51,1.43,1.51h1.08v2.23h-1.56Z" fill="#1d1d1b"/>
      <path d="m385.47,26.45v-1.18c-.95.95-1.84,1.33-3.46,1.33s-2.69-.38-3.48-1.18c-.67-.69-1.02-1.69-1.02-2.79,0-2.18,1.51-3.74,4.48-3.74h3.43v-.92c0-1.64-.82-2.43-2.84-2.43-1.43,0-2.13.33-2.84,1.26l-1.72-1.61c1.23-1.43,2.51-1.87,4.66-1.87,3.56,0,5.35,1.51,5.35,4.46v8.69h-2.56Zm-.05-5.74h-3.05c-1.54,0-2.33.69-2.33,1.87s.74,1.84,2.38,1.84c1,0,1.74-.08,2.43-.74.38-.38.56-1,.56-1.92v-1.05Z" fill="#1d1d1b"/>
      <path d="m399.39,26.45v-1.38c-.97,1.18-2.02,1.54-3.43,1.54-1.31,0-2.46-.44-3.18-1.15-1.31-1.31-1.46-3.54-1.46-5.51s.15-4.18,1.46-5.48c.72-.72,1.84-1.15,3.15-1.15,1.38,0,2.46.33,3.41,1.46v-6.56h2.61v18.24h-2.56Zm-2.74-10.81c-2.36,0-2.72,2-2.72,4.3s.36,4.33,2.72,4.33,2.69-2.02,2.69-4.33-.33-4.3-2.69-4.3Z" fill="#1d1d1b"/>
      <path d="m409.81,26.45c-2.43,0-3.56-1.74-3.56-3.61v-7.15h-1.49v-2h1.49v-3.95h2.61v3.95h2.51v2h-2.51v7.02c0,.95.46,1.51,1.43,1.51h1.08v2.23h-1.56Z" fill="#1d1d1b"/>
    </g>
  </g>
  <g>
    <path d="m166.6,43.56h-5.02v8.4h-1.38v-18.23h6.94c2.97,0,5.22,1.72,5.22,4.89,0,2.74-1.64,4.48-4.2,4.92l4.4,8.42h-1.61l-4.35-8.4Zm.36-8.6h-5.38v7.37h5.38c2.36,0,4.02-1.15,4.02-3.69s-1.66-3.69-4.02-3.69Z"/>
    <path d="m187.11,47.53h-8.5l-1.59,4.43h-1.48l6.71-18.23h1.23l6.71,18.23h-1.48l-1.59-4.43Zm-8.06-1.23h7.63l-3.81-10.73-3.81,10.73Z"/>
    <path d="m198.72,52.11c-2.69,0-4.4-.74-6.07-2.41l.97-.97c1.64,1.64,3,2.15,5.17,2.15,2.89,0,4.69-1.38,4.69-3.76,0-1.1-.31-1.97-1-2.56-.69-.54-1.12-.77-2.64-.97l-2.12-.33c-1.38-.21-2.46-.64-3.25-1.33-.95-.79-1.43-1.92-1.43-3.35,0-3.07,2.15-4.99,5.66-4.99,2.25,0,3.69.61,5.25,1.97l-.9.9c-1.08-1.02-2.28-1.69-4.43-1.69-2.66,0-4.22,1.43-4.22,3.76,0,1.05.31,1.84.95,2.38.64.54,1.69.95,2.71,1.13l1.97.31c1.71.23,2.51.56,3.25,1.2,1,.82,1.59,2.07,1.59,3.53,0,3.1-2.33,5.04-6.14,5.04Z"/>
    <path d="m215.08,52.11c-3.66,0-6.25-2.51-6.25-6.07v-12.32h1.38v12.14c0,3.02,1.92,5.02,4.86,5.02s4.87-2,4.87-5.02v-12.14h1.38v12.32c0,3.56-2.59,6.07-6.25,6.07Z"/>
    <path d="m240.22,36.93l-5.53,12.47h-1.38l-5.63-12.47v15.03h-1.38v-18.23h1.38l6.35,14.06,6.2-14.06h1.38v18.23h-1.38v-15.03Z"/>
    <path d="m253.04,44.61h18.15v1.2h-18.15v-1.2Z"/>
    <path d="m286.91,40.62c-2.12,0-3.3,1.77-3.3,3.74v7.6h-1.31v-12.34h1.31v1.64c.72-1.15,2.15-1.79,3.61-1.79,1.2,0,2.07.28,2.97,1.18l-.95.95c-.74-.74-1.31-.97-2.33-.97Z"/>
    <path d="m292.94,33.73h1.61v1.61h-1.61v-1.61Zm.15,5.89h1.3v12.34h-1.3v-12.34Z"/>
    <path d="m302.87,52.11c-2.15,0-3.74-.56-4.99-1.77l.9-.9c.95,1,2.3,1.51,4.04,1.51,2.43,0,3.71-.84,3.71-2.51,0-1.31-.72-1.89-2.36-2.07l-2.05-.18c-2.48-.21-3.71-1.28-3.71-3.23,0-2.15,1.74-3.51,4.43-3.51,1.72,0,3.23.49,4.33,1.31l-.87.87c-.95-.69-2.1-1.05-3.46-1.05-2.05,0-3.15.84-3.15,2.38,0,1.31.77,1.89,2.51,2.07l2,.18c2.05.21,3.61.82,3.61,3.23,0,2.25-1.89,3.66-4.94,3.66Z"/>
    <path d="m315.51,45.17l-2.82,3.25v3.53h-1.3v-18.23h1.3v12.85l6.12-6.96h1.66l-4.07,4.61,4.97,7.73h-1.61l-4.25-6.79Z"/>
    <path d="m338.65,50.73c-1.05,1.05-2.02,1.38-3.76,1.38-1.84,0-2.84-.31-3.63-1.13-.59-.59-.9-1.49-.9-2.41,0-2.25,1.61-3.56,4.3-3.56h3.99v-1.38c0-1.97-.95-3.02-3.48-3.02-1.74,0-2.61.44-3.4,1.56l-.95-.82c1.05-1.46,2.33-1.89,4.35-1.89,3.28,0,4.79,1.46,4.79,4.05v8.45h-1.31v-1.23Zm-3.84-4.66c-2.1,0-3.15.82-3.15,2.48s.97,2.41,3.23,2.41c1.13,0,2.18-.1,3.07-.95.46-.43.69-1.23.69-2.36v-1.59h-3.84Z"/>
    <path d="m348.4,52.11c-2.15,0-3.74-.56-4.99-1.77l.9-.9c.95,1,2.3,1.51,4.04,1.51,2.43,0,3.71-.84,3.71-2.51,0-1.31-.72-1.89-2.36-2.07l-2.05-.18c-2.48-.21-3.71-1.28-3.71-3.23,0-2.15,1.74-3.51,4.43-3.51,1.72,0,3.23.49,4.33,1.31l-.87.87c-.95-.69-2.1-1.05-3.46-1.05-2.05,0-3.15.84-3.15,2.38,0,1.31.77,1.89,2.51,2.07l2,.18c2.05.21,3.61.82,3.61,3.23,0,2.25-1.89,3.66-4.94,3.66Z"/>
    <path d="m361.16,52.11c-2.15,0-3.74-.56-4.99-1.77l.9-.9c.95,1,2.3,1.51,4.04,1.51,2.43,0,3.71-.84,3.71-2.51,0-1.31-.72-1.89-2.36-2.07l-2.05-.18c-2.48-.21-3.71-1.28-3.71-3.23,0-2.15,1.74-3.51,4.43-3.51,1.72,0,3.23.49,4.33,1.31l-.87.87c-.95-.69-2.1-1.05-3.46-1.05-2.05,0-3.15.84-3.15,2.38,0,1.31.77,1.89,2.51,2.07l2,.18c2.05.21,3.61.82,3.61,3.23,0,2.25-1.89,3.66-4.94,3.66Z"/>
    <path d="m374.57,50.93c1.46,0,2.36-.43,3.4-1.48l.97.77c-1.25,1.25-2.41,1.89-4.46,1.89-3.4,0-5.25-2.2-5.25-6.32s1.84-6.32,4.94-6.32,4.94,2.23,4.94,6.02v.59h-8.58c0,3.15,1.38,4.86,4.02,4.86Zm2.82-8.24c-.54-1.31-1.77-2.07-3.2-2.07s-2.66.77-3.2,2.07c-.28.79-.36,1.13-.44,2.33h7.27c-.08-1.18-.1-1.59-.43-2.33Z"/>
    <path d="m387.17,52.11c-2.15,0-3.74-.56-4.99-1.77l.9-.9c.95,1,2.3,1.51,4.04,1.51,2.43,0,3.71-.84,3.71-2.51,0-1.31-.72-1.89-2.36-2.07l-2.05-.18c-2.48-.21-3.71-1.28-3.71-3.23,0-2.15,1.74-3.51,4.43-3.51,1.72,0,3.23.49,4.33,1.31l-.87.87c-.95-.69-2.1-1.05-3.46-1.05-2.05,0-3.15.84-3.15,2.38,0,1.31.77,1.89,2.51,2.07l2,.18c2.05.21,3.61.82,3.61,3.23,0,2.25-1.89,3.66-4.94,3.66Z"/>
    <path d="m399.92,52.11c-2.15,0-3.74-.56-4.99-1.77l.9-.9c.95,1,2.3,1.51,4.04,1.51,2.43,0,3.71-.84,3.71-2.51,0-1.31-.72-1.89-2.36-2.07l-2.05-.18c-2.48-.21-3.71-1.28-3.71-3.23,0-2.15,1.74-3.51,4.43-3.51,1.71,0,3.23.49,4.33,1.31l-.87.87c-.95-.69-2.1-1.05-3.46-1.05-2.05,0-3.15.84-3.15,2.38,0,1.31.77,1.89,2.51,2.07l2,.18c2.05.21,3.61.82,3.61,3.23,0,2.25-1.89,3.66-4.94,3.66Z"/>
    <path d="m424.83,44.3c0-2.38-1.18-3.69-3.41-3.69s-3.48,1.33-3.48,3.46v7.89h-1.3v-7.66c0-2.38-1.18-3.69-3.41-3.69s-3.48,1.33-3.48,3.69v7.66h-1.3v-12.34h1.3v1.46c.92-1.08,2.15-1.61,3.66-1.61,1.84,0,3.23.79,3.97,2.25.92-1.46,2.36-2.25,4.2-2.25,1.36,0,2.46.44,3.25,1.18.84.82,1.28,1.97,1.28,3.43v7.89h-1.28v-7.66Z"/>
    <path d="m435.3,50.93c1.46,0,2.36-.43,3.41-1.48l.97.77c-1.26,1.25-2.41,1.89-4.46,1.89-3.41,0-5.25-2.2-5.25-6.32s1.84-6.32,4.94-6.32,4.94,2.23,4.94,6.02v.59h-8.58c0,3.15,1.38,4.86,4.02,4.86Zm2.82-8.24c-.54-1.31-1.77-2.07-3.2-2.07s-2.66.77-3.2,2.07c-.28.79-.36,1.13-.44,2.33h7.27c-.08-1.18-.1-1.59-.44-2.33Z"/>
    <path d="m451.92,44.3c0-2.38-1.18-3.69-3.41-3.69s-3.48,1.33-3.48,3.69v7.66h-1.3v-12.34h1.3v1.46c.92-1.08,2.13-1.61,3.64-1.61,1.36,0,2.46.38,3.28,1.18.85.82,1.28,1.97,1.28,3.43v7.89h-1.3v-7.66Z"/>
    <path d="m457.77,48.73v-8.14h-1.69v-.97h1.69v-3.94h1.3v3.94h2.79v.97h-2.79v8.17c0,1.31.59,2.05,1.89,2.05h.9v1.15h-1.13c-1.95,0-2.97-1.36-2.97-3.23Z"/>
    <path d="m479.55,50.73c-1.05,1.05-2.02,1.38-3.76,1.38-1.84,0-2.84-.31-3.63-1.13-.59-.59-.9-1.49-.9-2.41,0-2.25,1.61-3.56,4.3-3.56h3.99v-1.38c0-1.97-.95-3.02-3.48-3.02-1.74,0-2.61.44-3.4,1.56l-.95-.82c1.05-1.46,2.33-1.89,4.35-1.89,3.28,0,4.79,1.46,4.79,4.05v8.45h-1.31v-1.23Zm-3.84-4.66c-2.1,0-3.15.82-3.15,2.48s.97,2.41,3.23,2.41c1.13,0,2.18-.1,3.07-.95.46-.43.69-1.23.69-2.36v-1.59h-3.84Z"/>
    <path d="m493.55,44.3c0-2.38-1.18-3.69-3.4-3.69s-3.48,1.33-3.48,3.69v7.66h-1.31v-12.34h1.31v1.46c.92-1.08,2.12-1.61,3.63-1.61,1.36,0,2.46.38,3.28,1.18.85.82,1.28,1.97,1.28,3.43v7.89h-1.31v-7.66Z"/>
    <path d="m507.01,50.37c-1.1,1.43-2.25,1.74-3.66,1.74-1.3,0-2.38-.43-3.02-1.08-1.26-1.25-1.59-3.3-1.59-5.25s.33-3.99,1.59-5.25c.64-.64,1.71-1.08,3.02-1.08,1.41,0,2.56.31,3.66,1.74v-7.48h1.31v18.23h-1.31v-1.59Zm-3.48-9.75c-3.02,0-3.48,2.61-3.48,5.17s.46,5.17,3.48,5.17,3.48-2.61,3.48-5.17-.46-5.17-3.48-5.17Z"/>
    <path d="m163.65,81.31c-2.15,0-3.74-.56-4.99-1.77l.9-.9c.95,1,2.3,1.51,4.04,1.51,2.43,0,3.71-.84,3.71-2.51,0-1.31-.72-1.89-2.36-2.07l-2.05-.18c-2.48-.21-3.71-1.28-3.71-3.23,0-2.15,1.74-3.51,4.43-3.51,1.72,0,3.23.49,4.33,1.31l-.87.87c-.95-.69-2.1-1.05-3.46-1.05-2.05,0-3.15.84-3.15,2.38,0,1.31.77,1.89,2.51,2.07l2,.18c2.05.21,3.61.82,3.61,3.23,0,2.25-1.89,3.66-4.94,3.66Z"/>
    <path d="m180.27,79.7c-.92,1.08-2.12,1.61-3.63,1.61-1.36,0-2.46-.38-3.28-1.18-.85-.82-1.28-1.97-1.28-3.43v-7.89h1.31v7.66c0,2.38,1.18,3.69,3.4,3.69s3.48-1.33,3.48-3.69v-7.66h1.31v12.34h-1.31v-1.46Z"/>
    <path d="m190.07,81.31c-2.15,0-3.74-.56-4.99-1.77l.9-.9c.95,1,2.3,1.51,4.04,1.51,2.43,0,3.71-.84,3.71-2.51,0-1.31-.72-1.89-2.36-2.07l-2.05-.18c-2.48-.21-3.71-1.28-3.71-3.23,0-2.15,1.74-3.51,4.43-3.51,1.71,0,3.23.49,4.33,1.31l-.87.87c-.95-.69-2.1-1.05-3.46-1.05-2.05,0-3.15.84-3.15,2.38,0,1.31.77,1.89,2.51,2.07l2,.18c2.05.21,3.61.82,3.61,3.23,0,2.25-1.89,3.66-4.94,3.66Z"/>
    <path d="m199.27,77.93v-8.14h-1.69v-.97h1.69v-3.94h1.3v3.94h2.79v.97h-2.79v8.17c0,1.31.59,2.05,1.89,2.05h.9v1.15h-1.13c-1.95,0-2.97-1.36-2.97-3.23Z"/>
    <path d="m214.45,79.93c-1.05,1.05-2.02,1.38-3.76,1.38-1.84,0-2.84-.31-3.64-1.13-.59-.59-.9-1.49-.9-2.41,0-2.25,1.61-3.56,4.3-3.56h3.99v-1.38c0-1.97-.95-3.02-3.48-3.02-1.74,0-2.61.44-3.41,1.56l-.95-.82c1.05-1.46,2.33-1.89,4.35-1.89,3.28,0,4.79,1.46,4.79,4.05v8.45h-1.3v-1.23Zm-3.84-4.66c-2.1,0-3.15.82-3.15,2.48s.97,2.41,3.23,2.41c1.13,0,2.18-.1,3.07-.95.46-.43.69-1.23.69-2.36v-1.59h-3.84Z"/>
    <path d="m220.08,62.93h1.61v1.61h-1.61v-1.61Zm.15,5.89h1.3v12.34h-1.3v-12.34Z"/>
    <path d="m234.29,73.5c0-2.38-1.18-3.69-3.41-3.69s-3.48,1.33-3.48,3.69v7.66h-1.3v-12.34h1.3v1.46c.92-1.08,2.13-1.61,3.64-1.61,1.36,0,2.46.38,3.28,1.18.85.82,1.28,1.97,1.28,3.43v7.89h-1.3v-7.66Z"/>
    <path d="m247.39,79.93c-1.05,1.05-2.02,1.38-3.76,1.38-1.84,0-2.84-.31-3.64-1.13-.59-.59-.9-1.49-.9-2.41,0-2.25,1.61-3.56,4.3-3.56h3.99v-1.38c0-1.97-.95-3.02-3.48-3.02-1.74,0-2.61.44-3.41,1.56l-.95-.82c1.05-1.46,2.33-1.89,4.35-1.89,3.28,0,4.79,1.46,4.79,4.05v8.45h-1.3v-1.23Zm-3.84-4.66c-2.1,0-3.15.82-3.15,2.48s.97,2.41,3.23,2.41c1.13,0,2.18-.1,3.07-.95.46-.43.69-1.23.69-2.36v-1.59h-3.84Z"/>
    <path d="m261.19,80.24c-.64.64-1.71,1.08-3.02,1.08-1.41,0-2.56-.31-3.66-1.74v1.59h-1.31v-18.23h1.31v7.48c1.1-1.43,2.25-1.74,3.66-1.74,1.3,0,2.38.44,3.02,1.08,1.26,1.25,1.59,3.3,1.59,5.25s-.33,3.99-1.59,5.25Zm-3.2-10.42c-3.02,0-3.48,2.61-3.48,5.17s.46,5.17,3.48,5.17,3.48-2.61,3.48-5.17-.46-5.17-3.48-5.17Z"/>
    <path d="m266.58,62.93h1.61v1.61h-1.61v-1.61Zm.15,5.89h1.31v12.34h-1.31v-12.34Z"/>
    <path d="m272.52,77.96v-15.03h1.31v15c0,1.41.44,2.07,1.89,2.07h.9v1.15h-1.13c-2.02,0-2.97-1.25-2.97-3.2Z"/>
    <path d="m279.71,62.93h1.61v1.61h-1.61v-1.61Zm.15,5.89h1.3v12.34h-1.3v-12.34Z"/>
    <path d="m286.25,77.93v-8.14h-1.69v-.97h1.69v-3.94h1.3v3.94h2.79v.97h-2.79v8.17c0,1.31.59,2.05,1.89,2.05h.9v1.15h-1.13c-1.95,0-2.97-1.36-2.97-3.23Z"/>
    <path d="m296.57,85.95c-.62.59-1.51.79-2.33.79h-.62v-1.15h.49c1.41,0,1.82-.46,2.25-1.69l1-2.74-4.51-12.34h1.43l3.71,10.8,3.71-10.8h1.43l-5.74,15.7c-.23.67-.51,1.15-.84,1.43Z"/>
    <path d="m328.91,73.5c0-2.38-1.18-3.69-3.4-3.69s-3.48,1.33-3.48,3.46v7.89h-1.31v-7.66c0-2.38-1.18-3.69-3.4-3.69s-3.48,1.33-3.48,3.69v7.66h-1.31v-12.34h1.31v1.46c.92-1.08,2.15-1.61,3.66-1.61,1.84,0,3.22.79,3.97,2.25.92-1.46,2.36-2.25,4.2-2.25,1.36,0,2.46.44,3.25,1.18.85.82,1.28,1.97,1.28,3.43v7.89h-1.28v-7.66Z"/>
    <path d="m342.01,79.93c-1.05,1.05-2.02,1.38-3.76,1.38-1.84,0-2.84-.31-3.64-1.13-.59-.59-.9-1.49-.9-2.41,0-2.25,1.61-3.56,4.3-3.56h3.99v-1.38c0-1.97-.95-3.02-3.48-3.02-1.74,0-2.61.44-3.41,1.56l-.95-.82c1.05-1.46,2.33-1.89,4.35-1.89,3.28,0,4.79,1.46,4.79,4.05v8.45h-1.3v-1.23Zm-3.84-4.66c-2.1,0-3.15.82-3.15,2.48s.97,2.41,3.23,2.41c1.13,0,2.18-.1,3.07-.95.46-.43.69-1.23.69-2.36v-1.59h-3.84Z"/>
    <path d="m356.01,73.5c0-2.38-1.18-3.69-3.41-3.69s-3.48,1.33-3.48,3.69v7.66h-1.3v-12.34h1.3v1.46c.92-1.08,2.13-1.61,3.64-1.61,1.36,0,2.46.38,3.28,1.18.85.82,1.28,1.97,1.28,3.43v7.89h-1.3v-7.66Z"/>
    <path d="m369.11,79.93c-1.05,1.05-2.02,1.38-3.76,1.38-1.84,0-2.84-.31-3.63-1.13-.59-.59-.9-1.49-.9-2.41,0-2.25,1.61-3.56,4.3-3.56h3.99v-1.38c0-1.97-.95-3.02-3.48-3.02-1.74,0-2.61.44-3.4,1.56l-.95-.82c1.05-1.46,2.33-1.89,4.35-1.89,3.28,0,4.79,1.46,4.79,4.05v8.45h-1.31v-1.23Zm-3.84-4.66c-2.1,0-3.15.82-3.15,2.48s.97,2.41,3.23,2.41c1.13,0,2.18-.1,3.07-.95.46-.43.69-1.23.69-2.36v-1.59h-3.84Z"/>
    <path d="m378.86,87.2c-1.84,0-2.79-.49-4.07-1.64l.87-.87c.97.9,1.64,1.36,3.2,1.36,2.59,0,3.74-1.82,3.74-4.28v-2.2c-1.1,1.43-2.25,1.74-3.66,1.74-1.3,0-2.38-.43-3.02-1.08-1.26-1.25-1.59-3.3-1.59-5.25s.33-3.99,1.59-5.25c.64-.64,1.71-1.08,3.02-1.08,1.41,0,2.56.31,3.66,1.74v-1.59h1.31v13.03c0,3.1-1.84,5.35-5.04,5.35Zm.26-17.39c-3.02,0-3.48,2.61-3.48,5.17s.46,5.17,3.48,5.17,3.48-2.61,3.48-5.17-.46-5.17-3.48-5.17Z"/>
    <path d="m393.18,80.13c1.46,0,2.36-.43,3.4-1.48l.97.77c-1.25,1.25-2.41,1.89-4.46,1.89-3.4,0-5.25-2.2-5.25-6.32s1.84-6.32,4.94-6.32,4.94,2.23,4.94,6.02v.59h-8.58c0,3.15,1.38,4.86,4.02,4.86Zm2.82-8.24c-.54-1.31-1.77-2.07-3.2-2.07s-2.66.77-3.2,2.07c-.28.79-.36,1.13-.44,2.33h7.27c-.08-1.18-.1-1.59-.43-2.33Z"/>
    <path d="m417.99,73.5c0-2.38-1.18-3.69-3.4-3.69s-3.48,1.33-3.48,3.46v7.89h-1.31v-7.66c0-2.38-1.18-3.69-3.4-3.69s-3.48,1.33-3.48,3.69v7.66h-1.31v-12.34h1.31v1.46c.92-1.08,2.15-1.61,3.66-1.61,1.84,0,3.22.79,3.97,2.25.92-1.46,2.36-2.25,4.2-2.25,1.36,0,2.46.44,3.25,1.18.85.82,1.28,1.97,1.28,3.43v7.89h-1.28v-7.66Z"/>
    <path d="m428.46,80.13c1.46,0,2.36-.43,3.41-1.48l.97.77c-1.26,1.25-2.41,1.89-4.46,1.89-3.41,0-5.25-2.2-5.25-6.32s1.84-6.32,4.94-6.32,4.94,2.23,4.94,6.02v.59h-8.58c0,3.15,1.38,4.86,4.02,4.86Zm2.82-8.24c-.54-1.31-1.77-2.07-3.2-2.07s-2.66.77-3.2,2.07c-.28.79-.36,1.13-.44,2.33h7.27c-.08-1.18-.1-1.59-.44-2.33Z"/>
    <path d="m445.08,73.5c0-2.38-1.18-3.69-3.41-3.69s-3.48,1.33-3.48,3.69v7.66h-1.3v-12.34h1.3v1.46c.92-1.08,2.13-1.61,3.64-1.61,1.36,0,2.46.38,3.28,1.18.85.82,1.28,1.97,1.28,3.43v7.89h-1.3v-7.66Z"/>
    <path d="m450.93,77.93v-8.14h-1.69v-.97h1.69v-3.94h1.31v3.94h2.79v.97h-2.79v8.17c0,1.31.59,2.05,1.89,2.05h.9v1.15h-1.13c-1.95,0-2.97-1.36-2.97-3.23Z"/>
  </g>
</svg>