<?xml version="1.0" encoding="UTF-8"?>
<svg id="hochschulsport_1" data-name="hochschulsport 1" xmlns="http://www.w3.org/2000/svg" width="194mm" height="30.9mm" viewBox="0 0 549.92 87.58">
  <g>
    <path d="m121.1,38.04c0,2.34-.36,3.88-1.39,4.83-1.68,1.61-3.36,1.83-6,1.83-3.73,0-5.49-1.76-5.49-4.39s1.9-4.32,5.34-4.32h7.53v2.05Zm9.51,14.05v-25.09c0-8.92-5.56-13.46-16.24-13.46-6.36,0-10.02,1.17-13.75,5.27l6.07,5.93c1.97-2.27,3.66-3.15,7.32-3.15,5.05,0,7.09,1.83,7.09,6v1.9h-9c-8.85,0-13.02,4.98-13.02,11.05,0,3.36,1.1,6.44,3.15,8.56,2.27,2.27,5.41,3.36,9.73,3.36s6.8-1.1,9.36-3.66v3.29h9.29Zm-48.42-19.09c0,6.22-.81,10.97-6.51,10.97s-6.43-4.75-6.43-10.97.73-10.9,6.43-10.9,6.51,4.68,6.51,10.9m9.51,19.09V0h-9.51v17.34c-2.49-2.78-5.41-3.81-9.29-3.81s-7.17,1.32-9.29,3.44c-3.81,3.81-3.88,10.31-3.88,16.02s.07,12.29,3.88,16.09c2.12,2.12,5.63,3.44,9.36,3.44,4.03,0,6.8-1.1,9.44-4.02v3.58h9.29Zm-32.53,4.81h-22.67v2.15h22.67v-2.15Zm-27.78-4.81v-24.65c0-8.05-4.39-13.9-12.73-13.9-3.37,0-6.59,1.32-9.14,3.95V0H0v52.08h9.51v-23.26c0-4.98,3.15-6.73,6.14-6.73s6.22,1.68,6.22,6.73v23.26h9.51Z" fill="#1d1d1b"/>
    <g>
      <path d="m167.43,26.45v-7.97c0-1.97-1.15-2.84-2.61-2.84s-2.64.9-2.64,2.84v7.97h-2.61V8.21h2.61v6.56c.9-.97,2.08-1.46,3.36-1.46,2.89,0,4.51,1.95,4.51,4.77v8.38h-2.61Z" fill="#1d1d1b"/>
      <path d="m182.56,25.07c-.84.87-2.13,1.54-3.89,1.54s-3.02-.67-3.87-1.54c-1.23-1.28-1.54-2.92-1.54-5.12s.31-3.82,1.54-5.1c.85-.87,2.1-1.54,3.87-1.54s3.05.67,3.89,1.54c1.23,1.28,1.54,2.92,1.54,5.1s-.31,3.84-1.54,5.12Zm-1.97-8.69c-.49-.49-1.15-.74-1.92-.74s-1.41.26-1.9.74c-.79.79-.9,2.15-.9,3.56s.1,2.77.9,3.56c.49.49,1.13.77,1.9.77s1.43-.28,1.92-.77c.79-.79.9-2.15.9-3.56s-.1-2.77-.9-3.56Z" fill="#1d1d1b"/>
      <path d="m192.65,26.61c-2.92,0-5.79-1.79-5.79-6.66s2.87-6.64,5.79-6.64c1.79,0,3.05.51,4.28,1.82l-1.79,1.74c-.82-.9-1.46-1.23-2.49-1.23s-1.84.41-2.41,1.15c-.56.72-.77,1.64-.77,3.15s.21,2.46.77,3.18c.56.74,1.41,1.15,2.41,1.15s1.67-.33,2.49-1.23l1.79,1.72c-1.23,1.31-2.49,1.84-4.28,1.84Z" fill="#1d1d1b"/>
      <path d="m207.63,26.45v-7.97c0-1.97-1.15-2.84-2.61-2.84s-2.64.9-2.64,2.84v7.97h-2.61V8.21h2.61v6.56c.9-.97,2.08-1.46,3.36-1.46,2.89,0,4.51,1.95,4.51,4.77v8.38h-2.61Z" fill="#1d1d1b"/>
      <path d="m218.42,26.61c-2.13,0-3.92-.36-5.46-1.87l1.72-1.72c1.05,1.08,2.46,1.36,3.74,1.36,1.59,0,2.84-.56,2.84-1.79,0-.87-.49-1.43-1.74-1.54l-2.07-.18c-2.43-.21-3.84-1.31-3.84-3.59,0-2.54,2.18-3.97,4.89-3.97,1.95,0,3.61.41,4.82,1.46l-1.64,1.67c-.82-.69-1.97-.95-3.2-.95-1.56,0-2.36.69-2.36,1.67,0,.77.41,1.36,1.79,1.49l2.05.18c2.43.21,3.87,1.36,3.87,3.66,0,2.72-2.31,4.12-5.41,4.12Z" fill="#1d1d1b"/>
      <path d="m232.14,26.61c-2.92,0-5.79-1.79-5.79-6.66s2.87-6.64,5.79-6.64c1.79,0,3.05.51,4.28,1.82l-1.79,1.74c-.82-.9-1.46-1.23-2.49-1.23s-1.84.41-2.41,1.15c-.56.72-.77,1.64-.77,3.15s.21,2.46.77,3.18c.56.74,1.41,1.15,2.41,1.15s1.67-.33,2.49-1.23l1.79,1.72c-1.23,1.31-2.49,1.84-4.28,1.84Z" fill="#1d1d1b"/>
      <path d="m247.12,26.45v-7.97c0-1.97-1.15-2.84-2.61-2.84s-2.64.9-2.64,2.84v7.97h-2.61V8.21h2.61v6.56c.9-.97,2.08-1.46,3.36-1.46,2.89,0,4.51,1.95,4.51,4.77v8.38h-2.61Z" fill="#1d1d1b"/>
      <path d="m261.33,26.45v-1.31c-.9.97-2.15,1.46-3.46,1.46s-2.43-.44-3.2-1.18c-1-.97-1.31-2.2-1.31-3.66v-8.3h2.61v7.92c0,2.02,1.15,2.9,2.61,2.9s2.69-.9,2.69-2.9v-7.92h2.61v12.99h-2.56Z" fill="#1d1d1b"/>
      <path d="m271.27,26.45c-2.49,0-3.56-1.67-3.56-3.59v-14.65h2.61v14.5c0,1,.36,1.51,1.41,1.51h1.15v2.23h-1.61Z" fill="#1d1d1b"/>
      <path d="m277.46,20.71c0,2.23,1.18,3.64,3.3,3.64,1.46,0,2.23-.41,3.15-1.33l1.67,1.56c-1.33,1.33-2.59,2.02-4.87,2.02-3.25,0-5.84-1.72-5.84-6.66,0-4.2,2.18-6.64,5.51-6.64s5.51,2.56,5.51,6.25v1.15h-8.43Zm5.48-3.59c-.41-.97-1.33-1.64-2.56-1.64s-2.18.67-2.59,1.64c-.26.59-.31.97-.33,1.77h5.84c-.03-.79-.1-1.18-.36-1.77Z" fill="#1d1d1b"/>
      <path d="m302.95,26.45v-1.38c-.97,1.18-2.02,1.54-3.43,1.54-1.31,0-2.46-.44-3.18-1.15-1.31-1.31-1.46-3.54-1.46-5.51s.15-4.18,1.46-5.48c.72-.72,1.84-1.15,3.15-1.15,1.38,0,2.46.33,3.41,1.46v-6.56h2.61v18.24h-2.56Zm-2.74-10.81c-2.36,0-2.72,2-2.72,4.3s.36,4.33,2.72,4.33,2.69-2.02,2.69-4.33-.33-4.3-2.69-4.3Z" fill="#1d1d1b"/>
      <path d="m316.49,26.45v-1.18c-.95.95-1.84,1.33-3.46,1.33s-2.69-.38-3.48-1.18c-.67-.69-1.02-1.69-1.02-2.79,0-2.18,1.51-3.74,4.48-3.74h3.43v-.92c0-1.64-.82-2.43-2.84-2.43-1.43,0-2.13.33-2.84,1.26l-1.72-1.61c1.23-1.43,2.51-1.87,4.66-1.87,3.56,0,5.35,1.51,5.35,4.46v8.69h-2.56Zm-.05-5.74h-3.05c-1.54,0-2.33.69-2.33,1.87s.74,1.84,2.38,1.84c1,0,1.74-.08,2.43-.74.38-.38.56-1,.56-1.92v-1.05Z" fill="#1d1d1b"/>
      <path d="m329.98,16.51c-.59-.59-1.05-.87-1.95-.87-1.41,0-2.59,1.13-2.59,2.92v7.89h-2.61v-12.99h2.56v1.41c.67-.92,2-1.56,3.46-1.56,1.26,0,2.2.33,3.1,1.23l-1.97,1.97Z" fill="#1d1d1b"/>
      <path d="m350.19,26.45v-7.92c0-2.02-1.15-2.9-2.61-2.9s-2.69.9-2.69,2.77v8.04h-2.61v-7.92c0-2.02-1.15-2.9-2.61-2.9s-2.69.9-2.69,2.9v7.92h-2.61v-12.99h2.56v1.31c.87-.95,2.15-1.46,3.46-1.46,1.61,0,2.87.64,3.69,1.9,1.05-1.28,2.36-1.9,4.07-1.9,1.33,0,2.51.44,3.28,1.18,1,.97,1.38,2.2,1.38,3.66v8.3h-2.61Z" fill="#1d1d1b"/>
      <path d="m361,26.61c-2.13,0-3.92-.36-5.46-1.87l1.72-1.72c1.05,1.08,2.46,1.36,3.74,1.36,1.59,0,2.84-.56,2.84-1.79,0-.87-.49-1.43-1.74-1.54l-2.07-.18c-2.43-.21-3.84-1.31-3.84-3.59,0-2.54,2.18-3.97,4.89-3.97,1.95,0,3.61.41,4.82,1.46l-1.64,1.67c-.82-.69-1.97-.95-3.2-.95-1.56,0-2.36.69-2.36,1.67,0,.77.41,1.36,1.79,1.49l2.05.18c2.43.21,3.87,1.36,3.87,3.66,0,2.72-2.31,4.12-5.41,4.12Z" fill="#1d1d1b"/>
      <path d="m373.53,26.45c-2.43,0-3.56-1.74-3.56-3.61v-7.15h-1.49v-2h1.49v-3.95h2.61v3.95h2.51v2h-2.51v7.02c0,.95.46,1.51,1.43,1.51h1.08v2.23h-1.56Z" fill="#1d1d1b"/>
      <path d="m385.47,26.45v-1.18c-.95.95-1.84,1.33-3.46,1.33s-2.69-.38-3.48-1.18c-.67-.69-1.02-1.69-1.02-2.79,0-2.18,1.51-3.74,4.48-3.74h3.43v-.92c0-1.64-.82-2.43-2.84-2.43-1.43,0-2.13.33-2.84,1.26l-1.72-1.61c1.23-1.43,2.51-1.87,4.66-1.87,3.56,0,5.35,1.51,5.35,4.46v8.69h-2.56Zm-.05-5.74h-3.05c-1.54,0-2.33.69-2.33,1.87s.74,1.84,2.38,1.84c1,0,1.74-.08,2.43-.74.38-.38.56-1,.56-1.92v-1.05Z" fill="#1d1d1b"/>
      <path d="m399.39,26.45v-1.38c-.97,1.18-2.02,1.54-3.43,1.54-1.31,0-2.46-.44-3.18-1.15-1.31-1.31-1.46-3.54-1.46-5.51s.15-4.18,1.46-5.48c.72-.72,1.84-1.15,3.15-1.15,1.38,0,2.46.33,3.41,1.46v-6.56h2.61v18.24h-2.56Zm-2.74-10.81c-2.36,0-2.72,2-2.72,4.3s.36,4.33,2.72,4.33,2.69-2.02,2.69-4.33-.33-4.3-2.69-4.3Z" fill="#1d1d1b"/>
      <path d="m409.81,26.45c-2.43,0-3.56-1.74-3.56-3.61v-7.15h-1.49v-2h1.49v-3.95h2.61v3.95h2.51v2h-2.51v7.02c0,.95.46,1.51,1.43,1.51h1.08v2.23h-1.56Z" fill="#1d1d1b"/>
    </g>
  </g>
  <g>
    <path d="m164.01,52.23c-2.23,0-3.88-.58-5.19-1.83l.93-.93c.98,1.04,2.39,1.57,4.2,1.57,2.53,0,3.86-.88,3.86-2.61,0-1.36-.75-1.97-2.45-2.15l-2.13-.19c-2.58-.21-3.86-1.33-3.86-3.35,0-2.23,1.81-3.64,4.6-3.64,1.78,0,3.35.5,4.5,1.36l-.9.9c-.98-.72-2.18-1.09-3.59-1.09-2.13,0-3.27.88-3.27,2.47,0,1.36.8,1.97,2.61,2.15l2.08.19c2.13.21,3.75.85,3.75,3.35,0,2.34-1.97,3.8-5.13,3.8Z"/>
    <path d="m175.15,57.05c-.64.61-1.57.82-2.42.82h-.64v-1.2h.51c1.46,0,1.89-.48,2.34-1.76l1.04-2.85-4.68-12.82h1.49l3.86,11.22,3.86-11.22h1.49l-5.96,16.3c-.24.69-.53,1.2-.88,1.49Z"/>
    <path d="m189,52.23c-2.23,0-3.88-.58-5.19-1.83l.93-.93c.98,1.04,2.39,1.57,4.2,1.57,2.53,0,3.86-.88,3.86-2.61,0-1.36-.75-1.97-2.45-2.15l-2.13-.19c-2.58-.21-3.86-1.33-3.86-3.35,0-2.23,1.81-3.64,4.6-3.64,1.78,0,3.35.5,4.5,1.36l-.9.9c-.98-.72-2.18-1.09-3.59-1.09-2.13,0-3.27.88-3.27,2.47,0,1.36.8,1.97,2.61,2.15l2.08.19c2.13.21,3.75.85,3.75,3.35,0,2.34-1.97,3.8-5.13,3.8Z"/>
    <path d="m198.54,48.72v-8.46h-1.76v-1.01h1.76v-4.1h1.36v4.1h2.9v1.01h-2.9v8.48c0,1.36.61,2.13,1.97,2.13h.93v1.2h-1.17c-2.02,0-3.08-1.41-3.08-3.35Z"/>
    <path d="m210.95,51.01c1.52,0,2.45-.45,3.54-1.54l1.01.8c-1.3,1.3-2.5,1.97-4.63,1.97-3.54,0-5.45-2.29-5.45-6.57s1.92-6.57,5.13-6.57,5.13,2.31,5.13,6.25v.61h-8.91c0,3.27,1.44,5.05,4.18,5.05Zm2.93-8.56c-.56-1.36-1.83-2.15-3.33-2.15s-2.77.8-3.32,2.15c-.29.82-.37,1.17-.45,2.42h7.55c-.08-1.22-.11-1.65-.45-2.42Z"/>
    <path d="m236.71,44.12c0-2.47-1.22-3.83-3.54-3.83s-3.62,1.38-3.62,3.59v8.19h-1.36v-7.95c0-2.47-1.22-3.83-3.54-3.83s-3.62,1.38-3.62,3.83v7.95h-1.36v-12.82h1.36v1.52c.96-1.12,2.23-1.67,3.8-1.67,1.92,0,3.35.82,4.12,2.34.96-1.52,2.45-2.34,4.36-2.34,1.41,0,2.55.45,3.38,1.22.88.85,1.33,2.05,1.33,3.56v8.19h-1.33v-7.95Z"/>
    <path d="m242.51,33.14h1.68v1.68h-1.68v-1.68Zm.16,6.12h1.36v12.82h-1.36v-12.82Z"/>
    <path d="m257.25,44.12c0-2.47-1.22-3.83-3.54-3.83s-3.62,1.38-3.62,3.83v7.95h-1.36v-12.82h1.36v1.52c.96-1.12,2.21-1.67,3.78-1.67,1.41,0,2.55.4,3.4,1.22.88.85,1.33,2.05,1.33,3.56v8.19h-1.36v-7.95Z"/>
    <path d="m271.75,44.12c0-2.47-1.22-3.83-3.54-3.83s-3.62,1.38-3.62,3.83v7.95h-1.36v-12.82h1.36v1.52c.96-1.12,2.21-1.67,3.78-1.67,1.41,0,2.55.4,3.4,1.22.88.85,1.33,2.05,1.33,3.56v8.19h-1.36v-7.95Z"/>
    <path d="m285.85,50.82c-.93.93-2.1,1.41-3.56,1.41s-2.63-.48-3.56-1.41c-1.36-1.36-1.6-3.32-1.6-5.16s.24-3.8,1.6-5.16c.93-.93,2.13-1.41,3.56-1.41s2.63.48,3.56,1.41c1.36,1.36,1.6,3.32,1.6,5.16s-.24,3.8-1.6,5.16Zm-.9-9.44c-.72-.72-1.62-1.09-2.66-1.09s-1.94.37-2.66,1.09c-1.06,1.06-1.14,2.79-1.14,4.28s.08,3.22,1.14,4.28c.72.72,1.62,1.09,2.66,1.09s1.94-.37,2.66-1.09c1.06-1.06,1.14-2.79,1.14-4.28s-.08-3.22-1.14-4.28Z"/>
    <path d="m294.22,52.07l-4.68-12.82h1.49l3.86,11.22,3.86-11.22h1.49l-4.68,12.82h-1.33Z"/>
    <path d="m310.97,50.8c-1.09,1.09-2.1,1.44-3.91,1.44-1.92,0-2.95-.32-3.78-1.17-.61-.61-.93-1.54-.93-2.5,0-2.34,1.68-3.7,4.47-3.7h4.15v-1.44c0-2.05-.98-3.14-3.62-3.14-1.81,0-2.71.45-3.54,1.62l-.98-.85c1.09-1.52,2.42-1.97,4.52-1.97,3.4,0,4.97,1.52,4.97,4.2v8.78h-1.36v-1.28Zm-3.99-4.84c-2.18,0-3.27.85-3.27,2.58s1.01,2.5,3.35,2.5c1.17,0,2.26-.11,3.19-.98.48-.45.72-1.28.72-2.45v-1.65h-3.99Z"/>
    <path d="m317.18,48.72v-8.46h-1.76v-1.01h1.76v-4.1h1.36v4.1h2.9v1.01h-2.9v8.48c0,1.36.61,2.13,1.97,2.13h.93v1.2h-1.17c-2.02,0-3.08-1.41-3.08-3.35Z"/>
    <path d="m324.96,33.14h1.68v1.68h-1.68v-1.68Zm.16,6.12h1.36v12.82h-1.36v-12.82Z"/>
    <path d="m339.27,50.82c-.93.93-2.1,1.41-3.56,1.41s-2.63-.48-3.56-1.41c-1.36-1.36-1.6-3.32-1.6-5.16s.24-3.8,1.6-5.16c.93-.93,2.13-1.41,3.56-1.41s2.63.48,3.56,1.41c1.36,1.36,1.6,3.32,1.6,5.16s-.24,3.8-1.6,5.16Zm-.9-9.44c-.72-.72-1.62-1.09-2.66-1.09s-1.94.37-2.66,1.09c-1.06,1.06-1.14,2.79-1.14,4.28s.08,3.22,1.14,4.28c.72.72,1.62,1.09,2.66,1.09s1.94-.37,2.66-1.09c1.06-1.06,1.14-2.79,1.14-4.28s-.08-3.22-1.14-4.28Z"/>
    <path d="m353.51,44.12c0-2.47-1.22-3.83-3.54-3.83s-3.62,1.38-3.62,3.83v7.95h-1.36v-12.82h1.36v1.52c.96-1.12,2.21-1.67,3.78-1.67,1.41,0,2.55.4,3.4,1.22.88.85,1.33,2.05,1.33,3.56v8.19h-1.36v-7.95Z"/>
    <path d="m368.4,52.07h-1.36v-11.81h-1.75v-1.01h1.75v-2.77c0-1.94,1.06-3.35,3.08-3.35h1.17v1.2h-.93c-1.36,0-1.97.77-1.97,2.13v2.79h2.9v1.01h-2.9v11.81Z"/>
    <path d="m383.1,50.56c-.96,1.12-2.21,1.67-3.78,1.67-1.41,0-2.55-.4-3.4-1.22-.88-.85-1.33-2.05-1.33-3.56v-8.19h1.36v7.95c0,2.47,1.22,3.83,3.54,3.83s3.62-1.38,3.62-3.83v-7.95h1.36v12.82h-1.36v-1.52Zm-7.13-16.49h1.54v2.05h-1.54v-2.05Zm5.53,0h1.54v2.05h-1.54v-2.05Z"/>
    <path d="m393.98,40.29c-2.21,0-3.43,1.83-3.43,3.88v7.9h-1.36v-12.82h1.36v1.7c.74-1.2,2.23-1.86,3.75-1.86,1.25,0,2.15.29,3.08,1.22l-.98.98c-.77-.77-1.36-1.01-2.42-1.01Z"/>
    <path d="m168.58,73.32c0-2.47-1.22-3.83-3.54-3.83s-3.62,1.38-3.62,3.83v7.95h-1.36v-12.82h1.36v1.52c.96-1.12,2.21-1.67,3.78-1.67,1.41,0,2.55.4,3.4,1.22.88.85,1.33,2.05,1.33,3.56v8.19h-1.36v-7.95Z"/>
    <path d="m182.19,80c-1.09,1.09-2.1,1.44-3.91,1.44-1.92,0-2.95-.32-3.78-1.17-.61-.61-.93-1.54-.93-2.5,0-2.34,1.68-3.7,4.47-3.7h4.15v-1.44c0-2.05-.98-3.14-3.62-3.14-1.81,0-2.71.45-3.54,1.62l-.98-.85c1.09-1.52,2.42-1.97,4.52-1.97,3.4,0,4.97,1.52,4.97,4.2v8.78h-1.36v-1.28Zm-3.99-4.84c-2.18,0-3.27.85-3.27,2.58s1.01,2.5,3.35,2.5c1.17,0,2.26-.11,3.19-.98.48-.45.72-1.28.72-2.45v-1.65h-3.99Z"/>
    <path d="m193.19,81.43c-3.51,0-5.64-2.5-5.64-6.57s2.13-6.57,5.64-6.57c1.75,0,2.87.45,4.23,1.97l-.93.85c-1.09-1.22-1.94-1.62-3.3-1.62-1.46,0-2.63.56-3.4,1.7-.64.93-.88,1.94-.88,3.67s.24,2.74.88,3.67c.77,1.14,1.94,1.7,3.4,1.7,1.36,0,2.21-.43,3.3-1.62l.93.85c-1.36,1.52-2.47,1.97-4.23,1.97Z"/>
    <path d="m209.59,73.32c0-2.47-1.22-3.83-3.54-3.83s-3.62,1.38-3.62,3.83v7.95h-1.36v-18.94h1.36v7.63c.96-1.12,2.21-1.67,3.78-1.67,2.95,0,4.73,1.81,4.73,4.79v8.19h-1.36v-7.95Z"/>
    <path d="m224.09,73.32c0-2.47-1.22-3.83-3.54-3.83s-3.62,1.38-3.62,3.83v7.95h-1.36v-18.94h1.36v7.63c.96-1.12,2.21-1.67,3.78-1.67,2.95,0,4.73,1.81,4.73,4.79v8.19h-1.36v-7.95Z"/>
    <path d="m237.69,80c-1.09,1.09-2.1,1.44-3.91,1.44-1.92,0-2.95-.32-3.78-1.17-.61-.61-.93-1.54-.93-2.5,0-2.34,1.68-3.7,4.47-3.7h4.15v-1.44c0-2.05-.98-3.14-3.62-3.14-1.81,0-2.71.45-3.54,1.62l-.98-.85c1.09-1.52,2.42-1.97,4.52-1.97,3.4,0,4.97,1.52,4.97,4.2v8.78h-1.36v-1.28Zm-3.99-4.84c-2.18,0-3.27.85-3.27,2.58s1.01,2.5,3.35,2.5c1.17,0,2.26-.11,3.19-.98.48-.45.72-1.28.72-2.45v-1.65h-3.99Z"/>
    <path d="m243.65,77.95v-15.61h1.36v15.58c0,1.46.45,2.15,1.97,2.15h.93v1.2h-1.17c-2.1,0-3.08-1.3-3.08-3.32Z"/>
    <path d="m251.23,77.92v-8.46h-1.76v-1.01h1.76v-4.1h1.36v4.1h2.9v1.01h-2.9v8.48c0,1.36.61,2.13,1.97,2.13h.93v1.2h-1.17c-2.02,0-3.08-1.41-3.08-3.35Z"/>
    <path d="m259,62.34h1.68v1.68h-1.68v-1.68Zm.16,6.12h1.36v12.82h-1.36v-12.82Z"/>
    <path d="m269.34,87.55c-1.92,0-2.9-.5-4.23-1.7l.9-.9c1.01.93,1.7,1.41,3.33,1.41,2.69,0,3.88-1.89,3.88-4.44v-2.29c-1.14,1.49-2.34,1.81-3.8,1.81-1.36,0-2.47-.45-3.14-1.12-1.3-1.3-1.65-3.43-1.65-5.45s.35-4.15,1.65-5.45c.67-.66,1.78-1.12,3.14-1.12,1.46,0,2.66.32,3.8,1.81v-1.65h1.36v13.54c0,3.22-1.92,5.56-5.24,5.56Zm.27-18.06c-3.14,0-3.62,2.71-3.62,5.37s.48,5.37,3.62,5.37,3.62-2.71,3.62-5.37-.48-5.37-3.62-5.37Z"/>
    <path d="m284.21,80.21c1.52,0,2.45-.45,3.54-1.54l1.01.8c-1.3,1.3-2.5,1.97-4.63,1.97-3.54,0-5.45-2.29-5.45-6.57s1.92-6.57,5.13-6.57,5.13,2.31,5.13,6.25v.61h-8.91c0,3.27,1.44,5.05,4.18,5.05Zm2.93-8.56c-.56-1.36-1.83-2.15-3.33-2.15s-2.77.8-3.32,2.15c-.29.82-.37,1.17-.45,2.42h7.55c-.08-1.22-.11-1.65-.45-2.42Z"/>
    <path d="m304.91,80.21c1.52,0,2.45-.45,3.54-1.54l1.01.8c-1.3,1.3-2.5,1.97-4.63,1.97-3.54,0-5.45-2.29-5.45-6.57s1.92-6.57,5.13-6.57,5.13,2.31,5.13,6.25v.61h-8.91c0,3.27,1.44,5.05,4.18,5.05Zm2.93-8.56c-.56-1.36-1.83-2.15-3.33-2.15s-2.77.8-3.32,2.15c-.29.82-.37,1.17-.45,2.42h7.55c-.08-1.22-.11-1.65-.45-2.42Z"/>
    <path d="m322.16,73.32c0-2.47-1.22-3.83-3.54-3.83s-3.62,1.38-3.62,3.83v7.95h-1.36v-12.82h1.36v1.52c.96-1.12,2.21-1.67,3.78-1.67,1.41,0,2.55.4,3.4,1.22.88.85,1.33,2.05,1.33,3.56v8.19h-1.36v-7.95Z"/>
    <path d="m328.23,77.92v-8.46h-1.76v-1.01h1.76v-4.1h1.36v4.1h2.9v1.01h-2.9v8.48c0,1.36.61,2.13,1.97,2.13h.93v1.2h-1.17c-2.02,0-3.08-1.41-3.08-3.35Z"/>
    <path d="m347.79,81.27l-3.62-10.69-3.62,10.69h-1.38l-4.1-12.82h1.49l3.27,11.22,3.67-11.22h1.33l3.67,11.22,3.27-11.22h1.49l-4.1,12.82h-1.38Z"/>
    <path d="m356.28,62.34h1.68v1.68h-1.68v-1.68Zm.16,6.12h1.36v12.82h-1.36v-12.82Z"/>
    <path d="m367.46,81.43c-3.51,0-5.64-2.5-5.64-6.57s2.13-6.57,5.64-6.57c1.75,0,2.87.45,4.23,1.97l-.93.85c-1.09-1.22-1.94-1.62-3.3-1.62-1.46,0-2.63.56-3.4,1.7-.64.93-.88,1.94-.88,3.67s.24,2.74.88,3.67c.77,1.14,1.94,1.7,3.4,1.7,1.36,0,2.21-.43,3.3-1.62l.93.85c-1.36,1.52-2.47,1.97-4.23,1.97Z"/>
    <path d="m379.64,74.23l-2.92,3.38v3.67h-1.36v-18.94h1.36v13.35l6.36-7.23h1.73l-4.23,4.79,5.16,8.03h-1.68l-4.42-7.05Z"/>
    <path d="m388.73,77.95v-15.61h1.36v15.58c0,1.46.45,2.15,1.97,2.15h.93v1.2h-1.17c-2.1,0-3.08-1.3-3.08-3.32Z"/>
    <path d="m404.33,79.76c-.96,1.12-2.21,1.67-3.78,1.67-1.41,0-2.55-.4-3.4-1.22-.88-.85-1.33-2.05-1.33-3.56v-8.19h1.36v7.95c0,2.47,1.22,3.83,3.54,3.83s3.62-1.38,3.62-3.83v-7.95h1.36v12.82h-1.36v-1.52Z"/>
    <path d="m418.93,73.32c0-2.47-1.22-3.83-3.54-3.83s-3.62,1.38-3.62,3.83v7.95h-1.36v-12.82h1.36v1.52c.96-1.12,2.21-1.67,3.78-1.67,1.41,0,2.55.4,3.4,1.22.88.85,1.33,2.05,1.33,3.56v8.19h-1.36v-7.95Z"/>
    <path d="m429.02,87.55c-1.92,0-2.9-.5-4.23-1.7l.9-.9c1.01.93,1.7,1.41,3.33,1.41,2.69,0,3.88-1.89,3.88-4.44v-2.29c-1.14,1.49-2.34,1.81-3.8,1.81-1.36,0-2.47-.45-3.14-1.12-1.3-1.3-1.65-3.43-1.65-5.45s.35-4.15,1.65-5.45c.67-.66,1.78-1.12,3.14-1.12,1.46,0,2.66.32,3.8,1.81v-1.65h1.36v13.54c0,3.22-1.92,5.56-5.24,5.56Zm.27-18.06c-3.14,0-3.62,2.71-3.62,5.37s.48,5.37,3.62,5.37,3.62-2.71,3.62-5.37-.48-5.37-3.62-5.37Z"/>
  </g>
</svg>