<?xml version="1.0" encoding="UTF-8"?>
<svg id="innovations-_und_transformationsplattform_für_nachhaltige_entwicklung" data-name="innovations- und transformationsplattform für nachhaltige entwicklung" xmlns="http://www.w3.org/2000/svg" width="133mm" height="55.89mm" viewBox="0 0 377.01 158.44">
  <path d="m123.18,38.04c0,2.34-.36,3.88-1.39,4.83-1.68,1.61-3.36,1.83-6,1.83-3.73,0-5.49-1.76-5.49-4.39s1.9-4.32,5.34-4.32h7.53v2.05Zm9.51,14.05v-25.09c0-8.92-5.56-13.46-16.24-13.46-6.36,0-10.02,1.17-13.75,5.27l6.07,5.93c1.97-2.27,3.66-3.15,7.32-3.15,5.05,0,7.09,1.83,7.09,6v1.9h-9c-8.85,0-13.02,4.98-13.02,11.05,0,3.36,1.1,6.44,3.15,8.56,2.27,2.27,5.41,3.36,9.73,3.36s6.8-1.1,9.36-3.66v3.29h9.29Zm-48.42-19.09c0,6.22-.81,10.97-6.51,10.97s-6.43-4.75-6.43-10.97.73-10.9,6.43-10.9,6.51,4.68,6.51,10.9m9.51,19.09V0h-9.51v17.34c-2.49-2.78-5.41-3.81-9.29-3.81s-7.17,1.32-9.29,3.44c-3.81,3.81-3.88,10.31-3.88,16.02s.07,12.29,3.88,16.09c2.12,2.12,5.63,3.44,9.36,3.44,4.03,0,6.8-1.1,9.44-4.02v3.58h9.29Zm-32.53,4.81h-22.67v2.15h22.67v-2.15Zm-27.78-4.81v-24.65c0-8.05-4.39-13.9-12.73-13.9-3.37,0-6.59,1.32-9.14,3.95V0H2.07v52.08h9.51v-23.26c0-4.98,3.15-6.73,6.14-6.73s6.22,1.68,6.22,6.73v23.26h9.51Z" fill="#1d1d1b"/>
  <g>
    <path d="m10.24,93.68v-8.27c0-2.05-1.2-2.95-2.71-2.95s-2.74.93-2.74,2.95v8.27h-2.71v-18.93h2.71v6.8c.93-1.01,2.15-1.52,3.48-1.52,3,0,4.68,2.02,4.68,4.94v8.69h-2.71Z" fill="#1d1d1b"/>
    <path d="m25.92,92.24c-.88.9-2.21,1.6-4.04,1.6s-3.14-.69-4.01-1.6c-1.28-1.33-1.6-3.03-1.6-5.32s.32-3.96,1.6-5.29c.88-.9,2.18-1.59,4.01-1.59s3.16.69,4.04,1.59c1.28,1.33,1.59,3.03,1.59,5.29s-.32,3.99-1.59,5.32Zm-2.05-9.01c-.5-.5-1.2-.77-1.99-.77s-1.46.27-1.97.77c-.82.82-.93,2.23-.93,3.69s.11,2.87.93,3.69c.51.5,1.17.8,1.97.8s1.49-.29,1.99-.8c.82-.82.93-2.23.93-3.69s-.11-2.87-.93-3.69Z" fill="#1d1d1b"/>
    <path d="m36.38,93.84c-3.03,0-6.01-1.86-6.01-6.91s2.98-6.88,6.01-6.88c1.86,0,3.16.53,4.44,1.89l-1.86,1.81c-.85-.93-1.52-1.28-2.58-1.28s-1.91.43-2.5,1.2c-.58.74-.8,1.7-.8,3.27s.21,2.55.8,3.3c.58.77,1.46,1.2,2.5,1.2s1.73-.35,2.58-1.28l1.86,1.78c-1.28,1.36-2.58,1.91-4.44,1.91Z" fill="#1d1d1b"/>
    <path d="m51.91,93.68v-8.27c0-2.05-1.2-2.95-2.71-2.95s-2.74.93-2.74,2.95v8.27h-2.71v-18.93h2.71v6.8c.93-1.01,2.15-1.52,3.48-1.52,3,0,4.68,2.02,4.68,4.94v8.69h-2.71Z" fill="#1d1d1b"/>
    <path d="m63.09,93.84c-2.21,0-4.07-.37-5.66-1.94l1.78-1.78c1.09,1.12,2.55,1.41,3.88,1.41,1.65,0,2.95-.58,2.95-1.86,0-.9-.5-1.49-1.81-1.59l-2.15-.19c-2.52-.21-3.99-1.36-3.99-3.72,0-2.63,2.26-4.12,5.08-4.12,2.02,0,3.75.43,5,1.52l-1.7,1.73c-.85-.72-2.05-.98-3.32-.98-1.62,0-2.45.72-2.45,1.73,0,.8.42,1.41,1.86,1.54l2.13.19c2.52.21,4.01,1.41,4.01,3.8,0,2.82-2.39,4.28-5.61,4.28Z" fill="#1d1d1b"/>
    <path d="m77.31,93.84c-3.03,0-6.01-1.86-6.01-6.91s2.98-6.88,6.01-6.88c1.86,0,3.16.53,4.44,1.89l-1.86,1.81c-.85-.93-1.52-1.28-2.58-1.28s-1.91.43-2.5,1.2c-.58.74-.8,1.7-.8,3.27s.21,2.55.8,3.3c.58.77,1.46,1.2,2.5,1.2s1.73-.35,2.58-1.28l1.86,1.78c-1.28,1.36-2.58,1.91-4.44,1.91Z" fill="#1d1d1b"/>
    <path d="m92.85,93.68v-8.27c0-2.05-1.2-2.95-2.71-2.95s-2.74.93-2.74,2.95v8.27h-2.71v-18.93h2.71v6.8c.93-1.01,2.15-1.52,3.48-1.52,3,0,4.68,2.02,4.68,4.94v8.69h-2.71Z" fill="#1d1d1b"/>
    <path d="m107.58,93.68v-1.36c-.93,1.01-2.23,1.52-3.59,1.52s-2.53-.45-3.32-1.22c-1.04-1.01-1.36-2.29-1.36-3.8v-8.61h2.71v8.21c0,2.1,1.2,3,2.71,3s2.79-.93,2.79-3v-8.21h2.71v13.48h-2.66Z" fill="#1d1d1b"/>
    <path d="m117.88,93.68c-2.58,0-3.69-1.73-3.69-3.72v-15.2h2.71v15.04c0,1.04.37,1.57,1.46,1.57h1.2v2.31h-1.67Z" fill="#1d1d1b"/>
    <path d="m124.3,87.72c0,2.31,1.22,3.77,3.43,3.77,1.52,0,2.31-.43,3.27-1.38l1.73,1.62c-1.38,1.38-2.68,2.1-5.05,2.1-3.38,0-6.06-1.78-6.06-6.91,0-4.36,2.26-6.88,5.71-6.88s5.71,2.66,5.71,6.49v1.2h-8.75Zm5.69-3.72c-.43-1.01-1.38-1.7-2.66-1.7s-2.26.69-2.68,1.7c-.27.61-.32,1.01-.35,1.83h6.06c-.03-.82-.11-1.22-.37-1.83Z" fill="#1d1d1b"/>
    <path d="m150.74,93.68v-1.44c-1.01,1.22-2.1,1.6-3.56,1.6-1.36,0-2.55-.45-3.3-1.2-1.36-1.36-1.52-3.67-1.52-5.71s.16-4.33,1.52-5.69c.74-.74,1.91-1.2,3.27-1.2,1.44,0,2.55.35,3.54,1.52v-6.8h2.71v18.93h-2.66Zm-2.84-11.22c-2.45,0-2.82,2.07-2.82,4.47s.37,4.49,2.82,4.49,2.79-2.1,2.79-4.49-.35-4.47-2.79-4.47Z" fill="#1d1d1b"/>
    <path d="m164.77,93.68v-1.22c-.98.98-1.91,1.38-3.59,1.38s-2.79-.4-3.62-1.22c-.69-.72-1.06-1.75-1.06-2.9,0-2.26,1.57-3.88,4.65-3.88h3.56v-.96c0-1.7-.85-2.52-2.95-2.52-1.49,0-2.21.35-2.95,1.3l-1.78-1.67c1.28-1.49,2.6-1.94,4.84-1.94,3.69,0,5.55,1.57,5.55,4.62v9.01h-2.66Zm-.05-5.95h-3.16c-1.59,0-2.42.72-2.42,1.94s.77,1.91,2.47,1.91c1.04,0,1.81-.08,2.53-.77.4-.4.58-1.04.58-1.99v-1.09Z" fill="#1d1d1b"/>
    <path d="m178.76,83.36c-.61-.61-1.09-.9-2.02-.9-1.46,0-2.68,1.17-2.68,3.03v8.19h-2.71v-13.48h2.66v1.46c.69-.96,2.07-1.62,3.59-1.62,1.3,0,2.29.35,3.22,1.28l-2.05,2.05Z" fill="#1d1d1b"/>
    <path d="m199.72,93.68v-8.21c0-2.1-1.2-3-2.71-3s-2.79.93-2.79,2.87v8.35h-2.71v-8.21c0-2.1-1.2-3-2.71-3s-2.79.93-2.79,3v8.21h-2.71v-13.48h2.66v1.36c.9-.98,2.23-1.52,3.59-1.52,1.67,0,2.98.66,3.83,1.97,1.09-1.33,2.45-1.97,4.23-1.97,1.38,0,2.61.45,3.4,1.22,1.04,1.01,1.44,2.29,1.44,3.8v8.61h-2.71Z" fill="#1d1d1b"/>
    <path d="m210.92,93.84c-2.21,0-4.07-.37-5.66-1.94l1.78-1.78c1.09,1.12,2.55,1.41,3.88,1.41,1.65,0,2.95-.58,2.95-1.86,0-.9-.5-1.49-1.81-1.59l-2.15-.19c-2.52-.21-3.99-1.36-3.99-3.72,0-2.63,2.26-4.12,5.08-4.12,2.02,0,3.75.43,5,1.52l-1.7,1.73c-.85-.72-2.05-.98-3.32-.98-1.62,0-2.45.72-2.45,1.73,0,.8.42,1.41,1.86,1.54l2.13.19c2.52.21,4.01,1.41,4.01,3.8,0,2.82-2.39,4.28-5.61,4.28Z" fill="#1d1d1b"/>
    <path d="m223.91,93.68c-2.53,0-3.7-1.81-3.7-3.75v-7.42h-1.54v-2.07h1.54v-4.09h2.71v4.09h2.6v2.07h-2.6v7.28c0,.98.48,1.57,1.49,1.57h1.12v2.31h-1.62Z" fill="#1d1d1b"/>
    <path d="m236.29,93.68v-1.22c-.98.98-1.91,1.38-3.59,1.38s-2.79-.4-3.62-1.22c-.69-.72-1.06-1.75-1.06-2.9,0-2.26,1.57-3.88,4.65-3.88h3.56v-.96c0-1.7-.85-2.52-2.95-2.52-1.49,0-2.21.35-2.95,1.3l-1.78-1.67c1.28-1.49,2.6-1.94,4.84-1.94,3.69,0,5.55,1.57,5.55,4.62v9.01h-2.66Zm-.05-5.95h-3.16c-1.59,0-2.42.72-2.42,1.94s.77,1.91,2.47,1.91c1.04,0,1.81-.08,2.53-.77.4-.4.58-1.04.58-1.99v-1.09Z" fill="#1d1d1b"/>
    <path d="m250.71,93.68v-1.44c-1.01,1.22-2.1,1.6-3.56,1.6-1.36,0-2.55-.45-3.3-1.2-1.36-1.36-1.52-3.67-1.52-5.71s.16-4.33,1.52-5.69c.74-.74,1.91-1.2,3.27-1.2,1.44,0,2.55.35,3.54,1.52v-6.8h2.71v18.93h-2.66Zm-2.84-11.22c-2.45,0-2.82,2.07-2.82,4.47s.37,4.49,2.82,4.49,2.79-2.1,2.79-4.49-.35-4.47-2.79-4.47Z" fill="#1d1d1b"/>
    <path d="m261.51,93.68c-2.53,0-3.7-1.81-3.7-3.75v-7.42h-1.54v-2.07h1.54v-4.09h2.71v4.09h2.6v2.07h-2.6v7.28c0,.98.48,1.57,1.49,1.57h1.12v2.31h-1.62Z" fill="#1d1d1b"/>
    <g>
      <path d="m6.52,123.09c-2.23,0-3.88-.58-5.19-1.83l.93-.93c.98,1.04,2.39,1.57,4.2,1.57,2.53,0,3.86-.88,3.86-2.61,0-1.36-.75-1.97-2.45-2.15l-2.13-.19c-2.58-.21-3.86-1.33-3.86-3.35,0-2.23,1.81-3.64,4.6-3.64,1.78,0,3.35.5,4.5,1.36l-.9.9c-.98-.72-2.18-1.09-3.59-1.09-2.13,0-3.27.88-3.27,2.47,0,1.36.8,1.97,2.61,2.15l2.08.19c2.13.21,3.75.85,3.75,3.35,0,2.34-1.97,3.8-5.13,3.8Z"/>
      <path d="m17.66,127.91c-.64.61-1.57.82-2.42.82h-.64v-1.2h.51c1.46,0,1.89-.48,2.34-1.76l1.04-2.85-4.68-12.82h1.49l3.86,11.22,3.86-11.22h1.49l-5.96,16.3c-.24.69-.53,1.2-.88,1.49Z"/>
      <path d="m31.51,123.09c-2.23,0-3.88-.58-5.19-1.83l.93-.93c.98,1.04,2.39,1.57,4.2,1.57,2.53,0,3.86-.88,3.86-2.61,0-1.36-.75-1.97-2.45-2.15l-2.13-.19c-2.58-.21-3.86-1.33-3.86-3.35,0-2.23,1.81-3.64,4.6-3.64,1.78,0,3.35.5,4.5,1.36l-.9.9c-.98-.72-2.18-1.09-3.59-1.09-2.13,0-3.27.88-3.27,2.47,0,1.36.8,1.97,2.61,2.15l2.08.19c2.13.21,3.75.85,3.75,3.35,0,2.34-1.97,3.8-5.13,3.8Z"/>
      <path d="m41.05,119.58v-8.46h-1.76v-1.01h1.76v-4.1h1.36v4.1h2.9v1.01h-2.9v8.48c0,1.36.61,2.13,1.97,2.13h.93v1.2h-1.17c-2.02,0-3.08-1.41-3.08-3.35Z"/>
      <path d="m53.46,121.87c1.52,0,2.45-.45,3.54-1.54l1.01.8c-1.3,1.3-2.5,1.97-4.63,1.97-3.54,0-5.45-2.29-5.45-6.57s1.92-6.57,5.13-6.57,5.13,2.31,5.13,6.25v.61h-8.91c0,3.27,1.44,5.05,4.18,5.05Zm2.93-8.56c-.56-1.36-1.83-2.15-3.33-2.15s-2.77.8-3.32,2.15c-.29.82-.37,1.17-.45,2.42h7.55c-.08-1.22-.11-1.65-.45-2.42Z"/>
      <path d="m79.22,114.98c0-2.47-1.22-3.83-3.54-3.83s-3.62,1.38-3.62,3.59v8.19h-1.36v-7.95c0-2.47-1.22-3.83-3.54-3.83s-3.62,1.38-3.62,3.83v7.95h-1.36v-12.82h1.36v1.52c.96-1.12,2.23-1.67,3.8-1.67,1.92,0,3.35.82,4.12,2.34.96-1.52,2.45-2.34,4.36-2.34,1.41,0,2.55.45,3.38,1.22.88.85,1.33,2.05,1.33,3.56v8.19h-1.33v-7.95Z"/>
      <path d="m85.01,104h1.68v1.68h-1.68v-1.68Zm.16,6.12h1.36v12.82h-1.36v-12.82Z"/>
      <path d="m99.75,114.98c0-2.47-1.22-3.83-3.54-3.83s-3.62,1.38-3.62,3.83v7.95h-1.36v-12.82h1.36v1.52c.96-1.12,2.21-1.67,3.78-1.67,1.41,0,2.55.4,3.4,1.22.88.85,1.33,2.05,1.33,3.56v8.19h-1.36v-7.95Z"/>
      <path d="m114.25,114.98c0-2.47-1.22-3.83-3.54-3.83s-3.62,1.38-3.62,3.83v7.95h-1.36v-12.82h1.36v1.52c.96-1.12,2.21-1.67,3.78-1.67,1.41,0,2.55.4,3.4,1.22.88.85,1.33,2.05,1.33,3.56v8.19h-1.36v-7.95Z"/>
      <path d="m128.35,121.68c-.93.93-2.1,1.41-3.56,1.41s-2.63-.48-3.56-1.41c-1.36-1.36-1.6-3.32-1.6-5.16s.24-3.8,1.6-5.16c.93-.93,2.13-1.41,3.56-1.41s2.63.48,3.56,1.41c1.36,1.36,1.6,3.32,1.6,5.16s-.24,3.8-1.6,5.16Zm-.9-9.44c-.72-.72-1.62-1.09-2.66-1.09s-1.94.37-2.66,1.09c-1.06,1.06-1.14,2.79-1.14,4.28s.08,3.22,1.14,4.28c.72.72,1.62,1.09,2.66,1.09s1.94-.37,2.66-1.09c1.06-1.06,1.14-2.79,1.14-4.28s-.08-3.22-1.14-4.28Z"/>
      <path d="m136.72,122.93l-4.68-12.82h1.49l3.86,11.22,3.86-11.22h1.49l-4.68,12.82h-1.33Z"/>
      <path d="m153.47,121.66c-1.09,1.09-2.1,1.44-3.91,1.44-1.92,0-2.95-.32-3.78-1.17-.61-.61-.93-1.54-.93-2.5,0-2.34,1.68-3.7,4.47-3.7h4.15v-1.44c0-2.05-.98-3.14-3.62-3.14-1.81,0-2.71.45-3.54,1.62l-.98-.85c1.09-1.52,2.42-1.97,4.52-1.97,3.4,0,4.97,1.52,4.97,4.2v8.78h-1.36v-1.28Zm-3.99-4.84c-2.18,0-3.27.85-3.27,2.58s1.01,2.5,3.35,2.5c1.17,0,2.26-.11,3.19-.98.48-.45.72-1.28.72-2.45v-1.65h-3.99Z"/>
      <path d="m159.69,119.58v-8.46h-1.76v-1.01h1.76v-4.1h1.36v4.1h2.9v1.01h-2.9v8.48c0,1.36.61,2.13,1.97,2.13h.93v1.2h-1.17c-2.02,0-3.08-1.41-3.08-3.35Z"/>
      <path d="m167.46,104h1.68v1.68h-1.68v-1.68Zm.16,6.12h1.36v12.82h-1.36v-12.82Z"/>
      <path d="m181.77,121.68c-.93.93-2.1,1.41-3.56,1.41s-2.63-.48-3.56-1.41c-1.36-1.36-1.6-3.32-1.6-5.16s.24-3.8,1.6-5.16c.93-.93,2.13-1.41,3.56-1.41s2.63.48,3.56,1.41c1.36,1.36,1.6,3.32,1.6,5.16s-.24,3.8-1.6,5.16Zm-.9-9.44c-.72-.72-1.62-1.09-2.66-1.09s-1.94.37-2.66,1.09c-1.06,1.06-1.14,2.79-1.14,4.28s.08,3.22,1.14,4.28c.72.72,1.62,1.09,2.66,1.09s1.94-.37,2.66-1.09c1.06-1.06,1.14-2.79,1.14-4.28s-.08-3.22-1.14-4.28Z"/>
      <path d="m196.01,114.98c0-2.47-1.22-3.83-3.54-3.83s-3.62,1.38-3.62,3.83v7.95h-1.36v-12.82h1.36v1.52c.96-1.12,2.21-1.67,3.78-1.67,1.41,0,2.55.4,3.4,1.22.88.85,1.33,2.05,1.33,3.56v8.19h-1.36v-7.95Z"/>
      <path d="m210.91,122.93h-1.36v-11.81h-1.75v-1.01h1.75v-2.77c0-1.94,1.06-3.35,3.08-3.35h1.17v1.2h-.93c-1.36,0-1.97.77-1.97,2.13v2.79h2.9v1.01h-2.9v11.81Z"/>
      <path d="m225.61,121.42c-.96,1.12-2.21,1.67-3.78,1.67-1.41,0-2.55-.4-3.4-1.22-.88-.85-1.33-2.05-1.33-3.56v-8.19h1.36v7.95c0,2.47,1.22,3.83,3.54,3.83s3.62-1.38,3.62-3.83v-7.95h1.36v12.82h-1.36v-1.52Zm-7.13-16.49h1.54v2.05h-1.54v-2.05Zm5.53,0h1.54v2.05h-1.54v-2.05Z"/>
      <path d="m236.48,111.15c-2.21,0-3.43,1.83-3.43,3.88v7.9h-1.36v-12.82h1.36v1.7c.74-1.2,2.23-1.86,3.75-1.86,1.25,0,2.15.29,3.08,1.22l-.98.98c-.77-.77-1.36-1.01-2.42-1.01Z"/>
      <path d="m11.09,144.18c0-2.47-1.22-3.83-3.54-3.83s-3.62,1.38-3.62,3.83v7.95h-1.36v-12.82h1.36v1.52c.96-1.12,2.21-1.67,3.78-1.67,1.41,0,2.55.4,3.4,1.22.88.85,1.33,2.05,1.33,3.56v8.19h-1.36v-7.95Z"/>
      <path d="m24.69,150.86c-1.09,1.09-2.1,1.44-3.91,1.44-1.92,0-2.95-.32-3.78-1.17-.61-.61-.93-1.54-.93-2.5,0-2.34,1.68-3.7,4.47-3.7h4.15v-1.44c0-2.05-.98-3.14-3.62-3.14-1.81,0-2.71.45-3.54,1.62l-.98-.85c1.09-1.52,2.42-1.97,4.52-1.97,3.4,0,4.97,1.52,4.97,4.2v8.78h-1.36v-1.28Zm-3.99-4.84c-2.18,0-3.27.85-3.27,2.58s1.01,2.5,3.35,2.5c1.17,0,2.26-.11,3.19-.98.48-.45.72-1.28.72-2.45v-1.65h-3.99Z"/>
      <path d="m35.69,152.29c-3.51,0-5.64-2.5-5.64-6.57s2.13-6.57,5.64-6.57c1.75,0,2.87.45,4.23,1.97l-.93.85c-1.09-1.22-1.94-1.62-3.3-1.62-1.46,0-2.63.56-3.4,1.7-.64.93-.88,1.94-.88,3.67s.24,2.74.88,3.67c.77,1.14,1.94,1.7,3.4,1.7,1.36,0,2.21-.43,3.3-1.62l.93.85c-1.36,1.52-2.47,1.97-4.23,1.97Z"/>
      <path d="m52.1,144.18c0-2.47-1.22-3.83-3.54-3.83s-3.62,1.38-3.62,3.83v7.95h-1.36v-18.94h1.36v7.63c.96-1.12,2.21-1.67,3.78-1.67,2.95,0,4.73,1.81,4.73,4.79v8.19h-1.36v-7.95Z"/>
      <path d="m66.6,144.18c0-2.47-1.22-3.83-3.54-3.83s-3.62,1.38-3.62,3.83v7.95h-1.36v-18.94h1.36v7.63c.96-1.12,2.21-1.67,3.78-1.67,2.95,0,4.73,1.81,4.73,4.79v8.19h-1.36v-7.95Z"/>
      <path d="m80.2,150.86c-1.09,1.09-2.1,1.44-3.91,1.44-1.92,0-2.95-.32-3.78-1.17-.61-.61-.93-1.54-.93-2.5,0-2.34,1.68-3.7,4.47-3.7h4.15v-1.44c0-2.05-.98-3.14-3.62-3.14-1.81,0-2.71.45-3.54,1.62l-.98-.85c1.09-1.52,2.42-1.97,4.52-1.97,3.4,0,4.97,1.52,4.97,4.2v8.78h-1.36v-1.28Zm-3.99-4.84c-2.18,0-3.27.85-3.27,2.58s1.01,2.5,3.35,2.5c1.17,0,2.26-.11,3.19-.98.48-.45.72-1.28.72-2.45v-1.65h-3.99Z"/>
      <path d="m86.15,148.81v-15.61h1.36v15.58c0,1.46.45,2.15,1.97,2.15h.93v1.2h-1.17c-2.1,0-3.08-1.3-3.08-3.32Z"/>
      <path d="m93.74,148.78v-8.46h-1.76v-1.01h1.76v-4.1h1.36v4.1h2.9v1.01h-2.9v8.48c0,1.36.61,2.13,1.97,2.13h.93v1.2h-1.17c-2.02,0-3.08-1.41-3.08-3.35Z"/>
      <path d="m101.51,133.2h1.68v1.68h-1.68v-1.68Zm.16,6.12h1.36v12.82h-1.36v-12.82Z"/>
      <path d="m111.85,158.41c-1.92,0-2.9-.5-4.23-1.7l.9-.9c1.01.93,1.7,1.41,3.33,1.41,2.69,0,3.88-1.89,3.88-4.44v-2.29c-1.14,1.49-2.34,1.81-3.8,1.81-1.36,0-2.47-.45-3.14-1.12-1.3-1.3-1.65-3.43-1.65-5.45s.35-4.15,1.65-5.45c.67-.66,1.78-1.12,3.14-1.12,1.46,0,2.66.32,3.8,1.81v-1.65h1.36v13.54c0,3.22-1.92,5.56-5.24,5.56Zm.27-18.06c-3.14,0-3.62,2.71-3.62,5.37s.48,5.37,3.62,5.37,3.62-2.71,3.62-5.37-.48-5.37-3.62-5.37Z"/>
      <path d="m126.72,151.07c1.52,0,2.45-.45,3.54-1.54l1.01.8c-1.3,1.3-2.5,1.97-4.63,1.97-3.54,0-5.45-2.29-5.45-6.57s1.92-6.57,5.13-6.57,5.13,2.31,5.13,6.25v.61h-8.91c0,3.27,1.44,5.05,4.18,5.05Zm2.93-8.56c-.56-1.36-1.83-2.15-3.33-2.15s-2.77.8-3.32,2.15c-.29.82-.37,1.17-.45,2.42h7.55c-.08-1.22-.11-1.65-.45-2.42Z"/>
      <path d="m147.41,151.07c1.52,0,2.45-.45,3.54-1.54l1.01.8c-1.3,1.3-2.5,1.97-4.63,1.97-3.54,0-5.45-2.29-5.45-6.57s1.92-6.57,5.13-6.57,5.13,2.31,5.13,6.25v.61h-8.91c0,3.27,1.44,5.05,4.18,5.05Zm2.93-8.56c-.56-1.36-1.83-2.15-3.33-2.15s-2.77.8-3.32,2.15c-.29.82-.37,1.17-.45,2.42h7.55c-.08-1.22-.11-1.65-.45-2.42Z"/>
      <path d="m164.66,144.18c0-2.47-1.22-3.83-3.54-3.83s-3.62,1.38-3.62,3.83v7.95h-1.36v-12.82h1.36v1.52c.96-1.12,2.21-1.67,3.78-1.67,1.41,0,2.55.4,3.4,1.22.88.85,1.33,2.05,1.33,3.56v8.19h-1.36v-7.95Z"/>
      <path d="m170.73,148.78v-8.46h-1.76v-1.01h1.76v-4.1h1.36v4.1h2.9v1.01h-2.9v8.48c0,1.36.61,2.13,1.97,2.13h.93v1.2h-1.17c-2.02,0-3.08-1.41-3.08-3.35Z"/>
      <path d="m190.3,152.13l-3.62-10.69-3.62,10.69h-1.38l-4.1-12.82h1.49l3.27,11.22,3.67-11.22h1.33l3.67,11.22,3.27-11.22h1.49l-4.1,12.82h-1.38Z"/>
      <path d="m198.79,133.2h1.68v1.68h-1.68v-1.68Zm.16,6.12h1.36v12.82h-1.36v-12.82Z"/>
      <path d="m209.97,152.29c-3.51,0-5.64-2.5-5.64-6.57s2.13-6.57,5.64-6.57c1.75,0,2.87.45,4.23,1.97l-.93.85c-1.09-1.22-1.94-1.62-3.3-1.62-1.46,0-2.63.56-3.4,1.7-.64.93-.88,1.94-.88,3.67s.24,2.74.88,3.67c.77,1.14,1.94,1.7,3.4,1.7,1.36,0,2.21-.43,3.3-1.62l.93.85c-1.36,1.52-2.47,1.97-4.23,1.97Z"/>
      <path d="m222.15,145.09l-2.92,3.38v3.67h-1.36v-18.94h1.36v13.35l6.36-7.23h1.73l-4.23,4.79,5.16,8.03h-1.68l-4.42-7.05Z"/>
      <path d="m231.23,148.81v-15.61h1.36v15.58c0,1.46.45,2.15,1.97,2.15h.93v1.2h-1.17c-2.1,0-3.08-1.3-3.08-3.32Z"/>
      <path d="m246.84,150.62c-.96,1.12-2.21,1.67-3.78,1.67-1.41,0-2.55-.4-3.4-1.22-.88-.85-1.33-2.05-1.33-3.56v-8.19h1.36v7.95c0,2.47,1.22,3.83,3.54,3.83s3.62-1.38,3.62-3.83v-7.95h1.36v12.82h-1.36v-1.52Z"/>
      <path d="m261.43,144.18c0-2.47-1.22-3.83-3.54-3.83s-3.62,1.38-3.62,3.83v7.95h-1.36v-12.82h1.36v1.52c.96-1.12,2.21-1.67,3.78-1.67,1.41,0,2.55.4,3.4,1.22.88.85,1.33,2.05,1.33,3.56v8.19h-1.36v-7.95Z"/>
      <path d="m271.52,158.41c-1.92,0-2.9-.5-4.23-1.7l.9-.9c1.01.93,1.7,1.41,3.33,1.41,2.69,0,3.88-1.89,3.88-4.44v-2.29c-1.14,1.49-2.34,1.81-3.8,1.81-1.36,0-2.47-.45-3.14-1.12-1.3-1.3-1.65-3.43-1.65-5.45s.35-4.15,1.65-5.45c.67-.66,1.78-1.12,3.14-1.12,1.46,0,2.66.32,3.8,1.81v-1.65h1.36v13.54c0,3.22-1.92,5.56-5.24,5.56Zm.27-18.06c-3.14,0-3.62,2.71-3.62,5.37s.48,5.37,3.62,5.37,3.62-2.71,3.62-5.37-.48-5.37-3.62-5.37Z"/>
    </g>
  </g>
</svg>