<?xml version="1.0" encoding="UTF-8"?><svg xmlns="http://www.w3.org/2000/svg" viewBox="0 0 620.9 120.46"><g id="architektur_1"><path d="M121.1,68.66c0,2.34-.36,3.88-1.39,4.83-1.68,1.61-3.36,1.83-6,1.83-3.73,0-5.49-1.76-5.49-4.39s1.9-4.32,5.34-4.32h7.53v2.05Zm9.51,14.05v-25.09c0-8.92-5.56-13.46-16.24-13.46-6.36,0-10.02,1.17-13.75,5.27l6.07,5.93c1.97-2.27,3.66-3.15,7.32-3.15,5.05,0,7.09,1.83,7.09,6v1.9h-9c-8.85,0-13.02,4.98-13.02,11.05,0,3.36,1.1,6.44,3.15,8.56,2.27,2.27,5.41,3.36,9.73,3.36s6.8-1.1,9.36-3.66v3.29h9.29Zm-48.42-19.09c0,6.22-.81,10.97-6.51,10.97s-6.43-4.75-6.43-10.97,.73-10.9,6.43-10.9,6.51,4.68,6.51,10.9m9.51,19.09V30.62h-9.51v17.34c-2.49-2.78-5.41-3.81-9.29-3.81s-7.17,1.32-9.29,3.44c-3.81,3.81-3.88,10.31-3.88,16.02s.07,12.29,3.88,16.09c2.12,2.12,5.63,3.44,9.36,3.44,4.03,0,6.8-1.1,9.44-4.02v3.58h9.29Zm-32.53,4.81h-22.67v2.15h22.67v-2.15Zm-27.78-4.81v-24.65c0-8.05-4.39-13.9-12.73-13.9-3.37,0-6.59,1.32-9.14,3.95V30.62H0v52.08H9.51v-23.26c0-4.98,3.15-6.73,6.14-6.73s6.22,1.68,6.22,6.73v23.26h9.51Z" fill="#1d1d1b"/><g><path d="M167.43,57.08v-7.97c0-1.97-1.15-2.84-2.61-2.84s-2.64,.9-2.64,2.84v7.97h-2.61v-18.24h2.61v6.56c.9-.97,2.08-1.46,3.36-1.46,2.89,0,4.51,1.95,4.51,4.77v8.38h-2.61Z" fill="#1d1d1b"/><path d="M182.56,55.69c-.84,.87-2.13,1.54-3.89,1.54s-3.02-.67-3.87-1.54c-1.23-1.28-1.54-2.92-1.54-5.12s.31-3.82,1.54-5.1c.85-.87,2.1-1.54,3.87-1.54s3.05,.67,3.89,1.54c1.23,1.28,1.54,2.92,1.54,5.1s-.31,3.84-1.54,5.12Zm-1.97-8.69c-.49-.49-1.15-.74-1.92-.74s-1.41,.26-1.9,.74c-.79,.79-.9,2.15-.9,3.56s.1,2.77,.9,3.56c.49,.49,1.13,.77,1.9,.77s1.43-.28,1.92-.77c.79-.79,.9-2.15,.9-3.56s-.1-2.77-.9-3.56Z" fill="#1d1d1b"/><path d="M192.65,57.23c-2.92,0-5.79-1.79-5.79-6.66s2.87-6.64,5.79-6.64c1.79,0,3.05,.51,4.28,1.82l-1.79,1.74c-.82-.9-1.46-1.23-2.49-1.23s-1.84,.41-2.41,1.15c-.56,.72-.77,1.64-.77,3.15s.21,2.46,.77,3.18c.56,.74,1.41,1.15,2.41,1.15s1.67-.33,2.49-1.23l1.79,1.72c-1.23,1.31-2.49,1.84-4.28,1.84Z" fill="#1d1d1b"/><path d="M207.63,57.08v-7.97c0-1.97-1.15-2.84-2.61-2.84s-2.64,.9-2.64,2.84v7.97h-2.61v-18.24h2.61v6.56c.9-.97,2.08-1.46,3.36-1.46,2.89,0,4.51,1.95,4.51,4.77v8.38h-2.61Z" fill="#1d1d1b"/><path d="M218.42,57.23c-2.13,0-3.92-.36-5.46-1.87l1.72-1.72c1.05,1.08,2.46,1.36,3.74,1.36,1.59,0,2.84-.56,2.84-1.79,0-.87-.49-1.43-1.74-1.54l-2.08-.18c-2.43-.21-3.84-1.31-3.84-3.59,0-2.54,2.18-3.97,4.89-3.97,1.95,0,3.61,.41,4.82,1.46l-1.64,1.67c-.82-.69-1.97-.95-3.2-.95-1.56,0-2.36,.69-2.36,1.67,0,.77,.41,1.36,1.79,1.49l2.05,.18c2.43,.21,3.87,1.36,3.87,3.66,0,2.72-2.31,4.12-5.41,4.12Z" fill="#1d1d1b"/><path d="M232.14,57.23c-2.92,0-5.79-1.79-5.79-6.66s2.87-6.64,5.79-6.64c1.79,0,3.05,.51,4.28,1.82l-1.79,1.74c-.82-.9-1.46-1.23-2.49-1.23s-1.84,.41-2.41,1.15c-.56,.72-.77,1.64-.77,3.15s.21,2.46,.77,3.18c.56,.74,1.41,1.15,2.41,1.15s1.67-.33,2.49-1.23l1.79,1.72c-1.23,1.31-2.49,1.84-4.28,1.84Z" fill="#1d1d1b"/><path d="M247.12,57.08v-7.97c0-1.97-1.15-2.84-2.61-2.84s-2.64,.9-2.64,2.84v7.97h-2.61v-18.24h2.61v6.56c.9-.97,2.08-1.46,3.36-1.46,2.89,0,4.51,1.95,4.51,4.77v8.38h-2.61Z" fill="#1d1d1b"/><path d="M261.34,57.08v-1.31c-.9,.97-2.15,1.46-3.46,1.46s-2.43-.44-3.2-1.18c-1-.97-1.31-2.2-1.31-3.66v-8.3h2.61v7.92c0,2.02,1.15,2.9,2.61,2.9s2.69-.9,2.69-2.9v-7.92h2.61v12.99h-2.56Z" fill="#1d1d1b"/><path d="M271.27,57.08c-2.49,0-3.56-1.67-3.56-3.59v-14.65h2.61v14.5c0,1,.36,1.51,1.41,1.51h1.15v2.23h-1.61Z" fill="#1d1d1b"/><path d="M277.47,51.34c0,2.23,1.18,3.64,3.3,3.64,1.46,0,2.23-.41,3.15-1.33l1.67,1.56c-1.33,1.33-2.59,2.02-4.87,2.02-3.25,0-5.84-1.72-5.84-6.66,0-4.2,2.18-6.64,5.51-6.64s5.51,2.56,5.51,6.25v1.15h-8.43Zm5.48-3.59c-.41-.97-1.33-1.64-2.56-1.64s-2.18,.67-2.59,1.64c-.26,.59-.31,.97-.33,1.77h5.84c-.03-.79-.1-1.18-.36-1.77Z" fill="#1d1d1b"/><path d="M302.96,57.08v-1.38c-.97,1.18-2.02,1.54-3.43,1.54-1.31,0-2.46-.44-3.18-1.15-1.31-1.31-1.46-3.54-1.46-5.51s.15-4.18,1.46-5.48c.72-.72,1.84-1.15,3.15-1.15,1.38,0,2.46,.33,3.41,1.46v-6.56h2.61v18.24h-2.56Zm-2.74-10.81c-2.36,0-2.72,2-2.72,4.3s.36,4.33,2.72,4.33,2.69-2.02,2.69-4.33-.33-4.3-2.69-4.3Z" fill="#1d1d1b"/><path d="M316.5,57.08v-1.18c-.95,.95-1.84,1.33-3.46,1.33s-2.69-.38-3.48-1.18c-.67-.69-1.02-1.69-1.02-2.79,0-2.18,1.51-3.74,4.48-3.74h3.43v-.92c0-1.64-.82-2.43-2.84-2.43-1.43,0-2.13,.33-2.84,1.26l-1.72-1.61c1.23-1.43,2.51-1.87,4.66-1.87,3.56,0,5.35,1.51,5.35,4.46v8.69h-2.56Zm-.05-5.74h-3.05c-1.54,0-2.33,.69-2.33,1.87s.74,1.84,2.38,1.84c1,0,1.74-.08,2.43-.74,.38-.38,.56-1,.56-1.92v-1.05Z" fill="#1d1d1b"/><path d="M329.98,47.14c-.59-.59-1.05-.87-1.95-.87-1.41,0-2.59,1.13-2.59,2.92v7.89h-2.61v-12.99h2.56v1.41c.67-.92,2-1.56,3.46-1.56,1.26,0,2.2,.33,3.1,1.23l-1.97,1.97Z" fill="#1d1d1b"/><path d="M350.19,57.08v-7.92c0-2.02-1.15-2.9-2.61-2.9s-2.69,.9-2.69,2.77v8.04h-2.61v-7.92c0-2.02-1.15-2.9-2.61-2.9s-2.69,.9-2.69,2.9v7.92h-2.61v-12.99h2.56v1.31c.87-.95,2.15-1.46,3.46-1.46,1.61,0,2.87,.64,3.69,1.9,1.05-1.28,2.36-1.9,4.07-1.9,1.33,0,2.51,.44,3.28,1.18,1,.97,1.38,2.2,1.38,3.66v8.3h-2.61Z" fill="#1d1d1b"/><path d="M361,57.23c-2.13,0-3.92-.36-5.46-1.87l1.72-1.72c1.05,1.08,2.46,1.36,3.74,1.36,1.59,0,2.84-.56,2.84-1.79,0-.87-.49-1.43-1.74-1.54l-2.07-.18c-2.43-.21-3.84-1.31-3.84-3.59,0-2.54,2.18-3.97,4.89-3.97,1.95,0,3.61,.41,4.82,1.46l-1.64,1.67c-.82-.69-1.97-.95-3.2-.95-1.56,0-2.36,.69-2.36,1.67,0,.77,.41,1.36,1.79,1.49l2.05,.18c2.43,.21,3.87,1.36,3.87,3.66,0,2.72-2.31,4.12-5.41,4.12Z" fill="#1d1d1b"/><path d="M373.53,57.08c-2.43,0-3.56-1.74-3.56-3.61v-7.15h-1.49v-2h1.49v-3.95h2.61v3.95h2.51v2h-2.51v7.02c0,.95,.46,1.51,1.43,1.51h1.08v2.23h-1.56Z" fill="#1d1d1b"/><path d="M385.48,57.08v-1.18c-.95,.95-1.84,1.33-3.46,1.33s-2.69-.38-3.48-1.18c-.67-.69-1.02-1.69-1.02-2.79,0-2.18,1.51-3.74,4.48-3.74h3.43v-.92c0-1.64-.82-2.43-2.84-2.43-1.43,0-2.13,.33-2.84,1.26l-1.72-1.61c1.23-1.43,2.51-1.87,4.66-1.87,3.56,0,5.35,1.51,5.35,4.46v8.69h-2.56Zm-.05-5.74h-3.05c-1.54,0-2.33,.69-2.33,1.87s.74,1.84,2.38,1.84c1,0,1.74-.08,2.43-.74,.38-.38,.56-1,.56-1.92v-1.05Z" fill="#1d1d1b"/><path d="M399.39,57.08v-1.38c-.97,1.18-2.02,1.54-3.43,1.54-1.31,0-2.46-.44-3.18-1.15-1.31-1.31-1.46-3.54-1.46-5.51s.15-4.18,1.46-5.48c.72-.72,1.84-1.15,3.15-1.15,1.38,0,2.46,.33,3.41,1.46v-6.56h2.61v18.24h-2.56Zm-2.74-10.81c-2.36,0-2.72,2-2.72,4.3s.36,4.33,2.72,4.33,2.69-2.02,2.69-4.33-.33-4.3-2.69-4.3Z" fill="#1d1d1b"/><path d="M409.81,57.08c-2.43,0-3.56-1.74-3.56-3.61v-7.15h-1.49v-2h1.49v-3.95h2.61v3.95h2.51v2h-2.51v7.02c0,.95,.46,1.51,1.43,1.51h1.08v2.23h-1.56Z" fill="#1d1d1b"/><path d="M161.67,82.7h-1.31v-11.38h-1.69v-.97h1.69v-2.66c0-1.87,1.03-3.23,2.97-3.23h1.13v1.15h-.9c-1.31,0-1.9,.74-1.9,2.05v2.69h2.79v.97h-2.79v11.38Z" fill="#1d1d1b"/><path d="M175.14,81.47c-1.05,1.05-2.02,1.38-3.77,1.38-1.84,0-2.84-.31-3.64-1.13-.59-.59-.9-1.49-.9-2.41,0-2.25,1.61-3.56,4.3-3.56h4v-1.38c0-1.97-.95-3.02-3.48-3.02-1.74,0-2.61,.44-3.41,1.56l-.95-.82c1.05-1.46,2.33-1.9,4.36-1.9,3.28,0,4.79,1.46,4.79,4.05v8.45h-1.31v-1.23Zm-3.84-4.66c-2.1,0-3.15,.82-3.15,2.49s.97,2.41,3.23,2.41c1.13,0,2.18-.1,3.07-.95,.46-.44,.69-1.23,.69-2.36v-1.59h-3.84Z" fill="#1d1d1b"/><path d="M185.75,82.85c-3.38,0-5.43-2.41-5.43-6.33s2.05-6.33,5.43-6.33c1.69,0,2.77,.44,4.07,1.9l-.9,.82c-1.05-1.18-1.87-1.56-3.18-1.56-1.41,0-2.54,.54-3.28,1.64-.62,.9-.85,1.87-.85,3.54s.23,2.64,.85,3.54c.74,1.1,1.87,1.64,3.28,1.64,1.31,0,2.13-.41,3.18-1.56l.9,.82c-1.31,1.46-2.38,1.9-4.07,1.9Z" fill="#1d1d1b"/><path d="M201.56,75.04c0-2.38-1.18-3.69-3.41-3.69s-3.48,1.33-3.48,3.69v7.66h-1.31v-18.24h1.31v7.35c.92-1.08,2.13-1.61,3.64-1.61,2.84,0,4.56,1.74,4.56,4.61v7.89h-1.31v-7.66Z" fill="#1d1d1b"/><path d="M215.34,81.77c-.64,.64-1.72,1.08-3.02,1.08-1.41,0-2.56-.31-3.66-1.74v1.59h-1.31v-18.24h1.31v7.48c1.1-1.43,2.25-1.74,3.66-1.74,1.31,0,2.38,.44,3.02,1.08,1.25,1.26,1.59,3.3,1.59,5.25s-.33,4-1.59,5.25Zm-3.2-10.43c-3.02,0-3.48,2.61-3.48,5.18s.46,5.18,3.48,5.18,3.48-2.61,3.48-5.18-.46-5.18-3.48-5.18Z" fill="#1d1d1b"/><path d="M225.64,81.67c1.46,0,2.36-.44,3.41-1.49l.97,.77c-1.25,1.26-2.41,1.9-4.46,1.9-3.41,0-5.25-2.2-5.25-6.33s1.84-6.33,4.94-6.33,4.95,2.23,4.95,6.02v.59h-8.58c0,3.15,1.38,4.87,4.02,4.87Zm2.82-8.25c-.54-1.31-1.77-2.08-3.2-2.08s-2.66,.77-3.2,2.08c-.28,.79-.36,1.13-.44,2.33h7.28c-.08-1.18-.1-1.59-.44-2.33Z" fill="#1d1d1b"/><path d="M238.68,71.35c-2.13,0-3.3,1.77-3.3,3.74v7.61h-1.31v-12.35h1.31v1.64c.72-1.15,2.15-1.79,3.61-1.79,1.2,0,2.08,.28,2.97,1.18l-.95,.95c-.74-.74-1.31-.97-2.33-.97Z" fill="#1d1d1b"/><path d="M249.18,81.67c1.46,0,2.36-.44,3.41-1.49l.97,.77c-1.25,1.26-2.41,1.9-4.46,1.9-3.41,0-5.25-2.2-5.25-6.33s1.84-6.33,4.94-6.33,4.95,2.23,4.95,6.02v.59h-8.58c0,3.15,1.38,4.87,4.02,4.87Zm2.82-8.25c-.54-1.31-1.77-2.08-3.2-2.08s-2.66,.77-3.2,2.08c-.28,.79-.36,1.13-.44,2.33h7.28c-.08-1.18-.1-1.59-.44-2.33Z" fill="#1d1d1b"/><path d="M257.44,64.46h1.61v1.61h-1.61v-1.61Zm.15,5.89h1.31v12.35h-1.31v-12.35Z" fill="#1d1d1b"/><path d="M268.22,82.85c-3.38,0-5.43-2.41-5.43-6.33s2.05-6.33,5.43-6.33c1.69,0,2.77,.44,4.07,1.9l-.9,.82c-1.05-1.18-1.87-1.56-3.18-1.56-1.41,0-2.54,.54-3.28,1.64-.62,.9-.85,1.87-.85,3.54s.23,2.64,.85,3.54c.74,1.1,1.87,1.64,3.28,1.64,1.31,0,2.13-.41,3.18-1.56l.9,.82c-1.31,1.46-2.38,1.9-4.07,1.9Z" fill="#1d1d1b"/><path d="M284.04,75.04c0-2.38-1.18-3.69-3.41-3.69s-3.48,1.33-3.48,3.69v7.66h-1.31v-18.24h1.31v7.35c.92-1.08,2.13-1.61,3.64-1.61,2.84,0,4.56,1.74,4.56,4.61v7.89h-1.31v-7.66Z" fill="#1d1d1b"/><path d="M303.95,81.47c-1.05,1.05-2.02,1.38-3.77,1.38-1.84,0-2.84-.31-3.64-1.13-.59-.59-.9-1.49-.9-2.41,0-2.25,1.61-3.56,4.3-3.56h4v-1.38c0-1.97-.95-3.02-3.48-3.02-1.74,0-2.61,.44-3.41,1.56l-.95-.82c1.05-1.46,2.33-1.9,4.36-1.9,3.28,0,4.79,1.46,4.79,4.05v8.45h-1.31v-1.23Zm-3.84-4.66c-2.1,0-3.15,.82-3.15,2.49s.97,2.41,3.23,2.41c1.13,0,2.18-.1,3.07-.95,.46-.44,.69-1.23,.69-2.36v-1.59h-3.84Z" fill="#1d1d1b"/><path d="M314.37,71.35c-2.13,0-3.3,1.77-3.3,3.74v7.61h-1.31v-12.35h1.31v1.64c.72-1.15,2.15-1.79,3.61-1.79,1.2,0,2.08,.28,2.97,1.18l-.95,.95c-.74-.74-1.31-.97-2.33-.97Z" fill="#1d1d1b"/><path d="M324.89,82.85c-3.38,0-5.43-2.41-5.43-6.33s2.05-6.33,5.43-6.33c1.69,0,2.77,.44,4.07,1.9l-.9,.82c-1.05-1.18-1.87-1.56-3.18-1.56-1.41,0-2.54,.54-3.28,1.64-.62,.9-.85,1.87-.85,3.54s.23,2.64,.85,3.54c.74,1.1,1.87,1.64,3.28,1.64,1.31,0,2.13-.41,3.18-1.56l.9,.82c-1.31,1.46-2.38,1.9-4.07,1.9Z" fill="#1d1d1b"/><path d="M340.7,75.04c0-2.38-1.18-3.69-3.41-3.69s-3.48,1.33-3.48,3.69v7.66h-1.31v-18.24h1.31v7.35c.92-1.08,2.13-1.61,3.64-1.61,2.84,0,4.56,1.74,4.56,4.61v7.89h-1.31v-7.66Z" fill="#1d1d1b"/><path d="M346.29,64.46h1.61v1.61h-1.61v-1.61Zm.15,5.89h1.31v12.35h-1.31v-12.35Z" fill="#1d1d1b"/><path d="M352.84,79.47v-8.15h-1.69v-.97h1.69v-3.95h1.31v3.95h2.79v.97h-2.79v8.17c0,1.31,.59,2.05,1.9,2.05h.9v1.15h-1.13c-1.95,0-2.97-1.36-2.97-3.23Z" fill="#1d1d1b"/><path d="M364.8,81.67c1.46,0,2.36-.44,3.41-1.49l.97,.77c-1.25,1.26-2.41,1.9-4.46,1.9-3.41,0-5.25-2.2-5.25-6.33s1.84-6.33,4.94-6.33,4.95,2.23,4.95,6.02v.59h-8.58c0,3.15,1.38,4.87,4.02,4.87Zm2.82-8.25c-.54-1.31-1.77-2.08-3.2-2.08s-2.66,.77-3.2,2.08c-.28,.79-.36,1.13-.44,2.33h7.28c-.08-1.18-.1-1.59-.44-2.33Z" fill="#1d1d1b"/><path d="M377.35,75.91l-2.82,3.25v3.54h-1.31v-18.24h1.31v12.86l6.12-6.97h1.67l-4.07,4.61,4.97,7.74h-1.61l-4.25-6.79Z" fill="#1d1d1b"/><path d="M387.16,79.47v-8.15h-1.69v-.97h1.69v-3.95h1.31v3.95h2.79v.97h-2.79v8.17c0,1.31,.59,2.05,1.9,2.05h.9v1.15h-1.13c-1.95,0-2.97-1.36-2.97-3.23Z" fill="#1d1d1b"/><path d="M402.93,81.24c-.92,1.08-2.13,1.61-3.64,1.61-1.36,0-2.46-.38-3.28-1.18-.85-.82-1.28-1.97-1.28-3.43v-7.89h1.31v7.66c0,2.38,1.18,3.69,3.41,3.69s3.48-1.33,3.48-3.69v-7.66h1.31v12.35h-1.31v-1.46Z" fill="#1d1d1b"/><path d="M413.42,71.35c-2.13,0-3.3,1.77-3.3,3.74v7.61h-1.31v-12.35h1.31v1.64c.72-1.15,2.15-1.79,3.61-1.79,1.2,0,2.08,.28,2.97,1.18l-.95,.95c-.74-.74-1.31-.97-2.33-.97Z" fill="#1d1d1b"/></g></g><g id="eut_V1"><g><polygon points="436.2 120.24 437.01 120.46 469.26 .22 468.44 0 436.2 120.24" fill="#1d1d1b"/><path d="M527.06,23.49c0-.97,.55-1.47,1.38-1.47s1.36,.49,1.36,1.47v3.41h.81v-3.5c0-.88,.57-1.38,1.38-1.38s1.36,.49,1.36,1.47v3.41h.81v-3.54c0-.64-.2-1.16-.59-1.54-.34-.33-.83-.52-1.43-.52-.78,0-1.39,.31-1.82,.92-.34-.61-.93-.92-1.7-.92-.62,0-1.17,.22-1.56,.67v-.61h-.81v5.53h.81v-3.41Z" fill="#1d1d1b"/><path d="M538.74,26.97c.95,0,1.46-.29,2.02-.86l-.55-.48c-.44,.44-.81,.63-1.45,.63-1.06,0-1.63-.7-1.63-1.91h3.73v-.37c0-1.64-.84-2.68-2.27-2.68s-2.27,1.05-2.27,2.83c0,1.96,.96,2.83,2.42,2.83Zm-1.44-4.15c.21-.51,.71-.83,1.29-.83s1.08,.33,1.29,.83c.12,.3,.15,.47,.17,.92h-2.92c.02-.45,.04-.62,.17-.92Z" fill="#1d1d1b"/><path d="M543.85,23.49c0-.97,.55-1.47,1.38-1.47s1.36,.49,1.36,1.47v3.41h.81v-3.5c0-.88,.57-1.38,1.38-1.38s1.36,.49,1.36,1.47v3.41h.81v-3.54c0-.64-.2-1.16-.6-1.54-.34-.33-.83-.52-1.43-.52-.78,0-1.39,.31-1.82,.92-.34-.61-.93-.92-1.7-.92-.62,0-1.17,.22-1.56,.67v-.61h-.81v5.53h.81v-3.41Z" fill="#1d1d1b"/><path d="M554.19,26.24c.45,.59,.95,.73,1.56,.73,.56,0,1.06-.19,1.35-.48,.56-.56,.67-1.48,.67-2.35s-.11-1.79-.67-2.35c-.29-.29-.79-.48-1.35-.48-.61,0-1.11,.13-1.56,.71v-3.11h-.81v8.01h.81v-.66Zm1.39-4.21c1.2,0,1.38,1.03,1.38,2.11s-.18,2.11-1.38,2.11-1.39-1.04-1.39-2.11,.19-2.11,1.39-2.11Z" fill="#1d1d1b"/><path d="M562.17,26.97c.94,0,1.46-.29,2.02-.86l-.55-.48c-.44,.44-.81,.63-1.45,.63-1.06,0-1.63-.7-1.63-1.91h3.73v-.37c0-1.64-.84-2.68-2.27-2.68s-2.27,1.05-2.27,2.83c0,1.96,.96,2.83,2.42,2.83Zm-1.44-4.15c.21-.51,.71-.83,1.29-.83s1.08,.33,1.29,.83c.12,.3,.15,.47,.17,.92h-2.92c.02-.45,.04-.62,.17-.92Z" fill="#1d1d1b"/><path d="M567.28,23.5c0-.84,.52-1.48,1.33-1.48,.43,0,.65,.1,.96,.4l.6-.61c-.39-.39-.8-.52-1.33-.52-.64,0-1.25,.28-1.55,.74v-.67h-.81v5.53h.81v-3.4Z" fill="#1d1d1b"/><path d="M575.97,26.97c.67,0,1.2-.25,1.58-.63,.56-.57,.68-1.35,.68-2.21s-.11-1.63-.68-2.2c-.38-.38-.91-.63-1.58-.63s-1.2,.25-1.59,.63c-.56,.57-.67,1.35-.67,2.2s.11,1.63,.67,2.21c.38,.38,.91,.63,1.59,.63Zm-1-4.54c.26-.26,.61-.4,1-.4s.75,.15,1.01,.4c.41,.41,.44,1.09,.44,1.71s-.03,1.31-.44,1.71c-.26,.26-.62,.41-1.01,.41s-.74-.15-1-.41c-.41-.4-.45-1.09-.45-1.71s.05-1.3,.45-1.71Z" fill="#1d1d1b"/><path d="M580.54,26.9h.81v-4.88h1.18v-.62h-1.18v-1.02c0-.51,.22-.81,.74-.81h.44v-.7h-.58c-.95,0-1.41,.66-1.41,1.48v1.05h-.71v.62h.71v4.88Z" fill="#1d1d1b"/><path d="M513.21,93.28c.25-.29,.37-.66,.37-1.09,0-1.21-.77-1.82-2.3-1.82h-1.65v6.28h.99v-2.58h.64l1.49,2.58h1.16l-1.68-2.73c.41-.13,.73-.34,.98-.64Zm-2.59,0v-2.14h.71c.41,0,.72,.08,.91,.24,.2,.16,.29,.43,.29,.79,0,.38-.1,.66-.3,.84-.2,.18-.5,.26-.88,.26h-.74Z" fill="#1d1d1b"/><path d="M586.02,93.28c.24-.29,.37-.66,.37-1.09,0-1.21-.77-1.82-2.31-1.82h-1.64v6.28h.99v-2.58h.64l1.49,2.58h1.16l-1.68-2.73c.41-.13,.73-.34,.98-.64Zm-2.59,0v-2.14h.71c.41,0,.72,.08,.91,.24,.2,.17,.3,.43,.3,.79s-.1,.66-.3,.84c-.2,.17-.49,.26-.88,.26h-.74Z" fill="#1d1d1b"/><path d="M577.92,101.09c-.72,0-1.28,.3-1.67,.89-.39,.59-.58,1.39-.58,2.38s.19,1.8,.58,2.38c.39,.58,.94,.87,1.67,.87s1.28-.29,1.67-.88c.39-.59,.58-1.38,.58-2.38s-.19-1.8-.58-2.39c-.38-.58-.94-.88-1.67-.88Zm.93,5.1c-.19,.4-.51,.6-.93,.6s-.73-.2-.93-.6c-.2-.4-.29-1.01-.29-1.83s.1-1.45,.29-1.85c.19-.4,.51-.6,.93-.6s.74,.2,.93,.6c.2,.4,.29,1.01,.29,1.84s-.1,1.44-.29,1.84Z" fill="#1d1d1b"/><path d="M518.04,101.09c-.73,0-1.28,.3-1.67,.89-.39,.59-.58,1.39-.58,2.38s.19,1.8,.58,2.38c.38,.58,.94,.87,1.67,.87s1.28-.29,1.67-.88c.39-.59,.58-1.38,.58-2.37s-.19-1.8-.58-2.39c-.38-.59-.94-.88-1.67-.88Zm.93,5.1c-.19,.4-.5,.6-.93,.6s-.73-.2-.93-.6-.29-1.01-.29-1.83,.1-1.45,.29-1.84c.19-.4,.5-.6,.93-.6s.74,.2,.93,.6c.19,.4,.29,1.01,.29,1.84s-.1,1.44-.29,1.84Z" fill="#1d1d1b"/><path d="M517.9,96.77c.73,0,1.28-.29,1.67-.88,.38-.59,.58-1.38,.58-2.37s-.19-1.8-.58-2.39c-.39-.59-.94-.88-1.67-.88s-1.28,.3-1.67,.89-.58,1.39-.58,2.38,.19,1.8,.58,2.38c.39,.58,.94,.87,1.67,.87Zm-.93-5.09c.19-.4,.5-.6,.93-.6s.74,.2,.93,.6c.2,.4,.29,1.01,.29,1.84s-.1,1.44-.29,1.84c-.19,.4-.5,.6-.93,.6s-.73-.2-.93-.6c-.2-.4-.3-1.01-.3-1.83s.1-1.45,.29-1.85Z" fill="#1d1d1b"/><path d="M584.44,104.8h1v1.73c-.29,.18-.61,.26-.98,.26-.48,0-.83-.19-1.07-.58-.23-.38-.35-1.01-.35-1.87s.15-1.45,.44-1.84c.29-.39,.67-.59,1.13-.59,.23,0,.44,.04,.62,.12,.19,.08,.37,.21,.55,.39l.56-.61c-.25-.25-.5-.43-.78-.55-.27-.12-.6-.18-.98-.18-.47,0-.91,.13-1.3,.37-.39,.25-.7,.62-.93,1.11-.23,.49-.35,1.08-.35,1.77,0,1.06,.21,1.88,.63,2.43,.42,.56,1.01,.83,1.78,.83,.39,0,.74-.05,1.06-.15,.32-.1,.63-.24,.93-.42v-3.05h-2.07l.1,.81Z" fill="#1d1d1b"/><path d="M506.09,94.39c0,.52-.08,.91-.25,1.16-.17,.25-.44,.38-.8,.38s-.62-.12-.79-.38c-.17-.25-.25-.64-.25-1.16v-4.02h-.99v4.22c0,.66,.18,1.19,.54,1.58,.35,.39,.86,.59,1.5,.59,.43,0,.8-.09,1.11-.28,.31-.18,.54-.44,.71-.77,.16-.33,.24-.7,.24-1.13v-4.22h-1v4.02Z" fill="#1d1d1b"/><polygon points="600.57 91.23 602.35 91.23 602.35 96.65 603.35 96.65 603.35 91.23 605.05 91.23 605.15 90.37 600.57 90.37 600.57 91.23" fill="#1d1d1b"/><polygon points="609.3 93.35 607.9 90.37 606.81 90.37 608.79 94.26 608.79 96.65 609.78 96.65 609.78 94.25 611.76 90.37 610.72 90.37 609.3 93.35" fill="#1d1d1b"/><polygon points="498.01 93.85 500.15 93.85 500.15 93.06 498.01 93.06 498.01 91.17 500.46 91.17 500.57 90.37 497.02 90.37 497.02 96.65 500.63 96.65 500.63 95.85 498.01 95.85 498.01 93.85" fill="#1d1d1b"/><polygon points="590.52 104.19 589.13 101.22 588.03 101.22 590.01 105.1 590.01 107.49 591 107.49 591 105.09 592.98 101.22 591.94 101.22 590.52 104.19" fill="#1d1d1b"/><polygon points="595 91.17 596.29 91.17 596.29 95.84 595 95.84 595 96.65 598.57 96.65 598.57 95.84 597.28 95.84 597.28 91.17 598.57 91.17 598.57 90.37 595 90.37 595 91.17" fill="#1d1d1b"/><path d="M545.1,90.37h-.88v2.86c0,.49,.01,.91,.04,1.27,.03,.36,.06,.76,.1,1.21l-1.89-5.34h-1.29v6.27h.88v-2.85c0-.67-.05-1.5-.14-2.49l1.89,5.34h1.29v-6.27Z" fill="#1d1d1b"/><polygon points="522.63 107.49 523.63 107.49 523.63 104.82 525.85 104.82 525.85 104.02 523.63 104.02 523.63 102.02 526.16 102.02 526.27 101.22 522.63 101.22 522.63 107.49" fill="#1d1d1b"/><polygon points="579.7 91.17 579.81 90.37 576.25 90.37 576.25 96.65 579.86 96.65 579.86 95.85 577.25 95.85 577.25 93.85 579.39 93.85 579.39 93.06 577.25 93.06 577.25 91.17 579.7 91.17" fill="#1d1d1b"/><polygon points="567.14 91.17 567.14 90.37 563.57 90.37 563.57 91.17 564.86 91.17 564.86 95.84 563.57 95.84 563.57 96.65 567.14 96.65 567.14 95.84 565.85 95.84 565.85 91.17 567.14 91.17" fill="#1d1d1b"/><path d="M565.8,101.09c-.72,0-1.28,.3-1.67,.89-.39,.59-.58,1.39-.58,2.38s.19,1.8,.58,2.38c.38,.58,.94,.87,1.67,.87s1.28-.29,1.67-.88c.39-.59,.58-1.38,.58-2.38s-.19-1.8-.58-2.39c-.39-.58-.94-.88-1.67-.88Zm.93,5.1c-.19,.4-.51,.6-.93,.6s-.73-.2-.93-.6c-.2-.4-.29-1.01-.29-1.83s.1-1.45,.29-1.85c.19-.4,.51-.6,.93-.6s.74,.2,.93,.6c.19,.4,.29,1.01,.29,1.84s-.1,1.44-.29,1.84Z" fill="#1d1d1b"/><polygon points="553.9 103.77 551.96 103.77 551.96 101.22 550.97 101.22 550.97 107.49 551.96 107.49 551.96 104.64 553.9 104.64 553.9 107.49 554.9 107.49 554.9 101.22 553.9 101.22 553.9 103.77" fill="#1d1d1b"/><path d="M547.63,106.61c-.2,.09-.45,.14-.73,.14-.5,0-.89-.2-1.19-.59-.3-.39-.45-1-.45-1.82s.15-1.45,.45-1.84c.3-.39,.69-.59,1.17-.59s.87,.15,1.23,.46l.51-.65c-.25-.22-.51-.38-.79-.48-.27-.1-.6-.15-.99-.15-.49,0-.93,.13-1.33,.38-.4,.26-.72,.63-.95,1.12-.23,.49-.35,1.08-.35,1.76s.11,1.28,.34,1.77c.23,.49,.54,.86,.94,1.11,.4,.25,.85,.38,1.36,.38,.75,0,1.37-.25,1.85-.74l-.48-.65c-.2,.17-.4,.3-.6,.4Z" fill="#1d1d1b"/><path d="M558.2,93.8c0-.67-.05-1.5-.14-2.49l1.88,5.34h1.29v-6.27h-.88v2.86c0,.49,.01,.91,.04,1.27,.03,.36,.06,.76,.1,1.21l-1.89-5.34h-1.29v6.27h.88v-2.85Z" fill="#1d1d1b"/><path d="M553.9,94.39c0,.52-.08,.91-.25,1.16-.17,.25-.44,.38-.8,.38s-.62-.12-.79-.38c-.17-.25-.25-.64-.25-1.16v-4.02h-.99v4.22c0,.66,.18,1.19,.53,1.58,.36,.39,.86,.59,1.5,.59,.43,0,.8-.09,1.11-.28,.31-.18,.54-.44,.71-.77,.16-.33,.25-.7,.25-1.13v-4.22h-1v4.02Z" fill="#1d1d1b"/><path d="M590.58,95.94c-.64,0-1.18-.22-1.63-.65l-.55,.64c.54,.56,1.26,.84,2.18,.84,.47,0,.87-.08,1.21-.24,.34-.16,.6-.38,.78-.66,.18-.29,.27-.62,.27-.99,0-.55-.15-.96-.45-1.24-.3-.29-.73-.52-1.3-.7-.36-.11-.64-.22-.84-.31-.2-.09-.34-.2-.42-.31-.08-.11-.12-.26-.12-.42,0-.26,.1-.46,.29-.6,.2-.14,.46-.21,.78-.21,.53,0,.99,.19,1.4,.56l.52-.63c-.53-.5-1.19-.76-1.98-.76-.39,0-.74,.07-1.05,.22-.31,.14-.55,.34-.72,.6-.18,.26-.26,.55-.26,.89,0,.47,.15,.84,.46,1.13,.31,.28,.79,.53,1.45,.74,.32,.1,.57,.2,.74,.3,.17,.1,.29,.22,.36,.34,.07,.13,.11,.29,.11,.47,0,.32-.12,.57-.35,.75-.23,.18-.52,.26-.88,.26Z" fill="#1d1d1b"/><polygon points="532.03 102.07 533.81 102.07 533.81 107.49 534.81 107.49 534.81 102.07 536.51 102.07 536.61 101.22 532.03 101.22 532.03 102.07" fill="#1d1d1b"/><polygon points="571.5 101.22 570.52 101.22 570.52 107.49 574.05 107.49 574.16 106.61 571.5 106.61 571.5 101.22" fill="#1d1d1b"/><path d="M560.48,104.07c0,.48,.01,.91,.04,1.27,.03,.36,.06,.77,.1,1.21l-1.89-5.34h-1.29v6.27h.88v-2.85c0-.67-.05-1.5-.14-2.49l1.88,5.34h1.29v-6.27h-.88v2.85Z" fill="#1d1d1b"/><polygon points="532.13 91.17 532.24 90.37 528.69 90.37 528.69 96.65 532.29 96.65 532.29 95.85 529.68 95.85 529.68 93.85 531.82 93.85 531.82 93.06 529.68 93.06 529.68 91.17 532.13 91.17" fill="#1d1d1b"/><polygon points="571.8 95.65 570.4 90.37 569.34 90.37 571.22 96.65 572.35 96.65 574.22 90.37 573.21 90.37 571.8 95.65" fill="#1d1d1b"/><polygon points="539.66 104.7 541.81 104.7 541.81 103.91 539.66 103.91 539.66 102.02 542.12 102.02 542.23 101.22 538.67 101.22 538.67 107.49 542.28 107.49 542.28 106.69 539.66 106.69 539.66 104.7" fill="#1d1d1b"/><path d="M537.33,90.37h-1.23l-1.88,6.27h1.02l.41-1.51h2.11l.41,1.51h1.05l-1.89-6.27Zm-1.48,3.95l.85-3.13,.85,3.13h-1.7Z" fill="#1d1d1b"/><path d="M524.21,90.37h-1.64v6.27h.99v-2.24h.72c.71,0,1.28-.17,1.69-.5,.41-.34,.62-.86,.62-1.56,0-.66-.21-1.15-.62-1.48-.41-.33-1-.5-1.76-.5Zm1.01,2.95c-.22,.2-.53,.29-.93,.29h-.73v-2.45h.72c.85,0,1.27,.4,1.27,1.18,0,.45-.11,.78-.33,.97Z" fill="#1d1d1b"/><polygon points="613.38 62.21 613.38 54.57 608.44 54.57 608.44 62.21 600.91 62.21 600.91 67.23 608.44 67.23 608.44 74.86 613.38 74.86 613.38 67.23 620.9 67.23 620.9 62.21 613.38 62.21" fill="#1d1d1b"/><rect x="584.75" y="54.57" width="4.94" height="28.05" fill="#1d1d1b"/><path d="M573.53,82.62V49.05h27.38v-5.01h-32.28l-.03,33.57h-8.83c-5.12,0-8.83-3.36-8.83-7.98v-25.59h-4.94v16.22c-.07,9.73-7.44,17.35-16.77,17.35-7.74,0-13.53-3.87-15.6-10.38h11.67c8.85,0,13.47-6.3,13.47-12.52,0-5.89-4.5-11.85-13.1-11.85-9.65,0-17.79,8.67-17.79,18.92,0,.14,0,.29,0,.43h-19.99v5.01h20.62c2.24,9.37,10.33,15.39,20.72,15.39,6.93,0,13.37-3.32,17.41-8.93,1.76,5.38,6.9,8.93,13.13,8.93h13.77Zm-60.73-20.41c0-.14,0-.29,0-.43,0-7.41,6.01-13.91,12.86-13.91,6.46,0,8.16,4.48,8.16,6.84,0,5.16-4.42,7.5-8.54,7.5h-12.48Z" fill="#1d1d1b"/></g></g></svg>