<?xml version="1.0" encoding="UTF-8"?>
<svg id="Ebene_1" data-name="Ebene 1" xmlns="http://www.w3.org/2000/svg" version="1.1" viewBox="0 0 471.4 156.8">
  <defs>
    <style>
      .cls-1 {
        fill: #1d1d1b;
      }

      .cls-1, .cls-2 {
        stroke-width: 0px;
      }

      .cls-2 {
        fill: #000;
      }
    </style>
  </defs>
  <g id="bau-_und_umweltingenieurwesen_2" data-name="bau- und umweltingenieurwesen 2">
    <path class="cls-1" d="M122.5,38c0,2.3-.4,3.9-1.4,4.8-1.7,1.6-3.4,1.8-6,1.8s-5.5-1.8-5.5-4.4,1.9-4.3,5.3-4.3h7.5v2.1h0ZM132,52.1v-25.1c0-8.9-5.6-13.5-16.2-13.5s-10,1.2-13.8,5.3l6.1,5.9c2-2.3,3.7-3.2,7.3-3.2s7.1,1.8,7.1,6v1.9h-9c-8.8,0-13,5-13,11.1s1.1,6.4,3.2,8.6c2.3,2.3,5.4,3.4,9.7,3.4s6.8-1.1,9.4-3.7v3.3h9.3ZM83.6,33c0,6.2-.8,11-6.5,11s-6.4-4.8-6.4-11,.7-10.9,6.4-10.9,6.5,4.7,6.5,10.9M93.1,52.1V0h-9.5v17.3c-2.5-2.8-5.4-3.8-9.3-3.8s-7.2,1.3-9.3,3.4c-3.8,3.8-3.9,10.3-3.9,16s0,12.3,3.9,16.1c2.1,2.1,5.6,3.4,9.4,3.4s6.8-1.1,9.4-4v3.6h9.3ZM60.6,56.9h-22.7v2.2h22.7v-2.2ZM32.8,52.1v-24.7c0-8.1-4.4-13.9-12.7-13.9s-6.6,1.3-9.1,3.9V0H1.4v52.1h9.5v-23.3c0-5,3.1-6.7,6.1-6.7s6.2,1.7,6.2,6.7v23.3h9.5Z"/>
    <g>
      <path class="cls-1" d="M9.6,93.7v-8.3c0-2.1-1.2-2.9-2.7-2.9s-2.7.9-2.7,2.9v8.3H1.4v-18.9h2.7v6.8c.9-1,2.2-1.5,3.5-1.5,3,0,4.7,2,4.7,4.9v8.7h-2.7Z"/>
      <path class="cls-1" d="M25.2,92.2c-.9.9-2.2,1.6-4,1.6s-3.1-.7-4-1.6c-1.3-1.3-1.6-3-1.6-5.3s.3-4,1.6-5.3c.9-.9,2.2-1.6,4-1.6s3.2.7,4,1.6c1.3,1.3,1.6,3,1.6,5.3s-.3,4-1.6,5.3ZM23.2,83.2c-.5-.5-1.2-.8-2-.8s-1.5.3-2,.8c-.8.8-.9,2.2-.9,3.7s.1,2.9.9,3.7c.5.5,1.2.8,2,.8s1.5-.3,2-.8c.8-.8.9-2.2.9-3.7s-.1-2.9-.9-3.7Z"/>
      <path class="cls-1" d="M35.7,93.8c-3,0-6-1.9-6-6.9s3-6.9,6-6.9,3.2.5,4.4,1.9l-1.9,1.8c-.8-.9-1.5-1.3-2.6-1.3s-1.9.4-2.5,1.2c-.6.7-.8,1.7-.8,3.3s.2,2.6.8,3.3c.6.8,1.5,1.2,2.5,1.2s1.7-.4,2.6-1.3l1.9,1.8c-1.3,1.4-2.6,1.9-4.4,1.9h0Z"/>
      <path class="cls-1" d="M51.2,93.7v-8.3c0-2.1-1.2-2.9-2.7-2.9s-2.7.9-2.7,2.9v8.3h-2.7v-18.9h2.7v6.8c.9-1,2.2-1.5,3.5-1.5,3,0,4.7,2,4.7,4.9v8.7h-2.7Z"/>
      <path class="cls-1" d="M62.4,93.8c-2.2,0-4.1-.4-5.7-1.9l1.8-1.8c1.1,1.1,2.5,1.4,3.9,1.4s2.9-.6,2.9-1.9-.5-1.5-1.8-1.6l-2.2-.2c-2.5-.2-4-1.4-4-3.7s2.3-4.1,5.1-4.1,3.8.4,5,1.5l-1.7,1.7c-.8-.7-2-1-3.3-1s-2.5.7-2.5,1.7.4,1.4,1.9,1.5l2.1.2c2.5.2,4,1.4,4,3.8s-2.4,4.3-5.6,4.3h0Z"/>
      <path class="cls-1" d="M76.6,93.8c-3,0-6-1.9-6-6.9s3-6.9,6-6.9,3.2.5,4.4,1.9l-1.9,1.8c-.8-.9-1.5-1.3-2.6-1.3s-1.9.4-2.5,1.2c-.6.7-.8,1.7-.8,3.3s.2,2.6.8,3.3c.6.8,1.5,1.2,2.5,1.2s1.7-.4,2.6-1.3l1.9,1.8c-1.3,1.4-2.6,1.9-4.4,1.9h0Z"/>
      <path class="cls-1" d="M92.2,93.7v-8.3c0-2.1-1.2-2.9-2.7-2.9s-2.7.9-2.7,2.9v8.3h-2.7v-18.9h2.7v6.8c.9-1,2.2-1.5,3.5-1.5,3,0,4.7,2,4.7,4.9v8.7h-2.7Z"/>
      <path class="cls-1" d="M106.9,93.7v-1.4c-.9,1-2.2,1.5-3.6,1.5s-2.5-.4-3.3-1.2c-1-1-1.4-2.3-1.4-3.8v-8.6h2.7v8.2c0,2.1,1.2,3,2.7,3s2.8-.9,2.8-3v-8.2h2.7v13.5h-2.7,0Z"/>
      <path class="cls-1" d="M117.2,93.7c-2.6,0-3.7-1.7-3.7-3.7v-15.2h2.7v15c0,1,.4,1.6,1.5,1.6h1.2v2.3h-1.7Z"/>
      <path class="cls-1" d="M123.6,87.7c0,2.3,1.2,3.8,3.4,3.8s2.3-.4,3.3-1.4l1.7,1.6c-1.4,1.4-2.7,2.1-5.1,2.1-3.4,0-6.1-1.8-6.1-6.9s2.3-6.9,5.7-6.9,5.7,2.7,5.7,6.5v1.2h-8.8,0ZM129.3,84c-.4-1-1.4-1.7-2.7-1.7s-2.3.7-2.7,1.7c-.3.6-.3,1-.3,1.8h6.1c0-.8-.1-1.2-.4-1.8Z"/>
      <path class="cls-1" d="M150.1,93.7v-1.4c-1,1.2-2.1,1.6-3.6,1.6s-2.6-.4-3.3-1.2c-1.4-1.4-1.5-3.7-1.5-5.7s.2-4.3,1.5-5.7,1.9-1.2,3.3-1.2,2.6.4,3.5,1.5v-6.8h2.7v18.9h-2.7ZM147.2,82.5c-2.4,0-2.8,2.1-2.8,4.5s.4,4.5,2.8,4.5,2.8-2.1,2.8-4.5-.4-4.5-2.8-4.5Z"/>
      <path class="cls-1" d="M164.1,93.7v-1.2c-1,1-1.9,1.4-3.6,1.4s-2.8-.4-3.6-1.2c-.7-.7-1.1-1.8-1.1-2.9,0-2.3,1.6-3.9,4.6-3.9h3.6v-1c0-1.7-.9-2.5-2.9-2.5s-2.2.4-2.9,1.3l-1.8-1.7c1.3-1.5,2.6-1.9,4.8-1.9,3.7,0,5.6,1.6,5.6,4.6v9h-2.7,0ZM164.1,87.7h-3.2c-1.6,0-2.4.7-2.4,1.9s.8,1.9,2.5,1.9,1.8,0,2.5-.8c.4-.4.6-1,.6-2v-1.1Z"/>
      <path class="cls-1" d="M178.1,83.4c-.6-.6-1.1-.9-2-.9-1.5,0-2.7,1.2-2.7,3v8.2h-2.7v-13.5h2.7v1.5c.7-1,2.1-1.6,3.6-1.6s2.3.4,3.2,1.3l-2.1,2.1h0Z"/>
      <path class="cls-1" d="M199,93.7v-8.2c0-2.1-1.2-3-2.7-3s-2.8.9-2.8,2.9v8.4h-2.7v-8.2c0-2.1-1.2-3-2.7-3s-2.8.9-2.8,3v8.2h-2.7v-13.5h2.7v1.4c.9-1,2.2-1.5,3.6-1.5s3,.7,3.8,2c1.1-1.3,2.4-2,4.2-2s2.6.4,3.4,1.2c1,1,1.4,2.3,1.4,3.8v8.6h-2.7Z"/>
      <path class="cls-1" d="M210.2,93.8c-2.2,0-4.1-.4-5.7-1.9l1.8-1.8c1.1,1.1,2.6,1.4,3.9,1.4s2.9-.6,2.9-1.9-.5-1.5-1.8-1.6l-2.1-.2c-2.5-.2-4-1.4-4-3.7s2.3-4.1,5.1-4.1,3.8.4,5,1.5l-1.7,1.7c-.9-.7-2.1-1-3.3-1s-2.4.7-2.4,1.7.4,1.4,1.9,1.5l2.1.2c2.5.2,4,1.4,4,3.8s-2.4,4.3-5.6,4.3h0Z"/>
      <path class="cls-1" d="M223.2,93.7c-2.5,0-3.7-1.8-3.7-3.8v-7.4h-1.5v-2.1h1.5v-4.1h2.7v4.1h2.6v2.1h-2.6v7.3c0,1,.5,1.6,1.5,1.6h1.1v2.3h-1.6Z"/>
      <path class="cls-1" d="M235.6,93.7v-1.2c-1,1-1.9,1.4-3.6,1.4s-2.8-.4-3.6-1.2c-.7-.7-1.1-1.8-1.1-2.9,0-2.3,1.6-3.9,4.6-3.9h3.6v-1c0-1.7-.9-2.5-2.9-2.5s-2.2.4-2.9,1.3l-1.8-1.7c1.3-1.5,2.6-1.9,4.8-1.9,3.7,0,5.6,1.6,5.6,4.6v9h-2.7,0ZM235.6,87.7h-3.2c-1.6,0-2.4.7-2.4,1.9s.8,1.9,2.5,1.9,1.8,0,2.5-.8c.4-.4.6-1,.6-2v-1.1Z"/>
      <path class="cls-1" d="M250,93.7v-1.4c-1,1.2-2.1,1.6-3.6,1.6s-2.6-.4-3.3-1.2c-1.4-1.4-1.5-3.7-1.5-5.7s.2-4.3,1.5-5.7,1.9-1.2,3.3-1.2,2.6.4,3.5,1.5v-6.8h2.7v18.9h-2.7ZM247.2,82.5c-2.4,0-2.8,2.1-2.8,4.5s.4,4.5,2.8,4.5,2.8-2.1,2.8-4.5-.4-4.5-2.8-4.5Z"/>
      <path class="cls-1" d="M260.8,93.7c-2.5,0-3.7-1.8-3.7-3.8v-7.4h-1.5v-2.1h1.5v-4.1h2.7v4.1h2.6v2.1h-2.6v7.3c0,1,.5,1.6,1.5,1.6h1.1v2.3h-1.6,0Z"/>
      <path class="cls-1" d="M3.6,120.3h-1.4v-11.8H.5v-1h1.8v-2.8c0-1.9,1.1-3.4,3.1-3.4h1.2v1.2h-.9c-1.4,0-2,.8-2,2.1v2.8h2.9v1h-2.9v11.8h0Z"/>
      <path class="cls-1" d="M17.5,119c-1.1,1.1-2.1,1.4-3.9,1.4s-2.9-.3-3.8-1.2c-.6-.6-.9-1.5-.9-2.5,0-2.3,1.7-3.7,4.5-3.7h4.1v-1.4c0-2.1-1-3.1-3.6-3.1s-2.7.4-3.5,1.6l-1-.9c1.1-1.5,2.4-2,4.5-2,3.4,0,5,1.5,5,4.2v8.8h-1.4v-1.3h0ZM13.6,114.1c-2.2,0-3.3.9-3.3,2.6s1,2.5,3.4,2.5,2.3-.1,3.2-1c.5-.4.7-1.3.7-2.4v-1.6h-4Z"/>
      <path class="cls-1" d="M28.5,120.4c-3.5,0-5.6-2.5-5.6-6.6s2.1-6.6,5.6-6.6,2.9.4,4.2,2l-.9.9c-1.1-1.2-1.9-1.6-3.3-1.6s-2.6.6-3.4,1.7c-.6.9-.9,1.9-.9,3.7s.2,2.7.9,3.7c.8,1.1,1.9,1.7,3.4,1.7s2.2-.4,3.3-1.6l.9.9c-1.4,1.5-2.5,2-4.2,2Z"/>
      <path class="cls-1" d="M44.9,112.3c0-2.5-1.2-3.8-3.5-3.8s-3.6,1.4-3.6,3.8v7.9h-1.4v-18.9h1.4v7.6c1-1.1,2.2-1.7,3.8-1.7,3,0,4.7,1.8,4.7,4.8v8.2h-1.4v-7.9h0Z"/>
      <path class="cls-1" d="M59.2,119.3c-.7.7-1.8,1.1-3.1,1.1s-2.7-.3-3.8-1.8v1.6h-1.4v-18.9h1.4v7.8c1.1-1.5,2.3-1.8,3.8-1.8s2.5.4,3.1,1.1c1.3,1.3,1.7,3.4,1.7,5.4s-.3,4.1-1.7,5.4h0ZM55.9,108.5c-3.1,0-3.6,2.7-3.6,5.4s.5,5.4,3.6,5.4,3.6-2.7,3.6-5.4-.5-5.4-3.6-5.4Z"/>
      <path class="cls-1" d="M69.9,119.2c1.5,0,2.4-.4,3.5-1.5l1,.8c-1.3,1.3-2.5,2-4.6,2-3.5,0-5.4-2.3-5.4-6.6s1.9-6.6,5.1-6.6,5.1,2.3,5.1,6.2v.6h-8.9c0,3.3,1.4,5.1,4.2,5.1ZM72.8,110.6c-.6-1.4-1.8-2.1-3.3-2.1s-2.8.8-3.3,2.1c-.3.8-.4,1.2-.4,2.4h7.6c0-1.2-.1-1.6-.4-2.4h0Z"/>
      <path class="cls-1" d="M83.4,108.5c-2.2,0-3.4,1.8-3.4,3.9v7.9h-1.4v-12.8h1.4v1.7c.7-1.2,2.2-1.9,3.8-1.9s2.2.3,3.1,1.2l-1,1c-.8-.8-1.4-1-2.4-1h0Z"/>
      <path class="cls-1" d="M94.3,119.2c1.5,0,2.4-.4,3.5-1.5l1,.8c-1.3,1.3-2.5,2-4.6,2-3.5,0-5.4-2.3-5.4-6.6s1.9-6.6,5.1-6.6,5.1,2.3,5.1,6.2v.6h-8.9c0,3.3,1.4,5.1,4.2,5.1ZM97.2,110.6c-.6-1.4-1.8-2.1-3.3-2.1s-2.8.8-3.3,2.1c-.3.8-.4,1.2-.4,2.4h7.6c0-1.2-.1-1.6-.4-2.4h0Z"/>
      <path class="cls-1" d="M102.8,101.3h1.7v1.7h-1.7v-1.7ZM103,107.4h1.4v12.8h-1.4v-12.8Z"/>
      <path class="cls-1" d="M114,120.4c-3.5,0-5.6-2.5-5.6-6.6s2.1-6.6,5.6-6.6,2.9.4,4.2,2l-.9.9c-1.1-1.2-1.9-1.6-3.3-1.6s-2.6.6-3.4,1.7c-.6.9-.9,1.9-.9,3.7s.2,2.7.9,3.7c.8,1.1,1.9,1.7,3.4,1.7s2.2-.4,3.3-1.6l.9.9c-1.4,1.5-2.5,2-4.2,2Z"/>
      <path class="cls-1" d="M130.4,112.3c0-2.5-1.2-3.8-3.5-3.8s-3.6,1.4-3.6,3.8v7.9h-1.4v-18.9h1.4v7.6c1-1.1,2.2-1.7,3.8-1.7,3,0,4.7,1.8,4.7,4.8v8.2h-1.4v-7.9h0Z"/>
      <path class="cls-1" d="M151.8,119.3c-.7.7-1.8,1.1-3.1,1.1s-2.7-.3-3.8-1.8v1.6h-1.4v-18.9h1.4v7.8c1.1-1.5,2.3-1.8,3.8-1.8s2.5.4,3.1,1.1c1.3,1.3,1.6,3.4,1.6,5.4s-.4,4.1-1.6,5.4h0ZM148.5,108.5c-3.1,0-3.6,2.7-3.6,5.4s.5,5.4,3.6,5.4,3.6-2.7,3.6-5.4-.5-5.4-3.6-5.4Z"/>
      <path class="cls-1" d="M165.3,119c-1.1,1.1-2.1,1.4-3.9,1.4s-2.9-.3-3.8-1.2c-.6-.6-.9-1.5-.9-2.5,0-2.3,1.7-3.7,4.5-3.7h4.1v-1.4c0-2.1-1-3.1-3.6-3.1s-2.7.4-3.5,1.6l-1-.9c1.1-1.5,2.4-2,4.5-2,3.4,0,5,1.5,5,4.2v8.8h-1.4v-1.3h0ZM161.3,114.1c-2.2,0-3.3.9-3.3,2.6s1,2.5,3.4,2.5,2.3-.1,3.2-1c.5-.4.7-1.3.7-2.4v-1.6h-4Z"/>
      <path class="cls-1" d="M179.7,118.7c-1,1.1-2.2,1.7-3.8,1.7s-2.6-.4-3.4-1.2c-.9-.9-1.3-2.1-1.3-3.6v-8.2h1.4v7.9c0,2.5,1.2,3.8,3.5,3.8s3.6-1.4,3.6-3.8v-7.9h1.4v12.8h-1.4v-1.5h0Z"/>
      <path class="cls-1" d="M185.5,112.6h7v1.2h-7v-1.2Z"/>
      <path class="cls-1" d="M212.4,118.7c-1,1.1-2.2,1.7-3.8,1.7s-2.6-.4-3.4-1.2c-.9-.9-1.3-2.1-1.3-3.6v-8.2h1.4v7.9c0,2.5,1.2,3.8,3.5,3.8s3.6-1.4,3.6-3.8v-7.9h1.4v12.8h-1.4v-1.5h0Z"/>
      <path class="cls-1" d="M226.9,112.3c0-2.5-1.2-3.8-3.5-3.8s-3.6,1.4-3.6,3.8v7.9h-1.4v-12.8h1.4v1.5c1-1.1,2.2-1.7,3.8-1.7s2.6.4,3.4,1.2c.9.9,1.3,2.1,1.3,3.6v8.2h-1.4v-7.9h0Z"/>
      <path class="cls-1" d="M240.9,118.6c-1.1,1.5-2.3,1.8-3.8,1.8s-2.5-.4-3.1-1.1c-1.3-1.3-1.6-3.4-1.6-5.4s.4-4.1,1.6-5.4c.7-.7,1.8-1.1,3.1-1.1s2.7.3,3.8,1.8v-7.8h1.4v18.9h-1.4v-1.6h0ZM237.3,108.5c-3.1,0-3.6,2.7-3.6,5.4s.5,5.4,3.6,5.4,3.6-2.7,3.6-5.4-.5-5.4-3.6-5.4Z"/>
      <path class="cls-1" d="M10.2,145.3c-1,1.1-2.2,1.7-3.8,1.7s-2.5-.4-3.4-1.2c-.9-.9-1.3-2.1-1.3-3.6v-8.2h1.4v7.9c0,2.5,1.2,3.8,3.5,3.8s3.6-1.4,3.6-3.8v-7.9h1.4v12.8h-1.4v-1.5h0Z"/>
      <path class="cls-1" d="M33.3,138.9c0-2.5-1.2-3.8-3.5-3.8s-3.6,1.4-3.6,3.6v8.2h-1.4v-7.9c0-2.5-1.2-3.8-3.5-3.8s-3.6,1.4-3.6,3.8v7.9h-1.4v-12.8h1.4v1.5c1-1.1,2.2-1.7,3.8-1.7s3.4.8,4.1,2.3c1-1.5,2.5-2.3,4.4-2.3s2.5.4,3.4,1.2c.9.9,1.3,2.1,1.3,3.6v8.2h-1.3v-7.9h0Z"/>
      <path class="cls-1" d="M49.9,146.8l-3.6-10.7-3.6,10.7h-1.4l-4.1-12.8h1.5l3.3,11.2,3.7-11.2h1.3l3.7,11.2,3.3-11.2h1.5l-4.1,12.8h-1.4Z"/>
      <path class="cls-1" d="M63,145.8c1.5,0,2.4-.4,3.5-1.5l1,.8c-1.3,1.3-2.5,2-4.6,2-3.5,0-5.5-2.3-5.5-6.6s1.9-6.6,5.1-6.6,5.1,2.3,5.1,6.2v.6h-8.9c0,3.3,1.4,5.1,4.2,5.1ZM65.9,137.2c-.6-1.4-1.8-2.1-3.3-2.1s-2.8.8-3.3,2.1c-.3.8-.4,1.2-.5,2.4h7.5c0-1.2-.1-1.6-.4-2.4h0Z"/>
      <path class="cls-1" d="M71.7,143.5v-15.6h1.4v15.6c0,1.5.4,2.1,2,2.1h.9v1.2h-1.2c-2.1,0-3.1-1.3-3.1-3.3h0Z"/>
      <path class="cls-1" d="M79.3,143.5v-8.4h-1.8v-1h1.8v-4.1h1.4v4.1h2.9v1h-2.9v8.5c0,1.4.6,2.1,2,2.1h.9v1.2h-1.2c-2,0-3.1-1.4-3.1-3.4h0Z"/>
      <path class="cls-1" d="M87,127.9h1.7v1.7h-1.7v-1.7ZM87.2,134h1.4v12.8h-1.4v-12.8Z"/>
      <path class="cls-1" d="M101.8,138.9c0-2.5-1.2-3.8-3.5-3.8s-3.6,1.4-3.6,3.8v7.9h-1.4v-12.8h1.4v1.5c1-1.1,2.2-1.7,3.8-1.7s2.6.4,3.4,1.2c.9.9,1.3,2.1,1.3,3.6v8.2h-1.4v-7.9h0Z"/>
      <path class="cls-1" d="M111.8,153.1c-1.9,0-2.9-.5-4.2-1.7l.9-.9c1,.9,1.7,1.4,3.3,1.4,2.7,0,3.9-1.9,3.9-4.4v-2.3c-1.1,1.5-2.3,1.8-3.8,1.8s-2.5-.4-3.1-1.1c-1.3-1.3-1.7-3.4-1.7-5.4s.3-4.1,1.7-5.4,1.8-1.1,3.1-1.1,2.7.3,3.8,1.8v-1.6h1.4v13.5c0,3.2-1.9,5.6-5.2,5.6h0ZM112.1,135c-3.1,0-3.6,2.7-3.6,5.4s.5,5.4,3.6,5.4,3.6-2.7,3.6-5.4-.5-5.4-3.6-5.4Z"/>
      <path class="cls-1" d="M126.7,145.8c1.5,0,2.4-.4,3.5-1.5l1,.8c-1.3,1.3-2.5,2-4.6,2-3.5,0-5.4-2.3-5.4-6.6s1.9-6.6,5.1-6.6,5.1,2.3,5.1,6.2v.6h-8.9c0,3.3,1.4,5.1,4.2,5.1h0ZM129.6,137.2c-.6-1.4-1.8-2.1-3.3-2.1s-2.8.8-3.3,2.1c-.3.8-.4,1.2-.4,2.4h7.6c0-1.2-.1-1.6-.4-2.4h0Z"/>
      <path class="cls-1" d="M143.9,138.9c0-2.5-1.2-3.8-3.5-3.8s-3.6,1.4-3.6,3.8v7.9h-1.4v-12.8h1.4v1.5c1-1.1,2.2-1.7,3.8-1.7s2.6.4,3.4,1.2c.9.9,1.3,2.1,1.3,3.6v8.2h-1.4v-7.9h0Z"/>
      <path class="cls-1" d="M149.7,127.9h1.7v1.7h-1.7v-1.7ZM149.9,134h1.4v12.8h-1.4v-12.8Z"/>
      <path class="cls-1" d="M160.8,145.8c1.5,0,2.4-.4,3.5-1.5l1,.8c-1.3,1.3-2.5,2-4.6,2-3.5,0-5.4-2.3-5.4-6.6s1.9-6.6,5.1-6.6,5.1,2.3,5.1,6.2v.6h-8.9c0,3.3,1.4,5.1,4.2,5.1ZM163.7,137.2c-.6-1.4-1.8-2.1-3.3-2.1s-2.8.8-3.3,2.1c-.3.8-.4,1.2-.4,2.4h7.6c0-1.2-.1-1.6-.4-2.4h0Z"/>
      <path class="cls-1" d="M177.9,145.3c-1,1.1-2.2,1.7-3.8,1.7s-2.6-.4-3.4-1.2c-.9-.9-1.3-2.1-1.3-3.6v-8.2h1.4v7.9c0,2.5,1.2,3.8,3.5,3.8s3.6-1.4,3.6-3.8v-7.9h1.4v12.8h-1.4v-1.5h0Z"/>
      <path class="cls-1" d="M188.8,135.1c-2.2,0-3.4,1.8-3.4,3.9v7.9h-1.4v-12.8h1.4v1.7c.7-1.2,2.2-1.9,3.8-1.9s2.1.3,3.1,1.2l-1,1c-.8-.8-1.4-1-2.4-1h0Z"/>
      <path class="cls-1" d="M206.7,146.8l-3.6-10.7-3.6,10.7h-1.4l-4.1-12.8h1.5l3.3,11.2,3.7-11.2h1.3l3.7,11.2,3.3-11.2h1.5l-4.1,12.8h-1.4Z"/>
      <path class="cls-1" d="M219.8,145.8c1.5,0,2.4-.4,3.5-1.5l1,.8c-1.3,1.3-2.5,2-4.6,2-3.5,0-5.4-2.3-5.4-6.6s1.9-6.6,5.1-6.6,5.1,2.3,5.1,6.2v.6h-8.9c0,3.3,1.4,5.1,4.2,5.1ZM222.7,137.2c-.6-1.4-1.8-2.1-3.3-2.1s-2.8.8-3.3,2.1c-.3.8-.4,1.2-.4,2.4h7.6c0-1.2-.1-1.6-.4-2.4h0Z"/>
      <path class="cls-1" d="M232.9,147c-2.2,0-3.9-.6-5.2-1.8l.9-.9c1,1,2.4,1.6,4.2,1.6s3.9-.9,3.9-2.6-.7-2-2.4-2.1l-2.1-.2c-2.6-.2-3.9-1.3-3.9-3.4s1.8-3.6,4.6-3.6,3.4.5,4.5,1.4l-.9.9c-1-.7-2.2-1.1-3.6-1.1-2.1,0-3.3.9-3.3,2.5s.8,2,2.6,2.1l2.1.2c2.1.2,3.8.9,3.8,3.4s-2,3.8-5.1,3.8h0Z"/>
      <path class="cls-1" d="M246.8,145.8c1.5,0,2.4-.4,3.5-1.5l1,.8c-1.3,1.3-2.5,2-4.6,2-3.5,0-5.4-2.3-5.4-6.6s1.9-6.6,5.1-6.6,5.1,2.3,5.1,6.2v.6h-8.9c0,3.3,1.4,5.1,4.2,5.1ZM249.7,137.2c-.6-1.4-1.8-2.1-3.3-2.1s-2.8.8-3.3,2.1c-.3.8-.4,1.2-.4,2.4h7.6c0-1.2-.1-1.6-.4-2.4h0Z"/>
      <path class="cls-1" d="M264,138.9c0-2.5-1.2-3.8-3.5-3.8s-3.6,1.4-3.6,3.8v7.9h-1.4v-12.8h1.4v1.5c1-1.1,2.2-1.7,3.8-1.7s2.5.4,3.4,1.2c.9.9,1.3,2.1,1.3,3.6v8.2h-1.4v-7.9h0Z"/>
    </g>
  </g>
  <g id="eut_V2" data-name="eut V2">
    <g>
      <polygon class="cls-2" points="286.7 156.6 287.5 156.8 319.8 36.6 319 36.4 286.7 156.6"/>
      <path class="cls-2" d="M377.6,59.8c0-1,.5-1.5,1.4-1.5s1.4.5,1.4,1.5v3.4h.8v-3.5c0-.9.6-1.4,1.4-1.4s1.4.5,1.4,1.5v3.4h.8v-3.5c0-.6-.2-1.2-.6-1.5-.3-.3-.8-.5-1.4-.5s-1.4.3-1.8.9c-.3-.6-.9-.9-1.7-.9s-1.2.2-1.6.7v-.6h-.8v5.5h.8v-3.4h0Z"/>
      <path class="cls-2" d="M389.3,63.3c1,0,1.5-.3,2-.9l-.5-.5c-.4.4-.8.6-1.5.6-1.1,0-1.6-.7-1.6-1.9h3.7v-.4c0-1.6-.8-2.7-2.3-2.7s-2.3,1.1-2.3,2.8,1,2.8,2.4,2.8h0ZM387.8,59.2c.2-.5.7-.8,1.3-.8s1.1.3,1.3.8c.1.3.1.5.2.9h-2.9c0-.4,0-.6.2-.9h0Z"/>
      <path class="cls-2" d="M394.4,59.8c0-1,.5-1.5,1.4-1.5s1.4.5,1.4,1.5v3.4h.8v-3.5c0-.9.6-1.4,1.4-1.4s1.4.5,1.4,1.5v3.4h.8v-3.5c0-.6-.2-1.2-.6-1.5-.3-.3-.8-.5-1.4-.5s-1.4.3-1.8.9c-.3-.6-.9-.9-1.7-.9s-1.2.2-1.6.7v-.6h-.8v5.5h.8v-3.4h0Z"/>
      <path class="cls-2" d="M404.7,62.6c.5.6,1,.7,1.6.7s1.1-.2,1.4-.5c.6-.6.7-1.5.7-2.3s-.1-1.8-.7-2.3c-.3-.3-.8-.5-1.4-.5s-1.1.1-1.6.7v-3.1h-.8v8h.8v-.7h0ZM406.1,58.4c1.2,0,1.4,1,1.4,2.1s-.2,2.1-1.4,2.1-1.4-1-1.4-2.1.2-2.1,1.4-2.1Z"/>
      <path class="cls-2" d="M412.7,63.3c.9,0,1.5-.3,2-.9l-.5-.5c-.4.4-.8.6-1.5.6-1.1,0-1.6-.7-1.6-1.9h3.7v-.4c0-1.6-.8-2.7-2.3-2.7s-2.3,1.1-2.3,2.8,1,2.8,2.4,2.8h0ZM411.3,59.2c.2-.5.7-.8,1.3-.8s1.1.3,1.3.8c.1.3.1.5.2.9h-2.9c0-.4,0-.6.2-.9h0Z"/>
      <path class="cls-2" d="M417.8,59.9c0-.8.5-1.5,1.3-1.5s.6,0,1,.4l.6-.6c-.4-.4-.8-.5-1.3-.5s-1.2.3-1.5.7v-.7h-.8v5.5h.8v-3.4h0Z"/>
      <path class="cls-2" d="M426.5,63.3c.7,0,1.2-.2,1.6-.6.6-.6.7-1.3.7-2.2s-.1-1.6-.7-2.2c-.4-.4-.9-.6-1.6-.6s-1.2.2-1.6.6c-.6.6-.7,1.3-.7,2.2s.1,1.6.7,2.2c.4.4.9.6,1.6.6ZM425.5,58.8c.3-.3.6-.4,1-.4s.8.2,1,.4c.4.4.4,1.1.4,1.7s0,1.3-.4,1.7c-.3.3-.6.4-1,.4s-.7-.2-1-.4c-.4-.4-.5-1.1-.5-1.7s0-1.3.5-1.7Z"/>
      <path class="cls-2" d="M431.1,63.2h.8v-4.9h1.2v-.6h-1.2v-1c0-.5.2-.8.7-.8h.4v-.7h-.6c-1,0-1.4.7-1.4,1.5v1.1h-.7v.6h.7v4.9h0Z"/>
      <path class="cls-2" d="M363.7,129.6c.2-.3.4-.7.4-1.1,0-1.2-.8-1.8-2.3-1.8h-1.6v6.3h1v-2.6h.6l1.5,2.6h1.2l-1.7-2.7c.4-.1.7-.3,1-.6h0ZM361.1,129.6v-2.1h.7c.4,0,.7,0,.9.2.2.2.3.4.3.8s-.1.7-.3.8c-.2.2-.5.3-.9.3h-.7,0Z"/>
      <path class="cls-2" d="M436.5,129.6c.2-.3.4-.7.4-1.1,0-1.2-.8-1.8-2.3-1.8h-1.6v6.3h1v-2.6h.6l1.5,2.6h1.2l-1.7-2.7c.4-.1.7-.3,1-.6ZM434,129.6v-2.1h.7c.4,0,.7,0,.9.2.2.2.3.4.3.8s-.1.7-.3.8c-.2.2-.5.3-.9.3h-.7Z"/>
      <path class="cls-2" d="M428.5,137.4c-.7,0-1.3.3-1.7.9s-.6,1.4-.6,2.4.2,1.8.6,2.4c.4.6.9.9,1.7.9s1.3-.3,1.7-.9c.4-.6.6-1.4.6-2.4s-.2-1.8-.6-2.4c-.4-.6-.9-.9-1.7-.9h0ZM429.4,142.5c-.2.4-.5.6-.9.6s-.7-.2-.9-.6c-.2-.4-.3-1-.3-1.8s.1-1.4.3-1.9c.2-.4.5-.6.9-.6s.7.2.9.6c.2.4.3,1,.3,1.8s-.1,1.4-.3,1.8h0Z"/>
      <path class="cls-2" d="M368.6,137.4c-.7,0-1.3.3-1.7.9s-.6,1.4-.6,2.4.2,1.8.6,2.4c.4.6.9.9,1.7.9s1.3-.3,1.7-.9c.4-.6.6-1.4.6-2.4s-.2-1.8-.6-2.4c-.4-.6-.9-.9-1.7-.9ZM369.5,142.5c-.2.4-.5.6-.9.6s-.7-.2-.9-.6-.3-1-.3-1.8.1-1.4.3-1.8c.2-.4.5-.6.9-.6s.7.2.9.6c.2.4.3,1,.3,1.8s-.1,1.4-.3,1.8h0Z"/>
      <path class="cls-2" d="M368.4,133.1c.7,0,1.3-.3,1.7-.9.4-.6.6-1.4.6-2.4s-.2-1.8-.6-2.4c-.4-.6-.9-.9-1.7-.9s-1.3.3-1.7.9-.6,1.4-.6,2.4.2,1.8.6,2.4c.4.6.9.9,1.7.9ZM367.5,128c.2-.4.5-.6.9-.6s.7.2.9.6c.2.4.3,1,.3,1.8s-.1,1.4-.3,1.8-.5.6-.9.6-.7-.2-.9-.6c-.2-.4-.3-1-.3-1.8s.1-1.4.3-1.9h0Z"/>
      <path class="cls-2" d="M435,141.1h1v1.7c-.3.2-.6.3-1,.3s-.8-.2-1.1-.6c-.2-.4-.4-1-.4-1.9s.1-1.4.4-1.8.7-.6,1.1-.6.4,0,.6.1c.2,0,.4.2.5.4l.6-.6c-.2-.2-.5-.4-.8-.6-.3-.1-.6-.2-1-.2s-.9.1-1.3.4c-.4.2-.7.6-.9,1.1-.2.5-.4,1.1-.4,1.8,0,1.1.2,1.9.6,2.4.4.6,1,.8,1.8.8s.7,0,1.1-.1c.3-.1.6-.2.9-.4v-3.1h-2.1v.8c.1,0,.1,0,.1,0Z"/>
      <path class="cls-2" d="M356.6,130.7c0,.5,0,.9-.2,1.2s-.4.4-.8.4-.6-.1-.8-.4c-.2-.2-.2-.6-.2-1.2v-4h-1v4.2c0,.7.2,1.2.5,1.6.4.4.9.6,1.5.6s.8,0,1.1-.3c.3-.2.5-.4.7-.8.2-.3.2-.7.2-1.1v-4.2h-1v4h0Z"/>
      <polygon class="cls-2" points="451.1 127.6 452.9 127.6 452.9 133 453.9 133 453.9 127.6 455.6 127.6 455.7 126.7 451.1 126.7 451.1 127.6"/>
      <polygon class="cls-2" points="459.8 129.7 458.4 126.7 457.3 126.7 459.3 130.6 459.3 133 460.3 133 460.3 130.6 462.3 126.7 461.2 126.7 459.8 129.7"/>
      <polygon class="cls-2" points="348.5 130.2 350.7 130.2 350.7 129.4 348.5 129.4 348.5 127.5 351 127.5 351.1 126.7 347.5 126.7 347.5 133 351.1 133 351.1 132.2 348.5 132.2 348.5 130.2"/>
      <polygon class="cls-2" points="441 140.5 439.6 137.6 438.6 137.6 440.5 141.5 440.5 143.8 441.5 143.8 441.5 141.4 443.5 137.6 442.5 137.6 441 140.5"/>
      <polygon class="cls-2" points="445.5 127.5 446.8 127.5 446.8 132.2 445.5 132.2 445.5 133 449.1 133 449.1 132.2 447.8 132.2 447.8 127.5 449.1 127.5 449.1 126.7 445.5 126.7 445.5 127.5"/>
      <path class="cls-2" d="M395.6,126.7h-.9v2.9c0,.5,0,.9,0,1.3s0,.8.1,1.2l-1.9-5.3h-1.3v6.3h.9v-2.9c0-.7,0-1.5-.1-2.5l1.9,5.3h1.3v-6.3Z"/>
      <polygon class="cls-2" points="373.2 143.8 374.1 143.8 374.1 141.2 376.4 141.2 376.4 140.4 374.1 140.4 374.1 138.4 376.7 138.4 376.8 137.6 373.2 137.6 373.2 143.8"/>
      <polygon class="cls-2" points="430.2 127.5 430.3 126.7 426.8 126.7 426.8 133 430.4 133 430.4 132.2 427.8 132.2 427.8 130.2 429.9 130.2 429.9 129.4 427.8 129.4 427.8 127.5 430.2 127.5"/>
      <polygon class="cls-2" points="417.7 127.5 417.7 126.7 414.1 126.7 414.1 127.5 415.4 127.5 415.4 132.2 414.1 132.2 414.1 133 417.7 133 417.7 132.2 416.4 132.2 416.4 127.5 417.7 127.5"/>
      <path class="cls-2" d="M416.3,137.4c-.7,0-1.3.3-1.7.9s-.6,1.4-.6,2.4.2,1.8.6,2.4c.4.6.9.9,1.7.9s1.3-.3,1.7-.9c.4-.6.6-1.4.6-2.4s-.2-1.8-.6-2.4c-.4-.6-.9-.9-1.7-.9h0ZM417.2,142.5c-.2.4-.5.6-.9.6s-.7-.2-.9-.6c-.2-.4-.3-1-.3-1.8s.1-1.4.3-1.9c.2-.4.5-.6.9-.6s.7.2.9.6c.2.4.3,1,.3,1.8s-.1,1.4-.3,1.8h0Z"/>
      <polygon class="cls-2" points="404.4 140.1 402.5 140.1 402.5 137.6 401.5 137.6 401.5 143.8 402.5 143.8 402.5 141 404.4 141 404.4 143.8 405.4 143.8 405.4 137.6 404.4 137.6 404.4 140.1"/>
      <path class="cls-2" d="M398.1,143c-.2,0-.5.1-.7.1-.5,0-.9-.2-1.2-.6s-.5-1-.5-1.8.1-1.4.5-1.8c.3-.4.7-.6,1.2-.6s.9.1,1.2.5l.5-.6c-.2-.2-.5-.4-.8-.5-.3-.1-.6-.1-1-.1s-.9.1-1.3.4c-.4.3-.7.6-1,1.1-.2.5-.4,1.1-.4,1.8s.1,1.3.3,1.8.5.9.9,1.1.9.4,1.4.4c.8,0,1.4-.2,1.9-.7l-.5-.6c-.2.2-.4.3-.6.4h0Z"/>
      <path class="cls-2" d="M408.7,130.1c0-.7,0-1.5-.1-2.5l1.9,5.3h1.3v-6.3h-.9v2.9c0,.5,0,.9,0,1.3s0,.8.1,1.2l-1.9-5.3h-1.3v6.3h.9v-2.9h0Z"/>
      <path class="cls-2" d="M404.4,130.7c0,.5,0,.9-.2,1.2s-.4.4-.8.4-.6-.1-.8-.4c-.2-.2-.2-.6-.2-1.2v-4h-1v4.2c0,.7.2,1.2.5,1.6.4.4.9.6,1.5.6s.8,0,1.1-.3c.3-.2.5-.4.7-.8.2-.3.2-.7.2-1.1v-4.2h-1v4h0Z"/>
      <path class="cls-2" d="M441.1,132.3c-.6,0-1.2-.2-1.6-.6l-.5.6c.5.6,1.3.8,2.2.8s.9,0,1.2-.2.6-.4.8-.7c.2-.3.3-.6.3-1,0-.6-.1-1-.5-1.2-.3-.3-.7-.5-1.3-.7-.4-.1-.6-.2-.8-.3-.2,0-.3-.2-.4-.3,0-.1-.1-.3-.1-.4,0-.3.1-.5.3-.6.2-.1.5-.2.8-.2.5,0,1,.2,1.4.6l.5-.6c-.5-.5-1.2-.8-2-.8s-.7,0-1,.2c-.3.1-.5.3-.7.6-.2.3-.3.6-.3.9s.1.8.5,1.1c.3.3.8.5,1.5.7.3.1.6.2.7.3.2.1.3.2.4.3,0,.1.1.3.1.5,0,.3-.1.6-.4.8s-.5.3-.9.3h0Z"/>
      <polygon class="cls-2" points="382.6 138.4 384.3 138.4 384.3 143.8 385.3 143.8 385.3 138.4 387 138.4 387.1 137.6 382.6 137.6 382.6 138.4"/>
      <polygon class="cls-2" points="422 137.6 421 137.6 421 143.8 424.6 143.8 424.7 143 422 143 422 137.6"/>
      <path class="cls-2" d="M411,140.4c0,.5,0,.9,0,1.3s0,.8.1,1.2l-1.9-5.3h-1.3v6.3h.9v-2.9c0-.7,0-1.5-.1-2.5l1.9,5.3h1.3v-6.3h-.9v2.9h0Z"/>
      <polygon class="cls-2" points="382.7 127.5 382.8 126.7 379.2 126.7 379.2 133 382.8 133 382.8 132.2 380.2 132.2 380.2 130.2 382.4 130.2 382.4 129.4 380.2 129.4 380.2 127.5 382.7 127.5"/>
      <polygon class="cls-2" points="422.3 132 420.9 126.7 419.9 126.7 421.7 133 422.9 133 424.8 126.7 423.7 126.7 422.3 132"/>
      <polygon class="cls-2" points="390.2 141.1 392.3 141.1 392.3 140.3 390.2 140.3 390.2 138.4 392.6 138.4 392.8 137.6 389.2 137.6 389.2 143.8 392.8 143.8 392.8 143 390.2 143 390.2 141.1"/>
      <path class="cls-2" d="M387.9,126.7h-1.2l-1.9,6.3h1l.4-1.5h2.1l.4,1.5h1l-1.9-6.3h0ZM386.4,130.7l.9-3.1.9,3.1h-1.7Z"/>
      <path class="cls-2" d="M374.7,126.7h-1.6v6.3h1v-2.2h.7c.7,0,1.3-.2,1.7-.5.4-.3.6-.9.6-1.6s-.2-1.1-.6-1.5-1-.5-1.8-.5h0ZM375.8,129.7c-.2.2-.5.3-.9.3h-.7v-2.4h.7c.9,0,1.3.4,1.3,1.2s-.1.8-.3,1h0Z"/>
      <polygon class="cls-2" points="463.9 98.6 463.9 90.9 459 90.9 459 98.6 451.4 98.6 451.4 103.6 459 103.6 459 111.2 463.9 111.2 463.9 103.6 471.4 103.6 471.4 98.6 463.9 98.6"/>
      <rect class="cls-2" x="435.3" y="90.9" width="4.9" height="28.1"/>
      <path class="cls-2" d="M424.1,119v-33.6h27.4v-5h-32.3v33.6h-8.9c-5.1,0-8.8-3.4-8.8-8v-25.6h-4.9v16.2c0,9.7-7.4,17.4-16.8,17.4s-13.5-3.9-15.6-10.4h11.7c8.9,0,13.5-6.3,13.5-12.5s-4.5-11.9-13.1-11.9-17.8,8.7-17.8,18.9v.4h-20v5h20.6c2.2,9.4,10.3,15.4,20.7,15.4s13.4-3.3,17.4-8.9c1.8,5.4,6.9,8.9,13.1,8.9h13.8,0ZM363.3,98.5v-.4c0-7.4,6-13.9,12.9-13.9s8.2,4.5,8.2,6.8c0,5.2-4.4,7.5-8.5,7.5h-12.5,0Z"/>
    </g>
  </g>
</svg>