<?xml version="1.0" encoding="UTF-8"?><svg xmlns="http://www.w3.org/2000/svg" viewBox="0 0 532.95 156.97"><g id="gesellschaftswissenschaften_2"><path d="M122.02,38.04c0,2.34-.36,3.88-1.39,4.83-1.68,1.61-3.36,1.83-6,1.83-3.73,0-5.49-1.76-5.49-4.39s1.9-4.32,5.34-4.32h7.53v2.05Zm9.51,14.05V26.99c0-8.92-5.56-13.46-16.24-13.46-6.36,0-10.02,1.17-13.75,5.27l6.07,5.93c1.97-2.27,3.66-3.15,7.32-3.15,5.05,0,7.09,1.83,7.09,6v1.9h-9c-8.85,0-13.02,4.98-13.02,11.05,0,3.36,1.1,6.44,3.15,8.56,2.27,2.27,5.41,3.36,9.73,3.36s6.8-1.1,9.36-3.66v3.29h9.29Zm-48.42-19.09c0,6.22-.81,10.97-6.51,10.97s-6.43-4.75-6.43-10.97,.73-10.9,6.43-10.9,6.51,4.68,6.51,10.9m9.51,19.09V0h-9.51V17.34c-2.49-2.78-5.41-3.81-9.29-3.81s-7.17,1.32-9.29,3.44c-3.81,3.81-3.88,10.31-3.88,16.02s.07,12.29,3.88,16.09c2.12,2.12,5.63,3.44,9.36,3.44,4.03,0,6.8-1.1,9.44-4.02v3.58h9.29Zm-32.53,4.81h-22.67v2.15h22.67v-2.15Zm-27.78-4.81V27.43c0-8.05-4.39-13.9-12.73-13.9-3.37,0-6.59,1.32-9.14,3.95V0H.92V52.08H10.43V28.82c0-4.98,3.15-6.73,6.14-6.73s6.22,1.68,6.22,6.73v23.26h9.51Z" fill="#1d1d1b"/><g><path d="M9.09,93.68v-8.27c0-2.05-1.2-2.95-2.71-2.95s-2.74,.93-2.74,2.95v8.27H.93v-18.93H3.64v6.8c.93-1.01,2.15-1.51,3.48-1.51,3,0,4.68,2.02,4.68,4.94v8.69h-2.71Z" fill="#1d1d1b"/><path d="M24.77,92.24c-.88,.9-2.21,1.59-4.04,1.59s-3.14-.69-4.01-1.59c-1.28-1.33-1.6-3.03-1.6-5.32s.32-3.96,1.6-5.29c.88-.9,2.18-1.59,4.01-1.59s3.16,.69,4.04,1.59c1.28,1.33,1.59,3.03,1.59,5.29s-.32,3.99-1.59,5.32Zm-2.05-9.01c-.5-.5-1.2-.77-1.99-.77s-1.46,.27-1.97,.77c-.82,.82-.93,2.23-.93,3.69s.11,2.87,.93,3.7c.51,.5,1.17,.8,1.97,.8s1.49-.29,1.99-.8c.82-.82,.93-2.23,.93-3.7s-.11-2.87-.93-3.69Z" fill="#1d1d1b"/><path d="M35.23,93.84c-3.03,0-6.01-1.86-6.01-6.91s2.98-6.88,6.01-6.88c1.86,0,3.16,.53,4.44,1.89l-1.86,1.81c-.85-.93-1.52-1.28-2.58-1.28s-1.91,.43-2.5,1.2c-.58,.74-.8,1.7-.8,3.27s.21,2.55,.8,3.3c.58,.77,1.46,1.2,2.5,1.2s1.73-.35,2.58-1.28l1.86,1.78c-1.28,1.36-2.58,1.91-4.44,1.91Z" fill="#1d1d1b"/><path d="M50.76,93.68v-8.27c0-2.05-1.2-2.95-2.71-2.95s-2.74,.93-2.74,2.95v8.27h-2.71v-18.93h2.71v6.8c.93-1.01,2.15-1.51,3.48-1.51,3,0,4.68,2.02,4.68,4.94v8.69h-2.71Z" fill="#1d1d1b"/><path d="M61.94,93.84c-2.21,0-4.07-.37-5.66-1.94l1.78-1.78c1.09,1.12,2.55,1.41,3.88,1.41,1.65,0,2.95-.58,2.95-1.86,0-.9-.5-1.49-1.81-1.59l-2.15-.19c-2.53-.21-3.99-1.36-3.99-3.72,0-2.63,2.26-4.12,5.08-4.12,2.02,0,3.75,.42,5,1.51l-1.7,1.73c-.85-.72-2.05-.98-3.32-.98-1.62,0-2.45,.72-2.45,1.73,0,.8,.42,1.41,1.86,1.54l2.13,.19c2.53,.21,4.01,1.41,4.01,3.8,0,2.82-2.39,4.28-5.61,4.28Z" fill="#1d1d1b"/><path d="M76.16,93.84c-3.03,0-6.01-1.86-6.01-6.91s2.98-6.88,6.01-6.88c1.86,0,3.16,.53,4.44,1.89l-1.86,1.81c-.85-.93-1.52-1.28-2.58-1.28s-1.91,.43-2.5,1.2c-.58,.74-.8,1.7-.8,3.27s.21,2.55,.8,3.3c.58,.77,1.46,1.2,2.5,1.2s1.73-.35,2.58-1.28l1.86,1.78c-1.28,1.36-2.58,1.91-4.44,1.91Z" fill="#1d1d1b"/><path d="M91.7,93.68v-8.27c0-2.05-1.2-2.95-2.71-2.95s-2.74,.93-2.74,2.95v8.27h-2.71v-18.93h2.71v6.8c.93-1.01,2.15-1.51,3.48-1.51,3,0,4.68,2.02,4.68,4.94v8.69h-2.71Z" fill="#1d1d1b"/><path d="M106.43,93.68v-1.36c-.93,1.01-2.23,1.51-3.59,1.51s-2.53-.45-3.32-1.22c-1.04-1.01-1.36-2.29-1.36-3.8v-8.61h2.71v8.21c0,2.1,1.2,3,2.71,3s2.79-.93,2.79-3v-8.21h2.71v13.48h-2.66Z" fill="#1d1d1b"/><path d="M116.73,93.68c-2.58,0-3.69-1.73-3.69-3.72v-15.2h2.71v15.04c0,1.04,.37,1.57,1.46,1.57h1.2v2.31h-1.67Z" fill="#1d1d1b"/><path d="M123.14,87.72c0,2.31,1.22,3.77,3.43,3.77,1.52,0,2.31-.43,3.27-1.38l1.73,1.62c-1.38,1.38-2.68,2.1-5.05,2.1-3.38,0-6.06-1.78-6.06-6.91,0-4.36,2.26-6.88,5.71-6.88s5.71,2.66,5.71,6.49v1.2h-8.75Zm5.69-3.72c-.43-1.01-1.38-1.7-2.66-1.7s-2.26,.69-2.68,1.7c-.27,.61-.32,1.01-.35,1.83h6.06c-.03-.82-.11-1.22-.37-1.83Z" fill="#1d1d1b"/><path d="M149.58,93.68v-1.44c-1.01,1.22-2.1,1.59-3.56,1.59-1.36,0-2.55-.45-3.3-1.2-1.36-1.36-1.52-3.67-1.52-5.71s.16-4.33,1.52-5.69c.74-.74,1.91-1.2,3.27-1.2,1.44,0,2.55,.34,3.54,1.51v-6.8h2.71v18.93h-2.66Zm-2.84-11.22c-2.45,0-2.82,2.07-2.82,4.47s.37,4.49,2.82,4.49,2.79-2.1,2.79-4.49-.35-4.47-2.79-4.47Z" fill="#1d1d1b"/><path d="M163.62,93.68v-1.22c-.98,.98-1.91,1.38-3.59,1.38s-2.79-.4-3.62-1.22c-.69-.72-1.06-1.75-1.06-2.9,0-2.26,1.57-3.88,4.65-3.88h3.56v-.96c0-1.7-.85-2.52-2.95-2.52-1.49,0-2.21,.34-2.95,1.3l-1.78-1.67c1.28-1.49,2.6-1.94,4.84-1.94,3.69,0,5.55,1.57,5.55,4.62v9.01h-2.66Zm-.05-5.95h-3.16c-1.59,0-2.42,.72-2.42,1.94s.77,1.91,2.47,1.91c1.04,0,1.81-.08,2.53-.77,.4-.4,.58-1.04,.58-1.99v-1.09Z" fill="#1d1d1b"/><path d="M177.61,83.36c-.61-.61-1.09-.9-2.02-.9-1.46,0-2.68,1.17-2.68,3.03v8.19h-2.71v-13.48h2.66v1.46c.69-.96,2.07-1.62,3.59-1.62,1.3,0,2.29,.34,3.22,1.28l-2.05,2.05Z" fill="#1d1d1b"/><path d="M198.56,93.68v-8.21c0-2.1-1.2-3-2.71-3s-2.79,.93-2.79,2.87v8.35h-2.71v-8.21c0-2.1-1.2-3-2.71-3s-2.79,.93-2.79,3v8.21h-2.71v-13.48h2.66v1.36c.9-.98,2.23-1.51,3.59-1.51,1.67,0,2.98,.66,3.83,1.97,1.09-1.33,2.45-1.97,4.23-1.97,1.38,0,2.61,.45,3.4,1.22,1.04,1.01,1.44,2.29,1.44,3.8v8.61h-2.71Z" fill="#1d1d1b"/><path d="M209.77,93.84c-2.21,0-4.07-.37-5.66-1.94l1.78-1.78c1.09,1.12,2.55,1.41,3.88,1.41,1.65,0,2.95-.58,2.95-1.86,0-.9-.5-1.49-1.81-1.59l-2.15-.19c-2.52-.21-3.99-1.36-3.99-3.72,0-2.63,2.26-4.12,5.08-4.12,2.02,0,3.75,.42,5,1.51l-1.7,1.73c-.85-.72-2.05-.98-3.32-.98-1.62,0-2.45,.72-2.45,1.73,0,.8,.42,1.41,1.86,1.54l2.13,.19c2.52,.21,4.01,1.41,4.01,3.8,0,2.82-2.39,4.28-5.61,4.28Z" fill="#1d1d1b"/><path d="M222.76,93.68c-2.53,0-3.7-1.81-3.7-3.75v-7.42h-1.54v-2.07h1.54v-4.09h2.71v4.09h2.6v2.07h-2.6v7.28c0,.98,.48,1.57,1.49,1.57h1.12v2.31h-1.62Z" fill="#1d1d1b"/><path d="M235.13,93.68v-1.22c-.98,.98-1.91,1.38-3.59,1.38s-2.79-.4-3.62-1.22c-.69-.72-1.06-1.75-1.06-2.9,0-2.26,1.57-3.88,4.65-3.88h3.56v-.96c0-1.7-.85-2.52-2.95-2.52-1.49,0-2.21,.34-2.95,1.3l-1.78-1.67c1.28-1.49,2.6-1.94,4.84-1.94,3.69,0,5.55,1.57,5.55,4.62v9.01h-2.66Zm-.05-5.95h-3.16c-1.59,0-2.42,.72-2.42,1.94s.77,1.91,2.47,1.91c1.04,0,1.81-.08,2.53-.77,.4-.4,.58-1.04,.58-1.99v-1.09Z" fill="#1d1d1b"/><path d="M249.56,93.68v-1.44c-1.01,1.22-2.1,1.59-3.56,1.59-1.36,0-2.55-.45-3.3-1.2-1.36-1.36-1.52-3.67-1.52-5.71s.16-4.33,1.52-5.69c.74-.74,1.91-1.2,3.27-1.2,1.44,0,2.55,.34,3.54,1.51v-6.8h2.71v18.93h-2.66Zm-2.84-11.22c-2.45,0-2.82,2.07-2.82,4.47s.37,4.49,2.82,4.49,2.79-2.1,2.79-4.49-.35-4.47-2.79-4.47Z" fill="#1d1d1b"/><path d="M260.36,93.68c-2.53,0-3.7-1.81-3.7-3.75v-7.42h-1.54v-2.07h1.54v-4.09h2.71v4.09h2.6v2.07h-2.6v7.28c0,.98,.48,1.57,1.49,1.57h1.12v2.31h-1.62Z" fill="#1d1d1b"/><path d="M3.11,120.25H1.75v-11.8H0v-1.01H1.75v-2.76c0-1.94,1.06-3.35,3.08-3.35h1.17v1.2h-.93c-1.36,0-1.97,.77-1.97,2.13v2.79h2.9v1.01H3.11v11.8Z" fill="#1d1d1b"/><path d="M17.07,118.98c-1.09,1.09-2.1,1.44-3.91,1.44-1.91,0-2.95-.32-3.77-1.17-.61-.61-.93-1.54-.93-2.5,0-2.34,1.67-3.69,4.47-3.69h4.15v-1.44c0-2.05-.98-3.14-3.62-3.14-1.81,0-2.71,.45-3.54,1.62l-.98-.85c1.09-1.52,2.42-1.97,4.52-1.97,3.4,0,4.97,1.52,4.97,4.2v8.77h-1.36v-1.28Zm-3.99-4.84c-2.18,0-3.27,.85-3.27,2.58s1.01,2.5,3.35,2.5c1.17,0,2.26-.11,3.19-.98,.48-.45,.72-1.28,.72-2.45v-1.65h-3.99Z" fill="#1d1d1b"/><path d="M28.06,120.41c-3.51,0-5.63-2.5-5.63-6.57s2.13-6.57,5.63-6.57c1.75,0,2.87,.45,4.23,1.97l-.93,.85c-1.09-1.22-1.94-1.62-3.3-1.62-1.46,0-2.63,.56-3.4,1.7-.64,.93-.88,1.94-.88,3.67s.24,2.74,.88,3.67c.77,1.14,1.94,1.7,3.4,1.7,1.36,0,2.21-.43,3.3-1.62l.93,.85c-1.36,1.52-2.47,1.97-4.23,1.97Z" fill="#1d1d1b"/><path d="M44.45,112.3c0-2.47-1.22-3.83-3.54-3.83s-3.62,1.38-3.62,3.83v7.95h-1.36v-18.93h1.36v7.63c.96-1.12,2.21-1.67,3.77-1.67,2.95,0,4.73,1.81,4.73,4.79v8.19h-1.36v-7.95Z" fill="#1d1d1b"/><path d="M58.72,119.29c-.66,.67-1.78,1.12-3.14,1.12-1.46,0-2.66-.32-3.8-1.81v1.65h-1.36v-18.93h1.36v7.76c1.14-1.49,2.34-1.81,3.8-1.81,1.36,0,2.47,.45,3.14,1.12,1.3,1.3,1.65,3.43,1.65,5.45s-.35,4.15-1.65,5.45Zm-3.32-10.82c-3.14,0-3.62,2.71-3.62,5.37s.48,5.37,3.62,5.37,3.62-2.71,3.62-5.37-.48-5.37-3.62-5.37Z" fill="#1d1d1b"/><path d="M69.4,119.19c1.51,0,2.45-.45,3.54-1.54l1.01,.8c-1.3,1.3-2.5,1.97-4.62,1.97-3.54,0-5.45-2.29-5.45-6.57s1.91-6.57,5.13-6.57,5.13,2.31,5.13,6.25v.61h-8.91c0,3.27,1.44,5.05,4.17,5.05Zm2.92-8.56c-.56-1.36-1.83-2.15-3.32-2.15s-2.76,.8-3.32,2.15c-.29,.82-.37,1.17-.45,2.42h7.55c-.08-1.22-.11-1.65-.45-2.42Z" fill="#1d1d1b"/><path d="M82.91,108.48c-2.21,0-3.43,1.83-3.43,3.88v7.89h-1.36v-12.81h1.36v1.7c.74-1.2,2.23-1.86,3.75-1.86,1.25,0,2.15,.29,3.08,1.22l-.98,.98c-.77-.77-1.36-1.01-2.42-1.01Z" fill="#1d1d1b"/><path d="M93.78,119.19c1.51,0,2.45-.45,3.54-1.54l1.01,.8c-1.3,1.3-2.5,1.97-4.62,1.97-3.54,0-5.45-2.29-5.45-6.57s1.91-6.57,5.13-6.57,5.13,2.31,5.13,6.25v.61h-8.91c0,3.27,1.44,5.05,4.17,5.05Zm2.92-8.56c-.56-1.36-1.83-2.15-3.32-2.15s-2.76,.8-3.32,2.15c-.29,.82-.37,1.17-.45,2.42h7.55c-.08-1.22-.11-1.65-.45-2.42Z" fill="#1d1d1b"/><path d="M102.33,101.33h1.67v1.67h-1.67v-1.67Zm.16,6.11h1.36v12.81h-1.36v-12.81Z" fill="#1d1d1b"/><path d="M113.5,120.41c-3.51,0-5.63-2.5-5.63-6.57s2.13-6.57,5.63-6.57c1.75,0,2.87,.45,4.23,1.97l-.93,.85c-1.09-1.22-1.94-1.62-3.3-1.62-1.46,0-2.63,.56-3.4,1.7-.64,.93-.88,1.94-.88,3.67s.24,2.74,.88,3.67c.77,1.14,1.94,1.7,3.4,1.7,1.36,0,2.21-.43,3.3-1.62l.93,.85c-1.36,1.52-2.47,1.97-4.23,1.97Z" fill="#1d1d1b"/><path d="M129.9,112.3c0-2.47-1.22-3.83-3.54-3.83s-3.62,1.38-3.62,3.83v7.95h-1.36v-18.93h1.36v7.63c.96-1.12,2.21-1.67,3.77-1.67,2.95,0,4.73,1.81,4.73,4.79v8.19h-1.36v-7.95Z" fill="#1d1d1b"/><path d="M5.32,153.1c-1.91,0-2.9-.5-4.23-1.7l.9-.9c1.01,.93,1.7,1.41,3.32,1.41,2.68,0,3.88-1.89,3.88-4.44v-2.29c-1.14,1.49-2.34,1.81-3.8,1.81-1.36,0-2.47-.45-3.14-1.12-1.3-1.3-1.65-3.43-1.65-5.45s.35-4.15,1.65-5.45c.66-.66,1.78-1.12,3.14-1.12,1.46,0,2.66,.32,3.8,1.81v-1.65h1.36v13.53c0,3.22-1.91,5.55-5.24,5.55Zm.27-18.05c-3.14,0-3.62,2.71-3.62,5.37s.48,5.37,3.62,5.37,3.62-2.71,3.62-5.37-.48-5.37-3.62-5.37Z" fill="#1d1d1b"/><path d="M20.17,145.76c1.51,0,2.45-.45,3.54-1.54l1.01,.8c-1.3,1.3-2.5,1.97-4.62,1.97-3.54,0-5.45-2.29-5.45-6.57s1.91-6.57,5.13-6.57,5.13,2.31,5.13,6.25v.61h-8.91c0,3.27,1.44,5.05,4.17,5.05Zm2.92-8.56c-.56-1.36-1.83-2.15-3.32-2.15s-2.76,.8-3.32,2.15c-.29,.82-.37,1.17-.45,2.42h7.55c-.08-1.22-.11-1.65-.45-2.42Z" fill="#1d1d1b"/><path d="M33.24,146.98c-2.23,0-3.88-.58-5.18-1.83l.93-.93c.98,1.04,2.39,1.57,4.2,1.57,2.53,0,3.85-.88,3.85-2.6,0-1.36-.74-1.97-2.45-2.15l-2.13-.19c-2.58-.21-3.85-1.33-3.85-3.35,0-2.23,1.81-3.64,4.6-3.64,1.78,0,3.35,.5,4.49,1.36l-.9,.9c-.98-.72-2.18-1.09-3.59-1.09-2.13,0-3.27,.88-3.27,2.47,0,1.36,.8,1.97,2.61,2.15l2.07,.19c2.13,.21,3.75,.85,3.75,3.35,0,2.34-1.97,3.8-5.13,3.8Z" fill="#1d1d1b"/><path d="M47.15,145.76c1.51,0,2.45-.45,3.54-1.54l1.01,.8c-1.3,1.3-2.5,1.97-4.62,1.97-3.54,0-5.45-2.29-5.45-6.57s1.91-6.57,5.13-6.57,5.13,2.31,5.13,6.25v.61h-8.91c0,3.27,1.44,5.05,4.17,5.05Zm2.92-8.56c-.56-1.36-1.83-2.15-3.32-2.15s-2.76,.8-3.32,2.15c-.29,.82-.37,1.17-.45,2.42h7.55c-.08-1.22-.11-1.65-.45-2.42Z" fill="#1d1d1b"/><path d="M55.8,143.5v-15.6h1.36v15.58c0,1.46,.45,2.15,1.97,2.15h.93v1.2h-1.17c-2.1,0-3.08-1.3-3.08-3.32Z" fill="#1d1d1b"/><path d="M63.23,143.5v-15.6h1.36v15.58c0,1.46,.45,2.15,1.97,2.15h.93v1.2h-1.17c-2.1,0-3.08-1.3-3.08-3.32Z" fill="#1d1d1b"/><path d="M75.36,146.98c-2.23,0-3.88-.58-5.18-1.83l.93-.93c.98,1.04,2.39,1.57,4.2,1.57,2.53,0,3.85-.88,3.85-2.6,0-1.36-.74-1.97-2.45-2.15l-2.13-.19c-2.58-.21-3.85-1.33-3.85-3.35,0-2.23,1.81-3.64,4.6-3.64,1.78,0,3.35,.5,4.49,1.36l-.9,.9c-.98-.72-2.18-1.09-3.59-1.09-2.13,0-3.27,.88-3.27,2.47,0,1.36,.8,1.97,2.61,2.15l2.07,.19c2.13,.21,3.75,.85,3.75,3.35,0,2.34-1.97,3.8-5.13,3.8Z" fill="#1d1d1b"/><path d="M89.38,146.98c-3.51,0-5.63-2.5-5.63-6.57s2.13-6.57,5.63-6.57c1.75,0,2.87,.45,4.23,1.97l-.93,.85c-1.09-1.22-1.94-1.62-3.3-1.62-1.46,0-2.63,.56-3.4,1.7-.64,.93-.88,1.94-.88,3.67s.24,2.74,.88,3.67c.77,1.14,1.94,1.7,3.4,1.7,1.36,0,2.21-.42,3.3-1.62l.93,.85c-1.36,1.51-2.47,1.97-4.23,1.97Z" fill="#1d1d1b"/><path d="M105.77,138.88c0-2.47-1.22-3.83-3.54-3.83s-3.62,1.38-3.62,3.83v7.95h-1.36v-18.93h1.36v7.63c.96-1.12,2.21-1.67,3.77-1.67,2.95,0,4.73,1.81,4.73,4.78v8.19h-1.36v-7.95Z" fill="#1d1d1b"/><path d="M119.36,145.55c-1.09,1.09-2.1,1.44-3.91,1.44-1.91,0-2.95-.32-3.77-1.17-.61-.61-.93-1.54-.93-2.5,0-2.34,1.67-3.7,4.47-3.7h4.15v-1.43c0-2.05-.98-3.14-3.62-3.14-1.81,0-2.71,.45-3.54,1.62l-.98-.85c1.09-1.51,2.42-1.97,4.52-1.97,3.4,0,4.97,1.51,4.97,4.2v8.77h-1.36v-1.28Zm-3.99-4.84c-2.18,0-3.27,.85-3.27,2.58s1.01,2.5,3.35,2.5c1.17,0,2.26-.11,3.19-.98,.48-.45,.72-1.28,.72-2.45v-1.65h-3.99Z" fill="#1d1d1b"/><path d="M126.98,146.83h-1.36v-11.8h-1.75v-1.01h1.75v-2.76c0-1.94,1.06-3.35,3.08-3.35h1.17v1.2h-.93c-1.36,0-1.97,.77-1.97,2.13v2.79h2.9v1.01h-2.9v11.8Z" fill="#1d1d1b"/><path d="M134.29,143.48v-8.45h-1.75v-1.01h1.75v-4.09h1.36v4.09h2.9v1.01h-2.9v8.48c0,1.36,.61,2.13,1.97,2.13h.93v1.2h-1.17c-2.02,0-3.08-1.41-3.08-3.35Z" fill="#1d1d1b"/><path d="M146.73,146.98c-2.23,0-3.88-.58-5.18-1.83l.93-.93c.98,1.04,2.39,1.57,4.2,1.57,2.53,0,3.85-.88,3.85-2.6,0-1.36-.74-1.97-2.45-2.15l-2.13-.19c-2.58-.21-3.85-1.33-3.85-3.35,0-2.23,1.81-3.64,4.6-3.64,1.78,0,3.35,.5,4.49,1.36l-.9,.9c-.98-.72-2.18-1.09-3.59-1.09-2.13,0-3.27,.88-3.27,2.47,0,1.36,.8,1.97,2.61,2.15l2.07,.19c2.13,.21,3.75,.85,3.75,3.35,0,2.34-1.97,3.8-5.13,3.8Z" fill="#1d1d1b"/><path d="M166.73,146.83l-3.62-10.69-3.62,10.69h-1.38l-4.09-12.81h1.49l3.27,11.22,3.67-11.22h1.33l3.67,11.22,3.27-11.22h1.49l-4.09,12.81h-1.38Z" fill="#1d1d1b"/><path d="M175.21,127.9h1.67v1.67h-1.67v-1.67Zm.16,6.11h1.36v12.81h-1.36v-12.81Z" fill="#1d1d1b"/><path d="M185.5,146.98c-2.23,0-3.88-.58-5.18-1.83l.93-.93c.98,1.04,2.39,1.57,4.2,1.57,2.53,0,3.85-.88,3.85-2.6,0-1.36-.74-1.97-2.45-2.15l-2.13-.19c-2.58-.21-3.85-1.33-3.85-3.35,0-2.23,1.81-3.64,4.6-3.64,1.78,0,3.35,.5,4.49,1.36l-.9,.9c-.98-.72-2.18-1.09-3.59-1.09-2.13,0-3.27,.88-3.27,2.47,0,1.36,.8,1.97,2.61,2.15l2.07,.19c2.13,.21,3.75,.85,3.75,3.35,0,2.34-1.97,3.8-5.13,3.8Z" fill="#1d1d1b"/><path d="M198.72,146.98c-2.23,0-3.88-.58-5.18-1.83l.93-.93c.98,1.04,2.39,1.57,4.2,1.57,2.53,0,3.85-.88,3.85-2.6,0-1.36-.74-1.97-2.45-2.15l-2.13-.19c-2.58-.21-3.85-1.33-3.85-3.35,0-2.23,1.81-3.64,4.6-3.64,1.78,0,3.35,.5,4.49,1.36l-.9,.9c-.98-.72-2.18-1.09-3.59-1.09-2.13,0-3.27,.88-3.27,2.47,0,1.36,.8,1.97,2.61,2.15l2.07,.19c2.13,.21,3.75,.85,3.75,3.35,0,2.34-1.97,3.8-5.13,3.8Z" fill="#1d1d1b"/><path d="M212.64,145.76c1.51,0,2.45-.45,3.54-1.54l1.01,.8c-1.3,1.3-2.5,1.97-4.62,1.97-3.54,0-5.45-2.29-5.45-6.57s1.91-6.57,5.13-6.57,5.13,2.31,5.13,6.25v.61h-8.91c0,3.27,1.44,5.05,4.17,5.05Zm2.92-8.56c-.56-1.36-1.83-2.15-3.32-2.15s-2.76,.8-3.32,2.15c-.29,.82-.37,1.17-.45,2.42h7.55c-.08-1.22-.11-1.65-.45-2.42Z" fill="#1d1d1b"/><path d="M229.87,138.88c0-2.47-1.22-3.83-3.54-3.83s-3.62,1.38-3.62,3.83v7.95h-1.36v-12.81h1.36v1.52c.96-1.12,2.21-1.67,3.77-1.67,1.41,0,2.55,.4,3.4,1.22,.88,.85,1.33,2.05,1.33,3.56v8.19h-1.36v-7.95Z" fill="#1d1d1b"/><path d="M239.95,146.98c-2.23,0-3.88-.58-5.18-1.83l.93-.93c.98,1.04,2.39,1.57,4.2,1.57,2.53,0,3.85-.88,3.85-2.6,0-1.36-.74-1.97-2.45-2.15l-2.13-.19c-2.58-.21-3.85-1.33-3.85-3.35,0-2.23,1.81-3.64,4.6-3.64,1.78,0,3.35,.5,4.49,1.36l-.9,.9c-.98-.72-2.18-1.09-3.59-1.09-2.13,0-3.27,.88-3.27,2.47,0,1.36,.8,1.97,2.61,2.15l2.07,.19c2.13,.21,3.75,.85,3.75,3.35,0,2.34-1.97,3.8-5.13,3.8Z" fill="#1d1d1b"/><path d="M253.97,146.98c-3.51,0-5.63-2.5-5.63-6.57s2.13-6.57,5.63-6.57c1.75,0,2.87,.45,4.23,1.97l-.93,.85c-1.09-1.22-1.94-1.62-3.3-1.62-1.46,0-2.63,.56-3.4,1.7-.64,.93-.88,1.94-.88,3.67s.24,2.74,.88,3.67c.77,1.14,1.94,1.7,3.4,1.7,1.36,0,2.21-.42,3.3-1.62l.93,.85c-1.36,1.51-2.47,1.97-4.23,1.97Z" fill="#1d1d1b"/><path d="M270.36,138.88c0-2.47-1.22-3.83-3.54-3.83s-3.62,1.38-3.62,3.83v7.95h-1.36v-18.93h1.36v7.63c.96-1.12,2.21-1.67,3.77-1.67,2.95,0,4.73,1.81,4.73,4.78v8.19h-1.36v-7.95Z" fill="#1d1d1b"/><path d="M283.94,145.55c-1.09,1.09-2.1,1.44-3.91,1.44-1.91,0-2.95-.32-3.77-1.17-.61-.61-.93-1.54-.93-2.5,0-2.34,1.67-3.7,4.47-3.7h4.15v-1.43c0-2.05-.98-3.14-3.62-3.14-1.81,0-2.71,.45-3.54,1.62l-.98-.85c1.09-1.51,2.42-1.97,4.52-1.97,3.4,0,4.97,1.51,4.97,4.2v8.77h-1.36v-1.28Zm-3.99-4.84c-2.18,0-3.27,.85-3.27,2.58s1.01,2.5,3.35,2.5c1.17,0,2.26-.11,3.19-.98,.48-.45,.72-1.28,.72-2.45v-1.65h-3.99Z" fill="#1d1d1b"/><path d="M291.56,146.83h-1.36v-11.8h-1.75v-1.01h1.75v-2.76c0-1.94,1.06-3.35,3.08-3.35h1.17v1.2h-.93c-1.36,0-1.97,.77-1.97,2.13v2.79h2.9v1.01h-2.9v11.8Z" fill="#1d1d1b"/><path d="M298.88,143.48v-8.45h-1.75v-1.01h1.75v-4.09h1.36v4.09h2.9v1.01h-2.9v8.48c0,1.36,.61,2.13,1.97,2.13h.93v1.2h-1.17c-2.02,0-3.08-1.41-3.08-3.35Z" fill="#1d1d1b"/><path d="M311.27,145.76c1.51,0,2.45-.45,3.54-1.54l1.01,.8c-1.3,1.3-2.5,1.97-4.62,1.97-3.54,0-5.45-2.29-5.45-6.57s1.91-6.57,5.13-6.57,5.13,2.31,5.13,6.25v.61h-8.91c0,3.27,1.44,5.05,4.17,5.05Zm2.92-8.56c-.56-1.36-1.83-2.15-3.32-2.15s-2.76,.8-3.32,2.15c-.29,.82-.37,1.17-.45,2.42h7.55c-.08-1.22-.11-1.65-.45-2.42Z" fill="#1d1d1b"/><path d="M328.51,138.88c0-2.47-1.22-3.83-3.54-3.83s-3.62,1.38-3.62,3.83v7.95h-1.36v-12.81h1.36v1.52c.96-1.12,2.21-1.67,3.77-1.67,1.41,0,2.55,.4,3.4,1.22,.88,.85,1.33,2.05,1.33,3.56v8.19h-1.36v-7.95Z" fill="#1d1d1b"/></g></g><g id="eut_V2"><g><polygon points="348.24 156.75 349.06 156.97 381.3 36.73 380.49 36.51 348.24 156.75"/><path d="M439.11,60c0-.97,.55-1.47,1.38-1.47s1.36,.49,1.36,1.47v3.41h.81v-3.5c0-.88,.57-1.38,1.38-1.38s1.36,.49,1.36,1.47v3.41h.81v-3.54c0-.64-.2-1.16-.59-1.54-.34-.33-.83-.52-1.43-.52-.78,0-1.39,.31-1.82,.92-.34-.61-.93-.92-1.7-.92-.62,0-1.17,.22-1.56,.67v-.61h-.81v5.53h.81v-3.41Z"/><path d="M450.79,63.47c.95,0,1.46-.29,2.02-.86l-.55-.48c-.44,.44-.81,.63-1.45,.63-1.06,0-1.63-.7-1.63-1.91h3.73v-.37c0-1.64-.84-2.68-2.27-2.68s-2.27,1.05-2.27,2.83c0,1.96,.96,2.83,2.42,2.83Zm-1.44-4.15c.21-.51,.71-.83,1.29-.83s1.08,.33,1.29,.83c.12,.3,.15,.47,.17,.92h-2.92c.02-.45,.04-.62,.17-.92Z"/><path d="M455.9,60c0-.97,.55-1.47,1.38-1.47s1.36,.49,1.36,1.47v3.41h.81v-3.5c0-.88,.57-1.38,1.38-1.38s1.36,.49,1.36,1.47v3.41h.81v-3.54c0-.64-.2-1.16-.6-1.54-.34-.33-.83-.52-1.43-.52-.78,0-1.39,.31-1.82,.92-.34-.61-.93-.92-1.7-.92-.62,0-1.17,.22-1.56,.67v-.61h-.81v5.53h.81v-3.41Z"/><path d="M466.23,62.74c.45,.59,.95,.73,1.56,.73,.56,0,1.06-.19,1.35-.48,.56-.56,.67-1.48,.67-2.35s-.11-1.79-.67-2.35c-.29-.29-.79-.48-1.35-.48-.61,0-1.11,.13-1.56,.71v-3.11h-.81v8.01h.81v-.66Zm1.39-4.21c1.2,0,1.38,1.03,1.38,2.11s-.18,2.11-1.38,2.11-1.39-1.04-1.39-2.11,.19-2.11,1.39-2.11Z"/><path d="M474.22,63.47c.94,0,1.46-.29,2.02-.86l-.55-.48c-.44,.44-.81,.63-1.45,.63-1.06,0-1.63-.7-1.63-1.91h3.73v-.37c0-1.64-.84-2.68-2.27-2.68s-2.27,1.05-2.27,2.83c0,1.96,.96,2.83,2.42,2.83Zm-1.44-4.15c.21-.51,.71-.83,1.29-.83s1.08,.33,1.29,.83c.12,.3,.15,.47,.17,.92h-2.92c.02-.45,.04-.62,.17-.92Z"/><path d="M479.33,60.01c0-.84,.52-1.48,1.33-1.48,.43,0,.65,.1,.96,.4l.6-.61c-.39-.39-.8-.52-1.33-.52-.64,0-1.25,.28-1.55,.74v-.67h-.81v5.53h.81v-3.4Z"/><path d="M488.02,63.47c.67,0,1.2-.25,1.58-.63,.56-.57,.68-1.35,.68-2.21s-.11-1.63-.68-2.2c-.38-.38-.91-.63-1.58-.63s-1.2,.25-1.59,.63c-.56,.57-.67,1.35-.67,2.2s.11,1.63,.67,2.21c.38,.38,.91,.63,1.59,.63Zm-1-4.54c.26-.26,.61-.4,1-.4s.75,.15,1.01,.4c.41,.41,.44,1.09,.44,1.71s-.03,1.31-.44,1.71c-.26,.26-.62,.41-1.01,.41s-.74-.15-1-.41c-.41-.4-.45-1.09-.45-1.71s.05-1.3,.45-1.71Z"/><path d="M492.59,63.41h.81v-4.88h1.18v-.62h-1.18v-1.02c0-.51,.22-.81,.74-.81h.44v-.7h-.58c-.95,0-1.41,.66-1.41,1.48v1.05h-.71v.62h.71v4.88Z"/><path d="M425.26,129.79c.25-.29,.37-.66,.37-1.09,0-1.21-.77-1.82-2.3-1.82h-1.65v6.28h.99v-2.58h.64l1.49,2.58h1.16l-1.68-2.73c.41-.13,.73-.34,.98-.64Zm-2.59,0v-2.14h.71c.41,0,.72,.08,.91,.24,.2,.16,.29,.43,.29,.79,0,.38-.1,.66-.3,.84-.2,.18-.5,.26-.88,.26h-.74Z"/><path d="M498.07,129.79c.24-.29,.37-.66,.37-1.09,0-1.21-.77-1.82-2.31-1.82h-1.64v6.28h.99v-2.58h.64l1.49,2.58h1.16l-1.68-2.73c.41-.13,.73-.34,.98-.64Zm-2.59,0v-2.14h.71c.41,0,.72,.08,.91,.24,.2,.17,.3,.43,.3,.79s-.1,.66-.3,.84c-.2,.17-.49,.26-.88,.26h-.74Z"/><path d="M489.97,137.6c-.72,0-1.28,.3-1.67,.89-.39,.59-.58,1.39-.58,2.38s.19,1.8,.58,2.38c.39,.58,.94,.87,1.67,.87s1.28-.29,1.67-.88c.39-.59,.58-1.38,.58-2.38s-.19-1.8-.58-2.39c-.38-.58-.94-.88-1.67-.88Zm.93,5.1c-.19,.4-.51,.6-.93,.6s-.73-.2-.93-.6c-.2-.4-.29-1.01-.29-1.83s.1-1.45,.29-1.85c.19-.4,.51-.6,.93-.6s.74,.2,.93,.6c.2,.4,.29,1.01,.29,1.84s-.1,1.44-.29,1.84Z"/><path d="M430.09,137.6c-.73,0-1.28,.3-1.67,.89-.39,.59-.58,1.39-.58,2.38s.19,1.8,.58,2.38c.38,.58,.94,.87,1.67,.87s1.28-.29,1.67-.88c.39-.59,.58-1.38,.58-2.37s-.19-1.8-.58-2.39c-.38-.59-.94-.88-1.67-.88Zm.93,5.1c-.19,.4-.5,.6-.93,.6s-.73-.2-.93-.6-.29-1.01-.29-1.83,.1-1.45,.29-1.84c.19-.4,.5-.6,.93-.6s.74,.2,.93,.6c.19,.4,.29,1.01,.29,1.84s-.1,1.44-.29,1.84Z"/><path d="M429.95,133.27c.73,0,1.28-.29,1.67-.88,.38-.59,.58-1.38,.58-2.37s-.19-1.8-.58-2.39c-.39-.59-.94-.88-1.67-.88s-1.28,.3-1.67,.89-.58,1.39-.58,2.38,.19,1.8,.58,2.38c.39,.58,.94,.87,1.67,.87Zm-.93-5.09c.19-.4,.5-.6,.93-.6s.74,.2,.93,.6c.2,.4,.29,1.01,.29,1.84s-.1,1.44-.29,1.84c-.19,.4-.5,.6-.93,.6s-.73-.2-.93-.6c-.2-.4-.3-1.01-.3-1.83s.1-1.45,.29-1.85Z"/><path d="M496.49,141.31h1v1.73c-.29,.18-.61,.26-.98,.26-.48,0-.83-.19-1.07-.58-.23-.38-.35-1.01-.35-1.87s.15-1.45,.44-1.84c.29-.39,.67-.59,1.13-.59,.23,0,.44,.04,.62,.12,.19,.08,.37,.21,.55,.39l.56-.61c-.25-.25-.5-.43-.78-.55-.27-.12-.6-.18-.98-.18-.47,0-.91,.13-1.3,.37-.39,.25-.7,.62-.93,1.11-.23,.49-.35,1.08-.35,1.77,0,1.06,.21,1.88,.63,2.43,.42,.56,1.01,.83,1.78,.83,.39,0,.74-.05,1.06-.15,.32-.1,.63-.24,.93-.42v-3.05h-2.07l.1,.81Z"/><path d="M418.14,130.9c0,.52-.08,.91-.25,1.16-.17,.25-.44,.38-.8,.38s-.62-.12-.79-.38c-.17-.25-.25-.64-.25-1.16v-4.02h-.99v4.22c0,.66,.18,1.19,.54,1.58,.35,.39,.86,.59,1.5,.59,.43,0,.8-.09,1.11-.28,.31-.18,.54-.44,.71-.77,.16-.33,.24-.7,.24-1.13v-4.22h-1v4.02Z"/><polygon points="512.62 127.73 514.4 127.73 514.4 133.15 515.39 133.15 515.39 127.73 517.1 127.73 517.2 126.88 512.62 126.88 512.62 127.73"/><polygon points="521.35 129.85 519.95 126.88 518.85 126.88 520.83 130.76 520.83 133.15 521.83 133.15 521.83 130.75 523.81 126.88 522.76 126.88 521.35 129.85"/><polygon points="410.06 130.36 412.2 130.36 412.2 129.57 410.06 129.57 410.06 127.68 412.51 127.68 412.62 126.88 409.06 126.88 409.06 133.15 412.67 133.15 412.67 132.35 410.06 132.35 410.06 130.36"/><polygon points="502.57 140.7 501.17 137.72 500.08 137.72 502.06 141.61 502.06 144 503.05 144 503.05 141.6 505.03 137.72 503.98 137.72 502.57 140.7"/><polygon points="507.05 127.68 508.33 127.68 508.33 132.34 507.05 132.34 507.05 133.15 510.61 133.15 510.61 132.34 509.33 132.34 509.33 127.68 510.61 127.68 510.61 126.88 507.05 126.88 507.05 127.68"/><path d="M457.15,126.88h-.88v2.86c0,.49,.01,.91,.04,1.27,.03,.36,.06,.76,.1,1.21l-1.89-5.34h-1.29v6.27h.88v-2.85c0-.67-.05-1.5-.14-2.49l1.89,5.34h1.29v-6.27Z"/><polygon points="434.68 144 435.67 144 435.67 141.33 437.9 141.33 437.9 140.53 435.67 140.53 435.67 138.52 438.21 138.52 438.31 137.72 434.68 137.72 434.68 144"/><polygon points="491.75 127.68 491.86 126.88 488.3 126.88 488.3 133.15 491.91 133.15 491.91 132.35 489.3 132.35 489.3 130.36 491.44 130.36 491.44 129.57 489.3 129.57 489.3 127.68 491.75 127.68"/><polygon points="479.19 127.68 479.19 126.88 475.62 126.88 475.62 127.68 476.91 127.68 476.91 132.34 475.62 132.34 475.62 133.15 479.19 133.15 479.19 132.34 477.9 132.34 477.9 127.68 479.19 127.68"/><path d="M477.84,137.6c-.72,0-1.28,.3-1.67,.89-.39,.59-.58,1.39-.58,2.38s.19,1.8,.58,2.38c.38,.58,.94,.87,1.67,.87s1.28-.29,1.67-.88c.39-.59,.58-1.38,.58-2.38s-.19-1.8-.58-2.39c-.39-.58-.94-.88-1.67-.88Zm.93,5.1c-.19,.4-.51,.6-.93,.6s-.73-.2-.93-.6c-.2-.4-.29-1.01-.29-1.83s.1-1.45,.29-1.85c.19-.4,.51-.6,.93-.6s.74,.2,.93,.6c.19,.4,.29,1.01,.29,1.84s-.1,1.44-.29,1.84Z"/><polygon points="465.95 140.28 464.01 140.28 464.01 137.72 463.02 137.72 463.02 144 464.01 144 464.01 141.14 465.95 141.14 465.95 144 466.94 144 466.94 137.72 465.95 137.72 465.95 140.28"/><path d="M459.67,143.12c-.2,.09-.45,.14-.73,.14-.5,0-.89-.2-1.19-.59-.3-.39-.45-1-.45-1.82s.15-1.45,.45-1.84c.3-.39,.69-.59,1.17-.59s.87,.15,1.23,.46l.51-.65c-.25-.22-.51-.38-.79-.48-.27-.1-.6-.15-.99-.15-.49,0-.93,.13-1.33,.38-.4,.26-.72,.63-.95,1.12-.23,.49-.35,1.08-.35,1.76s.11,1.28,.34,1.77c.23,.49,.54,.86,.94,1.11,.4,.25,.85,.38,1.36,.38,.75,0,1.37-.25,1.85-.74l-.48-.65c-.2,.17-.4,.3-.6,.4Z"/><path d="M470.25,130.31c0-.67-.05-1.5-.14-2.49l1.88,5.34h1.29v-6.27h-.88v2.86c0,.49,.01,.91,.04,1.27,.03,.36,.06,.76,.1,1.21l-1.89-5.34h-1.29v6.27h.88v-2.85Z"/><path d="M465.95,130.9c0,.52-.08,.91-.25,1.16-.17,.25-.44,.38-.8,.38s-.62-.12-.79-.38c-.17-.25-.25-.64-.25-1.16v-4.02h-.99v4.22c0,.66,.18,1.19,.53,1.58,.36,.39,.86,.59,1.5,.59,.43,0,.8-.09,1.11-.28,.31-.18,.54-.44,.71-.77,.16-.33,.25-.7,.25-1.13v-4.22h-1v4.02Z"/><path d="M502.63,132.44c-.64,0-1.18-.22-1.63-.65l-.55,.64c.54,.56,1.26,.84,2.18,.84,.47,0,.87-.08,1.21-.24,.34-.16,.6-.38,.78-.66,.18-.29,.27-.62,.27-.99,0-.55-.15-.96-.45-1.24-.3-.29-.73-.52-1.3-.7-.36-.11-.64-.22-.84-.31-.2-.09-.34-.2-.42-.31-.08-.11-.12-.26-.12-.42,0-.26,.1-.46,.29-.6,.2-.14,.46-.21,.78-.21,.53,0,.99,.19,1.4,.56l.52-.63c-.53-.5-1.19-.76-1.98-.76-.39,0-.74,.07-1.05,.22-.31,.14-.55,.34-.72,.6-.18,.26-.26,.55-.26,.89,0,.47,.15,.84,.46,1.13,.31,.28,.79,.53,1.45,.74,.32,.1,.57,.2,.74,.3,.17,.1,.29,.22,.36,.34,.07,.13,.11,.29,.11,.47,0,.32-.12,.57-.35,.75-.23,.18-.52,.26-.88,.26Z"/><polygon points="444.08 138.58 445.86 138.58 445.86 144 446.85 144 446.85 138.58 448.56 138.58 448.66 137.72 444.08 137.72 444.08 138.58"/><polygon points="483.55 137.72 482.56 137.72 482.56 144 486.09 144 486.21 143.12 483.55 143.12 483.55 137.72"/><path d="M472.53,140.58c0,.48,.01,.91,.04,1.27,.03,.36,.06,.77,.1,1.21l-1.89-5.34h-1.29v6.27h.88v-2.85c0-.67-.05-1.5-.14-2.49l1.88,5.34h1.29v-6.27h-.88v2.85Z"/><polygon points="444.18 127.68 444.29 126.88 440.74 126.88 440.74 133.15 444.34 133.15 444.34 132.35 441.73 132.35 441.73 130.36 443.87 130.36 443.87 129.57 441.73 129.57 441.73 127.68 444.18 127.68"/><polygon points="483.85 132.15 482.45 126.88 481.39 126.88 483.27 133.15 484.4 133.15 486.27 126.88 485.26 126.88 483.85 132.15"/><polygon points="451.71 141.21 453.85 141.21 453.85 140.42 451.71 140.42 451.71 138.52 454.16 138.52 454.27 137.72 450.72 137.72 450.72 144 454.32 144 454.32 143.2 451.71 143.2 451.71 141.21"/><path d="M449.38,126.88h-1.23l-1.88,6.27h1.02l.41-1.51h2.11l.41,1.51h1.05l-1.89-6.27Zm-1.48,3.95l.85-3.13,.85,3.13h-1.7Z"/><path d="M436.26,126.88h-1.64v6.27h.99v-2.24h.72c.71,0,1.28-.17,1.69-.5,.41-.34,.62-.86,.62-1.56,0-.66-.21-1.15-.62-1.48-.41-.33-1-.5-1.76-.5Zm1.01,2.95c-.22,.2-.53,.29-.93,.29h-.73v-2.45h.72c.85,0,1.27,.4,1.27,1.18,0,.45-.11,.78-.33,.97Z"/><polygon points="525.43 98.72 525.43 91.08 520.49 91.08 520.49 98.72 512.96 98.72 512.96 103.73 520.49 103.73 520.49 111.37 525.43 111.37 525.43 103.73 532.95 103.73 532.95 98.72 525.43 98.72"/><rect x="496.8" y="91.08" width="4.94" height="28.05"/><path d="M485.58,119.12v-33.57h27.38v-5.01h-32.28l-.03,33.57h-8.83c-5.12,0-8.83-3.36-8.83-7.98v-25.59h-4.94v16.22c-.07,9.73-7.44,17.35-16.77,17.35-7.74,0-13.53-3.87-15.6-10.38h11.67c8.85,0,13.47-6.3,13.47-12.52,0-5.89-4.5-11.85-13.1-11.85-9.65,0-17.79,8.67-17.79,18.92,0,.14,0,.29,0,.43h-19.99v5.01h20.62c2.24,9.37,10.33,15.39,20.72,15.39,6.93,0,13.37-3.32,17.41-8.93,1.76,5.38,6.9,8.93,13.13,8.93h13.77Zm-60.73-20.41c0-.14,0-.29,0-.43,0-7.41,6.01-13.91,12.86-13.91,6.46,0,8.16,4.48,8.16,6.84,0,5.16-4.42,7.5-8.54,7.5h-12.48Z"/></g></g></svg>