<?xml version="1.0" encoding="UTF-8"?>
<svg id="Ebene_1" data-name="Ebene 1" xmlns="http://www.w3.org/2000/svg" version="1.1" viewBox="0 0 636.9 120.5">
  <defs>
    <style>
      .cls-1 {
        fill: #1d1d1b;
        stroke-width: 0px;
      }
    </style>
  </defs>
  <g id="computer_science_3" data-name="computer science 3">
    <path class="cls-1" d="M121.1,68.7c0,2.3-.4,3.9-1.4,4.8-1.7,1.6-3.4,1.8-6,1.8s-5.5-1.8-5.5-4.4,1.9-4.3,5.3-4.3h7.5v2.1h0ZM130.6,82.7v-25.1c0-8.9-5.6-13.5-16.2-13.5s-10,1.2-13.8,5.3l6.1,5.9c2-2.3,3.7-3.2,7.3-3.2s7.1,1.8,7.1,6v1.9h-9c-8.8,0-13,5-13,11.1s1.1,6.4,3.2,8.6c2.3,2.3,5.4,3.4,9.7,3.4s6.8-1.1,9.4-3.7v3.3h9.3ZM82.2,63.6c0,6.2-.8,11-6.5,11s-6.4-4.8-6.4-11,.7-10.9,6.4-10.9,6.5,4.7,6.5,10.9M91.7,82.7V30.6h-9.5v17.3c-2.5-2.8-5.4-3.8-9.3-3.8s-7.2,1.3-9.3,3.4c-3.8,3.8-3.9,10.3-3.9,16s0,12.3,3.9,16.1c2.1,2.1,5.6,3.4,9.4,3.4s6.8-1.1,9.4-4v3.6h9.3ZM59.2,87.5h-22.7v2.2h22.7v-2.2ZM31.4,82.7v-24.7c0-8-4.4-13.9-12.7-13.9s-6.6,1.3-9.1,4v-17.5H0v52.1h9.5v-23.3c0-5,3.1-6.7,6.1-6.7s6.2,1.7,6.2,6.7v23.3h9.5Z"/>
    <path class="cls-1" d="M167,57.1v-1.4c-1,1.2-2,1.5-3.4,1.5s-2.5-.4-3.2-1.2c-1.3-1.3-1.5-3.5-1.5-5.5s.1-4.2,1.5-5.5c.7-.7,1.8-1.2,3.1-1.2s2.5.3,3.4,1.5v-6.6h2.6v18.2h-2.6ZM164.3,46.3c-2.4,0-2.7,2-2.7,4.3s.4,4.3,2.7,4.3,2.7-2,2.7-4.3-.3-4.3-2.7-4.3Z"/>
    <path class="cls-1" d="M180.6,57.1v-1.2c-.9,1-1.8,1.3-3.5,1.3s-2.7-.4-3.5-1.2c-.7-.7-1-1.7-1-2.8,0-2.2,1.5-3.7,4.5-3.7h3.4v-.9c0-1.6-.8-2.4-2.8-2.4s-2.1.3-2.8,1.3l-1.7-1.6c1.2-1.4,2.5-1.9,4.7-1.9,3.6,0,5.4,1.5,5.4,4.5v8.7h-2.6ZM180.5,51.3h-3.1c-1.5,0-2.3.7-2.3,1.9s.7,1.8,2.4,1.8,1.7,0,2.4-.7c.4-.4.6-1,.6-1.9v-1h0Z"/>
    <path class="cls-1" d="M194.1,47.1c-.6-.6-1.1-.9-1.9-.9-1.4,0-2.6,1.1-2.6,2.9v7.9h-2.6v-13h2.6v1.4c.7-.9,2-1.6,3.5-1.6s2.2.3,3.1,1.2l-2,2h0Z"/>
    <path class="cls-1" d="M214.3,57.1v-7.9c0-2-1.1-2.9-2.6-2.9s-2.7.9-2.7,2.8v8h-2.6v-7.9c0-2-1.1-2.9-2.6-2.9s-2.7.9-2.7,2.9v7.9h-2.6v-13h2.6v1.3c.9-1,2.1-1.5,3.5-1.5s2.9.6,3.7,1.9c1.1-1.3,2.4-1.9,4.1-1.9s2.5.4,3.3,1.2c1,1,1.4,2.2,1.4,3.7v8.3h-2.6Z"/>
    <path class="cls-1" d="M225.1,57.2c-2.1,0-3.9-.4-5.5-1.9l1.7-1.7c1.1,1.1,2.5,1.4,3.7,1.4s2.8-.6,2.8-1.8-.5-1.4-1.7-1.5l-2.1-.2c-2.4-.2-3.8-1.3-3.8-3.6s2.2-4,4.9-4,3.6.4,4.8,1.5l-1.6,1.7c-.8-.7-2-1-3.2-1s-2.4.7-2.4,1.7.4,1.4,1.8,1.5l2.1.2c2.4.2,3.9,1.4,3.9,3.7s-2.3,4.1-5.4,4.1h0Z"/>
    <path class="cls-1" d="M237.6,57.1c-2.4,0-3.6-1.7-3.6-3.6v-7.2h-1.5v-2h1.5v-4h2.6v4h2.5v2h-2.5v7c0,1,.5,1.5,1.4,1.5h1.1v2.2s-1.6,0-1.6,0Z"/>
    <path class="cls-1" d="M249.6,57.1v-1.2c-.9,1-1.8,1.3-3.5,1.3s-2.7-.4-3.5-1.2c-.7-.7-1-1.7-1-2.8,0-2.2,1.5-3.7,4.5-3.7h3.4v-.9c0-1.6-.8-2.4-2.8-2.4s-2.1.3-2.8,1.3l-1.7-1.6c1.2-1.4,2.5-1.9,4.7-1.9,3.6,0,5.4,1.5,5.4,4.5v8.7h-2.6ZM249.5,51.3h-3.1c-1.5,0-2.3.7-2.3,1.9s.7,1.8,2.4,1.8,1.7,0,2.4-.7c.4-.4.6-1,.6-1.9v-1h0Z"/>
    <path class="cls-1" d="M263.5,57.1v-1.4c-1,1.2-2,1.5-3.4,1.5s-2.5-.4-3.2-1.2c-1.3-1.3-1.5-3.5-1.5-5.5s.1-4.2,1.5-5.5c.7-.7,1.8-1.2,3.1-1.2s2.5.3,3.4,1.5v-6.6h2.6v18.2h-2.6ZM260.7,46.3c-2.4,0-2.7,2-2.7,4.3s.4,4.3,2.7,4.3,2.7-2,2.7-4.3-.3-4.3-2.7-4.3Z"/>
    <path class="cls-1" d="M273.9,57.1c-2.4,0-3.6-1.7-3.6-3.6v-7.2h-1.5v-2h1.5v-4h2.6v4h2.5v2h-2.5v7c0,1,.5,1.5,1.4,1.5h1.1v2.2h-1.6,0Z"/>
    <path class="cls-1" d="M292.8,57.1v-1.3c-.9,1-2.1,1.5-3.5,1.5s-2.4-.4-3.2-1.2c-1-1-1.3-2.2-1.3-3.7v-8.3h2.6v7.9c0,2,1.1,2.9,2.6,2.9s2.7-.9,2.7-2.9v-7.9h2.6v13h-2.6,0Z"/>
    <path class="cls-1" d="M307.1,57.1v-7.9c0-2-1.1-2.9-2.6-2.9s-2.7.9-2.7,2.9v7.9h-2.6v-13h2.6v1.3c.9-1,2.1-1.5,3.5-1.5s2.4.4,3.2,1.2c1,1,1.3,2.2,1.3,3.7v8.3h-2.6Z"/>
    <path class="cls-1" d="M313.4,41.5v-2.8h2.8v2.8h-2.8ZM313.5,57.1v-13h2.6v13s-2.6,0-2.6,0Z"/>
    <path class="cls-1" d="M325.4,57.1h-2.1l-4.8-13h2.8l3.1,9.2,3-9.2h2.8l-4.8,13h0Z"/>
    <path class="cls-1" d="M334.1,51.3c0,2.2,1.2,3.6,3.3,3.6s2.2-.4,3.1-1.3l1.7,1.6c-1.3,1.3-2.6,2-4.9,2-3.2,0-5.8-1.7-5.8-6.7s2.2-6.6,5.5-6.6,5.5,2.6,5.5,6.2v1.2h-8.4ZM339.6,47.8c-.4-1-1.3-1.6-2.6-1.6s-2.2.7-2.6,1.6c-.3.6-.3,1-.3,1.8h5.8c0-.8-.1-1.2-.4-1.8h0Z"/>
    <path class="cls-1" d="M353,47.1c-.6-.6-1-.9-2-.9-1.4,0-2.6,1.1-2.6,2.9v7.9h-2.6v-13h2.6v1.4c.7-.9,2-1.6,3.5-1.6s2.2.3,3.1,1.2c0,0-2,2-2,2Z"/>
    <path class="cls-1" d="M361.5,57.2c-2.1,0-3.9-.4-5.5-1.9l1.7-1.7c1,1.1,2.5,1.4,3.7,1.4s2.8-.6,2.8-1.8-.5-1.4-1.7-1.5l-2.1-.2c-2.4-.2-3.8-1.3-3.8-3.6s2.2-4,4.9-4,3.6.4,4.8,1.5l-1.6,1.7c-.8-.7-2-1-3.2-1s-2.4.7-2.4,1.7.4,1.4,1.8,1.5l2,.2c2.4.2,3.9,1.4,3.9,3.7s-2.3,4.1-5.4,4.1Z"/>
    <path class="cls-1" d="M369.7,41.5v-2.8h2.8v2.8h-2.8ZM369.8,57.1v-13h2.6v13s-2.6,0-2.6,0Z"/>
    <path class="cls-1" d="M380.3,57.1c-2.4,0-3.6-1.7-3.6-3.6v-7.2h-1.5v-2h1.5v-4h2.6v4h2.5v2h-2.5v7c0,1,.5,1.5,1.4,1.5h1.1v2.2h-1.6,0Z"/>
    <path class="cls-1" d="M389.8,59.7c-.3.7-.6,1.2-1,1.6-.7.7-1.7,1-2.7,1h-1v-2.4h.7c1.1,0,1.5-.3,1.9-1.4l.7-2-4.5-12.4h2.8l3.1,9.1,3-9.2h2.8l-5.7,15.6h0Z"/>
    <path class="cls-1" d="M168.2,81.3c-.8.9-2.1,1.5-3.9,1.5s-3-.7-3.9-1.5c-1.2-1.3-1.5-2.9-1.5-5.1s.3-3.8,1.5-5.1c.9-.9,2.1-1.5,3.9-1.5s3.1.7,3.9,1.5c1.2,1.3,1.5,2.9,1.5,5.1s-.3,3.8-1.5,5.1ZM166.3,72.6c-.5-.5-1.1-.7-1.9-.7s-1.4.3-1.9.7c-.8.8-.9,2.2-.9,3.6s.1,2.8.9,3.6c.5.5,1.1.8,1.9.8s1.4-.3,1.9-.8c.8-.8.9-2.2.9-3.6s-.1-2.8-.9-3.6Z"/>
    <path class="cls-1" d="M176.1,71.9v10.8h-2.6v-10.8h-1.5v-2h1.5v-2c0-1.9,1.1-3.6,3.6-3.6h1.6v2.2h-1.1c-1,0-1.4.6-1.4,1.5v1.9h2.6v2h-2.6Z"/>
    <path class="cls-1" d="M194.6,82.7v-1.2c-.9.9-1.8,1.3-3.5,1.3s-2.7-.4-3.5-1.2c-.7-.7-1-1.7-1-2.8,0-2.2,1.5-3.7,4.5-3.7h3.4v-.9c0-1.6-.8-2.4-2.8-2.4s-2.1.3-2.8,1.3l-1.7-1.6c1.2-1.4,2.5-1.9,4.7-1.9,3.6,0,5.4,1.5,5.4,4.5v8.7h-2.6ZM194.6,77h-3.1c-1.5,0-2.3.7-2.3,1.9s.7,1.8,2.4,1.8,1.7,0,2.4-.7c.4-.4.6-1,.6-1.9v-1.1h0Z"/>
    <path class="cls-1" d="M210.1,81.7c-.7.7-1.8,1.2-3.1,1.2s-2.5-.4-3.4-1.5v6.6h-2.6v-18.2h2.6v1.4c1-1.2,2-1.5,3.4-1.5s2.5.4,3.2,1.2c1.3,1.3,1.5,3.5,1.5,5.5s-.1,4.2-1.5,5.5h0ZM206.3,71.9c-2.4,0-2.7,2-2.7,4.3s.4,4.3,2.7,4.3,2.7-2,2.7-4.3-.3-4.3-2.7-4.3Z"/>
    <path class="cls-1" d="M224.2,81.7c-.7.7-1.8,1.2-3.1,1.2s-2.5-.4-3.4-1.5v6.6h-2.6v-18.2h2.6v1.4c1-1.2,2-1.5,3.4-1.5s2.5.4,3.2,1.2c1.3,1.3,1.5,3.5,1.5,5.5s-.1,4.2-1.5,5.5h0ZM220.3,71.9c-2.4,0-2.7,2-2.7,4.3s.4,4.3,2.7,4.3,2.7-2,2.7-4.3-.3-4.3-2.7-4.3Z"/>
    <path class="cls-1" d="M232.5,82.7c-2.5,0-3.6-1.7-3.6-3.6v-14.7h2.6v14.5c0,1,.4,1.5,1.4,1.5h1.1v2.2s-1.6,0-1.6,0Z"/>
    <path class="cls-1" d="M236.8,67.2v-2.8h2.8v2.8h-2.8ZM236.8,82.7v-13h2.6v13h-2.6Z"/>
    <path class="cls-1" d="M245.3,77c0,2.2,1.2,3.6,3.3,3.6s2.2-.4,3.1-1.3l1.7,1.6c-1.3,1.3-2.6,2-4.9,2-3.2,0-5.8-1.7-5.8-6.7s2.2-6.6,5.5-6.6,5.5,2.6,5.5,6.2v1.2h-8.4,0ZM250.7,73.4c-.4-1-1.3-1.6-2.6-1.6s-2.2.7-2.6,1.6c-.3.6-.3,1-.3,1.8h5.8c0-.8-.1-1.2-.4-1.8Z"/>
    <path class="cls-1" d="M264.5,82.7v-1.4c-1,1.2-2,1.5-3.4,1.5s-2.5-.4-3.2-1.2c-1.3-1.3-1.5-3.5-1.5-5.5s.1-4.2,1.5-5.5c.7-.7,1.8-1.2,3.1-1.2s2.5.3,3.4,1.5v-6.6h2.6v18.2h-2.6ZM261.8,71.9c-2.4,0-2.7,2-2.7,4.3s.4,4.3,2.7,4.3,2.7-2,2.7-4.3-.3-4.3-2.7-4.3Z"/>
    <path class="cls-1" d="M281.6,82.8c-2.1,0-3.9-.4-5.5-1.9l1.7-1.7c1,1.1,2.5,1.4,3.7,1.4s2.8-.6,2.8-1.8-.5-1.4-1.7-1.5l-2.1-.2c-2.4-.2-3.8-1.3-3.8-3.6s2.2-4,4.9-4,3.6.4,4.8,1.5l-1.6,1.7c-.8-.7-2-.9-3.2-.9s-2.4.7-2.4,1.7.4,1.4,1.8,1.5l2,.2c2.4.2,3.9,1.4,3.9,3.7s-2.3,4.1-5.4,4.1h0Z"/>
    <path class="cls-1" d="M295.3,82.8c-2.9,0-5.8-1.8-5.8-6.7s2.9-6.6,5.8-6.6,3,.5,4.3,1.8l-1.8,1.7c-.8-.9-1.5-1.2-2.5-1.2s-1.8.4-2.4,1.2c-.6.7-.8,1.6-.8,3.2s.2,2.5.8,3.2c.6.7,1.4,1.2,2.4,1.2s1.7-.3,2.5-1.2l1.8,1.7c-1.2,1.3-2.5,1.8-4.3,1.8h0Z"/>
    <path class="cls-1" d="M302.3,67.2v-2.8h2.8v2.8h-2.8ZM302.4,82.7v-13h2.6v13h-2.6Z"/>
    <path class="cls-1" d="M310.8,77c0,2.2,1.2,3.6,3.3,3.6s2.2-.4,3.1-1.3l1.7,1.6c-1.3,1.3-2.6,2-4.9,2-3.2,0-5.8-1.7-5.8-6.7s2.2-6.6,5.5-6.6,5.5,2.6,5.5,6.2v1.2h-8.4ZM316.3,73.4c-.4-1-1.3-1.6-2.6-1.6s-2.2.7-2.6,1.6c-.3.6-.3,1-.3,1.8h5.8c0-.8-.1-1.2-.4-1.8h0Z"/>
    <path class="cls-1" d="M330.4,82.7v-7.9c0-2-1.1-2.9-2.6-2.9s-2.7.9-2.7,2.9v7.9h-2.6v-13h2.6v1.3c.9-1,2.1-1.5,3.5-1.5s2.4.4,3.2,1.2c1,1,1.3,2.2,1.3,3.7v8.3h-2.6Z"/>
    <path class="cls-1" d="M342,82.8c-2.9,0-5.8-1.8-5.8-6.7s2.9-6.6,5.8-6.6,3,.5,4.3,1.8l-1.8,1.7c-.8-.9-1.5-1.2-2.5-1.2s-1.8.4-2.4,1.2c-.6.7-.8,1.6-.8,3.2s.2,2.5.8,3.2c.6.7,1.4,1.2,2.4,1.2s1.7-.3,2.5-1.2l1.8,1.7c-1.2,1.3-2.5,1.8-4.3,1.8h0Z"/>
    <path class="cls-1" d="M350.8,77c0,2.2,1.2,3.6,3.3,3.6s2.2-.4,3.1-1.3l1.7,1.6c-1.3,1.3-2.6,2-4.9,2-3.2,0-5.8-1.7-5.8-6.7s2.2-6.6,5.5-6.6,5.5,2.6,5.5,6.2v1.2h-8.4ZM356.3,73.4c-.4-1-1.3-1.6-2.6-1.6s-2.2.7-2.6,1.6c-.3.6-.3,1-.3,1.8h5.8c0-.8-.1-1.2-.4-1.8h0Z"/>
    <path class="cls-1" d="M367,82.8c-2.1,0-3.9-.4-5.5-1.9l1.7-1.7c1,1.1,2.5,1.4,3.7,1.4s2.8-.6,2.8-1.8-.5-1.4-1.7-1.5l-2.1-.2c-2.4-.2-3.8-1.3-3.8-3.6s2.2-4,4.9-4,3.6.4,4.8,1.5l-1.6,1.7c-.8-.7-2-.9-3.2-.9s-2.4.7-2.4,1.7.4,1.4,1.8,1.5l2,.2c2.4.2,3.9,1.4,3.9,3.7s-2.3,4.1-5.4,4.1h0Z"/>
    <path class="cls-1" d="M161.7,110.7h-1.3v-11.4h-1.7v-1h1.7v-2.7c0-1.9,1-3.2,3-3.2h1.1v1.2h-.9c-1.3,0-1.9.7-1.9,2.1v2.7h2.8v1h-2.8v11.4h0Z"/>
    <path class="cls-1" d="M175.1,109.5c-1.1,1.1-2,1.4-3.8,1.4s-2.8-.3-3.6-1.1c-.6-.6-.9-1.5-.9-2.4,0-2.2,1.6-3.6,4.3-3.6h4v-1.4c0-2-.9-3-3.5-3s-2.6.4-3.4,1.6l-.9-.8c1.1-1.5,2.3-1.9,4.4-1.9,3.3,0,4.8,1.5,4.8,4.1v8.4h-1.3v-1.2h0ZM171.3,104.8c-2.1,0-3.1.8-3.1,2.5s1,2.4,3.2,2.4,2.2,0,3.1-.9c.5-.4.7-1.2.7-2.4v-1.6h-3.8Z"/>
    <path class="cls-1" d="M185.8,110.8c-3.4,0-5.4-2.4-5.4-6.3s2.1-6.3,5.4-6.3,2.8.4,4.1,1.9l-.9.8c-1.1-1.2-1.9-1.6-3.2-1.6s-2.5.5-3.3,1.6c-.6.9-.9,1.9-.9,3.5s.2,2.6.9,3.5c.7,1.1,1.9,1.6,3.3,1.6s2.1-.4,3.2-1.6l.9.8c-1.3,1.5-2.4,1.9-4.1,1.9h0Z"/>
    <path class="cls-1" d="M201.5,109.2c-.9,1.1-2.1,1.6-3.6,1.6s-2.5-.4-3.3-1.2c-.9-.8-1.3-2-1.3-3.4v-7.9h1.3v7.7c0,2.4,1.2,3.7,3.4,3.7s3.5-1.3,3.5-3.7v-7.7h1.3v12.3h-1.3s0-1.5,0-1.5Z"/>
    <path class="cls-1" d="M207.3,107.5v-15h1.3v15c0,1.4.4,2.1,1.9,2.1h.9v1.2h-1.1c-2,0-3-1.3-3-3.2h0Z"/>
    <path class="cls-1" d="M214.6,107.5v-8.2h-1.7v-1h1.7v-3.9h1.3v3.9h2.8v1h-2.8v8.2c0,1.3.6,2.1,1.9,2.1h.9v1.2h-1.1c-1.9,0-3-1.4-3-3.2h0Z"/>
    <path class="cls-1" d="M225,115.5c-.6.6-1.5.8-2.3.8h-.6v-1.2h.5c1.4,0,1.8-.5,2.2-1.7l1-2.7-4.5-12.3h1.4l3.7,10.8,3.7-10.8h1.4l-5.7,15.7c-.2.7-.5,1.2-.9,1.4h0Z"/>
    <path class="cls-1" d="M245.6,110.8c-3.4,0-5.4-2.4-5.4-6.3s2.1-6.3,5.4-6.3,2.8.4,4.1,1.9l-.9.8c-1.1-1.2-1.9-1.6-3.2-1.6s-2.5.5-3.3,1.6c-.6.9-.9,1.9-.9,3.5s.2,2.6.9,3.5c.7,1.1,1.9,1.6,3.3,1.6s2.1-.4,3.2-1.6l.9.8c-1.3,1.5-2.4,1.9-4.1,1.9h0Z"/>
    <path class="cls-1" d="M260.9,109.5c-.9.9-2,1.4-3.4,1.4s-2.5-.5-3.4-1.4c-1.3-1.3-1.5-3.2-1.5-5s.2-3.7,1.5-5c.9-.9,2-1.4,3.4-1.4s2.5.5,3.4,1.4c1.3,1.3,1.5,3.2,1.5,5s-.2,3.7-1.5,5ZM260,100.4c-.7-.7-1.6-1.1-2.6-1.1s-1.9.4-2.6,1.1c-1,1-1.1,2.7-1.1,4.1s0,3.1,1.1,4.1,1.6,1.1,2.6,1.1,1.9-.4,2.6-1.1c1-1,1.1-2.7,1.1-4.1s0-3.1-1.1-4.1Z"/>
    <path class="cls-1" d="M282.8,103c0-2.4-1.2-3.7-3.4-3.7s-3.5,1.3-3.5,3.5v7.9h-1.3v-7.7c0-2.4-1.2-3.7-3.4-3.7s-3.5,1.3-3.5,3.7v7.7h-1.3v-12.3h1.3v1.5c.9-1.1,2.1-1.6,3.7-1.6s3.2.8,4,2.2c.9-1.5,2.4-2.2,4.2-2.2s2.5.4,3.2,1.2c.8.8,1.3,2,1.3,3.4v7.9h-1.3v-7.7h0Z"/>
    <path class="cls-1" d="M296.6,109.8c-.6.6-1.7,1.1-3,1.1s-2.6-.3-3.7-1.7v7.5h-1.3v-18.2h1.3v1.6c1.1-1.4,2.2-1.7,3.7-1.7s2.4.4,3,1.1c1.2,1.3,1.6,3.3,1.6,5.2s-.3,4-1.6,5.2h0ZM293.4,99.3c-3,0-3.5,2.6-3.5,5.2s.5,5.2,3.5,5.2,3.5-2.6,3.5-5.2-.5-5.2-3.5-5.2Z"/>
    <path class="cls-1" d="M310.3,109.2c-.9,1.1-2.1,1.6-3.6,1.6s-2.5-.4-3.3-1.2c-.9-.8-1.3-2-1.3-3.4v-7.9h1.3v7.7c0,2.4,1.2,3.7,3.4,3.7s3.5-1.3,3.5-3.7v-7.7h1.3v12.3h-1.3s0-1.5,0-1.5Z"/>
    <path class="cls-1" d="M316.7,107.5v-8.2h-1.7v-1h1.7v-3.9h1.3v3.9h2.8v1h-2.8v8.2c0,1.3.6,2.1,1.9,2.1h.9v1.2h-1.1c-2,0-3-1.4-3-3.2h0Z"/>
    <path class="cls-1" d="M328.7,109.7c1.5,0,2.4-.4,3.4-1.5l1,.8c-1.2,1.3-2.4,1.9-4.5,1.9-3.4,0-5.2-2.2-5.2-6.3s1.8-6.3,4.9-6.3,5,2.2,5,6v.6h-8.6c0,3.2,1.4,4.9,4,4.9h0ZM331.5,101.4c-.5-1.3-1.8-2.1-3.2-2.1s-2.7.8-3.2,2.1c-.3.8-.4,1.1-.4,2.3h7.3c0-1.2-.1-1.6-.4-2.3h0Z"/>
    <path class="cls-1" d="M341.7,99.3c-2.1,0-3.3,1.8-3.3,3.7v7.6h-1.3v-12.3h1.3v1.6c.7-1.2,2.1-1.8,3.6-1.8s2.1.3,3,1.2l-1,.9c-.7-.7-1.3-1-2.3-1h0Z"/>
    <path class="cls-1" d="M357.9,110.8c-2.1,0-3.7-.6-5-1.8l.9-.9c1,1,2.3,1.5,4,1.5s3.7-.8,3.7-2.5-.7-1.9-2.4-2.1l-2-.2c-2.5-.2-3.7-1.3-3.7-3.2s1.7-3.5,4.4-3.5,3.2.5,4.3,1.3l-.9.9c-1-.7-2.1-1.1-3.5-1.1-2,0-3.1.8-3.1,2.4s.8,1.9,2.5,2.1l2,.2c2,.2,3.6.8,3.6,3.2s-1.9,3.7-5,3.7h0Z"/>
    <path class="cls-1" d="M371.4,110.8c-3.4,0-5.4-2.4-5.4-6.3s2-6.3,5.4-6.3,2.8.4,4.1,1.9l-.9.8c-1-1.2-1.9-1.6-3.2-1.6s-2.5.5-3.3,1.6c-.6.9-.9,1.9-.9,3.5s.2,2.6.9,3.5c.7,1.1,1.9,1.6,3.3,1.6s2.1-.4,3.2-1.6l.9.8c-1.3,1.5-2.4,1.9-4.1,1.9h0Z"/>
    <path class="cls-1" d="M378.9,92.5h1.6v1.6h-1.6v-1.6ZM379,98.3h1.3v12.3h-1.3v-12.3Z"/>
    <path class="cls-1" d="M389.6,109.7c1.5,0,2.4-.4,3.4-1.5l1,.8c-1.2,1.3-2.4,1.9-4.5,1.9-3.4,0-5.2-2.2-5.2-6.3s1.8-6.3,4.9-6.3,5,2.2,5,6v.6h-8.6c0,3.2,1.4,4.9,4,4.9h0ZM392.4,101.4c-.5-1.3-1.8-2.1-3.2-2.1s-2.7.8-3.2,2.1c-.3.8-.4,1.1-.4,2.3h7.3c0-1.2-.1-1.6-.4-2.3h0Z"/>
    <path class="cls-1" d="M406.2,103c0-2.4-1.2-3.7-3.4-3.7s-3.5,1.3-3.5,3.7v7.7h-1.3v-12.3h1.3v1.5c.9-1.1,2.1-1.6,3.6-1.6s2.5.4,3.3,1.2c.9.8,1.3,2,1.3,3.4v7.9h-1.3s0-7.7,0-7.7Z"/>
    <path class="cls-1" d="M416.8,110.8c-3.4,0-5.4-2.4-5.4-6.3s2-6.3,5.4-6.3,2.8.4,4.1,1.9l-.9.8c-1-1.2-1.9-1.6-3.2-1.6s-2.5.5-3.3,1.6c-.6.9-.9,1.9-.9,3.5s.2,2.6.9,3.5c.7,1.1,1.9,1.6,3.3,1.6s2.1-.4,3.2-1.6l.9.8c-1.3,1.5-2.4,1.9-4.1,1.9h0Z"/>
    <path class="cls-1" d="M428.9,109.7c1.5,0,2.4-.4,3.4-1.5l1,.8c-1.2,1.3-2.4,1.9-4.5,1.9-3.4,0-5.2-2.2-5.2-6.3s1.8-6.3,4.9-6.3,5,2.2,5,6v.6h-8.6c0,3.2,1.4,4.9,4,4.9h0ZM431.8,101.4c-.5-1.3-1.8-2.1-3.2-2.1s-2.7.8-3.2,2.1c-.3.8-.4,1.1-.4,2.3h7.3c0-1.2-.1-1.6-.4-2.3h0Z"/>
  </g>
  <g id="eut_V1" data-name="eut V1">
    <polygon class="cls-1" points="452.2 120.2 453 120.5 485.3 .2 484.4 0 452.2 120.2"/>
    <path class="cls-1" d="M543.1,23.5c0-1,.5-1.5,1.4-1.5s1.4.5,1.4,1.5v3.4h.8v-3.5c0-.9.6-1.4,1.4-1.4s1.4.5,1.4,1.5v3.4h.8v-3.5c0-.6-.2-1.2-.6-1.5-.3-.3-.8-.5-1.4-.5s-1.4.3-1.8.9c-.3-.6-.9-.9-1.7-.9s-1.2.2-1.6.7v-.6h-.8v5.5h.8v-3.4h0Z"/>
    <path class="cls-1" d="M554.7,27c1,0,1.5-.3,2-.9l-.5-.5c-.4.4-.8.6-1.5.6-1.1,0-1.6-.7-1.6-1.9h3.7v-.4c0-1.6-.8-2.7-2.3-2.7s-2.3,1-2.3,2.8,1,2.8,2.4,2.8h0ZM553.3,22.8c.2-.5.7-.8,1.3-.8s1.1.3,1.3.8c.1.3.2.5.2.9h-2.9c0-.5,0-.6.2-.9h0Z"/>
    <path class="cls-1" d="M559.8,23.5c0-1,.5-1.5,1.4-1.5s1.4.5,1.4,1.5v3.4h.8v-3.5c0-.9.6-1.4,1.4-1.4s1.4.5,1.4,1.5v3.4h.8v-3.5c0-.6-.2-1.2-.6-1.5-.3-.3-.8-.5-1.4-.5s-1.4.3-1.8.9c-.3-.6-.9-.9-1.7-.9s-1.2.2-1.6.7v-.6h-.8v5.5h.8v-3.4h0Z"/>
    <path class="cls-1" d="M570.2,26.2c.5.6,1,.7,1.6.7s1.1-.2,1.3-.5c.6-.6.7-1.5.7-2.4s-.1-1.8-.7-2.4c-.3-.3-.8-.5-1.3-.5s-1.1.1-1.6.7v-3.1h-.8v8h.8v-.7h0ZM571.6,22c1.2,0,1.4,1,1.4,2.1s-.2,2.1-1.4,2.1-1.4-1-1.4-2.1.2-2.1,1.4-2.1Z"/>
    <path class="cls-1" d="M578.2,27c.9,0,1.5-.3,2-.9l-.5-.5c-.4.4-.8.6-1.5.6-1.1,0-1.6-.7-1.6-1.9h3.7v-.4c0-1.6-.8-2.7-2.3-2.7s-2.3,1-2.3,2.8,1,2.8,2.4,2.8h0ZM576.7,22.8c.2-.5.7-.8,1.3-.8s1.1.3,1.3.8c.1.3.2.5.2.9h-2.9c0-.5,0-.6.2-.9h0Z"/>
    <path class="cls-1" d="M583.3,23.5c0-.8.5-1.5,1.3-1.5s.7.1,1,.4l.6-.6c-.4-.4-.8-.5-1.3-.5s-1.2.3-1.5.7v-.7h-.8v5.5h.8v-3.4h0Z"/>
    <path class="cls-1" d="M592,27c.7,0,1.2-.2,1.6-.6.6-.6.7-1.4.7-2.2s-.1-1.6-.7-2.2c-.4-.4-.9-.6-1.6-.6s-1.2.2-1.6.6c-.6.6-.7,1.4-.7,2.2s.1,1.6.7,2.2c.4.4.9.6,1.6.6ZM591,22.4c.3-.3.6-.4,1-.4s.8.1,1,.4c.4.4.4,1.1.4,1.7s0,1.3-.4,1.7c-.3.3-.6.4-1,.4s-.7-.1-1-.4c-.4-.4-.5-1.1-.5-1.7s0-1.3.5-1.7Z"/>
    <path class="cls-1" d="M596.5,26.9h.8v-4.9h1.2v-.6h-1.2v-1c0-.5.2-.8.7-.8h.4v-.7h-.6c-1,0-1.4.7-1.4,1.5v1h-.7v.6h.7v4.9Z"/>
    <path class="cls-1" d="M529.2,93.3c.2-.3.4-.7.4-1.1,0-1.2-.8-1.8-2.3-1.8h-1.7v6.3h1v-2.6h.6l1.5,2.6h1.2l-1.7-2.7c.4-.1.7-.3,1-.6h0ZM526.6,93.3v-2.1h.7c.4,0,.7,0,.9.2.2.2.3.4.3.8s0,.7-.3.8c-.2.2-.5.3-.9.3h-.7,0Z"/>
    <path class="cls-1" d="M602,93.3c.2-.3.4-.7.4-1.1,0-1.2-.8-1.8-2.3-1.8h-1.6v6.3h1v-2.6h.6l1.5,2.6h1.2l-1.7-2.7c.4-.1.7-.3,1-.6h0ZM599.4,93.3v-2.1h.7c.4,0,.7,0,.9.2.2.2.3.4.3.8s0,.7-.3.8c-.2.2-.5.3-.9.3h-.7Z"/>
    <path class="cls-1" d="M593.9,101.1c-.7,0-1.3.3-1.7.9-.4.6-.6,1.4-.6,2.4s.2,1.8.6,2.4c.4.6.9.9,1.7.9s1.3-.3,1.7-.9c.4-.6.6-1.4.6-2.4s-.2-1.8-.6-2.4c-.4-.6-.9-.9-1.7-.9h0ZM594.8,106.2c-.2.4-.5.6-.9.6s-.7-.2-.9-.6-.3-1-.3-1.8,0-1.4.3-1.8.5-.6.9-.6.7.2.9.6c.2.4.3,1,.3,1.8s0,1.4-.3,1.8Z"/>
    <path class="cls-1" d="M534,101.1c-.7,0-1.3.3-1.7.9-.4.6-.6,1.4-.6,2.4s.2,1.8.6,2.4c.4.6.9.9,1.7.9s1.3-.3,1.7-.9c.4-.6.6-1.4.6-2.4s-.2-1.8-.6-2.4c-.4-.6-.9-.9-1.7-.9ZM535,106.2c-.2.4-.5.6-.9.6s-.7-.2-.9-.6-.3-1-.3-1.8,0-1.4.3-1.8c.2-.4.5-.6.9-.6s.7.2.9.6.3,1,.3,1.8,0,1.4-.3,1.8h0Z"/>
    <path class="cls-1" d="M533.9,96.8c.7,0,1.3-.3,1.7-.9.4-.6.6-1.4.6-2.4s-.2-1.8-.6-2.4-.9-.9-1.7-.9-1.3.3-1.7.9-.6,1.4-.6,2.4.2,1.8.6,2.4c.4.6.9.9,1.7.9ZM533,91.7c.2-.4.5-.6.9-.6s.7.2.9.6c.2.4.3,1,.3,1.8s0,1.4-.3,1.8c-.2.4-.5.6-.9.6s-.7-.2-.9-.6-.3-1-.3-1.8,0-1.4.3-1.8h0Z"/>
    <path class="cls-1" d="M600.4,104.8h1v1.7c-.3.2-.6.3-1,.3s-.8-.2-1.1-.6c-.2-.4-.3-1-.3-1.9s.2-1.4.4-1.8.7-.6,1.1-.6.4,0,.6.1c.2,0,.4.2.5.4l.6-.6c-.2-.2-.5-.4-.8-.6-.3-.1-.6-.2-1-.2s-.9.1-1.3.4c-.4.2-.7.6-.9,1.1s-.3,1.1-.3,1.8c0,1.1.2,1.9.6,2.4.4.6,1,.8,1.8.8s.7,0,1.1-.2.6-.2.9-.4v-3.1h-2.1v.8c0,0,.1,0,.1,0Z"/>
    <path class="cls-1" d="M522.1,94.4c0,.5,0,.9-.2,1.2s-.4.4-.8.4-.6-.1-.8-.4c-.2-.2-.2-.6-.2-1.2v-4h-1v4.2c0,.7.2,1.2.5,1.6.3.4.9.6,1.5.6s.8,0,1.1-.3c.3-.2.5-.4.7-.8.2-.3.2-.7.2-1.1v-4.2h-1v4h0Z"/>
    <polygon class="cls-1" points="616.6 91.2 618.3 91.2 618.3 96.7 619.3 96.7 619.3 91.2 621 91.2 621.2 90.4 616.6 90.4 616.6 91.2"/>
    <polygon class="cls-1" points="625.3 93.3 623.9 90.4 622.8 90.4 624.8 94.3 624.8 96.7 625.8 96.7 625.8 94.3 627.8 90.4 626.7 90.4 625.3 93.3"/>
    <polygon class="cls-1" points="514 93.8 516.2 93.8 516.2 93.1 514 93.1 514 91.2 516.5 91.2 516.6 90.4 513 90.4 513 96.7 516.6 96.7 516.6 95.8 514 95.8 514 93.8"/>
    <polygon class="cls-1" points="606.5 104.2 605.1 101.2 604 101.2 606 105.1 606 107.5 607 107.5 607 105.1 609 101.2 607.9 101.2 606.5 104.2"/>
    <polygon class="cls-1" points="611 91.2 612.3 91.2 612.3 95.8 611 95.8 611 96.7 614.6 96.7 614.6 95.8 613.3 95.8 613.3 91.2 614.6 91.2 614.6 90.4 611 90.4 611 91.2"/>
    <path class="cls-1" d="M561.1,90.4h-.9v2.9c0,.5,0,.9,0,1.3,0,.4,0,.8,0,1.2l-1.9-5.3h-1.3v6.3h.9v-2.8c0-.7,0-1.5-.1-2.5l1.9,5.3h1.3v-6.3h0Z"/>
    <polygon class="cls-1" points="538.6 107.5 539.6 107.5 539.6 104.8 541.8 104.8 541.8 104 539.6 104 539.6 102 542.2 102 542.3 101.2 538.6 101.2 538.6 107.5"/>
    <polygon class="cls-1" points="595.7 91.2 595.8 90.4 592.2 90.4 592.2 96.7 595.9 96.7 595.9 95.8 593.2 95.8 593.2 93.8 595.4 93.8 595.4 93.1 593.2 93.1 593.2 91.2 595.7 91.2"/>
    <polygon class="cls-1" points="583.1 91.2 583.1 90.4 579.6 90.4 579.6 91.2 580.9 91.2 580.9 95.8 579.6 95.8 579.6 96.7 583.1 96.7 583.1 95.8 581.8 95.8 581.8 91.2 583.1 91.2"/>
    <path class="cls-1" d="M581.8,101.1c-.7,0-1.3.3-1.7.9-.4.6-.6,1.4-.6,2.4s.2,1.8.6,2.4c.4.6.9.9,1.7.9s1.3-.3,1.7-.9c.4-.6.6-1.4.6-2.4s-.2-1.8-.6-2.4c-.4-.6-.9-.9-1.7-.9h0ZM582.7,106.2c-.2.4-.5.6-.9.6s-.7-.2-.9-.6-.3-1-.3-1.8,0-1.4.3-1.8.5-.6.9-.6.7.2.9.6.3,1,.3,1.8,0,1.4-.3,1.8Z"/>
    <polygon class="cls-1" points="569.9 103.8 568 103.8 568 101.2 567 101.2 567 107.5 568 107.5 568 104.6 569.9 104.6 569.9 107.5 570.9 107.5 570.9 101.2 569.9 101.2 569.9 103.8"/>
    <path class="cls-1" d="M563.6,106.6c-.2,0-.5.1-.7.1-.5,0-.9-.2-1.2-.6s-.5-1-.5-1.8.2-1.4.5-1.8.7-.6,1.2-.6.9.2,1.2.5l.5-.7c-.2-.2-.5-.4-.8-.5-.3,0-.6-.2-1-.2s-.9.1-1.3.4c-.4.3-.7.6-1,1.1-.2.5-.3,1.1-.3,1.8s.1,1.3.3,1.8c.2.5.5.9.9,1.1s.8.4,1.4.4c.8,0,1.4-.2,1.8-.7l-.5-.7c-.2.2-.4.3-.6.4h0Z"/>
    <path class="cls-1" d="M574.2,93.8c0-.7,0-1.5-.1-2.5l1.9,5.3h1.3v-6.3h-.9v2.9c0,.5,0,.9,0,1.3,0,.4,0,.8,0,1.2l-1.9-5.3h-1.3v6.3h.9v-2.8h0Z"/>
    <path class="cls-1" d="M569.9,94.4c0,.5,0,.9-.2,1.2s-.4.4-.8.4-.6-.1-.8-.4c-.2-.2-.2-.6-.2-1.2v-4h-1v4.2c0,.7.2,1.2.5,1.6.4.4.9.6,1.5.6s.8,0,1.1-.3c.3-.2.5-.4.7-.8.2-.3.2-.7.2-1.1v-4.2h-1v4h0Z"/>
    <path class="cls-1" d="M606.6,95.9c-.6,0-1.2-.2-1.6-.7l-.5.6c.5.6,1.3.8,2.2.8s.9,0,1.2-.2c.3-.2.6-.4.8-.7.2-.3.3-.6.3-1,0-.6-.2-1-.5-1.2-.3-.3-.7-.5-1.3-.7-.4-.1-.6-.2-.8-.3s-.3-.2-.4-.3c0-.1-.1-.3-.1-.4,0-.3,0-.5.3-.6.2-.1.5-.2.8-.2.5,0,1,.2,1.4.6l.5-.6c-.5-.5-1.2-.8-2-.8s-.7,0-1,.2c-.3.1-.5.3-.7.6-.2.3-.3.6-.3.9s.2.8.5,1.1c.3.3.8.5,1.5.7.3,0,.6.2.7.3.2,0,.3.2.4.3,0,.1.1.3.1.5,0,.3-.1.6-.3.8s-.5.3-.9.3h0Z"/>
    <polygon class="cls-1" points="548 102.1 549.8 102.1 549.8 107.5 550.8 107.5 550.8 102.1 552.5 102.1 552.6 101.2 548 101.2 548 102.1"/>
    <polygon class="cls-1" points="587.5 101.2 586.5 101.2 586.5 107.5 590 107.5 590.2 106.6 587.5 106.6 587.5 101.2"/>
    <path class="cls-1" d="M576.5,104.1c0,.5,0,.9,0,1.3,0,.4,0,.8,0,1.2l-1.9-5.3h-1.3v6.3h.9v-2.8c0-.7,0-1.5-.1-2.5l1.9,5.3h1.3v-6.3h-.9v2.8h0Z"/>
    <polygon class="cls-1" points="548.1 91.2 548.2 90.4 544.7 90.4 544.7 96.7 548.3 96.7 548.3 95.8 545.7 95.8 545.7 93.8 547.8 93.8 547.8 93.1 545.7 93.1 545.7 91.2 548.1 91.2"/>
    <polygon class="cls-1" points="587.8 95.7 586.4 90.4 585.3 90.4 587.2 96.7 588.3 96.7 590.2 90.4 589.2 90.4 587.8 95.7"/>
    <polygon class="cls-1" points="555.7 104.7 557.8 104.7 557.8 103.9 555.7 103.9 555.7 102 558.1 102 558.2 101.2 554.7 101.2 554.7 107.5 558.3 107.5 558.3 106.7 555.7 106.7 555.7 104.7"/>
    <path class="cls-1" d="M553.3,90.4h-1.2l-1.9,6.3h1l.4-1.5h2.1l.4,1.5h1l-1.9-6.3h0ZM551.9,94.3l.8-3.1.8,3.1h-1.7,0Z"/>
    <path class="cls-1" d="M540.2,90.4h-1.6v6.3h1v-2.2h.7c.7,0,1.3-.2,1.7-.5.4-.3.6-.9.6-1.6s-.2-1.2-.6-1.5-1-.5-1.8-.5h0ZM541.2,93.3c-.2.2-.5.3-.9.3h-.7v-2.4h.7c.8,0,1.3.4,1.3,1.2s-.1.8-.3,1h0Z"/>
    <polygon class="cls-1" points="629.4 62.2 629.4 54.6 624.4 54.6 624.4 62.2 616.9 62.2 616.9 67.2 624.4 67.2 624.4 74.9 629.4 74.9 629.4 67.2 636.9 67.2 636.9 62.2 629.4 62.2"/>
    <rect class="cls-1" x="600.8" y="54.6" width="4.9" height="28"/>
    <path class="cls-1" d="M589.5,82.6v-33.6h27.4v-5h-32.3v33.6h-8.9c-5.1,0-8.8-3.4-8.8-8v-25.6h-4.9v16.2c0,9.7-7.4,17.3-16.8,17.3s-13.5-3.9-15.6-10.4h11.7c8.8,0,13.5-6.3,13.5-12.5s-4.5-11.9-13.1-11.9-17.8,8.7-17.8,18.9v.4h-20v5h20.6c2.2,9.4,10.3,15.4,20.7,15.4s13.4-3.3,17.4-8.9c1.8,5.4,6.9,8.9,13.1,8.9h13.8,0ZM528.8,62.2v-.4c0-7.4,6-13.9,12.9-13.9s8.2,4.5,8.2,6.8c0,5.2-4.4,7.5-8.5,7.5h-12.5Z"/>
  </g>
</svg>