<?xml version="1.0" encoding="UTF-8"?>
<svg id="Ebene_1" data-name="Ebene 1" xmlns="http://www.w3.org/2000/svg" version="1.1" viewBox="0 0 487.7 157">
  <defs>
    <style>
      .cls-1 {
        fill: #1d1d1b;
      }

      .cls-1, .cls-2 {
        stroke-width: 0px;
      }

      .cls-2 {
        fill: #000;
      }
    </style>
  </defs>
  <g id="computer_science_4" data-name="computer science 4">
    <path class="cls-1" d="M121.7,38c0,2.3-.4,3.9-1.4,4.8-1.7,1.6-3.4,1.8-6,1.8s-5.5-1.8-5.5-4.4,1.9-4.3,5.3-4.3h7.5v2.1h0ZM131.2,52.1v-25.1c0-8.9-5.6-13.5-16.2-13.5s-10,1.2-13.8,5.3l6.1,5.9c2-2.3,3.7-3.2,7.3-3.2s7.1,1.8,7.1,6v1.9h-9c-8.9,0-13,5-13,11.1s1.1,6.4,3.1,8.6c2.3,2.3,5.4,3.4,9.7,3.4s6.8-1.1,9.4-3.7v3.3h9.3ZM82.8,33c0,6.2-.8,11-6.5,11s-6.4-4.8-6.4-11,.7-10.9,6.4-10.9,6.5,4.7,6.5,10.9M92.3,52.1V0h-9.5v17.3c-2.5-2.8-5.4-3.8-9.3-3.8s-7.2,1.3-9.3,3.4c-3.8,3.8-3.9,10.3-3.9,16s0,12.3,3.9,16.1c2.1,2.1,5.6,3.4,9.4,3.4s6.8-1.1,9.4-4v3.6h9.3,0ZM59.8,56.9h-22.7v2.2h22.7v-2.2ZM32,52.1v-24.7c0-8-4.4-13.9-12.7-13.9s-6.6,1.3-9.1,4V0H.7v52.1h9.5v-23.3c0-5,3.2-6.7,6.1-6.7s6.2,1.7,6.2,6.7v23.3s9.5,0,9.5,0Z"/>
    <path class="cls-1" d="M8.4,93.7v-1.4c-1,1.2-2.1,1.6-3.6,1.6s-2.6-.4-3.3-1.2c-1.4-1.4-1.5-3.7-1.5-5.7s.2-4.3,1.5-5.7c.7-.7,1.9-1.2,3.3-1.2s2.6.3,3.5,1.5v-6.8h2.7v18.9h-2.7,0ZM5.5,82.4c-2.4,0-2.8,2.1-2.8,4.5s.4,4.5,2.8,4.5,2.8-2.1,2.8-4.5-.3-4.5-2.8-4.5Z"/>
    <path class="cls-1" d="M22.4,93.7v-1.2c-1,1-1.9,1.4-3.6,1.4s-2.8-.4-3.6-1.2c-.7-.7-1.1-1.8-1.1-2.9,0-2.3,1.6-3.9,4.7-3.9h3.6v-1c0-1.7-.8-2.5-2.9-2.5s-2.2.3-2.9,1.3l-1.8-1.7c1.3-1.5,2.6-1.9,4.8-1.9,3.7,0,5.6,1.6,5.6,4.6v9h-2.7,0ZM22.4,87.7h-3.2c-1.6,0-2.4.7-2.4,1.9s.8,1.9,2.5,1.9,1.8,0,2.5-.8c.4-.4.6-1,.6-2v-1.1h0Z"/>
    <path class="cls-1" d="M36.4,83.4c-.6-.6-1.1-.9-2-.9-1.5,0-2.7,1.2-2.7,3v8.2h-2.7v-13.5h2.7v1.5c.7-1,2.1-1.6,3.6-1.6s2.3.3,3.2,1.3l-2.1,2.1h0Z"/>
    <path class="cls-1" d="M57.4,93.7v-8.2c0-2.1-1.2-3-2.7-3s-2.8.9-2.8,2.9v8.3h-2.7v-8.2c0-2.1-1.2-3-2.7-3s-2.8.9-2.8,3v8.2h-2.7v-13.5h2.7v1.4c.9-1,2.2-1.5,3.6-1.5s3,.7,3.8,2c1.1-1.3,2.4-2,4.2-2s2.6.4,3.4,1.2c1,1,1.4,2.3,1.4,3.8v8.6h-2.7Z"/>
    <path class="cls-1" d="M68.6,93.8c-2.2,0-4.1-.4-5.7-1.9l1.8-1.8c1.1,1.1,2.6,1.4,3.9,1.4s2.9-.6,2.9-1.9-.5-1.5-1.8-1.6l-2.1-.2c-2.5-.2-4-1.4-4-3.7s2.3-4.1,5.1-4.1,3.8.4,5,1.5l-1.7,1.7c-.9-.7-2.1-1-3.3-1s-2.4.7-2.4,1.7.4,1.4,1.9,1.5l2.1.2c2.5.2,4,1.4,4,3.8s-2.4,4.3-5.6,4.3h0Z"/>
    <path class="cls-1" d="M81.6,93.7c-2.5,0-3.7-1.8-3.7-3.8v-7.4h-1.5v-2.1h1.5v-4.1h2.7v4.1h2.6v2.1h-2.6v7.3c0,1,.5,1.6,1.5,1.6h1.1v2.3h-1.6Z"/>
    <path class="cls-1" d="M93.9,93.7v-1.2c-1,1-1.9,1.4-3.6,1.4s-2.8-.4-3.6-1.2c-.7-.7-1.1-1.8-1.1-2.9,0-2.3,1.6-3.9,4.6-3.9h3.6v-1c0-1.7-.9-2.5-2.9-2.5s-2.2.3-2.9,1.3l-1.8-1.7c1.3-1.5,2.6-1.9,4.8-1.9,3.7,0,5.6,1.6,5.6,4.6v9h-2.7,0ZM93.9,87.7h-3.2c-1.6,0-2.4.7-2.4,1.9s.8,1.9,2.5,1.9,1.8,0,2.5-.8c.4-.4.6-1,.6-2v-1.1h0Z"/>
    <path class="cls-1" d="M108.4,93.7v-1.4c-1,1.2-2.1,1.6-3.6,1.6s-2.6-.4-3.3-1.2c-1.4-1.4-1.5-3.7-1.5-5.7s.2-4.3,1.5-5.7c.7-.7,1.9-1.2,3.3-1.2s2.6.3,3.5,1.5v-6.8h2.7v18.9h-2.7ZM105.5,82.4c-2.4,0-2.8,2.1-2.8,4.5s.4,4.5,2.8,4.5,2.8-2.1,2.8-4.5-.4-4.5-2.8-4.5Z"/>
    <path class="cls-1" d="M119.2,93.7c-2.5,0-3.7-1.8-3.7-3.8v-7.4h-1.5v-2.1h1.5v-4.1h2.7v4.1h2.6v2.1h-2.6v7.3c0,1,.5,1.6,1.5,1.6h1.1v2.3h-1.6Z"/>
    <path class="cls-1" d="M138.7,93.7v-1.4c-.9,1-2.2,1.5-3.6,1.5s-2.5-.4-3.3-1.2c-1-1-1.4-2.3-1.4-3.8v-8.6h2.7v8.2c0,2.1,1.2,3,2.7,3s2.8-.9,2.8-3v-8.2h2.7v13.5h-2.7,0Z"/>
    <path class="cls-1" d="M153.6,93.7v-8.2c0-2.1-1.2-3-2.7-3s-2.8.9-2.8,3v8.2h-2.7v-13.5h2.7v1.4c.9-1,2.2-1.5,3.6-1.5s2.5.4,3.3,1.2c1,1,1.4,2.3,1.4,3.8v8.6h-2.7Z"/>
    <path class="cls-1" d="M160.1,77.5v-2.9h2.9v2.9h-2.9ZM160.2,93.7v-13.5h2.7v13.5s-2.7,0-2.7,0Z"/>
    <path class="cls-1" d="M172.6,93.7h-2.2l-4.9-13.5h2.9l3.2,9.5,3.2-9.5h2.9l-4.9,13.5h0Z"/>
    <path class="cls-1" d="M181.6,87.7c0,2.3,1.2,3.8,3.4,3.8s2.3-.4,3.3-1.4l1.7,1.6c-1.4,1.4-2.7,2.1-5.1,2.1-3.4,0-6.1-1.8-6.1-6.9s2.3-6.9,5.7-6.9,5.7,2.7,5.7,6.5v1.2h-8.8,0ZM187.3,84c-.4-1-1.4-1.7-2.7-1.7s-2.3.7-2.7,1.7c-.3.6-.3,1-.4,1.8h6.1c0-.8-.1-1.2-.4-1.8Z"/>
    <path class="cls-1" d="M201.1,83.4c-.6-.6-1.1-.9-2-.9-1.5,0-2.7,1.2-2.7,3v8.2h-2.7v-13.5h2.7v1.5c.7-1,2.1-1.6,3.6-1.6s2.3.3,3.2,1.3l-2,2.1h0Z"/>
    <path class="cls-1" d="M209.9,93.8c-2.2,0-4.1-.4-5.7-1.9l1.8-1.8c1.1,1.1,2.5,1.4,3.9,1.4s3-.6,3-1.9-.5-1.5-1.8-1.6l-2.1-.2c-2.5-.2-4-1.4-4-3.7s2.3-4.1,5.1-4.1,3.8.4,5,1.5l-1.7,1.7c-.9-.7-2-1-3.3-1s-2.5.7-2.5,1.7.4,1.4,1.9,1.5l2.1.2c2.5.2,4,1.4,4,3.8s-2.4,4.3-5.6,4.3h0Z"/>
    <path class="cls-1" d="M218.5,77.5v-2.9h2.9v2.9h-2.9ZM218.6,93.7v-13.5h2.7v13.5s-2.7,0-2.7,0Z"/>
    <path class="cls-1" d="M229.4,93.7c-2.5,0-3.7-1.8-3.7-3.8v-7.4h-1.5v-2.1h1.5v-4.1h2.7v4.1h2.6v2.1h-2.6v7.3c0,1,.5,1.6,1.5,1.6h1.1v2.3h-1.6,0Z"/>
    <path class="cls-1" d="M239.4,96.4c-.3.7-.6,1.3-1,1.7-.7.7-1.7,1-2.8,1h-1.1v-2.4h.7c1.1,0,1.5-.3,1.9-1.4l.7-2.1-4.7-12.8h2.9l3.2,9.5,3.1-9.5h2.9l-6,16.2h0Z"/>
    <path class="cls-1" d="M9.7,118.8c-.9.9-2.2,1.6-4,1.6s-3.1-.7-4-1.6C.3,117.5,0,115.8,0,113.5s.3-4,1.6-5.3c.9-.9,2.2-1.6,4-1.6s3.2.7,4,1.6c1.3,1.3,1.6,3,1.6,5.3s-.3,4-1.6,5.3ZM7.6,109.8c-.5-.5-1.2-.8-2-.8s-1.5.3-2,.8c-.8.8-.9,2.2-.9,3.7s.1,2.9.9,3.7c.5.5,1.2.8,2,.8s1.5-.3,2-.8c.8-.8.9-2.2.9-3.7s-.1-2.9-.9-3.7Z"/>
    <path class="cls-1" d="M17.8,109.1v11.2h-2.7v-11.2h-1.5v-2.1h1.5v-2.1c0-1.9,1.2-3.8,3.7-3.8h1.7v2.3h-1.2c-1,0-1.5.6-1.5,1.6v1.9h2.7v2.1h-2.7Z"/>
    <path class="cls-1" d="M37,120.2v-1.2c-1,1-1.9,1.4-3.6,1.4s-2.8-.4-3.6-1.2c-.7-.7-1.1-1.8-1.1-2.9,0-2.3,1.6-3.9,4.7-3.9h3.6v-1c0-1.7-.8-2.5-2.9-2.5s-2.2.4-2.9,1.3l-1.8-1.7c1.3-1.5,2.6-1.9,4.8-1.9,3.7,0,5.6,1.6,5.6,4.6v9h-2.7,0ZM36.9,114.3h-3.2c-1.6,0-2.4.7-2.4,1.9s.8,1.9,2.5,1.9,1.8,0,2.5-.8c.4-.4.6-1,.6-2v-1.1Z"/>
    <path class="cls-1" d="M53.1,119.2c-.7.7-1.9,1.2-3.3,1.2s-2.6-.4-3.5-1.5v6.8h-2.7v-18.9h2.7v1.4c1-1.2,2.1-1.6,3.6-1.6s2.6.4,3.3,1.2c1.4,1.4,1.5,3.6,1.5,5.7s-.2,4.4-1.5,5.7h0ZM49.1,109c-2.4,0-2.8,2.1-2.8,4.5s.4,4.5,2.8,4.5,2.8-2.1,2.8-4.5-.3-4.5-2.8-4.5Z"/>
    <path class="cls-1" d="M67.6,119.2c-.7.7-1.9,1.2-3.3,1.2s-2.6-.4-3.5-1.5v6.8h-2.7v-18.9h2.7v1.4c1-1.2,2.1-1.6,3.6-1.6s2.6.4,3.3,1.2c1.4,1.4,1.5,3.6,1.5,5.7s-.2,4.4-1.5,5.7h0ZM63.6,109c-2.4,0-2.8,2.1-2.8,4.5s.4,4.5,2.8,4.5,2.8-2.1,2.8-4.5-.4-4.5-2.8-4.5Z"/>
    <path class="cls-1" d="M76.2,120.2c-2.6,0-3.7-1.7-3.7-3.7v-15.2h2.7v15c0,1,.4,1.6,1.5,1.6h1.2v2.3h-1.7Z"/>
    <path class="cls-1" d="M80.7,104.1v-2.9h2.9v2.9h-2.9ZM80.8,120.2v-13.5h2.7v13.5h-2.7Z"/>
    <path class="cls-1" d="M89.5,114.3c0,2.3,1.2,3.8,3.4,3.8s2.3-.4,3.3-1.4l1.7,1.6c-1.4,1.4-2.7,2.1-5.1,2.1-3.4,0-6.1-1.8-6.1-6.9s2.3-6.9,5.7-6.9,5.7,2.7,5.7,6.5v1.2h-8.8,0ZM95.2,110.6c-.4-1-1.4-1.7-2.7-1.7s-2.3.7-2.7,1.7c-.3.6-.3,1-.4,1.8h6.1c0-.8-.1-1.2-.4-1.8Z"/>
    <path class="cls-1" d="M109.4,120.2v-1.4c-1,1.2-2.1,1.6-3.6,1.6s-2.6-.4-3.3-1.2c-1.4-1.4-1.5-3.7-1.5-5.7s.2-4.3,1.5-5.7,1.9-1.2,3.3-1.2,2.6.4,3.5,1.5v-6.8h2.7v18.9h-2.7ZM106.6,109c-2.4,0-2.8,2.1-2.8,4.5s.4,4.5,2.8,4.5,2.8-2.1,2.8-4.5-.4-4.5-2.8-4.5Z"/>
    <path class="cls-1" d="M127.1,120.4c-2.2,0-4.1-.4-5.7-1.9l1.8-1.8c1.1,1.1,2.6,1.4,3.9,1.4s2.9-.6,2.9-1.9-.5-1.5-1.8-1.6l-2.1-.2c-2.5-.2-4-1.4-4-3.7s2.3-4.1,5.1-4.1,3.8.4,5,1.5l-1.7,1.7c-.9-.7-2.1-1-3.3-1s-2.4.7-2.4,1.7.4,1.4,1.9,1.5l2.1.2c2.5.2,4,1.4,4,3.8s-2.4,4.3-5.6,4.3h0Z"/>
    <path class="cls-1" d="M141.4,120.4c-3,0-6-1.9-6-6.9s3-6.9,6-6.9,3.2.5,4.4,1.9l-1.9,1.8c-.9-.9-1.5-1.3-2.6-1.3s-1.9.4-2.5,1.2c-.6.7-.8,1.7-.8,3.3s.2,2.6.8,3.3c.6.8,1.5,1.2,2.5,1.2s1.7-.4,2.6-1.3l1.9,1.8c-1.3,1.4-2.6,1.9-4.4,1.9h0Z"/>
    <path class="cls-1" d="M148.7,104.1v-2.9h2.9v2.9h-2.9ZM148.7,120.2v-13.5h2.7v13.5h-2.7Z"/>
    <path class="cls-1" d="M157.5,114.3c0,2.3,1.2,3.8,3.4,3.8s2.3-.4,3.3-1.4l1.7,1.6c-1.4,1.4-2.7,2.1-5.1,2.1-3.4,0-6.1-1.8-6.1-6.9s2.3-6.9,5.7-6.9,5.7,2.7,5.7,6.5v1.2h-8.8,0ZM163.2,110.6c-.4-1-1.4-1.7-2.7-1.7s-2.3.7-2.7,1.7c-.3.6-.3,1-.4,1.8h6.1c0-.8-.1-1.2-.4-1.8Z"/>
    <path class="cls-1" d="M177.8,120.2v-8.2c0-2.1-1.2-3-2.7-3s-2.8.9-2.8,3v8.2h-2.7v-13.5h2.7v1.4c.9-1,2.2-1.5,3.6-1.5s2.5.4,3.3,1.2c1,1,1.4,2.3,1.4,3.8v8.6h-2.7Z"/>
    <path class="cls-1" d="M189.7,120.4c-3,0-6-1.9-6-6.9s3-6.9,6-6.9,3.2.5,4.4,1.9l-1.9,1.8c-.9-.9-1.5-1.3-2.6-1.3s-1.9.4-2.5,1.2c-.6.7-.8,1.7-.8,3.3s.2,2.6.8,3.3c.6.8,1.5,1.2,2.5,1.2s1.7-.4,2.6-1.3l1.9,1.8c-1.3,1.4-2.6,1.9-4.4,1.9h0Z"/>
    <path class="cls-1" d="M198.9,114.3c0,2.3,1.2,3.8,3.4,3.8s2.3-.4,3.3-1.4l1.7,1.6c-1.4,1.4-2.7,2.1-5,2.1-3.4,0-6.1-1.8-6.1-6.9s2.3-6.9,5.7-6.9,5.7,2.7,5.7,6.5v1.2h-8.8,0ZM204.6,110.6c-.4-1-1.4-1.7-2.7-1.7s-2.3.7-2.7,1.7c-.3.6-.3,1-.4,1.8h6.1c0-.8-.1-1.2-.4-1.8Z"/>
    <path class="cls-1" d="M215.7,120.4c-2.2,0-4.1-.4-5.7-1.9l1.8-1.8c1.1,1.1,2.5,1.4,3.9,1.4s3-.6,3-1.9-.5-1.5-1.8-1.6l-2.1-.2c-2.5-.2-4-1.4-4-3.7s2.3-4.1,5.1-4.1,3.8.4,5,1.5l-1.7,1.7c-.9-.7-2-1-3.3-1s-2.5.7-2.5,1.7.4,1.4,1.9,1.5l2.1.2c2.5.2,4,1.4,4,3.8s-2.4,4.3-5.6,4.3h0Z"/>
    <path class="cls-1" d="M2.8,148.2h-1.4v-11.8H-.3v-1h1.8v-2.8c0-1.9,1.1-3.4,3.1-3.4h1.2v1.2h-.9c-1.4,0-2,.8-2,2.1v2.8h2.9v1h-2.9v11.8h0Z"/>
    <path class="cls-1" d="M16.8,147c-1.1,1.1-2.1,1.4-3.9,1.4s-2.9-.3-3.8-1.2c-.6-.6-.9-1.5-.9-2.5,0-2.3,1.7-3.7,4.5-3.7h4.2v-1.4c0-2.1-1-3.1-3.6-3.1s-2.7.4-3.5,1.6l-1-.9c1.1-1.5,2.4-2,4.5-2,3.4,0,5,1.5,5,4.2v8.8h-1.4v-1.3h0ZM12.8,142.1c-2.2,0-3.3.9-3.3,2.6s1,2.5,3.3,2.5,2.3-.1,3.2-1c.5-.4.7-1.3.7-2.4v-1.6h-4Z"/>
    <path class="cls-1" d="M27.8,148.4c-3.5,0-5.6-2.5-5.6-6.6s2.1-6.6,5.6-6.6,2.9.4,4.2,2l-.9.9c-1.1-1.2-1.9-1.6-3.3-1.6s-2.6.6-3.4,1.7c-.6.9-.9,1.9-.9,3.7s.2,2.7.9,3.7c.8,1.1,1.9,1.7,3.4,1.7s2.2-.4,3.3-1.6l.9.9c-1.4,1.5-2.5,2-4.2,2Z"/>
    <path class="cls-1" d="M44.1,146.7c-1,1.1-2.2,1.7-3.8,1.7s-2.6-.4-3.4-1.2c-.9-.9-1.3-2.1-1.3-3.6v-8.2h1.4v7.9c0,2.5,1.2,3.8,3.5,3.8s3.6-1.4,3.6-3.8v-7.9h1.4v12.8h-1.4v-1.5h0Z"/>
    <path class="cls-1" d="M50.1,144.9v-15.6h1.4v15.6c0,1.5.4,2.1,2,2.1h.9v1.2h-1.2c-2.1,0-3.1-1.3-3.1-3.3h0Z"/>
    <path class="cls-1" d="M57.7,144.9v-8.4h-1.8v-1h1.8v-4.1h1.4v4.1h2.9v1h-2.9v8.5c0,1.4.6,2.1,2,2.1h.9v1.2h-1.2c-2,0-3.1-1.4-3.1-3.4h0Z"/>
    <path class="cls-1" d="M68.4,153.2c-.6.6-1.6.8-2.4.8h-.6v-1.2h.5c1.5,0,1.9-.5,2.3-1.8l1-2.8-4.7-12.8h1.5l3.9,11.2,3.9-11.2h1.5l-5.9,16.3c-.2.7-.5,1.2-.9,1.5h0Z"/>
    <path class="cls-1" d="M89.9,148.4c-3.5,0-5.6-2.5-5.6-6.6s2.1-6.6,5.6-6.6,2.9.4,4.2,2l-.9.9c-1.1-1.2-1.9-1.6-3.3-1.6s-2.6.6-3.4,1.7c-.6.9-.9,1.9-.9,3.7s.2,2.7.9,3.7c.8,1.1,1.9,1.7,3.4,1.7s2.2-.4,3.3-1.6l.9.9c-1.4,1.5-2.5,2-4.2,2Z"/>
    <path class="cls-1" d="M105.7,147c-.9.9-2.1,1.4-3.6,1.4s-2.6-.5-3.6-1.4c-1.4-1.4-1.6-3.3-1.6-5.2s.2-3.8,1.6-5.2c.9-.9,2.1-1.4,3.6-1.4s2.6.5,3.6,1.4c1.4,1.4,1.6,3.3,1.6,5.2s-.2,3.8-1.6,5.2ZM104.8,137.6c-.7-.7-1.6-1.1-2.7-1.1s-1.9.4-2.7,1.1c-1.1,1.1-1.1,2.8-1.1,4.3s0,3.2,1.1,4.3,1.6,1.1,2.7,1.1,1.9-.4,2.7-1.1c1.1-1.1,1.1-2.8,1.1-4.3s0-3.2-1.1-4.3Z"/>
    <path class="cls-1" d="M128.4,140.3c0-2.5-1.2-3.8-3.5-3.8s-3.6,1.4-3.6,3.6v8.2h-1.4v-7.9c0-2.5-1.2-3.8-3.5-3.8s-3.6,1.4-3.6,3.8v7.9h-1.4v-12.8h1.4v1.5c1-1.1,2.2-1.7,3.8-1.7s3.4.8,4.1,2.3c1-1.5,2.4-2.3,4.4-2.3s2.6.4,3.4,1.2c.9.9,1.3,2.1,1.3,3.6v8.2h-1.3v-7.9h0Z"/>
    <path class="cls-1" d="M142.7,147.3c-.7.7-1.8,1.1-3.1,1.1s-2.7-.3-3.8-1.8v7.8h-1.4v-18.9h1.4v1.6c1.1-1.5,2.3-1.8,3.8-1.8s2.5.4,3.1,1.1c1.3,1.3,1.6,3.4,1.6,5.4s-.4,4.1-1.6,5.4h0ZM139.3,136.5c-3.1,0-3.6,2.7-3.6,5.4s.5,5.4,3.6,5.4,3.6-2.7,3.6-5.4-.5-5.4-3.6-5.4Z"/>
    <path class="cls-1" d="M156.8,146.7c-1,1.1-2.2,1.7-3.8,1.7s-2.6-.4-3.4-1.2c-.9-.9-1.3-2.1-1.3-3.6v-8.2h1.4v7.9c0,2.5,1.2,3.8,3.5,3.8s3.6-1.4,3.6-3.8v-7.9h1.4v12.8h-1.4v-1.5h0Z"/>
    <path class="cls-1" d="M163.5,144.9v-8.4h-1.8v-1h1.8v-4.1h1.4v4.1h2.9v1h-2.9v8.5c0,1.4.6,2.1,2,2.1h.9v1.2h-1.2c-2,0-3.1-1.4-3.1-3.4h0Z"/>
    <path class="cls-1" d="M175.9,147.2c1.5,0,2.4-.4,3.5-1.5l1,.8c-1.3,1.3-2.5,2-4.6,2-3.5,0-5.4-2.3-5.4-6.6s1.9-6.6,5.1-6.6,5.1,2.3,5.1,6.2v.6h-8.9c0,3.3,1.4,5.1,4.2,5.1ZM178.8,138.6c-.6-1.4-1.8-2.1-3.3-2.1s-2.8.8-3.3,2.1c-.3.8-.4,1.2-.4,2.4h7.6c0-1.2-.1-1.6-.4-2.4h0Z"/>
    <path class="cls-1" d="M189.4,136.5c-2.2,0-3.4,1.8-3.4,3.9v7.9h-1.4v-12.8h1.4v1.7c.7-1.2,2.2-1.9,3.8-1.9s2.1.3,3.1,1.2l-1,1c-.8-.8-1.4-1-2.4-1h0Z"/>
    <path class="cls-1" d="M206.2,148.4c-2.2,0-3.9-.6-5.2-1.8l.9-.9c1,1,2.4,1.6,4.2,1.6s3.9-.9,3.9-2.6-.7-2-2.5-2.1l-2.1-.2c-2.6-.2-3.9-1.3-3.9-3.4s1.8-3.6,4.6-3.6,3.4.5,4.5,1.4l-.9.9c-1-.7-2.2-1.1-3.6-1.1-2.1,0-3.3.9-3.3,2.5s.8,2,2.6,2.1l2.1.2c2.1.2,3.8.9,3.8,3.4s-2,3.8-5.1,3.8h0Z"/>
    <path class="cls-1" d="M220.2,148.4c-3.5,0-5.6-2.5-5.6-6.6s2.1-6.6,5.6-6.6,2.9.4,4.2,2l-.9.9c-1.1-1.2-1.9-1.6-3.3-1.6s-2.6.6-3.4,1.7c-.6.9-.9,1.9-.9,3.7s.2,2.7.9,3.7c.8,1.1,1.9,1.7,3.4,1.7s2.2-.4,3.3-1.6l.9.9c-1.4,1.5-2.5,2-4.2,2Z"/>
    <path class="cls-1" d="M227.9,129.3h1.7v1.7h-1.7v-1.7ZM228.1,135.4h1.4v12.8h-1.4v-12.8Z"/>
    <path class="cls-1" d="M239,147.2c1.5,0,2.5-.4,3.5-1.5l1,.8c-1.3,1.3-2.5,2-4.6,2-3.5,0-5.5-2.3-5.5-6.6s1.9-6.6,5.1-6.6,5.1,2.3,5.1,6.2v.6h-8.9c0,3.3,1.4,5.1,4.2,5.1h0ZM242,138.6c-.6-1.4-1.8-2.1-3.3-2.1s-2.8.8-3.3,2.1c-.3.8-.4,1.2-.5,2.4h7.5c0-1.2-.1-1.6-.5-2.4h0Z"/>
    <path class="cls-1" d="M256.3,140.3c0-2.5-1.2-3.8-3.5-3.8s-3.6,1.4-3.6,3.8v7.9h-1.4v-12.8h1.4v1.5c1-1.1,2.2-1.7,3.8-1.7s2.5.4,3.4,1.2c.9.9,1.3,2.1,1.3,3.6v8.2h-1.4v-7.9h0Z"/>
    <path class="cls-1" d="M267.2,148.4c-3.5,0-5.6-2.5-5.6-6.6s2.1-6.6,5.6-6.6,2.9.4,4.2,2l-.9.9c-1.1-1.2-1.9-1.6-3.3-1.6s-2.6.6-3.4,1.7c-.6.9-.9,1.9-.9,3.7s.2,2.7.9,3.7c.8,1.1,1.9,1.7,3.4,1.7s2.2-.4,3.3-1.6l.9.9c-1.4,1.5-2.5,2-4.2,2Z"/>
    <path class="cls-1" d="M279.8,147.2c1.5,0,2.5-.4,3.5-1.5l1,.8c-1.3,1.3-2.5,2-4.6,2-3.5,0-5.5-2.3-5.5-6.6s1.9-6.6,5.1-6.6,5.1,2.3,5.1,6.2v.6h-8.9c0,3.3,1.4,5.1,4.2,5.1h0ZM282.7,138.6c-.6-1.4-1.8-2.1-3.3-2.1s-2.8.8-3.3,2.1c-.3.8-.4,1.2-.5,2.4h7.5c0-1.2-.1-1.6-.5-2.4h0Z"/>
  </g>
  <g id="eut_V2" data-name="eut V2">
    <polygon class="cls-2" points="303 156.7 303.8 157 336 36.7 335.2 36.5 303 156.7"/>
    <path class="cls-2" d="M393.8,60c0-1,.5-1.5,1.4-1.5s1.4.5,1.4,1.5v3.4h.8v-3.5c0-.9.6-1.4,1.4-1.4s1.4.5,1.4,1.5v3.4h.8v-3.5c0-.6-.2-1.2-.6-1.5-.3-.3-.8-.5-1.4-.5s-1.4.3-1.8.9c-.3-.6-.9-.9-1.7-.9s-1.2.2-1.6.7v-.6h-.8v5.5h.8v-3.4h0Z"/>
    <path class="cls-2" d="M405.5,63.5c1,0,1.5-.3,2-.9l-.5-.5c-.4.4-.8.6-1.5.6-1.1,0-1.6-.7-1.6-1.9h3.7v-.4c0-1.6-.8-2.7-2.3-2.7s-2.3,1.1-2.3,2.8,1,2.8,2.4,2.8h0ZM404.1,59.3c.2-.5.7-.8,1.3-.8s1.1.3,1.3.8c.1.3.1.5.2.9h-2.9c0-.4,0-.6.2-.9h0Z"/>
    <path class="cls-2" d="M410.6,60c0-1,.5-1.5,1.4-1.5s1.4.5,1.4,1.5v3.4h.8v-3.5c0-.9.6-1.4,1.4-1.4s1.4.5,1.4,1.5v3.4h.8v-3.5c0-.6-.2-1.2-.6-1.5-.3-.3-.8-.5-1.4-.5s-1.4.3-1.8.9c-.3-.6-.9-.9-1.7-.9s-1.2.2-1.6.7v-.6h-.8v5.5h.8v-3.4h0Z"/>
    <path class="cls-2" d="M420.9,62.7c.5.6,1,.7,1.6.7s1.1-.2,1.4-.5c.6-.6.7-1.5.7-2.3s-.1-1.8-.7-2.3c-.3-.3-.8-.5-1.4-.5s-1.1.1-1.6.7v-3.1h-.8v8h.8v-.7h0ZM422.3,58.5c1.2,0,1.4,1,1.4,2.1s-.2,2.1-1.4,2.1-1.4-1-1.4-2.1.2-2.1,1.4-2.1Z"/>
    <path class="cls-2" d="M428.9,63.5c.9,0,1.5-.3,2-.9l-.5-.5c-.4.4-.8.6-1.5.6-1.1,0-1.6-.7-1.6-1.9h3.7v-.4c0-1.6-.8-2.7-2.3-2.7s-2.3,1.1-2.3,2.8,1,2.8,2.4,2.8h0ZM427.5,59.3c.2-.5.7-.8,1.3-.8s1.1.3,1.3.8c.1.3.1.5.2.9h-2.9c0-.4,0-.6.2-.9h0Z"/>
    <path class="cls-2" d="M434.1,60c0-.8.5-1.5,1.3-1.5s.6,0,1,.4l.6-.6c-.4-.4-.8-.5-1.3-.5s-1.2.3-1.5.7v-.7h-.8v5.5h.8v-3.4h0Z"/>
    <path class="cls-2" d="M442.7,63.5c.7,0,1.2-.2,1.6-.6.6-.6.7-1.3.7-2.2s-.1-1.6-.7-2.2c-.4-.4-.9-.6-1.6-.6s-1.2.2-1.6.6c-.6.6-.7,1.3-.7,2.2s.1,1.6.7,2.2c.4.4.9.6,1.6.6ZM441.7,58.9c.3-.3.6-.4,1-.4s.8.2,1,.4c.4.4.4,1.1.4,1.7s0,1.3-.4,1.7c-.3.3-.6.4-1,.4s-.7-.2-1-.4c-.4-.4-.5-1.1-.5-1.7s0-1.3.5-1.7Z"/>
    <path class="cls-2" d="M447.3,63.4h.8v-4.9h1.2v-.6h-1.2v-1c0-.5.2-.8.7-.8h.4v-.7h-.6c-1,0-1.4.7-1.4,1.5v1.1h-.7v.6h.7v4.9h0Z"/>
    <path class="cls-2" d="M380,129.8c.2-.3.4-.7.4-1.1,0-1.2-.8-1.8-2.3-1.8h-1.6v6.3h1v-2.6h.6l1.5,2.6h1.2l-1.7-2.7c.4-.1.7-.3,1-.6h0ZM377.4,129.8v-2.1h.7c.4,0,.7,0,.9.2.2.2.3.4.3.8s-.1.7-.3.8c-.2.2-.5.3-.9.3h-.7,0Z"/>
    <path class="cls-2" d="M452.8,129.8c.2-.3.4-.7.4-1.1,0-1.2-.8-1.8-2.3-1.8h-1.6v6.3h1v-2.6h.6l1.5,2.6h1.2l-1.7-2.7c.4-.1.7-.3,1-.6h0ZM450.2,129.8v-2.1h.7c.4,0,.7,0,.9.2.2.2.3.4.3.8s0,.7-.3.8c-.2.2-.5.3-.9.3h-.7Z"/>
    <path class="cls-2" d="M444.7,137.6c-.7,0-1.3.3-1.7.9s-.6,1.4-.6,2.4.2,1.8.6,2.4c.4.6.9.9,1.7.9s1.3-.3,1.7-.9c.4-.6.6-1.4.6-2.4s-.2-1.8-.6-2.4c-.4-.6-.9-.9-1.7-.9h0ZM445.6,142.7c-.2.4-.5.6-.9.6s-.7-.2-.9-.6c-.2-.4-.3-1-.3-1.8s.1-1.4.3-1.9c.2-.4.5-.6.9-.6s.7.2.9.6c.2.4.3,1,.3,1.8s0,1.4-.3,1.8h0Z"/>
    <path class="cls-2" d="M384.8,137.6c-.7,0-1.3.3-1.7.9s-.6,1.4-.6,2.4.2,1.8.6,2.4c.4.6.9.9,1.7.9s1.3-.3,1.7-.9c.4-.6.6-1.4.6-2.4s-.2-1.8-.6-2.4c-.4-.6-.9-.9-1.7-.9ZM385.7,142.7c-.2.4-.5.6-.9.6s-.7-.2-.9-.6-.3-1-.3-1.8.1-1.4.3-1.8c.2-.4.5-.6.9-.6s.7.2.9.6c.2.4.3,1,.3,1.8s-.1,1.4-.3,1.8h0Z"/>
    <path class="cls-2" d="M384.7,133.3c.7,0,1.3-.3,1.7-.9.4-.6.6-1.4.6-2.4s-.2-1.8-.6-2.4c-.4-.6-.9-.9-1.7-.9s-1.3.3-1.7.9-.6,1.4-.6,2.4.2,1.8.6,2.4c.4.6.9.9,1.7.9ZM383.7,128.2c.2-.4.5-.6.9-.6s.7.2.9.6c.2.4.3,1,.3,1.8s-.1,1.4-.3,1.8-.5.6-.9.6-.7-.2-.9-.6c-.2-.4-.3-1-.3-1.8s.1-1.4.3-1.9h0Z"/>
    <path class="cls-2" d="M451.2,141.3h1v1.7c-.3.2-.6.3-1,.3s-.8-.2-1.1-.6c-.2-.4-.3-1-.3-1.9s.2-1.4.4-1.8.7-.6,1.1-.6.4,0,.6.1c.2,0,.4.2.5.4l.6-.6c-.2-.2-.5-.4-.8-.6-.3-.1-.6-.2-1-.2s-.9.1-1.3.4c-.4.2-.7.6-.9,1.1s-.3,1.1-.3,1.8c0,1.1.2,1.9.6,2.4.4.6,1,.8,1.8.8s.7,0,1.1-.1c.3-.1.6-.2.9-.4v-3.1h-2.1v.8c0,0,.1,0,.1,0Z"/>
    <path class="cls-2" d="M372.9,130.9c0,.5,0,.9-.2,1.2s-.4.4-.8.4-.6-.1-.8-.4c-.2-.2-.2-.6-.2-1.2v-4h-1v4.2c0,.7.2,1.2.5,1.6.4.4.9.6,1.5.6s.8,0,1.1-.3c.3-.2.5-.4.7-.8.2-.3.2-.7.2-1.1v-4.2h-1v4h0Z"/>
    <polygon class="cls-2" points="467.3 127.7 469.1 127.7 469.1 133.1 470.1 133.1 470.1 127.7 471.8 127.7 471.9 126.9 467.3 126.9 467.3 127.7"/>
    <polygon class="cls-2" points="476.1 129.8 474.7 126.9 473.6 126.9 475.5 130.8 475.5 133.1 476.5 133.1 476.5 130.8 478.5 126.9 477.5 126.9 476.1 129.8"/>
    <polygon class="cls-2" points="364.8 130.3 366.9 130.3 366.9 129.6 364.8 129.6 364.8 127.7 367.2 127.7 367.3 126.9 363.8 126.9 363.8 133.1 367.4 133.1 367.4 132.3 364.8 132.3 364.8 130.3"/>
    <polygon class="cls-2" points="457.3 140.7 455.9 137.7 454.8 137.7 456.8 141.6 456.8 144 457.8 144 457.8 141.6 459.7 137.7 458.7 137.7 457.3 140.7"/>
    <polygon class="cls-2" points="461.8 127.7 463 127.7 463 132.3 461.8 132.3 461.8 133.1 465.3 133.1 465.3 132.3 464 132.3 464 127.7 465.3 127.7 465.3 126.9 461.8 126.9 461.8 127.7"/>
    <path class="cls-2" d="M411.9,126.9h-.9v2.9c0,.5,0,.9,0,1.3s0,.8.1,1.2l-1.9-5.3h-1.3v6.3h.9v-2.9c0-.7,0-1.5-.1-2.5l1.9,5.3h1.3v-6.3Z"/>
    <polygon class="cls-2" points="389.4 144 390.4 144 390.4 141.3 392.6 141.3 392.6 140.5 390.4 140.5 390.4 138.5 392.9 138.5 393 137.7 389.4 137.7 389.4 144"/>
    <polygon class="cls-2" points="446.5 127.7 446.6 126.9 443 126.9 443 133.1 446.6 133.1 446.6 132.3 444 132.3 444 130.3 446.2 130.3 446.2 129.6 444 129.6 444 127.7 446.5 127.7"/>
    <polygon class="cls-2" points="433.9 127.7 433.9 126.9 430.3 126.9 430.3 127.7 431.6 127.7 431.6 132.3 430.3 132.3 430.3 133.1 433.9 133.1 433.9 132.3 432.6 132.3 432.6 127.7 433.9 127.7"/>
    <path class="cls-2" d="M432.6,137.6c-.7,0-1.3.3-1.7.9s-.6,1.4-.6,2.4.2,1.8.6,2.4c.4.6.9.9,1.7.9s1.3-.3,1.7-.9c.4-.6.6-1.4.6-2.4s-.2-1.8-.6-2.4c-.4-.6-.9-.9-1.7-.9h0ZM433.5,142.7c-.2.4-.5.6-.9.6s-.7-.2-.9-.6c-.2-.4-.3-1-.3-1.8s.1-1.4.3-1.9c.2-.4.5-.6.9-.6s.7.2.9.6c.2.4.3,1,.3,1.8s-.1,1.4-.3,1.8h0Z"/>
    <polygon class="cls-2" points="420.7 140.3 418.7 140.3 418.7 137.7 417.7 137.7 417.7 144 418.7 144 418.7 141.1 420.7 141.1 420.7 144 421.7 144 421.7 137.7 420.7 137.7 420.7 140.3"/>
    <path class="cls-2" d="M414.4,143.1c-.2,0-.5.1-.7.1-.5,0-.9-.2-1.2-.6s-.5-1-.5-1.8.1-1.4.5-1.8c.3-.4.7-.6,1.2-.6s.9.1,1.2.5l.5-.6c-.2-.2-.5-.4-.8-.5-.3-.1-.6-.1-1-.1s-.9.1-1.3.4c-.4.3-.7.6-1,1.1-.2.5-.4,1.1-.4,1.8s.1,1.3.3,1.8.5.9.9,1.1.9.4,1.4.4c.8,0,1.4-.2,1.9-.7l-.5-.6c-.2.2-.4.3-.6.4h0Z"/>
    <path class="cls-2" d="M425,130.3c0-.7,0-1.5-.1-2.5l1.9,5.3h1.3v-6.3h-.9v2.9c0,.5,0,.9,0,1.3s0,.8.1,1.2l-1.9-5.3h-1.3v6.3h.9v-2.9h0Z"/>
    <path class="cls-2" d="M420.7,130.9c0,.5,0,.9-.2,1.2s-.4.4-.8.4-.6-.1-.8-.4c-.2-.2-.2-.6-.2-1.2v-4h-1v4.2c0,.7.2,1.2.5,1.6.4.4.9.6,1.5.6s.8,0,1.1-.3c.3-.2.5-.4.7-.8.2-.3.2-.7.2-1.1v-4.2h-1v4h0Z"/>
    <path class="cls-2" d="M457.3,132.4c-.6,0-1.2-.2-1.6-.6l-.5.6c.5.6,1.3.8,2.2.8s.9,0,1.2-.2.6-.4.8-.7c.2-.3.3-.6.3-1,0-.6-.2-1-.5-1.2-.3-.3-.7-.5-1.3-.7-.4-.1-.6-.2-.8-.3s-.3-.2-.4-.3c0-.1-.1-.3-.1-.4,0-.3,0-.5.3-.6.2-.1.5-.2.8-.2.5,0,1,.2,1.4.6l.5-.6c-.5-.5-1.2-.8-2-.8s-.7,0-1,.2c-.3.1-.5.3-.7.6-.2.3-.3.6-.3.9s.2.8.5,1.1c.3.3.8.5,1.5.7.3.1.6.2.7.3s.3.2.4.3c0,.1.1.3.1.5,0,.3-.1.6-.3.8s-.5.3-.9.3h0Z"/>
    <polygon class="cls-2" points="398.8 138.6 400.6 138.6 400.6 144 401.6 144 401.6 138.6 403.3 138.6 403.4 137.7 398.8 137.7 398.8 138.6"/>
    <polygon class="cls-2" points="438.3 137.7 437.3 137.7 437.3 144 440.8 144 440.9 143.1 438.3 143.1 438.3 137.7"/>
    <path class="cls-2" d="M427.2,140.6c0,.5,0,.9,0,1.3s0,.8.1,1.2l-1.9-5.3h-1.3v6.3h.9v-2.9c0-.7,0-1.5-.1-2.5l1.9,5.3h1.3v-6.3h-.9v2.9h0Z"/>
    <polygon class="cls-2" points="398.9 127.7 399 126.9 395.4 126.9 395.4 133.1 399.1 133.1 399.1 132.3 396.4 132.3 396.4 130.3 398.6 130.3 398.6 129.6 396.4 129.6 396.4 127.7 398.9 127.7"/>
    <polygon class="cls-2" points="438.6 132.1 437.2 126.9 436.1 126.9 438 133.1 439.1 133.1 441 126.9 440 126.9 438.6 132.1"/>
    <polygon class="cls-2" points="406.4 141.2 408.6 141.2 408.6 140.4 406.4 140.4 406.4 138.5 408.9 138.5 409 137.7 405.4 137.7 405.4 144 409 144 409 143.2 406.4 143.2 406.4 141.2"/>
    <path class="cls-2" d="M404.1,126.9h-1.2l-1.9,6.3h1l.4-1.5h2.1l.4,1.5h1l-1.9-6.3h0ZM402.6,130.8l.9-3.1.9,3.1h-1.7Z"/>
    <path class="cls-2" d="M391,126.9h-1.6v6.3h1v-2.2h.7c.7,0,1.3-.2,1.7-.5.4-.3.6-.9.6-1.6s-.2-1.1-.6-1.5-1-.5-1.8-.5h0ZM392,129.8c-.2.2-.5.3-.9.3h-.7v-2.4h.7c.9,0,1.3.4,1.3,1.2s-.1.8-.3,1h0Z"/>
    <polygon class="cls-2" points="480.1 98.7 480.1 91.1 475.2 91.1 475.2 98.7 467.7 98.7 467.7 103.7 475.2 103.7 475.2 111.4 480.1 111.4 480.1 103.7 487.7 103.7 487.7 98.7 480.1 98.7"/>
    <rect class="cls-2" x="451.5" y="91.1" width="4.9" height="28.1"/>
    <path class="cls-2" d="M440.3,119.1v-33.6h27.4v-5h-32.3v33.6h-8.9c-5.1,0-8.8-3.4-8.8-8v-25.6h-4.9v16.2c0,9.7-7.4,17.4-16.8,17.4s-13.5-3.9-15.6-10.4h11.7c8.9,0,13.5-6.3,13.5-12.5s-4.5-11.8-13.1-11.8-17.8,8.7-17.8,18.9v.4h-20v5h20.6c2.2,9.4,10.3,15.4,20.7,15.4s13.4-3.3,17.4-8.9c1.8,5.4,6.9,8.9,13.1,8.9h13.8,0ZM379.6,98.7v-.4c0-7.4,6-13.9,12.9-13.9s8.2,4.5,8.2,6.8c0,5.2-4.4,7.5-8.5,7.5h-12.5,0Z"/>
  </g>
</svg>