<?xml version="1.0" encoding="UTF-8"?>
<svg id="Ebene_1" data-name="Ebene 1" xmlns="http://www.w3.org/2000/svg" version="1.1" viewBox="0 0 334.9 172.4">
  <defs>
    <style>
      .cls-1 {
        fill: #1d1d1b;
      }

      .cls-1, .cls-2 {
        stroke-width: 0px;
      }

      .cls-2 {
        fill: #000;
      }
    </style>
  </defs>
  <g id="media_2" data-name="media 2">
    <path class="cls-1" d="M121.7,38c0,2.3-.4,3.9-1.4,4.8-1.7,1.6-3.4,1.8-6,1.8s-5.5-1.8-5.5-4.4,1.9-4.3,5.3-4.3h7.5v2.1h0ZM131.2,52.1v-25.1c0-8.9-5.6-13.5-16.2-13.5s-10,1.2-13.8,5.3l6.1,5.9c2-2.3,3.7-3.2,7.3-3.2s7.1,1.8,7.1,6v1.9h-9c-8.9,0-13,5-13,11.1s1.1,6.4,3.1,8.6c2.3,2.3,5.4,3.4,9.7,3.4s6.8-1.1,9.4-3.7v3.3h9.3ZM82.8,33c0,6.2-.8,11-6.5,11s-6.4-4.8-6.4-11,.7-10.9,6.4-10.9,6.5,4.7,6.5,10.9M92.3,52.1V0h-9.5v17.3c-2.5-2.8-5.4-3.8-9.3-3.8s-7.2,1.3-9.3,3.4c-3.8,3.8-3.9,10.3-3.9,16s0,12.3,3.9,16.1c2.1,2.1,5.6,3.4,9.4,3.4s6.8-1.1,9.4-4v3.6h9.3ZM59.8,56.9h-22.7v2.2h22.7v-2.2ZM32,52.1v-24.7c0-8.1-4.4-13.9-12.7-13.9s-6.6,1.3-9.1,3.9V0H.7v52.1h9.5v-23.3c0-5,3.1-6.7,6.1-6.7s6.2,1.7,6.2,6.7v23.3h9.5Z"/>
    <g>
      <path class="cls-1" d="M8.8,93.7v-8.3c0-2.1-1.2-2.9-2.7-2.9s-2.7.9-2.7,2.9v8.3H.6v-18.9h2.7v6.8c.9-1,2.1-1.5,3.5-1.5,3,0,4.7,2,4.7,4.9v8.7h-2.7Z"/>
      <path class="cls-1" d="M24.5,92.2c-.9.9-2.2,1.6-4,1.6s-3.1-.7-4-1.6c-1.3-1.3-1.6-3-1.6-5.3s.3-4,1.6-5.3c.9-.9,2.2-1.6,4-1.6s3.2.7,4,1.6c1.3,1.3,1.6,3,1.6,5.3s-.3,4-1.6,5.3ZM22.4,83.2c-.5-.5-1.2-.8-2-.8s-1.5.3-2,.8c-.8.8-.9,2.2-.9,3.7s.1,2.9.9,3.7c.5.5,1.2.8,2,.8s1.5-.3,2-.8c.8-.8.9-2.2.9-3.7s-.1-2.9-.9-3.7Z"/>
      <path class="cls-1" d="M34.9,93.8c-3,0-6-1.9-6-6.9s3-6.9,6-6.9,3.2.5,4.4,1.9l-1.9,1.8c-.9-.9-1.5-1.3-2.6-1.3s-1.9.4-2.5,1.2c-.6.7-.8,1.7-.8,3.3s.2,2.6.8,3.3c.6.8,1.5,1.2,2.5,1.2s1.7-.4,2.6-1.3l1.9,1.8c-1.3,1.4-2.6,1.9-4.4,1.9h0Z"/>
      <path class="cls-1" d="M50.5,93.7v-8.3c0-2.1-1.2-2.9-2.7-2.9s-2.7.9-2.7,2.9v8.3h-2.7v-18.9h2.7v6.8c.9-1,2.1-1.5,3.5-1.5,3,0,4.7,2,4.7,4.9v8.7h-2.8Z"/>
      <path class="cls-1" d="M61.6,93.8c-2.2,0-4.1-.4-5.7-1.9l1.8-1.8c1.1,1.1,2.5,1.4,3.9,1.4s3-.6,3-1.9-.5-1.5-1.8-1.6l-2.1-.2c-2.5-.2-4-1.4-4-3.7s2.3-4.1,5.1-4.1,3.8.4,5,1.5l-1.7,1.7c-.9-.7-2-1-3.3-1s-2.5.7-2.5,1.7.4,1.4,1.9,1.5l2.1.2c2.5.2,4,1.4,4,3.8s-2.4,4.3-5.6,4.3h-.1Z"/>
      <path class="cls-1" d="M75.9,93.8c-3,0-6-1.9-6-6.9s3-6.9,6-6.9,3.2.5,4.4,1.9l-1.9,1.8c-.9-.9-1.5-1.3-2.6-1.3s-1.9.4-2.5,1.2c-.6.7-.8,1.7-.8,3.3s.2,2.6.8,3.3c.6.8,1.5,1.2,2.5,1.2s1.7-.4,2.6-1.3l1.9,1.8c-1.3,1.4-2.6,1.9-4.4,1.9h0Z"/>
      <path class="cls-1" d="M91.4,93.7v-8.3c0-2.1-1.2-2.9-2.7-2.9s-2.7.9-2.7,2.9v8.3h-2.7v-18.9h2.7v6.8c.9-1,2.1-1.5,3.5-1.5,3,0,4.7,2,4.7,4.9v8.7h-2.8Z"/>
      <path class="cls-1" d="M106.1,93.7v-1.4c-.9,1-2.2,1.5-3.6,1.5s-2.5-.4-3.3-1.2c-1-1-1.4-2.3-1.4-3.8v-8.6h2.7v8.2c0,2.1,1.2,3,2.7,3s2.8-.9,2.8-3v-8.2h2.7v13.5h-2.7.1Z"/>
      <path class="cls-1" d="M116.4,93.7c-2.6,0-3.7-1.7-3.7-3.7v-15.2h2.7v15c0,1,.4,1.6,1.5,1.6h1.2v2.3s-1.7,0-1.7,0Z"/>
      <path class="cls-1" d="M122.9,87.7c0,2.3,1.2,3.8,3.4,3.8s2.3-.4,3.3-1.4l1.7,1.6c-1.4,1.4-2.7,2.1-5,2.1-3.4,0-6.1-1.8-6.1-6.9s2.3-6.9,5.7-6.9,5.7,2.7,5.7,6.5v1.2h-8.8,0ZM128.5,84c-.4-1-1.4-1.7-2.7-1.7s-2.3.7-2.7,1.7c-.3.6-.3,1-.4,1.8h6.1c0-.8-.1-1.2-.4-1.8h0Z"/>
      <path class="cls-1" d="M8.4,120.2v-1.4c-1,1.2-2.1,1.6-3.6,1.6s-2.6-.4-3.3-1.2C0,117.8,0,115.5,0,113.5s.2-4.3,1.5-5.7c1.3-1.4,1.9-1.2,3.3-1.2s2.6.4,3.5,1.5v-6.8h2.7v18.9h-2.7.1ZM5.5,109c-2.4,0-2.8,2.1-2.8,4.5s.4,4.5,2.8,4.5,2.8-2.1,2.8-4.5-.4-4.5-2.8-4.5Z"/>
      <path class="cls-1" d="M22.4,120.2v-1.2c-1,1-1.9,1.4-3.6,1.4s-2.8-.4-3.6-1.2c-.7-.7-1.1-1.8-1.1-2.9,0-2.3,1.6-3.9,4.6-3.9h3.6v-1c0-1.7-.9-2.5-3-2.5s-2.2.4-3,1.3l-1.8-1.7c1.3-1.5,2.6-1.9,4.8-1.9,3.7,0,5.5,1.6,5.5,4.6v9h-2.7.3ZM22.4,114.3h-3.2c-1.6,0-2.4.7-2.4,1.9s.8,1.9,2.5,1.9,1.8,0,2.5-.8c.4-.4.6-1,.6-2v-1.1h0Z"/>
      <path class="cls-1" d="M36.4,109.9c-.6-.6-1.1-.9-2-.9-1.5,0-2.7,1.2-2.7,3v8.2h-2.7v-13.5h2.7v1.5c.7-1,2.1-1.6,3.6-1.6s2.3.4,3.2,1.3l-2,2.1h0Z"/>
      <path class="cls-1" d="M57.4,120.2v-8.2c0-2.1-1.2-3-2.7-3s-2.8.9-2.8,2.9v8.4h-2.7v-8.2c0-2.1-1.2-3-2.7-3s-2.8.9-2.8,3v8.2h-2.7v-13.5h2.7v1.4c.9-1,2.2-1.5,3.6-1.5s3,.7,3.8,2c1.1-1.3,2.5-2,4.2-2s2.6.4,3.4,1.2c1,1,1.4,2.3,1.4,3.8v8.6h-2.7Z"/>
      <path class="cls-1" d="M68.6,120.4c-2.2,0-4.1-.4-5.7-1.9l1.8-1.8c1.1,1.1,2.5,1.4,3.9,1.4s3-.6,3-1.9-.5-1.5-1.8-1.6l-2.1-.2c-2.5-.2-4-1.4-4-3.7s2.3-4.1,5.1-4.1,3.8.4,5,1.5l-1.7,1.7c-.9-.7-2-1-3.3-1s-2.5.7-2.5,1.7.4,1.4,1.9,1.5l2.1.2c2.5.2,4,1.4,4,3.8s-2.4,4.3-5.6,4.3h0Z"/>
      <path class="cls-1" d="M81.5,120.2c-2.5,0-3.7-1.8-3.7-3.8v-7.4h-1.5v-2.1h1.5v-4.1h2.7v4.1h2.6v2.1h-2.6v7.3c0,1,.5,1.6,1.5,1.6h1.1v2.3h-1.6Z"/>
      <path class="cls-1" d="M93.9,120.2v-1.2c-1,1-1.9,1.4-3.6,1.4s-2.8-.4-3.6-1.2-1.1-1.8-1.1-2.9c0-2.3,1.6-3.9,4.6-3.9h3.6v-1c0-1.7-.9-2.5-3-2.5s-2.2.4-3,1.3l-1.8-1.7c1.3-1.5,2.6-1.9,4.8-1.9,3.7,0,5.5,1.6,5.5,4.6v9h-2.7.3ZM93.9,114.3h-3.2c-1.6,0-2.4.7-2.4,1.9s.8,1.9,2.5,1.9,1.8,0,2.5-.8c.4-.4.6-1,.6-2v-1.1h0Z"/>
      <path class="cls-1" d="M108.4,120.2v-1.4c-1,1.2-2.1,1.6-3.6,1.6s-2.5-.4-3.3-1.2c-1.4-1.4-1.5-3.7-1.5-5.7s.2-4.3,1.5-5.7c.7-.7,1.9-1.2,3.3-1.2s2.5.4,3.5,1.5v-6.8h2.7v18.9h-2.7,0ZM105.5,109c-2.5,0-2.8,2.1-2.8,4.5s.4,4.5,2.8,4.5,2.8-2.1,2.8-4.5-.4-4.5-2.8-4.5Z"/>
      <path class="cls-1" d="M119.1,120.2c-2.5,0-3.7-1.8-3.7-3.8v-7.4h-1.5v-2.1h1.5v-4.1h2.7v4.1h2.6v2.1h-2.6v7.3c0,1,.5,1.6,1.5,1.6h1.1v2.3h-1.6Z"/>
      <path class="cls-1" d="M2.8,146.8h-1.4v-11.8H-.3v-1h1.8v-2.8c0-1.9,1.1-3.4,3.1-3.4h1.2v1.2h-.9c-1.4,0-2,.8-2,2.1v2.8h2.9v1h-2.9v11.8h-.1Z"/>
      <path class="cls-1" d="M16.8,145.6c-1.1,1.1-2.1,1.4-3.9,1.4s-2.9-.3-3.8-1.2c-.6-.6-.9-1.5-.9-2.5,0-2.3,1.7-3.7,4.5-3.7h4.2v-1.4c0-2.1-1-3.1-3.6-3.1s-2.7.4-3.5,1.6l-1-.9c1.1-1.5,2.4-2,4.5-2,3.4,0,5,1.5,5,4.2v8.8h-1.4v-1.3h-.1ZM12.8,140.7c-2.2,0-3.3.9-3.3,2.6s1,2.5,3.4,2.5,2.3-.1,3.2-1c.5-.4.7-1.3.7-2.4v-1.6h-4Z"/>
      <path class="cls-1" d="M27.8,147c-3.5,0-5.6-2.5-5.6-6.6s2.1-6.6,5.6-6.6,2.9.4,4.2,2l-.9.9c-1.1-1.2-1.9-1.6-3.3-1.6s-2.6.6-3.4,1.7c-.6.9-.9,1.9-.9,3.7s.2,2.7.9,3.7c.8,1.1,1.9,1.7,3.4,1.7s2.2-.4,3.3-1.6l.9.9c-1.4,1.5-2.5,2-4.2,2v-.2Z"/>
      <path class="cls-1" d="M44.2,138.9c0-2.5-1.2-3.8-3.5-3.8s-3.6,1.4-3.6,3.8v7.9h-1.4v-18.9h1.4v7.6c1-1.1,2.2-1.7,3.8-1.7,3,0,4.7,1.8,4.7,4.8v8.2h-1.4v-7.9h0Z"/>
      <path class="cls-1" d="M58.4,145.9c-.7.7-1.8,1.1-3.1,1.1s-2.7-.3-3.8-1.8v1.6h-1.4v-18.9h1.4v7.8c1.1-1.5,2.3-1.8,3.8-1.8s2.5.4,3.1,1.1c1.3,1.3,1.6,3.4,1.6,5.4s-.4,4.1-1.6,5.4h0ZM55.1,135c-3.1,0-3.6,2.7-3.6,5.4s.5,5.4,3.6,5.4,3.6-2.7,3.6-5.4-.5-5.4-3.6-5.4Z"/>
      <path class="cls-1" d="M69.1,145.8c1.5,0,2.5-.4,3.5-1.5l1,.8c-1.3,1.3-2.5,2-4.6,2-3.5,0-5.5-2.3-5.5-6.6s1.9-6.6,5.1-6.6,5.1,2.3,5.1,6.2v.6h-8.9c0,3.3,1.4,5.1,4.2,5.1h.1ZM72,137.2c-.6-1.4-1.8-2.1-3.3-2.1s-2.8.8-3.3,2.1c-.3.8-.4,1.2-.5,2.4h7.5c0-1.2,0-1.6-.5-2.4h.1Z"/>
      <path class="cls-1" d="M82.6,135.1c-2.2,0-3.4,1.8-3.4,3.9v7.9h-1.4v-12.8h1.4v1.7c.7-1.2,2.2-1.9,3.8-1.9s2.1.3,3.1,1.2l-1,1c-.8-.8-1.4-1-2.4-1h0Z"/>
      <path class="cls-1" d="M93.5,145.8c1.5,0,2.5-.4,3.5-1.5l1,.8c-1.3,1.3-2.5,2-4.6,2-3.5,0-5.5-2.3-5.5-6.6s1.9-6.6,5.1-6.6,5.1,2.3,5.1,6.2v.6h-8.9c0,3.3,1.4,5.1,4.2,5.1h.1ZM96.4,137.2c-.6-1.4-1.8-2.1-3.3-2.1s-2.8.8-3.3,2.1c-.3.8-.4,1.2-.5,2.4h7.5c0-1.2,0-1.6-.5-2.4h.1Z"/>
      <path class="cls-1" d="M102,127.9h1.7v1.7h-1.7v-1.7ZM102.2,134h1.4v12.8h-1.4v-12.8Z"/>
      <path class="cls-1" d="M113.2,147c-3.5,0-5.6-2.5-5.6-6.6s2.1-6.6,5.6-6.6,2.9.4,4.2,2l-.9.9c-1.1-1.2-1.9-1.6-3.3-1.6s-2.6.6-3.4,1.7c-.6.9-.9,1.9-.9,3.7s.2,2.7.9,3.7c.8,1.1,1.9,1.7,3.4,1.7s2.2-.4,3.3-1.6l.9.9c-1.4,1.5-2.5,2-4.2,2v-.2Z"/>
      <path class="cls-1" d="M129.6,138.9c0-2.5-1.2-3.8-3.5-3.8s-3.6,1.4-3.6,3.8v7.9h-1.4v-18.9h1.4v7.6c1-1.1,2.2-1.7,3.8-1.7,3,0,4.7,1.8,4.7,4.8v8.2h-1.4v-7.9h0Z"/>
      <path class="cls-1" d="M18.1,165.4c0-2.5-1.2-3.8-3.5-3.8s-3.6,1.4-3.6,3.6v8.2h-1.4v-7.9c0-2.5-1.2-3.8-3.5-3.8s-3.6,1.4-3.6,3.8v7.9h-1.4v-12.8h1.4v1.5c1-1.1,2.2-1.7,3.8-1.7s3.4.8,4.1,2.3c1-1.5,2.4-2.3,4.4-2.3s2.6.4,3.4,1.2c.9.9,1.3,2.1,1.3,3.6v8.2h-1.3v-7.9h0Z"/>
      <path class="cls-1" d="M28.9,172.3c1.5,0,2.5-.4,3.5-1.5l1,.8c-1.3,1.3-2.5,2-4.6,2-3.5,0-5.5-2.3-5.5-6.6s1.9-6.6,5.1-6.6,5.1,2.3,5.1,6.2v.6h-8.9c0,3.3,1.4,5.1,4.2,5.1h.1ZM31.9,163.8c-.6-1.4-1.8-2.1-3.3-2.1s-2.8.8-3.3,2.1c-.3.8-.4,1.2-.5,2.4h7.5c0-1.2,0-1.6-.5-2.4h0Z"/>
      <path class="cls-1" d="M45.7,171.8c-1.1,1.5-2.3,1.8-3.8,1.8s-2.5-.4-3.1-1.1c-1.3-1.3-1.6-3.4-1.6-5.4s.4-4.1,1.6-5.4c.7-.7,1.8-1.1,3.1-1.1s2.7.3,3.8,1.8v-7.8h1.4v18.9h-1.4v-1.6h0ZM42.1,161.6c-3.1,0-3.6,2.7-3.6,5.4s.5,5.4,3.6,5.4,3.6-2.7,3.6-5.4-.5-5.4-3.6-5.4Z"/>
      <path class="cls-1" d="M51.7,154.5h1.7v1.7h-1.7v-1.7ZM51.8,160.6h1.4v12.8h-1.4v-12.8Z"/>
      <path class="cls-1" d="M65.5,172.1c-1.1,1.1-2.1,1.4-3.9,1.4s-3-.3-3.8-1.2c-.6-.6-.9-1.5-.9-2.5,0-2.3,1.7-3.7,4.5-3.7h4.1v-1.4c0-2.1-1-3.1-3.6-3.1s-2.7.4-3.5,1.6l-1-.9c1.1-1.5,2.4-2,4.5-2,3.4,0,5,1.5,5,4.2v8.8h-1.4v-1.3h0ZM61.5,167.3c-2.2,0-3.3.9-3.3,2.6s1,2.5,3.4,2.5,2.3-.1,3.2-1c.5-.4.7-1.3.7-2.4v-1.6h-4Z"/>
    </g>
  </g>
  <g id="eut_V2" data-name="eut V2">
    <g>
      <polygon class="cls-2" points="150.2 156.7 151 156.9 183.2 36.7 182.4 36.5 150.2 156.7"/>
      <path class="cls-2" d="M241,59.9c0-1,.5-1.5,1.4-1.5s1.4.5,1.4,1.5v3.4h.8v-3.5c0-.9.6-1.4,1.4-1.4s1.4.5,1.4,1.5v3.4h.8v-3.5c0-.6-.2-1.2-.6-1.5-.3-.3-.8-.5-1.4-.5s-1.4.3-1.8.9c-.3-.6-.9-.9-1.7-.9s-1.2.2-1.6.7v-.6h-.8v5.5h.8v-3.4h0Z"/>
      <path class="cls-2" d="M252.7,63.4c1,0,1.5-.3,2-.9l-.5-.5c-.4.4-.8.6-1.5.6-1.1,0-1.6-.7-1.6-1.9h3.7v-.4c0-1.6-.8-2.7-2.3-2.7s-2.3,1.1-2.3,2.8,1,2.8,2.4,2.8h0v.2ZM251.3,59.3c.2-.5.7-.8,1.3-.8s1.1.3,1.3.8c.1.3.1.5.2.9h-2.9c0-.4,0-.6.2-.9h-.1Z"/>
      <path class="cls-2" d="M257.8,59.9c0-1,.5-1.5,1.4-1.5s1.4.5,1.4,1.5v3.4h.8v-3.5c0-.9.6-1.4,1.4-1.4s1.4.5,1.4,1.5v3.4h.8v-3.5c0-.6-.2-1.2-.6-1.5-.3-.3-.8-.5-1.4-.5s-1.4.3-1.8.9c-.3-.6-.9-.9-1.7-.9s-1.2.2-1.6.7v-.6h-.8v5.5h.8v-3.4h0Z"/>
      <path class="cls-2" d="M268.1,62.7c.5.6,1,.7,1.6.7s1.1-.2,1.4-.5c.6-.6.7-1.5.7-2.3s-.1-1.8-.7-2.3c-.3-.3-.8-.5-1.4-.5s-1.1,0-1.6.7v-3.1h-.8v8h.8v-.7h0ZM269.5,58.5c1.2,0,1.4,1,1.4,2.1s-.2,2.1-1.4,2.1-1.4-1-1.4-2.1.2-2.1,1.4-2.1Z"/>
      <path class="cls-2" d="M276.1,63.4c.9,0,1.5-.3,2-.9l-.5-.5c-.4.4-.8.6-1.5.6-1.1,0-1.6-.7-1.6-1.9h3.7v-.4c0-1.6-.8-2.7-2.3-2.7s-2.3,1.1-2.3,2.8,1,2.8,2.4,2.8h0v.2ZM274.7,59.3c.2-.5.7-.8,1.3-.8s1.1.3,1.3.8c.1.3.2.5.2.9h-2.9c0-.4,0-.6.2-.9h-.1Z"/>
      <path class="cls-2" d="M281.2,60c0-.8.5-1.5,1.3-1.5s.7,0,1,.4l.6-.6c-.4-.4-.8-.5-1.3-.5s-1.2.3-1.5.7v-.7h-.8v5.5h.8v-3.4h-.1Z"/>
      <path class="cls-2" d="M289.9,63.4c.7,0,1.2-.2,1.6-.6.6-.6.7-1.3.7-2.2s-.1-1.6-.7-2.2c-.4-.4-.9-.6-1.6-.6s-1.2.2-1.6.6c-.6.6-.7,1.3-.7,2.2s.1,1.6.7,2.2c.4.4.9.6,1.6.6ZM288.9,58.9c.3-.3.6-.4,1-.4s.8.2,1,.4c.4.4.4,1.1.4,1.7s0,1.3-.4,1.7c-.3.3-.6.4-1,.4s-.7-.2-1-.4c-.4-.4-.5-1.1-.5-1.7s0-1.3.5-1.7Z"/>
      <path class="cls-2" d="M294.5,63.3h.8v-4.9h1.2v-.6h-1.2v-1c0-.5.2-.8.7-.8h.4v-.7h-.6c-1,0-1.4.7-1.4,1.5v1.1h-.7v.6h.7v4.9h.1Z"/>
      <path class="cls-2" d="M227.2,129.7c.2-.3.4-.7.4-1.1,0-1.2-.8-1.8-2.3-1.8h-1.6v6.3h1v-2.6h.6l1.5,2.6h1.2l-1.7-2.7c.4-.1.7-.3,1-.6h0ZM224.6,129.7v-2.1h.7c.4,0,.7,0,.9.2s.3.4.3.8-.1.7-.3.8c-.2.2-.5.3-.9.3h-.7Z"/>
      <path class="cls-2" d="M300,129.7c.2-.3.4-.7.4-1.1,0-1.2-.8-1.8-2.3-1.8h-1.6v6.3h1v-2.6h.6l1.5,2.6h1.2l-1.7-2.7c.4-.1.7-.3,1-.6h-.1ZM297.4,129.7v-2.1h.7c.4,0,.7,0,.9.2.2.2.3.4.3.8s0,.7-.3.8c-.2.2-.5.3-.9.3h-.7Z"/>
      <path class="cls-2" d="M291.9,137.5c-.7,0-1.3.3-1.7.9-.4.6-.6,1.4-.6,2.4s.2,1.8.6,2.4.9.9,1.7.9,1.3-.3,1.7-.9c.4-.6.6-1.4.6-2.4s-.2-1.8-.6-2.4c-.4-.6-.9-.9-1.7-.9h0ZM292.8,142.6c-.2.4-.5.6-.9.6s-.7-.2-.9-.6c-.2-.4-.3-1-.3-1.8s0-1.4.3-1.9c.2-.4.5-.6.9-.6s.7.2.9.6c.2.4.3,1,.3,1.8s0,1.4-.3,1.8h0Z"/>
      <path class="cls-2" d="M232,137.5c-.7,0-1.3.3-1.7.9s-.6,1.4-.6,2.4.2,1.8.6,2.4c.4.6.9.9,1.7.9s1.3-.3,1.7-.9c.4-.6.6-1.4.6-2.4s-.2-1.8-.6-2.4c-.4-.6-.9-.9-1.7-.9ZM232.9,142.6c-.2.4-.5.6-.9.6s-.7-.2-.9-.6-.3-1-.3-1.8.1-1.4.3-1.8c.2-.4.5-.6.9-.6s.7.2.9.6c.2.4.3,1,.3,1.8s-.1,1.4-.3,1.8h0Z"/>
      <path class="cls-2" d="M231.9,133.2c.7,0,1.3-.3,1.7-.9.4-.6.6-1.4.6-2.4s-.2-1.8-.6-2.4c-.4-.6-.9-.9-1.7-.9s-1.3.3-1.7.9-.6,1.4-.6,2.4.2,1.8.6,2.4c.4.6.9.9,1.7.9ZM230.9,128.1c.2-.4.5-.6.9-.6s.7.2.9.6c.2.4.3,1,.3,1.8s-.1,1.4-.3,1.8-.5.6-.9.6-.7-.2-.9-.6c-.2-.4-.3-1-.3-1.8s.1-1.4.3-1.9h0Z"/>
      <path class="cls-2" d="M298.4,141.2h1v1.7c-.3.2-.6.3-1,.3s-.8-.2-1.1-.6c-.2-.4-.3-1-.3-1.9s.2-1.4.4-1.8.7-.6,1.1-.6.4,0,.6.1c.2,0,.4.2.5.4l.6-.6c-.2-.2-.5-.4-.8-.6-.3-.1-.6-.2-1-.2s-.9.1-1.3.4c-.4.2-.7.6-.9,1.1s-.3,1.1-.3,1.8c0,1.1.2,1.9.6,2.4.4.6,1,.8,1.8.8s.7,0,1.1-.1c.3-.1.6-.2.9-.4v-3.1h-2.1v.8h.2Z"/>
      <path class="cls-2" d="M220.1,130.8c0,.5,0,.9-.2,1.2s-.4.4-.8.4-.6-.1-.8-.4c-.2-.2-.2-.6-.2-1.2v-4h-1v4.2c0,.7.2,1.2.5,1.6.4.4.9.6,1.5.6s.8,0,1.1-.3c.3-.2.5-.4.7-.8.2-.3.2-.7.2-1.1v-4.2h-1v4h0Z"/>
      <polygon class="cls-2" points="314.5 127.7 316.3 127.7 316.3 133.1 317.3 133.1 317.3 127.7 319 127.7 319.1 126.8 314.5 126.8 314.5 127.7"/>
      <polygon class="cls-2" points="323.3 129.8 321.9 126.8 320.8 126.8 322.8 130.7 322.8 133.1 323.8 133.1 323.8 130.7 325.7 126.8 324.7 126.8 323.3 129.8"/>
      <polygon class="cls-2" points="212 130.3 214.1 130.3 214.1 129.5 212 129.5 212 127.6 214.4 127.6 214.5 126.8 211 126.8 211 133.1 214.6 133.1 214.6 132.3 212 132.3 212 130.3"/>
      <polygon class="cls-2" points="304.5 140.6 303.1 137.7 302 137.7 304 141.6 304 143.9 305 143.9 305 141.5 307 137.7 305.9 137.7 304.5 140.6"/>
      <polygon class="cls-2" points="309 127.6 310.2 127.6 310.2 132.3 309 132.3 309 133.1 312.5 133.1 312.5 132.3 311.2 132.3 311.2 127.6 312.5 127.6 312.5 126.8 309 126.8 309 127.6"/>
      <path class="cls-2" d="M259.1,126.8h-.9v4.2c0,.4,0,.8.1,1.2l-1.9-5.3h-1.3v6.3h.9v-2.9c0-.7,0-1.5-.1-2.5l1.9,5.3h1.3v-6.3Z"/>
      <polygon class="cls-2" points="236.6 143.9 237.6 143.9 237.6 141.3 239.8 141.3 239.8 140.5 237.6 140.5 237.6 138.5 240.1 138.5 240.2 137.7 236.6 137.7 236.6 143.9"/>
      <polygon class="cls-2" points="293.7 127.6 293.8 126.8 290.2 126.8 290.2 133.1 293.8 133.1 293.8 132.3 291.2 132.3 291.2 130.3 293.4 130.3 293.4 129.5 291.2 129.5 291.2 127.6 293.7 127.6"/>
      <polygon class="cls-2" points="281.1 127.6 281.1 126.8 277.5 126.8 277.5 127.6 278.8 127.6 278.8 132.3 277.5 132.3 277.5 133.1 281.1 133.1 281.1 132.3 279.8 132.3 279.8 127.6 281.1 127.6"/>
      <path class="cls-2" d="M279.8,137.5c-.7,0-1.3.3-1.7.9-.4.6-.6,1.4-.6,2.4s.2,1.8.6,2.4c.4.6.9.9,1.7.9s1.3-.3,1.7-.9c.4-.6.6-1.4.6-2.4s-.2-1.8-.6-2.4c-.4-.6-.9-.9-1.7-.9h0ZM280.7,142.6c-.2.4-.5.6-.9.6s-.7-.2-.9-.6c-.2-.4-.3-1-.3-1.8s0-1.4.3-1.9c.2-.4.5-.6.9-.6s.7.2.9.6c.2.4.3,1,.3,1.8s0,1.4-.3,1.8h0Z"/>
      <polygon class="cls-2" points="267.9 140.2 265.9 140.2 265.9 137.7 264.9 137.7 264.9 143.9 265.9 143.9 265.9 141.1 267.9 141.1 267.9 143.9 268.9 143.9 268.9 137.7 267.9 137.7 267.9 140.2"/>
      <path class="cls-2" d="M261.6,143.1c-.2,0-.5.1-.7.1-.5,0-.9-.2-1.2-.6s-.5-1-.5-1.8.1-1.4.5-1.8c.3-.4.7-.6,1.2-.6s.9.1,1.2.5l.5-.6c-.2-.2-.5-.4-.8-.5s-.6-.1-1-.1-.9.1-1.3.4c-.4.3-.7.6-1,1.1-.2.5-.4,1.1-.4,1.8s.1,1.3.3,1.8.5.9.9,1.1.9.4,1.4.4c.8,0,1.4-.2,1.9-.7l-.5-.6c-.2.2-.4.3-.6.4h0v-.3Z"/>
      <path class="cls-2" d="M272.2,130.2c0-.7,0-1.5-.1-2.5l1.9,5.3h1.3v-6.3h-.9v5.4l-1.9-5.3h-1.3v6.3h.9v-2.9h.1Z"/>
      <path class="cls-2" d="M267.9,130.8c0,.5,0,.9-.2,1.2s-.4.4-.8.4-.6-.1-.8-.4c-.2-.2-.2-.6-.2-1.2v-4h-1v4.2c0,.7.2,1.2.5,1.6.4.4.9.6,1.5.6s.8,0,1.1-.3c.3-.2.5-.4.7-.8.2-.3.2-.7.2-1.1v-4.2h-1v4h0Z"/>
      <path class="cls-2" d="M304.5,132.4c-.6,0-1.2-.2-1.6-.6l-.5.6c.5.6,1.3.8,2.2.8s.9,0,1.2-.2.6-.4.8-.7c.2-.3.3-.6.3-1,0-.6-.2-1-.5-1.2-.3-.3-.7-.5-1.3-.7-.4-.1-.6-.2-.8-.3s-.3-.2-.4-.3c0-.1-.1-.3-.1-.4,0-.3,0-.5.3-.6.2,0,.5-.2.8-.2.5,0,1,.2,1.4.6l.5-.6c-.5-.5-1.2-.8-2-.8s-.7,0-1,.2c-.3,0-.5.3-.7.6-.2.3-.3.6-.3.9s.2.8.5,1.1.8.5,1.5.7c.3.1.6.2.7.3s.3.2.4.3c0,.1.1.3.1.5,0,.3-.1.6-.3.8s-.5.3-.9.3h-.3Z"/>
      <polygon class="cls-2" points="246 138.5 247.8 138.5 247.8 143.9 248.8 143.9 248.8 138.5 250.5 138.5 250.6 137.7 246 137.7 246 138.5"/>
      <polygon class="cls-2" points="285.5 137.7 284.5 137.7 284.5 143.9 288 143.9 288.1 143.1 285.5 143.1 285.5 137.7"/>
      <path class="cls-2" d="M274.5,140.5v2.5l-1.9-5.3h-1.3v6.3h.9v-2.9c0-.7,0-1.5-.1-2.5l1.9,5.3h1.3v-6.3h-.9v2.9h.1Z"/>
      <polygon class="cls-2" points="246.1 127.6 246.2 126.8 242.7 126.8 242.7 133.1 246.3 133.1 246.3 132.3 243.6 132.3 243.6 130.3 245.8 130.3 245.8 129.5 243.6 129.5 243.6 127.6 246.1 127.6"/>
      <polygon class="cls-2" points="285.8 132.1 284.4 126.8 283.3 126.8 285.2 133.1 286.3 133.1 288.2 126.8 287.2 126.8 285.8 132.1"/>
      <polygon class="cls-2" points="253.6 141.2 255.8 141.2 255.8 140.4 253.6 140.4 253.6 138.5 256.1 138.5 256.2 137.7 252.6 137.7 252.6 143.9 256.2 143.9 256.2 143.1 253.6 143.1 253.6 141.2"/>
      <path class="cls-2" d="M251.3,126.8h-1.2l-1.9,6.3h1l.4-1.5h2.1l.4,1.5h1l-1.9-6.3h0ZM249.8,130.8l.9-3.1.9,3.1h-1.8Z"/>
      <path class="cls-2" d="M238.2,126.8h-1.6v6.3h1v-2.2h.7c.7,0,1.3-.2,1.7-.5s.6-.9.6-1.6-.2-1.1-.6-1.5-1-.5-1.8-.5h0ZM239.2,129.8c-.2.2-.5.3-.9.3h-.7v-2.4h.7c.9,0,1.3.4,1.3,1.2s-.1.8-.3,1h-.1Z"/>
      <polygon class="cls-2" points="327.3 98.7 327.3 91 322.4 91 322.4 98.7 314.9 98.7 314.9 103.7 322.4 103.7 322.4 111.3 327.3 111.3 327.3 103.7 334.9 103.7 334.9 98.7 327.3 98.7"/>
      <rect class="cls-2" x="298.7" y="91" width="4.9" height="28.1"/>
      <path class="cls-2" d="M287.5,119.1v-33.6h27.4v-5h-32.3v33.6h-8.9c-5.1,0-8.8-3.4-8.8-8v-25.6h-4.9v16.2c0,9.7-7.4,17.4-16.8,17.4s-13.5-3.9-15.6-10.4h11.7c8.9,0,13.5-6.3,13.5-12.5s-4.5-11.9-13.1-11.9-17.8,8.7-17.8,18.9v.4h-20v5h20.6c2.2,9.4,10.3,15.4,20.7,15.4s13.4-3.3,17.4-8.9c1.8,5.4,6.9,8.9,13.1,8.9h13.8ZM226.8,98.6v-.4c0-7.4,6-13.9,12.9-13.9s8.2,4.5,8.2,6.8c0,5.2-4.4,7.5-8.5,7.5h-12.6Z"/>
    </g>
  </g>
</svg>