<?xml version="1.0" encoding="UTF-8"?>
<svg id="Ebene_1" data-name="Ebene 1" xmlns="http://www.w3.org/2000/svg" version="1.1" viewBox="0 0 447.2 157.5">
  <defs>
    <style>
      .cls-1 {
        fill: #1d1d1b;
      }

      .cls-1, .cls-2 {
        stroke-width: 0px;
      }

      .cls-2 {
        fill: #000;
      }
    </style>
  </defs>
  <g id="media_6" data-name="media 6">
    <path class="cls-1" d="M120.2,38c0,2.3-.4,3.9-1.4,4.8-1.7,1.6-3.4,1.8-6,1.8s-5.5-1.8-5.5-4.4,1.9-4.3,5.3-4.3h7.5v2.1h0ZM129.7,52.1v-25.1c0-8.9-5.6-13.5-16.2-13.5s-10,1.2-13.8,5.3l6.1,5.9c2-2.3,3.7-3.2,7.3-3.2s7.1,1.8,7.1,6v1.9h-9c-8.9,0-13,5-13,11.1s1.1,6.4,3.1,8.6c2.3,2.3,5.4,3.4,9.7,3.4s6.8-1.1,9.4-3.7v3.3h9.3ZM81.3,33c0,6.2-.8,11-6.5,11s-6.4-4.8-6.4-11,.7-10.9,6.4-10.9,6.5,4.7,6.5,10.9M90.8,52.1V0h-9.5v17.3c-2.5-2.8-5.4-3.8-9.3-3.8s-7.2,1.3-9.3,3.4c-3.8,3.8-3.9,10.3-3.9,16s0,12.3,3.9,16.1c2.1,2.1,5.6,3.4,9.4,3.4s6.8-1.1,9.4-4v3.6h9.3,0ZM58.3,56.9h-22.7v2.2h22.7v-2.2ZM30.5,52.1v-24.7c0-8-4.4-13.9-12.7-13.9s-6.6,1.3-9.1,4V0H-.9v52.1h9.5v-23.3c0-5,3.2-6.7,6.1-6.7s6.2,1.7,6.2,6.7v23.3s9.5,0,9.5,0Z"/>
    <path class="cls-1" d="M6.9,93.7v-1.4c-1,1.2-2.1,1.6-3.6,1.6s-2.6-.4-3.3-1.2c-1.4-1.4-1.5-3.7-1.5-5.7s.2-4.3,1.5-5.7c.7-.7,1.9-1.2,3.3-1.2s2.6.3,3.5,1.5v-6.8h2.7v18.9h-2.7,0ZM4,82.5c-2.4,0-2.8,2.1-2.8,4.5s.4,4.5,2.8,4.5,2.8-2.1,2.8-4.5-.3-4.5-2.8-4.5Z"/>
    <path class="cls-1" d="M20.9,93.7v-1.2c-1,1-1.9,1.4-3.6,1.4s-2.8-.4-3.6-1.2c-.7-.7-1.1-1.8-1.1-2.9,0-2.3,1.6-3.9,4.7-3.9h3.6v-1c0-1.7-.8-2.5-2.9-2.5s-2.2.3-2.9,1.3l-1.8-1.7c1.3-1.5,2.6-1.9,4.8-1.9,3.7,0,5.6,1.6,5.6,4.6v9h-2.7,0ZM20.8,87.7h-3.2c-1.6,0-2.4.7-2.4,1.9s.8,1.9,2.5,1.9,1.8,0,2.5-.8c.4-.4.6-1,.6-2v-1.1h0Z"/>
    <path class="cls-1" d="M34.9,83.4c-.6-.6-1.1-.9-2-.9-1.5,0-2.7,1.2-2.7,3v8.2h-2.7v-13.5h2.7v1.5c.7-1,2.1-1.6,3.6-1.6s2.3.3,3.2,1.3l-2.1,2.1h0Z"/>
    <path class="cls-1" d="M55.8,93.7v-8.2c0-2.1-1.2-3-2.7-3s-2.8.9-2.8,2.9v8.3h-2.7v-8.2c0-2.1-1.2-3-2.7-3s-2.8.9-2.8,3v8.2h-2.7v-13.5h2.7v1.4c.9-1,2.2-1.5,3.6-1.5s3,.7,3.8,2c1.1-1.3,2.4-2,4.2-2s2.6.4,3.4,1.2c1,1,1.4,2.3,1.4,3.8v8.6h-2.7Z"/>
    <path class="cls-1" d="M67,93.8c-2.2,0-4.1-.4-5.7-1.9l1.8-1.8c1.1,1.1,2.6,1.4,3.9,1.4s2.9-.6,2.9-1.9-.5-1.5-1.8-1.6l-2.1-.2c-2.5-.2-4-1.4-4-3.7s2.3-4.1,5.1-4.1,3.8.4,5,1.5l-1.7,1.7c-.9-.7-2.1-1-3.3-1s-2.4.7-2.4,1.7.4,1.4,1.9,1.5l2.1.2c2.5.2,4,1.4,4,3.8s-2.4,4.3-5.6,4.3h0Z"/>
    <path class="cls-1" d="M80,93.7c-2.5,0-3.7-1.8-3.7-3.8v-7.4h-1.5v-2.1h1.5v-4.1h2.7v4.1h2.6v2.1h-2.6v7.3c0,1,.5,1.6,1.5,1.6h1.1v2.3h-1.6Z"/>
    <path class="cls-1" d="M92.4,93.7v-1.2c-1,1-1.9,1.4-3.6,1.4s-2.8-.4-3.6-1.2c-.7-.7-1.1-1.8-1.1-2.9,0-2.3,1.6-3.9,4.6-3.9h3.6v-1c0-1.7-.9-2.5-2.9-2.5s-2.2.3-2.9,1.3l-1.8-1.7c1.3-1.5,2.6-1.9,4.8-1.9,3.7,0,5.6,1.6,5.6,4.6v9h-2.7,0ZM92.4,87.7h-3.2c-1.6,0-2.4.7-2.4,1.9s.8,1.9,2.5,1.9,1.8,0,2.5-.8c.4-.4.6-1,.6-2v-1.1h0Z"/>
    <path class="cls-1" d="M106.8,93.7v-1.4c-1,1.2-2.1,1.6-3.6,1.6s-2.6-.4-3.3-1.2c-1.4-1.4-1.5-3.7-1.5-5.7s.2-4.3,1.5-5.7c.7-.7,1.9-1.2,3.3-1.2s2.6.3,3.5,1.5v-6.8h2.7v18.9h-2.7ZM104,82.5c-2.4,0-2.8,2.1-2.8,4.5s.4,4.5,2.8,4.5,2.8-2.1,2.8-4.5-.4-4.5-2.8-4.5Z"/>
    <path class="cls-1" d="M117.6,93.7c-2.5,0-3.7-1.8-3.7-3.8v-7.4h-1.5v-2.1h1.5v-4.1h2.7v4.1h2.6v2.1h-2.6v7.3c0,1,.5,1.6,1.5,1.6h1.1v2.3h-1.6Z"/>
    <path class="cls-1" d="M137.2,93.7v-1.4c-.9,1-2.2,1.5-3.6,1.5s-2.5-.4-3.3-1.2c-1-1-1.4-2.3-1.4-3.8v-8.6h2.7v8.2c0,2.1,1.2,3,2.7,3s2.8-.9,2.8-3v-8.2h2.7v13.5h-2.7,0Z"/>
    <path class="cls-1" d="M152.1,93.7v-8.2c0-2.1-1.2-3-2.7-3s-2.8.9-2.8,3v8.2h-2.7v-13.5h2.7v1.4c.9-1,2.2-1.5,3.6-1.5s2.5.4,3.3,1.2c1,1,1.4,2.3,1.4,3.8v8.6h-2.7Z"/>
    <path class="cls-1" d="M158.6,77.5v-2.9h2.9v2.9h-2.9ZM158.7,93.7v-13.5h2.7v13.5s-2.7,0-2.7,0Z"/>
    <path class="cls-1" d="M171.1,93.7h-2.2l-4.9-13.5h2.9l3.2,9.5,3.2-9.5h2.9l-4.9,13.5h0Z"/>
    <path class="cls-1" d="M180.1,87.7c0,2.3,1.2,3.8,3.4,3.8s2.3-.4,3.3-1.4l1.7,1.6c-1.4,1.4-2.7,2.1-5.1,2.1-3.4,0-6.1-1.8-6.1-6.9s2.3-6.9,5.7-6.9,5.7,2.7,5.7,6.5v1.2h-8.8,0ZM185.8,84c-.4-1-1.4-1.7-2.7-1.7s-2.3.7-2.7,1.7c-.3.6-.3,1-.4,1.8h6.1c0-.8-.1-1.2-.4-1.8Z"/>
    <path class="cls-1" d="M199.6,83.4c-.6-.6-1.1-.9-2-.9-1.5,0-2.7,1.2-2.7,3v8.2h-2.7v-13.5h2.7v1.5c.7-1,2.1-1.6,3.6-1.6s2.3.3,3.2,1.3l-2,2.1h0Z"/>
    <path class="cls-1" d="M208.4,93.8c-2.2,0-4.1-.4-5.7-1.9l1.8-1.8c1.1,1.1,2.5,1.4,3.9,1.4s3-.6,3-1.9-.5-1.5-1.8-1.6l-2.1-.2c-2.5-.2-4-1.4-4-3.7s2.3-4.1,5.1-4.1,3.8.4,5,1.5l-1.7,1.7c-.9-.7-2-1-3.3-1s-2.5.7-2.5,1.7.4,1.4,1.9,1.5l2.1.2c2.5.2,4,1.4,4,3.8s-2.4,4.3-5.6,4.3h0Z"/>
    <path class="cls-1" d="M217,77.5v-2.9h2.9v2.9h-2.9ZM217.1,93.7v-13.5h2.7v13.5s-2.7,0-2.7,0Z"/>
    <path class="cls-1" d="M227.9,93.7c-2.5,0-3.7-1.8-3.7-3.8v-7.4h-1.5v-2.1h1.5v-4.1h2.7v4.1h2.6v2.1h-2.6v7.3c0,1,.5,1.6,1.5,1.6h1.1v2.3h-1.6,0Z"/>
    <path class="cls-1" d="M237.8,96.4c-.3.7-.6,1.3-1,1.7-.7.7-1.7,1-2.8,1h-1.1v-2.4h.7c1.1,0,1.5-.3,1.9-1.4l.7-2.1-4.7-12.8h2.9l3.2,9.5,3.1-9.5h2.9l-6,16.2h0Z"/>
    <path class="cls-1" d="M8.1,118.8c-.9.9-2.2,1.6-4,1.6s-3.1-.7-4-1.6c-1.3-1.3-1.6-3-1.6-5.3s.3-4,1.6-5.3c.9-.9,2.2-1.6,4-1.6s3.2.7,4,1.6c1.3,1.3,1.6,3,1.6,5.3s-.3,4-1.6,5.3ZM6.1,109.8c-.5-.5-1.2-.8-2-.8s-1.5.3-2,.8c-.8.8-.9,2.2-.9,3.7s.1,2.9.9,3.7c.5.5,1.2.8,2,.8s1.5-.3,2-.8c.8-.8.9-2.2.9-3.7s-.1-2.9-.9-3.7Z"/>
    <path class="cls-1" d="M16.2,109.1v11.2h-2.7v-11.2h-1.5v-2.1h1.5v-2.1c0-1.9,1.2-3.8,3.7-3.8h1.7v2.3h-1.2c-1,0-1.5.6-1.5,1.6v1.9h2.7v2.1h-2.7Z"/>
    <path class="cls-1" d="M35.5,120.3v-1.2c-1,1-1.9,1.4-3.6,1.4s-2.8-.4-3.6-1.2c-.7-.7-1.1-1.8-1.1-2.9,0-2.3,1.6-3.9,4.7-3.9h3.6v-1c0-1.7-.8-2.5-2.9-2.5s-2.2.4-2.9,1.3l-1.8-1.7c1.3-1.5,2.6-1.9,4.8-1.9,3.7,0,5.6,1.6,5.6,4.6v9h-2.7,0ZM35.4,114.3h-3.2c-1.6,0-2.4.7-2.4,1.9s.8,1.9,2.5,1.9,1.8,0,2.5-.8c.4-.4.6-1,.6-2v-1.1Z"/>
    <path class="cls-1" d="M51.6,119.2c-.7.7-1.9,1.2-3.3,1.2s-2.6-.4-3.5-1.5v6.8h-2.7v-18.9h2.7v1.4c1-1.2,2.1-1.6,3.6-1.6s2.6.4,3.3,1.2c1.4,1.4,1.5,3.6,1.5,5.7s-.2,4.4-1.5,5.7h0ZM47.6,109c-2.4,0-2.8,2.1-2.8,4.5s.4,4.5,2.8,4.5,2.8-2.1,2.8-4.5-.3-4.5-2.8-4.5Z"/>
    <path class="cls-1" d="M66.1,119.2c-.7.7-1.9,1.2-3.3,1.2s-2.6-.4-3.5-1.5v6.8h-2.7v-18.9h2.7v1.4c1-1.2,2.1-1.6,3.6-1.6s2.6.4,3.3,1.2c1.4,1.4,1.5,3.6,1.5,5.7s-.2,4.4-1.5,5.7h0ZM62.1,109c-2.4,0-2.8,2.1-2.8,4.5s.4,4.5,2.8,4.5,2.8-2.1,2.8-4.5-.4-4.5-2.8-4.5Z"/>
    <path class="cls-1" d="M74.7,120.3c-2.6,0-3.7-1.7-3.7-3.7v-15.2h2.7v15c0,1,.4,1.6,1.5,1.6h1.2v2.3h-1.7Z"/>
    <path class="cls-1" d="M79.2,104.1v-2.9h2.9v2.9h-2.9ZM79.2,120.3v-13.5h2.7v13.5h-2.7Z"/>
    <path class="cls-1" d="M88,114.3c0,2.3,1.2,3.8,3.4,3.8s2.3-.4,3.3-1.4l1.7,1.6c-1.4,1.4-2.7,2.1-5.1,2.1-3.4,0-6.1-1.8-6.1-6.9s2.3-6.9,5.7-6.9,5.7,2.7,5.7,6.5v1.2h-8.8,0ZM93.7,110.6c-.4-1-1.4-1.7-2.7-1.7s-2.3.7-2.7,1.7c-.3.6-.3,1-.4,1.8h6.1c0-.8-.1-1.2-.4-1.8Z"/>
    <path class="cls-1" d="M107.9,120.3v-1.4c-1,1.2-2.1,1.6-3.6,1.6s-2.6-.4-3.3-1.2c-1.4-1.4-1.5-3.7-1.5-5.7s.2-4.3,1.5-5.7,1.9-1.2,3.3-1.2,2.6.4,3.5,1.5v-6.8h2.7v18.9h-2.7ZM105.1,109c-2.4,0-2.8,2.1-2.8,4.5s.4,4.5,2.8,4.5,2.8-2.1,2.8-4.5-.4-4.5-2.8-4.5Z"/>
    <path class="cls-1" d="M125.6,120.4c-2.2,0-4.1-.4-5.7-1.9l1.8-1.8c1.1,1.1,2.6,1.4,3.9,1.4s2.9-.6,2.9-1.9-.5-1.5-1.8-1.6l-2.1-.2c-2.5-.2-4-1.4-4-3.7s2.3-4.1,5.1-4.1,3.8.4,5,1.5l-1.7,1.7c-.9-.7-2.1-1-3.3-1s-2.4.7-2.4,1.7.4,1.4,1.9,1.5l2.1.2c2.5.2,4,1.4,4,3.8s-2.4,4.3-5.6,4.3h0Z"/>
    <path class="cls-1" d="M139.8,120.4c-3,0-6-1.9-6-6.9s3-6.9,6-6.9,3.2.5,4.4,1.9l-1.9,1.8c-.9-.9-1.5-1.3-2.6-1.3s-1.9.4-2.5,1.2c-.6.7-.8,1.7-.8,3.3s.2,2.6.8,3.3c.6.8,1.5,1.2,2.5,1.2s1.7-.4,2.6-1.3l1.9,1.8c-1.3,1.4-2.6,1.9-4.4,1.9h0Z"/>
    <path class="cls-1" d="M147.1,104.1v-2.9h2.9v2.9h-2.9ZM147.2,120.3v-13.5h2.7v13.5h-2.7Z"/>
    <path class="cls-1" d="M156,114.3c0,2.3,1.2,3.8,3.4,3.8s2.3-.4,3.3-1.4l1.7,1.6c-1.4,1.4-2.7,2.1-5.1,2.1-3.4,0-6.1-1.8-6.1-6.9s2.3-6.9,5.7-6.9,5.7,2.7,5.7,6.5v1.2h-8.8,0ZM161.6,110.6c-.4-1-1.4-1.7-2.7-1.7s-2.3.7-2.7,1.7c-.3.6-.3,1-.4,1.8h6.1c0-.8-.1-1.2-.4-1.8Z"/>
    <path class="cls-1" d="M176.3,120.3v-8.2c0-2.1-1.2-3-2.7-3s-2.8.9-2.8,3v8.2h-2.7v-13.5h2.7v1.4c.9-1,2.2-1.5,3.6-1.5s2.5.4,3.3,1.2c1,1,1.4,2.3,1.4,3.8v8.6h-2.7Z"/>
    <path class="cls-1" d="M188.2,120.4c-3,0-6-1.9-6-6.9s3-6.9,6-6.9,3.2.5,4.4,1.9l-1.9,1.8c-.9-.9-1.5-1.3-2.6-1.3s-1.9.4-2.5,1.2c-.6.7-.8,1.7-.8,3.3s.2,2.6.8,3.3c.6.8,1.5,1.2,2.5,1.2s1.7-.4,2.6-1.3l1.9,1.8c-1.3,1.4-2.6,1.9-4.4,1.9h0Z"/>
    <path class="cls-1" d="M197.4,114.3c0,2.3,1.2,3.8,3.4,3.8s2.3-.4,3.3-1.4l1.7,1.6c-1.4,1.4-2.7,2.1-5,2.1-3.4,0-6.1-1.8-6.1-6.9s2.3-6.9,5.7-6.9,5.7,2.7,5.7,6.5v1.2h-8.8,0ZM203.1,110.6c-.4-1-1.4-1.7-2.7-1.7s-2.3.7-2.7,1.7c-.3.6-.3,1-.4,1.8h6.1c0-.8-.1-1.2-.4-1.8Z"/>
    <path class="cls-1" d="M214.1,120.4c-2.2,0-4.1-.4-5.7-1.9l1.8-1.8c1.1,1.1,2.5,1.4,3.9,1.4s3-.6,3-1.9-.5-1.5-1.8-1.6l-2.1-.2c-2.5-.2-4-1.4-4-3.7s2.3-4.1,5.1-4.1,3.8.4,5,1.5l-1.7,1.7c-.9-.7-2-1-3.3-1s-2.5.7-2.5,1.7.4,1.4,1.9,1.5l2.1.2c2.5.2,4,1.4,4,3.8s-2.4,4.3-5.6,4.3h0Z"/>
    <path class="cls-1" d="M1.3,149.3H0v-11.8h-1.8v-1H0v-2.8c0-1.9,1.1-3.4,3.1-3.4h1.2v1.2h-.9c-1.4,0-2,.8-2,2.1v2.8h2.9v1H1.3v11.8h0Z"/>
    <path class="cls-1" d="M15.3,148c-1.1,1.1-2.1,1.4-3.9,1.4s-2.9-.3-3.8-1.2c-.6-.6-.9-1.5-.9-2.5,0-2.3,1.7-3.7,4.5-3.7h4.2v-1.4c0-2.1-1-3.1-3.6-3.1s-2.7.4-3.5,1.6l-1-.9c1.1-1.5,2.4-2,4.5-2,3.4,0,5,1.5,5,4.2v8.8h-1.4v-1.3h0ZM11.3,143.1c-2.2,0-3.3.9-3.3,2.6s1,2.5,3.3,2.5,2.3-.1,3.2-1c.5-.4.7-1.3.7-2.4v-1.6h-4Z"/>
    <path class="cls-1" d="M26.2,149.4c-3.5,0-5.6-2.5-5.6-6.6s2.1-6.6,5.6-6.6,2.9.4,4.2,2l-.9.9c-1.1-1.2-1.9-1.6-3.3-1.6s-2.6.6-3.4,1.7c-.6.9-.9,1.9-.9,3.7s.2,2.7.9,3.7c.8,1.1,1.9,1.7,3.4,1.7s2.2-.4,3.3-1.6l.9.9c-1.4,1.5-2.5,2-4.2,2Z"/>
    <path class="cls-1" d="M42.6,147.7c-1,1.1-2.2,1.7-3.8,1.7s-2.6-.4-3.4-1.2c-.9-.9-1.3-2.1-1.3-3.6v-8.2h1.4v7.9c0,2.5,1.2,3.8,3.5,3.8s3.6-1.4,3.6-3.8v-7.9h1.4v12.8h-1.4v-1.5h0Z"/>
    <path class="cls-1" d="M48.6,145.9v-15.6h1.4v15.6c0,1.5.4,2.1,2,2.1h.9v1.2h-1.2c-2.1,0-3.1-1.3-3.1-3.3h0Z"/>
    <path class="cls-1" d="M56.2,145.9v-8.4h-1.8v-1h1.8v-4.1h1.4v4.1h2.9v1h-2.9v8.5c0,1.4.6,2.1,2,2.1h.9v1.2h-1.2c-2,0-3.1-1.4-3.1-3.4h0Z"/>
    <path class="cls-1" d="M66.9,154.2c-.6.6-1.6.8-2.4.8h-.6v-1.2h.5c1.5,0,1.9-.5,2.3-1.8l1-2.8-4.7-12.8h1.5l3.9,11.2,3.9-11.2h1.5l-5.9,16.3c-.2.7-.5,1.2-.9,1.5h0Z"/>
    <path class="cls-1" d="M100.5,141.3c0-2.5-1.2-3.8-3.5-3.8s-3.6,1.4-3.6,3.6v8.2h-1.4v-7.9c0-2.5-1.2-3.8-3.5-3.8s-3.6,1.4-3.6,3.8v7.9h-1.4v-12.8h1.4v1.5c1-1.1,2.2-1.7,3.8-1.7s3.4.8,4.1,2.3c1-1.5,2.4-2.3,4.4-2.3s2.6.4,3.4,1.2c.9.9,1.3,2.1,1.3,3.6v8.2h-1.3v-7.9h0Z"/>
    <path class="cls-1" d="M111.3,148.2c1.5,0,2.4-.4,3.5-1.5l1,.8c-1.3,1.3-2.5,2-4.6,2-3.5,0-5.4-2.3-5.4-6.6s1.9-6.6,5.1-6.6,5.1,2.3,5.1,6.2v.6h-8.9c0,3.3,1.4,5.1,4.2,5.1ZM114.2,139.6c-.6-1.4-1.8-2.1-3.3-2.1s-2.8.8-3.3,2.1c-.3.8-.4,1.2-.4,2.4h7.6c0-1.2-.1-1.6-.4-2.4h0Z"/>
    <path class="cls-1" d="M128.1,147.6c-1.1,1.5-2.3,1.8-3.8,1.8s-2.5-.4-3.1-1.1c-1.3-1.3-1.6-3.4-1.6-5.4s.4-4.1,1.6-5.4c.7-.7,1.8-1.1,3.1-1.1s2.7.3,3.8,1.8v-7.8h1.4v18.9h-1.4v-1.6h0ZM124.5,137.5c-3.1,0-3.6,2.7-3.6,5.4s.5,5.4,3.6,5.4,3.6-2.7,3.6-5.4-.5-5.4-3.6-5.4Z"/>
    <path class="cls-1" d="M134,130.3h1.7v1.7h-1.7v-1.7ZM134.2,136.4h1.4v12.8h-1.4v-12.8Z"/>
    <path class="cls-1" d="M147.9,148c-1.1,1.1-2.1,1.4-3.9,1.4s-2.9-.3-3.8-1.2c-.6-.6-.9-1.5-.9-2.5,0-2.3,1.7-3.7,4.5-3.7h4.1v-1.4c0-2.1-1-3.1-3.6-3.1s-2.7.4-3.5,1.6l-1-.9c1.1-1.5,2.4-2,4.5-2,3.4,0,5,1.5,5,4.2v8.8h-1.4v-1.3h0ZM143.9,143.1c-2.2,0-3.3.9-3.3,2.6s1,2.5,3.4,2.5,2.3-.1,3.2-1c.5-.4.7-1.3.7-2.4v-1.6h-4Z"/>
  </g>
  <g id="eut_V2" data-name="eut V2">
    <polygon class="cls-2" points="262.4 157.3 263.3 157.5 295.5 37.2 294.7 37 262.4 157.3"/>
    <path class="cls-2" d="M353.3,60.5c0-1,.5-1.5,1.4-1.5s1.4.5,1.4,1.5v3.4h.8v-3.5c0-.9.6-1.4,1.4-1.4s1.4.5,1.4,1.5v3.4h.8v-3.5c0-.6-.2-1.2-.6-1.5-.3-.3-.8-.5-1.4-.5s-1.4.3-1.8.9c-.3-.6-.9-.9-1.7-.9s-1.2.2-1.6.7v-.6h-.8v5.5h.8v-3.4h0Z"/>
    <path class="cls-2" d="M365,64c1,0,1.5-.3,2-.9l-.5-.5c-.4.4-.8.6-1.5.6-1.1,0-1.6-.7-1.6-1.9h3.7v-.4c0-1.6-.8-2.7-2.3-2.7s-2.3,1.1-2.3,2.8,1,2.8,2.4,2.8h0ZM363.5,59.8c.2-.5.7-.8,1.3-.8s1.1.3,1.3.8c.1.3.1.5.2.9h-2.9c0-.4,0-.6.2-.9h0Z"/>
    <path class="cls-2" d="M370.1,60.5c0-1,.5-1.5,1.4-1.5s1.4.5,1.4,1.5v3.4h.8v-3.5c0-.9.6-1.4,1.4-1.4s1.4.5,1.4,1.5v3.4h.8v-3.5c0-.6-.2-1.2-.6-1.5-.3-.3-.8-.5-1.4-.5s-1.4.3-1.8.9c-.3-.6-.9-.9-1.7-.9s-1.2.2-1.6.7v-.6h-.8v5.5h.8v-3.4h0Z"/>
    <path class="cls-2" d="M380.4,63.3c.5.6,1,.7,1.6.7s1.1-.2,1.4-.5c.6-.6.7-1.5.7-2.3s-.1-1.8-.7-2.3c-.3-.3-.8-.5-1.4-.5s-1.1.1-1.6.7v-3.1h-.8v8h.8v-.7h0ZM381.8,59.1c1.2,0,1.4,1,1.4,2.1s-.2,2.1-1.4,2.1-1.4-1-1.4-2.1.2-2.1,1.4-2.1Z"/>
    <path class="cls-2" d="M388.4,64c.9,0,1.5-.3,2-.9l-.5-.5c-.4.4-.8.6-1.5.6-1.1,0-1.6-.7-1.6-1.9h3.7v-.4c0-1.6-.8-2.7-2.3-2.7s-2.3,1.1-2.3,2.8,1,2.8,2.4,2.8h0ZM387,59.8c.2-.5.7-.8,1.3-.8s1.1.3,1.3.8c.1.3.1.5.2.9h-2.9c0-.4,0-.6.2-.9h0Z"/>
    <path class="cls-2" d="M393.5,60.5c0-.8.5-1.5,1.3-1.5s.6,0,1,.4l.6-.6c-.4-.4-.8-.5-1.3-.5s-1.2.3-1.5.7v-.7h-.8v5.5h.8v-3.4h0Z"/>
    <path class="cls-2" d="M402.2,64c.7,0,1.2-.2,1.6-.6.6-.6.7-1.3.7-2.2s-.1-1.6-.7-2.2c-.4-.4-.9-.6-1.6-.6s-1.2.2-1.6.6c-.6.6-.7,1.3-.7,2.2s.1,1.6.7,2.2c.4.4.9.6,1.6.6ZM401.2,59.5c.3-.3.6-.4,1-.4s.8.2,1,.4c.4.4.4,1.1.4,1.7s0,1.3-.4,1.7c-.3.3-.6.4-1,.4s-.7-.2-1-.4c-.4-.4-.5-1.1-.5-1.7s0-1.3.5-1.7Z"/>
    <path class="cls-2" d="M406.8,63.9h.8v-4.9h1.2v-.6h-1.2v-1c0-.5.2-.8.7-.8h.4v-.7h-.6c-1,0-1.4.7-1.4,1.5v1.1h-.7v.6h.7v4.9h0Z"/>
    <path class="cls-2" d="M339.5,130.3c.2-.3.4-.7.4-1.1,0-1.2-.8-1.8-2.3-1.8h-1.6v6.3h1v-2.6h.6l1.5,2.6h1.2l-1.7-2.7c.4-.1.7-.3,1-.6h0ZM336.9,130.3v-2.1h.7c.4,0,.7,0,.9.2.2.2.3.4.3.8s-.1.7-.3.8c-.2.2-.5.3-.9.3h-.7,0Z"/>
    <path class="cls-2" d="M412.3,130.3c.2-.3.4-.7.4-1.1,0-1.2-.8-1.8-2.3-1.8h-1.6v6.3h1v-2.6h.6l1.5,2.6h1.2l-1.7-2.7c.4-.1.7-.3,1-.6ZM409.7,130.3v-2.1h.7c.4,0,.7,0,.9.2.2.2.3.4.3.8s-.1.7-.3.8c-.2.2-.5.3-.9.3h-.7Z"/>
    <path class="cls-2" d="M404.2,138.1c-.7,0-1.3.3-1.7.9s-.6,1.4-.6,2.4.2,1.8.6,2.4c.4.6.9.9,1.7.9s1.3-.3,1.7-.9c.4-.6.6-1.4.6-2.4s-.2-1.8-.6-2.4c-.4-.6-.9-.9-1.7-.9h0ZM405.1,143.2c-.2.4-.5.6-.9.6s-.7-.2-.9-.6c-.2-.4-.3-1-.3-1.8s.1-1.4.3-1.9c.2-.4.5-.6.9-.6s.7.2.9.6c.2.4.3,1,.3,1.8s-.1,1.4-.3,1.8h0Z"/>
    <path class="cls-2" d="M344.3,138.1c-.7,0-1.3.3-1.7.9s-.6,1.4-.6,2.4.2,1.8.6,2.4c.4.6.9.9,1.7.9s1.3-.3,1.7-.9c.4-.6.6-1.4.6-2.4s-.2-1.8-.6-2.4c-.4-.6-.9-.9-1.7-.9ZM345.2,143.2c-.2.4-.5.6-.9.6s-.7-.2-.9-.6-.3-1-.3-1.8.1-1.4.3-1.8c.2-.4.5-.6.9-.6s.7.2.9.6c.2.4.3,1,.3,1.8s-.1,1.4-.3,1.8h0Z"/>
    <path class="cls-2" d="M344.1,133.8c.7,0,1.3-.3,1.7-.9.4-.6.6-1.4.6-2.4s-.2-1.8-.6-2.4c-.4-.6-.9-.9-1.7-.9s-1.3.3-1.7.9-.6,1.4-.6,2.4.2,1.8.6,2.4c.4.6.9.9,1.7.9ZM343.2,128.7c.2-.4.5-.6.9-.6s.7.2.9.6c.2.4.3,1,.3,1.8s-.1,1.4-.3,1.8-.5.6-.9.6-.7-.2-.9-.6c-.2-.4-.3-1-.3-1.8s.1-1.4.3-1.9h0Z"/>
    <path class="cls-2" d="M410.7,141.8h1v1.7c-.3.2-.6.3-1,.3s-.8-.2-1.1-.6c-.2-.4-.4-1-.4-1.9s.1-1.4.4-1.8.7-.6,1.1-.6.4,0,.6.1c.2,0,.4.2.5.4l.6-.6c-.2-.2-.5-.4-.8-.6-.3-.1-.6-.2-1-.2s-.9.1-1.3.4c-.4.2-.7.6-.9,1.1-.2.5-.4,1.1-.4,1.8,0,1.1.2,1.9.6,2.4.4.6,1,.8,1.8.8s.7,0,1.1-.1c.3-.1.6-.2.9-.4v-3.1h-2.1v.8c.1,0,.1,0,.1,0Z"/>
    <path class="cls-2" d="M332.3,131.4c0,.5,0,.9-.2,1.2s-.4.4-.8.4-.6-.1-.8-.4c-.2-.2-.2-.6-.2-1.2v-4h-1v4.2c0,.7.2,1.2.5,1.6.4.4.9.6,1.5.6s.8,0,1.1-.3c.3-.2.5-.4.7-.8.2-.3.2-.7.2-1.1v-4.2h-1v4h0Z"/>
    <polygon class="cls-2" points="426.8 128.3 428.6 128.3 428.6 133.7 429.6 133.7 429.6 128.3 431.3 128.3 431.4 127.4 426.8 127.4 426.8 128.3"/>
    <polygon class="cls-2" points="435.5 130.4 434.2 127.4 433 127.4 435 131.3 435 133.7 436 133.7 436 131.3 438 127.4 437 127.4 435.5 130.4"/>
    <polygon class="cls-2" points="324.3 130.9 326.4 130.9 326.4 130.1 324.3 130.1 324.3 128.2 326.7 128.2 326.8 127.4 323.3 127.4 323.3 133.7 326.9 133.7 326.9 132.9 324.3 132.9 324.3 130.9"/>
    <polygon class="cls-2" points="416.8 141.2 415.4 138.3 414.3 138.3 416.3 142.1 416.3 144.5 417.3 144.5 417.3 142.1 419.2 138.3 418.2 138.3 416.8 141.2"/>
    <polygon class="cls-2" points="421.3 128.2 422.5 128.2 422.5 132.9 421.3 132.9 421.3 133.7 424.8 133.7 424.8 132.9 423.5 132.9 423.5 128.2 424.8 128.2 424.8 127.4 421.3 127.4 421.3 128.2"/>
    <path class="cls-2" d="M371.4,127.4h-.9v2.9c0,.5,0,.9,0,1.3s0,.8.1,1.2l-1.9-5.3h-1.3v6.3h.9v-2.9c0-.7,0-1.5-.1-2.5l1.9,5.3h1.3v-6.3Z"/>
    <polygon class="cls-2" points="348.9 144.5 349.9 144.5 349.9 141.8 352.1 141.8 352.1 141 349.9 141 349.9 139 352.4 139 352.5 138.3 348.9 138.3 348.9 144.5"/>
    <polygon class="cls-2" points="405.9 128.2 406.1 127.4 402.5 127.4 402.5 133.7 406.1 133.7 406.1 132.9 403.5 132.9 403.5 130.9 405.6 130.9 405.6 130.1 403.5 130.1 403.5 128.2 405.9 128.2"/>
    <polygon class="cls-2" points="393.4 128.2 393.4 127.4 389.8 127.4 389.8 128.2 391.1 128.2 391.1 132.9 389.8 132.9 389.8 133.7 393.4 133.7 393.4 132.9 392.1 132.9 392.1 128.2 393.4 128.2"/>
    <path class="cls-2" d="M392,138.1c-.7,0-1.3.3-1.7.9s-.6,1.4-.6,2.4.2,1.8.6,2.4c.4.6.9.9,1.7.9s1.3-.3,1.7-.9c.4-.6.6-1.4.6-2.4s-.2-1.8-.6-2.4c-.4-.6-.9-.9-1.7-.9h0ZM393,143.2c-.2.4-.5.6-.9.6s-.7-.2-.9-.6c-.2-.4-.3-1-.3-1.8s.1-1.4.3-1.9c.2-.4.5-.6.9-.6s.7.2.9.6c.2.4.3,1,.3,1.8s-.1,1.4-.3,1.8h0Z"/>
    <polygon class="cls-2" points="380.2 140.8 378.2 140.8 378.2 138.3 377.2 138.3 377.2 144.5 378.2 144.5 378.2 141.7 380.2 141.7 380.2 144.5 381.1 144.5 381.1 138.3 380.2 138.3 380.2 140.8"/>
    <path class="cls-2" d="M373.9,143.6c-.2,0-.5.1-.7.1-.5,0-.9-.2-1.2-.6s-.5-1-.5-1.8.1-1.4.5-1.8c.3-.4.7-.6,1.2-.6s.9.1,1.2.5l.5-.6c-.2-.2-.5-.4-.8-.5-.3-.1-.6-.1-1-.1s-.9.1-1.3.4c-.4.3-.7.6-1,1.1-.2.5-.4,1.1-.4,1.8s.1,1.3.3,1.8.5.9.9,1.1.9.4,1.4.4c.8,0,1.4-.2,1.9-.7l-.5-.6c-.2.2-.4.3-.6.4h0Z"/>
    <path class="cls-2" d="M384.4,130.8c0-.7,0-1.5-.1-2.5l1.9,5.3h1.3v-6.3h-.9v2.9c0,.5,0,.9,0,1.3s0,.8.1,1.2l-1.9-5.3h-1.3v6.3h.9v-2.9h0Z"/>
    <path class="cls-2" d="M380.1,131.4c0,.5,0,.9-.2,1.2s-.4.4-.8.4-.6-.1-.8-.4c-.2-.2-.2-.6-.2-1.2v-4h-1v4.2c0,.7.2,1.2.5,1.6.4.4.9.6,1.5.6s.8,0,1.1-.3c.3-.2.5-.4.7-.8.2-.3.2-.7.2-1.1v-4.2h-1v4h0Z"/>
    <path class="cls-2" d="M416.8,133c-.6,0-1.2-.2-1.6-.6l-.5.6c.5.6,1.3.8,2.2.8s.9,0,1.2-.2.6-.4.8-.7c.2-.3.3-.6.3-1,0-.6-.1-1-.5-1.2-.3-.3-.7-.5-1.3-.7-.4-.1-.6-.2-.8-.3-.2,0-.3-.2-.4-.3,0-.1-.1-.3-.1-.4,0-.3.1-.5.3-.6.2-.1.5-.2.8-.2.5,0,1,.2,1.4.6l.5-.6c-.5-.5-1.2-.8-2-.8s-.7,0-1,.2c-.3.1-.5.3-.7.6-.2.3-.3.6-.3.9s.1.8.5,1.1c.3.3.8.5,1.5.7.3.1.6.2.7.3.2.1.3.2.4.3,0,.1.1.3.1.5,0,.3-.1.6-.4.8s-.5.3-.9.3h0Z"/>
    <polygon class="cls-2" points="358.3 139.1 360.1 139.1 360.1 144.5 361 144.5 361 139.1 362.8 139.1 362.9 138.3 358.3 138.3 358.3 139.1"/>
    <polygon class="cls-2" points="397.7 138.3 396.8 138.3 396.8 144.5 400.3 144.5 400.4 143.6 397.7 143.6 397.7 138.3"/>
    <path class="cls-2" d="M386.7,141.1c0,.5,0,.9,0,1.3s0,.8.1,1.2l-1.9-5.3h-1.3v6.3h.9v-2.9c0-.7,0-1.5-.1-2.5l1.9,5.3h1.3v-6.3h-.9v2.9h0Z"/>
    <polygon class="cls-2" points="358.4 128.2 358.5 127.4 354.9 127.4 354.9 133.7 358.5 133.7 358.5 132.9 355.9 132.9 355.9 130.9 358.1 130.9 358.1 130.1 355.9 130.1 355.9 128.2 358.4 128.2"/>
    <polygon class="cls-2" points="398 132.7 396.7 127.4 395.6 127.4 397.5 133.7 398.6 133.7 400.5 127.4 399.5 127.4 398 132.7"/>
    <polygon class="cls-2" points="365.9 141.7 368 141.7 368 140.9 365.9 140.9 365.9 139 368.4 139 368.5 138.3 364.9 138.3 364.9 144.5 368.5 144.5 368.5 143.7 365.9 143.7 365.9 141.7"/>
    <path class="cls-2" d="M363.6,127.4h-1.2l-1.9,6.3h1l.4-1.5h2.1l.4,1.5h1l-1.9-6.3h0ZM362.1,131.3l.9-3.1.9,3.1h-1.7Z"/>
    <path class="cls-2" d="M350.5,127.4h-1.6v6.3h1v-2.2h.7c.7,0,1.3-.2,1.7-.5.4-.3.6-.9.6-1.6s-.2-1.1-.6-1.5-1-.5-1.8-.5h0ZM351.5,130.3c-.2.2-.5.3-.9.3h-.7v-2.4h.7c.9,0,1.3.4,1.3,1.2s-.1.8-.3,1h0Z"/>
    <polygon class="cls-2" points="439.6 99.2 439.6 91.6 434.7 91.6 434.7 99.2 427.2 99.2 427.2 104.3 434.7 104.3 434.7 111.9 439.6 111.9 439.6 104.3 447.2 104.3 447.2 99.2 439.6 99.2"/>
    <rect class="cls-2" x="411" y="91.6" width="4.9" height="28.1"/>
    <path class="cls-2" d="M399.8,119.6v-33.6h27.4v-5h-32.3v33.6h-8.9c-5.1,0-8.8-3.4-8.8-8v-25.6h-4.9v16.2c0,9.7-7.4,17.4-16.8,17.4s-13.5-3.9-15.6-10.4h11.7c8.9,0,13.5-6.3,13.5-12.5s-4.5-11.8-13.1-11.8-17.8,8.7-17.8,18.9v.4h-20v5h20.6c2.2,9.4,10.3,15.4,20.7,15.4s13.4-3.3,17.4-8.9c1.8,5.4,6.9,8.9,13.1,8.9h13.8,0ZM339,99.2v-.4c0-7.4,6-13.9,12.9-13.9s8.2,4.5,8.2,6.8c0,5.2-4.4,7.5-8.5,7.5h-12.5,0Z"/>
  </g>
</svg>