<?xml version="1.0" encoding="UTF-8"?>
<svg id="Ebene_1" data-name="Ebene 1" xmlns="http://www.w3.org/2000/svg" version="1.1" viewBox="0 0 574.8 157">
  <defs>
    <style>
      .cls-1 {
        fill: #1d1d1b;
      }

      .cls-1, .cls-2 {
        stroke-width: 0px;
      }

      .cls-2 {
        fill: #000;
      }
    </style>
  </defs>
  <g id="mathematik_und_naturwissenschaften_2" data-name="mathematik und naturwissenschaften 2">
    <path class="cls-1" d="M122,38c0,2.3-.4,3.9-1.4,4.8-1.7,1.6-3.4,1.8-6,1.8s-5.5-1.8-5.5-4.4,1.9-4.3,5.3-4.3h7.5v2.1h0ZM131.5,52.1v-25.1c0-8.9-5.6-13.5-16.2-13.5s-10,1.2-13.8,5.3l6.1,5.9c2-2.3,3.7-3.2,7.3-3.2s7.1,1.8,7.1,6v1.9h-9c-8.8,0-13,5-13,11.1s1.1,6.4,3.2,8.6c2.3,2.3,5.4,3.4,9.7,3.4s6.8-1.1,9.4-3.7v3.3h9.3ZM83.1,33c0,6.2-.8,11-6.5,11s-6.4-4.8-6.4-11,.7-10.9,6.4-10.9,6.5,4.7,6.5,10.9M92.6,52.1V0h-9.5v17.3c-2.5-2.8-5.4-3.8-9.3-3.8s-7.2,1.3-9.3,3.4c-3.8,3.8-3.9,10.3-3.9,16s0,12.3,3.9,16.1c2.1,2.1,5.6,3.4,9.4,3.4s6.8-1.1,9.4-4v3.6h9.3ZM60.1,56.9h-22.7v2.2h22.7v-2.2ZM32.3,52.1v-24.7c0-8-4.4-13.9-12.7-13.9s-6.6,1.3-9.1,4V0H.9v52.1h9.5v-23.3c0-5,3.1-6.7,6.1-6.7s6.2,1.7,6.2,6.7v23.3h9.5Z"/>
    <g>
      <path class="cls-1" d="M9.1,93.7v-8.3c0-2.1-1.2-2.9-2.7-2.9s-2.7.9-2.7,2.9v8.3H.9v-18.9h2.7v6.8c.9-1,2.1-1.5,3.5-1.5,3,0,4.7,2,4.7,4.9v8.7h-2.7,0Z"/>
      <path class="cls-1" d="M24.8,92.3c-.9.9-2.2,1.6-4,1.6s-3.1-.7-4-1.6c-1.3-1.3-1.6-3-1.6-5.3s.3-4,1.6-5.3c.9-.9,2.2-1.6,4-1.6s3.2.7,4,1.6c1.3,1.3,1.6,3,1.6,5.3s-.3,4-1.6,5.3ZM22.7,83.2c-.5-.5-1.2-.8-2-.8s-1.5.3-2,.8c-.8.8-.9,2.2-.9,3.7s.1,2.9.9,3.7c.5.5,1.2.8,2,.8s1.5-.3,2-.8c.8-.8.9-2.2.9-3.7s-.1-2.9-.9-3.7Z"/>
      <path class="cls-1" d="M35.2,93.8c-3,0-6-1.9-6-6.9s3-6.9,6-6.9,3.2.5,4.4,1.9l-1.9,1.8c-.8-.9-1.5-1.3-2.6-1.3s-1.9.4-2.5,1.2c-.6.7-.8,1.7-.8,3.3s.2,2.6.8,3.3c.6.8,1.5,1.2,2.5,1.2s1.7-.3,2.6-1.3l1.9,1.8c-1.3,1.4-2.6,1.9-4.4,1.9h0Z"/>
      <path class="cls-1" d="M50.8,93.7v-8.3c0-2.1-1.2-2.9-2.7-2.9s-2.7.9-2.7,2.9v8.3h-2.7v-18.9h2.7v6.8c.9-1,2.2-1.5,3.5-1.5,3,0,4.7,2,4.7,4.9v8.7h-2.7Z"/>
      <path class="cls-1" d="M61.9,93.8c-2.2,0-4.1-.4-5.7-1.9l1.8-1.8c1.1,1.1,2.5,1.4,3.9,1.4s3-.6,3-1.9-.5-1.5-1.8-1.6l-2.2-.2c-2.5-.2-4-1.4-4-3.7s2.3-4.1,5.1-4.1,3.8.4,5,1.5l-1.7,1.7c-.8-.7-2-1-3.3-1s-2.5.7-2.5,1.7.4,1.4,1.9,1.5l2.1.2c2.5.2,4,1.4,4,3.8s-2.4,4.3-5.6,4.3h0Z"/>
      <path class="cls-1" d="M76.2,93.8c-3,0-6-1.9-6-6.9s3-6.9,6-6.9,3.2.5,4.4,1.9l-1.9,1.8c-.8-.9-1.5-1.3-2.6-1.3s-1.9.4-2.5,1.2c-.6.7-.8,1.7-.8,3.3s.2,2.6.8,3.3c.6.8,1.5,1.2,2.5,1.2s1.7-.3,2.6-1.3l1.9,1.8c-1.3,1.4-2.6,1.9-4.4,1.9h0Z"/>
      <path class="cls-1" d="M91.7,93.7v-8.3c0-2.1-1.2-2.9-2.7-2.9s-2.7.9-2.7,2.9v8.3h-2.7v-18.9h2.7v6.8c.9-1,2.2-1.5,3.5-1.5,3,0,4.7,2,4.7,4.9v8.7h-2.7Z"/>
      <path class="cls-1" d="M106.4,93.7v-1.4c-.9,1-2.2,1.5-3.6,1.5s-2.5-.4-3.3-1.2c-1-1-1.4-2.3-1.4-3.8v-8.6h2.7v8.2c0,2.1,1.2,3,2.7,3s2.8-.9,2.8-3v-8.2h2.7v13.5h-2.7,0Z"/>
      <path class="cls-1" d="M116.7,93.7c-2.6,0-3.7-1.7-3.7-3.7v-15.2h2.7v15c0,1,.4,1.6,1.5,1.6h1.2v2.3h-1.7Z"/>
      <path class="cls-1" d="M123.1,87.7c0,2.3,1.2,3.8,3.4,3.8s2.3-.4,3.3-1.4l1.7,1.6c-1.4,1.4-2.7,2.1-5.1,2.1-3.4,0-6.1-1.8-6.1-6.9s2.3-6.9,5.7-6.9,5.7,2.7,5.7,6.5v1.2h-8.8,0ZM128.8,84c-.4-1-1.4-1.7-2.7-1.7s-2.3.7-2.7,1.7c-.3.6-.3,1-.3,1.8h6.1c0-.8-.1-1.2-.4-1.8Z"/>
      <path class="cls-1" d="M149.6,93.7v-1.4c-1,1.2-2.1,1.6-3.6,1.6s-2.6-.4-3.3-1.2c-1.4-1.4-1.5-3.7-1.5-5.7s.2-4.3,1.5-5.7c.7-.7,1.9-1.2,3.3-1.2s2.6.3,3.5,1.5v-6.8h2.7v18.9h-2.7ZM146.7,82.5c-2.4,0-2.8,2.1-2.8,4.5s.4,4.5,2.8,4.5,2.8-2.1,2.8-4.5-.4-4.5-2.8-4.5Z"/>
      <path class="cls-1" d="M163.6,93.7v-1.2c-1,1-1.9,1.4-3.6,1.4s-2.8-.4-3.6-1.2c-.7-.7-1.1-1.8-1.1-2.9,0-2.3,1.6-3.9,4.6-3.9h3.6v-1c0-1.7-.9-2.5-2.9-2.5s-2.2.3-2.9,1.3l-1.8-1.7c1.3-1.5,2.6-1.9,4.8-1.9,3.7,0,5.6,1.6,5.6,4.6v9h-2.7,0ZM163.6,87.7h-3.2c-1.6,0-2.4.7-2.4,1.9s.8,1.9,2.5,1.9,1.8,0,2.5-.8c.4-.4.6-1,.6-2v-1.1h0Z"/>
      <path class="cls-1" d="M177.6,83.4c-.6-.6-1.1-.9-2-.9-1.5,0-2.7,1.2-2.7,3v8.2h-2.7v-13.5h2.7v1.5c.7-1,2.1-1.6,3.6-1.6s2.3.3,3.2,1.3l-2.1,2.1h0Z"/>
      <path class="cls-1" d="M198.6,93.7v-8.2c0-2.1-1.2-3-2.7-3s-2.8.9-2.8,2.9v8.3h-2.7v-8.2c0-2.1-1.2-3-2.7-3s-2.8.9-2.8,3v8.2h-2.7v-13.5h2.7v1.4c.9-1,2.2-1.5,3.6-1.5s3,.7,3.8,2c1.1-1.3,2.4-2,4.2-2s2.6.4,3.4,1.2c1,1,1.4,2.3,1.4,3.8v8.6h-2.7Z"/>
      <path class="cls-1" d="M209.8,93.8c-2.2,0-4.1-.4-5.7-1.9l1.8-1.8c1.1,1.1,2.6,1.4,3.9,1.4s2.9-.6,2.9-1.9-.5-1.5-1.8-1.6l-2.1-.2c-2.5-.2-4-1.4-4-3.7s2.3-4.1,5.1-4.1,3.8.4,5,1.5l-1.7,1.7c-.9-.7-2.1-1-3.3-1s-2.4.7-2.4,1.7.4,1.4,1.9,1.5l2.1.2c2.5.2,4,1.4,4,3.8s-2.4,4.3-5.6,4.3h0Z"/>
      <path class="cls-1" d="M222.8,93.7c-2.5,0-3.7-1.8-3.7-3.8v-7.4h-1.5v-2.1h1.5v-4.1h2.7v4.1h2.6v2.1h-2.6v7.3c0,1,.5,1.6,1.5,1.6h1.1v2.3h-1.6Z"/>
      <path class="cls-1" d="M235.1,93.7v-1.2c-1,1-1.9,1.4-3.6,1.4s-2.8-.4-3.6-1.2c-.7-.7-1.1-1.8-1.1-2.9,0-2.3,1.6-3.9,4.6-3.9h3.6v-1c0-1.7-.9-2.5-2.9-2.5s-2.2.3-2.9,1.3l-1.8-1.7c1.3-1.5,2.6-1.9,4.8-1.9,3.7,0,5.6,1.6,5.6,4.6v9h-2.7,0ZM235.1,87.7h-3.2c-1.6,0-2.4.7-2.4,1.9s.8,1.9,2.5,1.9,1.8,0,2.5-.8c.4-.4.6-1,.6-2v-1.1h0Z"/>
      <path class="cls-1" d="M249.6,93.7v-1.4c-1,1.2-2.1,1.6-3.6,1.6s-2.6-.4-3.3-1.2c-1.4-1.4-1.5-3.7-1.5-5.7s.2-4.3,1.5-5.7c.7-.7,1.9-1.2,3.3-1.2s2.6.3,3.5,1.5v-6.8h2.7v18.9h-2.7ZM246.7,82.5c-2.4,0-2.8,2.1-2.8,4.5s.4,4.5,2.8,4.5,2.8-2.1,2.8-4.5-.4-4.5-2.8-4.5Z"/>
      <path class="cls-1" d="M260.4,93.7c-2.5,0-3.7-1.8-3.7-3.8v-7.4h-1.5v-2.1h1.5v-4.1h2.7v4.1h2.6v2.1h-2.6v7.3c0,1,.5,1.6,1.5,1.6h1.1v2.3h-1.6,0Z"/>
      <path class="cls-1" d="M3.1,120.2h-1.4v-11.8H0v-1h1.8v-2.8c0-1.9,1.1-3.4,3.1-3.4h1.2v1.2h-.9c-1.4,0-2,.8-2,2.1v2.8h2.9v1h-2.9v11.8h0Z"/>
      <path class="cls-1" d="M17.1,119c-1.1,1.1-2.1,1.4-3.9,1.4s-2.9-.3-3.8-1.2c-.6-.6-.9-1.5-.9-2.5,0-2.3,1.7-3.7,4.5-3.7h4.1v-1.4c0-2.1-1-3.1-3.6-3.1s-2.7.4-3.5,1.6l-1-.9c1.1-1.5,2.4-2,4.5-2,3.4,0,5,1.5,5,4.2v8.8h-1.4v-1.3h0ZM13.1,114.1c-2.2,0-3.3.9-3.3,2.6s1,2.5,3.4,2.5,2.3-.1,3.2-1c.5-.4.7-1.3.7-2.4v-1.6h-4Z"/>
      <path class="cls-1" d="M28.1,120.4c-3.5,0-5.6-2.5-5.6-6.6s2.1-6.6,5.6-6.6,2.9.4,4.2,2l-.9.9c-1.1-1.2-1.9-1.6-3.3-1.6s-2.6.6-3.4,1.7c-.6.9-.9,1.9-.9,3.7s.2,2.7.9,3.7c.8,1.1,1.9,1.7,3.4,1.7s2.2-.4,3.3-1.6l.9.9c-1.4,1.5-2.5,2-4.2,2Z"/>
      <path class="cls-1" d="M44.5,112.3c0-2.5-1.2-3.8-3.5-3.8s-3.6,1.4-3.6,3.8v7.9h-1.4v-18.9h1.4v7.6c1-1.1,2.2-1.7,3.8-1.7,3,0,4.7,1.8,4.7,4.8v8.2h-1.4v-7.9h0Z"/>
      <path class="cls-1" d="M58.7,119.3c-.7.7-1.8,1.1-3.1,1.1s-2.7-.3-3.8-1.8v1.6h-1.4v-18.9h1.4v7.8c1.1-1.5,2.3-1.8,3.8-1.8s2.5.4,3.1,1.1c1.3,1.3,1.7,3.4,1.7,5.4s-.3,4.1-1.7,5.4h0ZM55.4,108.5c-3.1,0-3.6,2.7-3.6,5.4s.5,5.4,3.6,5.4,3.6-2.7,3.6-5.4-.5-5.4-3.6-5.4Z"/>
      <path class="cls-1" d="M69.4,119.2c1.5,0,2.4-.4,3.5-1.5l1,.8c-1.3,1.3-2.5,2-4.6,2-3.5,0-5.5-2.3-5.5-6.6s1.9-6.6,5.1-6.6,5.1,2.3,5.1,6.2v.6h-8.9c0,3.3,1.4,5.1,4.2,5.1ZM72.3,110.6c-.6-1.4-1.8-2.1-3.3-2.1s-2.8.8-3.3,2.1c-.3.8-.4,1.2-.4,2.4h7.6c0-1.2-.1-1.6-.4-2.4h0Z"/>
      <path class="cls-1" d="M82.9,108.5c-2.2,0-3.4,1.8-3.4,3.9v7.9h-1.4v-12.8h1.4v1.7c.7-1.2,2.2-1.9,3.8-1.9s2.2.3,3.1,1.2l-1,1c-.8-.8-1.4-1-2.4-1h0Z"/>
      <path class="cls-1" d="M93.8,119.2c1.5,0,2.4-.4,3.5-1.5l1,.8c-1.3,1.3-2.5,2-4.6,2-3.5,0-5.4-2.3-5.4-6.6s1.9-6.6,5.1-6.6,5.1,2.3,5.1,6.2v.6h-8.9c0,3.3,1.4,5.1,4.2,5.1ZM96.7,110.6c-.6-1.4-1.8-2.1-3.3-2.1s-2.8.8-3.3,2.1c-.3.8-.4,1.2-.4,2.4h7.6c0-1.2-.1-1.6-.4-2.4h0Z"/>
      <path class="cls-1" d="M102.3,101.3h1.7v1.7h-1.7v-1.7ZM102.5,107.4h1.4v12.8h-1.4v-12.8Z"/>
      <path class="cls-1" d="M113.5,120.4c-3.5,0-5.6-2.5-5.6-6.6s2.1-6.6,5.6-6.6,2.9.4,4.2,2l-.9.9c-1.1-1.2-1.9-1.6-3.3-1.6s-2.6.6-3.4,1.7c-.6.9-.9,1.9-.9,3.7s.2,2.7.9,3.7c.8,1.1,1.9,1.7,3.4,1.7s2.2-.4,3.3-1.6l.9.9c-1.4,1.5-2.5,2-4.2,2Z"/>
      <path class="cls-1" d="M129.9,112.3c0-2.5-1.2-3.8-3.5-3.8s-3.6,1.4-3.6,3.8v7.9h-1.4v-18.9h1.4v7.6c1-1.1,2.2-1.7,3.8-1.7,3,0,4.7,1.8,4.7,4.8v8.2h-1.4v-7.9h0Z"/>
      <path class="cls-1" d="M160,112.3c0-2.5-1.2-3.8-3.5-3.8s-3.6,1.4-3.6,3.6v8.2h-1.4v-7.9c0-2.5-1.2-3.8-3.5-3.8s-3.6,1.4-3.6,3.8v7.9h-1.4v-12.8h1.4v1.5c1-1.1,2.2-1.7,3.8-1.7s3.4.8,4.1,2.3c1-1.5,2.4-2.3,4.4-2.3s2.6.4,3.4,1.2c.9.9,1.3,2.1,1.3,3.6v8.2h-1.3v-7.9h0Z"/>
      <path class="cls-1" d="M173.6,119c-1.1,1.1-2.1,1.4-3.9,1.4s-2.9-.3-3.8-1.2c-.6-.6-.9-1.5-.9-2.5,0-2.3,1.7-3.7,4.5-3.7h4.1v-1.4c0-2.1-1-3.1-3.6-3.1s-2.7.4-3.5,1.6l-1-.9c1.1-1.5,2.4-2,4.5-2,3.4,0,5,1.5,5,4.2v8.8h-1.4v-1.3h0ZM169.6,114.1c-2.2,0-3.3.9-3.3,2.6s1,2.5,3.4,2.5,2.3-.1,3.2-1c.5-.4.7-1.3.7-2.4v-1.6h-4Z"/>
      <path class="cls-1" d="M179.8,116.9v-8.4h-1.8v-1h1.8v-4.1h1.4v4.1h2.9v1h-2.9v8.5c0,1.4.6,2.1,2,2.1h.9v1.2h-1.2c-2,0-3.1-1.4-3.1-3.4h0Z"/>
      <path class="cls-1" d="M196.3,112.3c0-2.5-1.2-3.8-3.5-3.8s-3.6,1.4-3.6,3.8v7.9h-1.4v-18.9h1.4v7.6c1-1.1,2.2-1.7,3.8-1.7,2.9,0,4.7,1.8,4.7,4.8v8.2h-1.4v-7.9h0Z"/>
      <path class="cls-1" d="M207.1,119.2c1.5,0,2.4-.4,3.5-1.5l1,.8c-1.3,1.3-2.5,2-4.6,2-3.5,0-5.4-2.3-5.4-6.6s1.9-6.6,5.1-6.6,5.1,2.3,5.1,6.2v.6h-8.9c0,3.3,1.4,5.1,4.2,5.1ZM210,110.6c-.6-1.4-1.8-2.1-3.3-2.1s-2.8.8-3.3,2.1c-.3.8-.4,1.2-.4,2.4h7.6c0-1.2-.1-1.6-.4-2.4h0Z"/>
      <path class="cls-1" d="M232.9,112.3c0-2.5-1.2-3.8-3.5-3.8s-3.6,1.4-3.6,3.6v8.2h-1.4v-7.9c0-2.5-1.2-3.8-3.5-3.8s-3.6,1.4-3.6,3.8v7.9h-1.4v-12.8h1.4v1.5c1-1.1,2.2-1.7,3.8-1.7s3.4.8,4.1,2.3c1-1.5,2.4-2.3,4.4-2.3s2.6.4,3.4,1.2c.9.9,1.3,2.1,1.3,3.6v8.2h-1.3v-7.9h0Z"/>
      <path class="cls-1" d="M246.4,119c-1.1,1.1-2.1,1.4-3.9,1.4s-2.9-.3-3.8-1.2c-.6-.6-.9-1.5-.9-2.5,0-2.3,1.7-3.7,4.5-3.7h4.1v-1.4c0-2.1-1-3.1-3.6-3.1s-2.7.4-3.5,1.6l-1-.9c1.1-1.5,2.4-2,4.5-2,3.4,0,5,1.5,5,4.2v8.8h-1.4v-1.3h0ZM242.4,114.1c-2.2,0-3.3.9-3.3,2.6s1,2.5,3.4,2.5,2.3-.1,3.2-1c.5-.4.7-1.3.7-2.4v-1.6h-4Z"/>
      <path class="cls-1" d="M252.6,116.9v-8.4h-1.8v-1h1.8v-4.1h1.4v4.1h2.9v1h-2.9v8.5c0,1.4.6,2.1,2,2.1h.9v1.2h-1.2c-2,0-3.1-1.4-3.1-3.4h0Z"/>
      <path class="cls-1" d="M260.4,101.3h1.7v1.7h-1.7v-1.7ZM260.6,107.4h1.4v12.8h-1.4v-12.8Z"/>
      <path class="cls-1" d="M270.9,113.2l-2.9,3.4v3.7h-1.4v-18.9h1.4v13.3l6.4-7.2h1.7l-4.2,4.8,5.2,8h-1.7l-4.4-7h0Z"/>
      <path class="cls-1" d="M9.7,145.3c-1,1.1-2.2,1.7-3.8,1.7s-2.5-.4-3.4-1.2c-.9-.9-1.3-2.1-1.3-3.6v-8.2h1.4v7.9c0,2.5,1.2,3.8,3.5,3.8s3.6-1.4,3.6-3.8v-7.9h1.4v12.8h-1.4v-1.5h0Z"/>
      <path class="cls-1" d="M24.3,138.9c0-2.5-1.2-3.8-3.5-3.8s-3.6,1.4-3.6,3.8v7.9h-1.4v-12.8h1.4v1.5c1-1.1,2.2-1.7,3.8-1.7s2.5.4,3.4,1.2c.9.9,1.3,2.1,1.3,3.6v8.2h-1.4v-7.9h0Z"/>
      <path class="cls-1" d="M38.2,145.2c-1.1,1.5-2.3,1.8-3.8,1.8s-2.5-.4-3.1-1.1c-1.3-1.3-1.6-3.4-1.6-5.4s.4-4.1,1.6-5.4c.7-.7,1.8-1.1,3.1-1.1s2.7.3,3.8,1.8v-7.8h1.4v18.9h-1.4v-1.6h0ZM34.6,135c-3.1,0-3.6,2.7-3.6,5.4s.5,5.4,3.6,5.4,3.6-2.7,3.6-5.4-.5-5.4-3.6-5.4Z"/>
      <path class="cls-1" d="M60,138.9c0-2.5-1.2-3.8-3.5-3.8s-3.6,1.4-3.6,3.8v7.9h-1.4v-12.8h1.4v1.5c1-1.1,2.2-1.7,3.8-1.7s2.5.4,3.4,1.2c.9.9,1.3,2.1,1.3,3.6v8.2h-1.4v-7.9h0Z"/>
      <path class="cls-1" d="M73.6,145.5c-1.1,1.1-2.1,1.4-3.9,1.4s-2.9-.3-3.8-1.2c-.6-.6-.9-1.5-.9-2.5,0-2.3,1.7-3.7,4.5-3.7h4.2v-1.4c0-2.1-1-3.1-3.6-3.1s-2.7.4-3.5,1.6l-1-.9c1.1-1.5,2.4-2,4.5-2,3.4,0,5,1.5,5,4.2v8.8h-1.4v-1.3h0ZM69.6,140.7c-2.2,0-3.3.9-3.3,2.6s1,2.5,3.3,2.5,2.3-.1,3.2-1c.5-.4.7-1.3.7-2.4v-1.6h-4Z"/>
      <path class="cls-1" d="M79.8,143.5v-8.4h-1.8v-1h1.8v-4.1h1.4v4.1h2.9v1h-2.9v8.5c0,1.4.6,2.1,2,2.1h.9v1.2h-1.2c-2,0-3.1-1.4-3.1-3.4h0Z"/>
      <path class="cls-1" d="M96.2,145.3c-1,1.1-2.2,1.7-3.8,1.7s-2.6-.4-3.4-1.2c-.9-.9-1.3-2.1-1.3-3.6v-8.2h1.4v7.9c0,2.5,1.2,3.8,3.5,3.8s3.6-1.4,3.6-3.8v-7.9h1.4v12.8h-1.4v-1.5h0Z"/>
      <path class="cls-1" d="M107,135c-2.2,0-3.4,1.8-3.4,3.9v7.9h-1.4v-12.8h1.4v1.7c.8-1.2,2.2-1.9,3.8-1.9s2.2.3,3.1,1.2l-1,1c-.8-.8-1.4-1-2.4-1h0Z"/>
      <path class="cls-1" d="M125,146.8l-3.6-10.7-3.6,10.7h-1.4l-4.1-12.8h1.5l3.3,11.2,3.7-11.2h1.3l3.7,11.2,3.3-11.2h1.5l-4.1,12.8h-1.4Z"/>
      <path class="cls-1" d="M133.4,127.9h1.7v1.7h-1.7v-1.7ZM133.6,134h1.4v12.8h-1.4v-12.8Z"/>
      <path class="cls-1" d="M143.8,147c-2.2,0-3.9-.6-5.2-1.8l.9-.9c1,1,2.4,1.6,4.2,1.6s3.9-.9,3.9-2.6-.7-2-2.4-2.1l-2.1-.2c-2.6-.2-3.9-1.3-3.9-3.4s1.8-3.6,4.6-3.6,3.4.5,4.5,1.4l-.9.9c-1-.7-2.2-1.1-3.6-1.1-2.1,0-3.3.9-3.3,2.5s.8,2,2.6,2.1l2.1.2c2.1.2,3.8.9,3.8,3.4s-2,3.8-5.1,3.8h0Z"/>
      <path class="cls-1" d="M157,147c-2.2,0-3.9-.6-5.2-1.8l.9-.9c1,1,2.4,1.6,4.2,1.6s3.9-.9,3.9-2.6-.7-2-2.4-2.1l-2.1-.2c-2.6-.2-3.9-1.3-3.9-3.4s1.8-3.6,4.6-3.6,3.4.5,4.5,1.4l-.9.9c-1-.7-2.2-1.1-3.6-1.1-2.1,0-3.3.9-3.3,2.5s.8,2,2.6,2.1l2.1.2c2.1.2,3.8.9,3.8,3.4s-2,3.8-5.1,3.8h0Z"/>
      <path class="cls-1" d="M170.9,145.8c1.5,0,2.4-.4,3.5-1.5l1,.8c-1.3,1.3-2.5,2-4.6,2-3.5,0-5.4-2.3-5.4-6.6s1.9-6.6,5.1-6.6,5.1,2.3,5.1,6.2v.6h-8.9c0,3.3,1.4,5.1,4.2,5.1ZM173.8,137.2c-.6-1.4-1.8-2.1-3.3-2.1s-2.8.8-3.3,2.1c-.3.8-.4,1.2-.4,2.4h7.6c0-1.2-.1-1.6-.4-2.4h0Z"/>
      <path class="cls-1" d="M188.1,138.9c0-2.5-1.2-3.8-3.5-3.8s-3.6,1.4-3.6,3.8v7.9h-1.4v-12.8h1.4v1.5c1-1.1,2.2-1.7,3.8-1.7s2.6.4,3.4,1.2c.9.9,1.3,2.1,1.3,3.6v8.2h-1.4v-7.9h0Z"/>
      <path class="cls-1" d="M198.2,147c-2.2,0-3.9-.6-5.2-1.8l.9-.9c1,1,2.4,1.6,4.2,1.6s3.9-.9,3.9-2.6-.7-2-2.4-2.1l-2.1-.2c-2.6-.2-3.9-1.3-3.9-3.4s1.8-3.6,4.6-3.6,3.4.5,4.5,1.4l-.9.9c-1-.7-2.2-1.1-3.6-1.1-2.1,0-3.3.9-3.3,2.5s.8,2,2.6,2.1l2.1.2c2.1.2,3.8.9,3.8,3.4s-2,3.8-5.1,3.8h0Z"/>
      <path class="cls-1" d="M212.2,147c-3.5,0-5.6-2.5-5.6-6.6s2.1-6.6,5.6-6.6,2.9.4,4.2,2l-.9.9c-1.1-1.2-1.9-1.6-3.3-1.6s-2.6.6-3.4,1.7c-.6.9-.9,1.9-.9,3.7s.2,2.7.9,3.7c.8,1.1,1.9,1.7,3.4,1.7s2.2-.4,3.3-1.6l.9.9c-1.4,1.5-2.5,2-4.2,2Z"/>
      <path class="cls-1" d="M228.6,138.9c0-2.5-1.2-3.8-3.5-3.8s-3.6,1.4-3.6,3.8v7.9h-1.4v-18.9h1.4v7.6c1-1.1,2.2-1.7,3.8-1.7,2.9,0,4.7,1.8,4.7,4.8v8.2h-1.4v-7.9h0Z"/>
      <path class="cls-1" d="M242.2,145.5c-1.1,1.1-2.1,1.4-3.9,1.4s-2.9-.3-3.8-1.2c-.6-.6-.9-1.5-.9-2.5,0-2.3,1.7-3.7,4.5-3.7h4.1v-1.4c0-2.1-1-3.1-3.6-3.1s-2.7.4-3.5,1.6l-1-.9c1.1-1.5,2.4-2,4.5-2,3.4,0,5,1.5,5,4.2v8.8h-1.4v-1.3h0ZM238.2,140.7c-2.2,0-3.3.9-3.3,2.6s1,2.5,3.4,2.5,2.3-.1,3.2-1c.5-.4.7-1.3.7-2.4v-1.6h-4Z"/>
      <path class="cls-1" d="M249.8,146.8h-1.4v-11.8h-1.8v-1h1.8v-2.8c0-1.9,1.1-3.4,3.1-3.4h1.2v1.2h-.9c-1.4,0-2,.8-2,2.1v2.8h2.9v1h-2.9v11.8h0Z"/>
      <path class="cls-1" d="M257.1,143.5v-8.4h-1.8v-1h1.8v-4.1h1.4v4.1h2.9v1h-2.9v8.5c0,1.4.6,2.1,2,2.1h.9v1.2h-1.2c-2,0-3.1-1.4-3.1-3.4h0Z"/>
      <path class="cls-1" d="M269.5,145.8c1.5,0,2.5-.4,3.5-1.5l1,.8c-1.3,1.3-2.5,2-4.6,2-3.5,0-5.5-2.3-5.5-6.6s1.9-6.6,5.1-6.6,5.1,2.3,5.1,6.2v.6h-8.9c0,3.3,1.4,5.1,4.2,5.1h0ZM272.4,137.2c-.6-1.4-1.8-2.1-3.3-2.1s-2.8.8-3.3,2.1c-.3.8-.4,1.2-.5,2.4h7.5c0-1.2-.1-1.6-.5-2.4h0Z"/>
      <path class="cls-1" d="M286.8,138.9c0-2.5-1.2-3.8-3.5-3.8s-3.6,1.4-3.6,3.8v7.9h-1.4v-12.8h1.4v1.5c1-1.1,2.2-1.7,3.8-1.7s2.5.4,3.4,1.2c.9.9,1.3,2.1,1.3,3.6v8.2h-1.4v-7.9h0Z"/>
    </g>
  </g>
  <g id="eut_V2" data-name="eut V2">
    <g>
      <polygon class="cls-2" points="307.2 156.7 308.1 157 340.3 36.7 339.5 36.5 307.2 156.7"/>
      <path class="cls-2" d="M398.1,60c0-1,.5-1.5,1.4-1.5s1.4.5,1.4,1.5v3.4h.8v-3.5c0-.9.6-1.4,1.4-1.4s1.4.5,1.4,1.5v3.4h.8v-3.5c0-.6-.2-1.2-.6-1.5-.3-.3-.8-.5-1.4-.5s-1.4.3-1.8.9c-.3-.6-.9-.9-1.7-.9s-1.2.2-1.6.7v-.6h-.8v5.5h.8v-3.4h0Z"/>
      <path class="cls-2" d="M409.8,63.5c1,0,1.5-.3,2-.9l-.5-.5c-.4.4-.8.6-1.5.6-1.1,0-1.6-.7-1.6-1.9h3.7v-.4c0-1.6-.8-2.7-2.3-2.7s-2.3,1.1-2.3,2.8,1,2.8,2.4,2.8h0ZM408.4,59.3c.2-.5.7-.8,1.3-.8s1.1.3,1.3.8c.1.3.1.5.2.9h-2.9c0-.4,0-.6.2-.9h0Z"/>
      <path class="cls-2" d="M414.9,60c0-1,.5-1.5,1.4-1.5s1.4.5,1.4,1.5v3.4h.8v-3.5c0-.9.6-1.4,1.4-1.4s1.4.5,1.4,1.5v3.4h.8v-3.5c0-.6-.2-1.2-.6-1.5-.3-.3-.8-.5-1.4-.5s-1.4.3-1.8.9c-.3-.6-.9-.9-1.7-.9s-1.2.2-1.6.7v-.6h-.8v5.5h.8v-3.4h0Z"/>
      <path class="cls-2" d="M425.2,62.8c.5.6,1,.7,1.6.7s1.1-.2,1.4-.5c.6-.6.7-1.5.7-2.3s-.1-1.8-.7-2.3c-.3-.3-.8-.5-1.4-.5s-1.1.1-1.6.7v-3.1h-.8v8h.8v-.7h0ZM426.6,58.5c1.2,0,1.4,1,1.4,2.1s-.2,2.1-1.4,2.1-1.4-1-1.4-2.1.2-2.1,1.4-2.1Z"/>
      <path class="cls-2" d="M433.2,63.5c.9,0,1.5-.3,2-.9l-.5-.5c-.4.4-.8.6-1.5.6-1.1,0-1.6-.7-1.6-1.9h3.7v-.4c0-1.6-.8-2.7-2.3-2.7s-2.3,1.1-2.3,2.8,1,2.8,2.4,2.8h0ZM431.8,59.3c.2-.5.7-.8,1.3-.8s1.1.3,1.3.8c.1.3.1.5.2.9h-2.9c0-.4,0-.6.2-.9h0Z"/>
      <path class="cls-2" d="M438.3,60c0-.8.5-1.5,1.3-1.5s.6,0,1,.4l.6-.6c-.4-.4-.8-.5-1.3-.5s-1.2.3-1.5.7v-.7h-.8v5.5h.8v-3.4h0Z"/>
      <path class="cls-2" d="M447,63.5c.7,0,1.2-.2,1.6-.6.6-.6.7-1.3.7-2.2s-.1-1.6-.7-2.2c-.4-.4-.9-.6-1.6-.6s-1.2.2-1.6.6c-.6.6-.7,1.3-.7,2.2s.1,1.6.7,2.2c.4.4.9.6,1.6.6ZM446,58.9c.3-.3.6-.4,1-.4s.8.2,1,.4c.4.4.4,1.1.4,1.7s0,1.3-.4,1.7c-.3.3-.6.4-1,.4s-.7-.2-1-.4c-.4-.4-.5-1.1-.5-1.7s0-1.3.5-1.7Z"/>
      <path class="cls-2" d="M451.6,63.4h.8v-4.9h1.2v-.6h-1.2v-1c0-.5.2-.8.7-.8h.4v-.7h-.6c-1,0-1.4.7-1.4,1.5v1.1h-.7v.6h.7v4.9h0Z"/>
      <path class="cls-2" d="M384.3,129.8c.2-.3.4-.7.4-1.1,0-1.2-.8-1.8-2.3-1.8h-1.6v6.3h1v-2.6h.6l1.5,2.6h1.2l-1.7-2.7c.4-.1.7-.3,1-.6h0ZM381.7,129.8v-2.1h.7c.4,0,.7,0,.9.2.2.2.3.4.3.8s-.1.7-.3.8c-.2.2-.5.3-.9.3h-.7,0Z"/>
      <path class="cls-2" d="M457.1,129.8c.2-.3.4-.7.4-1.1,0-1.2-.8-1.8-2.3-1.8h-1.6v6.3h1v-2.6h.6l1.5,2.6h1.2l-1.7-2.7c.4-.1.7-.3,1-.6ZM454.5,129.8v-2.1h.7c.4,0,.7,0,.9.2.2.2.3.4.3.8s-.1.7-.3.8c-.2.2-.5.3-.9.3h-.7Z"/>
      <path class="cls-2" d="M449,137.6c-.7,0-1.3.3-1.7.9s-.6,1.4-.6,2.4.2,1.8.6,2.4c.4.6.9.9,1.7.9s1.3-.3,1.7-.9c.4-.6.6-1.4.6-2.4s-.2-1.8-.6-2.4c-.4-.6-.9-.9-1.7-.9h0ZM449.9,142.7c-.2.4-.5.6-.9.6s-.7-.2-.9-.6c-.2-.4-.3-1-.3-1.8s.1-1.4.3-1.9c.2-.4.5-.6.9-.6s.7.2.9.6c.2.4.3,1,.3,1.8s-.1,1.4-.3,1.8h0Z"/>
      <path class="cls-2" d="M389.1,137.6c-.7,0-1.3.3-1.7.9s-.6,1.4-.6,2.4.2,1.8.6,2.4c.4.6.9.9,1.7.9s1.3-.3,1.7-.9c.4-.6.6-1.4.6-2.4s-.2-1.8-.6-2.4c-.4-.6-.9-.9-1.7-.9ZM390,142.7c-.2.4-.5.6-.9.6s-.7-.2-.9-.6-.3-1-.3-1.8.1-1.4.3-1.8c.2-.4.5-.6.9-.6s.7.2.9.6c.2.4.3,1,.3,1.8s-.1,1.4-.3,1.8h0Z"/>
      <path class="cls-2" d="M389,133.3c.7,0,1.3-.3,1.7-.9.4-.6.6-1.4.6-2.4s-.2-1.8-.6-2.4c-.4-.6-.9-.9-1.7-.9s-1.3.3-1.7.9-.6,1.4-.6,2.4.2,1.8.6,2.4c.4.6.9.9,1.7.9ZM388,128.2c.2-.4.5-.6.9-.6s.7.2.9.6c.2.4.3,1,.3,1.8s-.1,1.4-.3,1.8-.5.6-.9.6-.7-.2-.9-.6c-.2-.4-.3-1-.3-1.8s.1-1.4.3-1.9h0Z"/>
      <path class="cls-2" d="M455.5,141.3h1v1.7c-.3.2-.6.3-1,.3s-.8-.2-1.1-.6c-.2-.4-.4-1-.4-1.9s.1-1.4.4-1.8.7-.6,1.1-.6.4,0,.6.1c.2,0,.4.2.5.4l.6-.6c-.2-.2-.5-.4-.8-.6-.3-.1-.6-.2-1-.2s-.9.1-1.3.4c-.4.2-.7.6-.9,1.1-.2.5-.4,1.1-.4,1.8,0,1.1.2,1.9.6,2.4.4.6,1,.8,1.8.8s.7,0,1.1-.1c.3-.1.6-.2.9-.4v-3.1h-2.1v.8c.1,0,.1,0,.1,0Z"/>
      <path class="cls-2" d="M377.1,130.9c0,.5,0,.9-.2,1.2s-.4.4-.8.4-.6-.1-.8-.4c-.2-.2-.2-.6-.2-1.2v-4h-1v4.2c0,.7.2,1.2.5,1.6.4.4.9.6,1.5.6s.8,0,1.1-.3c.3-.2.5-.4.7-.8.2-.3.2-.7.2-1.1v-4.2h-1v4h0Z"/>
      <polygon class="cls-2" points="471.6 127.7 473.4 127.7 473.4 133.2 474.4 133.2 474.4 127.7 476.1 127.7 476.2 126.9 471.6 126.9 471.6 127.7"/>
      <polygon class="cls-2" points="480.4 129.9 479 126.9 477.9 126.9 479.8 130.8 479.8 133.2 480.8 133.2 480.8 130.8 482.8 126.9 481.8 126.9 480.4 129.9"/>
      <polygon class="cls-2" points="369.1 130.4 371.2 130.4 371.2 129.6 369.1 129.6 369.1 127.7 371.5 127.7 371.6 126.9 368.1 126.9 368.1 133.2 371.7 133.2 371.7 132.4 369.1 132.4 369.1 130.4"/>
      <polygon class="cls-2" points="461.6 140.7 460.2 137.7 459.1 137.7 461.1 141.6 461.1 144 462 144 462 141.6 464 137.7 463 137.7 461.6 140.7"/>
      <polygon class="cls-2" points="466 127.7 467.3 127.7 467.3 132.4 466 132.4 466 133.2 469.6 133.2 469.6 132.4 468.3 132.4 468.3 127.7 469.6 127.7 469.6 126.9 466 126.9 466 127.7"/>
      <path class="cls-2" d="M416.1,126.9h-.9v2.9c0,.5,0,.9,0,1.3s0,.8.1,1.2l-1.9-5.3h-1.3v6.3h.9v-2.9c0-.7,0-1.5-.1-2.5l1.9,5.3h1.3v-6.3Z"/>
      <polygon class="cls-2" points="393.7 144 394.7 144 394.7 141.3 396.9 141.3 396.9 140.5 394.7 140.5 394.7 138.5 397.2 138.5 397.3 137.7 393.7 137.7 393.7 144"/>
      <polygon class="cls-2" points="450.8 127.7 450.9 126.9 447.3 126.9 447.3 133.2 450.9 133.2 450.9 132.4 448.3 132.4 448.3 130.4 450.4 130.4 450.4 129.6 448.3 129.6 448.3 127.7 450.8 127.7"/>
      <polygon class="cls-2" points="438.2 127.7 438.2 126.9 434.6 126.9 434.6 127.7 435.9 127.7 435.9 132.4 434.6 132.4 434.6 133.2 438.2 133.2 438.2 132.4 436.9 132.4 436.9 127.7 438.2 127.7"/>
      <path class="cls-2" d="M436.8,137.6c-.7,0-1.3.3-1.7.9s-.6,1.4-.6,2.4.2,1.8.6,2.4c.4.6.9.9,1.7.9s1.3-.3,1.7-.9c.4-.6.6-1.4.6-2.4s-.2-1.8-.6-2.4c-.4-.6-.9-.9-1.7-.9h0ZM437.8,142.7c-.2.4-.5.6-.9.6s-.7-.2-.9-.6c-.2-.4-.3-1-.3-1.8s.1-1.4.3-1.9c.2-.4.5-.6.9-.6s.7.2.9.6c.2.4.3,1,.3,1.8s-.1,1.4-.3,1.8h0Z"/>
      <polygon class="cls-2" points="425 140.3 423 140.3 423 137.7 422 137.7 422 144 423 144 423 141.2 425 141.2 425 144 425.9 144 425.9 137.7 425 137.7 425 140.3"/>
      <path class="cls-2" d="M418.7,143.1c-.2,0-.5.1-.7.1-.5,0-.9-.2-1.2-.6s-.5-1-.5-1.8.1-1.4.5-1.8c.3-.4.7-.6,1.2-.6s.9.1,1.2.5l.5-.6c-.2-.2-.5-.4-.8-.5-.3-.1-.6-.1-1-.1s-.9.1-1.3.4c-.4.3-.7.6-1,1.1-.2.5-.4,1.1-.4,1.8s.1,1.3.3,1.8.5.9.9,1.1.9.4,1.4.4c.8,0,1.4-.2,1.9-.7l-.5-.6c-.2.2-.4.3-.6.4h0Z"/>
      <path class="cls-2" d="M429.2,130.3c0-.7,0-1.5-.1-2.5l1.9,5.3h1.3v-6.3h-.9v2.9c0,.5,0,.9,0,1.3s0,.8.1,1.2l-1.9-5.3h-1.3v6.3h.9v-2.9h0Z"/>
      <path class="cls-2" d="M425,130.9c0,.5,0,.9-.2,1.2s-.4.4-.8.4-.6-.1-.8-.4c-.2-.2-.2-.6-.2-1.2v-4h-1v4.2c0,.7.2,1.2.5,1.6.4.4.9.6,1.5.6s.8,0,1.1-.3c.3-.2.5-.4.7-.8.2-.3.2-.7.2-1.1v-4.2h-1v4h0Z"/>
      <path class="cls-2" d="M461.6,132.5c-.6,0-1.2-.2-1.6-.6l-.5.6c.5.6,1.3.8,2.2.8s.9,0,1.2-.2.6-.4.8-.7c.2-.3.3-.6.3-1,0-.6-.1-1-.5-1.2-.3-.3-.7-.5-1.3-.7-.4-.1-.6-.2-.8-.3-.2,0-.3-.2-.4-.3,0-.1-.1-.3-.1-.4,0-.3.1-.5.3-.6.2-.1.5-.2.8-.2.5,0,1,.2,1.4.6l.5-.6c-.5-.5-1.2-.8-2-.8s-.7,0-1,.2c-.3.1-.5.3-.7.6-.2.3-.3.6-.3.9s.1.8.5,1.1c.3.3.8.5,1.5.7.3.1.6.2.7.3.2.1.3.2.4.3,0,.1.1.3.1.5,0,.3-.1.6-.4.8s-.5.3-.9.3h0Z"/>
      <polygon class="cls-2" points="403.1 138.6 404.9 138.6 404.9 144 405.9 144 405.9 138.6 407.6 138.6 407.7 137.7 403.1 137.7 403.1 138.6"/>
      <polygon class="cls-2" points="442.5 137.7 441.6 137.7 441.6 144 445.1 144 445.2 143.1 442.5 143.1 442.5 137.7"/>
      <path class="cls-2" d="M431.5,140.6c0,.5,0,.9,0,1.3s0,.8.1,1.2l-1.9-5.3h-1.3v6.3h.9v-2.9c0-.7,0-1.5-.1-2.5l1.9,5.3h1.3v-6.3h-.9v2.9h0Z"/>
      <polygon class="cls-2" points="403.2 127.7 403.3 126.9 399.7 126.9 399.7 133.2 403.3 133.2 403.3 132.4 400.7 132.4 400.7 130.4 402.9 130.4 402.9 129.6 400.7 129.6 400.7 127.7 403.2 127.7"/>
      <polygon class="cls-2" points="442.9 132.2 441.5 126.9 440.4 126.9 442.3 133.2 443.4 133.2 445.3 126.9 444.3 126.9 442.9 132.2"/>
      <polygon class="cls-2" points="410.7 141.2 412.9 141.2 412.9 140.4 410.7 140.4 410.7 138.5 413.2 138.5 413.3 137.7 409.7 137.7 409.7 144 413.3 144 413.3 143.2 410.7 143.2 410.7 141.2"/>
      <path class="cls-2" d="M408.4,126.9h-1.2l-1.9,6.3h1l.4-1.5h2.1l.4,1.5h1l-1.9-6.3h0ZM406.9,130.8l.9-3.1.9,3.1h-1.7Z"/>
      <path class="cls-2" d="M395.3,126.9h-1.6v6.3h1v-2.2h.7c.7,0,1.3-.2,1.7-.5.4-.3.6-.9.6-1.6s-.2-1.1-.6-1.5-1-.5-1.8-.5h0ZM396.3,129.8c-.2.2-.5.3-.9.3h-.7v-2.4h.7c.9,0,1.3.4,1.3,1.2s-.1.8-.3,1h0Z"/>
      <polygon class="cls-2" points="484.4 98.7 484.4 91.1 479.5 91.1 479.5 98.7 472 98.7 472 103.7 479.5 103.7 479.5 111.4 484.4 111.4 484.4 103.7 492 103.7 492 98.7 484.4 98.7"/>
      <rect class="cls-2" x="455.8" y="91.1" width="4.9" height="28.1"/>
      <path class="cls-2" d="M444.6,119.1v-33.6h27.4v-5h-32.3v33.6h-8.9c-5.1,0-8.8-3.4-8.8-8v-25.6h-4.9v16.2c0,9.7-7.4,17.4-16.8,17.4s-13.5-3.9-15.6-10.4h11.7c8.9,0,13.5-6.3,13.5-12.5s-4.5-11.8-13.1-11.8-17.8,8.7-17.8,18.9v.4h-20v5h20.6c2.2,9.4,10.3,15.4,20.7,15.4s13.4-3.3,17.4-8.9c1.8,5.4,6.9,8.9,13.1,8.9h13.8,0ZM383.8,98.7v-.4c0-7.4,6-13.9,12.9-13.9s8.2,4.5,8.2,6.8c0,5.2-4.4,7.5-8.5,7.5h-12.5,0Z"/>
    </g>
  </g>
</svg>