<?xml version="1.0" encoding="UTF-8"?>
<svg id="Ebene_1" data-name="Ebene 1" xmlns="http://www.w3.org/2000/svg" version="1.1" viewBox="0 0 487.9 157">
  <defs>
    <style>
      .cls-1 {
        fill: #1d1d1b;
      }

      .cls-1, .cls-2 {
        stroke-width: 0px;
      }

      .cls-2 {
        fill: #000;
      }
    </style>
  </defs>
  <g id="soziale_arbeit_3" data-name="soziale arbeit 3">
    <path class="cls-1" d="M121.1,38c0,2.3-.4,3.9-1.4,4.8-1.7,1.6-3.4,1.8-6,1.8s-5.5-1.8-5.5-4.4,1.9-4.3,5.3-4.3h7.5v2.1h0ZM130.6,52.1v-25.1c0-8.9-5.6-13.5-16.2-13.5s-10,1.2-13.8,5.3l6.1,5.9c2-2.3,3.7-3.2,7.3-3.2s7.1,1.8,7.1,6v1.9h-9c-8.9,0-13,5-13,11.1s1.1,6.4,3.1,8.6c2.3,2.3,5.4,3.4,9.7,3.4s6.8-1.1,9.4-3.7v3.3h9.3ZM82.2,33c0,6.2-.8,11-6.5,11s-6.4-4.8-6.4-11,.7-10.9,6.4-10.9,6.5,4.7,6.5,10.9M91.7,52.1V0h-9.5v17.3c-2.5-2.8-5.4-3.8-9.3-3.8s-7.2,1.3-9.3,3.4c-3.8,3.8-3.9,10.3-3.9,16s0,12.3,3.9,16.1c2.1,2.1,5.6,3.4,9.4,3.4s6.8-1.1,9.4-4v3.6h9.3,0ZM59.2,56.9h-22.7v2.2h22.7v-2.2ZM31.4,52.1v-24.7c0-8-4.4-13.9-12.7-13.9s-6.6,1.3-9.1,4V0H0v52.1h9.5v-23.3c0-5,3.2-6.7,6.1-6.7s6.2,1.7,6.2,6.7v23.3s9.5,0,9.5,0Z"/>
    <path class="cls-1" d="M8.8,95.5v-8c0-2-1.2-2.8-2.6-2.8s-2.6.9-2.6,2.8v8H.9v-18.2h2.6v6.6c.9-1,2.1-1.5,3.4-1.5,2.9,0,4.5,1.9,4.5,4.8v8.4h-2.6Z"/>
    <path class="cls-1" d="M23.9,94.1c-.8.9-2.1,1.5-3.9,1.5s-3-.7-3.9-1.5c-1.2-1.3-1.5-2.9-1.5-5.1s.3-3.8,1.5-5.1c.8-.9,2.1-1.5,3.9-1.5s3.1.7,3.9,1.5c1.2,1.3,1.5,2.9,1.5,5.1s-.3,3.8-1.5,5.1ZM21.9,85.4c-.5-.5-1.2-.7-1.9-.7s-1.4.3-1.9.7c-.8.8-.9,2.2-.9,3.6s0,2.8.9,3.6c.5.5,1.1.8,1.9.8s1.4-.3,1.9-.8c.8-.8.9-2.2.9-3.6s0-2.8-.9-3.6Z"/>
    <path class="cls-1" d="M34,95.6c-2.9,0-5.8-1.8-5.8-6.7s2.9-6.6,5.8-6.6,3.1.5,4.3,1.8l-1.8,1.7c-.8-.9-1.5-1.2-2.5-1.2s-1.8.4-2.4,1.2c-.6.7-.8,1.6-.8,3.2s.2,2.5.8,3.2c.6.7,1.4,1.2,2.4,1.2s1.7-.3,2.5-1.2l1.8,1.7c-1.2,1.3-2.5,1.8-4.3,1.8h0Z"/>
    <path class="cls-1" d="M48.9,95.5v-8c0-2-1.2-2.8-2.6-2.8s-2.6.9-2.6,2.8v8h-2.6v-18.2h2.6v6.6c.9-1,2.1-1.5,3.4-1.5,2.9,0,4.5,1.9,4.5,4.8v8.4h-2.6Z"/>
    <path class="cls-1" d="M59.7,95.6c-2.1,0-3.9-.4-5.5-1.9l1.7-1.7c1.1,1.1,2.5,1.4,3.7,1.4s2.8-.6,2.8-1.8-.5-1.4-1.7-1.5l-2.1-.2c-2.4-.2-3.8-1.3-3.8-3.6s2.2-4,4.9-4,3.6.4,4.8,1.5l-1.6,1.7c-.8-.7-2-.9-3.2-.9s-2.4.7-2.4,1.7.4,1.4,1.8,1.5l2.1.2c2.4.2,3.9,1.4,3.9,3.7s-2.3,4.1-5.4,4.1h0Z"/>
    <path class="cls-1" d="M73.5,95.6c-2.9,0-5.8-1.8-5.8-6.7s2.9-6.6,5.8-6.6,3.1.5,4.3,1.8l-1.8,1.7c-.8-.9-1.5-1.2-2.5-1.2s-1.8.4-2.4,1.2c-.6.7-.8,1.6-.8,3.2s.2,2.5.8,3.2c.6.7,1.4,1.2,2.4,1.2s1.7-.3,2.5-1.2l1.8,1.7c-1.2,1.3-2.5,1.8-4.3,1.8h0Z"/>
    <path class="cls-1" d="M88.4,95.5v-8c0-2-1.1-2.8-2.6-2.8s-2.6.9-2.6,2.8v8h-2.6v-18.2h2.6v6.6c.9-1,2.1-1.5,3.4-1.5,2.9,0,4.5,1.9,4.5,4.8v8.4h-2.6Z"/>
    <path class="cls-1" d="M102.7,95.5v-1.3c-.9,1-2.1,1.5-3.5,1.5s-2.4-.4-3.2-1.2c-1-1-1.3-2.2-1.3-3.7v-8.3h2.6v7.9c0,2,1.1,2.9,2.6,2.9s2.7-.9,2.7-2.9v-7.9h2.6v13h-2.6,0Z"/>
    <path class="cls-1" d="M112.6,95.5c-2.5,0-3.6-1.7-3.6-3.6v-14.7h2.6v14.5c0,1,.4,1.5,1.4,1.5h1.1v2.2s-1.6,0-1.6,0Z"/>
    <path class="cls-1" d="M118.8,89.7c0,2.2,1.2,3.6,3.3,3.6s2.2-.4,3.1-1.3l1.7,1.6c-1.3,1.3-2.6,2-4.9,2-3.2,0-5.8-1.7-5.8-6.7s2.2-6.6,5.5-6.6,5.5,2.6,5.5,6.2v1.2h-8.4,0ZM124.3,86.1c-.4-1-1.3-1.6-2.6-1.6s-2.2.7-2.6,1.6c-.3.6-.3,1-.3,1.8h5.8c0-.8-.1-1.2-.4-1.8Z"/>
    <path class="cls-1" d="M144.3,95.5v-1.4c-1,1.2-2,1.5-3.4,1.5s-2.5-.4-3.2-1.2c-1.3-1.3-1.5-3.5-1.5-5.5s.1-4.2,1.5-5.5c.7-.7,1.8-1.2,3.1-1.2s2.5.3,3.4,1.5v-6.6h2.6v18.2h-2.6ZM141.5,84.7c-2.4,0-2.7,2-2.7,4.3s.4,4.3,2.7,4.3,2.7-2,2.7-4.3-.3-4.3-2.7-4.3Z"/>
    <path class="cls-1" d="M157.8,95.5v-1.2c-.9.9-1.8,1.3-3.5,1.3s-2.7-.4-3.5-1.2c-.7-.7-1-1.7-1-2.8,0-2.2,1.5-3.7,4.5-3.7h3.4v-.9c0-1.6-.8-2.4-2.8-2.4s-2.1.3-2.8,1.3l-1.7-1.6c1.2-1.4,2.5-1.9,4.7-1.9,3.6,0,5.4,1.5,5.4,4.5v8.7h-2.6ZM157.8,89.7h-3.1c-1.5,0-2.3.7-2.3,1.9s.7,1.8,2.4,1.8,1.7,0,2.4-.7c.4-.4.6-1,.6-1.9v-1.1h0Z"/>
    <path class="cls-1" d="M171.3,85.5c-.6-.6-1.1-.9-1.9-.9-1.4,0-2.6,1.1-2.6,2.9v7.9h-2.6v-13h2.6v1.4c.7-.9,2-1.6,3.5-1.6s2.2.3,3.1,1.2l-2,2h0Z"/>
    <path class="cls-1" d="M191.5,95.5v-7.9c0-2-1.1-2.9-2.6-2.9s-2.7.9-2.7,2.8v8h-2.6v-7.9c0-2-1.1-2.9-2.6-2.9s-2.7.9-2.7,2.9v7.9h-2.6v-13h2.6v1.3c.9-.9,2.2-1.5,3.5-1.5s2.9.6,3.7,1.9c1-1.3,2.4-1.9,4.1-1.9s2.5.4,3.3,1.2c1,1,1.4,2.2,1.4,3.7v8.3h-2.6Z"/>
    <path class="cls-1" d="M202.3,95.6c-2.1,0-3.9-.4-5.5-1.9l1.7-1.7c1,1.1,2.5,1.4,3.7,1.4s2.8-.6,2.8-1.8-.5-1.4-1.7-1.5l-2.1-.2c-2.4-.2-3.8-1.3-3.8-3.6s2.2-4,4.9-4,3.6.4,4.8,1.5l-1.6,1.7c-.8-.7-2-.9-3.2-.9s-2.4.7-2.4,1.7.4,1.4,1.8,1.5l2,.2c2.4.2,3.9,1.4,3.9,3.7s-2.3,4.1-5.4,4.1Z"/>
    <path class="cls-1" d="M214.8,95.5c-2.4,0-3.6-1.7-3.6-3.6v-7.2h-1.5v-2h1.5v-3.9h2.6v3.9h2.5v2h-2.5v7c0,.9.5,1.5,1.4,1.5h1.1v2.2h-1.6,0Z"/>
    <path class="cls-1" d="M226.8,95.5v-1.2c-1,.9-1.8,1.3-3.5,1.3s-2.7-.4-3.5-1.2c-.7-.7-1-1.7-1-2.8,0-2.2,1.5-3.7,4.5-3.7h3.4v-.9c0-1.6-.8-2.4-2.8-2.4s-2.1.3-2.8,1.3l-1.7-1.6c1.2-1.4,2.5-1.9,4.7-1.9,3.6,0,5.4,1.5,5.4,4.5v8.7h-2.6ZM226.7,89.7h-3c-1.5,0-2.3.7-2.3,1.9s.7,1.8,2.4,1.8,1.7,0,2.4-.7c.4-.4.6-1,.6-1.9v-1.1h0Z"/>
    <path class="cls-1" d="M240.7,95.5v-1.4c-1,1.2-2,1.5-3.4,1.5s-2.5-.4-3.2-1.2c-1.3-1.3-1.5-3.5-1.5-5.5s.1-4.2,1.5-5.5c.7-.7,1.8-1.2,3.1-1.2s2.5.3,3.4,1.5v-6.6h2.6v18.2h-2.6ZM238,84.7c-2.4,0-2.7,2-2.7,4.3s.4,4.3,2.7,4.3,2.7-2,2.7-4.3-.3-4.3-2.7-4.3Z"/>
    <path class="cls-1" d="M251.1,95.5c-2.4,0-3.6-1.7-3.6-3.6v-7.2h-1.5v-2h1.5v-3.9h2.6v3.9h2.5v2h-2.5v7c0,.9.5,1.5,1.4,1.5h1.1v2.2h-1.6,0Z"/>
    <path class="cls-1" d="M3,121.1h-1.3v-11.4H0v-1h1.7v-2.7c0-1.9,1-3.2,3-3.2h1.1v1.1h-.9c-1.3,0-1.9.7-1.9,2.1v2.7h2.8v1h-2.8v11.4h0Z"/>
    <path class="cls-1" d="M16.4,119.9c-1.1,1.1-2,1.4-3.8,1.4s-2.8-.3-3.6-1.1c-.6-.6-.9-1.5-.9-2.4,0-2.2,1.6-3.6,4.3-3.6h4v-1.4c0-2-.9-3-3.5-3s-2.6.4-3.4,1.6l-.9-.8c1.1-1.5,2.3-1.9,4.4-1.9,3.3,0,4.8,1.5,4.8,4.1v8.4h-1.3v-1.2h0ZM12.6,115.2c-2.1,0-3.2.8-3.2,2.5s1,2.4,3.2,2.4,2.2-.1,3.1-.9c.5-.4.7-1.2.7-2.4v-1.6h-3.8Z"/>
    <path class="cls-1" d="M27.1,121.2c-3.4,0-5.4-2.4-5.4-6.3s2.1-6.3,5.4-6.3,2.8.4,4.1,1.9l-.9.8c-1.1-1.2-1.9-1.6-3.2-1.6s-2.5.5-3.3,1.6c-.6.9-.8,1.9-.8,3.5s.2,2.6.8,3.5c.7,1.1,1.9,1.6,3.3,1.6s2.1-.4,3.2-1.6l.9.8c-1.3,1.5-2.4,1.9-4.1,1.9h0Z"/>
    <path class="cls-1" d="M42.9,113.4c0-2.4-1.2-3.7-3.4-3.7s-3.5,1.3-3.5,3.7v7.7h-1.3v-18.2h1.3v7.4c.9-1.1,2.1-1.6,3.6-1.6,2.8,0,4.6,1.7,4.6,4.6v7.9h-1.3s0-7.7,0-7.7Z"/>
    <path class="cls-1" d="M56.7,120.2c-.6.6-1.7,1.1-3,1.1s-2.6-.3-3.7-1.7v1.6h-1.3v-18.2h1.3v7.5c1.1-1.4,2.2-1.7,3.7-1.7s2.4.4,3,1.1c1.2,1.3,1.6,3.3,1.6,5.2s-.3,4-1.6,5.2h0ZM53.5,109.7c-3,0-3.5,2.6-3.5,5.2s.5,5.2,3.5,5.2,3.5-2.6,3.5-5.2-.5-5.2-3.5-5.2Z"/>
    <path class="cls-1" d="M67,120.1c1.5,0,2.4-.4,3.4-1.5l1,.8c-1.2,1.3-2.4,1.9-4.5,1.9-3.4,0-5.2-2.2-5.2-6.3s1.8-6.3,4.9-6.3,4.9,2.2,4.9,6v.6h-8.6c0,3.1,1.4,4.9,4,4.9h0ZM69.8,111.8c-.5-1.3-1.8-2.1-3.2-2.1s-2.7.8-3.2,2.1c-.3.8-.4,1.1-.4,2.3h7.3c0-1.2-.1-1.6-.4-2.3Z"/>
    <path class="cls-1" d="M80,109.7c-2.1,0-3.3,1.8-3.3,3.7v7.6h-1.3v-12.4h1.3v1.6c.7-1.1,2.1-1.8,3.6-1.8s2.1.3,3,1.2l-.9.9c-.7-.7-1.3-1-2.3-1h0Z"/>
    <path class="cls-1" d="M90.5,120.1c1.5,0,2.4-.4,3.4-1.5l1,.8c-1.2,1.3-2.4,1.9-4.5,1.9-3.4,0-5.2-2.2-5.2-6.3s1.8-6.3,4.9-6.3,4.9,2.2,4.9,6v.6h-8.6c0,3.1,1.4,4.9,4,4.9h0ZM93.3,111.8c-.5-1.3-1.8-2.1-3.2-2.1s-2.7.8-3.2,2.1c-.3.8-.4,1.1-.4,2.3h7.3c0-1.2-.1-1.6-.4-2.3Z"/>
    <path class="cls-1" d="M98.8,102.8h1.6v1.6h-1.6v-1.6ZM98.9,108.7h1.3v12.4h-1.3v-12.4Z"/>
    <path class="cls-1" d="M109.5,121.2c-3.4,0-5.4-2.4-5.4-6.3s2.1-6.3,5.4-6.3,2.8.4,4.1,1.9l-.9.8c-1.1-1.2-1.9-1.6-3.2-1.6s-2.5.5-3.3,1.6c-.6.9-.9,1.9-.9,3.5s.2,2.6.9,3.5c.7,1.1,1.9,1.6,3.3,1.6s2.1-.4,3.2-1.6l.9.8c-1.3,1.5-2.4,1.9-4.1,1.9h0Z"/>
    <path class="cls-1" d="M125.4,113.4c0-2.4-1.2-3.7-3.4-3.7s-3.5,1.3-3.5,3.7v7.7h-1.3v-18.2h1.3v7.4c.9-1.1,2.1-1.6,3.6-1.6,2.8,0,4.6,1.7,4.6,4.6v7.9h-1.3v-7.7Z"/>
    <path class="cls-1" d="M141.8,121.2c-2.1,0-3.7-.6-5-1.8l.9-.9c.9,1,2.3,1.5,4.1,1.5s3.7-.9,3.7-2.5-.7-1.9-2.4-2.1l-2.1-.2c-2.5-.2-3.7-1.3-3.7-3.2s1.7-3.5,4.4-3.5,3.2.5,4.3,1.3l-.9.9c-.9-.7-2.1-1.1-3.5-1.1-2.1,0-3.1.9-3.1,2.4s.8,1.9,2.5,2.1l2,.2c2.1.2,3.6.8,3.6,3.2s-1.9,3.7-4.9,3.7h0Z"/>
    <path class="cls-1" d="M158.3,119.9c-.9.9-2,1.4-3.4,1.4s-2.5-.5-3.4-1.4c-1.3-1.3-1.5-3.2-1.5-5s.2-3.7,1.5-5,2.1-1.4,3.4-1.4,2.5.5,3.4,1.4c1.3,1.3,1.5,3.2,1.5,5s-.2,3.7-1.5,5ZM157.5,110.8c-.7-.7-1.6-1.1-2.6-1.1s-1.9.4-2.6,1.1c-1,1-1.1,2.7-1.1,4.1s0,3.1,1.1,4.1c.7.7,1.6,1.1,2.6,1.1s1.9-.4,2.6-1.1c1-1,1.1-2.7,1.1-4.1s0-3.1-1.1-4.1Z"/>
    <path class="cls-1" d="M162.5,119.9l7.4-10h-7v-1.1h8.4v1.2l-7.5,10h7.5v1.1h-8.8v-1.2h0Z"/>
    <path class="cls-1" d="M174.7,102.8h1.6v1.6h-1.6v-1.6ZM174.8,108.7h1.3v12.4h-1.3v-12.4Z"/>
    <path class="cls-1" d="M188,119.9c-1,1.1-2,1.4-3.8,1.4s-2.8-.3-3.6-1.1c-.6-.6-.9-1.5-.9-2.4,0-2.2,1.6-3.6,4.3-3.6h4v-1.4c0-2-1-3-3.5-3s-2.6.4-3.4,1.6l-1-.8c1-1.5,2.3-1.9,4.4-1.9,3.3,0,4.8,1.5,4.8,4.1v8.4h-1.3v-1.2h0ZM184.2,115.2c-2.1,0-3.1.8-3.1,2.5s1,2.4,3.2,2.4,2.2-.1,3.1-.9c.5-.4.7-1.2.7-2.4v-1.6h-3.8Z"/>
    <path class="cls-1" d="M193.8,117.9v-15h1.3v15c0,1.4.4,2.1,1.9,2.1h.9v1.1h-1.1c-2,0-3-1.3-3-3.2h0Z"/>
    <path class="cls-1" d="M205.5,120.1c1.5,0,2.4-.4,3.4-1.5l1,.8c-1.2,1.3-2.4,1.9-4.5,1.9-3.4,0-5.2-2.2-5.2-6.3s1.8-6.3,4.9-6.3,5,2.2,5,6v.6h-8.6c0,3.1,1.4,4.9,4,4.9h0ZM208.3,111.8c-.5-1.3-1.8-2.1-3.2-2.1s-2.7.8-3.2,2.1c-.3.8-.4,1.1-.4,2.3h7.3c0-1.2-.1-1.6-.4-2.3h0Z"/>
    <path class="cls-1" d="M228,119.9c-1,1.1-2,1.4-3.8,1.4s-2.8-.3-3.6-1.1c-.6-.6-.9-1.5-.9-2.4,0-2.2,1.6-3.6,4.3-3.6h4v-1.4c0-2-1-3-3.5-3s-2.6.4-3.4,1.6l-1-.8c1-1.5,2.3-1.9,4.4-1.9,3.3,0,4.8,1.5,4.8,4.1v8.4h-1.3v-1.2h0ZM224.2,115.2c-2.1,0-3.1.8-3.1,2.5s1,2.4,3.2,2.4,2.2-.1,3.1-.9c.5-.4.7-1.2.7-2.4v-1.6h-3.8Z"/>
    <path class="cls-1" d="M238.4,109.7c-2.1,0-3.3,1.8-3.3,3.7v7.6h-1.3v-12.4h1.3v1.6c.7-1.1,2.1-1.8,3.6-1.8s2.1.3,3,1.2l-1,.9c-.7-.7-1.3-1-2.3-1h0Z"/>
    <path class="cls-1" d="M252.6,120.2c-.6.6-1.7,1.1-3,1.1s-2.6-.3-3.7-1.7v1.6h-1.3v-18.2h1.3v7.5c1.1-1.4,2.2-1.7,3.7-1.7s2.4.4,3,1.1c1.2,1.3,1.6,3.3,1.6,5.2s-.3,4-1.6,5.2h0ZM249.4,109.7c-3,0-3.5,2.6-3.5,5.2s.5,5.2,3.5,5.2,3.5-2.6,3.5-5.2-.5-5.2-3.5-5.2Z"/>
    <path class="cls-1" d="M262.9,120.1c1.5,0,2.4-.4,3.4-1.5l1,.8c-1.2,1.3-2.4,1.9-4.5,1.9-3.4,0-5.2-2.2-5.2-6.3s1.8-6.3,4.9-6.3,5,2.2,5,6v.6h-8.6c0,3.1,1.4,4.9,4,4.9h0ZM265.8,111.8c-.5-1.3-1.8-2.1-3.2-2.1s-2.7.8-3.2,2.1c-.3.8-.4,1.1-.4,2.3h7.3c0-1.2-.1-1.6-.4-2.3h0Z"/>
    <path class="cls-1" d="M271.2,102.8h1.6v1.6h-1.6v-1.6ZM271.4,108.7h1.3v12.4h-1.3v-12.4Z"/>
    <path class="cls-1" d="M277.8,117.9v-8.1h-1.7v-1h1.7v-3.9h1.3v3.9h2.8v1h-2.8v8.2c0,1.3.6,2.1,1.9,2.1h.9v1.1h-1.1c-2,0-3-1.4-3-3.2h0Z"/>
  </g>
  <g id="eut_V2" data-name="eut V2">
    <polygon class="cls-2" points="300.3 156.7 301.1 157 333.4 36.7 332.6 36.5 300.3 156.7"/>
    <path class="cls-2" d="M391.2,60c0-1,.5-1.5,1.4-1.5s1.4.5,1.4,1.5v3.4h.8v-3.5c0-.9.6-1.4,1.4-1.4s1.4.5,1.4,1.5v3.4h.8v-3.5c0-.6-.2-1.2-.6-1.5-.3-.3-.8-.5-1.4-.5s-1.4.3-1.8.9c-.3-.6-.9-.9-1.7-.9s-1.2.2-1.6.7v-.6h-.8v5.5h.8v-3.4h0Z"/>
    <path class="cls-2" d="M402.8,63.5c1,0,1.5-.3,2-.9l-.5-.5c-.4.4-.8.6-1.5.6-1.1,0-1.6-.7-1.6-1.9h3.7v-.4c0-1.6-.8-2.7-2.3-2.7s-2.3,1.1-2.3,2.8,1,2.8,2.4,2.8h0ZM401.4,59.3c.2-.5.7-.8,1.3-.8s1.1.3,1.3.8c.1.3.1.5.2.9h-2.9c0-.4,0-.6.2-.9h0Z"/>
    <path class="cls-2" d="M408,60c0-1,.5-1.5,1.4-1.5s1.4.5,1.4,1.5v3.4h.8v-3.5c0-.9.6-1.4,1.4-1.4s1.4.5,1.4,1.5v3.4h.8v-3.5c0-.6-.2-1.2-.6-1.5-.3-.3-.8-.5-1.4-.5s-1.4.3-1.8.9c-.3-.6-.9-.9-1.7-.9s-1.2.2-1.6.7v-.6h-.8v5.5h.8v-3.4h0Z"/>
    <path class="cls-2" d="M418.3,62.7c.5.6,1,.7,1.6.7s1.1-.2,1.4-.5c.6-.6.7-1.5.7-2.3s-.1-1.8-.7-2.3c-.3-.3-.8-.5-1.4-.5s-1.1.1-1.6.7v-3.1h-.8v8h.8v-.7h0ZM419.7,58.5c1.2,0,1.4,1,1.4,2.1s-.2,2.1-1.4,2.1-1.4-1-1.4-2.1.2-2.1,1.4-2.1Z"/>
    <path class="cls-2" d="M426.3,63.5c.9,0,1.5-.3,2-.9l-.5-.5c-.4.4-.8.6-1.5.6-1.1,0-1.6-.7-1.6-1.9h3.7v-.4c0-1.6-.8-2.7-2.3-2.7s-2.3,1.1-2.3,2.8,1,2.8,2.4,2.8h0ZM424.8,59.3c.2-.5.7-.8,1.3-.8s1.1.3,1.3.8c.1.3.1.5.2.9h-2.9c0-.4,0-.6.2-.9h0Z"/>
    <path class="cls-2" d="M431.4,60c0-.8.5-1.5,1.3-1.5s.6,0,1,.4l.6-.6c-.4-.4-.8-.5-1.3-.5s-1.2.3-1.5.7v-.7h-.8v5.5h.8v-3.4h0Z"/>
    <path class="cls-2" d="M440.1,63.5c.7,0,1.2-.2,1.6-.6.6-.6.7-1.3.7-2.2s-.1-1.6-.7-2.2c-.4-.4-.9-.6-1.6-.6s-1.2.2-1.6.6c-.6.6-.7,1.3-.7,2.2s.1,1.6.7,2.2c.4.4.9.6,1.6.6ZM439.1,58.9c.3-.3.6-.4,1-.4s.8.2,1,.4c.4.4.4,1.1.4,1.7s0,1.3-.4,1.7c-.3.3-.6.4-1,.4s-.7-.2-1-.4c-.4-.4-.5-1.1-.5-1.7s0-1.3.5-1.7Z"/>
    <path class="cls-2" d="M444.6,63.4h.8v-4.9h1.2v-.6h-1.2v-1c0-.5.2-.8.7-.8h.4v-.7h-.6c-1,0-1.4.7-1.4,1.5v1.1h-.7v.6h.7v4.9h0Z"/>
    <path class="cls-2" d="M377.3,129.8c.2-.3.4-.7.4-1.1,0-1.2-.8-1.8-2.3-1.8h-1.6v6.3h1v-2.6h.6l1.5,2.6h1.2l-1.7-2.7c.4-.1.7-.3,1-.6h0ZM374.7,129.8v-2.1h.7c.4,0,.7,0,.9.2.2.2.3.4.3.8s-.1.7-.3.8c-.2.2-.5.3-.9.3h-.7,0Z"/>
    <path class="cls-2" d="M450.1,129.8c.2-.3.4-.7.4-1.1,0-1.2-.8-1.8-2.3-1.8h-1.6v6.3h1v-2.6h.6l1.5,2.6h1.2l-1.7-2.7c.4-.1.7-.3,1-.6h0ZM447.5,129.8v-2.1h.7c.4,0,.7,0,.9.2.2.2.3.4.3.8s0,.7-.3.8c-.2.2-.5.3-.9.3h-.7Z"/>
    <path class="cls-2" d="M442,137.6c-.7,0-1.3.3-1.7.9-.4.6-.6,1.4-.6,2.4s.2,1.8.6,2.4.9.9,1.7.9,1.3-.3,1.7-.9c.4-.6.6-1.4.6-2.4s-.2-1.8-.6-2.4c-.4-.6-.9-.9-1.7-.9h0ZM443,142.7c-.2.4-.5.6-.9.6s-.7-.2-.9-.6c-.2-.4-.3-1-.3-1.8s0-1.4.3-1.9c.2-.4.5-.6.9-.6s.7.2.9.6c.2.4.3,1,.3,1.8s0,1.4-.3,1.8h0Z"/>
    <path class="cls-2" d="M382.2,137.6c-.7,0-1.3.3-1.7.9s-.6,1.4-.6,2.4.2,1.8.6,2.4c.4.6.9.9,1.7.9s1.3-.3,1.7-.9c.4-.6.6-1.4.6-2.4s-.2-1.8-.6-2.4c-.4-.6-.9-.9-1.7-.9ZM383.1,142.7c-.2.4-.5.6-.9.6s-.7-.2-.9-.6-.3-1-.3-1.8.1-1.4.3-1.8c.2-.4.5-.6.9-.6s.7.2.9.6c.2.4.3,1,.3,1.8s-.1,1.4-.3,1.8h0Z"/>
    <path class="cls-2" d="M382,133.3c.7,0,1.3-.3,1.7-.9.4-.6.6-1.4.6-2.4s-.2-1.8-.6-2.4c-.4-.6-.9-.9-1.7-.9s-1.3.3-1.7.9-.6,1.4-.6,2.4.2,1.8.6,2.4c.4.6.9.9,1.7.9ZM381.1,128.2c.2-.4.5-.6.9-.6s.7.2.9.6c.2.4.3,1,.3,1.8s-.1,1.4-.3,1.8-.5.6-.9.6-.7-.2-.9-.6c-.2-.4-.3-1-.3-1.8s.1-1.4.3-1.9h0Z"/>
    <path class="cls-2" d="M448.6,141.3h1v1.7c-.3.2-.6.3-1,.3s-.8-.2-1.1-.6c-.2-.4-.3-1-.3-1.9s.2-1.4.4-1.8.7-.6,1.1-.6.4,0,.6.1c.2,0,.4.2.5.4l.6-.6c-.2-.2-.5-.4-.8-.6-.3-.1-.6-.2-1-.2s-.9.1-1.3.4c-.4.2-.7.6-.9,1.1s-.3,1.1-.3,1.8c0,1.1.2,1.9.6,2.4.4.6,1,.8,1.8.8s.7,0,1.1-.1c.3-.1.6-.2.9-.4v-3.1h-2.1v.8c0,0,.1,0,.1,0Z"/>
    <path class="cls-2" d="M370.2,130.9c0,.5,0,.9-.2,1.2s-.4.4-.8.4-.6-.1-.8-.4c-.2-.2-.2-.6-.2-1.2v-4h-1v4.2c0,.7.2,1.2.5,1.6.4.4.9.6,1.5.6s.8,0,1.1-.3c.3-.2.5-.4.7-.8.2-.3.2-.7.2-1.1v-4.2h-1v4h0Z"/>
    <polygon class="cls-2" points="464.7 127.7 466.5 127.7 466.5 133.1 467.5 133.1 467.5 127.7 469.2 127.7 469.3 126.9 464.7 126.9 464.7 127.7"/>
    <polygon class="cls-2" points="473.4 129.8 472 126.9 470.9 126.9 472.9 130.8 472.9 133.1 473.9 133.1 473.9 130.8 475.9 126.9 474.8 126.9 473.4 129.8"/>
    <polygon class="cls-2" points="362.1 130.3 364.3 130.3 364.3 129.6 362.1 129.6 362.1 127.7 364.6 127.7 364.7 126.9 361.1 126.9 361.1 133.1 364.7 133.1 364.7 132.3 362.1 132.3 362.1 130.3"/>
    <polygon class="cls-2" points="454.6 140.7 453.2 137.7 452.1 137.7 454.1 141.6 454.1 144 455.1 144 455.1 141.6 457.1 137.7 456 137.7 454.6 140.7"/>
    <polygon class="cls-2" points="459.1 127.7 460.4 127.7 460.4 132.3 459.1 132.3 459.1 133.1 462.7 133.1 462.7 132.3 461.4 132.3 461.4 127.7 462.7 127.7 462.7 126.9 459.1 126.9 459.1 127.7"/>
    <path class="cls-2" d="M409.2,126.9h-.9v2.9c0,.5,0,.9,0,1.3s0,.8.1,1.2l-1.9-5.3h-1.3v6.3h.9v-2.9c0-.7,0-1.5-.1-2.5l1.9,5.3h1.3v-6.3Z"/>
    <polygon class="cls-2" points="386.8 144 387.7 144 387.7 141.3 390 141.3 390 140.5 387.7 140.5 387.7 138.5 390.3 138.5 390.4 137.7 386.8 137.7 386.8 144"/>
    <polygon class="cls-2" points="443.8 127.7 443.9 126.9 440.4 126.9 440.4 133.1 444 133.1 444 132.3 441.4 132.3 441.4 130.3 443.5 130.3 443.5 129.6 441.4 129.6 441.4 127.7 443.8 127.7"/>
    <polygon class="cls-2" points="431.3 127.7 431.3 126.9 427.7 126.9 427.7 127.7 429 127.7 429 132.3 427.7 132.3 427.7 133.1 431.3 133.1 431.3 132.3 430 132.3 430 127.7 431.3 127.7"/>
    <path class="cls-2" d="M429.9,137.6c-.7,0-1.3.3-1.7.9s-.6,1.4-.6,2.4.2,1.8.6,2.4c.4.6.9.9,1.7.9s1.3-.3,1.7-.9c.4-.6.6-1.4.6-2.4s-.2-1.8-.6-2.4c-.4-.6-.9-.9-1.7-.9h0ZM430.8,142.7c-.2.4-.5.6-.9.6s-.7-.2-.9-.6c-.2-.4-.3-1-.3-1.8s.1-1.4.3-1.9c.2-.4.5-.6.9-.6s.7.2.9.6c.2.4.3,1,.3,1.8s-.1,1.4-.3,1.8h0Z"/>
    <polygon class="cls-2" points="418 140.3 416.1 140.3 416.1 137.7 415.1 137.7 415.1 144 416.1 144 416.1 141.1 418 141.1 418 144 419 144 419 137.7 418 137.7 418 140.3"/>
    <path class="cls-2" d="M411.7,143.1c-.2,0-.5.1-.7.1-.5,0-.9-.2-1.2-.6s-.5-1-.5-1.8.1-1.4.5-1.8c.3-.4.7-.6,1.2-.6s.9.1,1.2.5l.5-.6c-.2-.2-.5-.4-.8-.5-.3-.1-.6-.1-1-.1s-.9.1-1.3.4c-.4.3-.7.6-1,1.1-.2.5-.4,1.1-.4,1.8s.1,1.3.3,1.8.5.9.9,1.1.9.4,1.4.4c.8,0,1.4-.2,1.9-.7l-.5-.6c-.2.2-.4.3-.6.4h0Z"/>
    <path class="cls-2" d="M422.3,130.3c0-.7,0-1.5-.1-2.5l1.9,5.3h1.3v-6.3h-.9v2.9c0,.5,0,.9,0,1.3s0,.8.1,1.2l-1.9-5.3h-1.3v6.3h.9v-2.9h0Z"/>
    <path class="cls-2" d="M418,130.9c0,.5,0,.9-.2,1.2s-.4.4-.8.4-.6-.1-.8-.4c-.2-.2-.2-.6-.2-1.2v-4h-1v4.2c0,.7.2,1.2.5,1.6.4.4.9.6,1.5.6s.8,0,1.1-.3c.3-.2.5-.4.7-.8.2-.3.2-.7.2-1.1v-4.2h-1v4h0Z"/>
    <path class="cls-2" d="M454.7,132.4c-.6,0-1.2-.2-1.6-.6l-.5.6c.5.6,1.3.8,2.2.8s.9,0,1.2-.2.6-.4.8-.7c.2-.3.3-.6.3-1,0-.6-.2-1-.5-1.2-.3-.3-.7-.5-1.3-.7-.4-.1-.6-.2-.8-.3s-.3-.2-.4-.3c0-.1-.1-.3-.1-.4,0-.3,0-.5.3-.6.2-.1.5-.2.8-.2.5,0,1,.2,1.4.6l.5-.6c-.5-.5-1.2-.8-2-.8s-.7,0-1,.2c-.3.1-.5.3-.7.6-.2.3-.3.6-.3.9s.2.8.5,1.1c.3.3.8.5,1.5.7.3.1.6.2.7.3s.3.2.4.3c0,.1.1.3.1.5,0,.3-.1.6-.3.8s-.5.3-.9.3h0Z"/>
    <polygon class="cls-2" points="396.1 138.6 397.9 138.6 397.9 144 398.9 144 398.9 138.6 400.6 138.6 400.7 137.7 396.1 137.7 396.1 138.6"/>
    <polygon class="cls-2" points="435.6 137.7 434.6 137.7 434.6 144 438.2 144 438.3 143.1 435.6 143.1 435.6 137.7"/>
    <path class="cls-2" d="M424.6,140.6c0,.5,0,.9,0,1.3s0,.8.1,1.2l-1.9-5.3h-1.3v6.3h.9v-2.9c0-.7,0-1.5-.1-2.5l1.9,5.3h1.3v-6.3h-.9v2.9h0Z"/>
    <polygon class="cls-2" points="396.3 127.7 396.4 126.9 392.8 126.9 392.8 133.1 396.4 133.1 396.4 132.3 393.8 132.3 393.8 130.3 395.9 130.3 395.9 129.6 393.8 129.6 393.8 127.7 396.3 127.7"/>
    <polygon class="cls-2" points="435.9 132.1 434.5 126.9 433.4 126.9 435.3 133.1 436.5 133.1 438.3 126.9 437.3 126.9 435.9 132.1"/>
    <polygon class="cls-2" points="403.8 141.2 405.9 141.2 405.9 140.4 403.8 140.4 403.8 138.5 406.2 138.5 406.3 137.7 402.8 137.7 402.8 144 406.4 144 406.4 143.2 403.8 143.2 403.8 141.2"/>
    <path class="cls-2" d="M401.4,126.9h-1.2l-1.9,6.3h1l.4-1.5h2.1l.4,1.5h1l-1.9-6.3h0ZM400,130.8l.9-3.1.9,3.1h-1.7Z"/>
    <path class="cls-2" d="M388.3,126.9h-1.6v6.3h1v-2.2h.7c.7,0,1.3-.2,1.7-.5.4-.3.6-.9.6-1.6s-.2-1.1-.6-1.5-1-.5-1.8-.5h0ZM389.3,129.8c-.2.2-.5.3-.9.3h-.7v-2.4h.7c.9,0,1.3.4,1.3,1.2s-.1.8-.3,1h0Z"/>
    <polygon class="cls-2" points="477.5 98.7 477.5 91.1 472.5 91.1 472.5 98.7 465 98.7 465 103.7 472.5 103.7 472.5 111.4 477.5 111.4 477.5 103.7 485 103.7 485 98.7 477.5 98.7"/>
    <rect class="cls-2" x="448.9" y="91.1" width="4.9" height="28.1"/>
    <path class="cls-2" d="M437.6,119.1v-33.6h27.4v-5h-32.3v33.6h-8.9c-5.1,0-8.8-3.4-8.8-8v-25.6h-4.9v16.2c0,9.7-7.4,17.4-16.8,17.4s-13.5-3.9-15.6-10.4h11.7c8.9,0,13.5-6.3,13.5-12.5s-4.5-11.8-13.1-11.8-17.8,8.7-17.8,18.9v.4h-20v5h20.6c2.2,9.4,10.3,15.4,20.7,15.4s13.4-3.3,17.4-8.9c1.8,5.4,6.9,8.9,13.1,8.9h13.8,0ZM376.9,98.7v-.4c0-7.4,6-13.9,12.9-13.9s8.2,4.5,8.2,6.8c0,5.2-4.4,7.5-8.5,7.5h-12.5,0Z"/>
  </g>
</svg>