<?xml version="1.0" encoding="UTF-8"?>
<svg id="Ebene_1" data-name="Ebene 1" xmlns="http://www.w3.org/2000/svg" version="1.1" viewBox="0 0 353.6 173.5">
  <defs>
    <style>
      .cls-1 {
        fill: #1d1d1b;
      }

      .cls-1, .cls-2 {
        stroke-width: 0px;
      }

      .cls-2 {
        fill: #000;
      }
    </style>
  </defs>
  <g id="soziale_arbeit_2" data-name="soziale arbeit 2">
    <path class="cls-1" d="M121.1,38c0,2.3-.4,3.9-1.4,4.8-1.7,1.6-3.4,1.8-6,1.8s-5.5-1.8-5.5-4.4,1.9-4.3,5.3-4.3h7.5v2.1h0ZM130.6,52.1v-25.1c0-8.9-5.6-13.5-16.2-13.5s-10,1.2-13.8,5.3l6.1,5.9c2-2.3,3.7-3.2,7.3-3.2s7.1,1.8,7.1,6v1.9h-9c-8.9,0-13,5-13,11.1s1.1,6.4,3.1,8.6c2.3,2.3,5.4,3.4,9.7,3.4s6.8-1.1,9.4-3.7v3.3h9.3,0ZM82.2,33c0,6.2-.8,11-6.5,11s-6.4-4.8-6.4-11,.7-10.9,6.4-10.9,6.5,4.7,6.5,10.9M91.7,52.1V0h-9.5v17.3c-2.5-2.8-5.4-3.8-9.3-3.8s-7.2,1.3-9.3,3.4c-3.8,3.8-3.9,10.3-3.9,16s0,12.3,3.9,16.1c2.1,2.1,5.6,3.4,9.4,3.4s6.8-1.1,9.4-4v3.6h9.3ZM59.2,56.9h-22.7v2.2h22.7v-2.2ZM31.4,52.1v-24.7c0-8-4.4-13.9-12.7-13.9s-6.6,1.3-9.1,4V0H0v52.1h9.5v-23.3c0-5,3.1-6.7,6.1-6.7s6.2,1.7,6.2,6.7v23.3h9.5Z"/>
    <path class="cls-1" d="M8.1,93.7v-8.3c0-2.1-1.2-2.9-2.7-2.9s-2.7.9-2.7,2.9v8.3H0v-18.9h2.7v6.8c.9-1,2.1-1.5,3.5-1.5,3,0,4.7,2,4.7,4.9v8.7h-2.7,0Z"/>
    <path class="cls-1" d="M23.8,92.2c-.9.9-2.2,1.6-4,1.6s-3.1-.7-4-1.6c-1.3-1.3-1.6-3-1.6-5.3s.3-4,1.6-5.3c.9-.9,2.2-1.6,4-1.6s3.2.7,4,1.6c1.3,1.3,1.6,3,1.6,5.3s-.3,4-1.6,5.3ZM21.8,83.2c-.5-.5-1.2-.8-2-.8s-1.5.3-2,.8c-.8.8-.9,2.2-.9,3.7s.1,2.9.9,3.7c.5.5,1.2.8,2,.8s1.5-.3,2-.8c.8-.8.9-2.2.9-3.7s-.1-2.9-.9-3.7Z"/>
    <path class="cls-1" d="M34.3,93.8c-3,0-6-1.9-6-6.9s3-6.9,6-6.9,3.2.5,4.4,1.9l-1.9,1.8c-.9-.9-1.5-1.3-2.6-1.3s-1.9.4-2.5,1.2c-.6.7-.8,1.7-.8,3.3s.2,2.6.8,3.3c.6.8,1.5,1.2,2.5,1.2s1.7-.3,2.6-1.3l1.9,1.8c-1.3,1.4-2.6,1.9-4.4,1.9h0Z"/>
    <path class="cls-1" d="M49.8,93.7v-8.3c0-2.1-1.2-2.9-2.7-2.9s-2.7.9-2.7,2.9v8.3h-2.7v-18.9h2.7v6.8c.9-1,2.1-1.5,3.5-1.5,3,0,4.7,2,4.7,4.9v8.7h-2.7Z"/>
    <path class="cls-1" d="M61,93.8c-2.2,0-4.1-.4-5.7-1.9l1.8-1.8c1.1,1.1,2.5,1.4,3.9,1.4s3-.6,3-1.9-.5-1.5-1.8-1.6l-2.1-.2c-2.5-.2-4-1.4-4-3.7s2.3-4.1,5.1-4.1,3.8.4,5,1.5l-1.7,1.7c-.9-.7-2-1-3.3-1s-2.5.7-2.5,1.7.4,1.4,1.9,1.5l2.1.2c2.5.2,4,1.4,4,3.8s-2.4,4.3-5.6,4.3h0Z"/>
    <path class="cls-1" d="M75.2,93.8c-3,0-6-1.9-6-6.9s3-6.9,6-6.9,3.2.5,4.4,1.9l-1.9,1.8c-.9-.9-1.5-1.3-2.6-1.3s-1.9.4-2.5,1.2c-.6.7-.8,1.7-.8,3.3s.2,2.6.8,3.3c.6.8,1.5,1.2,2.5,1.2s1.7-.3,2.6-1.3l1.9,1.8c-1.3,1.4-2.6,1.9-4.4,1.9h0Z"/>
    <path class="cls-1" d="M90.8,93.7v-8.3c0-2.1-1.2-2.9-2.7-2.9s-2.7.9-2.7,2.9v8.3h-2.7v-18.9h2.7v6.8c.9-1,2.1-1.5,3.5-1.5,3,0,4.7,2,4.7,4.9v8.7h-2.7Z"/>
    <path class="cls-1" d="M105.5,93.7v-1.4c-.9,1-2.2,1.5-3.6,1.5s-2.5-.4-3.3-1.2c-1-1-1.4-2.3-1.4-3.8v-8.6h2.7v8.2c0,2.1,1.2,3,2.7,3s2.8-.9,2.8-3v-8.2h2.7v13.5h-2.7,0Z"/>
    <path class="cls-1" d="M115.8,93.7c-2.6,0-3.7-1.7-3.7-3.7v-15.2h2.7v15c0,1,.4,1.6,1.5,1.6h1.2v2.3h-1.7Z"/>
    <path class="cls-1" d="M122.2,87.7c0,2.3,1.2,3.8,3.4,3.8s2.3-.4,3.3-1.4l1.7,1.6c-1.4,1.4-2.7,2.1-5,2.1-3.4,0-6.1-1.8-6.1-6.9s2.3-6.9,5.7-6.9,5.7,2.7,5.7,6.5v1.2h-8.8,0ZM127.9,84c-.4-1-1.4-1.7-2.7-1.7s-2.3.7-2.7,1.7c-.3.6-.3,1-.4,1.8h6.1c0-.8-.1-1.2-.4-1.8Z"/>
    <path class="cls-1" d="M7.7,120.2v-1.4c-1,1.2-2.1,1.6-3.6,1.6s-2.6-.4-3.3-1.2c-1.4-1.4-1.5-3.7-1.5-5.7s.2-4.3,1.5-5.7,1.9-1.2,3.3-1.2,2.6.4,3.5,1.5v-6.8h2.7v18.9h-2.7ZM4.9,109c-2.4,0-2.8,2.1-2.8,4.5s.4,4.5,2.8,4.5,2.8-2.1,2.8-4.5-.4-4.5-2.8-4.5Z"/>
    <path class="cls-1" d="M21.8,120.2v-1.2c-1,1-1.9,1.4-3.6,1.4s-2.8-.4-3.6-1.2c-.7-.7-1.1-1.8-1.1-2.9,0-2.3,1.6-3.9,4.6-3.9h3.6v-1c0-1.7-.9-2.5-2.9-2.5s-2.2.4-2.9,1.3l-1.8-1.7c1.3-1.5,2.6-1.9,4.8-1.9,3.7,0,5.6,1.6,5.6,4.6v9h-2.7,0ZM21.7,114.3h-3.2c-1.6,0-2.4.7-2.4,1.9s.8,1.9,2.5,1.9,1.8,0,2.5-.8c.4-.4.6-1,.6-2v-1.1Z"/>
    <path class="cls-1" d="M35.7,109.9c-.6-.6-1.1-.9-2-.9-1.5,0-2.7,1.2-2.7,3v8.2h-2.7v-13.5h2.7v1.5c.7-1,2.1-1.6,3.6-1.6s2.3.4,3.2,1.3l-2.1,2.1h0Z"/>
    <path class="cls-1" d="M56.7,120.2v-8.2c0-2.1-1.2-3-2.7-3s-2.8.9-2.8,2.9v8.4h-2.7v-8.2c0-2.1-1.2-3-2.7-3s-2.8.9-2.8,3v8.2h-2.7v-13.5h2.7v1.4c.9-1,2.2-1.5,3.6-1.5s3,.7,3.8,2c1.1-1.3,2.5-2,4.2-2s2.6.4,3.4,1.2c1,1,1.4,2.3,1.4,3.8v8.6h-2.7Z"/>
    <path class="cls-1" d="M67.9,120.4c-2.2,0-4.1-.4-5.7-1.9l1.8-1.8c1.1,1.1,2.5,1.4,3.9,1.4s3-.6,3-1.9-.5-1.5-1.8-1.6l-2.1-.2c-2.5-.2-4-1.4-4-3.7s2.3-4.1,5.1-4.1,3.8.4,5,1.5l-1.7,1.7c-.9-.7-2-1-3.3-1s-2.5.7-2.5,1.7.4,1.4,1.9,1.5l2.1.2c2.5.2,4,1.4,4,3.8s-2.4,4.3-5.6,4.3h0Z"/>
    <path class="cls-1" d="M80.9,120.2c-2.5,0-3.7-1.8-3.7-3.8v-7.4h-1.5v-2.1h1.5v-4.1h2.7v4.1h2.6v2.1h-2.6v7.3c0,1,.5,1.6,1.5,1.6h1.1v2.3h-1.6,0Z"/>
    <path class="cls-1" d="M93.3,120.2v-1.2c-1,1-1.9,1.4-3.6,1.4s-2.8-.4-3.6-1.2c-.7-.7-1.1-1.8-1.1-2.9,0-2.3,1.6-3.9,4.6-3.9h3.6v-1c0-1.7-.9-2.5-3-2.5s-2.2.4-3,1.3l-1.8-1.7c1.3-1.5,2.6-1.9,4.8-1.9,3.7,0,5.5,1.6,5.5,4.6v9h-2.7,0ZM93.2,114.3h-3.2c-1.6,0-2.4.7-2.4,1.9s.8,1.9,2.5,1.9,1.8,0,2.5-.8c.4-.4.6-1,.6-2v-1.1h0Z"/>
    <path class="cls-1" d="M107.7,120.2v-1.4c-1,1.2-2.1,1.6-3.6,1.6s-2.5-.4-3.3-1.2c-1.4-1.4-1.5-3.7-1.5-5.7s.2-4.3,1.5-5.7c.7-.7,1.9-1.2,3.3-1.2s2.5.4,3.5,1.5v-6.8h2.7v18.9h-2.7ZM104.9,109c-2.5,0-2.8,2.1-2.8,4.5s.4,4.5,2.8,4.5,2.8-2.1,2.8-4.5-.4-4.5-2.8-4.5Z"/>
    <path class="cls-1" d="M118.5,120.2c-2.5,0-3.7-1.8-3.7-3.8v-7.4h-1.5v-2.1h1.5v-4.1h2.7v4.1h2.6v2.1h-2.6v7.3c0,1,.5,1.6,1.5,1.6h1.1v2.3h-1.6,0Z"/>
    <path class="cls-1" d="M2.2,146.8H.8v-11.8H-.9v-1H.8v-2.8c0-1.9,1.1-3.4,3.1-3.4h1.2v1.2h-.9c-1.4,0-2,.8-2,2.1v2.8h2.9v1h-2.9v11.8h0Z"/>
    <path class="cls-1" d="M16.1,145.5c-1.1,1.1-2.1,1.4-3.9,1.4s-2.9-.3-3.8-1.2c-.6-.6-.9-1.5-.9-2.5,0-2.3,1.7-3.7,4.5-3.7h4.1v-1.4c0-2.1-1-3.1-3.6-3.1s-2.7.4-3.5,1.6l-1-.9c1.1-1.5,2.4-2,4.5-2,3.4,0,5,1.5,5,4.2v8.8h-1.4v-1.3h0ZM12.1,140.7c-2.2,0-3.3.9-3.3,2.6s1,2.5,3.4,2.5,2.3-.1,3.2-1c.5-.4.7-1.3.7-2.4v-1.6h-4Z"/>
    <path class="cls-1" d="M27.1,147c-3.5,0-5.6-2.5-5.6-6.6s2.1-6.6,5.6-6.6,2.9.4,4.2,2l-.9.9c-1.1-1.2-1.9-1.6-3.3-1.6s-2.6.6-3.4,1.7c-.6.9-.9,1.9-.9,3.7s.2,2.7.9,3.7c.8,1.1,1.9,1.7,3.4,1.7s2.2-.4,3.3-1.6l.9.9c-1.4,1.5-2.5,2-4.2,2Z"/>
    <path class="cls-1" d="M43.5,138.9c0-2.5-1.2-3.8-3.5-3.8s-3.6,1.4-3.6,3.8v7.9h-1.4v-18.9h1.4v7.6c1-1.1,2.2-1.7,3.8-1.7,2.9,0,4.7,1.8,4.7,4.8v8.2h-1.4v-7.9h0Z"/>
    <path class="cls-1" d="M57.8,145.9c-.7.7-1.8,1.1-3.1,1.1s-2.7-.3-3.8-1.8v1.6h-1.4v-18.9h1.4v7.8c1.1-1.5,2.3-1.8,3.8-1.8s2.5.4,3.1,1.1c1.3,1.3,1.6,3.4,1.6,5.4s-.4,4.1-1.6,5.4h0ZM54.5,135c-3.1,0-3.6,2.7-3.6,5.4s.5,5.4,3.6,5.4,3.6-2.7,3.6-5.4-.5-5.4-3.6-5.4Z"/>
    <path class="cls-1" d="M68.5,145.8c1.5,0,2.5-.4,3.5-1.5l1,.8c-1.3,1.3-2.5,2-4.6,2-3.5,0-5.5-2.3-5.5-6.6s1.9-6.6,5.1-6.6,5.1,2.3,5.1,6.2v.6h-8.9c0,3.3,1.4,5.1,4.2,5.1h0ZM71.4,137.2c-.6-1.4-1.8-2.1-3.3-2.1s-2.8.8-3.3,2.1c-.3.8-.4,1.2-.5,2.4h7.5c0-1.2-.1-1.6-.5-2.4h0Z"/>
    <path class="cls-1" d="M82,135c-2.2,0-3.4,1.8-3.4,3.9v7.9h-1.4v-12.8h1.4v1.7c.7-1.2,2.2-1.9,3.8-1.9s2.1.3,3.1,1.2l-1,1c-.8-.8-1.4-1-2.4-1h0Z"/>
    <path class="cls-1" d="M92.8,145.8c1.5,0,2.5-.4,3.5-1.5l1,.8c-1.3,1.3-2.5,2-4.6,2-3.5,0-5.5-2.3-5.5-6.6s1.9-6.6,5.1-6.6,5.1,2.3,5.1,6.2v.6h-8.9c0,3.3,1.4,5.1,4.2,5.1h0ZM95.8,137.2c-.6-1.4-1.8-2.1-3.3-2.1s-2.8.8-3.3,2.1c-.3.8-.4,1.2-.5,2.4h7.5c0-1.2-.1-1.6-.5-2.4h0Z"/>
    <path class="cls-1" d="M101.4,127.9h1.7v1.7h-1.7v-1.7ZM101.6,134h1.4v12.8h-1.4v-12.8Z"/>
    <path class="cls-1" d="M112.6,147c-3.5,0-5.6-2.5-5.6-6.6s2.1-6.6,5.6-6.6,2.9.4,4.2,2l-.9.9c-1.1-1.2-1.9-1.6-3.3-1.6s-2.6.6-3.4,1.7c-.6.9-.9,1.9-.9,3.7s.2,2.7.9,3.7c.8,1.1,1.9,1.7,3.4,1.7s2.2-.4,3.3-1.6l.9.9c-1.4,1.5-2.5,2-4.2,2Z"/>
    <path class="cls-1" d="M129,138.9c0-2.5-1.2-3.8-3.5-3.8s-3.6,1.4-3.6,3.8v7.9h-1.4v-18.9h1.4v7.6c1-1.1,2.2-1.7,3.8-1.7,3,0,4.7,1.8,4.7,4.8v8.2h-1.4v-7.9h0Z"/>
    <path class="cls-1" d="M4.3,173.6c-2.2,0-3.9-.6-5.2-1.8l.9-.9c1,1,2.4,1.6,4.2,1.6s3.9-.9,3.9-2.6-.7-2-2.4-2.1l-2.1-.2c-2.6-.2-3.9-1.3-3.9-3.4s1.8-3.6,4.6-3.6,3.4.5,4.5,1.4l-.9.9c-1-.7-2.2-1.1-3.6-1.1-2.1,0-3.3.9-3.3,2.5s.8,2,2.6,2.1l2.1.2c2.1.2,3.8.9,3.8,3.4s-2,3.8-5.1,3.8h0Z"/>
    <path class="cls-1" d="M21.5,172.1c-.9.9-2.1,1.4-3.6,1.4s-2.6-.5-3.6-1.4c-1.4-1.4-1.6-3.3-1.6-5.2s.2-3.8,1.6-5.2c.9-.9,2.1-1.4,3.6-1.4s2.6.5,3.6,1.4c1.4,1.4,1.6,3.3,1.6,5.2s-.2,3.8-1.6,5.2ZM20.6,162.7c-.7-.7-1.6-1.1-2.7-1.1s-1.9.4-2.7,1.1c-1.1,1.1-1.1,2.8-1.1,4.3s0,3.2,1.1,4.3,1.6,1.1,2.7,1.1,1.9-.4,2.7-1.1c1.1-1.1,1.1-2.8,1.1-4.3s0-3.2-1.1-4.3Z"/>
    <path class="cls-1" d="M25.8,172.1l7.7-10.3h-7.3v-1.2h8.7v1.3l-7.7,10.3h7.7v1.2h-9.1v-1.3h0Z"/>
    <path class="cls-1" d="M38.4,154.5h1.7v1.7h-1.7v-1.7ZM38.6,160.6h1.4v12.8h-1.4v-12.8Z"/>
    <path class="cls-1" d="M52.2,172.1c-1.1,1.1-2.1,1.4-3.9,1.4s-2.9-.3-3.8-1.2c-.6-.6-.9-1.5-.9-2.5,0-2.3,1.7-3.7,4.5-3.7h4.2v-1.4c0-2.1-1-3.1-3.6-3.1s-2.7.4-3.5,1.6l-1-.9c1.1-1.5,2.4-2,4.5-2,3.4,0,5,1.5,5,4.2v8.8h-1.4v-1.3h0ZM48.3,167.3c-2.2,0-3.3.9-3.3,2.6s1,2.5,3.4,2.5,2.3-.1,3.2-1c.5-.4.7-1.3.7-2.4v-1.6h-4Z"/>
    <path class="cls-1" d="M58.2,170.1v-15.6h1.4v15.6c0,1.5.5,2.1,2,2.1h.9v1.2h-1.2c-2.1,0-3.1-1.3-3.1-3.3h0Z"/>
    <path class="cls-1" d="M70.3,172.3c1.5,0,2.5-.4,3.5-1.5l1,.8c-1.3,1.3-2.5,2-4.6,2-3.5,0-5.5-2.3-5.5-6.6s1.9-6.6,5.1-6.6,5.1,2.3,5.1,6.2v.6h-8.9c0,3.3,1.4,5.1,4.2,5.1h0ZM73.2,163.8c-.6-1.4-1.8-2.1-3.3-2.1s-2.8.8-3.3,2.1c-.3.8-.4,1.2-.5,2.4h7.5c0-1.2-.1-1.6-.5-2.4h0Z"/>
    <path class="cls-1" d="M93.7,172.1c-1.1,1.1-2.1,1.4-3.9,1.4s-3-.3-3.8-1.2c-.6-.6-.9-1.5-.9-2.5,0-2.3,1.7-3.7,4.5-3.7h4.1v-1.4c0-2.1-1-3.1-3.6-3.1s-2.7.4-3.5,1.6l-1-.9c1.1-1.5,2.4-2,4.5-2,3.4,0,5,1.5,5,4.2v8.8h-1.4v-1.3h0ZM89.7,167.3c-2.2,0-3.3.9-3.3,2.6s1,2.5,3.4,2.5,2.3-.1,3.2-1c.5-.4.7-1.3.7-2.4v-1.6h-4Z"/>
    <path class="cls-1" d="M104.5,161.6c-2.2,0-3.4,1.8-3.4,3.9v7.9h-1.4v-12.8h1.4v1.7c.7-1.2,2.2-1.9,3.8-1.9s2.1.3,3.1,1.2l-1,1c-.8-.8-1.4-1-2.4-1h0Z"/>
    <path class="cls-1" d="M119.2,172.4c-.7.7-1.8,1.1-3.1,1.1s-2.7-.3-3.8-1.8v1.6h-1.4v-18.9h1.4v7.8c1.1-1.5,2.3-1.8,3.8-1.8s2.5.4,3.1,1.1c1.3,1.3,1.6,3.4,1.6,5.4s-.4,4.1-1.6,5.4h0ZM115.9,161.6c-3.1,0-3.6,2.7-3.6,5.4s.5,5.4,3.6,5.4,3.6-2.7,3.6-5.4-.5-5.4-3.6-5.4Z"/>
    <path class="cls-1" d="M129.9,172.3c1.5,0,2.5-.4,3.5-1.5l1,.8c-1.3,1.3-2.5,2-4.6,2-3.5,0-5.5-2.3-5.5-6.6s1.9-6.6,5.1-6.6,5.1,2.3,5.1,6.2v.6h-8.9c0,3.3,1.4,5.1,4.2,5.1h0ZM132.8,163.8c-.6-1.4-1.8-2.1-3.3-2.1s-2.8.8-3.3,2.1c-.3.8-.4,1.2-.5,2.4h7.5c0-1.2-.1-1.6-.5-2.4h0Z"/>
    <path class="cls-1" d="M138.4,154.5h1.7v1.7h-1.7v-1.7ZM138.6,160.6h1.4v12.8h-1.4v-12.8Z"/>
    <path class="cls-1" d="M145.2,170v-8.4h-1.8v-1h1.8v-4.1h1.4v4.1h2.9v1h-2.9v8.5c0,1.4.6,2.1,2,2.1h.9v1.2h-1.2c-2,0-3.1-1.4-3.1-3.4h0Z"/>
  </g>
  <g id="eut_V2" data-name="eut V2">
    <polygon class="cls-2" points="168.9 156.3 169.7 156.5 201.9 36.2 201.1 36 168.9 156.3"/>
    <path class="cls-2" d="M259.7,59.5c0-1,.5-1.5,1.4-1.5s1.4.5,1.4,1.5v3.4h.8v-3.5c0-.9.6-1.4,1.4-1.4s1.4.5,1.4,1.5v3.4h.8v-3.5c0-.6-.2-1.2-.6-1.5-.3-.3-.8-.5-1.4-.5s-1.4.3-1.8.9c-.3-.6-.9-.9-1.7-.9s-1.2.2-1.6.7v-.6h-.8v5.5h.8v-3.4h0Z"/>
    <path class="cls-2" d="M271.4,63c1,0,1.5-.3,2-.9l-.5-.5c-.4.4-.8.6-1.5.6-1.1,0-1.6-.7-1.6-1.9h3.7v-.4c0-1.6-.8-2.7-2.3-2.7s-2.3,1.1-2.3,2.8,1,2.8,2.4,2.8h0ZM270,58.8c.2-.5.7-.8,1.3-.8s1.1.3,1.3.8c.1.3.1.5.2.9h-2.9c0-.4,0-.6.2-.9h0Z"/>
    <path class="cls-2" d="M276.5,59.5c0-1,.5-1.5,1.4-1.5s1.4.5,1.4,1.5v3.4h.8v-3.5c0-.9.6-1.4,1.4-1.4s1.4.5,1.4,1.5v3.4h.8v-3.5c0-.6-.2-1.2-.6-1.5-.3-.3-.8-.5-1.4-.5s-1.4.3-1.8.9c-.3-.6-.9-.9-1.7-.9s-1.2.2-1.6.7v-.6h-.8v5.5h.8v-3.4h0Z"/>
    <path class="cls-2" d="M286.9,62.3c.5.6,1,.7,1.6.7s1.1-.2,1.4-.5c.6-.6.7-1.5.7-2.3s-.1-1.8-.7-2.3c-.3-.3-.8-.5-1.4-.5s-1.1.1-1.6.7v-3.1h-.8v8h.8v-.7h0ZM288.2,58.1c1.2,0,1.4,1,1.4,2.1s-.2,2.1-1.4,2.1-1.4-1-1.4-2.1.2-2.1,1.4-2.1Z"/>
    <path class="cls-2" d="M294.8,63c.9,0,1.5-.3,2-.9l-.5-.5c-.4.4-.8.6-1.5.6-1.1,0-1.6-.7-1.6-1.9h3.7v-.4c0-1.6-.8-2.7-2.3-2.7s-2.3,1.1-2.3,2.8,1,2.8,2.4,2.8h0ZM293.4,58.8c.2-.5.7-.8,1.3-.8s1.1.3,1.3.8c.1.3.1.5.2.9h-2.9c0-.4,0-.6.2-.9h0Z"/>
    <path class="cls-2" d="M300,59.5c0-.8.5-1.5,1.3-1.5s.6,0,1,.4l.6-.6c-.4-.4-.8-.5-1.3-.5s-1.2.3-1.5.7v-.7h-.8v5.5h.8v-3.4h0Z"/>
    <path class="cls-2" d="M308.6,63c.7,0,1.2-.2,1.6-.6.6-.6.7-1.3.7-2.2s-.1-1.6-.7-2.2c-.4-.4-.9-.6-1.6-.6s-1.2.2-1.6.6c-.6.6-.7,1.3-.7,2.2s.1,1.6.7,2.2c.4.4.9.6,1.6.6ZM307.6,58.4c.3-.3.6-.4,1-.4s.8.2,1,.4c.4.4.4,1.1.4,1.7s0,1.3-.4,1.7c-.3.3-.6.4-1,.4s-.7-.2-1-.4c-.4-.4-.5-1.1-.5-1.7s0-1.3.5-1.7Z"/>
    <path class="cls-2" d="M313.2,62.9h.8v-4.9h1.2v-.6h-1.2v-1c0-.5.2-.8.7-.8h.4v-.7h-.6c-1,0-1.4.7-1.4,1.5v1.1h-.7v.6h.7v4.9h0Z"/>
    <path class="cls-2" d="M245.9,129.3c.2-.3.4-.7.4-1.1,0-1.2-.8-1.8-2.3-1.8h-1.6v6.3h1v-2.6h.6l1.5,2.6h1.2l-1.7-2.7c.4-.1.7-.3,1-.6h0ZM243.3,129.3v-2.1h.7c.4,0,.7,0,.9.2.2.2.3.4.3.8s-.1.7-.3.8c-.2.2-.5.3-.9.3h-.7,0Z"/>
    <path class="cls-2" d="M318.7,129.3c.2-.3.4-.7.4-1.1,0-1.2-.8-1.8-2.3-1.8h-1.6v6.3h1v-2.6h.6l1.5,2.6h1.2l-1.7-2.7c.4-.1.7-.3,1-.6h0ZM316.1,129.3v-2.1h.7c.4,0,.7,0,.9.2.2.2.3.4.3.8s0,.7-.3.8c-.2.2-.5.3-.9.3h-.7Z"/>
    <path class="cls-2" d="M310.6,137.1c-.7,0-1.3.3-1.7.9-.4.6-.6,1.4-.6,2.4s.2,1.8.6,2.4.9.9,1.7.9,1.3-.3,1.7-.9c.4-.6.6-1.4.6-2.4s-.2-1.8-.6-2.4c-.4-.6-.9-.9-1.7-.9h0ZM311.5,142.2c-.2.4-.5.6-.9.6s-.7-.2-.9-.6c-.2-.4-.3-1-.3-1.8s0-1.4.3-1.9c.2-.4.5-.6.9-.6s.7.2.9.6c.2.4.3,1,.3,1.8s0,1.4-.3,1.8h0Z"/>
    <path class="cls-2" d="M250.7,137.1c-.7,0-1.3.3-1.7.9s-.6,1.4-.6,2.4.2,1.8.6,2.4c.4.6.9.9,1.7.9s1.3-.3,1.7-.9c.4-.6.6-1.4.6-2.4s-.2-1.8-.6-2.4c-.4-.6-.9-.9-1.7-.9ZM251.6,142.2c-.2.4-.5.6-.9.6s-.7-.2-.9-.6-.3-1-.3-1.8.1-1.4.3-1.8c.2-.4.5-.6.9-.6s.7.2.9.6c.2.4.3,1,.3,1.8s-.1,1.4-.3,1.8h0Z"/>
    <path class="cls-2" d="M250.6,132.8c.7,0,1.3-.3,1.7-.9.4-.6.6-1.4.6-2.4s-.2-1.8-.6-2.4c-.4-.6-.9-.9-1.7-.9s-1.3.3-1.7.9-.6,1.4-.6,2.4.2,1.8.6,2.4c.4.6.9.9,1.7.9ZM249.6,127.7c.2-.4.5-.6.9-.6s.7.2.9.6c.2.4.3,1,.3,1.8s-.1,1.4-.3,1.8-.5.6-.9.6-.7-.2-.9-.6c-.2-.4-.3-1-.3-1.8s.1-1.4.3-1.9h0Z"/>
    <path class="cls-2" d="M317.1,140.8h1v1.7c-.3.2-.6.3-1,.3s-.8-.2-1.1-.6c-.2-.4-.3-1-.3-1.9s.2-1.4.4-1.8.7-.6,1.1-.6.4,0,.6.1c.2,0,.4.2.5.4l.6-.6c-.2-.2-.5-.4-.8-.6-.3-.1-.6-.2-1-.2s-.9.1-1.3.4c-.4.2-.7.6-.9,1.1s-.3,1.1-.3,1.8c0,1.1.2,1.9.6,2.4.4.6,1,.8,1.8.8s.7,0,1.1-.1c.3-.1.6-.2.9-.4v-3.1h-2.1v.8c0,0,.1,0,.1,0Z"/>
    <path class="cls-2" d="M238.8,130.4c0,.5,0,.9-.2,1.2s-.4.4-.8.4-.6-.1-.8-.4c-.2-.2-.2-.6-.2-1.2v-4h-1v4.2c0,.7.2,1.2.5,1.6.4.4.9.6,1.5.6s.8,0,1.1-.3c.3-.2.5-.4.7-.8.2-.3.2-.7.2-1.1v-4.2h-1v4h0Z"/>
    <polygon class="cls-2" points="333.2 127.2 335 127.2 335 132.7 336 132.7 336 127.2 337.7 127.2 337.8 126.4 333.2 126.4 333.2 127.2"/>
    <polygon class="cls-2" points="342 129.4 340.6 126.4 339.5 126.4 341.5 130.3 341.5 132.7 342.5 132.7 342.5 130.3 344.4 126.4 343.4 126.4 342 129.4"/>
    <polygon class="cls-2" points="230.7 129.9 232.8 129.9 232.8 129.1 230.7 129.1 230.7 127.2 233.1 127.2 233.2 126.4 229.7 126.4 229.7 132.7 233.3 132.7 233.3 131.9 230.7 131.9 230.7 129.9"/>
    <polygon class="cls-2" points="323.2 140.2 321.8 137.2 320.7 137.2 322.7 141.1 322.7 143.5 323.7 143.5 323.7 141.1 325.7 137.2 324.6 137.2 323.2 140.2"/>
    <polygon class="cls-2" points="327.7 127.2 329 127.2 329 131.9 327.7 131.9 327.7 132.7 331.2 132.7 331.2 131.9 330 131.9 330 127.2 331.2 127.2 331.2 126.4 327.7 126.4 327.7 127.2"/>
    <path class="cls-2" d="M277.8,126.4h-.9v2.9c0,.5,0,.9,0,1.3s0,.8.1,1.2l-1.9-5.3h-1.3v6.3h.9v-2.9c0-.7,0-1.5-.1-2.5l1.9,5.3h1.3v-6.3Z"/>
    <polygon class="cls-2" points="255.3 143.5 256.3 143.5 256.3 140.8 258.5 140.8 258.5 140 256.3 140 256.3 138 258.8 138 258.9 137.2 255.3 137.2 255.3 143.5"/>
    <polygon class="cls-2" points="312.4 127.2 312.5 126.4 308.9 126.4 308.9 132.7 312.5 132.7 312.5 131.9 309.9 131.9 309.9 129.9 312.1 129.9 312.1 129.1 309.9 129.1 309.9 127.2 312.4 127.2"/>
    <polygon class="cls-2" points="299.8 127.2 299.8 126.4 296.2 126.4 296.2 127.2 297.5 127.2 297.5 131.9 296.2 131.9 296.2 132.7 299.8 132.7 299.8 131.9 298.5 131.9 298.5 127.2 299.8 127.2"/>
    <path class="cls-2" d="M298.5,137.1c-.7,0-1.3.3-1.7.9s-.6,1.4-.6,2.4.2,1.8.6,2.4c.4.6.9.9,1.7.9s1.3-.3,1.7-.9c.4-.6.6-1.4.6-2.4s-.2-1.8-.6-2.4c-.4-.6-.9-.9-1.7-.9h0ZM299.4,142.2c-.2.4-.5.6-.9.6s-.7-.2-.9-.6c-.2-.4-.3-1-.3-1.8s.1-1.4.3-1.9c.2-.4.5-.6.9-.6s.7.2.9.6c.2.4.3,1,.3,1.8s-.1,1.4-.3,1.8h0Z"/>
    <polygon class="cls-2" points="286.6 139.8 284.6 139.8 284.6 137.2 283.6 137.2 283.6 143.5 284.6 143.5 284.6 140.7 286.6 140.7 286.6 143.5 287.6 143.5 287.6 137.2 286.6 137.2 286.6 139.8"/>
    <path class="cls-2" d="M280.3,142.6c-.2,0-.5.1-.7.1-.5,0-.9-.2-1.2-.6s-.5-1-.5-1.8.1-1.4.5-1.8c.3-.4.7-.6,1.2-.6s.9.1,1.2.5l.5-.6c-.2-.2-.5-.4-.8-.5-.3-.1-.6-.1-1-.1s-.9.1-1.3.4c-.4.3-.7.6-1,1.1-.2.5-.4,1.1-.4,1.8s.1,1.3.3,1.8.5.9.9,1.1.9.4,1.4.4c.8,0,1.4-.2,1.9-.7l-.5-.6c-.2.2-.4.3-.6.4h0Z"/>
    <path class="cls-2" d="M290.9,129.8c0-.7,0-1.5-.1-2.5l1.9,5.3h1.3v-6.3h-.9v2.9c0,.5,0,.9,0,1.3s0,.8.1,1.2l-1.9-5.3h-1.3v6.3h.9v-2.9h0Z"/>
    <path class="cls-2" d="M286.6,130.4c0,.5,0,.9-.2,1.2s-.4.4-.8.4-.6-.1-.8-.4c-.2-.2-.2-.6-.2-1.2v-4h-1v4.2c0,.7.2,1.2.5,1.6.4.4.9.6,1.5.6s.8,0,1.1-.3c.3-.2.5-.4.7-.8.2-.3.2-.7.2-1.1v-4.2h-1v4h0Z"/>
    <path class="cls-2" d="M323.2,132c-.6,0-1.2-.2-1.6-.6l-.5.6c.5.6,1.3.8,2.2.8s.9,0,1.2-.2.6-.4.8-.7c.2-.3.3-.6.3-1,0-.6-.2-1-.5-1.2-.3-.3-.7-.5-1.3-.7-.4-.1-.6-.2-.8-.3s-.3-.2-.4-.3c0-.1-.1-.3-.1-.4,0-.3,0-.5.3-.6.2-.1.5-.2.8-.2.5,0,1,.2,1.4.6l.5-.6c-.5-.5-1.2-.8-2-.8s-.7,0-1,.2c-.3.1-.5.3-.7.6-.2.3-.3.6-.3.9s.2.8.5,1.1c.3.3.8.5,1.5.7.3.1.6.2.7.3s.3.2.4.3c0,.1.1.3.1.5,0,.3-.1.6-.3.8s-.5.3-.9.3h0Z"/>
    <polygon class="cls-2" points="264.7 138.1 266.5 138.1 266.5 143.5 267.5 143.5 267.5 138.1 269.2 138.1 269.3 137.2 264.7 137.2 264.7 138.1"/>
    <polygon class="cls-2" points="304.2 137.2 303.2 137.2 303.2 143.5 306.7 143.5 306.8 142.6 304.2 142.6 304.2 137.2"/>
    <path class="cls-2" d="M293.2,140.1c0,.5,0,.9,0,1.3s0,.8.1,1.2l-1.9-5.3h-1.3v6.3h.9v-2.9c0-.7,0-1.5-.1-2.5l1.9,5.3h1.3v-6.3h-.9v2.9h0Z"/>
    <polygon class="cls-2" points="264.8 127.2 264.9 126.4 261.4 126.4 261.4 132.7 265 132.7 265 131.9 262.3 131.9 262.3 129.9 264.5 129.9 264.5 129.1 262.3 129.1 262.3 127.2 264.8 127.2"/>
    <polygon class="cls-2" points="304.5 131.7 303.1 126.4 302 126.4 303.9 132.7 305 132.7 306.9 126.4 305.9 126.4 304.5 131.7"/>
    <polygon class="cls-2" points="272.3 140.7 274.5 140.7 274.5 139.9 272.3 139.9 272.3 138 274.8 138 274.9 137.2 271.3 137.2 271.3 143.5 274.9 143.5 274.9 142.7 272.3 142.7 272.3 140.7"/>
    <path class="cls-2" d="M270,126.4h-1.2l-1.9,6.3h1l.4-1.5h2.1l.4,1.5h1l-1.9-6.3h0ZM268.5,130.3l.9-3.1.9,3.1h-1.7Z"/>
    <path class="cls-2" d="M256.9,126.4h-1.6v6.3h1v-2.2h.7c.7,0,1.3-.2,1.7-.5.4-.3.6-.9.6-1.6s-.2-1.1-.6-1.5-1-.5-1.8-.5h0ZM257.9,129.3c-.2.2-.5.3-.9.3h-.7v-2.4h.7c.9,0,1.3.4,1.3,1.2s-.1.8-.3,1h0Z"/>
    <polygon class="cls-2" points="346 98.2 346 90.6 341.1 90.6 341.1 98.2 333.6 98.2 333.6 103.2 341.1 103.2 341.1 110.9 346 110.9 346 103.2 353.6 103.2 353.6 98.2 346 98.2"/>
    <rect class="cls-2" x="317.4" y="90.6" width="4.9" height="28.1"/>
    <path class="cls-2" d="M306.2,118.6v-33.6h27.4v-5h-32.3v33.6h-8.9c-5.1,0-8.8-3.4-8.8-8v-25.6h-4.9v16.2c0,9.7-7.4,17.4-16.8,17.4s-13.5-3.9-15.6-10.4h11.7c8.9,0,13.5-6.3,13.5-12.5s-4.5-11.8-13.1-11.8-17.8,8.7-17.8,18.9v.4h-20v5h20.6c2.2,9.4,10.3,15.4,20.7,15.4s13.4-3.3,17.4-8.9c1.8,5.4,6.9,8.9,13.1,8.9h13.8,0ZM245.5,98.2v-.4c0-7.4,6-13.9,12.9-13.9s8.2,4.5,8.2,6.8c0,5.2-4.4,7.5-8.5,7.5h-12.5,0Z"/>
  </g>
</svg>