<?xml version="1.0" encoding="UTF-8"?>
<svg id="Ebene_1" data-name="Ebene 1" xmlns="http://www.w3.org/2000/svg" version="1.1" viewBox="0 0 389.9 158.7">
  <defs>
    <style>
      .cls-1 {
        fill: #1d1d1b;
      }

      .cls-1, .cls-2 {
        stroke-width: 0px;
      }

      .cls-2 {
        fill: #000;
      }
    </style>
  </defs>
  <g id="darmstadt_business_school_2" data-name="darmstadt business school 2">
    <path class="cls-1" d="M121.1,38c0,2.3-.4,3.9-1.4,4.8-1.7,1.6-3.4,1.8-6,1.8s-5.5-1.8-5.5-4.4,1.9-4.3,5.3-4.3h7.5v2.1h0ZM130.6,52.1v-25.1c0-8.9-5.6-13.5-16.2-13.5s-10,1.2-13.8,5.3l6.1,5.9c2-2.3,3.7-3.2,7.3-3.2s7.1,1.8,7.1,6v1.9h-9c-8.9,0-13,5-13,11.1s1.1,6.4,3.1,8.6c2.3,2.3,5.4,3.4,9.7,3.4s6.8-1.1,9.4-3.7v3.3h9.3,0ZM82.2,33c0,6.2-.8,11-6.5,11s-6.4-4.8-6.4-11,.7-10.9,6.4-10.9,6.5,4.7,6.5,10.9M91.7,52.1V0h-9.5v17.3c-2.5-2.8-5.4-3.8-9.3-3.8s-7.2,1.3-9.3,3.4c-3.8,3.8-3.9,10.3-3.9,16s0,12.3,3.9,16.1c2.1,2.1,5.6,3.4,9.4,3.4s6.8-1.1,9.4-4v3.6h9.3ZM59.2,56.9h-22.7v2.2h22.7v-2.2ZM31.4,52.1v-24.7c0-8.1-4.4-13.9-12.7-13.9s-6.6,1.3-9.1,3.9V0H0v52.1h9.5v-23.3c0-5,3.1-6.7,6.1-6.7s6.2,1.7,6.2,6.7v23.3h9.5Z"/>
    <g>
      <path class="cls-1" d="M7.7,93.7v-1.4c-1,1.2-2.1,1.6-3.6,1.6s-2.6-.4-3.3-1.2c-1.4-1.4-1.5-3.7-1.5-5.7s.2-4.3,1.5-5.7,1.9-1.2,3.3-1.2,2.6.4,3.5,1.5v-6.8h2.7v18.9h-2.7ZM4.9,82.5c-2.4,0-2.8,2.1-2.8,4.5s.4,4.5,2.8,4.5,2.8-2.1,2.8-4.5-.4-4.5-2.8-4.5Z"/>
      <path class="cls-1" d="M21.8,93.7v-1.2c-1,1-1.9,1.4-3.6,1.4s-2.8-.4-3.6-1.2c-.7-.7-1.1-1.8-1.1-2.9,0-2.3,1.6-3.9,4.6-3.9h3.6v-1c0-1.7-.9-2.5-2.9-2.5s-2.2.4-2.9,1.3l-1.8-1.7c1.3-1.5,2.6-1.9,4.8-1.9,3.7,0,5.6,1.6,5.6,4.6v9h-2.7,0ZM21.7,87.7h-3.2c-1.6,0-2.4.7-2.4,1.9s.8,1.9,2.5,1.9,1.8,0,2.5-.8c.4-.4.6-1,.6-2v-1.1Z"/>
      <path class="cls-1" d="M35.7,83.4c-.6-.6-1.1-.9-2-.9-1.5,0-2.7,1.2-2.7,3v8.2h-2.7v-13.5h2.7v1.5c.7-1,2.1-1.6,3.6-1.6s2.3.4,3.2,1.3l-2.1,2.1h0Z"/>
      <path class="cls-1" d="M56.7,93.7v-8.2c0-2.1-1.2-3-2.7-3s-2.8.9-2.8,2.9v8.4h-2.7v-8.2c0-2.1-1.2-3-2.7-3s-2.8.9-2.8,3v8.2h-2.7v-13.5h2.7v1.4c.9-1,2.2-1.5,3.6-1.5s3,.7,3.8,2c1.1-1.3,2.4-2,4.2-2s2.6.4,3.4,1.2c1,1,1.4,2.3,1.4,3.8v8.6h-2.7Z"/>
      <path class="cls-1" d="M67.9,93.8c-2.2,0-4.1-.4-5.7-1.9l1.8-1.8c1.1,1.1,2.6,1.4,3.9,1.4s2.9-.6,2.9-1.9-.5-1.5-1.8-1.6l-2.1-.2c-2.5-.2-4-1.4-4-3.7s2.3-4.1,5.1-4.1,3.8.4,5,1.5l-1.7,1.7c-.9-.7-2.1-1-3.3-1s-2.4.7-2.4,1.7.4,1.4,1.9,1.5l2.1.2c2.5.2,4,1.4,4,3.8s-2.4,4.3-5.6,4.3h0Z"/>
      <path class="cls-1" d="M80.9,93.7c-2.5,0-3.7-1.8-3.7-3.8v-7.4h-1.5v-2.1h1.5v-4.1h2.7v4.1h2.6v2.1h-2.6v7.3c0,1,.5,1.6,1.5,1.6h1.1v2.3h-1.6,0Z"/>
      <path class="cls-1" d="M93.3,93.7v-1.2c-1,1-1.9,1.4-3.6,1.4s-2.8-.4-3.6-1.2c-.7-.7-1.1-1.8-1.1-2.9,0-2.3,1.6-3.9,4.6-3.9h3.6v-1c0-1.7-.9-2.5-3-2.5s-2.2.4-3,1.3l-1.8-1.7c1.3-1.5,2.6-1.9,4.8-1.9,3.7,0,5.5,1.6,5.5,4.6v9h-2.7,0ZM93.2,87.7h-3.2c-1.6,0-2.4.7-2.4,1.9s.8,1.9,2.5,1.9,1.8,0,2.5-.8c.4-.4.6-1,.6-2v-1.1h0Z"/>
      <path class="cls-1" d="M107.7,93.7v-1.4c-1,1.2-2.1,1.6-3.6,1.6s-2.5-.4-3.3-1.2c-1.4-1.4-1.5-3.7-1.5-5.7s.2-4.3,1.5-5.7c.7-.7,1.9-1.2,3.3-1.2s2.5.4,3.5,1.5v-6.8h2.7v18.9h-2.7ZM104.9,82.5c-2.5,0-2.8,2.1-2.8,4.5s.4,4.5,2.8,4.5,2.8-2.1,2.8-4.5-.4-4.5-2.8-4.5Z"/>
      <path class="cls-1" d="M118.5,93.7c-2.5,0-3.7-1.8-3.7-3.8v-7.4h-1.5v-2.1h1.5v-4.1h2.7v4.1h2.6v2.1h-2.6v7.3c0,1,.5,1.6,1.5,1.6h1.1v2.3h-1.6,0Z"/>
      <path class="cls-1" d="M9.5,119.2c-.7.7-1.9,1.2-3.3,1.2s-2.6-.4-3.6-1.6v1.4H0v-18.9h2.7v6.8c1-1.2,2.1-1.5,3.5-1.5s2.5.4,3.3,1.2c1.4,1.4,1.5,3.6,1.5,5.7s-.2,4.4-1.5,5.7ZM5.5,109c-2.4,0-2.8,2.1-2.8,4.5s.4,4.5,2.8,4.5,2.8-2.1,2.8-4.5-.4-4.5-2.8-4.5Z"/>
      <path class="cls-1" d="M22.7,120.2v-1.4c-.9,1-2.2,1.5-3.6,1.5s-2.5-.4-3.3-1.2c-1-1-1.4-2.3-1.4-3.8v-8.6h2.7v8.2c0,2.1,1.2,3,2.7,3s2.8-.9,2.8-3v-8.2h2.7v13.5h-2.7,0Z"/>
      <path class="cls-1" d="M33.9,120.4c-2.2,0-4.1-.4-5.7-1.9l1.8-1.8c1.1,1.1,2.6,1.4,3.9,1.4s2.9-.6,2.9-1.9-.5-1.5-1.8-1.6l-2.1-.2c-2.5-.2-4-1.4-4-3.7s2.3-4.1,5.1-4.1,3.8.4,5,1.5l-1.7,1.7c-.9-.7-2.1-1-3.3-1s-2.4.7-2.4,1.7.4,1.4,1.9,1.5l2.1.2c2.5.2,4,1.4,4,3.8s-2.4,4.3-5.6,4.3h0Z"/>
      <path class="cls-1" d="M42.4,104.1v-2.9h2.9v2.9h-2.9ZM42.5,120.2v-13.5h2.7v13.5h-2.7Z"/>
      <path class="cls-1" d="M57.4,120.2v-8.2c0-2.1-1.2-3-2.7-3s-2.8.9-2.8,3v8.2h-2.7v-13.5h2.7v1.4c.9-1,2.2-1.5,3.6-1.5s2.5.4,3.3,1.2c1,1,1.4,2.3,1.4,3.8v8.6h-2.7Z"/>
      <path class="cls-1" d="M66.1,114.3c0,2.3,1.2,3.8,3.4,3.8s2.3-.4,3.3-1.4l1.7,1.6c-1.4,1.4-2.7,2.1-5.1,2.1-3.4,0-6.1-1.8-6.1-6.9s2.3-6.9,5.7-6.9,5.7,2.7,5.7,6.5v1.2h-8.8,0ZM71.8,110.6c-.4-1-1.4-1.7-2.7-1.7s-2.3.7-2.7,1.7c-.3.6-.3,1-.4,1.8h6.1c0-.8-.1-1.2-.4-1.8Z"/>
      <path class="cls-1" d="M82.8,120.4c-2.2,0-4.1-.4-5.7-1.9l1.8-1.8c1.1,1.1,2.5,1.4,3.9,1.4s3-.6,3-1.9-.5-1.5-1.8-1.6l-2.1-.2c-2.5-.2-4-1.4-4-3.7s2.3-4.1,5.1-4.1,3.8.4,5,1.5l-1.7,1.7c-.9-.7-2-1-3.3-1s-2.5.7-2.5,1.7.4,1.4,1.9,1.5l2.1.2c2.5.2,4,1.4,4,3.8s-2.4,4.3-5.6,4.3h0Z"/>
      <path class="cls-1" d="M96.3,120.4c-2.2,0-4.1-.4-5.7-1.9l1.8-1.8c1.1,1.1,2.5,1.4,3.9,1.4s3-.6,3-1.9-.5-1.5-1.8-1.6l-2.1-.2c-2.5-.2-4-1.4-4-3.7s2.3-4.1,5.1-4.1,3.8.4,5,1.5l-1.7,1.7c-.9-.7-2-1-3.3-1s-2.5.7-2.5,1.7.4,1.4,1.9,1.5l2.1.2c2.5.2,4,1.4,4,3.8s-2.4,4.3-5.6,4.3h0Z"/>
      <path class="cls-1" d="M115.9,120.4c-2.2,0-4.1-.4-5.7-1.9l1.8-1.8c1.1,1.1,2.5,1.4,3.9,1.4s3-.6,3-1.9-.5-1.5-1.8-1.6l-2.1-.2c-2.5-.2-4-1.4-4-3.7s2.3-4.1,5.1-4.1,3.8.4,5,1.5l-1.7,1.7c-.9-.7-2-1-3.3-1s-2.5.7-2.5,1.7.4,1.4,1.9,1.5l2.1.2c2.5.2,4,1.4,4,3.8s-2.4,4.3-5.6,4.3h0Z"/>
      <path class="cls-1" d="M130.1,120.4c-3,0-6-1.9-6-6.9s3-6.9,6-6.9,3.2.5,4.4,1.9l-1.9,1.8c-.9-.9-1.5-1.3-2.6-1.3s-1.9.4-2.5,1.2c-.6.7-.8,1.7-.8,3.3s.2,2.6.8,3.3c.6.8,1.5,1.2,2.5,1.2s1.7-.4,2.6-1.3l1.9,1.8c-1.3,1.4-2.6,1.9-4.4,1.9h0Z"/>
      <path class="cls-1" d="M145.7,120.2v-8.3c0-2.1-1.2-2.9-2.7-2.9s-2.7.9-2.7,2.9v8.3h-2.7v-18.9h2.7v6.8c.9-1,2.1-1.5,3.5-1.5,3,0,4.7,2,4.7,4.9v8.7h-2.7Z"/>
      <path class="cls-1" d="M161.3,118.8c-.9.9-2.2,1.6-4,1.6s-3.1-.7-4-1.6c-1.3-1.3-1.6-3-1.6-5.3s.3-4,1.6-5.3c.9-.9,2.2-1.6,4-1.6s3.2.7,4,1.6c1.3,1.3,1.6,3,1.6,5.3s-.3,4-1.6,5.3ZM159.3,109.8c-.5-.5-1.2-.8-2-.8s-1.5.3-2,.8c-.8.8-.9,2.2-.9,3.7s.1,2.9.9,3.7c.5.5,1.2.8,2,.8s1.5-.3,2-.8c.8-.8.9-2.2.9-3.7s-.1-2.9-.9-3.7Z"/>
      <path class="cls-1" d="M175.5,118.8c-.9.9-2.2,1.6-4,1.6s-3.1-.7-4-1.6c-1.3-1.3-1.6-3-1.6-5.3s.3-4,1.6-5.3c.9-.9,2.2-1.6,4-1.6s3.2.7,4,1.6c1.3,1.3,1.6,3,1.6,5.3s-.3,4-1.6,5.3ZM173.4,109.8c-.5-.5-1.2-.8-2-.8s-1.5.3-2,.8c-.8.8-.9,2.2-.9,3.7s.1,2.9.9,3.7c.5.5,1.2.8,2,.8s1.5-.3,2-.8c.8-.8.9-2.2.9-3.7s-.1-2.9-.9-3.7Z"/>
      <path class="cls-1" d="M184.1,120.2c-2.6,0-3.7-1.7-3.7-3.7v-15.2h2.7v15c0,1,.4,1.6,1.5,1.6h1.2v2.3h-1.7Z"/>
    </g>
  </g>
  <g id="eut_V2" data-name="eut V2">
    <g>
      <polygon class="cls-2" points="205.1 158.5 206 158.7 238.2 38.5 237.4 38.2 205.1 158.5"/>
      <path class="cls-2" d="M296,61.7c0-1,.5-1.5,1.4-1.5s1.4.5,1.4,1.5v3.4h.8v-3.5c0-.9.6-1.4,1.4-1.4s1.4.5,1.4,1.5v3.4h.8v-3.5c0-.6-.2-1.2-.6-1.5-.3-.3-.8-.5-1.4-.5s-1.4.3-1.8.9c-.3-.6-.9-.9-1.7-.9s-1.2.2-1.6.7v-.6h-.8v5.5h.8v-3.4h0Z"/>
      <path class="cls-2" d="M307.7,65.2c1,0,1.5-.3,2-.9l-.5-.5c-.4.4-.8.6-1.5.6-1.1,0-1.6-.7-1.6-1.9h3.7v-.4c0-1.6-.8-2.7-2.3-2.7s-2.3,1.1-2.3,2.8,1,2.8,2.4,2.8h0ZM306.3,61c.2-.5.7-.8,1.3-.8s1.1.3,1.3.8c.1.3.1.5.2.9h-2.9c0-.4,0-.6.2-.9h0Z"/>
      <path class="cls-2" d="M312.8,61.7c0-1,.5-1.5,1.4-1.5s1.4.5,1.4,1.5v3.4h.8v-3.5c0-.9.6-1.4,1.4-1.4s1.4.5,1.4,1.5v3.4h.8v-3.5c0-.6-.2-1.2-.6-1.5-.3-.3-.8-.5-1.4-.5s-1.4.3-1.8.9c-.3-.6-.9-.9-1.7-.9s-1.2.2-1.6.7v-.6h-.8v5.5h.8v-3.4h0Z"/>
      <path class="cls-2" d="M323.1,64.5c.5.6,1,.7,1.6.7s1.1-.2,1.4-.5c.6-.6.7-1.5.7-2.3s-.1-1.8-.7-2.3c-.3-.3-.8-.5-1.4-.5s-1.1.1-1.6.7v-3.1h-.8v8h.8v-.7h0ZM324.5,60.3c1.2,0,1.4,1,1.4,2.1s-.2,2.1-1.4,2.1-1.4-1-1.4-2.1.2-2.1,1.4-2.1Z"/>
      <path class="cls-2" d="M331.1,65.2c.9,0,1.5-.3,2-.9l-.5-.5c-.4.4-.8.6-1.5.6-1.1,0-1.6-.7-1.6-1.9h3.7v-.4c0-1.6-.8-2.7-2.3-2.7s-2.3,1.1-2.3,2.8,1,2.8,2.4,2.8h0ZM329.7,61c.2-.5.7-.8,1.3-.8s1.1.3,1.3.8c.1.3.2.5.2.9h-2.9c0-.4,0-.6.2-.9h0Z"/>
      <path class="cls-2" d="M336.2,61.7c0-.8.5-1.5,1.3-1.5s.7,0,1,.4l.6-.6c-.4-.4-.8-.5-1.3-.5s-1.2.3-1.5.7v-.7h-.8v5.5h.8v-3.4h0Z"/>
      <path class="cls-2" d="M344.9,65.2c.7,0,1.2-.2,1.6-.6.6-.6.7-1.3.7-2.2s-.1-1.6-.7-2.2c-.4-.4-.9-.6-1.6-.6s-1.2.2-1.6.6c-.6.6-.7,1.3-.7,2.2s.1,1.6.7,2.2c.4.4.9.6,1.6.6ZM343.9,60.7c.3-.3.6-.4,1-.4s.8.2,1,.4c.4.4.4,1.1.4,1.7s0,1.3-.4,1.7c-.3.3-.6.4-1,.4s-.7-.2-1-.4c-.4-.4-.5-1.1-.5-1.7s0-1.3.5-1.7Z"/>
      <path class="cls-2" d="M349.5,65.1h.8v-4.9h1.2v-.6h-1.2v-1c0-.5.2-.8.7-.8h.4v-.7h-.6c-1,0-1.4.7-1.4,1.5v1.1h-.7v.6h.7v4.9h0Z"/>
      <path class="cls-2" d="M282.2,131.5c.2-.3.4-.7.4-1.1,0-1.2-.8-1.8-2.3-1.8h-1.6v6.3h1v-2.6h.6l1.5,2.6h1.2l-1.7-2.7c.4-.1.7-.3,1-.6h0ZM279.6,131.5v-2.1h.7c.4,0,.7,0,.9.2.2.2.3.4.3.8s-.1.7-.3.8c-.2.2-.5.3-.9.3h-.7,0Z"/>
      <path class="cls-2" d="M355,131.5c.2-.3.4-.7.4-1.1,0-1.2-.8-1.8-2.3-1.8h-1.6v6.3h1v-2.6h.6l1.5,2.6h1.2l-1.7-2.7c.4-.1.7-.3,1-.6h0ZM352.4,131.5v-2.1h.7c.4,0,.7,0,.9.2.2.2.3.4.3.8s0,.7-.3.8c-.2.2-.5.3-.9.3h-.7Z"/>
      <path class="cls-2" d="M346.9,139.3c-.7,0-1.3.3-1.7.9-.4.6-.6,1.4-.6,2.4s.2,1.8.6,2.4.9.9,1.7.9,1.3-.3,1.7-.9c.4-.6.6-1.4.6-2.4s-.2-1.8-.6-2.4c-.4-.6-.9-.9-1.7-.9h0ZM347.8,144.4c-.2.4-.5.6-.9.6s-.7-.2-.9-.6c-.2-.4-.3-1-.3-1.8s0-1.4.3-1.9c.2-.4.5-.6.9-.6s.7.2.9.6c.2.4.3,1,.3,1.8s0,1.4-.3,1.8h0Z"/>
      <path class="cls-2" d="M287,139.3c-.7,0-1.3.3-1.7.9s-.6,1.4-.6,2.4.2,1.8.6,2.4c.4.6.9.9,1.7.9s1.3-.3,1.7-.9c.4-.6.6-1.4.6-2.4s-.2-1.8-.6-2.4c-.4-.6-.9-.9-1.7-.9ZM287.9,144.4c-.2.4-.5.6-.9.6s-.7-.2-.9-.6-.3-1-.3-1.8.1-1.4.3-1.8c.2-.4.5-.6.9-.6s.7.2.9.6c.2.4.3,1,.3,1.8s-.1,1.4-.3,1.8h0Z"/>
      <path class="cls-2" d="M286.9,135c.7,0,1.3-.3,1.7-.9.4-.6.6-1.4.6-2.4s-.2-1.8-.6-2.4c-.4-.6-.9-.9-1.7-.9s-1.3.3-1.7.9-.6,1.4-.6,2.4.2,1.8.6,2.4c.4.6.9.9,1.7.9ZM285.9,129.9c.2-.4.5-.6.9-.6s.7.2.9.6c.2.4.3,1,.3,1.8s-.1,1.4-.3,1.8-.5.6-.9.6-.7-.2-.9-.6c-.2-.4-.3-1-.3-1.8s.1-1.4.3-1.9h0Z"/>
      <path class="cls-2" d="M353.4,143h1v1.7c-.3.2-.6.3-1,.3s-.8-.2-1.1-.6c-.2-.4-.3-1-.3-1.9s.2-1.4.4-1.8.7-.6,1.1-.6.4,0,.6.1c.2,0,.4.2.5.4l.6-.6c-.2-.2-.5-.4-.8-.6-.3-.1-.6-.2-1-.2s-.9.1-1.3.4c-.4.2-.7.6-.9,1.1s-.3,1.1-.3,1.8c0,1.1.2,1.9.6,2.4.4.6,1,.8,1.8.8s.7,0,1.1-.1c.3-.1.6-.2.9-.4v-3.1h-2.1v.8c0,0,.1,0,.1,0Z"/>
      <path class="cls-2" d="M275,132.6c0,.5,0,.9-.2,1.2s-.4.4-.8.4-.6-.1-.8-.4c-.2-.2-.2-.6-.2-1.2v-4h-1v4.2c0,.7.2,1.2.5,1.6.4.4.9.6,1.5.6s.8,0,1.1-.3c.3-.2.5-.4.7-.8.2-.3.2-.7.2-1.1v-4.2h-1v4h0Z"/>
      <polygon class="cls-2" points="369.5 129.5 371.3 129.5 371.3 134.9 372.3 134.9 372.3 129.5 374 129.5 374.1 128.6 369.5 128.6 369.5 129.5"/>
      <polygon class="cls-2" points="378.3 131.6 376.9 128.6 375.8 128.6 377.7 132.5 377.7 134.9 378.7 134.9 378.7 132.5 380.7 128.6 379.7 128.6 378.3 131.6"/>
      <polygon class="cls-2" points="267 132.1 269.1 132.1 269.1 131.3 267 131.3 267 129.4 269.4 129.4 269.5 128.6 266 128.6 266 134.9 269.6 134.9 269.6 134.1 267 134.1 267 132.1"/>
      <polygon class="cls-2" points="359.5 142.4 358.1 139.4 357 139.4 359 143.3 359 145.7 360 145.7 360 143.3 361.9 139.4 360.9 139.4 359.5 142.4"/>
      <polygon class="cls-2" points="364 129.4 365.2 129.4 365.2 134.1 364 134.1 364 134.9 367.5 134.9 367.5 134.1 366.2 134.1 366.2 129.4 367.5 129.4 367.5 128.6 364 128.6 364 129.4"/>
      <path class="cls-2" d="M314.1,128.6h-.9v2.9c0,.5,0,.9,0,1.3s0,.8.1,1.2l-1.9-5.3h-1.3v6.3h.9v-2.9c0-.7,0-1.5-.1-2.5l1.9,5.3h1.3v-6.3Z"/>
      <polygon class="cls-2" points="291.6 145.7 292.6 145.7 292.6 143.1 294.8 143.1 294.8 142.3 292.6 142.3 292.6 140.2 295.1 140.2 295.2 139.4 291.6 139.4 291.6 145.7"/>
      <polygon class="cls-2" points="348.7 129.4 348.8 128.6 345.2 128.6 345.2 134.9 348.8 134.9 348.8 134.1 346.2 134.1 346.2 132.1 348.3 132.1 348.3 131.3 346.2 131.3 346.2 129.4 348.7 129.4"/>
      <polygon class="cls-2" points="336.1 129.4 336.1 128.6 332.5 128.6 332.5 129.4 333.8 129.4 333.8 134.1 332.5 134.1 332.5 134.9 336.1 134.9 336.1 134.1 334.8 134.1 334.8 129.4 336.1 129.4"/>
      <path class="cls-2" d="M334.7,139.3c-.7,0-1.3.3-1.7.9-.4.6-.6,1.4-.6,2.4s.2,1.8.6,2.4c.4.6.9.9,1.7.9s1.3-.3,1.7-.9c.4-.6.6-1.4.6-2.4s-.2-1.8-.6-2.4c-.4-.6-.9-.9-1.7-.9h0ZM335.7,144.4c-.2.4-.5.6-.9.6s-.7-.2-.9-.6c-.2-.4-.3-1-.3-1.8s0-1.4.3-1.9c.2-.4.5-.6.9-.6s.7.2.9.6c.2.4.3,1,.3,1.8s0,1.4-.3,1.8h0Z"/>
      <polygon class="cls-2" points="322.9 142 320.9 142 320.9 139.4 319.9 139.4 319.9 145.7 320.9 145.7 320.9 142.9 322.9 142.9 322.9 145.7 323.8 145.7 323.8 139.4 322.9 139.4 322.9 142"/>
      <path class="cls-2" d="M316.6,144.8c-.2,0-.5.1-.7.1-.5,0-.9-.2-1.2-.6s-.5-1-.5-1.8.1-1.4.5-1.8c.3-.4.7-.6,1.2-.6s.9.1,1.2.5l.5-.6c-.2-.2-.5-.4-.8-.5-.3-.1-.6-.1-1-.1s-.9.1-1.3.4c-.4.3-.7.6-1,1.1-.2.5-.4,1.1-.4,1.8s.1,1.3.3,1.8.5.9.9,1.1.9.4,1.4.4c.8,0,1.4-.2,1.9-.7l-.5-.6c-.2.2-.4.3-.6.4h0Z"/>
      <path class="cls-2" d="M327.2,132c0-.7,0-1.5-.1-2.5l1.9,5.3h1.3v-6.3h-.9v2.9c0,.5,0,.9,0,1.3,0,.4,0,.8,0,1.2l-1.9-5.3h-1.3v6.3h.9v-2.9h0Z"/>
      <path class="cls-2" d="M322.9,132.6c0,.5,0,.9-.2,1.2s-.4.4-.8.4-.6-.1-.8-.4c-.2-.2-.2-.6-.2-1.2v-4h-1v4.2c0,.7.2,1.2.5,1.6.4.4.9.6,1.5.6s.8,0,1.1-.3c.3-.2.5-.4.7-.8.2-.3.2-.7.2-1.1v-4.2h-1v4h0Z"/>
      <path class="cls-2" d="M359.5,134.2c-.6,0-1.2-.2-1.6-.6l-.5.6c.5.6,1.3.8,2.2.8s.9,0,1.2-.2.6-.4.8-.7c.2-.3.3-.6.3-1,0-.6-.2-1-.5-1.2-.3-.3-.7-.5-1.3-.7-.4-.1-.6-.2-.8-.3s-.3-.2-.4-.3c0-.1-.1-.3-.1-.4,0-.3,0-.5.3-.6.2-.1.5-.2.8-.2.5,0,1,.2,1.4.6l.5-.6c-.5-.5-1.2-.8-2-.8s-.7,0-1,.2c-.3.1-.5.3-.7.6-.2.3-.3.6-.3.9s.2.8.5,1.1c.3.3.8.5,1.5.7.3.1.6.2.7.3s.3.2.4.3c0,.1.1.3.1.5,0,.3-.1.6-.3.8s-.5.3-.9.3h0Z"/>
      <polygon class="cls-2" points="301 140.3 302.8 140.3 302.8 145.7 303.8 145.7 303.8 140.3 305.5 140.3 305.6 139.4 301 139.4 301 140.3"/>
      <polygon class="cls-2" points="340.5 139.4 339.5 139.4 339.5 145.7 343 145.7 343.1 144.8 340.5 144.8 340.5 139.4"/>
      <path class="cls-2" d="M329.4,142.3c0,.5,0,.9,0,1.3,0,.4,0,.8,0,1.2l-1.9-5.3h-1.3v6.3h.9v-2.9c0-.7,0-1.5-.1-2.5l1.9,5.3h1.3v-6.3h-.9v2.9h0Z"/>
      <polygon class="cls-2" points="301.1 129.4 301.2 128.6 297.6 128.6 297.6 134.9 301.2 134.9 301.2 134.1 298.6 134.1 298.6 132.1 300.8 132.1 300.8 131.3 298.6 131.3 298.6 129.4 301.1 129.4"/>
      <polygon class="cls-2" points="340.8 133.9 339.4 128.6 338.3 128.6 340.2 134.9 341.3 134.9 343.2 128.6 342.2 128.6 340.8 133.9"/>
      <polygon class="cls-2" points="308.6 142.9 310.8 142.9 310.8 142.1 308.6 142.1 308.6 140.2 311.1 140.2 311.2 139.4 307.6 139.4 307.6 145.7 311.2 145.7 311.2 144.9 308.6 144.9 308.6 142.9"/>
      <path class="cls-2" d="M306.3,128.6h-1.2l-1.9,6.3h1l.4-1.5h2.1l.4,1.5h1l-1.9-6.3h0ZM304.8,132.6l.9-3.1.9,3.1h-1.7Z"/>
      <path class="cls-2" d="M293.2,128.6h-1.6v6.3h1v-2.2h.7c.7,0,1.3-.2,1.7-.5.4-.3.6-.9.6-1.6s-.2-1.1-.6-1.5-1-.5-1.8-.5h0ZM294.2,131.6c-.2.2-.5.3-.9.3h-.7v-2.4h.7c.9,0,1.3.4,1.3,1.2s-.1.8-.3,1h0Z"/>
      <polygon class="cls-2" points="382.3 100.4 382.3 92.8 377.4 92.8 377.4 100.4 369.9 100.4 369.9 105.5 377.4 105.5 377.4 113.1 382.3 113.1 382.3 105.5 389.9 105.5 389.9 100.4 382.3 100.4"/>
      <rect class="cls-2" x="353.7" y="92.8" width="4.9" height="28.1"/>
      <path class="cls-2" d="M342.5,120.8v-33.6h27.4v-5h-32.3v33.6h-8.9c-5.1,0-8.8-3.4-8.8-8v-25.6h-4.9v16.2c0,9.7-7.4,17.4-16.8,17.4s-13.5-3.9-15.6-10.4h11.7c8.9,0,13.5-6.3,13.5-12.5s-4.5-11.9-13.1-11.9-17.8,8.7-17.8,18.9v.4h-20v5h20.6c2.2,9.4,10.3,15.4,20.7,15.4s13.4-3.3,17.4-8.9c1.8,5.4,6.9,8.9,13.1,8.9h13.8,0ZM281.8,100.4v-.4c0-7.4,6-13.9,12.9-13.9s8.2,4.5,8.2,6.8c0,5.2-4.4,7.5-8.5,7.5h-12.5,0Z"/>
    </g>
  </g>
</svg>