<?xml version="1.0" encoding="UTF-8"?>
<svg id="Ebene_1" data-name="Ebene 1" xmlns="http://www.w3.org/2000/svg" version="1.1" viewBox="0 0 333.9 156.7">
  <defs>
    <style>
      .cls-1 {
        fill: #1d1d1b;
      }

      .cls-1, .cls-2 {
        stroke-width: 0px;
      }

      .cls-2 {
        fill: #000;
      }
    </style>
  </defs>
  <g id="darmstadt_business_school_3" data-name="darmstadt business school 3">
    <path class="cls-1" d="M121.1,38c0,2.3-.4,3.9-1.4,4.8-1.7,1.6-3.4,1.8-6,1.8s-5.5-1.8-5.5-4.4,1.9-4.3,5.3-4.3h7.5v2.1h0ZM130.6,52.1v-25.1c0-8.9-5.6-13.5-16.2-13.5s-10,1.2-13.8,5.3l6.1,5.9c2-2.3,3.7-3.2,7.3-3.2s7.1,1.8,7.1,6v1.9h-9c-8.9,0-13,5-13,11.1s1.1,6.4,3.1,8.6c2.3,2.3,5.4,3.4,9.7,3.4s6.8-1.1,9.4-3.7v3.3h9.3,0ZM82.2,33c0,6.2-.8,11-6.5,11s-6.4-4.8-6.4-11,.7-10.9,6.4-10.9,6.5,4.7,6.5,10.9M91.7,52.1V0h-9.5v17.3c-2.5-2.8-5.4-3.8-9.3-3.8s-7.2,1.3-9.3,3.4c-3.8,3.8-3.9,10.3-3.9,16s0,12.3,3.9,16.1c2.1,2.1,5.6,3.4,9.4,3.4s6.8-1.1,9.4-4v3.6h9.3ZM59.2,56.9h-22.7v2.2h22.7v-2.2ZM31.4,52.1v-24.7c0-8.1-4.4-13.9-12.7-13.9s-6.6,1.3-9.1,3.9V0H0v52.1h9.5v-23.3c0-5,3.1-6.7,6.1-6.7s6.2,1.7,6.2,6.7v23.3h9.5Z"/>
    <g>
      <path class="cls-1" d="M7.7,93.7v-1.4c-1,1.2-2.1,1.6-3.6,1.6s-2.6-.4-3.3-1.2c-1.4-1.4-1.5-3.7-1.5-5.7s.2-4.3,1.5-5.7,1.9-1.2,3.3-1.2,2.6.4,3.5,1.5v-6.8h2.7v18.9h-2.7ZM4.9,82.5c-2.4,0-2.8,2.1-2.8,4.5s.4,4.5,2.8,4.5,2.8-2.1,2.8-4.5-.4-4.5-2.8-4.5Z"/>
      <path class="cls-1" d="M21.8,93.7v-1.2c-1,1-1.9,1.4-3.6,1.4s-2.8-.4-3.6-1.2c-.7-.7-1.1-1.8-1.1-2.9,0-2.3,1.6-3.9,4.6-3.9h3.6v-1c0-1.7-.9-2.5-3-2.5s-2.2.4-3,1.3l-1.8-1.7c1.3-1.5,2.6-1.9,4.8-1.9,3.7,0,5.5,1.6,5.5,4.6v9h-2.7,0ZM21.7,87.7h-3.2c-1.6,0-2.4.7-2.4,1.9s.8,1.9,2.5,1.9,1.8,0,2.5-.8c.4-.4.6-1,.6-2v-1.1h0Z"/>
      <path class="cls-1" d="M35.8,83.3c-.6-.6-1.1-.9-2-.9-1.5,0-2.7,1.2-2.7,3v8.2h-2.7v-13.5h2.7v1.5c.7-1,2.1-1.6,3.6-1.6s2.3.4,3.2,1.3l-2,2.1h0Z"/>
      <path class="cls-1" d="M56.7,93.7v-8.2c0-2.1-1.2-3-2.7-3s-2.8.9-2.8,2.9v8.4h-2.7v-8.2c0-2.1-1.2-3-2.7-3s-2.8.9-2.8,3v8.2h-2.7v-13.5h2.7v1.4c.9-1,2.2-1.5,3.6-1.5s3,.7,3.8,2c1.1-1.3,2.5-2,4.2-2s2.6.4,3.4,1.2c1,1,1.4,2.3,1.4,3.8v8.6h-2.7Z"/>
      <path class="cls-1" d="M67.9,93.8c-2.2,0-4.1-.4-5.7-1.9l1.8-1.8c1.1,1.1,2.5,1.4,3.9,1.4s3-.6,3-1.9-.5-1.5-1.8-1.6l-2.1-.2c-2.5-.2-4-1.4-4-3.7s2.3-4.1,5.1-4.1,3.8.4,5,1.5l-1.7,1.7c-.9-.7-2-1-3.3-1s-2.5.7-2.5,1.7.4,1.4,1.9,1.5l2.1.2c2.5.2,4,1.4,4,3.8s-2.4,4.3-5.6,4.3h0Z"/>
      <path class="cls-1" d="M80.9,93.7c-2.5,0-3.7-1.8-3.7-3.8v-7.4h-1.5v-2.1h1.5v-4.1h2.7v4.1h2.6v2.1h-2.6v7.3c0,1,.5,1.6,1.5,1.6h1.1v2.3h-1.6,0Z"/>
      <path class="cls-1" d="M93.3,93.7v-1.2c-1,1-1.9,1.4-3.6,1.4s-2.8-.4-3.6-1.2c-.7-.7-1.1-1.8-1.1-2.9,0-2.3,1.6-3.9,4.6-3.9h3.6v-1c0-1.7-.9-2.5-3-2.5s-2.2.4-3,1.3l-1.8-1.7c1.3-1.5,2.6-1.9,4.8-1.9,3.7,0,5.5,1.6,5.5,4.6v9h-2.7,0ZM93.2,87.7h-3.2c-1.6,0-2.4.7-2.4,1.9s.8,1.9,2.5,1.9,1.8,0,2.5-.8c.4-.4.6-1,.6-2v-1.1h0Z"/>
      <path class="cls-1" d="M107.7,93.7v-1.4c-1,1.2-2.1,1.6-3.6,1.6s-2.5-.4-3.3-1.2c-1.4-1.4-1.5-3.7-1.5-5.7s.2-4.3,1.5-5.7c.7-.7,1.9-1.2,3.3-1.2s2.5.4,3.5,1.5v-6.8h2.7v18.9h-2.7ZM104.9,82.5c-2.5,0-2.8,2.1-2.8,4.5s.4,4.5,2.8,4.5,2.8-2.1,2.8-4.5-.4-4.5-2.8-4.5Z"/>
      <path class="cls-1" d="M118.5,93.7c-2.5,0-3.7-1.8-3.7-3.8v-7.4h-1.5v-2.1h1.5v-4.1h2.7v4.1h2.6v2.1h-2.6v7.3c0,1,.5,1.6,1.5,1.6h1.1v2.3h-1.6,0Z"/>
      <path class="cls-1" d="M9.5,119.2c-.7.7-1.9,1.2-3.3,1.2s-2.6-.4-3.6-1.6v1.4H0v-18.9h2.7v6.8c1-1.2,2.1-1.5,3.5-1.5s2.5.4,3.3,1.2c1.4,1.4,1.5,3.6,1.5,5.7s-.2,4.4-1.5,5.7h0ZM5.5,109c-2.4,0-2.8,2.1-2.8,4.5s.4,4.5,2.8,4.5,2.8-2.1,2.8-4.5-.4-4.5-2.8-4.5Z"/>
      <path class="cls-1" d="M22.7,120.2v-1.4c-.9,1-2.2,1.5-3.6,1.5s-2.5-.4-3.3-1.2c-1-1-1.4-2.3-1.4-3.8v-8.6h2.7v8.2c0,2.1,1.2,3,2.7,3s2.8-.9,2.8-3v-8.2h2.7v13.5h-2.7,0Z"/>
      <path class="cls-1" d="M33.9,120.4c-2.2,0-4.1-.4-5.7-1.9l1.8-1.8c1.1,1.1,2.5,1.4,3.9,1.4s3-.6,3-1.9-.5-1.5-1.8-1.6l-2.1-.2c-2.5-.2-4-1.4-4-3.7s2.3-4.1,5.1-4.1,3.8.4,5,1.5l-1.7,1.7c-.9-.7-2-1-3.3-1s-2.5.7-2.5,1.7.4,1.4,1.9,1.5l2.1.2c2.5.2,4,1.4,4,3.8s-2.4,4.3-5.6,4.3h0Z"/>
      <path class="cls-1" d="M42.5,104.1v-2.9h2.9v2.9h-2.9ZM42.5,120.2v-13.5h2.7v13.5h-2.7Z"/>
      <path class="cls-1" d="M57.4,120.2v-8.2c0-2.1-1.2-3-2.7-3s-2.8.9-2.8,3v8.2h-2.7v-13.5h2.7v1.4c.9-1,2.2-1.5,3.6-1.5s2.5.4,3.3,1.2c1,1,1.4,2.3,1.4,3.8v8.6h-2.7Z"/>
      <path class="cls-1" d="M66.1,114.3c0,2.3,1.2,3.8,3.4,3.8s2.3-.4,3.3-1.4l1.7,1.6c-1.4,1.4-2.7,2.1-5,2.1-3.4,0-6.1-1.8-6.1-6.9s2.3-6.9,5.7-6.9,5.7,2.7,5.7,6.5v1.2h-8.8,0ZM71.8,110.6c-.4-1-1.4-1.7-2.7-1.7s-2.3.7-2.7,1.7c-.3.6-.3,1-.4,1.8h6.1c0-.8-.1-1.2-.4-1.8Z"/>
      <path class="cls-1" d="M82.9,120.4c-2.2,0-4.1-.4-5.7-1.9l1.8-1.8c1.1,1.1,2.5,1.4,3.9,1.4s3-.6,3-1.9-.5-1.5-1.8-1.6l-2.1-.2c-2.5-.2-4-1.4-4-3.7s2.3-4.1,5.1-4.1,3.8.4,5,1.5l-1.7,1.7c-.9-.7-2-1-3.3-1s-2.5.7-2.5,1.7.4,1.4,1.9,1.5l2.1.2c2.5.2,4,1.4,4,3.8s-2.4,4.3-5.6,4.3h0Z"/>
      <path class="cls-1" d="M96.3,120.4c-2.2,0-4.1-.4-5.7-1.9l1.8-1.8c1.1,1.1,2.5,1.4,3.9,1.4s3-.6,3-1.9-.5-1.5-1.8-1.6l-2.1-.2c-2.5-.2-4-1.4-4-3.7s2.3-4.1,5.1-4.1,3.8.4,5,1.5l-1.7,1.7c-.9-.7-2-1-3.3-1s-2.5.7-2.5,1.7.4,1.4,1.9,1.5l2.1.2c2.5.2,4,1.4,4,3.8s-2.4,4.3-5.6,4.3h0Z"/>
      <path class="cls-1" d="M4.4,147c-2.2,0-4.1-.4-5.7-1.9l1.8-1.8c1.1,1.1,2.6,1.4,3.9,1.4s2.9-.6,2.9-1.9-.5-1.5-1.8-1.6l-2.1-.2c-2.5-.2-4-1.4-4-3.7s2.3-4.1,5.1-4.1,3.8.4,5,1.5l-1.7,1.7c-.9-.7-2.1-1-3.3-1s-2.4.7-2.4,1.7.4,1.4,1.9,1.5l2.1.2c2.5.2,4,1.4,4,3.8s-2.4,4.3-5.6,4.3h0Z"/>
      <path class="cls-1" d="M18.6,147c-3,0-6-1.9-6-6.9s3-6.9,6-6.9,3.2.5,4.4,1.9l-1.9,1.8c-.9-.9-1.5-1.3-2.6-1.3s-1.9.4-2.5,1.2c-.6.7-.8,1.7-.8,3.3s.2,2.6.8,3.3c.6.8,1.5,1.2,2.5,1.2s1.7-.4,2.6-1.3l1.9,1.8c-1.3,1.4-2.6,1.9-4.4,1.9h0Z"/>
      <path class="cls-1" d="M34.1,146.8v-8.3c0-2.1-1.2-2.9-2.7-2.9s-2.7.9-2.7,2.9v8.3h-2.7v-18.9h2.7v6.8c.9-1,2.1-1.5,3.5-1.5,3,0,4.7,2,4.7,4.9v8.7h-2.7Z"/>
      <path class="cls-1" d="M49.8,145.4c-.9.9-2.2,1.6-4,1.6s-3.1-.7-4-1.6c-1.3-1.3-1.6-3-1.6-5.3s.3-4,1.6-5.3c.9-.9,2.2-1.6,4-1.6s3.2.7,4,1.6c1.3,1.3,1.6,3,1.6,5.3s-.3,4-1.6,5.3ZM47.7,136.4c-.5-.5-1.2-.8-2-.8s-1.5.3-2,.8c-.8.8-.9,2.2-.9,3.7s.1,2.9.9,3.7c.5.5,1.2.8,2,.8s1.5-.3,2-.8c.8-.8.9-2.2.9-3.7s-.1-2.9-.9-3.7Z"/>
      <path class="cls-1" d="M63.9,145.4c-.9.9-2.2,1.6-4,1.6s-3.1-.7-4-1.6c-1.3-1.3-1.6-3-1.6-5.3s.3-4,1.6-5.3c.9-.9,2.2-1.6,4-1.6s3.2.7,4,1.6c1.3,1.3,1.6,3,1.6,5.3s-.3,4-1.6,5.3ZM61.9,136.4c-.5-.5-1.2-.8-2-.8s-1.5.3-2,.8c-.8.8-.9,2.2-.9,3.7s.1,2.9.9,3.7c.5.5,1.2.8,2,.8s1.5-.3,2-.8c.8-.8.9-2.2.9-3.7s-.1-2.9-.9-3.7Z"/>
      <path class="cls-1" d="M72.5,146.8c-2.6,0-3.7-1.7-3.7-3.7v-15.2h2.7v15c0,1,.4,1.6,1.5,1.6h1.2v2.3h-1.7Z"/>
    </g>
  </g>
  <g id="eut_V2" data-name="eut V2">
    <g>
      <polygon class="cls-2" points="149.2 156.5 150 156.7 182.2 36.5 181.4 36.2 149.2 156.5"/>
      <path class="cls-2" d="M240,59.7c0-1,.5-1.5,1.4-1.5s1.4.5,1.4,1.5v3.4h.8v-3.5c0-.9.6-1.4,1.4-1.4s1.4.5,1.4,1.5v3.4h.8v-3.5c0-.6-.2-1.2-.6-1.5-.3-.3-.8-.5-1.4-.5s-1.4.3-1.8.9c-.3-.6-.9-.9-1.7-.9s-1.2.2-1.6.7v-.6h-.8v5.5h.8v-3.4h0Z"/>
      <path class="cls-2" d="M251.7,63.2c1,0,1.5-.3,2-.9l-.5-.5c-.4.4-.8.6-1.5.6-1.1,0-1.6-.7-1.6-1.9h3.7v-.4c0-1.6-.8-2.7-2.3-2.7s-2.3,1.1-2.3,2.8,1,2.8,2.4,2.8h0ZM250.3,59c.2-.5.7-.8,1.3-.8s1.1.3,1.3.8c.1.3.1.5.2.9h-2.9c0-.4,0-.6.2-.9h0Z"/>
      <path class="cls-2" d="M256.8,59.7c0-1,.5-1.5,1.4-1.5s1.4.5,1.4,1.5v3.4h.8v-3.5c0-.9.6-1.4,1.4-1.4s1.4.5,1.4,1.5v3.4h.8v-3.5c0-.6-.2-1.2-.6-1.5-.3-.3-.8-.5-1.4-.5s-1.4.3-1.8.9c-.3-.6-.9-.9-1.7-.9s-1.2.2-1.6.7v-.6h-.8v5.5h.8v-3.4h0Z"/>
      <path class="cls-2" d="M267.1,62.5c.5.6,1,.7,1.6.7s1.1-.2,1.4-.5c.6-.6.7-1.5.7-2.3s-.1-1.8-.7-2.3c-.3-.3-.8-.5-1.4-.5s-1.1.1-1.6.7v-3.1h-.8v8h.8v-.7h0ZM268.5,58.3c1.2,0,1.4,1,1.4,2.1s-.2,2.1-1.4,2.1-1.4-1-1.4-2.1.2-2.1,1.4-2.1Z"/>
      <path class="cls-2" d="M275.1,63.2c.9,0,1.5-.3,2-.9l-.5-.5c-.4.4-.8.6-1.5.6-1.1,0-1.6-.7-1.6-1.9h3.7v-.4c0-1.6-.8-2.7-2.3-2.7s-2.3,1.1-2.3,2.8,1,2.8,2.4,2.8h0ZM273.7,59c.2-.5.7-.8,1.3-.8s1.1.3,1.3.8c.1.3.2.5.2.9h-2.9c0-.4,0-.6.2-.9h0Z"/>
      <path class="cls-2" d="M280.2,59.7c0-.8.5-1.5,1.3-1.5s.7,0,1,.4l.6-.6c-.4-.4-.8-.5-1.3-.5s-1.2.3-1.5.7v-.7h-.8v5.5h.8v-3.4h0Z"/>
      <path class="cls-2" d="M288.9,63.2c.7,0,1.2-.2,1.6-.6.6-.6.7-1.3.7-2.2s-.1-1.6-.7-2.2c-.4-.4-.9-.6-1.6-.6s-1.2.2-1.6.6c-.6.6-.7,1.3-.7,2.2s.1,1.6.7,2.2c.4.4.9.6,1.6.6ZM287.9,58.7c.3-.3.6-.4,1-.4s.8.2,1,.4c.4.4.4,1.1.4,1.7s0,1.3-.4,1.7c-.3.3-.6.4-1,.4s-.7-.2-1-.4c-.4-.4-.5-1.1-.5-1.7s0-1.3.5-1.7Z"/>
      <path class="cls-2" d="M293.5,63.1h.8v-4.9h1.2v-.6h-1.2v-1c0-.5.2-.8.7-.8h.4v-.7h-.6c-1,0-1.4.7-1.4,1.5v1.1h-.7v.6h.7v4.9h0Z"/>
      <path class="cls-2" d="M226.2,129.5c.2-.3.4-.7.4-1.1,0-1.2-.8-1.8-2.3-1.8h-1.6v6.3h1v-2.6h.6l1.5,2.6h1.2l-1.7-2.7c.4-.1.7-.3,1-.6h0ZM223.6,129.5v-2.1h.7c.4,0,.7,0,.9.2.2.2.3.4.3.8s-.1.7-.3.8c-.2.2-.5.3-.9.3h-.7,0Z"/>
      <path class="cls-2" d="M299,129.5c.2-.3.4-.7.4-1.1,0-1.2-.8-1.8-2.3-1.8h-1.6v6.3h1v-2.6h.6l1.5,2.6h1.2l-1.7-2.7c.4-.1.7-.3,1-.6h0ZM296.4,129.5v-2.1h.7c.4,0,.7,0,.9.2.2.2.3.4.3.8s0,.7-.3.8c-.2.2-.5.3-.9.3h-.7Z"/>
      <path class="cls-2" d="M290.9,137.3c-.7,0-1.3.3-1.7.9-.4.6-.6,1.4-.6,2.4s.2,1.8.6,2.4.9.9,1.7.9,1.3-.3,1.7-.9c.4-.6.6-1.4.6-2.4s-.2-1.8-.6-2.4c-.4-.6-.9-.9-1.7-.9h0ZM291.8,142.4c-.2.4-.5.6-.9.6s-.7-.2-.9-.6c-.2-.4-.3-1-.3-1.8s0-1.4.3-1.9c.2-.4.5-.6.9-.6s.7.2.9.6c.2.4.3,1,.3,1.8s0,1.4-.3,1.8h0Z"/>
      <path class="cls-2" d="M231,137.3c-.7,0-1.3.3-1.7.9s-.6,1.4-.6,2.4.2,1.8.6,2.4c.4.6.9.9,1.7.9s1.3-.3,1.7-.9c.4-.6.6-1.4.6-2.4s-.2-1.8-.6-2.4c-.4-.6-.9-.9-1.7-.9ZM231.9,142.4c-.2.4-.5.6-.9.6s-.7-.2-.9-.6-.3-1-.3-1.8.1-1.4.3-1.8c.2-.4.5-.6.9-.6s.7.2.9.6c.2.4.3,1,.3,1.8s-.1,1.4-.3,1.8h0Z"/>
      <path class="cls-2" d="M230.9,133c.7,0,1.3-.3,1.7-.9.4-.6.6-1.4.6-2.4s-.2-1.8-.6-2.4c-.4-.6-.9-.9-1.7-.9s-1.3.3-1.7.9-.6,1.4-.6,2.4.2,1.8.6,2.4c.4.6.9.9,1.7.9ZM229.9,127.9c.2-.4.5-.6.9-.6s.7.2.9.6c.2.4.3,1,.3,1.8s-.1,1.4-.3,1.8-.5.6-.9.6-.7-.2-.9-.6c-.2-.4-.3-1-.3-1.8s.1-1.4.3-1.9h0Z"/>
      <path class="cls-2" d="M297.4,141h1v1.7c-.3.2-.6.3-1,.3s-.8-.2-1.1-.6c-.2-.4-.3-1-.3-1.9s.2-1.4.4-1.8.7-.6,1.1-.6.4,0,.6.1c.2,0,.4.2.5.4l.6-.6c-.2-.2-.5-.4-.8-.6-.3-.1-.6-.2-1-.2s-.9.1-1.3.4c-.4.2-.7.6-.9,1.1s-.3,1.1-.3,1.8c0,1.1.2,1.9.6,2.4.4.6,1,.8,1.8.8s.7,0,1.1-.1c.3-.1.6-.2.9-.4v-3.1h-2.1v.8c0,0,.1,0,.1,0Z"/>
      <path class="cls-2" d="M219.1,130.6c0,.5,0,.9-.2,1.2s-.4.4-.8.4-.6-.1-.8-.4c-.2-.2-.2-.6-.2-1.2v-4h-1v4.2c0,.7.2,1.2.5,1.6.4.4.9.6,1.5.6s.8,0,1.1-.3c.3-.2.5-.4.7-.8.2-.3.2-.7.2-1.1v-4.2h-1v4h0Z"/>
      <polygon class="cls-2" points="313.5 127.5 315.3 127.5 315.3 132.9 316.3 132.9 316.3 127.5 318 127.5 318.1 126.6 313.5 126.6 313.5 127.5"/>
      <polygon class="cls-2" points="322.3 129.6 320.9 126.6 319.8 126.6 321.8 130.5 321.8 132.9 322.8 132.9 322.8 130.5 324.7 126.6 323.7 126.6 322.3 129.6"/>
      <polygon class="cls-2" points="211 130.1 213.1 130.1 213.1 129.3 211 129.3 211 127.4 213.4 127.4 213.5 126.6 210 126.6 210 132.9 213.6 132.9 213.6 132.1 211 132.1 211 130.1"/>
      <polygon class="cls-2" points="303.5 140.4 302.1 137.5 301 137.5 303 141.3 303 143.7 304 143.7 304 141.3 306 137.5 304.9 137.5 303.5 140.4"/>
      <polygon class="cls-2" points="308 127.4 309.2 127.4 309.2 132.1 308 132.1 308 132.9 311.5 132.9 311.5 132.1 310.2 132.1 310.2 127.4 311.5 127.4 311.5 126.6 308 126.6 308 127.4"/>
      <path class="cls-2" d="M258.1,126.6h-.9v2.9c0,.5,0,.9,0,1.3s0,.8.1,1.2l-1.9-5.3h-1.3v6.3h.9v-2.9c0-.7,0-1.5-.1-2.5l1.9,5.3h1.3v-6.3Z"/>
      <polygon class="cls-2" points="235.6 143.7 236.6 143.7 236.6 141.1 238.8 141.1 238.8 140.3 236.6 140.3 236.6 138.3 239.1 138.3 239.2 137.5 235.6 137.5 235.6 143.7"/>
      <polygon class="cls-2" points="292.7 127.4 292.8 126.6 289.2 126.6 289.2 132.9 292.8 132.9 292.8 132.1 290.2 132.1 290.2 130.1 292.4 130.1 292.4 129.3 290.2 129.3 290.2 127.4 292.7 127.4"/>
      <polygon class="cls-2" points="280.1 127.4 280.1 126.6 276.5 126.6 276.5 127.4 277.8 127.4 277.8 132.1 276.5 132.1 276.5 132.9 280.1 132.9 280.1 132.1 278.8 132.1 278.8 127.4 280.1 127.4"/>
      <path class="cls-2" d="M278.8,137.3c-.7,0-1.3.3-1.7.9-.4.6-.6,1.4-.6,2.4s.2,1.8.6,2.4c.4.6.9.9,1.7.9s1.3-.3,1.7-.9c.4-.6.6-1.4.6-2.4s-.2-1.8-.6-2.4c-.4-.6-.9-.9-1.7-.9h0ZM279.7,142.4c-.2.4-.5.6-.9.6s-.7-.2-.9-.6c-.2-.4-.3-1-.3-1.8s0-1.4.3-1.9c.2-.4.5-.6.9-.6s.7.2.9.6c.2.4.3,1,.3,1.8s0,1.4-.3,1.8h0Z"/>
      <polygon class="cls-2" points="266.9 140 264.9 140 264.9 137.5 263.9 137.5 263.9 143.7 264.9 143.7 264.9 140.9 266.9 140.9 266.9 143.7 267.9 143.7 267.9 137.5 266.9 137.5 266.9 140"/>
      <path class="cls-2" d="M260.6,142.8c-.2,0-.5.1-.7.1-.5,0-.9-.2-1.2-.6s-.5-1-.5-1.8.1-1.4.5-1.8c.3-.4.7-.6,1.2-.6s.9.1,1.2.5l.5-.6c-.2-.2-.5-.4-.8-.5-.3-.1-.6-.1-1-.1s-.9.1-1.3.4c-.4.3-.7.6-1,1.1-.2.5-.4,1.1-.4,1.8s.1,1.3.3,1.8.5.9.9,1.1.9.4,1.4.4c.8,0,1.4-.2,1.9-.7l-.5-.6c-.2.2-.4.3-.6.4h0Z"/>
      <path class="cls-2" d="M271.2,130c0-.7,0-1.5-.1-2.5l1.9,5.3h1.3v-6.3h-.9v2.9c0,.5,0,.9,0,1.3,0,.4,0,.8,0,1.2l-1.9-5.3h-1.3v6.3h.9v-2.9h0Z"/>
      <path class="cls-2" d="M266.9,130.6c0,.5,0,.9-.2,1.2s-.4.4-.8.4-.6-.1-.8-.4c-.2-.2-.2-.6-.2-1.2v-4h-1v4.2c0,.7.2,1.2.5,1.6.4.4.9.6,1.5.6s.8,0,1.1-.3c.3-.2.5-.4.7-.8.2-.3.2-.7.2-1.1v-4.2h-1v4h0Z"/>
      <path class="cls-2" d="M303.5,132.2c-.6,0-1.2-.2-1.6-.6l-.5.6c.5.6,1.3.8,2.2.8s.9,0,1.2-.2.6-.4.8-.7c.2-.3.3-.6.3-1,0-.6-.2-1-.5-1.2-.3-.3-.7-.5-1.3-.7-.4-.1-.6-.2-.8-.3s-.3-.2-.4-.3c0-.1-.1-.3-.1-.4,0-.3,0-.5.3-.6.2-.1.5-.2.8-.2.5,0,1,.2,1.4.6l.5-.6c-.5-.5-1.2-.8-2-.8s-.7,0-1,.2c-.3.1-.5.3-.7.6-.2.3-.3.6-.3.9s.2.8.5,1.1c.3.3.8.5,1.5.7.3.1.6.2.7.3s.3.2.4.3c0,.1.1.3.1.5,0,.3-.1.6-.3.8s-.5.3-.9.3h0Z"/>
      <polygon class="cls-2" points="245 138.3 246.8 138.3 246.8 143.7 247.8 143.7 247.8 138.3 249.5 138.3 249.6 137.5 245 137.5 245 138.3"/>
      <polygon class="cls-2" points="284.5 137.5 283.5 137.5 283.5 143.7 287 143.7 287.1 142.8 284.5 142.8 284.5 137.5"/>
      <path class="cls-2" d="M273.5,140.3c0,.5,0,.9,0,1.3,0,.4,0,.8,0,1.2l-1.9-5.3h-1.3v6.3h.9v-2.9c0-.7,0-1.5-.1-2.5l1.9,5.3h1.3v-6.3h-.9v2.9h0Z"/>
      <polygon class="cls-2" points="245.1 127.4 245.2 126.6 241.7 126.6 241.7 132.9 245.3 132.9 245.3 132.1 242.6 132.1 242.6 130.1 244.8 130.1 244.8 129.3 242.6 129.3 242.6 127.4 245.1 127.4"/>
      <polygon class="cls-2" points="284.8 131.9 283.4 126.6 282.3 126.6 284.2 132.9 285.3 132.9 287.2 126.6 286.2 126.6 284.8 131.9"/>
      <polygon class="cls-2" points="252.6 140.9 254.8 140.9 254.8 140.1 252.6 140.1 252.6 138.3 255.1 138.3 255.2 137.5 251.6 137.5 251.6 143.7 255.2 143.7 255.2 142.9 252.6 142.9 252.6 140.9"/>
      <path class="cls-2" d="M250.3,126.6h-1.2l-1.9,6.3h1l.4-1.5h2.1l.4,1.5h1l-1.9-6.3h0ZM248.8,130.6l.9-3.1.9,3.1h-1.7Z"/>
      <path class="cls-2" d="M237.2,126.6h-1.6v6.3h1v-2.2h.7c.7,0,1.3-.2,1.7-.5.4-.3.6-.9.6-1.6s-.2-1.1-.6-1.5-1-.5-1.8-.5h0ZM238.2,129.6c-.2.2-.5.3-.9.3h-.7v-2.4h.7c.9,0,1.3.4,1.3,1.2s-.1.8-.3,1h0Z"/>
      <polygon class="cls-2" points="326.3 98.5 326.3 90.8 321.4 90.8 321.4 98.5 313.9 98.5 313.9 103.5 321.4 103.5 321.4 111.1 326.3 111.1 326.3 103.5 333.9 103.5 333.9 98.5 326.3 98.5"/>
      <rect class="cls-2" x="297.7" y="90.8" width="4.9" height="28.1"/>
      <path class="cls-2" d="M286.5,118.8v-33.6h27.4v-5h-32.3v33.6h-8.9c-5.1,0-8.8-3.4-8.8-8v-25.6h-4.9v16.2c0,9.7-7.4,17.4-16.8,17.4s-13.5-3.9-15.6-10.4h11.7c8.9,0,13.5-6.3,13.5-12.5s-4.5-11.9-13.1-11.9-17.8,8.7-17.8,18.9v.4h-20v5h20.6c2.2,9.4,10.3,15.4,20.7,15.4s13.4-3.3,17.4-8.9c1.8,5.4,6.9,8.9,13.1,8.9h13.8,0ZM225.8,98.4v-.4c0-7.4,6-13.9,12.9-13.9s8.2,4.5,8.2,6.8c0,5.2-4.4,7.5-8.5,7.5h-12.5,0Z"/>
    </g>
  </g>
</svg>