<?xml version="1.0" encoding="UTF-8"?>
<svg id="Ebene_1" data-name="Ebene 1" xmlns="http://www.w3.org/2000/svg" version="1.1" viewBox="0 0 614.9 120.5">
  <defs>
    <style>
      .cls-1 {
        fill: #1d1d1b;
        stroke-width: 0px;
      }
    </style>
  </defs>
  <g id="wirtschaft_1" data-name="wirtschaft 1">
    <path class="cls-1" d="M121.1,68.7c0,2.3-.4,3.9-1.4,4.8-1.7,1.6-3.4,1.8-6,1.8s-5.5-1.8-5.5-4.4,1.9-4.3,5.3-4.3h7.5v2.1h0ZM130.6,82.7v-25.1c0-8.9-5.6-13.5-16.2-13.5s-10,1.2-13.8,5.3l6.1,5.9c2-2.3,3.7-3.2,7.3-3.2s7.1,1.8,7.1,6v1.9h-9c-8.9,0-13,5-13,11.1s1.1,6.4,3.1,8.6c2.3,2.3,5.4,3.4,9.7,3.4s6.8-1.1,9.4-3.7v3.3h9.3ZM82.2,63.6c0,6.2-.8,11-6.5,11s-6.4-4.8-6.4-11,.7-10.9,6.4-10.9,6.5,4.7,6.5,10.9M91.7,82.7V30.6h-9.5v17.3c-2.5-2.8-5.4-3.8-9.3-3.8s-7.2,1.3-9.3,3.4c-3.8,3.8-3.9,10.3-3.9,16s0,12.3,3.9,16.1c2.1,2.1,5.6,3.4,9.4,3.4s6.8-1.1,9.4-4v3.6h9.3,0ZM59.2,87.5h-22.7v2.2h22.7v-2.2ZM31.4,82.7v-24.7c0-8-4.4-13.9-12.7-13.9s-6.6,1.3-9.1,4v-17.5H0v52.1h9.5v-23.3c0-5,3.2-6.7,6.1-6.7s6.2,1.7,6.2,6.7v23.3h9.5,0Z"/>
    <g>
      <path class="cls-1" d="M167.4,57.1v-8c0-2-1.1-2.8-2.6-2.8s-2.6.9-2.6,2.8v8h-2.6v-18.2h2.6v6.6c.9-1,2.1-1.5,3.4-1.5,2.9,0,4.5,2,4.5,4.8v8.4h-2.6Z"/>
      <path class="cls-1" d="M182.5,55.7c-.8.9-2.1,1.5-3.9,1.5s-3-.7-3.9-1.5c-1.2-1.3-1.5-2.9-1.5-5.1s.3-3.8,1.5-5.1c.9-.9,2.1-1.5,3.9-1.5s3.1.7,3.9,1.5c1.2,1.3,1.5,2.9,1.5,5.1s-.3,3.8-1.5,5.1ZM180.6,47c-.5-.5-1.1-.7-1.9-.7s-1.4.3-1.9.7c-.8.8-.9,2.2-.9,3.6s.1,2.8.9,3.6c.5.5,1.1.8,1.9.8s1.4-.3,1.9-.8c.8-.8.9-2.2.9-3.6s-.1-2.8-.9-3.6Z"/>
      <path class="cls-1" d="M192.6,57.2c-2.9,0-5.8-1.8-5.8-6.7s2.9-6.6,5.8-6.6,3,.5,4.3,1.8l-1.8,1.7c-.8-.9-1.5-1.2-2.5-1.2s-1.8.4-2.4,1.2c-.6.7-.8,1.6-.8,3.2s.2,2.5.8,3.2c.6.7,1.4,1.2,2.4,1.2s1.7-.3,2.5-1.2l1.8,1.7c-1.2,1.3-2.5,1.8-4.3,1.8h0Z"/>
      <path class="cls-1" d="M207.6,57.1v-8c0-2-1.1-2.8-2.6-2.8s-2.6.9-2.6,2.8v8h-2.6v-18.2h2.6v6.6c.9-1,2.1-1.5,3.4-1.5,2.9,0,4.5,2,4.5,4.8v8.4h-2.6Z"/>
      <path class="cls-1" d="M218.4,57.2c-2.1,0-3.9-.4-5.5-1.9l1.7-1.7c1,1.1,2.5,1.4,3.7,1.4s2.8-.6,2.8-1.8-.5-1.4-1.7-1.5l-2.1-.2c-2.4-.2-3.8-1.3-3.8-3.6s2.2-4,4.9-4,3.6.4,4.8,1.5l-1.6,1.7c-.8-.7-2-1-3.2-1s-2.4.7-2.4,1.7.4,1.4,1.8,1.5l2,.2c2.4.2,3.9,1.4,3.9,3.7s-2.3,4.1-5.4,4.1h0Z"/>
      <path class="cls-1" d="M232.1,57.2c-2.9,0-5.8-1.8-5.8-6.7s2.9-6.6,5.8-6.6,3,.5,4.3,1.8l-1.8,1.7c-.8-.9-1.5-1.2-2.5-1.2s-1.8.4-2.4,1.2c-.6.7-.8,1.6-.8,3.2s.2,2.5.8,3.2c.6.7,1.4,1.2,2.4,1.2s1.7-.3,2.5-1.2l1.8,1.7c-1.2,1.3-2.5,1.8-4.3,1.8h0Z"/>
      <path class="cls-1" d="M247.1,57.1v-8c0-2-1.1-2.8-2.6-2.8s-2.6.9-2.6,2.8v8h-2.6v-18.2h2.6v6.6c.9-1,2.1-1.5,3.4-1.5,2.9,0,4.5,2,4.5,4.8v8.4h-2.6Z"/>
      <path class="cls-1" d="M261.3,57.1v-1.3c-.9,1-2.1,1.5-3.5,1.5s-2.4-.4-3.2-1.2c-1-1-1.3-2.2-1.3-3.7v-8.3h2.6v7.9c0,2,1.1,2.9,2.6,2.9s2.7-.9,2.7-2.9v-7.9h2.6v13h-2.6,0Z"/>
      <path class="cls-1" d="M271.3,57.1c-2.5,0-3.6-1.7-3.6-3.6v-14.6h2.6v14.5c0,1,.4,1.5,1.4,1.5h1.1v2.2h-1.6Z"/>
      <path class="cls-1" d="M277.5,51.3c0,2.2,1.2,3.6,3.3,3.6s2.2-.4,3.1-1.3l1.7,1.6c-1.3,1.3-2.6,2-4.9,2-3.2,0-5.8-1.7-5.8-6.7s2.2-6.6,5.5-6.6,5.5,2.6,5.5,6.2v1.2h-8.4ZM282.9,47.8c-.4-1-1.3-1.6-2.6-1.6s-2.2.7-2.6,1.6c-.3.6-.3,1-.3,1.8h5.8c0-.8-.1-1.2-.4-1.8h0Z"/>
      <path class="cls-1" d="M302.9,57.1v-1.4c-1,1.2-2,1.5-3.4,1.5s-2.5-.4-3.2-1.2c-1.3-1.3-1.5-3.5-1.5-5.5s.1-4.2,1.5-5.5c.7-.7,1.8-1.2,3.1-1.2s2.5.3,3.4,1.5v-6.6h2.6v18.2h-2.6ZM300.2,46.3c-2.4,0-2.7,2-2.7,4.3s.4,4.3,2.7,4.3,2.7-2,2.7-4.3-.3-4.3-2.7-4.3Z"/>
      <path class="cls-1" d="M316.5,57.1v-1.2c-1,1-1.8,1.3-3.5,1.3s-2.7-.4-3.5-1.2c-.7-.7-1-1.7-1-2.8,0-2.2,1.5-3.7,4.5-3.7h3.4v-.9c0-1.6-.8-2.4-2.8-2.4s-2.1.3-2.8,1.3l-1.7-1.6c1.2-1.4,2.5-1.9,4.7-1.9,3.6,0,5.4,1.5,5.4,4.5v8.7h-2.6ZM316.4,51.3h-3c-1.5,0-2.3.7-2.3,1.9s.7,1.8,2.4,1.8,1.7,0,2.4-.7c.4-.4.6-1,.6-1.9v-1h0Z"/>
      <path class="cls-1" d="M330,47.1c-.6-.6-1-.9-2-.9-1.4,0-2.6,1.1-2.6,2.9v7.9h-2.6v-13h2.6v1.4c.7-.9,2-1.6,3.5-1.6s2.2.3,3.1,1.2c0,0-2,2-2,2Z"/>
      <path class="cls-1" d="M350.2,57.1v-7.9c0-2-1.1-2.9-2.6-2.9s-2.7.9-2.7,2.8v8h-2.6v-7.9c0-2-1.1-2.9-2.6-2.9s-2.7.9-2.7,2.9v7.9h-2.6v-13h2.6v1.3c.9-1,2.1-1.5,3.5-1.5s2.9.6,3.7,1.9c1-1.3,2.4-1.9,4.1-1.9s2.5.4,3.3,1.2c1,1,1.4,2.2,1.4,3.7v8.3h-2.6Z"/>
      <path class="cls-1" d="M361,57.2c-2.1,0-3.9-.4-5.5-1.9l1.7-1.7c1,1.1,2.5,1.4,3.7,1.4s2.8-.6,2.8-1.8-.5-1.4-1.7-1.5l-2.1-.2c-2.4-.2-3.8-1.3-3.8-3.6s2.2-4,4.9-4,3.6.4,4.8,1.5l-1.6,1.7c-.8-.7-2-1-3.2-1s-2.4.7-2.4,1.7.4,1.4,1.8,1.5l2,.2c2.4.2,3.9,1.4,3.9,3.7s-2.3,4.1-5.4,4.1Z"/>
      <path class="cls-1" d="M373.5,57.1c-2.4,0-3.6-1.7-3.6-3.6v-7.2h-1.5v-2h1.5v-4h2.6v4h2.5v2h-2.5v7c0,1,.5,1.5,1.4,1.5h1.1v2.2h-1.6,0Z"/>
      <path class="cls-1" d="M385.5,57.1v-1.2c-1,1-1.8,1.3-3.5,1.3s-2.7-.4-3.5-1.2c-.7-.7-1-1.7-1-2.8,0-2.2,1.5-3.7,4.5-3.7h3.4v-.9c0-1.6-.8-2.4-2.8-2.4s-2.1.3-2.8,1.3l-1.7-1.6c1.2-1.4,2.5-1.9,4.7-1.9,3.6,0,5.4,1.5,5.4,4.5v8.7h-2.6ZM385.4,51.3h-3c-1.5,0-2.3.7-2.3,1.9s.7,1.8,2.4,1.8,1.7,0,2.4-.7c.4-.4.6-1,.6-1.9v-1h0Z"/>
      <path class="cls-1" d="M399.4,57.1v-1.4c-1,1.2-2,1.5-3.4,1.5s-2.5-.4-3.2-1.2c-1.3-1.3-1.5-3.5-1.5-5.5s.1-4.2,1.5-5.5c.7-.7,1.8-1.2,3.1-1.2s2.5.3,3.4,1.5v-6.6h2.6v18.2h-2.6ZM396.6,46.3c-2.4,0-2.7,2-2.7,4.3s.4,4.3,2.7,4.3,2.7-2,2.7-4.3-.3-4.3-2.7-4.3Z"/>
      <path class="cls-1" d="M409.8,57.1c-2.4,0-3.6-1.7-3.6-3.6v-7.2h-1.5v-2h1.5v-4h2.6v4h2.5v2h-2.5v7c0,1,.5,1.5,1.4,1.5h1.1v2.2h-1.6,0Z"/>
      <path class="cls-1" d="M161.7,82.7h-1.3v-11.4h-1.7v-1h1.7v-2.7c0-1.9,1-3.2,3-3.2h1.1v1.2h-.9c-1.3,0-1.9.7-1.9,2.1v2.7h2.8v1h-2.8v11.4h0Z"/>
      <path class="cls-1" d="M175.1,81.5c-1.1,1.1-2,1.4-3.8,1.4s-2.8-.3-3.6-1.1c-.6-.6-.9-1.5-.9-2.4,0-2.2,1.6-3.6,4.3-3.6h4v-1.4c0-2-.9-3-3.5-3s-2.6.4-3.4,1.6l-.9-.8c1.1-1.5,2.3-1.9,4.4-1.9,3.3,0,4.8,1.5,4.8,4.1v8.4h-1.3v-1.2h0ZM171.3,76.8c-2.1,0-3.1.8-3.1,2.5s1,2.4,3.2,2.4,2.2,0,3.1-.9c.5-.4.7-1.2.7-2.4v-1.6h-3.8Z"/>
      <path class="cls-1" d="M185.7,82.8c-3.4,0-5.4-2.4-5.4-6.3s2.1-6.3,5.4-6.3,2.8.4,4.1,1.9l-.9.8c-1.1-1.2-1.9-1.6-3.2-1.6s-2.5.5-3.3,1.6c-.6.9-.9,1.9-.9,3.5s.2,2.6.9,3.5c.7,1.1,1.9,1.6,3.3,1.6s2.1-.4,3.2-1.6l.9.8c-1.3,1.5-2.4,1.9-4.1,1.9h0Z"/>
      <path class="cls-1" d="M201.6,75c0-2.4-1.2-3.7-3.4-3.7s-3.5,1.3-3.5,3.7v7.7h-1.3v-18.2h1.3v7.3c.9-1.1,2.1-1.6,3.6-1.6,2.8,0,4.6,1.7,4.6,4.6v7.9h-1.3s0-7.7,0-7.7Z"/>
      <path class="cls-1" d="M215.3,81.8c-.6.6-1.7,1.1-3,1.1s-2.6-.3-3.7-1.7v1.6h-1.3v-18.2h1.3v7.5c1.1-1.4,2.2-1.7,3.7-1.7s2.4.4,3,1.1c1.2,1.3,1.6,3.3,1.6,5.2s-.3,4-1.6,5.2h0ZM212.1,71.3c-3,0-3.5,2.6-3.5,5.2s.5,5.2,3.5,5.2,3.5-2.6,3.5-5.2-.5-5.2-3.5-5.2Z"/>
      <path class="cls-1" d="M225.6,81.7c1.5,0,2.4-.4,3.4-1.5l1,.8c-1.2,1.3-2.4,1.9-4.5,1.9-3.4,0-5.2-2.2-5.2-6.3s1.8-6.3,4.9-6.3,5,2.2,5,6v.6h-8.6c0,3.2,1.4,4.9,4,4.9h0ZM228.5,73.4c-.5-1.3-1.8-2.1-3.2-2.1s-2.7.8-3.2,2.1c-.3.8-.4,1.1-.4,2.3h7.3c0-1.2-.1-1.6-.4-2.3h0Z"/>
      <path class="cls-1" d="M238.7,71.3c-2.1,0-3.3,1.8-3.3,3.7v7.6h-1.3v-12.3h1.3v1.6c.7-1.2,2.1-1.8,3.6-1.8s2.1.3,3,1.2l-1,.9c-.7-.7-1.3-1-2.3-1h0Z"/>
      <path class="cls-1" d="M249.2,81.7c1.5,0,2.4-.4,3.4-1.5l1,.8c-1.2,1.3-2.4,1.9-4.5,1.9-3.4,0-5.2-2.2-5.2-6.3s1.8-6.3,4.9-6.3,5,2.2,5,6v.6h-8.6c0,3.2,1.4,4.9,4,4.9h0ZM252,73.4c-.5-1.3-1.8-2.1-3.2-2.1s-2.7.8-3.2,2.1c-.3.8-.4,1.1-.4,2.3h7.3c0-1.2-.1-1.6-.4-2.3h0Z"/>
      <path class="cls-1" d="M257.4,64.5h1.6v1.6h-1.6v-1.6ZM257.6,70.3h1.3v12.3h-1.3v-12.3Z"/>
      <path class="cls-1" d="M268.2,82.8c-3.4,0-5.4-2.4-5.4-6.3s2-6.3,5.4-6.3,2.8.4,4.1,1.9l-.9.8c-1-1.2-1.9-1.6-3.2-1.6s-2.5.5-3.3,1.6c-.6.9-.9,1.9-.9,3.5s.2,2.6.9,3.5c.7,1.1,1.9,1.6,3.3,1.6s2.1-.4,3.2-1.6l.9.8c-1.3,1.5-2.4,1.9-4.1,1.9h0Z"/>
      <path class="cls-1" d="M284,75c0-2.4-1.2-3.7-3.4-3.7s-3.5,1.3-3.5,3.7v7.7h-1.3v-18.2h1.3v7.3c.9-1.1,2.1-1.6,3.6-1.6,2.8,0,4.6,1.7,4.6,4.6v7.9h-1.3s0-7.7,0-7.7Z"/>
      <path class="cls-1" d="M306.8,82.7l-3.5-10.3-3.5,10.3h-1.3l-4-12.3h1.4l3.1,10.8,3.5-10.8h1.3l3.5,10.8,3.1-10.8h1.4l-4,12.3h-1.3Z"/>
      <path class="cls-1" d="M315,64.5h1.6v1.6h-1.6v-1.6ZM315.2,70.3h1.3v12.3h-1.3v-12.3Z"/>
      <path class="cls-1" d="M325.6,71.3c-2.1,0-3.3,1.8-3.3,3.7v7.6h-1.3v-12.3h1.3v1.6c.7-1.2,2.1-1.8,3.6-1.8s2.1.3,3,1.2l-1,.9c-.7-.7-1.3-1-2.3-1h0Z"/>
      <path class="cls-1" d="M332.8,79.5v-8.2h-1.7v-1h1.7v-3.9h1.3v3.9h2.8v1h-2.8v8.2c0,1.3.6,2.1,1.9,2.1h.9v1.2h-1.1c-2,0-3-1.4-3-3.2h0Z"/>
      <path class="cls-1" d="M344.8,82.8c-2.1,0-3.7-.6-5-1.8l.9-.9c1,1,2.3,1.5,4,1.5s3.7-.8,3.7-2.5-.7-1.9-2.4-2.1l-2-.2c-2.5-.2-3.7-1.3-3.7-3.2s1.7-3.5,4.4-3.5,3.2.5,4.3,1.3l-.9.9c-1-.7-2.1-1.1-3.5-1.1-2,0-3.1.8-3.1,2.4s.8,1.9,2.5,2.1l2,.2c2,.2,3.6.8,3.6,3.2s-1.9,3.7-5,3.7h0Z"/>
      <path class="cls-1" d="M358.4,82.8c-3.4,0-5.4-2.4-5.4-6.3s2-6.3,5.4-6.3,2.8.4,4.1,1.9l-.9.8c-1-1.2-1.9-1.6-3.2-1.6s-2.5.5-3.3,1.6c-.6.9-.9,1.9-.9,3.5s.2,2.6.9,3.5c.7,1.1,1.9,1.6,3.3,1.6s2.1-.4,3.2-1.6l.9.8c-1.3,1.5-2.4,1.9-4.1,1.9h0Z"/>
      <path class="cls-1" d="M374.2,75c0-2.4-1.2-3.7-3.4-3.7s-3.5,1.3-3.5,3.7v7.7h-1.3v-18.2h1.3v7.3c.9-1.1,2.1-1.6,3.6-1.6,2.8,0,4.6,1.7,4.6,4.6v7.9h-1.3s0-7.7,0-7.7Z"/>
      <path class="cls-1" d="M387.3,81.5c-1,1.1-2,1.4-3.8,1.4s-2.8-.3-3.6-1.1c-.6-.6-.9-1.5-.9-2.4,0-2.2,1.6-3.6,4.3-3.6h4v-1.4c0-2-1-3-3.5-3s-2.6.4-3.4,1.6l-1-.8c1-1.5,2.3-1.9,4.4-1.9,3.3,0,4.8,1.5,4.8,4.1v8.4h-1.3v-1.2h0ZM383.5,76.8c-2.1,0-3.1.8-3.1,2.5s1,2.4,3.2,2.4,2.2,0,3.1-.9c.5-.4.7-1.2.7-2.4v-1.6h-3.8Z"/>
      <path class="cls-1" d="M394.7,82.7h-1.3v-11.4h-1.7v-1h1.7v-2.7c0-1.9,1-3.2,3-3.2h1.1v1.2h-.9c-1.3,0-1.9.7-1.9,2.1v2.7h2.8v1h-2.8v11.4h0Z"/>
      <path class="cls-1" d="M401.7,79.5v-8.2h-1.7v-1h1.7v-3.9h1.3v3.9h2.8v1h-2.8v8.2c0,1.3.6,2.1,1.9,2.1h.9v1.2h-1.1c-2,0-3-1.4-3-3.2h0Z"/>
    </g>
  </g>
  <g id="eut_V1" data-name="eut V1">
    <g>
      <polygon class="cls-1" points="430.2 120.2 431 120.5 463.3 .2 462.4 0 430.2 120.2"/>
      <path class="cls-1" d="M521,23.5c0-1,.5-1.5,1.4-1.5s1.4.5,1.4,1.5v3.4h.8v-3.5c0-.9.6-1.4,1.4-1.4s1.4.5,1.4,1.5v3.4h.8v-3.5c0-.6-.2-1.2-.6-1.5-.3-.3-.8-.5-1.4-.5s-1.4.3-1.8.9c-.3-.6-.9-.9-1.7-.9s-1.2.2-1.6.7v-.6h-.8v5.5h.8v-3.4h0Z"/>
      <path class="cls-1" d="M532.7,27c1,0,1.5-.3,2-.9l-.5-.5c-.4.4-.8.6-1.5.6-1.1,0-1.6-.7-1.6-1.9h3.7v-.4c0-1.6-.8-2.7-2.3-2.7s-2.3,1-2.3,2.8,1,2.8,2.4,2.8h0ZM531.3,22.8c.2-.5.7-.8,1.3-.8s1.1.3,1.3.8c.1.3.2.5.2.9h-2.9c0-.5,0-.6.2-.9h0Z"/>
      <path class="cls-1" d="M537.8,23.5c0-1,.5-1.5,1.4-1.5s1.4.5,1.4,1.5v3.4h.8v-3.5c0-.9.6-1.4,1.4-1.4s1.4.5,1.4,1.5v3.4h.8v-3.5c0-.6-.2-1.2-.6-1.5-.3-.3-.8-.5-1.4-.5s-1.4.3-1.8.9c-.3-.6-.9-.9-1.7-.9s-1.2.2-1.6.7v-.6h-.8v5.5h.8v-3.4h0Z"/>
      <path class="cls-1" d="M548.2,26.2c.5.6,1,.7,1.6.7s1.1-.2,1.3-.5c.6-.6.7-1.5.7-2.4s-.1-1.8-.7-2.4c-.3-.3-.8-.5-1.3-.5s-1.1.1-1.6.7v-3.1h-.8v8h.8v-.7h0ZM549.6,22c1.2,0,1.4,1,1.4,2.1s-.2,2.1-1.4,2.1-1.4-1-1.4-2.1.2-2.1,1.4-2.1Z"/>
      <path class="cls-1" d="M556.2,27c.9,0,1.5-.3,2-.9l-.5-.5c-.4.4-.8.6-1.5.6-1.1,0-1.6-.7-1.6-1.9h3.7v-.4c0-1.6-.8-2.7-2.3-2.7s-2.3,1-2.3,2.8,1,2.8,2.4,2.8h0ZM554.7,22.8c.2-.5.7-.8,1.3-.8s1.1.3,1.3.8c.1.3.2.5.2.9h-2.9c0-.5,0-.6.2-.9h0Z"/>
      <path class="cls-1" d="M561.3,23.5c0-.8.5-1.5,1.3-1.5s.7.1,1,.4l.6-.6c-.4-.4-.8-.5-1.3-.5s-1.2.3-1.5.7v-.7h-.8v5.5h.8v-3.4h0Z"/>
      <path class="cls-1" d="M570,27c.7,0,1.2-.2,1.6-.6.6-.6.7-1.4.7-2.2s-.1-1.6-.7-2.2c-.4-.4-.9-.6-1.6-.6s-1.2.2-1.6.6c-.6.6-.7,1.4-.7,2.2s.1,1.6.7,2.2c.4.4.9.6,1.6.6ZM569,22.4c.3-.3.6-.4,1-.4s.8.1,1,.4c.4.4.4,1.1.4,1.7s0,1.3-.4,1.7c-.3.3-.6.4-1,.4s-.7-.1-1-.4c-.4-.4-.5-1.1-.5-1.7s0-1.3.5-1.7Z"/>
      <path class="cls-1" d="M574.5,26.9h.8v-4.9h1.2v-.6h-1.2v-1c0-.5.2-.8.7-.8h.4v-.7h-.6c-1,0-1.4.7-1.4,1.5v1h-.7v.6h.7v4.9Z"/>
      <path class="cls-1" d="M507.2,93.3c.2-.3.4-.7.4-1.1,0-1.2-.8-1.8-2.3-1.8h-1.7v6.3h1v-2.6h.6l1.5,2.6h1.2l-1.7-2.7c.4-.1.7-.3,1-.6h0ZM504.6,93.3v-2.1h.7c.4,0,.7,0,.9.2.2.2.3.4.3.8s0,.7-.3.8c-.2.2-.5.3-.9.3h-.7,0Z"/>
      <path class="cls-1" d="M580,93.3c.2-.3.4-.7.4-1.1,0-1.2-.8-1.8-2.3-1.8h-1.6v6.3h1v-2.6h.6l1.5,2.6h1.2l-1.7-2.7c.4-.1.7-.3,1-.6h0ZM577.4,93.3v-2.1h.7c.4,0,.7,0,.9.2.2.2.3.4.3.8s0,.7-.3.8c-.2.2-.5.3-.9.3h-.7Z"/>
      <path class="cls-1" d="M571.9,101.1c-.7,0-1.3.3-1.7.9-.4.6-.6,1.4-.6,2.4s.2,1.8.6,2.4c.4.6.9.9,1.7.9s1.3-.3,1.7-.9c.4-.6.6-1.4.6-2.4s-.2-1.8-.6-2.4c-.4-.6-.9-.9-1.7-.9h0ZM572.8,106.2c-.2.4-.5.6-.9.6s-.7-.2-.9-.6-.3-1-.3-1.8,0-1.4.3-1.8.5-.6.9-.6.7.2.9.6c.2.4.3,1,.3,1.8s0,1.4-.3,1.8Z"/>
      <path class="cls-1" d="M512,101.1c-.7,0-1.3.3-1.7.9-.4.6-.6,1.4-.6,2.4s.2,1.8.6,2.4c.4.6.9.9,1.7.9s1.3-.3,1.7-.9c.4-.6.6-1.4.6-2.4s-.2-1.8-.6-2.4c-.4-.6-.9-.9-1.7-.9ZM513,106.2c-.2.4-.5.6-.9.6s-.7-.2-.9-.6-.3-1-.3-1.8,0-1.4.3-1.8c.2-.4.5-.6.9-.6s.7.2.9.6.3,1,.3,1.8,0,1.4-.3,1.8h0Z"/>
      <path class="cls-1" d="M511.9,96.8c.7,0,1.3-.3,1.7-.9.4-.6.6-1.4.6-2.4s-.2-1.8-.6-2.4-.9-.9-1.7-.9-1.3.3-1.7.9-.6,1.4-.6,2.4.2,1.8.6,2.4c.4.6.9.9,1.7.9ZM511,91.7c.2-.4.5-.6.9-.6s.7.2.9.6c.2.4.3,1,.3,1.8s0,1.4-.3,1.8c-.2.4-.5.6-.9.6s-.7-.2-.9-.6-.3-1-.3-1.8,0-1.4.3-1.8h0Z"/>
      <path class="cls-1" d="M578.4,104.8h1v1.7c-.3.2-.6.3-1,.3s-.8-.2-1.1-.6c-.2-.4-.3-1-.3-1.9s.2-1.4.4-1.8.7-.6,1.1-.6.4,0,.6.1c.2,0,.4.2.5.4l.6-.6c-.2-.2-.5-.4-.8-.6-.3-.1-.6-.2-1-.2s-.9.1-1.3.4c-.4.2-.7.6-.9,1.1s-.3,1.1-.3,1.8c0,1.1.2,1.9.6,2.4.4.6,1,.8,1.8.8s.7,0,1.1-.2.6-.2.9-.4v-3.1h-2.1v.8c0,0,.1,0,.1,0Z"/>
      <path class="cls-1" d="M500.1,94.4c0,.5,0,.9-.2,1.2s-.4.4-.8.4-.6-.1-.8-.4c-.2-.2-.2-.6-.2-1.2v-4h-1v4.2c0,.7.2,1.2.5,1.6.3.4.9.6,1.5.6s.8,0,1.1-.3c.3-.2.5-.4.7-.8.2-.3.2-.7.2-1.1v-4.2h-1v4h0Z"/>
      <polygon class="cls-1" points="594.6 91.2 596.3 91.2 596.3 96.7 597.3 96.7 597.3 91.2 599 91.2 599.1 90.4 594.6 90.4 594.6 91.2"/>
      <polygon class="cls-1" points="603.3 93.3 601.9 90.4 600.8 90.4 602.8 94.3 602.8 96.7 603.8 96.7 603.8 94.3 605.8 90.4 604.7 90.4 603.3 93.3"/>
      <polygon class="cls-1" points="492 93.8 494.1 93.8 494.1 93.1 492 93.1 492 91.2 494.5 91.2 494.6 90.4 491 90.4 491 96.7 494.6 96.7 494.6 95.8 492 95.8 492 93.8"/>
      <polygon class="cls-1" points="584.5 104.2 583.1 101.2 582 101.2 584 105.1 584 107.5 585 107.5 585 105.1 587 101.2 585.9 101.2 584.5 104.2"/>
      <polygon class="cls-1" points="589 91.2 590.3 91.2 590.3 95.8 589 95.8 589 96.7 592.6 96.7 592.6 95.8 591.3 95.8 591.3 91.2 592.6 91.2 592.6 90.4 589 90.4 589 91.2"/>
      <path class="cls-1" d="M539.1,90.4h-.9v2.9c0,.5,0,.9,0,1.3,0,.4,0,.8,0,1.2l-1.9-5.3h-1.3v6.3h.9v-2.8c0-.7,0-1.5-.1-2.5l1.9,5.3h1.3v-6.3h0Z"/>
      <polygon class="cls-1" points="516.6 107.5 517.6 107.5 517.6 104.8 519.8 104.8 519.8 104 517.6 104 517.6 102 520.1 102 520.3 101.2 516.6 101.2 516.6 107.5"/>
      <polygon class="cls-1" points="573.7 91.2 573.8 90.4 570.2 90.4 570.2 96.7 573.8 96.7 573.8 95.8 571.2 95.8 571.2 93.8 573.4 93.8 573.4 93.1 571.2 93.1 571.2 91.2 573.7 91.2"/>
      <polygon class="cls-1" points="561.1 91.2 561.1 90.4 557.6 90.4 557.6 91.2 558.8 91.2 558.8 95.8 557.6 95.8 557.6 96.7 561.1 96.7 561.1 95.8 559.8 95.8 559.8 91.2 561.1 91.2"/>
      <path class="cls-1" d="M559.8,101.1c-.7,0-1.3.3-1.7.9-.4.6-.6,1.4-.6,2.4s.2,1.8.6,2.4c.4.6.9.9,1.7.9s1.3-.3,1.7-.9c.4-.6.6-1.4.6-2.4s-.2-1.8-.6-2.4c-.4-.6-.9-.9-1.7-.9h0ZM560.7,106.2c-.2.4-.5.6-.9.6s-.7-.2-.9-.6-.3-1-.3-1.8,0-1.4.3-1.8.5-.6.9-.6.7.2.9.6.3,1,.3,1.8,0,1.4-.3,1.8Z"/>
      <polygon class="cls-1" points="547.9 103.8 546 103.8 546 101.2 545 101.2 545 107.5 546 107.5 546 104.6 547.9 104.6 547.9 107.5 548.9 107.5 548.9 101.2 547.9 101.2 547.9 103.8"/>
      <path class="cls-1" d="M541.6,106.6c-.2,0-.5.1-.7.1-.5,0-.9-.2-1.2-.6s-.5-1-.5-1.8.2-1.4.5-1.8.7-.6,1.2-.6.9.2,1.2.5l.5-.7c-.2-.2-.5-.4-.8-.5-.3,0-.6-.2-1-.2s-.9.1-1.3.4c-.4.3-.7.6-1,1.1-.2.5-.3,1.1-.3,1.8s.1,1.3.3,1.8c.2.5.5.9.9,1.1s.8.4,1.4.4c.8,0,1.4-.2,1.8-.7l-.5-.7c-.2.2-.4.3-.6.4h0Z"/>
      <path class="cls-1" d="M552.2,93.8c0-.7,0-1.5-.1-2.5l1.9,5.3h1.3v-6.3h-.9v2.9c0,.5,0,.9,0,1.3,0,.4,0,.8,0,1.2l-1.9-5.3h-1.3v6.3h.9v-2.8h0Z"/>
      <path class="cls-1" d="M547.9,94.4c0,.5,0,.9-.2,1.2s-.4.4-.8.4-.6-.1-.8-.4c-.2-.2-.2-.6-.2-1.2v-4h-1v4.2c0,.7.2,1.2.5,1.6.4.4.9.6,1.5.6s.8,0,1.1-.3c.3-.2.5-.4.7-.8.2-.3.2-.7.2-1.1v-4.2h-1v4h0Z"/>
      <path class="cls-1" d="M584.6,95.9c-.6,0-1.2-.2-1.6-.7l-.5.6c.5.6,1.3.8,2.2.8s.9,0,1.2-.2c.3-.2.6-.4.8-.7.2-.3.3-.6.3-1,0-.6-.2-1-.5-1.2-.3-.3-.7-.5-1.3-.7-.4-.1-.6-.2-.8-.3s-.3-.2-.4-.3c0-.1-.1-.3-.1-.4,0-.3,0-.5.3-.6.2-.1.5-.2.8-.2.5,0,1,.2,1.4.6l.5-.6c-.5-.5-1.2-.8-2-.8s-.7,0-1,.2c-.3.1-.5.3-.7.6-.2.3-.3.6-.3.9s.2.8.5,1.1c.3.3.8.5,1.5.7.3,0,.6.2.7.3.2,0,.3.2.4.3,0,.1.1.3.1.5,0,.3-.1.6-.3.8s-.5.3-.9.3h0Z"/>
      <polygon class="cls-1" points="526 102.1 527.8 102.1 527.8 107.5 528.8 107.5 528.8 102.1 530.5 102.1 530.6 101.2 526 101.2 526 102.1"/>
      <polygon class="cls-1" points="565.5 101.2 564.5 101.2 564.5 107.5 568 107.5 568.1 106.6 565.5 106.6 565.5 101.2"/>
      <path class="cls-1" d="M554.5,104.1c0,.5,0,.9,0,1.3,0,.4,0,.8,0,1.2l-1.9-5.3h-1.3v6.3h.9v-2.8c0-.7,0-1.5-.1-2.5l1.9,5.3h1.3v-6.3h-.9v2.8h0Z"/>
      <polygon class="cls-1" points="526.1 91.2 526.2 90.4 522.7 90.4 522.7 96.7 526.3 96.7 526.3 95.8 523.7 95.8 523.7 93.8 525.8 93.8 525.8 93.1 523.7 93.1 523.7 91.2 526.1 91.2"/>
      <polygon class="cls-1" points="565.8 95.7 564.4 90.4 563.3 90.4 565.2 96.7 566.3 96.7 568.2 90.4 567.2 90.4 565.8 95.7"/>
      <polygon class="cls-1" points="533.6 104.7 535.8 104.7 535.8 103.9 533.6 103.9 533.6 102 536.1 102 536.2 101.2 532.7 101.2 532.7 107.5 536.3 107.5 536.3 106.7 533.6 106.7 533.6 104.7"/>
      <path class="cls-1" d="M531.3,90.4h-1.2l-1.9,6.3h1l.4-1.5h2.1l.4,1.5h1l-1.9-6.3h0ZM529.8,94.3l.8-3.1.8,3.1h-1.7,0Z"/>
      <path class="cls-1" d="M518.2,90.4h-1.6v6.3h1v-2.2h.7c.7,0,1.3-.2,1.7-.5.4-.3.6-.9.6-1.6s-.2-1.2-.6-1.5-1-.5-1.8-.5h0ZM519.2,93.3c-.2.2-.5.3-.9.3h-.7v-2.4h.7c.8,0,1.3.4,1.3,1.2s-.1.8-.3,1h0Z"/>
      <polygon class="cls-1" points="607.4 62.2 607.4 54.6 602.4 54.6 602.4 62.2 594.9 62.2 594.9 67.2 602.4 67.2 602.4 74.9 607.4 74.9 607.4 67.2 614.9 67.2 614.9 62.2 607.4 62.2"/>
      <rect class="cls-1" x="578.7" y="54.6" width="4.9" height="28"/>
      <path class="cls-1" d="M567.5,82.6v-33.6h27.4v-5h-32.3v33.6h-8.9c-5.1,0-8.8-3.4-8.8-8v-25.6h-4.9v16.2c0,9.7-7.4,17.3-16.8,17.3s-13.5-3.9-15.6-10.4h11.7c8.8,0,13.5-6.3,13.5-12.5s-4.5-11.9-13.1-11.9-17.8,8.7-17.8,18.9v.4h-20v5h20.6c2.2,9.4,10.3,15.4,20.7,15.4s13.4-3.3,17.4-8.9c1.8,5.4,6.9,8.9,13.1,8.9h13.8,0ZM506.8,62.2v-.4c0-7.4,6-13.9,12.9-13.9s8.2,4.5,8.2,6.8c0,5.2-4.4,7.5-8.5,7.5h-12.5Z"/>
    </g>
  </g>
</svg>