<?xml version="1.0" encoding="UTF-8"?>
<svg id="Ebene_1" data-name="Ebene 1" xmlns="http://www.w3.org/2000/svg" version="1.1" viewBox="0 0 541.9 120.5">
  <defs>
    <style>
      .cls-1 {
        fill: #1d1d1b;
        stroke-width: 0px;
      }
    </style>
  </defs>
  <g id="darmstadt_business_school_1" data-name="darmstadt business school 1">
    <path class="cls-1" d="M121.1,68.7c0,2.3-.4,3.9-1.4,4.8-1.7,1.6-3.4,1.8-6,1.8s-5.5-1.8-5.5-4.4,1.9-4.3,5.3-4.3h7.5v2.1h0ZM130.6,82.7v-25.1c0-8.9-5.6-13.5-16.2-13.5s-10,1.2-13.8,5.3l6.1,5.9c2-2.3,3.7-3.2,7.3-3.2s7.1,1.8,7.1,6v1.9h-9c-8.9,0-13,5-13,11.1s1.1,6.4,3.1,8.6c2.3,2.3,5.4,3.4,9.7,3.4s6.8-1.1,9.4-3.7v3.3h9.3ZM82.2,63.6c0,6.2-.8,11-6.5,11s-6.4-4.8-6.4-11,.7-10.9,6.4-10.9,6.5,4.7,6.5,10.9M91.7,82.7V30.6h-9.5v17.3c-2.5-2.8-5.4-3.8-9.3-3.8s-7.2,1.3-9.3,3.4c-3.8,3.8-3.9,10.3-3.9,16s0,12.3,3.9,16.1c2.1,2.1,5.6,3.4,9.4,3.4s6.8-1.1,9.4-4v3.6h9.3,0ZM59.2,87.5h-22.7v2.2h22.7v-2.2ZM31.4,82.7v-24.7c0-8.1-4.4-13.9-12.7-13.9s-6.6,1.3-9.1,3.9v-17.5H0v52.1h9.5v-23.3c0-5,3.1-6.7,6.1-6.7s6.2,1.7,6.2,6.7v23.3h9.5Z"/>
    <g>
      <path class="cls-1" d="M167,57.1v-1.4c-1,1.2-2,1.5-3.4,1.5s-2.5-.4-3.2-1.2c-1.3-1.3-1.5-3.5-1.5-5.5s.1-4.2,1.5-5.5c.7-.7,1.8-1.2,3.1-1.2s2.5.3,3.4,1.5v-6.6h2.6v18.2h-2.6ZM164.3,46.3c-2.4,0-2.7,2-2.7,4.3s.4,4.3,2.7,4.3,2.7-2,2.7-4.3-.3-4.3-2.7-4.3Z"/>
      <path class="cls-1" d="M180.6,57.1v-1.2c-1,.9-1.8,1.3-3.5,1.3s-2.7-.4-3.5-1.2c-.7-.7-1-1.7-1-2.8,0-2.2,1.5-3.7,4.5-3.7h3.4v-.9c0-1.6-.8-2.4-2.8-2.4s-2.1.3-2.8,1.3l-1.7-1.6c1.2-1.4,2.5-1.9,4.7-1.9,3.6,0,5.4,1.5,5.4,4.5v8.7h-2.6ZM180.5,51.3h-3c-1.5,0-2.3.7-2.3,1.9s.7,1.8,2.4,1.8,1.7,0,2.4-.7c.4-.4.6-1,.6-1.9v-1.1h0Z"/>
      <path class="cls-1" d="M194,47.1c-.6-.6-1-.9-2-.9-1.4,0-2.6,1.1-2.6,2.9v7.9h-2.6v-13h2.6v1.4c.7-.9,2-1.6,3.5-1.6s2.2.3,3.1,1.2c0,0-2,2-2,2Z"/>
      <path class="cls-1" d="M214.3,57.1v-7.9c0-2-1.1-2.9-2.6-2.9s-2.7.9-2.7,2.8v8h-2.6v-7.9c0-2-1.1-2.9-2.6-2.9s-2.7.9-2.7,2.9v7.9h-2.6v-13h2.6v1.3c.9-.9,2.1-1.5,3.5-1.5s2.9.6,3.7,1.9c1-1.3,2.4-1.9,4.1-1.9s2.5.4,3.3,1.2c1,1,1.4,2.2,1.4,3.7v8.3h-2.6Z"/>
      <path class="cls-1" d="M225.1,57.2c-2.1,0-3.9-.4-5.5-1.9l1.7-1.7c1,1.1,2.5,1.4,3.7,1.4s2.8-.6,2.8-1.8-.5-1.4-1.7-1.5l-2.1-.2c-2.4-.2-3.8-1.3-3.8-3.6s2.2-4,4.9-4,3.6.4,4.8,1.5l-1.6,1.7c-.8-.7-2-.9-3.2-.9s-2.4.7-2.4,1.7.4,1.4,1.8,1.5l2,.2c2.4.2,3.9,1.4,3.9,3.7s-2.3,4.1-5.4,4.1Z"/>
      <path class="cls-1" d="M237.6,57.1c-2.4,0-3.6-1.7-3.6-3.6v-7.2h-1.5v-2h1.5v-3.9h2.6v3.9h2.5v2h-2.5v7c0,.9.5,1.5,1.4,1.5h1.1v2.2h-1.6,0Z"/>
      <path class="cls-1" d="M249.5,57.1v-1.2c-1,.9-1.8,1.3-3.5,1.3s-2.7-.4-3.5-1.2c-.7-.7-1-1.7-1-2.8,0-2.2,1.5-3.7,4.5-3.7h3.4v-.9c0-1.6-.8-2.4-2.8-2.4s-2.1.3-2.8,1.3l-1.7-1.6c1.2-1.4,2.5-1.9,4.7-1.9,3.6,0,5.4,1.5,5.4,4.5v8.7h-2.6ZM249.5,51.3h-3c-1.5,0-2.3.7-2.3,1.9s.7,1.8,2.4,1.8,1.7,0,2.4-.7c.4-.4.6-1,.6-1.9v-1.1h0Z"/>
      <path class="cls-1" d="M263.4,57.1v-1.4c-1,1.2-2,1.5-3.4,1.5s-2.5-.4-3.2-1.2c-1.3-1.3-1.5-3.5-1.5-5.5s.1-4.2,1.5-5.5c.7-.7,1.8-1.2,3.1-1.2s2.5.3,3.4,1.5v-6.6h2.6v18.2h-2.6ZM260.7,46.3c-2.4,0-2.7,2-2.7,4.3s.4,4.3,2.7,4.3,2.7-2,2.7-4.3-.3-4.3-2.7-4.3Z"/>
      <path class="cls-1" d="M273.9,57.1c-2.4,0-3.6-1.7-3.6-3.6v-7.2h-1.5v-2h1.5v-3.9h2.6v3.9h2.5v2h-2.5v7c0,.9.5,1.5,1.4,1.5h1.1v2.2h-1.6,0Z"/>
      <path class="cls-1" d="M168.7,81.7c-.7.7-1.9,1.2-3.2,1.2s-2.5-.4-3.4-1.5v1.4h-2.6v-18.2h2.6v6.6c1-1.1,2-1.5,3.4-1.5s2.4.4,3.1,1.2c1.3,1.3,1.5,3.5,1.5,5.5s-.1,4.2-1.5,5.5h0ZM164.9,71.9c-2.4,0-2.7,2-2.7,4.3s.4,4.3,2.7,4.3,2.7-2,2.7-4.3-.3-4.3-2.7-4.3Z"/>
      <path class="cls-1" d="M181.4,82.7v-1.3c-.9,1-2.1,1.5-3.5,1.5s-2.4-.4-3.2-1.2c-1-1-1.3-2.2-1.3-3.7v-8.3h2.6v7.9c0,2,1.1,2.9,2.6,2.9s2.7-.9,2.7-2.9v-7.9h2.6v13h-2.6,0Z"/>
      <path class="cls-1" d="M192.2,82.8c-2.1,0-3.9-.4-5.5-1.9l1.7-1.7c1,1.1,2.5,1.4,3.7,1.4s2.8-.6,2.8-1.8-.5-1.4-1.7-1.5l-2.1-.2c-2.4-.2-3.8-1.3-3.8-3.6s2.2-4,4.9-4,3.6.4,4.8,1.5l-1.6,1.7c-.8-.7-2-.9-3.2-.9s-2.4.7-2.4,1.7.4,1.4,1.8,1.5l2,.2c2.4.2,3.9,1.4,3.9,3.7s-2.3,4.1-5.4,4.1h0Z"/>
      <path class="cls-1" d="M200.5,67.1v-2.8h2.8v2.8h-2.8ZM200.6,82.7v-13h2.6v13h-2.6Z"/>
      <path class="cls-1" d="M215,82.7v-7.9c0-2-1.1-2.9-2.6-2.9s-2.7.9-2.7,2.9v7.9h-2.6v-13h2.6v1.3c.9-1,2.1-1.5,3.5-1.5s2.4.4,3.2,1.2c1,1,1.3,2.2,1.3,3.7v8.3h-2.6Z"/>
      <path class="cls-1" d="M223.3,77c0,2.2,1.2,3.6,3.3,3.6s2.2-.4,3.1-1.3l1.7,1.6c-1.3,1.3-2.6,2-4.9,2-3.2,0-5.8-1.7-5.8-6.7s2.2-6.6,5.5-6.6,5.5,2.6,5.5,6.2v1.2h-8.4ZM228.8,73.4c-.4-1-1.3-1.6-2.6-1.6s-2.2.7-2.6,1.6c-.3.6-.3,1-.3,1.8h5.8c0-.8-.1-1.2-.4-1.8h0Z"/>
      <path class="cls-1" d="M239.5,82.8c-2.1,0-3.9-.4-5.5-1.9l1.7-1.7c1,1.1,2.5,1.4,3.7,1.4s2.8-.6,2.8-1.8-.5-1.4-1.7-1.5l-2.1-.2c-2.4-.2-3.8-1.3-3.8-3.6s2.2-4,4.9-4,3.6.4,4.8,1.5l-1.6,1.7c-.8-.7-2-.9-3.2-.9s-2.4.7-2.4,1.7.4,1.4,1.8,1.5l2,.2c2.4.2,3.9,1.4,3.9,3.7s-2.3,4.1-5.4,4.1Z"/>
      <path class="cls-1" d="M252.4,82.8c-2.1,0-3.9-.4-5.5-1.9l1.7-1.7c1,1.1,2.5,1.4,3.7,1.4s2.8-.6,2.8-1.8-.5-1.4-1.7-1.5l-2.1-.2c-2.4-.2-3.8-1.3-3.8-3.6s2.2-4,4.9-4,3.6.4,4.8,1.5l-1.6,1.7c-.8-.7-2-.9-3.2-.9s-2.4.7-2.4,1.7.4,1.4,1.8,1.5l2,.2c2.4.2,3.9,1.4,3.9,3.7s-2.3,4.1-5.4,4.1Z"/>
      <path class="cls-1" d="M271.4,82.8c-2.1,0-3.9-.4-5.5-1.9l1.7-1.7c1,1.1,2.5,1.4,3.7,1.4s2.8-.6,2.8-1.8-.5-1.4-1.7-1.5l-2.1-.2c-2.4-.2-3.8-1.3-3.8-3.6s2.2-4,4.9-4,3.6.4,4.8,1.5l-1.6,1.7c-.8-.7-2-.9-3.2-.9s-2.4.7-2.4,1.7.4,1.4,1.8,1.5l2,.2c2.4.2,3.9,1.4,3.9,3.7s-2.3,4.1-5.4,4.1h0Z"/>
      <path class="cls-1" d="M285.1,82.8c-2.9,0-5.8-1.8-5.8-6.7s2.9-6.6,5.8-6.6,3,.5,4.3,1.8l-1.8,1.7c-.8-.9-1.5-1.2-2.5-1.2s-1.8.4-2.4,1.2c-.6.7-.8,1.6-.8,3.2s.2,2.5.8,3.2c.6.7,1.4,1.2,2.4,1.2s1.7-.3,2.5-1.2l1.8,1.7c-1.2,1.3-2.5,1.8-4.3,1.8h0Z"/>
      <path class="cls-1" d="M300.1,82.7v-8c0-2-1.1-2.8-2.6-2.8s-2.6.9-2.6,2.8v8h-2.6v-18.2h2.6v6.6c.9-1,2.1-1.5,3.4-1.5,2.9,0,4.5,1.9,4.5,4.8v8.4h-2.6Z"/>
      <path class="cls-1" d="M315.2,81.3c-.8.9-2.1,1.5-3.9,1.5s-3-.7-3.9-1.5c-1.2-1.3-1.5-2.9-1.5-5.1s.3-3.8,1.5-5.1c.9-.9,2.1-1.5,3.9-1.5s3,.7,3.9,1.5c1.2,1.3,1.5,2.9,1.5,5.1s-.3,3.8-1.5,5.1ZM313.2,72.6c-.5-.5-1.1-.7-1.9-.7s-1.4.3-1.9.7c-.8.8-.9,2.2-.9,3.6s.1,2.8.9,3.6c.5.5,1.1.8,1.9.8s1.4-.3,1.9-.8c.8-.8.9-2.2.9-3.6s-.1-2.8-.9-3.6Z"/>
      <path class="cls-1" d="M328.8,81.3c-.8.9-2.1,1.5-3.9,1.5s-3-.7-3.9-1.5c-1.2-1.3-1.5-2.9-1.5-5.1s.3-3.8,1.5-5.1c.9-.9,2.1-1.5,3.9-1.5s3,.7,3.9,1.5c1.2,1.3,1.5,2.9,1.5,5.1s-.3,3.8-1.5,5.1ZM326.8,72.6c-.5-.5-1.1-.7-1.9-.7s-1.4.3-1.9.7c-.8.8-.9,2.2-.9,3.6s.1,2.8.9,3.6c.5.5,1.1.8,1.9.8s1.4-.3,1.9-.8c.8-.8.9-2.2.9-3.6s-.1-2.8-.9-3.6Z"/>
      <path class="cls-1" d="M337.2,82.7c-2.5,0-3.6-1.7-3.6-3.6v-14.7h2.6v14.5c0,1,.4,1.5,1.4,1.5h1.1v2.2s-1.6,0-1.6,0Z"/>
    </g>
  </g>
  <g id="eut_V1" data-name="eut V1">
    <g>
      <polygon class="cls-1" points="357.2 120.2 358 120.5 390.3 .2 389.4 0 357.2 120.2"/>
      <path class="cls-1" d="M448.1,23.5c0-1,.5-1.5,1.4-1.5s1.4.5,1.4,1.5v3.4h.8v-3.5c0-.9.6-1.4,1.4-1.4s1.4.5,1.4,1.5v3.4h.8v-3.5c0-.6-.2-1.2-.6-1.5-.3-.3-.8-.5-1.4-.5s-1.4.3-1.8.9c-.3-.6-.9-.9-1.7-.9s-1.2.2-1.6.7v-.6h-.8v5.5h.8v-3.4h0Z"/>
      <path class="cls-1" d="M459.7,27c1,0,1.5-.3,2-.9l-.5-.5c-.4.4-.8.6-1.5.6-1.1,0-1.6-.7-1.6-1.9h3.7v-.4c0-1.6-.8-2.7-2.3-2.7s-2.3,1-2.3,2.8,1,2.8,2.4,2.8h0ZM458.3,22.8c.2-.5.7-.8,1.3-.8s1.1.3,1.3.8c.1.3.2.5.2.9h-2.9c0-.5,0-.6.2-.9h0Z"/>
      <path class="cls-1" d="M464.8,23.5c0-1,.5-1.5,1.4-1.5s1.4.5,1.4,1.5v3.4h.8v-3.5c0-.9.6-1.4,1.4-1.4s1.4.5,1.4,1.5v3.4h.8v-3.5c0-.6-.2-1.2-.6-1.5-.3-.3-.8-.5-1.4-.5s-1.4.3-1.8.9c-.3-.6-.9-.9-1.7-.9s-1.2.2-1.6.7v-.6h-.8v5.5h.8v-3.4h0Z"/>
      <path class="cls-1" d="M475.2,26.2c.5.6,1,.7,1.6.7s1.1-.2,1.3-.5c.6-.6.7-1.5.7-2.3s-.1-1.8-.7-2.3c-.3-.3-.8-.5-1.3-.5s-1.1.1-1.6.7v-3.1h-.8v8h.8v-.7h0ZM476.6,22c1.2,0,1.4,1,1.4,2.1s-.2,2.1-1.4,2.1-1.4-1-1.4-2.1.2-2.1,1.4-2.1Z"/>
      <path class="cls-1" d="M483.2,27c.9,0,1.5-.3,2-.9l-.5-.5c-.4.4-.8.6-1.5.6-1.1,0-1.6-.7-1.6-1.9h3.7v-.4c0-1.6-.8-2.7-2.3-2.7s-2.3,1-2.3,2.8,1,2.8,2.4,2.8h0ZM481.7,22.8c.2-.5.7-.8,1.3-.8s1.1.3,1.3.8c.1.3.2.5.2.9h-2.9c0-.5,0-.6.2-.9h0Z"/>
      <path class="cls-1" d="M488.3,23.5c0-.8.5-1.5,1.3-1.5s.7,0,1,.4l.6-.6c-.4-.4-.8-.5-1.3-.5s-1.2.3-1.5.7v-.7h-.8v5.5h.8v-3.4h0Z"/>
      <path class="cls-1" d="M497,27c.7,0,1.2-.2,1.6-.6.6-.6.7-1.3.7-2.2s-.1-1.6-.7-2.2c-.4-.4-.9-.6-1.6-.6s-1.2.2-1.6.6c-.6.6-.7,1.3-.7,2.2s.1,1.6.7,2.2c.4.4.9.6,1.6.6ZM496,22.4c.3-.3.6-.4,1-.4s.8.2,1,.4c.4.4.4,1.1.4,1.7s0,1.3-.4,1.7c-.3.3-.6.4-1,.4s-.7-.2-1-.4c-.4-.4-.5-1.1-.5-1.7s0-1.3.5-1.7Z"/>
      <path class="cls-1" d="M501.5,26.9h.8v-4.9h1.2v-.6h-1.2v-1c0-.5.2-.8.7-.8h.4v-.7h-.6c-1,0-1.4.7-1.4,1.5v1h-.7v.6h.7v4.9Z"/>
      <path class="cls-1" d="M434.2,93.3c.2-.3.4-.7.4-1.1,0-1.2-.8-1.8-2.3-1.8h-1.7v6.3h1v-2.6h.6l1.5,2.6h1.2l-1.7-2.7c.4-.1.7-.3,1-.6h0ZM431.6,93.3v-2.1h.7c.4,0,.7,0,.9.2.2.2.3.4.3.8s0,.7-.3.8c-.2.2-.5.3-.9.3h-.7,0Z"/>
      <path class="cls-1" d="M507,93.3c.2-.3.4-.7.4-1.1,0-1.2-.8-1.8-2.3-1.8h-1.6v6.3h1v-2.6h.6l1.5,2.6h1.2l-1.7-2.7c.4-.1.7-.3,1-.6h0ZM504.4,93.3v-2.1h.7c.4,0,.7,0,.9.2.2.2.3.4.3.8s0,.7-.3.8c-.2.2-.5.3-.9.3h-.7Z"/>
      <path class="cls-1" d="M498.9,101.1c-.7,0-1.3.3-1.7.9-.4.6-.6,1.4-.6,2.4s.2,1.8.6,2.4.9.9,1.7.9,1.3-.3,1.7-.9c.4-.6.6-1.4.6-2.4s-.2-1.8-.6-2.4c-.4-.6-.9-.9-1.7-.9h0ZM499.9,106.2c-.2.4-.5.6-.9.6s-.7-.2-.9-.6c-.2-.4-.3-1-.3-1.8s0-1.4.3-1.9c.2-.4.5-.6.9-.6s.7.2.9.6c.2.4.3,1,.3,1.8s0,1.4-.3,1.8h0Z"/>
      <path class="cls-1" d="M439,101.1c-.7,0-1.3.3-1.7.9-.4.6-.6,1.4-.6,2.4s.2,1.8.6,2.4c.4.6.9.9,1.7.9s1.3-.3,1.7-.9c.4-.6.6-1.4.6-2.4s-.2-1.8-.6-2.4c-.4-.6-.9-.9-1.7-.9ZM440,106.2c-.2.4-.5.6-.9.6s-.7-.2-.9-.6-.3-1-.3-1.8,0-1.4.3-1.8c.2-.4.5-.6.9-.6s.7.2.9.6c.2.4.3,1,.3,1.8s0,1.4-.3,1.8h0Z"/>
      <path class="cls-1" d="M438.9,96.8c.7,0,1.3-.3,1.7-.9.4-.6.6-1.4.6-2.4s-.2-1.8-.6-2.4-.9-.9-1.7-.9-1.3.3-1.7.9-.6,1.4-.6,2.4.2,1.8.6,2.4c.4.6.9.9,1.7.9ZM438,91.7c.2-.4.5-.6.9-.6s.7.2.9.6c.2.4.3,1,.3,1.8s0,1.4-.3,1.8c-.2.4-.5.6-.9.6s-.7-.2-.9-.6-.3-1-.3-1.8,0-1.4.3-1.8h0Z"/>
      <path class="cls-1" d="M505.4,104.8h1v1.7c-.3.2-.6.3-1,.3s-.8-.2-1.1-.6c-.2-.4-.3-1-.3-1.9s.2-1.4.4-1.8.7-.6,1.1-.6.4,0,.6.1c.2,0,.4.2.5.4l.6-.6c-.2-.2-.5-.4-.8-.6-.3-.1-.6-.2-1-.2s-.9.1-1.3.4c-.4.2-.7.6-.9,1.1s-.3,1.1-.3,1.8c0,1.1.2,1.9.6,2.4.4.6,1,.8,1.8.8s.7,0,1.1-.1c.3-.1.6-.2.9-.4v-3.1h-2.1v.8c0,0,.1,0,.1,0Z"/>
      <path class="cls-1" d="M427.1,94.4c0,.5,0,.9-.2,1.2s-.4.4-.8.4-.6-.1-.8-.4c-.2-.2-.2-.6-.2-1.2v-4h-1v4.2c0,.7.2,1.2.5,1.6.3.4.9.6,1.5.6s.8,0,1.1-.3c.3-.2.5-.4.7-.8.2-.3.2-.7.2-1.1v-4.2h-1v4h0Z"/>
      <polygon class="cls-1" points="521.6 91.2 523.4 91.2 523.4 96.6 524.3 96.6 524.3 91.2 526.1 91.2 526.2 90.4 521.6 90.4 521.6 91.2"/>
      <polygon class="cls-1" points="530.3 93.3 528.9 90.4 527.8 90.4 529.8 94.2 529.8 96.6 530.8 96.6 530.8 94.2 532.7 90.4 531.7 90.4 530.3 93.3"/>
      <polygon class="cls-1" points="419 93.8 421.2 93.8 421.2 93.1 419 93.1 419 91.2 421.5 91.2 421.6 90.4 418 90.4 418 96.6 421.6 96.6 421.6 95.8 419 95.8 419 93.8"/>
      <polygon class="cls-1" points="511.5 104.2 510.1 101.2 509 101.2 511 105.1 511 107.5 512 107.5 512 105.1 514 101.2 512.9 101.2 511.5 104.2"/>
      <polygon class="cls-1" points="516 91.2 517.3 91.2 517.3 95.8 516 95.8 516 96.6 519.6 96.6 519.6 95.8 518.3 95.8 518.3 91.2 519.6 91.2 519.6 90.4 516 90.4 516 91.2"/>
      <path class="cls-1" d="M466.1,90.4h-.9v2.9c0,.5,0,.9,0,1.3,0,.4,0,.8,0,1.2l-1.9-5.3h-1.3v6.3h.9v-2.8c0-.7,0-1.5-.1-2.5l1.9,5.3h1.3v-6.3h0Z"/>
      <polygon class="cls-1" points="443.6 107.5 444.6 107.5 444.6 104.8 446.9 104.8 446.9 104 444.6 104 444.6 102 447.2 102 447.3 101.2 443.6 101.2 443.6 107.5"/>
      <polygon class="cls-1" points="500.7 91.2 500.8 90.4 497.2 90.4 497.2 96.6 500.9 96.6 500.9 95.8 498.2 95.8 498.2 93.8 500.4 93.8 500.4 93.1 498.2 93.1 498.2 91.2 500.7 91.2"/>
      <polygon class="cls-1" points="488.1 91.2 488.1 90.4 484.6 90.4 484.6 91.2 485.9 91.2 485.9 95.8 484.6 95.8 484.6 96.6 488.1 96.6 488.1 95.8 486.9 95.8 486.9 91.2 488.1 91.2"/>
      <path class="cls-1" d="M486.8,101.1c-.7,0-1.3.3-1.7.9-.4.6-.6,1.4-.6,2.4s.2,1.8.6,2.4c.4.6.9.9,1.7.9s1.3-.3,1.7-.9c.4-.6.6-1.4.6-2.4s-.2-1.8-.6-2.4c-.4-.6-.9-.9-1.7-.9h0ZM487.7,106.2c-.2.4-.5.6-.9.6s-.7-.2-.9-.6c-.2-.4-.3-1-.3-1.8s0-1.4.3-1.9c.2-.4.5-.6.9-.6s.7.2.9.6c.2.4.3,1,.3,1.8s0,1.4-.3,1.8h0Z"/>
      <polygon class="cls-1" points="474.9 103.8 473 103.8 473 101.2 472 101.2 472 107.5 473 107.5 473 104.6 474.9 104.6 474.9 107.5 475.9 107.5 475.9 101.2 474.9 101.2 474.9 103.8"/>
      <path class="cls-1" d="M468.6,106.6c-.2,0-.5.1-.7.1-.5,0-.9-.2-1.2-.6s-.5-1-.5-1.8.2-1.4.5-1.8.7-.6,1.2-.6.9.1,1.2.5l.5-.6c-.2-.2-.5-.4-.8-.5-.3-.1-.6-.1-1-.1s-.9.1-1.3.4c-.4.3-.7.6-1,1.1-.2.5-.3,1.1-.3,1.8s.1,1.3.3,1.8c.2.5.5.9.9,1.1s.8.4,1.4.4c.8,0,1.4-.2,1.8-.7l-.5-.6c-.2.2-.4.3-.6.4h0Z"/>
      <path class="cls-1" d="M479.2,93.8c0-.7,0-1.5-.1-2.5l1.9,5.3h1.3v-6.3h-.9v2.9c0,.5,0,.9,0,1.3,0,.4,0,.8,0,1.2l-1.9-5.3h-1.3v6.3h.9v-2.8h0Z"/>
      <path class="cls-1" d="M474.9,94.4c0,.5,0,.9-.2,1.2s-.4.4-.8.4-.6-.1-.8-.4c-.2-.2-.2-.6-.2-1.2v-4h-1v4.2c0,.7.2,1.2.5,1.6.4.4.9.6,1.5.6s.8,0,1.1-.3c.3-.2.5-.4.7-.8.2-.3.2-.7.2-1.1v-4.2h-1v4h0Z"/>
      <path class="cls-1" d="M511.6,95.9c-.6,0-1.2-.2-1.6-.7l-.5.6c.5.6,1.3.8,2.2.8s.9,0,1.2-.2c.3-.2.6-.4.8-.7.2-.3.3-.6.3-1,0-.6-.2-1-.5-1.2-.3-.3-.7-.5-1.3-.7-.4-.1-.6-.2-.8-.3s-.3-.2-.4-.3c0-.1-.1-.3-.1-.4,0-.3,0-.5.3-.6.2-.1.5-.2.8-.2.5,0,1,.2,1.4.6l.5-.6c-.5-.5-1.2-.8-2-.8s-.7,0-1,.2c-.3.1-.5.3-.7.6-.2.3-.3.6-.3.9s.2.8.5,1.1c.3.3.8.5,1.5.7.3,0,.6.2.7.3.2,0,.3.2.4.3,0,.1.1.3.1.5,0,.3-.1.6-.3.8s-.5.3-.9.3h0Z"/>
      <polygon class="cls-1" points="453 102.1 454.8 102.1 454.8 107.5 455.8 107.5 455.8 102.1 457.5 102.1 457.6 101.2 453 101.2 453 102.1"/>
      <polygon class="cls-1" points="492.5 101.2 491.5 101.2 491.5 107.5 495 107.5 495.2 106.6 492.5 106.6 492.5 101.2"/>
      <path class="cls-1" d="M481.5,104.1c0,.5,0,.9,0,1.3,0,.4,0,.8,0,1.2l-1.9-5.3h-1.3v6.3h.9v-2.9c0-.7,0-1.5-.1-2.5l1.9,5.3h1.3v-6.3h-.9v2.9h0Z"/>
      <polygon class="cls-1" points="453.1 91.2 453.2 90.4 449.7 90.4 449.7 96.6 453.3 96.6 453.3 95.8 450.7 95.8 450.7 93.8 452.8 93.8 452.8 93.1 450.7 93.1 450.7 91.2 453.1 91.2"/>
      <polygon class="cls-1" points="492.8 95.6 491.4 90.4 490.3 90.4 492.2 96.6 493.3 96.6 495.2 90.4 494.2 90.4 492.8 95.6"/>
      <polygon class="cls-1" points="460.7 104.7 462.8 104.7 462.8 103.9 460.7 103.9 460.7 102 463.1 102 463.2 101.2 459.7 101.2 459.7 107.5 463.3 107.5 463.3 106.7 460.7 106.7 460.7 104.7"/>
      <path class="cls-1" d="M458.3,90.4h-1.2l-1.9,6.3h1l.4-1.5h2.1l.4,1.5h1l-1.9-6.3h0ZM456.9,94.3l.8-3.1.8,3.1h-1.7,0Z"/>
      <path class="cls-1" d="M445.2,90.4h-1.6v6.3h1v-2.2h.7c.7,0,1.3-.2,1.7-.5.4-.3.6-.9.6-1.6s-.2-1.2-.6-1.5-1-.5-1.8-.5h0ZM446.2,93.3c-.2.2-.5.3-.9.3h-.7v-2.4h.7c.8,0,1.3.4,1.3,1.2s-.1.8-.3,1h0Z"/>
      <polygon class="cls-1" points="534.4 62.2 534.4 54.6 529.4 54.6 529.4 62.2 521.9 62.2 521.9 67.2 529.4 67.2 529.4 74.9 534.4 74.9 534.4 67.2 541.9 67.2 541.9 62.2 534.4 62.2"/>
      <rect class="cls-1" x="505.7" y="54.6" width="4.9" height="28.1"/>
      <path class="cls-1" d="M494.5,82.6v-33.6h27.4v-5h-32.3v33.6h-8.9c-5.1,0-8.8-3.4-8.8-8v-25.6h-4.9v16.2c0,9.7-7.4,17.3-16.8,17.3s-13.5-3.9-15.6-10.4h11.7c8.8,0,13.5-6.3,13.5-12.5s-4.5-11.8-13.1-11.8-17.8,8.7-17.8,18.9v.4h-20v5h20.6c2.2,9.4,10.3,15.4,20.7,15.4s13.4-3.3,17.4-8.9c1.8,5.4,6.9,8.9,13.1,8.9h13.8,0ZM433.8,62.2v-.4c0-7.4,6-13.9,12.9-13.9s8.2,4.5,8.2,6.8c0,5.2-4.4,7.5-8.5,7.5h-12.5Z"/>
    </g>
  </g>
</svg>