<?xml version="1.0" encoding="UTF-8"?><svg id="Kombi_lang_1_schwarz" xmlns="http://www.w3.org/2000/svg" viewBox="0 0 335.13 157.98"><path d="M22.5,28.82v23.26h9.51V27.43c0-8.05-4.39-13.9-12.73-13.9-3.37,0-6.59,1.32-9.14,3.95V0H.63V52.08H10.14V28.82c0-4.98,3.15-6.73,6.14-6.73s6.22,1.68,6.22,6.73Z" fill="#1d1d1b"/><rect x="37.13" y="56.9" width="22.66" height="2.15" fill="#1d1d1b"/><path d="M121.95,52.08h9.29V26.99c0-8.92-5.56-13.46-16.24-13.46-6.36,0-10.02,1.17-13.75,5.27l6.07,5.93c1.97-2.27,3.66-3.15,7.32-3.15,5.05,0,7.09,1.83,7.09,6v1.9h-9c-8.85,0-13.02,4.98-13.02,11.05,0,3.36,1.1,6.43,3.15,8.56,2.27,2.27,5.41,3.36,9.73,3.36s6.8-1.1,9.36-3.66v3.29Zm-.22-14.05c0,2.34-.36,3.88-1.39,4.83-1.68,1.61-3.36,1.83-6,1.83-3.73,0-5.49-1.76-5.49-4.39s1.9-4.32,5.34-4.32h7.53v2.05Z" fill="#1d1d1b"/><path d="M73.6,52.52c4.03,0,6.8-1.1,9.44-4.02v3.58h9.29V0h-9.51V17.34c-2.49-2.78-5.41-3.81-9.29-3.81s-7.17,1.32-9.29,3.44c-3.8,3.8-3.88,10.31-3.88,16.02s.07,12.29,3.88,16.09c2.12,2.12,5.63,3.44,9.36,3.44Zm2.71-30.43c5.71,0,6.51,4.68,6.51,10.9s-.8,10.97-6.51,10.97-6.43-4.76-6.43-10.97,.73-10.9,6.43-10.9Z" fill="#1d1d1b"/><path d="M6.83,80.04c-1.33,0-2.55,.51-3.48,1.52v-6.8H.64v18.92H3.35v-8.27c0-2.02,1.22-2.95,2.74-2.95s2.71,.9,2.71,2.95v8.27h2.71v-8.69c0-2.92-1.67-4.94-4.68-4.94Z" fill="#1d1d1b"/><path d="M20.43,80.04c-1.83,0-3.14,.69-4.01,1.6-1.28,1.33-1.6,3.03-1.6,5.29s.32,3.99,1.6,5.32c.88,.9,2.18,1.6,4.01,1.6s3.16-.69,4.04-1.6c1.28-1.33,1.6-3.03,1.6-5.32s-.32-3.96-1.6-5.29c-.88-.9-2.21-1.6-4.04-1.6Zm1.99,10.58c-.51,.51-1.2,.8-1.99,.8s-1.46-.29-1.97-.8c-.82-.82-.93-2.23-.93-3.7s.11-2.87,.93-3.7c.51-.51,1.17-.77,1.97-.77s1.49,.27,1.99,.77c.82,.82,.93,2.23,.93,3.7s-.11,2.87-.93,3.7Z" fill="#1d1d1b"/><path d="M34.93,82.46c1.06,0,1.73,.35,2.58,1.28l1.86-1.81c-1.27-1.36-2.58-1.89-4.44-1.89-3.03,0-6.01,1.83-6.01,6.88s2.98,6.91,6.01,6.91c1.86,0,3.16-.56,4.44-1.91l-1.86-1.78c-.85,.93-1.52,1.28-2.58,1.28s-1.91-.42-2.5-1.2c-.59-.74-.8-1.73-.8-3.3s.21-2.53,.8-3.27c.58-.77,1.46-1.2,2.5-1.2Z" fill="#1d1d1b"/><path d="M53.18,93.68v-8.69c0-2.92-1.67-4.94-4.68-4.94-1.33,0-2.55,.51-3.48,1.52v-6.8h-2.71v18.92h2.71v-8.27c0-2.02,1.22-2.95,2.74-2.95s2.71,.9,2.71,2.95v8.27h2.71Z" fill="#1d1d1b"/><path d="M67.26,89.56c0-2.39-1.49-3.59-4.01-3.8l-2.13-.19c-1.44-.13-1.86-.74-1.86-1.54,0-1.01,.83-1.73,2.45-1.73,1.28,0,2.47,.27,3.32,.98l1.7-1.73c-1.25-1.09-2.98-1.51-5-1.51-2.82,0-5.08,1.49-5.08,4.12,0,2.37,1.46,3.51,3.99,3.72l2.15,.19c1.3,.11,1.81,.69,1.81,1.6,0,1.28-1.3,1.86-2.95,1.86-1.33,0-2.79-.29-3.88-1.41l-1.78,1.78c1.59,1.57,3.46,1.94,5.66,1.94,3.22,0,5.61-1.46,5.61-4.28Z" fill="#1d1d1b"/><path d="M78.45,90.14c-.85,.93-1.52,1.28-2.58,1.28s-1.91-.42-2.5-1.2c-.58-.74-.8-1.73-.8-3.3s.21-2.53,.8-3.27c.59-.77,1.46-1.2,2.5-1.2s1.73,.35,2.58,1.28l1.86-1.81c-1.28-1.36-2.58-1.89-4.44-1.89-3.03,0-6.01,1.83-6.01,6.88s2.98,6.91,6.01,6.91c1.86,0,3.16-.56,4.44-1.91l-1.86-1.78Z" fill="#1d1d1b"/><path d="M85.96,85.41c0-2.02,1.22-2.95,2.74-2.95s2.71,.9,2.71,2.95v8.27h2.71v-8.69c0-2.92-1.67-4.94-4.68-4.94-1.33,0-2.55,.51-3.48,1.52v-6.8h-2.71v18.92h2.71v-8.27Z" fill="#1d1d1b"/><path d="M106.14,92.32v1.35h2.66v-13.48h-2.71v8.21c0,2.07-1.28,3-2.79,3s-2.71-.9-2.71-3v-8.21h-2.71v8.61c0,1.52,.32,2.79,1.36,3.8,.8,.77,1.94,1.22,3.32,1.22s2.66-.51,3.59-1.52Z" fill="#1d1d1b"/><path d="M118.11,93.68v-2.31h-1.2c-1.09,0-1.46-.53-1.46-1.57v-15.04h-2.71v15.2c0,1.99,1.12,3.72,3.69,3.72h1.68Z" fill="#1d1d1b"/><path d="M125.88,80.04c-3.46,0-5.71,2.53-5.71,6.89,0,5.13,2.68,6.91,6.06,6.91,2.36,0,3.67-.72,5.05-2.1l-1.73-1.62c-.96,.96-1.75,1.38-3.27,1.38-2.21,0-3.43-1.46-3.43-3.77h8.74v-1.2c0-3.83-2.1-6.49-5.72-6.49Zm-3.03,5.79c.03-.82,.08-1.22,.35-1.83,.43-1.01,1.41-1.7,2.68-1.7s2.23,.69,2.66,1.7c.27,.61,.35,1.01,.37,1.83h-6.06Z" fill="#1d1d1b"/><path d="M8.32,108.13c-.98-1.17-2.1-1.52-3.53-1.52-1.35,0-2.53,.45-3.27,1.2-1.36,1.36-1.52,3.64-1.52,5.69s.16,4.36,1.52,5.71c.74,.74,1.94,1.2,3.29,1.2,1.46,0,2.55-.37,3.56-1.6v1.44h2.66v-18.93h-2.71v6.8Zm-2.79,9.86c-2.45,0-2.82-2.1-2.82-4.49s.37-4.47,2.82-4.47,2.79,2.07,2.79,4.47-.34,4.49-2.79,4.49Z" fill="#1d1d1b"/><path d="M19.51,106.62c-2.23,0-3.56,.45-4.84,1.94l1.78,1.67c.74-.96,1.46-1.3,2.95-1.3,2.1,0,2.95,.82,2.95,2.52v.96h-3.56c-3.08,0-4.65,1.62-4.65,3.88,0,1.14,.37,2.18,1.06,2.9,.82,.82,1.94,1.22,3.61,1.22s2.6-.4,3.59-1.38v1.22h2.66v-9.01c0-3.06-1.86-4.62-5.55-4.62Zm2.84,8.77c0,.96-.19,1.59-.58,1.99-.72,.69-1.49,.77-2.53,.77-1.7,0-2.47-.69-2.47-1.91s.82-1.94,2.42-1.94h3.16v1.09Z" fill="#1d1d1b"/><path d="M31.64,108.24v-1.46h-2.66v13.48h2.71v-8.19c0-1.86,1.22-3.03,2.68-3.03,.93,0,1.41,.29,2.02,.9l2.05-2.05c-.93-.93-1.91-1.28-3.22-1.28-1.52,0-2.9,.66-3.59,1.62Z" fill="#1d1d1b"/><path d="M55.22,106.62c-1.78,0-3.14,.64-4.23,1.97-.85-1.3-2.15-1.97-3.83-1.97-1.35,0-2.68,.53-3.59,1.52v-1.36h-2.66v13.48h2.71v-8.21c0-2.07,1.28-3,2.79-3s2.71,.9,2.71,3v8.21h2.71v-8.35c0-1.94,1.33-2.87,2.79-2.87s2.71,.9,2.71,3v8.21h2.71v-8.61c0-1.52-.4-2.79-1.44-3.8-.8-.77-2.02-1.22-3.4-1.22Z" fill="#1d1d1b"/><path d="M70.15,112.33l-2.13-.19c-1.44-.13-1.86-.74-1.86-1.54,0-1.01,.83-1.73,2.45-1.73,1.28,0,2.47,.27,3.32,.98l1.7-1.73c-1.25-1.09-2.98-1.51-5-1.51-2.82,0-5.08,1.49-5.08,4.12,0,2.37,1.46,3.51,3.99,3.72l2.15,.19c1.3,.11,1.81,.69,1.81,1.6,0,1.28-1.3,1.86-2.95,1.86-1.33,0-2.79-.29-3.88-1.41l-1.78,1.78c1.6,1.57,3.46,1.94,5.66,1.94,3.22,0,5.61-1.46,5.61-4.28,0-2.39-1.49-3.59-4.01-3.8Z" fill="#1d1d1b"/><path d="M80.56,102.92h-2.71v4.09h-1.54v2.07h1.54v7.42c0,1.94,1.17,3.75,3.69,3.75h1.62v-2.31h-1.12c-1.01,0-1.49-.58-1.49-1.57v-7.28h2.6v-2.07h-2.6v-4.09Z" fill="#1d1d1b"/><path d="M91.03,106.62c-2.23,0-3.56,.45-4.84,1.94l1.78,1.67c.74-.96,1.46-1.3,2.95-1.3,2.1,0,2.95,.82,2.95,2.52v.96h-3.56c-3.08,0-4.65,1.62-4.65,3.88,0,1.14,.37,2.18,1.06,2.9,.82,.82,1.94,1.22,3.61,1.22s2.6-.4,3.59-1.38v1.22h2.66v-9.01c0-3.06-1.86-4.62-5.55-4.62Zm2.84,8.77c0,.96-.19,1.59-.59,1.99-.72,.69-1.49,.77-2.53,.77-1.7,0-2.47-.69-2.47-1.91s.82-1.94,2.42-1.94h3.16v1.09Z" fill="#1d1d1b"/><path d="M108.29,108.13c-.98-1.17-2.1-1.52-3.53-1.52-1.36,0-2.53,.45-3.27,1.2-1.36,1.36-1.52,3.64-1.52,5.69s.16,4.36,1.52,5.71c.74,.74,1.94,1.2,3.3,1.2,1.46,0,2.55-.37,3.56-1.6v1.44h2.66v-18.93h-2.71v6.8Zm-2.79,9.86c-2.45,0-2.82-2.1-2.82-4.49s.37-4.47,2.82-4.47,2.79,2.07,2.79,4.47-.34,4.49-2.79,4.49Z" fill="#1d1d1b"/><path d="M118.17,102.92h-2.71v4.09h-1.54v2.07h1.54v7.42c0,1.94,1.17,3.75,3.7,3.75h1.62v-2.31h-1.12c-1.01,0-1.49-.58-1.49-1.57v-7.28h2.6v-2.07h-2.6v-4.09Z" fill="#1d1d1b"/><polygon points="150.42 157.76 151.23 157.98 183.48 37.73 182.67 37.52 150.42 157.76" fill="#1d1d1b"/><path d="M241.28,61.01c0-.97,.55-1.47,1.38-1.47s1.36,.49,1.36,1.47v3.41h.81v-3.5c0-.88,.57-1.38,1.38-1.38s1.36,.49,1.36,1.47v3.41h.81v-3.54c0-.64-.2-1.16-.6-1.54-.34-.33-.83-.52-1.43-.52-.78,0-1.39,.31-1.82,.92-.34-.61-.93-.92-1.7-.92-.62,0-1.17,.22-1.56,.67v-.61h-.81v5.53h.81v-3.41Z" fill="#1d1d1b"/><path d="M252.96,64.48c.95,0,1.46-.29,2.02-.86l-.55-.48c-.44,.44-.81,.63-1.45,.63-1.06,0-1.63-.7-1.63-1.91h3.73v-.37c0-1.64-.84-2.67-2.27-2.67s-2.27,1.04-2.27,2.83c0,1.96,.96,2.84,2.42,2.84Zm-1.44-4.15c.21-.51,.71-.83,1.29-.83s1.08,.33,1.29,.83c.12,.3,.15,.47,.17,.92h-2.92c.02-.45,.04-.62,.17-.92Z" fill="#1d1d1b"/><path d="M258.07,61.01c0-.97,.55-1.47,1.38-1.47s1.36,.49,1.36,1.47v3.41h.81v-3.5c0-.88,.57-1.38,1.38-1.38s1.36,.49,1.36,1.47v3.41h.81v-3.54c0-.64-.2-1.16-.6-1.54-.34-.33-.83-.52-1.43-.52-.78,0-1.39,.31-1.82,.92-.34-.61-.93-.92-1.7-.92-.62,0-1.17,.22-1.56,.67v-.61h-.81v5.53h.81v-3.41Z" fill="#1d1d1b"/><path d="M268.41,63.75c.45,.58,.95,.73,1.56,.73,.56,0,1.06-.19,1.35-.48,.56-.56,.67-1.48,.67-2.35s-.11-1.79-.67-2.35c-.29-.29-.79-.48-1.35-.48-.61,0-1.11,.13-1.56,.71v-3.11h-.81v8.01h.81v-.66Zm1.39-4.22c1.2,0,1.38,1.03,1.38,2.11s-.18,2.11-1.38,2.11-1.39-1.04-1.39-2.11,.19-2.11,1.39-2.11Z" fill="#1d1d1b"/><path d="M276.4,64.48c.95,0,1.46-.29,2.02-.86l-.55-.48c-.44,.44-.81,.63-1.45,.63-1.06,0-1.63-.7-1.63-1.91h3.73v-.37c0-1.64-.84-2.67-2.27-2.67s-2.27,1.04-2.27,2.83c0,1.96,.96,2.84,2.42,2.84Zm-1.44-4.15c.21-.51,.71-.83,1.29-.83s1.08,.33,1.29,.83c.12,.3,.15,.47,.17,.92h-2.92c.02-.45,.04-.62,.17-.92Z" fill="#1d1d1b"/><path d="M281.51,61.02c0-.84,.52-1.48,1.33-1.48,.43,0,.65,.1,.96,.4l.6-.61c-.39-.39-.8-.52-1.33-.52-.64,0-1.25,.28-1.55,.74v-.68h-.81v5.53h.81v-3.4Z" fill="#1d1d1b"/><path d="M290.2,64.48c.67,0,1.2-.25,1.59-.63,.56-.57,.67-1.35,.67-2.21s-.11-1.63-.67-2.2c-.38-.38-.91-.63-1.59-.63s-1.2,.25-1.59,.63c-.56,.57-.67,1.35-.67,2.2s.11,1.63,.67,2.21c.38,.38,.91,.63,1.59,.63Zm-1-4.54c.26-.26,.61-.4,1-.4s.75,.15,1.01,.4c.41,.41,.44,1.09,.44,1.71s-.03,1.31-.44,1.71c-.26,.26-.62,.41-1.01,.41s-.74-.15-1-.41c-.41-.4-.45-1.09-.45-1.71s.04-1.3,.45-1.71Z" fill="#1d1d1b"/><path d="M294.76,64.42h.81v-4.88h1.18v-.62h-1.18v-1.02c0-.51,.22-.81,.74-.81h.44v-.7h-.58c-.95,0-1.41,.66-1.41,1.48v1.05h-.71v.62h.71v4.88Z" fill="#1d1d1b"/><path d="M227.43,130.8c.25-.29,.37-.66,.37-1.09,0-1.21-.77-1.82-2.3-1.82h-1.64v6.28h.99v-2.58h.64l1.49,2.58h1.16l-1.68-2.73c.41-.13,.73-.34,.98-.64Zm-2.59,0v-2.14h.71c.41,0,.72,.08,.91,.24,.2,.16,.3,.43,.3,.79,0,.38-.1,.66-.3,.84-.2,.18-.5,.26-.88,.26h-.74Z" fill="#1d1d1b"/><path d="M300.25,130.8c.24-.29,.37-.66,.37-1.09,0-1.21-.77-1.82-2.3-1.82h-1.64v6.28h.99v-2.58h.64l1.49,2.58h1.16l-1.68-2.73c.4-.13,.73-.34,.98-.64Zm-2.59,0v-2.14h.71c.41,0,.72,.08,.91,.24,.2,.17,.29,.43,.29,.79s-.1,.66-.3,.84c-.2,.17-.49,.26-.88,.26h-.74Z" fill="#1d1d1b"/><path d="M292.15,138.61c-.72,0-1.28,.3-1.67,.89-.39,.59-.58,1.39-.58,2.38s.19,1.8,.58,2.38c.39,.58,.94,.87,1.67,.87s1.28-.29,1.67-.88c.39-.59,.58-1.38,.58-2.38s-.19-1.8-.58-2.39c-.38-.58-.94-.88-1.67-.88Zm.93,5.1c-.19,.4-.51,.6-.93,.6s-.73-.2-.93-.6c-.2-.4-.3-1.01-.3-1.83s.1-1.45,.29-1.85c.19-.4,.51-.6,.93-.6s.74,.2,.93,.6c.2,.4,.29,1.01,.29,1.84s-.1,1.44-.29,1.84Z" fill="#1d1d1b"/><path d="M232.26,138.61c-.73,0-1.28,.3-1.67,.89-.39,.59-.58,1.39-.58,2.38s.19,1.8,.58,2.38c.38,.58,.94,.87,1.67,.87s1.28-.3,1.67-.88c.39-.59,.58-1.38,.58-2.37s-.19-1.8-.58-2.39c-.38-.58-.94-.88-1.67-.88Zm.93,5.1c-.19,.4-.51,.6-.93,.6s-.73-.2-.93-.6c-.2-.4-.29-1.01-.29-1.83s.1-1.45,.29-1.85c.19-.4,.51-.6,.93-.6s.74,.2,.93,.6c.19,.4,.29,1.01,.29,1.84s-.1,1.44-.29,1.84Z" fill="#1d1d1b"/><path d="M232.12,134.28c.73,0,1.28-.29,1.67-.88,.38-.59,.58-1.38,.58-2.37s-.19-1.8-.58-2.39c-.39-.58-.94-.88-1.67-.88s-1.28,.3-1.67,.89c-.39,.59-.58,1.39-.58,2.38s.19,1.8,.58,2.38c.39,.58,.94,.87,1.67,.87Zm-.93-5.09c.19-.4,.5-.6,.93-.6s.74,.2,.93,.6c.2,.4,.29,1.01,.29,1.84s-.1,1.44-.29,1.84c-.19,.4-.51,.6-.93,.6s-.73-.2-.93-.6c-.2-.4-.29-1.01-.29-1.83s.1-1.45,.29-1.85Z" fill="#1d1d1b"/><path d="M298.67,142.32h1v1.73c-.29,.17-.61,.26-.98,.26-.48,0-.83-.19-1.07-.58-.23-.38-.35-1.01-.35-1.87s.15-1.45,.44-1.84c.29-.39,.67-.59,1.13-.59,.23,0,.44,.04,.62,.12,.19,.08,.37,.21,.55,.39l.56-.61c-.25-.25-.51-.43-.78-.55-.27-.12-.6-.18-.98-.18-.48,0-.91,.13-1.3,.37-.39,.25-.7,.62-.93,1.11-.23,.49-.35,1.08-.35,1.77,0,1.07,.21,1.88,.63,2.43,.42,.56,1.01,.83,1.78,.83,.39,0,.74-.05,1.06-.15,.32-.1,.63-.24,.93-.42v-3.05h-2.07l.1,.81Z" fill="#1d1d1b"/><path d="M220.31,131.91c0,.52-.08,.91-.25,1.16-.17,.25-.44,.38-.8,.38s-.62-.12-.79-.38c-.17-.25-.25-.64-.25-1.16v-4.02h-.99v4.22c0,.66,.18,1.19,.54,1.58,.35,.4,.86,.59,1.5,.59,.43,0,.8-.09,1.11-.28,.31-.18,.54-.44,.71-.77,.16-.33,.24-.7,.24-1.13v-4.22h-1v4.02Z" fill="#1d1d1b"/><polygon points="314.79 128.74 316.58 128.74 316.58 134.16 317.57 134.16 317.57 128.74 319.28 128.74 319.38 127.89 314.79 127.89 314.79 128.74" fill="#1d1d1b"/><polygon points="323.52 130.86 322.13 127.89 321.03 127.89 323.01 131.77 323.01 134.16 324 134.16 324 131.76 325.98 127.89 324.94 127.89 323.52 130.86" fill="#1d1d1b"/><polygon points="212.23 131.37 214.38 131.37 214.38 130.58 212.23 130.58 212.23 128.69 214.68 128.69 214.8 127.89 211.24 127.89 211.24 134.16 214.85 134.16 214.85 133.36 212.23 133.36 212.23 131.37" fill="#1d1d1b"/><polygon points="304.75 141.71 303.35 138.73 302.25 138.73 304.23 142.62 304.23 145.01 305.23 145.01 305.23 142.61 307.21 138.73 306.16 138.73 304.75 141.71" fill="#1d1d1b"/><polygon points="309.22 128.69 310.51 128.69 310.51 133.35 309.22 133.35 309.22 134.16 312.79 134.16 312.79 133.35 311.5 133.35 311.5 128.69 312.79 128.69 312.79 127.89 309.22 127.89 309.22 128.69" fill="#1d1d1b"/><path d="M259.33,127.89h-.88v2.86c0,.49,.01,.91,.04,1.27,.03,.36,.06,.77,.1,1.22l-1.89-5.34h-1.29v6.28h.88v-2.85c0-.67-.05-1.5-.14-2.49l1.89,5.34h1.29v-6.28Z" fill="#1d1d1b"/><polygon points="236.86 145.01 237.85 145.01 237.85 142.34 240.08 142.34 240.08 141.54 237.85 141.54 237.85 139.53 240.39 139.53 240.49 138.73 236.86 138.73 236.86 145.01" fill="#1d1d1b"/><polygon points="293.92 128.69 294.03 127.89 290.48 127.89 290.48 134.16 294.08 134.16 294.08 133.36 291.47 133.36 291.47 131.37 293.61 131.37 293.61 130.58 291.47 130.58 291.47 128.69 293.92 128.69" fill="#1d1d1b"/><polygon points="281.36 128.69 281.36 127.89 277.8 127.89 277.8 128.69 279.08 128.69 279.08 133.35 277.8 133.35 277.8 134.16 281.36 134.16 281.36 133.35 280.08 133.35 280.08 128.69 281.36 128.69" fill="#1d1d1b"/><path d="M280.02,138.61c-.72,0-1.28,.3-1.67,.89-.39,.59-.58,1.39-.58,2.38s.19,1.8,.58,2.38c.38,.58,.94,.87,1.67,.87s1.28-.29,1.67-.88c.39-.59,.58-1.38,.58-2.38s-.19-1.8-.58-2.39c-.39-.58-.94-.88-1.67-.88Zm.93,5.1c-.19,.4-.51,.6-.93,.6s-.73-.2-.93-.6c-.2-.4-.29-1.01-.29-1.83s.1-1.45,.29-1.85c.19-.4,.51-.6,.93-.6s.74,.2,.93,.6c.2,.4,.29,1.01,.29,1.84s-.1,1.44-.29,1.84Z" fill="#1d1d1b"/><polygon points="268.12 141.29 266.19 141.29 266.19 138.73 265.19 138.73 265.19 145.01 266.19 145.01 266.19 142.15 268.12 142.15 268.12 145.01 269.12 145.01 269.12 138.73 268.12 138.73 268.12 141.29" fill="#1d1d1b"/><path d="M261.85,144.13c-.2,.09-.45,.14-.73,.14-.5,0-.89-.2-1.19-.59-.3-.39-.45-1-.45-1.82s.15-1.45,.45-1.84c.3-.39,.69-.59,1.17-.59s.87,.15,1.23,.46l.51-.66c-.25-.22-.51-.38-.79-.48-.27-.1-.6-.15-.99-.15-.49,0-.93,.13-1.33,.38-.4,.26-.72,.63-.95,1.12-.23,.49-.35,1.08-.35,1.76s.11,1.28,.34,1.77c.23,.49,.54,.86,.94,1.11,.4,.25,.85,.38,1.36,.38,.75,0,1.37-.25,1.85-.74l-.48-.65c-.2,.17-.4,.3-.6,.4Z" fill="#1d1d1b"/><path d="M272.43,131.32c0-.67-.05-1.5-.14-2.49l1.88,5.34h1.29v-6.28h-.88v2.86c0,.49,.01,.91,.04,1.27,.03,.36,.06,.77,.1,1.22l-1.89-5.34h-1.29v6.28h.88v-2.85Z" fill="#1d1d1b"/><path d="M268.12,131.91c0,.52-.08,.91-.25,1.16-.17,.25-.43,.38-.8,.38s-.62-.12-.79-.38c-.17-.25-.25-.64-.25-1.16v-4.02h-.99v4.22c0,.66,.18,1.19,.53,1.58,.36,.39,.86,.59,1.5,.59,.43,0,.8-.09,1.1-.28,.31-.18,.54-.44,.71-.77,.16-.33,.24-.7,.24-1.13v-4.22h-1v4.02Z" fill="#1d1d1b"/><path d="M304.8,133.45c-.64,0-1.18-.22-1.63-.65l-.55,.64c.54,.56,1.26,.84,2.18,.84,.47,0,.87-.08,1.21-.24,.34-.16,.6-.38,.78-.66,.18-.29,.27-.62,.27-.99,0-.55-.15-.96-.45-1.24-.3-.29-.73-.52-1.3-.7-.36-.11-.64-.22-.84-.31-.2-.09-.34-.2-.42-.31-.08-.11-.12-.26-.12-.42,0-.26,.1-.46,.29-.6,.2-.14,.46-.21,.78-.21,.53,0,.99,.19,1.4,.56l.52-.63c-.53-.5-1.19-.76-1.98-.76-.39,0-.74,.07-1.05,.21-.31,.14-.55,.34-.72,.6-.18,.26-.26,.55-.26,.89,0,.47,.15,.84,.46,1.13,.31,.28,.79,.53,1.45,.74,.32,.1,.57,.21,.74,.3,.17,.1,.29,.21,.36,.34,.07,.13,.11,.29,.11,.47,0,.32-.12,.57-.35,.75-.23,.18-.52,.26-.88,.26Z" fill="#1d1d1b"/><polygon points="246.25 139.59 248.03 139.59 248.03 145.01 249.03 145.01 249.03 139.59 250.73 139.59 250.84 138.73 246.25 138.73 246.25 139.59" fill="#1d1d1b"/><polygon points="285.72 138.73 284.74 138.73 284.74 145.01 288.27 145.01 288.38 144.13 285.72 144.13 285.72 138.73" fill="#1d1d1b"/><path d="M274.7,141.59c0,.48,.01,.91,.04,1.27,.03,.36,.06,.77,.1,1.22l-1.89-5.34h-1.29v6.27h.88v-2.85c0-.67-.05-1.5-.14-2.49l1.88,5.34h1.29v-6.27h-.88v2.86Z" fill="#1d1d1b"/><polygon points="246.36 128.69 246.47 127.89 242.91 127.89 242.91 134.16 246.52 134.16 246.52 133.36 243.9 133.36 243.9 131.37 246.05 131.37 246.05 130.58 243.9 130.58 243.9 128.69 246.36 128.69" fill="#1d1d1b"/><polygon points="286.02 133.16 284.63 127.89 283.56 127.89 285.44 134.16 286.57 134.16 288.45 127.89 287.44 127.89 286.02 133.16" fill="#1d1d1b"/><polygon points="253.89 142.22 256.03 142.22 256.03 141.43 253.89 141.43 253.89 139.53 256.34 139.53 256.45 138.73 252.89 138.73 252.89 145.01 256.5 145.01 256.5 144.21 253.89 144.21 253.89 142.22" fill="#1d1d1b"/><path d="M251.56,127.89h-1.23l-1.88,6.28h1.02l.41-1.51h2.11l.41,1.51h1.05l-1.89-6.28Zm-1.48,3.95l.85-3.13,.85,3.13h-1.7Z" fill="#1d1d1b"/><path d="M238.44,127.89h-1.64v6.28h.99v-2.24h.72c.71,0,1.28-.17,1.69-.5,.41-.34,.62-.86,.62-1.56,0-.66-.21-1.15-.62-1.48-.41-.33-1-.5-1.76-.5Zm1.01,2.95c-.22,.2-.53,.29-.93,.29h-.73v-2.45h.72c.85,0,1.27,.4,1.27,1.18,0,.45-.11,.78-.33,.97Z" fill="#1d1d1b"/><polygon points="327.6 99.73 327.6 92.09 322.66 92.09 322.66 99.73 315.13 99.73 315.13 104.74 322.66 104.74 322.66 112.38 327.6 112.38 327.6 104.74 335.13 104.74 335.13 99.73 327.6 99.73" fill="#1d1d1b"/><rect x="298.98" y="92.09" width="4.94" height="28.05" fill="#1d1d1b"/><path d="M287.76,120.13v-33.57h27.38v-5.01h-32.28l-.03,33.57h-8.84c-5.12,0-8.83-3.36-8.83-7.98v-25.59h-4.94v16.22c-.07,9.73-7.44,17.35-16.77,17.35-7.74,0-13.53-3.87-15.6-10.38h11.67c8.85,0,13.47-6.3,13.47-12.52,0-5.89-4.5-11.85-13.1-11.85-9.65,0-17.8,8.67-17.8,18.93,0,.14,0,.29,0,.43h-19.99v5.01h20.62c2.24,9.36,10.33,15.39,20.72,15.39,6.93,0,13.37-3.32,17.41-8.93,1.76,5.38,6.9,8.93,13.13,8.93h13.77Zm-60.73-20.4c0-.14,0-.29,0-.43,0-7.41,6.01-13.91,12.86-13.91,6.46,0,8.16,4.47,8.16,6.84,0,5.16-4.42,7.51-8.54,7.51h-12.48Z" fill="#1d1d1b"/></svg>