<?xml version="1.0" encoding="UTF-8"?><svg id="Kombi_lang_2_schwarz" xmlns="http://www.w3.org/2000/svg" viewBox="0 0 489.32 120.46"><path d="M82.19,47.85c-2.49-2.78-5.41-3.81-9.29-3.81s-7.17,1.32-9.29,3.44c-3.81,3.81-3.88,10.31-3.88,16.02s.07,12.29,3.88,16.09c2.12,2.12,5.63,3.44,9.36,3.44,4.03,0,6.8-1.1,9.44-4.02v3.58h9.29V30.51h-9.51v17.34Zm-6.51,26.63c-5.7,0-6.43-4.75-6.43-10.97s.73-10.9,6.43-10.9,6.51,4.68,6.51,10.9-.8,10.97-6.51,10.97Z" fill="#1d1d1b"/><path d="M114.37,44.04c-6.36,0-10.02,1.17-13.75,5.27l6.07,5.93c1.98-2.27,3.66-3.15,7.32-3.15,5.05,0,7.09,1.83,7.09,6v1.9h-9c-8.85,0-13.02,4.98-13.02,11.05,0,3.36,1.1,6.43,3.15,8.56,2.27,2.27,5.41,3.36,9.73,3.36s6.8-1.1,9.36-3.66v3.29h9.29v-25.09c0-8.93-5.56-13.46-16.24-13.46Zm6.73,24.51c0,2.34-.36,3.88-1.39,4.83-1.68,1.61-3.36,1.83-6,1.83-3.73,0-5.49-1.76-5.49-4.39s1.9-4.32,5.34-4.32h7.53v2.05Z" fill="#1d1d1b"/><path d="M18.65,44.04c-3.37,0-6.59,1.32-9.14,3.95V30.51H0v52.08H9.51v-23.26c0-4.97,3.15-6.73,6.14-6.73s6.22,1.68,6.22,6.73v23.26h9.51v-24.65c0-8.05-4.39-13.9-12.73-13.9Z" fill="#1d1d1b"/><rect x="36.5" y="87.4" width="22.66" height="2.15" fill="#1d1d1b"/><path d="M165.64,43.88c-1.28,0-2.46,.49-3.35,1.46v-6.56h-2.61v18.23h2.61v-7.96c0-1.95,1.18-2.84,2.64-2.84s2.61,.87,2.61,2.84v7.96h2.61v-8.37c0-2.82-1.61-4.76-4.51-4.76Z" fill="#1d1d1b"/><path d="M178.74,43.88c-1.77,0-3.02,.67-3.87,1.54-1.23,1.28-1.54,2.92-1.54,5.1s.31,3.84,1.54,5.12c.85,.87,2.1,1.54,3.87,1.54s3.05-.67,3.89-1.54c1.23-1.28,1.54-2.92,1.54-5.12s-.31-3.82-1.54-5.1c-.85-.87-2.12-1.54-3.89-1.54Zm1.92,10.19c-.49,.49-1.15,.77-1.92,.77s-1.41-.28-1.9-.77c-.79-.79-.9-2.15-.9-3.56s.1-2.77,.9-3.56c.49-.49,1.13-.74,1.9-.74s1.43,.26,1.92,.74c.79,.79,.9,2.15,.9,3.56s-.1,2.77-.9,3.56Z" fill="#1d1d1b"/><path d="M192.71,46.21c1.03,0,1.67,.33,2.49,1.23l1.79-1.74c-1.23-1.31-2.48-1.82-4.28-1.82-2.92,0-5.79,1.77-5.79,6.63s2.87,6.66,5.79,6.66c1.79,0,3.05-.54,4.28-1.84l-1.79-1.72c-.82,.9-1.46,1.23-2.49,1.23s-1.84-.41-2.41-1.15c-.56-.72-.77-1.66-.77-3.18s.21-2.43,.77-3.15c.56-.74,1.41-1.15,2.41-1.15Z" fill="#1d1d1b"/><path d="M202.43,49.05c0-1.95,1.18-2.84,2.64-2.84s2.61,.87,2.61,2.84v7.96h2.61v-8.37c0-2.82-1.61-4.76-4.51-4.76-1.28,0-2.46,.49-3.35,1.46v-6.56h-2.61v18.23h2.61v-7.96Z" fill="#1d1d1b"/><path d="M223.85,53.05c0-2.3-1.43-3.46-3.87-3.66l-2.05-.18c-1.38-.13-1.79-.72-1.79-1.49,0-.97,.79-1.66,2.36-1.66,1.23,0,2.38,.26,3.2,.95l1.64-1.66c-1.2-1.05-2.87-1.46-4.82-1.46-2.71,0-4.89,1.43-4.89,3.97,0,2.28,1.41,3.38,3.84,3.59l2.08,.18c1.26,.1,1.74,.66,1.74,1.54,0,1.23-1.26,1.79-2.84,1.79-1.28,0-2.69-.28-3.74-1.36l-1.72,1.72c1.54,1.51,3.33,1.87,5.45,1.87,3.1,0,5.4-1.41,5.4-4.12Z" fill="#1d1d1b"/><path d="M234.64,53.61c-.82,.9-1.46,1.23-2.49,1.23s-1.84-.41-2.41-1.15c-.56-.72-.77-1.66-.77-3.18s.21-2.43,.77-3.15c.56-.74,1.41-1.15,2.41-1.15s1.67,.33,2.49,1.23l1.79-1.74c-1.23-1.31-2.48-1.82-4.28-1.82-2.92,0-5.79,1.77-5.79,6.63s2.87,6.66,5.79,6.66c1.79,0,3.05-.54,4.28-1.84l-1.79-1.72Z" fill="#1d1d1b"/><path d="M241.87,49.05c0-1.95,1.18-2.84,2.64-2.84s2.61,.87,2.61,2.84v7.96h2.61v-8.37c0-2.82-1.61-4.76-4.51-4.76-1.28,0-2.46,.49-3.35,1.46v-6.56h-2.61v18.23h2.61v-7.96Z" fill="#1d1d1b"/><path d="M261.32,55.71v1.31h2.56v-12.98h-2.61v7.91c0,2-1.23,2.89-2.69,2.89s-2.61-.87-2.61-2.89v-7.91h-2.61v8.3c0,1.46,.31,2.69,1.31,3.66,.77,.74,1.87,1.18,3.2,1.18s2.56-.49,3.46-1.46Z" fill="#1d1d1b"/><path d="M272.85,57.02v-2.23h-1.15c-1.05,0-1.41-.51-1.41-1.51v-14.49h-2.61v14.65c0,1.92,1.08,3.59,3.56,3.59h1.61Z" fill="#1d1d1b"/><path d="M280.34,43.88c-3.33,0-5.51,2.43-5.51,6.63,0,4.94,2.59,6.66,5.84,6.66,2.28,0,3.53-.69,4.87-2.02l-1.66-1.56c-.92,.92-1.69,1.33-3.15,1.33-2.13,0-3.3-1.41-3.3-3.64h8.43v-1.15c0-3.69-2.02-6.25-5.51-6.25Zm-2.92,5.58c.03-.79,.08-1.18,.33-1.77,.41-.97,1.36-1.64,2.59-1.64s2.15,.66,2.56,1.64c.26,.59,.33,.97,.36,1.77h-5.84Z" fill="#1d1d1b"/><path d="M167.07,70.94c-.95-1.13-2.02-1.46-3.41-1.46-1.31,0-2.43,.43-3.15,1.15-1.31,1.31-1.46,3.51-1.46,5.48s.15,4.2,1.46,5.51c.72,.72,1.87,1.15,3.18,1.15,1.41,0,2.46-.36,3.43-1.54v1.38h2.56v-18.23h-2.61v6.56Zm-2.69,9.5c-2.36,0-2.71-2.02-2.71-4.33s.36-4.3,2.71-4.3,2.69,2,2.69,4.3-.33,4.33-2.69,4.33Z" fill="#1d1d1b"/><path d="M177.85,69.48c-2.15,0-3.43,.43-4.66,1.87l1.72,1.61c.72-.92,1.41-1.25,2.84-1.25,2.02,0,2.84,.79,2.84,2.43v.92h-3.43c-2.97,0-4.48,1.56-4.48,3.74,0,1.1,.36,2.1,1.02,2.79,.79,.79,1.87,1.18,3.48,1.18s2.51-.38,3.46-1.33v1.18h2.56v-8.68c0-2.95-1.79-4.46-5.35-4.46Zm2.74,8.45c0,.92-.18,1.54-.56,1.92-.69,.67-1.43,.74-2.43,.74-1.64,0-2.38-.67-2.38-1.84s.79-1.87,2.33-1.87h3.05v1.05Z" fill="#1d1d1b"/><path d="M189.53,71.04v-1.41h-2.56v12.98h2.61v-7.89c0-1.79,1.18-2.92,2.59-2.92,.9,0,1.36,.28,1.95,.87l1.97-1.97c-.9-.9-1.84-1.23-3.1-1.23-1.46,0-2.79,.64-3.46,1.56Z" fill="#1d1d1b"/><path d="M212.26,69.48c-1.72,0-3.02,.61-4.07,1.89-.82-1.25-2.08-1.89-3.69-1.89-1.31,0-2.59,.51-3.46,1.46v-1.31h-2.56v12.98h2.61v-7.91c0-2,1.23-2.89,2.69-2.89s2.61,.87,2.61,2.89v7.91h2.61v-8.04c0-1.87,1.28-2.77,2.69-2.77s2.61,.87,2.61,2.89v7.91h2.61v-8.3c0-1.46-.38-2.69-1.38-3.66-.77-.74-1.95-1.18-3.28-1.18Z" fill="#1d1d1b"/><path d="M226.64,74.99l-2.05-.18c-1.38-.13-1.79-.72-1.79-1.49,0-.97,.79-1.66,2.36-1.66,1.23,0,2.38,.26,3.2,.95l1.64-1.66c-1.2-1.05-2.87-1.46-4.82-1.46-2.71,0-4.89,1.43-4.89,3.97,0,2.28,1.41,3.38,3.84,3.58l2.08,.18c1.26,.1,1.74,.67,1.74,1.54,0,1.23-1.26,1.79-2.84,1.79-1.28,0-2.69-.28-3.74-1.36l-1.72,1.72c1.54,1.51,3.33,1.87,5.46,1.87,3.1,0,5.4-1.41,5.4-4.12,0-2.3-1.43-3.46-3.87-3.66Z" fill="#1d1d1b"/><path d="M236.67,65.92h-2.61v3.94h-1.49v2h1.49v7.15c0,1.87,1.13,3.61,3.56,3.61h1.56v-2.23h-1.07c-.97,0-1.43-.56-1.43-1.51v-7.02h2.51v-2h-2.51v-3.94Z" fill="#1d1d1b"/><path d="M246.75,69.48c-2.15,0-3.43,.43-4.66,1.87l1.72,1.61c.72-.92,1.41-1.25,2.84-1.25,2.02,0,2.84,.79,2.84,2.43v.92h-3.43c-2.97,0-4.48,1.56-4.48,3.74,0,1.1,.36,2.1,1.02,2.79,.79,.79,1.87,1.18,3.48,1.18s2.51-.38,3.46-1.33v1.18h2.56v-8.68c0-2.95-1.79-4.46-5.35-4.46Zm2.74,8.45c0,.92-.18,1.54-.56,1.92-.69,.67-1.43,.74-2.43,.74-1.64,0-2.38-.67-2.38-1.84s.79-1.87,2.33-1.87h3.05v1.05Z" fill="#1d1d1b"/><path d="M263.39,70.94c-.95-1.13-2.02-1.46-3.41-1.46-1.31,0-2.43,.43-3.15,1.15-1.31,1.31-1.46,3.51-1.46,5.48s.15,4.2,1.46,5.51c.72,.72,1.87,1.15,3.17,1.15,1.41,0,2.46-.36,3.43-1.54v1.38h2.56v-18.23h-2.61v6.56Zm-2.69,9.5c-2.36,0-2.71-2.02-2.71-4.33s.36-4.3,2.71-4.3,2.69,2,2.69,4.3-.33,4.33-2.69,4.33Z" fill="#1d1d1b"/><path d="M272.9,65.92h-2.61v3.94h-1.48v2h1.48v7.15c0,1.87,1.13,3.61,3.56,3.61h1.56v-2.23h-1.08c-.97,0-1.43-.56-1.43-1.51v-7.02h2.51v-2h-2.51v-3.94Z" fill="#1d1d1b"/><polygon points="304.61 120.24 305.43 120.46 337.67 .22 336.86 0 304.61 120.24" fill="#1d1d1b"/><path d="M395.48,23.49c0-.97,.55-1.47,1.38-1.47s1.36,.49,1.36,1.47v3.41h.81v-3.5c0-.88,.57-1.38,1.38-1.38s1.36,.49,1.36,1.47v3.41h.81v-3.54c0-.64-.2-1.16-.6-1.54-.34-.33-.83-.52-1.43-.52-.78,0-1.39,.31-1.82,.92-.34-.61-.93-.92-1.7-.92-.62,0-1.17,.22-1.56,.67v-.61h-.81v5.53h.81v-3.41Z" fill="#1d1d1b"/><path d="M407.15,26.97c.95,0,1.46-.29,2.02-.86l-.55-.48c-.44,.44-.81,.63-1.45,.63-1.06,0-1.63-.7-1.63-1.91h3.73v-.37c0-1.64-.84-2.68-2.27-2.68s-2.27,1.05-2.27,2.83c0,1.96,.95,2.84,2.42,2.84Zm-1.44-4.15c.21-.51,.71-.83,1.29-.83s1.08,.33,1.29,.83c.12,.3,.15,.47,.17,.92h-2.92c.02-.45,.05-.62,.17-.92Z" fill="#1d1d1b"/><path d="M412.26,23.49c0-.97,.55-1.47,1.38-1.47s1.36,.49,1.36,1.47v3.41h.81v-3.5c0-.88,.57-1.38,1.38-1.38s1.36,.49,1.36,1.47v3.41h.81v-3.54c0-.64-.2-1.16-.6-1.54-.34-.33-.83-.52-1.43-.52-.78,0-1.39,.31-1.82,.92-.34-.61-.93-.92-1.7-.92-.62,0-1.17,.22-1.56,.67v-.61h-.81v5.53h.81v-3.41Z" fill="#1d1d1b"/><path d="M422.6,26.24c.45,.59,.96,.73,1.56,.73,.56,0,1.06-.19,1.35-.48,.56-.56,.67-1.48,.67-2.35s-.11-1.79-.67-2.35c-.29-.29-.79-.48-1.35-.48-.61,0-1.11,.13-1.56,.71v-3.11h-.81v8.01h.81v-.66Zm1.39-4.21c1.2,0,1.38,1.03,1.38,2.11s-.18,2.11-1.38,2.11-1.39-1.04-1.39-2.11,.19-2.11,1.39-2.11Z" fill="#1d1d1b"/><path d="M430.59,26.97c.95,0,1.46-.29,2.02-.86l-.55-.48c-.44,.44-.81,.63-1.45,.63-1.06,0-1.63-.7-1.63-1.91h3.73v-.37c0-1.64-.84-2.68-2.27-2.68s-2.27,1.05-2.27,2.83c0,1.96,.95,2.84,2.42,2.84Zm-1.44-4.15c.21-.51,.71-.83,1.29-.83s1.08,.33,1.29,.83c.12,.3,.15,.47,.17,.92h-2.92c.02-.45,.05-.62,.17-.92Z" fill="#1d1d1b"/><path d="M435.7,23.5c0-.84,.52-1.48,1.33-1.48,.43,0,.65,.1,.96,.4l.6-.61c-.39-.39-.8-.52-1.33-.52-.64,0-1.25,.28-1.55,.74v-.67h-.81v5.53h.81v-3.4Z" fill="#1d1d1b"/><path d="M444.39,26.97c.67,0,1.2-.25,1.59-.63,.56-.57,.67-1.35,.67-2.21s-.11-1.63-.67-2.2c-.38-.38-.91-.63-1.59-.63s-1.2,.25-1.59,.63c-.56,.57-.67,1.35-.67,2.2s.11,1.63,.67,2.21c.38,.38,.91,.63,1.59,.63Zm-1-4.54c.26-.26,.61-.4,1-.4s.75,.15,1.01,.4c.41,.41,.44,1.09,.44,1.71s-.03,1.31-.44,1.71c-.26,.26-.62,.41-1.01,.41s-.74-.15-1-.41c-.41-.4-.45-1.09-.45-1.71s.04-1.3,.45-1.71Z" fill="#1d1d1b"/><path d="M448.95,26.9h.81v-4.88h1.18v-.62h-1.18v-1.02c0-.51,.22-.81,.74-.81h.44v-.7h-.59c-.95,0-1.41,.66-1.41,1.48v1.05h-.71v.62h.71v4.88Z" fill="#1d1d1b"/><path d="M381.63,93.28c.25-.29,.37-.66,.37-1.09,0-1.21-.77-1.82-2.3-1.82h-1.65v6.28h.99v-2.58h.64l1.49,2.58h1.16l-1.68-2.73c.41-.13,.73-.34,.98-.64Zm-2.59,0v-2.14h.71c.41,0,.72,.08,.91,.24,.2,.16,.29,.43,.29,.79,0,.38-.1,.66-.3,.84-.2,.18-.5,.26-.88,.26h-.74Z" fill="#1d1d1b"/><path d="M454.44,93.28c.24-.29,.37-.66,.37-1.09,0-1.21-.77-1.82-2.31-1.82h-1.64v6.28h.99v-2.58h.64l1.49,2.58h1.16l-1.68-2.73c.41-.13,.73-.34,.98-.64Zm-2.59,0v-2.14h.71c.41,0,.72,.08,.91,.24,.2,.17,.29,.43,.29,.79s-.1,.66-.3,.84c-.2,.18-.49,.26-.88,.26h-.74Z" fill="#1d1d1b"/><path d="M446.34,101.09c-.72,0-1.28,.3-1.67,.89-.39,.59-.58,1.39-.58,2.38s.19,1.8,.58,2.38c.39,.58,.94,.87,1.67,.87s1.28-.29,1.67-.88c.39-.59,.58-1.38,.58-2.38s-.19-1.8-.58-2.39c-.38-.58-.94-.88-1.67-.88Zm.93,5.1c-.19,.4-.51,.6-.93,.6s-.73-.2-.93-.6c-.2-.4-.3-1.01-.3-1.83s.1-1.45,.29-1.85c.19-.4,.51-.6,.93-.6s.74,.2,.93,.6c.2,.4,.29,1.01,.29,1.84s-.1,1.44-.29,1.84Z" fill="#1d1d1b"/><path d="M386.46,101.09c-.73,0-1.28,.3-1.67,.89-.39,.59-.58,1.39-.58,2.38s.19,1.8,.58,2.38c.38,.58,.94,.87,1.67,.87s1.28-.29,1.67-.88c.39-.59,.58-1.38,.58-2.37s-.19-1.8-.58-2.39c-.38-.59-.94-.88-1.67-.88Zm.93,5.1c-.19,.4-.51,.6-.93,.6s-.73-.2-.93-.6c-.2-.4-.29-1.01-.29-1.83s.1-1.45,.29-1.84c.19-.4,.51-.6,.93-.6s.74,.2,.93,.6c.19,.4,.29,1.01,.29,1.84s-.1,1.44-.29,1.84Z" fill="#1d1d1b"/><path d="M386.31,96.77c.73,0,1.28-.29,1.67-.88,.38-.59,.58-1.38,.58-2.37s-.19-1.8-.58-2.39c-.39-.59-.94-.88-1.67-.88s-1.28,.3-1.67,.89-.58,1.39-.58,2.38,.19,1.8,.58,2.38c.39,.58,.94,.87,1.67,.87Zm-.93-5.09c.19-.4,.5-.6,.93-.6s.74,.2,.93,.6c.2,.4,.29,1.01,.29,1.84s-.1,1.44-.29,1.84c-.19,.4-.51,.6-.93,.6s-.73-.2-.93-.6c-.2-.4-.29-1.01-.29-1.83s.1-1.45,.29-1.85Z" fill="#1d1d1b"/><path d="M452.86,104.8h1v1.73c-.29,.17-.61,.26-.98,.26-.48,0-.84-.19-1.07-.58-.23-.38-.35-1.01-.35-1.87s.15-1.45,.44-1.84c.29-.39,.67-.59,1.13-.59,.23,0,.44,.04,.62,.12,.19,.08,.37,.21,.55,.39l.56-.61c-.25-.25-.51-.43-.78-.55-.27-.12-.6-.18-.98-.18-.47,0-.91,.13-1.3,.37-.39,.25-.7,.62-.93,1.11-.23,.49-.35,1.08-.35,1.77,0,1.07,.21,1.88,.63,2.43,.42,.56,1.01,.83,1.78,.83,.39,0,.74-.05,1.06-.15,.32-.1,.63-.24,.93-.42v-3.05h-2.07l.1,.81Z" fill="#1d1d1b"/><path d="M374.51,94.39c0,.52-.08,.91-.25,1.16-.17,.25-.44,.38-.8,.38s-.62-.12-.79-.38c-.17-.25-.25-.64-.25-1.16v-4.02h-.99v4.22c0,.66,.18,1.19,.54,1.58,.35,.4,.86,.59,1.5,.59,.43,0,.8-.09,1.11-.28,.31-.18,.54-.44,.71-.77,.16-.33,.24-.7,.24-1.13v-4.22h-1v4.02Z" fill="#1d1d1b"/><polygon points="468.99 91.23 470.77 91.23 470.77 96.65 471.76 96.65 471.76 91.23 473.47 91.23 473.57 90.37 468.99 90.37 468.99 91.23" fill="#1d1d1b"/><polygon points="477.72 93.35 476.32 90.37 475.22 90.37 477.2 94.26 477.2 96.65 478.2 96.65 478.2 94.25 480.18 90.37 479.13 90.37 477.72 93.35" fill="#1d1d1b"/><polygon points="366.43 93.85 368.57 93.85 368.57 93.06 366.43 93.06 366.43 91.17 368.88 91.17 368.99 90.37 365.43 90.37 365.43 96.65 369.04 96.65 369.04 95.85 366.43 95.85 366.43 93.85" fill="#1d1d1b"/><polygon points="458.94 104.19 457.54 101.22 456.45 101.22 458.42 105.1 458.42 107.49 459.42 107.49 459.42 105.09 461.4 101.22 460.35 101.22 458.94 104.19" fill="#1d1d1b"/><polygon points="463.42 91.17 464.7 91.17 464.7 95.84 463.42 95.84 463.42 96.65 466.98 96.65 466.98 95.84 465.7 95.84 465.7 91.17 466.98 91.17 466.98 90.37 463.42 90.37 463.42 91.17" fill="#1d1d1b"/><path d="M413.52,90.37h-.88v2.86c0,.49,.01,.91,.04,1.27,.03,.36,.06,.77,.1,1.21l-1.89-5.34h-1.29v6.27h.88v-2.85c0-.67-.05-1.5-.14-2.49l1.89,5.34h1.29v-6.27Z" fill="#1d1d1b"/><polygon points="391.05 107.49 392.04 107.49 392.04 104.82 394.27 104.82 394.27 104.02 392.04 104.02 392.04 102.02 394.58 102.02 394.68 101.22 391.05 101.22 391.05 107.49" fill="#1d1d1b"/><polygon points="448.12 91.17 448.23 90.37 444.67 90.37 444.67 96.65 448.28 96.65 448.28 95.85 445.66 95.85 445.66 93.85 447.81 93.85 447.81 93.06 445.66 93.06 445.66 91.17 448.12 91.17" fill="#1d1d1b"/><polygon points="435.55 91.17 435.55 90.37 431.99 90.37 431.99 91.17 433.28 91.17 433.28 95.84 431.99 95.84 431.99 96.65 435.55 96.65 435.55 95.84 434.27 95.84 434.27 91.17 435.55 91.17" fill="#1d1d1b"/><path d="M434.21,101.09c-.72,0-1.28,.3-1.67,.89-.39,.59-.58,1.39-.58,2.38s.19,1.8,.58,2.38c.38,.58,.94,.87,1.67,.87s1.28-.29,1.67-.88c.39-.59,.58-1.38,.58-2.38s-.19-1.8-.58-2.39c-.39-.58-.94-.88-1.67-.88Zm.93,5.1c-.19,.4-.51,.6-.93,.6s-.73-.2-.93-.6c-.2-.4-.29-1.01-.29-1.83s.1-1.45,.29-1.85c.19-.4,.51-.6,.93-.6s.74,.2,.93,.6c.2,.4,.29,1.01,.29,1.84s-.1,1.44-.29,1.84Z" fill="#1d1d1b"/><polygon points="422.32 103.77 420.38 103.77 420.38 101.22 419.39 101.22 419.39 107.49 420.38 107.49 420.38 104.64 422.32 104.64 422.32 107.49 423.31 107.49 423.31 101.22 422.32 101.22 422.32 103.77" fill="#1d1d1b"/><path d="M416.04,106.61c-.2,.09-.45,.14-.73,.14-.5,0-.89-.2-1.19-.59-.3-.39-.45-1-.45-1.82s.15-1.45,.45-1.84c.3-.39,.69-.59,1.17-.59s.87,.15,1.23,.46l.51-.65c-.25-.22-.51-.38-.79-.48-.27-.1-.6-.15-.99-.15-.49,0-.93,.13-1.33,.38-.4,.26-.72,.63-.95,1.12-.23,.49-.35,1.08-.35,1.76s.11,1.28,.34,1.77c.23,.49,.54,.86,.94,1.11,.4,.25,.85,.38,1.36,.38,.75,0,1.37-.25,1.85-.74l-.48-.65c-.2,.17-.4,.3-.6,.4Z" fill="#1d1d1b"/><path d="M426.62,93.8c0-.67-.05-1.5-.14-2.49l1.88,5.34h1.29v-6.27h-.88v2.86c0,.49,.01,.91,.04,1.27,.03,.36,.06,.77,.1,1.21l-1.89-5.34h-1.29v6.27h.88v-2.85Z" fill="#1d1d1b"/><path d="M422.32,94.39c0,.52-.08,.91-.25,1.16-.17,.25-.43,.38-.8,.38s-.62-.12-.79-.38c-.17-.25-.25-.64-.25-1.16v-4.02h-.99v4.22c0,.66,.18,1.19,.53,1.58,.36,.39,.86,.59,1.5,.59,.43,0,.8-.09,1.1-.28,.31-.18,.54-.44,.71-.77,.16-.33,.24-.7,.24-1.13v-4.22h-1v4.02Z" fill="#1d1d1b"/><path d="M459,95.94c-.64,0-1.18-.22-1.63-.65l-.55,.64c.54,.56,1.26,.84,2.18,.84,.47,0,.87-.08,1.21-.24,.34-.16,.6-.38,.78-.66,.18-.29,.27-.62,.27-.99,0-.55-.15-.96-.45-1.24-.3-.29-.74-.52-1.31-.7-.36-.11-.64-.22-.84-.31-.2-.09-.34-.2-.42-.31-.08-.11-.12-.26-.12-.42,0-.26,.1-.46,.29-.6,.2-.14,.46-.21,.77-.21,.53,0,.99,.19,1.4,.56l.52-.63c-.53-.5-1.19-.76-1.98-.76-.39,0-.74,.07-1.05,.22-.31,.14-.55,.34-.72,.6-.18,.26-.26,.55-.26,.89,0,.47,.15,.84,.46,1.13,.31,.28,.79,.53,1.45,.74,.32,.1,.57,.21,.74,.3,.17,.1,.29,.22,.36,.34,.07,.13,.11,.29,.11,.47,0,.32-.12,.57-.35,.75-.23,.18-.52,.26-.88,.26Z" fill="#1d1d1b"/><polygon points="400.45 102.07 402.23 102.07 402.23 107.49 403.22 107.49 403.22 102.07 404.93 102.07 405.03 101.22 400.45 101.22 400.45 102.07" fill="#1d1d1b"/><polygon points="439.92 101.22 438.93 101.22 438.93 107.49 442.46 107.49 442.57 106.61 439.92 106.61 439.92 101.22" fill="#1d1d1b"/><path d="M428.9,104.07c0,.48,.01,.91,.04,1.27,.03,.36,.06,.77,.1,1.21l-1.89-5.34h-1.29v6.27h.88v-2.85c0-.67-.05-1.5-.14-2.49l1.88,5.34h1.29v-6.27h-.88v2.85Z" fill="#1d1d1b"/><polygon points="400.55 91.17 400.66 90.37 397.1 90.37 397.1 96.65 400.71 96.65 400.71 95.85 398.1 95.85 398.1 93.85 400.24 93.85 400.24 93.06 398.1 93.06 398.1 91.17 400.55 91.17" fill="#1d1d1b"/><polygon points="440.22 95.65 438.82 90.37 437.76 90.37 439.63 96.65 440.76 96.65 442.64 90.37 441.63 90.37 440.22 95.65" fill="#1d1d1b"/><polygon points="408.08 104.7 410.22 104.7 410.22 103.91 408.08 103.91 408.08 102.02 410.53 102.02 410.64 101.22 407.09 101.22 407.09 107.49 410.69 107.49 410.69 106.69 408.08 106.69 408.08 104.7" fill="#1d1d1b"/><path d="M405.75,90.37h-1.23l-1.88,6.27h1.02l.41-1.51h2.11l.41,1.51h1.05l-1.89-6.27Zm-1.48,3.95l.85-3.13,.85,3.13h-1.7Z" fill="#1d1d1b"/><path d="M392.63,90.37h-1.64v6.27h.99v-2.24h.72c.71,0,1.28-.17,1.69-.5,.41-.34,.62-.86,.62-1.56,0-.66-.2-1.15-.62-1.48-.41-.33-1-.5-1.76-.5Zm1.01,2.95c-.22,.2-.53,.29-.93,.29h-.73v-2.45h.72c.85,0,1.27,.39,1.27,1.18,0,.45-.11,.78-.33,.97Z" fill="#1d1d1b"/><polygon points="481.79 62.21 481.79 54.57 476.86 54.57 476.86 62.21 469.33 62.21 469.33 67.23 476.86 67.23 476.86 74.86 481.79 74.86 481.79 67.23 489.32 67.23 489.32 62.21 481.79 62.21" fill="#1d1d1b"/><rect x="453.17" y="54.57" width="4.94" height="28.05" fill="#1d1d1b"/><path d="M441.95,82.62V49.05h27.38v-5.01h-32.28l-.03,33.57h-8.84c-5.12,0-8.83-3.36-8.83-7.98v-25.59h-4.94v16.22c-.07,9.73-7.44,17.35-16.77,17.35-7.74,0-13.53-3.87-15.6-10.38h11.67c8.85,0,13.47-6.3,13.47-12.52,0-5.89-4.5-11.85-13.1-11.85-9.65,0-17.8,8.67-17.8,18.92,0,.14,0,.29,0,.43h-19.99v5.01h20.62c2.24,9.36,10.33,15.39,20.72,15.39,6.93,0,13.37-3.32,17.41-8.93,1.76,5.38,6.9,8.93,13.13,8.93h13.77Zm-60.73-20.4c0-.14,0-.29,0-.43,0-7.41,6.01-13.91,12.86-13.91,6.46,0,8.16,4.48,8.16,6.84,0,5.16-4.42,7.51-8.54,7.51h-12.48Z" fill="#1d1d1b"/></svg>