<?xml version="1.0" encoding="UTF-8"?>
<svg id="eut_voll" data-name="eut+ voll" xmlns="http://www.w3.org/2000/svg" width="46.93mm" height="31.31mm" viewBox="0 0 133.03 88.74">
  <path d="m39.19,4.62c0-.97.55-1.47,1.38-1.47s1.36.49,1.36,1.47v3.41h.81v-3.5c0-.88.57-1.38,1.38-1.38s1.36.49,1.36,1.47v3.41h.81v-3.54c0-.64-.2-1.16-.59-1.54-.34-.33-.83-.52-1.43-.52-.78,0-1.39.31-1.82.92-.34-.61-.93-.92-1.7-.92-.62,0-1.17.22-1.56.67v-.61h-.81v5.53h.81v-3.41Z" fill="#1d1d1b"/>
  <path d="m50.86,8.1c.95,0,1.46-.29,2.02-.86l-.55-.48c-.44.44-.81.63-1.45.63-1.06,0-1.63-.7-1.63-1.91h3.73v-.37c0-1.64-.84-2.68-2.27-2.68s-2.27,1.05-2.27,2.83c0,1.96.96,2.83,2.42,2.83Zm-1.44-4.15c.21-.51.71-.83,1.29-.83s1.08.33,1.29.83c.12.3.15.47.17.92h-2.92c.02-.45.04-.62.17-.92Z" fill="#1d1d1b"/>
  <path d="m55.97,4.62c0-.97.55-1.47,1.38-1.47s1.36.49,1.36,1.47v3.41h.81v-3.5c0-.88.57-1.38,1.38-1.38s1.36.49,1.36,1.47v3.41h.81v-3.54c0-.64-.2-1.16-.6-1.54-.34-.33-.83-.52-1.43-.52-.78,0-1.39.31-1.82.92-.34-.61-.93-.92-1.7-.92-.62,0-1.17.22-1.56.67v-.61h-.81v5.53h.81v-3.41Z" fill="#1d1d1b"/>
  <path d="m66.31,7.36c.45.59.95.73,1.56.73.56,0,1.06-.19,1.35-.48.56-.56.67-1.48.67-2.35s-.11-1.79-.67-2.35c-.29-.29-.79-.48-1.35-.48-.61,0-1.11.13-1.56.71V.02h-.81v8.01h.81v-.66Zm1.39-4.21c1.2,0,1.38,1.03,1.38,2.11s-.18,2.11-1.38,2.11-1.39-1.04-1.39-2.11.19-2.11,1.39-2.11Z" fill="#1d1d1b"/>
  <path d="m74.3,8.1c.94,0,1.46-.29,2.02-.86l-.55-.48c-.44.44-.81.63-1.45.63-1.06,0-1.63-.7-1.63-1.91h3.73v-.37c0-1.64-.84-2.68-2.27-2.68s-2.27,1.05-2.27,2.83c0,1.96.96,2.83,2.42,2.83Zm-1.44-4.15c.21-.51.71-.83,1.29-.83s1.08.33,1.29.83c.12.3.15.47.17.92h-2.92c.02-.45.04-.62.17-.92Z" fill="#1d1d1b"/>
  <path d="m79.41,4.63c0-.84.52-1.48,1.33-1.48.43,0,.65.1.96.4l.6-.61c-.39-.39-.8-.52-1.33-.52-.64,0-1.25.28-1.55.74v-.67h-.81v5.53h.81v-3.4Z" fill="#1d1d1b"/>
  <path d="m88.1,8.1c.67,0,1.2-.25,1.58-.63.56-.57.68-1.35.68-2.21s-.11-1.63-.68-2.2c-.38-.38-.91-.63-1.58-.63s-1.2.25-1.59.63c-.56.57-.67,1.35-.67,2.2s.11,1.63.67,2.21c.38.38.91.63,1.59.63Zm-1-4.54c.26-.26.61-.4,1-.4s.75.15,1.01.4c.41.41.44,1.09.44,1.71s-.03,1.31-.44,1.71c-.26.26-.62.41-1.01.41s-.74-.15-1-.41c-.41-.4-.45-1.09-.45-1.71s.05-1.3.45-1.71Z" fill="#1d1d1b"/>
  <path d="m92.66,8.03h.81V3.15h1.18v-.62h-1.18v-1.02c0-.51.22-.81.74-.81h.44v-.7h-.58c-.95,0-1.41.66-1.41,1.48v1.05h-.71v.62h.71v4.88Z" fill="#1d1d1b"/>
  <path d="m25.34,74.41c.25-.29.37-.66.37-1.09,0-1.21-.77-1.82-2.3-1.82h-1.65v6.28h.99v-2.58h.64l1.49,2.58h1.16l-1.68-2.73c.41-.13.73-.34.98-.64Zm-2.59,0v-2.14h.71c.41,0,.72.08.91.24.2.16.29.43.29.79,0,.38-.1.66-.3.84-.2.18-.5.26-.88.26h-.74Z" fill="#1d1d1b"/>
  <path d="m98.15,74.41c.24-.29.37-.66.37-1.09,0-1.21-.77-1.82-2.31-1.82h-1.64v6.28h.99v-2.58h.64l1.49,2.58h1.16l-1.68-2.73c.41-.13.73-.34.98-.64Zm-2.59,0v-2.14h.71c.41,0,.72.08.91.24.2.17.3.43.3.79s-.1.66-.3.84c-.2.17-.49.26-.88.26h-.74Z" fill="#1d1d1b"/>
  <path d="m90.05,82.22c-.72,0-1.28.3-1.67.89-.39.59-.58,1.39-.58,2.38s.19,1.8.58,2.38c.39.58.94.87,1.67.87s1.28-.29,1.67-.88c.39-.59.58-1.38.58-2.38s-.19-1.8-.58-2.39c-.38-.58-.94-.88-1.67-.88Zm.93,5.1c-.19.4-.51.6-.93.6s-.73-.2-.93-.6c-.2-.4-.29-1.01-.29-1.83s.1-1.45.29-1.85c.19-.4.51-.6.93-.6s.74.2.93.6c.2.4.29,1.01.29,1.84s-.1,1.44-.29,1.84Z" fill="#1d1d1b"/>
  <path d="m30.17,82.22c-.73,0-1.28.3-1.67.89-.39.59-.58,1.39-.58,2.38s.19,1.8.58,2.38c.38.58.94.87,1.67.87s1.28-.29,1.67-.88c.39-.59.58-1.38.58-2.37s-.19-1.8-.58-2.39c-.38-.59-.94-.88-1.67-.88Zm.93,5.1c-.19.4-.5.6-.93.6s-.73-.2-.93-.6-.29-1.01-.29-1.83.1-1.45.29-1.84c.19-.4.5-.6.93-.6s.74.2.93.6c.19.4.29,1.01.29,1.84s-.1,1.44-.29,1.84Z" fill="#1d1d1b"/>
  <path d="m30.02,77.89c.73,0,1.28-.29,1.67-.88.38-.59.58-1.38.58-2.37s-.19-1.8-.58-2.39c-.39-.59-.94-.88-1.67-.88s-1.28.3-1.67.89-.58,1.39-.58,2.38.19,1.8.58,2.38c.39.58.94.87,1.67.87Zm-.93-5.09c.19-.4.5-.6.93-.6s.74.2.93.6c.2.4.29,1.01.29,1.84s-.1,1.44-.29,1.84c-.19.4-.5.6-.93.6s-.73-.2-.93-.6c-.2-.4-.3-1.01-.3-1.83s.1-1.45.29-1.85Z" fill="#1d1d1b"/>
  <path d="m96.57,85.93h1v1.73c-.29.18-.61.26-.98.26-.48,0-.83-.19-1.07-.58-.23-.38-.35-1.01-.35-1.87s.15-1.45.44-1.84c.29-.39.67-.59,1.13-.59.23,0,.44.04.62.12.19.08.37.21.55.39l.56-.61c-.25-.25-.5-.43-.78-.55-.27-.12-.6-.18-.98-.18-.47,0-.91.13-1.3.37-.39.25-.7.62-.93,1.11-.23.49-.35,1.08-.35,1.77,0,1.06.21,1.88.63,2.43.42.56,1.01.83,1.78.83.39,0,.74-.05,1.06-.15.32-.1.63-.24.93-.42v-3.05h-2.07l.1.81Z" fill="#1d1d1b"/>
  <path d="m18.22,75.52c0,.52-.08.91-.25,1.16-.17.25-.44.38-.8.38s-.62-.12-.79-.38c-.17-.25-.25-.64-.25-1.16v-4.02h-.99v4.22c0,.66.18,1.19.54,1.58.35.39.86.59,1.5.59.43,0,.8-.09,1.11-.28.31-.18.54-.44.71-.77.16-.33.24-.7.24-1.13v-4.22h-1v4.02Z" fill="#1d1d1b"/>
  <polygon points="112.7 72.36 114.48 72.36 114.48 77.77 115.47 77.77 115.47 72.36 117.18 72.36 117.28 71.5 112.7 71.5 112.7 72.36" fill="#1d1d1b"/>
  <polygon points="121.43 74.47 120.03 71.5 118.93 71.5 120.91 75.38 120.91 77.77 121.91 77.77 121.91 75.37 123.89 71.5 122.84 71.5 121.43 74.47" fill="#1d1d1b"/>
  <polygon points="10.14 74.98 12.28 74.98 12.28 74.19 10.14 74.19 10.14 72.3 12.59 72.3 12.7 71.5 9.14 71.5 9.14 77.77 12.75 77.77 12.75 76.97 10.14 76.97 10.14 74.98" fill="#1d1d1b"/>
  <polygon points="102.65 85.32 101.25 82.35 100.16 82.35 102.13 86.23 102.13 88.62 103.13 88.62 103.13 86.22 105.11 82.35 104.06 82.35 102.65 85.32" fill="#1d1d1b"/>
  <polygon points="107.13 72.3 108.41 72.3 108.41 76.97 107.13 76.97 107.13 77.77 110.69 77.77 110.69 76.97 109.41 76.97 109.41 72.3 110.69 72.3 110.69 71.5 107.13 71.5 107.13 72.3" fill="#1d1d1b"/>
  <path d="m57.23,71.5h-.88v2.86c0,.49.01.91.04,1.27.03.36.06.76.1,1.21l-1.89-5.34h-1.29v6.27h.88v-2.85c0-.67-.05-1.5-.14-2.49l1.89,5.34h1.29v-6.27Z" fill="#1d1d1b"/>
  <polygon points="34.76 88.62 35.75 88.62 35.75 85.95 37.98 85.95 37.98 85.15 35.75 85.15 35.75 83.15 38.29 83.15 38.39 82.35 34.76 82.35 34.76 88.62" fill="#1d1d1b"/>
  <polygon points="91.83 72.3 91.94 71.5 88.38 71.5 88.38 77.77 91.99 77.77 91.99 76.98 89.37 76.98 89.37 74.98 91.52 74.98 91.52 74.19 89.37 74.19 89.37 72.3 91.83 72.3" fill="#1d1d1b"/>
  <polygon points="79.26 72.3 79.26 71.5 75.7 71.5 75.7 72.3 76.98 72.3 76.98 76.97 75.7 76.97 75.7 77.77 79.26 77.77 79.26 76.97 77.98 76.97 77.98 72.3 79.26 72.3" fill="#1d1d1b"/>
  <path d="m77.92,82.22c-.72,0-1.28.3-1.67.89-.39.59-.58,1.39-.58,2.38s.19,1.8.58,2.38c.38.58.94.87,1.67.87s1.28-.29,1.67-.88c.39-.59.58-1.38.58-2.38s-.19-1.8-.58-2.39c-.39-.58-.94-.88-1.67-.88Zm.93,5.1c-.19.4-.51.6-.93.6s-.73-.2-.93-.6c-.2-.4-.29-1.01-.29-1.83s.1-1.45.29-1.85c.19-.4.51-.6.93-.6s.74.2.93.6c.19.4.29,1.01.29,1.84s-.1,1.44-.29,1.84Z" fill="#1d1d1b"/>
  <polygon points="66.03 84.9 64.09 84.9 64.09 82.35 63.1 82.35 63.1 88.62 64.09 88.62 64.09 85.76 66.03 85.76 66.03 88.62 67.02 88.62 67.02 82.35 66.03 82.35 66.03 84.9" fill="#1d1d1b"/>
  <path d="m59.75,87.74c-.2.09-.45.14-.73.14-.5,0-.89-.2-1.19-.59-.3-.39-.45-1-.45-1.82s.15-1.45.45-1.84c.3-.39.69-.59,1.17-.59s.87.15,1.23.46l.51-.65c-.25-.22-.51-.38-.79-.48-.27-.1-.6-.15-.99-.15-.49,0-.93.13-1.33.38-.4.26-.72.63-.95,1.12-.23.49-.35,1.08-.35,1.76s.11,1.28.34,1.77c.23.49.54.86.94,1.11.4.25.85.38,1.36.38.75,0,1.37-.25,1.85-.74l-.48-.65c-.2.17-.4.3-.6.4Z" fill="#1d1d1b"/>
  <path d="m70.33,74.93c0-.67-.05-1.5-.14-2.49l1.88,5.34h1.29v-6.27h-.88v2.86c0,.49.01.91.04,1.27.03.36.06.76.1,1.21l-1.89-5.34h-1.29v6.27h.88v-2.85Z" fill="#1d1d1b"/>
  <path d="m66.03,75.52c0,.52-.08.91-.25,1.16-.17.25-.44.38-.8.38s-.62-.12-.79-.38c-.17-.25-.25-.64-.25-1.16v-4.02h-.99v4.22c0,.66.18,1.19.53,1.58.36.39.86.59,1.5.59.43,0,.8-.09,1.11-.28.31-.18.54-.44.71-.77.16-.33.25-.7.25-1.13v-4.22h-1v4.02Z" fill="#1d1d1b"/>
  <path d="m102.71,77.07c-.64,0-1.18-.22-1.63-.65l-.55.64c.54.56,1.26.84,2.18.84.47,0,.87-.08,1.21-.24.34-.16.6-.38.78-.66.18-.29.27-.62.27-.99,0-.55-.15-.96-.45-1.24-.3-.29-.73-.52-1.3-.7-.36-.11-.64-.22-.84-.31-.2-.09-.34-.2-.42-.31-.08-.11-.12-.26-.12-.42,0-.26.1-.46.29-.6.2-.14.46-.21.78-.21.53,0,.99.19,1.4.56l.52-.63c-.53-.5-1.19-.76-1.98-.76-.39,0-.74.07-1.05.22-.31.14-.55.34-.72.6-.18.26-.26.55-.26.89,0,.47.15.84.46,1.13.31.28.79.53,1.45.74.32.1.57.2.74.3.17.1.29.22.36.34.07.13.11.29.11.47,0,.32-.12.57-.35.75-.23.18-.52.26-.88.26Z" fill="#1d1d1b"/>
  <polygon points="44.16 83.2 45.94 83.2 45.94 88.62 46.93 88.62 46.93 83.2 48.64 83.2 48.74 82.35 44.16 82.35 44.16 83.2" fill="#1d1d1b"/>
  <polygon points="83.63 82.35 82.64 82.35 82.64 88.62 86.17 88.62 86.28 87.74 83.63 87.74 83.63 82.35" fill="#1d1d1b"/>
  <path d="m72.61,85.2c0,.48.01.91.04,1.27.03.36.06.77.1,1.21l-1.89-5.34h-1.29v6.27h.88v-2.85c0-.67-.05-1.5-.14-2.49l1.88,5.34h1.29v-6.27h-.88v2.85Z" fill="#1d1d1b"/>
  <polygon points="44.26 72.3 44.37 71.5 40.81 71.5 40.81 77.77 44.42 77.77 44.42 76.97 41.81 76.97 41.81 74.98 43.95 74.98 43.95 74.19 41.81 74.19 41.81 72.3 44.26 72.3" fill="#1d1d1b"/>
  <polygon points="83.93 76.78 82.53 71.5 81.47 71.5 83.34 77.77 84.47 77.77 86.35 71.5 85.34 71.5 83.93 76.78" fill="#1d1d1b"/>
  <polygon points="51.79 85.83 53.93 85.83 53.93 85.04 51.79 85.04 51.79 83.15 54.24 83.15 54.35 82.35 50.8 82.35 50.8 88.62 54.4 88.62 54.4 87.82 51.79 87.82 51.79 85.83" fill="#1d1d1b"/>
  <path d="m49.46,71.5h-1.23l-1.88,6.27h1.02l.41-1.51h2.11l.41,1.51h1.05l-1.89-6.27Zm-1.48,3.95l.85-3.13.85,3.13h-1.7Z" fill="#1d1d1b"/>
  <path d="m36.34,71.5h-1.64v6.27h.99v-2.24h.72c.71,0,1.28-.17,1.69-.5.41-.34.62-.86.62-1.56,0-.66-.21-1.15-.62-1.48-.41-.33-1-.5-1.76-.5Zm1.01,2.95c-.22.2-.53.29-.93.29h-.73v-2.45h.72c.85,0,1.27.4,1.27,1.18,0,.45-.11.78-.33.97Z" fill="#1d1d1b"/>
  <polygon points="125.5 43.34 125.5 35.7 120.57 35.7 120.57 43.34 113.04 43.34 113.04 48.35 120.57 48.35 120.57 55.99 125.5 55.99 125.5 48.35 133.03 48.35 133.03 43.34 125.5 43.34" fill="#1d1d1b"/>
  <rect x="96.88" y="35.7" width="4.94" height="28.05" fill="#1d1d1b"/>
  <path d="m85.66,63.75V30.18h27.38v-5.01h-32.28l-.03,33.57h-8.83c-5.12,0-8.83-3.36-8.83-7.98v-25.59h-4.94v16.22c-.07,9.73-7.44,17.35-16.77,17.35-7.74,0-13.53-3.87-15.6-10.38h11.67c8.85,0,13.47-6.3,13.47-12.52,0-5.89-4.5-11.85-13.1-11.85-9.65,0-17.79,8.67-17.79,18.92,0,.14,0,.29,0,.43H0v5.01h20.62c2.24,9.37,10.33,15.39,20.72,15.39,6.93,0,13.37-3.32,17.41-8.93,1.76,5.38,6.9,8.93,13.13,8.93h13.77Zm-60.73-20.41c0-.14,0-.29,0-.43,0-7.41,6.01-13.91,12.86-13.91,6.46,0,8.16,4.48,8.16,6.84,0,5.16-4.42,7.5-8.54,7.5h-12.48Z" fill="#1d1d1b"/>
</svg>