<?xml version="1.0" encoding="UTF-8"?>
<svg id="eut_kurz" data-name="eut+ kurz" xmlns="http://www.w3.org/2000/svg" width="46.93mm" height="22.49mm" viewBox="0 0 133.03 63.75">
  <path d="m39.19,4.62c0-.97.55-1.47,1.38-1.47s1.36.49,1.36,1.47v3.41h.81v-3.5c0-.88.57-1.38,1.38-1.38s1.36.49,1.36,1.47v3.41h.81v-3.54c0-.64-.2-1.16-.59-1.54-.34-.33-.83-.52-1.43-.52-.77,0-1.39.31-1.82.92-.34-.61-.93-.92-1.7-.92-.62,0-1.17.22-1.56.67v-.61h-.81v5.53h.81v-3.41Z" fill="#1d1d1b"/>
  <path d="m50.86,8.1c.95,0,1.46-.29,2.02-.86l-.55-.48c-.44.44-.81.63-1.45.63-1.06,0-1.63-.7-1.63-1.91h3.73v-.37c0-1.64-.84-2.67-2.27-2.67s-2.27,1.04-2.27,2.83c0,1.96.95,2.84,2.42,2.84Zm-1.44-4.15c.21-.51.71-.83,1.29-.83s1.08.33,1.29.83c.12.3.15.47.17.92h-2.92c.02-.45.05-.62.17-.92Z" fill="#1d1d1b"/>
  <path d="m55.97,4.62c0-.97.55-1.47,1.38-1.47s1.36.49,1.36,1.47v3.41h.81v-3.5c0-.88.57-1.38,1.38-1.38s1.36.49,1.36,1.47v3.41h.81v-3.54c0-.64-.2-1.16-.6-1.54-.34-.33-.83-.52-1.43-.52-.78,0-1.39.31-1.82.92-.34-.61-.93-.92-1.7-.92-.62,0-1.17.22-1.56.67v-.61h-.81v5.53h.81v-3.41Z" fill="#1d1d1b"/>
  <path d="m66.31,7.36c.45.59.95.73,1.56.73.56,0,1.06-.19,1.35-.48.56-.56.67-1.48.67-2.35s-.11-1.79-.67-2.35c-.29-.29-.79-.48-1.35-.48-.61,0-1.11.13-1.56.71V.02h-.81v8.01h.81v-.66Zm1.39-4.22c1.2,0,1.38,1.03,1.38,2.11s-.18,2.12-1.38,2.12-1.39-1.04-1.39-2.12.19-2.11,1.39-2.11Z" fill="#1d1d1b"/>
  <path d="m74.3,8.1c.95,0,1.46-.29,2.02-.86l-.55-.48c-.44.44-.81.63-1.45.63-1.06,0-1.63-.7-1.63-1.91h3.73v-.37c0-1.64-.84-2.67-2.27-2.67s-2.27,1.04-2.27,2.83c0,1.96.96,2.84,2.42,2.84Zm-1.44-4.15c.21-.51.71-.83,1.29-.83s1.08.33,1.29.83c.12.3.15.47.17.92h-2.92c.02-.45.04-.62.17-.92Z" fill="#1d1d1b"/>
  <path d="m79.41,4.63c0-.84.52-1.48,1.33-1.48.43,0,.65.1.95.4l.6-.61c-.39-.39-.8-.52-1.33-.52-.64,0-1.25.28-1.55.74v-.67h-.81v5.53h.81v-3.4Z" fill="#1d1d1b"/>
  <path d="m88.1,8.1c.68,0,1.2-.25,1.58-.63.56-.57.68-1.35.68-2.21s-.11-1.63-.68-2.2c-.38-.38-.91-.63-1.58-.63s-1.2.25-1.59.63c-.56.57-.67,1.35-.67,2.2s.11,1.63.67,2.21c.38.38.91.63,1.59.63Zm-1-4.54c.26-.26.61-.4,1-.4s.75.15,1.01.4c.41.41.44,1.09.44,1.71s-.03,1.31-.44,1.71c-.26.26-.62.41-1.01.41s-.74-.15-1-.41c-.41-.4-.45-1.09-.45-1.71s.04-1.3.45-1.71Z" fill="#1d1d1b"/>
  <path d="m92.66,8.03h.81V3.15h1.18v-.62h-1.18v-1.02c0-.51.22-.81.74-.81h.44v-.7h-.58c-.95,0-1.41.66-1.41,1.48v1.05h-.71v.62h.71v4.88Z" fill="#1d1d1b"/>
  <polygon points="125.5 43.34 125.5 35.7 120.57 35.7 120.57 43.34 113.04 43.34 113.04 48.35 120.57 48.35 120.57 55.99 125.5 55.99 125.5 48.35 133.03 48.35 133.03 43.34 125.5 43.34" fill="#1d1d1b"/>
  <rect x="96.88" y="35.7" width="4.94" height="28.05" fill="#1d1d1b"/>
  <path d="m80.72,58.73h-8.83c-5.12,0-8.83-3.36-8.83-7.98v-25.59h-4.94v16.22c-.07,9.73-7.44,17.35-16.77,17.35-7.74,0-13.53-3.87-15.6-10.38h11.67c8.85,0,13.47-6.3,13.47-12.52,0-5.89-4.5-11.85-13.1-11.85-9.65,0-17.8,8.67-17.8,18.92,0,.14,0,.29,0,.43H0v5.01h20.62c2.24,9.36,10.33,15.39,20.72,15.39,6.93,0,13.37-3.32,17.41-8.93,1.75,5.38,6.9,8.93,13.13,8.93h13.77V30.18h27.38v-5.01h-32.28l-.03,33.57Zm-55.79-15.39c0-.14,0-.29,0-.43,0-7.41,6.01-13.91,12.86-13.91,6.46,0,8.16,4.47,8.16,6.84,0,5.16-4.42,7.51-8.54,7.51h-12.48Z" fill="#1d1d1b"/>
</svg>