<?xml version="1.0" encoding="UTF-8"?>
<svg id="h_da_rechts_groß_en" data-name="h_da rechts groß en" xmlns="http://www.w3.org/2000/svg" width="154.74mm" height="20.84mm" viewBox="0 0 438.64 59.08">
  <path d="m121.1,38.07c0,2.34-.36,3.88-1.39,4.83-1.68,1.61-3.36,1.83-6,1.83-3.73,0-5.49-1.76-5.49-4.39s1.9-4.32,5.34-4.32h7.53v2.05Zm9.51,14.05v-25.09c0-8.92-5.56-13.46-16.24-13.46-6.36,0-10.02,1.17-13.75,5.27l6.07,5.93c1.97-2.27,3.66-3.15,7.32-3.15,5.05,0,7.09,1.83,7.09,6v1.9h-9c-8.85,0-13.02,4.98-13.02,11.05,0,3.36,1.1,6.44,3.15,8.56,2.27,2.27,5.41,3.36,9.73,3.36s6.8-1.1,9.36-3.66v3.29h9.29Zm-48.42-19.09c0,6.22-.81,10.97-6.51,10.97s-6.43-4.75-6.43-10.97.73-10.9,6.43-10.9,6.51,4.68,6.51,10.9m9.51,19.09V.03h-9.51v17.34c-2.49-2.78-5.41-3.81-9.29-3.81s-7.17,1.32-9.29,3.44c-3.81,3.81-3.88,10.31-3.88,16.02s.07,12.29,3.88,16.09c2.12,2.12,5.63,3.44,9.36,3.44,4.03,0,6.8-1.1,9.44-4.02v3.58h9.29Zm-32.53,4.81h-22.67v2.15h22.67v-2.15Zm-27.78-4.81v-24.65c0-8.05-4.39-13.9-12.73-13.9-3.37,0-6.59,1.32-9.14,3.95V.03H0v52.08h9.51v-23.26c0-4.98,3.15-6.73,6.14-6.73s6.22,1.68,6.22,6.73v23.26h9.51Z" fill="#1d1d1b"/>
  <g>
    <path d="m168.39,21.72v-1.64c-1.15,1.4-2.4,1.82-4.07,1.82-1.55,0-2.92-.52-3.77-1.37-1.55-1.55-1.73-4.19-1.73-6.53s.18-4.95,1.73-6.5c.85-.85,2.19-1.37,3.74-1.37,1.64,0,2.92.4,4.04,1.73V.09h3.1v21.63h-3.04Zm-3.25-12.82c-2.79,0-3.22,2.37-3.22,5.1s.43,5.13,3.22,5.13,3.19-2.4,3.19-5.13-.39-5.1-3.19-5.1Z" fill="#1d1d1b"/>
    <path d="m184.4,21.72v-1.4c-1.12,1.12-2.19,1.58-4.1,1.58s-3.19-.46-4.13-1.4c-.79-.82-1.21-2-1.21-3.31,0-2.58,1.79-4.44,5.32-4.44h4.07v-1.09c0-1.94-.97-2.89-3.37-2.89-1.7,0-2.52.4-3.37,1.49l-2.04-1.91c1.46-1.7,2.98-2.22,5.53-2.22,4.22,0,6.35,1.79,6.35,5.29v10.3h-3.04Zm-.06-6.81h-3.62c-1.82,0-2.76.82-2.76,2.22s.88,2.19,2.83,2.19c1.18,0,2.07-.09,2.89-.88.46-.46.67-1.18.67-2.28v-1.25Z" fill="#1d1d1b"/>
    <path d="m200.35,9.93c-.7-.7-1.25-1.03-2.31-1.03-1.67,0-3.07,1.34-3.07,3.46v9.36h-3.1V6.32h3.04v1.67c.79-1.09,2.37-1.85,4.1-1.85,1.49,0,2.61.4,3.68,1.46l-2.34,2.34Z" fill="#1d1d1b"/>
    <path d="m224.27,21.72v-9.39c0-2.4-1.37-3.43-3.1-3.43s-3.19,1.06-3.19,3.28v9.54h-3.1v-9.39c0-2.4-1.37-3.43-3.1-3.43s-3.19,1.06-3.19,3.43v9.39h-3.1V6.32h3.04v1.55c1.03-1.12,2.55-1.73,4.1-1.73,1.91,0,3.4.76,4.37,2.25,1.25-1.52,2.79-2.25,4.83-2.25,1.58,0,2.98.52,3.89,1.4,1.18,1.15,1.64,2.61,1.64,4.34v9.84h-3.1Z" fill="#1d1d1b"/>
    <path d="m237.05,21.9c-2.52,0-4.65-.43-6.47-2.22l2.04-2.04c1.25,1.28,2.92,1.61,4.44,1.61,1.88,0,3.37-.67,3.37-2.13,0-1.03-.58-1.7-2.07-1.82l-2.46-.21c-2.89-.24-4.56-1.55-4.56-4.25,0-3.01,2.58-4.71,5.8-4.71,2.31,0,4.28.49,5.71,1.73l-1.94,1.97c-.97-.82-2.34-1.12-3.8-1.12-1.85,0-2.79.82-2.79,1.98,0,.91.49,1.61,2.13,1.76l2.43.21c2.89.24,4.59,1.61,4.59,4.34,0,3.22-2.73,4.89-6.41,4.89Z" fill="#1d1d1b"/>
    <path d="m251.86,21.72c-2.89,0-4.22-2.07-4.22-4.28v-8.48h-1.76v-2.37h1.76V1.91h3.1v4.68h2.98v2.37h-2.98v8.32c0,1.12.55,1.79,1.7,1.79h1.28v2.64h-1.85Z" fill="#1d1d1b"/>
    <path d="m265.97,21.72v-1.4c-1.12,1.12-2.19,1.58-4.1,1.58s-3.19-.46-4.13-1.4c-.79-.82-1.21-2-1.21-3.31,0-2.58,1.79-4.44,5.32-4.44h4.07v-1.09c0-1.94-.97-2.89-3.37-2.89-1.7,0-2.52.4-3.37,1.49l-2.04-1.91c1.46-1.7,2.98-2.22,5.53-2.22,4.22,0,6.35,1.79,6.35,5.29v10.3h-3.04Zm-.06-6.81h-3.62c-1.82,0-2.76.82-2.76,2.22s.88,2.19,2.83,2.19c1.18,0,2.07-.09,2.89-.88.46-.46.67-1.18.67-2.28v-1.25Z" fill="#1d1d1b"/>
    <path d="m282.42,21.72v-1.64c-1.15,1.4-2.4,1.82-4.07,1.82-1.55,0-2.92-.52-3.77-1.37-1.55-1.55-1.73-4.19-1.73-6.53s.18-4.95,1.73-6.5c.85-.85,2.19-1.37,3.74-1.37,1.64,0,2.92.4,4.04,1.73V.09h3.1v21.63h-3.04Zm-3.25-12.82c-2.79,0-3.22,2.37-3.22,5.1s.43,5.13,3.22,5.13,3.19-2.4,3.19-5.13-.39-5.1-3.19-5.1Z" fill="#1d1d1b"/>
    <path d="m294.74,21.72c-2.89,0-4.22-2.07-4.22-4.28v-8.48h-1.76v-2.37h1.76V1.91h3.1v4.68h2.98v2.37h-2.98v8.32c0,1.12.55,1.79,1.7,1.79h1.28v2.64h-1.85Z" fill="#1d1d1b"/>
    <path d="m317.13,21.72v-1.55c-1.06,1.15-2.55,1.73-4.1,1.73s-2.89-.52-3.8-1.4c-1.18-1.15-1.55-2.61-1.55-4.34V6.32h3.1v9.39c0,2.4,1.37,3.43,3.1,3.43s3.19-1.06,3.19-3.43V6.32h3.1v15.4h-3.04Z" fill="#1d1d1b"/>
    <path d="m334.09,21.72v-9.39c0-2.4-1.37-3.43-3.1-3.43s-3.19,1.06-3.19,3.43v9.39h-3.1V6.32h3.04v1.55c1.06-1.15,2.55-1.73,4.1-1.73s2.89.52,3.8,1.4c1.18,1.15,1.55,2.61,1.55,4.34v9.84h-3.1Z" fill="#1d1d1b"/>
    <path d="m341.51,3.28V0h3.28v3.28h-3.28Zm.09,18.44V6.32h3.1v15.4h-3.1Z" fill="#1d1d1b"/>
    <path d="m355.73,21.72h-2.52l-5.65-15.4h3.28l3.65,10.85,3.62-10.85h3.28l-5.65,15.4Z" fill="#1d1d1b"/>
    <path d="m366.03,14.92c0,2.64,1.4,4.31,3.92,4.31,1.73,0,2.64-.49,3.74-1.58l1.97,1.85c-1.58,1.58-3.07,2.4-5.77,2.4-3.86,0-6.93-2.04-6.93-7.9,0-4.98,2.58-7.87,6.53-7.87s6.53,3.04,6.53,7.41v1.37h-10Zm6.5-4.25c-.49-1.15-1.58-1.94-3.04-1.94s-2.58.79-3.07,1.94c-.3.7-.36,1.15-.39,2.1h6.93c-.03-.94-.12-1.4-.43-2.1Z" fill="#1d1d1b"/>
    <path d="m388.28,9.93c-.7-.7-1.25-1.03-2.31-1.03-1.67,0-3.07,1.34-3.07,3.46v9.36h-3.1V6.32h3.04v1.67c.79-1.09,2.37-1.85,4.1-1.85,1.49,0,2.61.4,3.68,1.46l-2.34,2.34Z" fill="#1d1d1b"/>
    <path d="m398.32,21.9c-2.52,0-4.65-.43-6.47-2.22l2.04-2.04c1.25,1.28,2.92,1.61,4.44,1.61,1.88,0,3.37-.67,3.37-2.13,0-1.03-.58-1.7-2.07-1.82l-2.46-.21c-2.89-.24-4.56-1.55-4.56-4.25,0-3.01,2.58-4.71,5.8-4.71,2.31,0,4.28.49,5.71,1.73l-1.94,1.97c-.97-.82-2.34-1.12-3.8-1.12-1.85,0-2.79.82-2.79,1.98,0,.91.49,1.61,2.13,1.76l2.43.21c2.89.24,4.59,1.61,4.59,4.34,0,3.22-2.73,4.89-6.41,4.89Z" fill="#1d1d1b"/>
    <path d="m408.1,3.28V0h3.28v3.28h-3.28Zm.09,18.44V6.32h3.1v15.4h-3.1Z" fill="#1d1d1b"/>
    <path d="m420.53,21.72c-2.89,0-4.22-2.07-4.22-4.28v-8.48h-1.76v-2.37h1.76V1.91h3.1v4.68h2.98v2.37h-2.98v8.32c0,1.12.55,1.79,1.7,1.79h1.28v2.64h-1.85Z" fill="#1d1d1b"/>
    <path d="m431.84,24.79c-.3.85-.67,1.46-1.12,1.91-.85.85-1.97,1.12-3.16,1.12h-1.25v-2.79h.79c1.31,0,1.76-.4,2.22-1.64l.85-2.4-5.38-14.67h3.28l3.68,10.85,3.58-10.85h3.31l-6.81,18.47Z" fill="#1d1d1b"/>
    <path d="m169.85,50.47c-1,1.03-2.52,1.82-4.62,1.82s-3.58-.79-4.59-1.82c-1.46-1.52-1.82-3.46-1.82-6.08s.37-4.53,1.82-6.05c1-1.03,2.49-1.82,4.59-1.82s3.62.79,4.62,1.82c1.46,1.52,1.82,3.46,1.82,6.05s-.36,4.56-1.82,6.08Zm-2.34-10.3c-.58-.58-1.37-.88-2.28-.88s-1.67.3-2.25.88c-.94.94-1.06,2.55-1.06,4.22s.12,3.28,1.06,4.22c.58.58,1.34.91,2.25.91s1.7-.33,2.28-.91c.94-.94,1.06-2.55,1.06-4.22s-.12-3.28-1.06-4.22Z" fill="#1d1d1b"/>
    <path d="m179.09,39.35v12.76h-3.1v-12.76h-1.76v-2.37h1.76v-2.37c0-2.22,1.34-4.28,4.22-4.28h1.94v2.64h-1.37c-1.15,0-1.7.67-1.7,1.79v2.22h3.07v2.37h-3.07Z" fill="#1d1d1b"/>
    <path d="m201.06,52.11v-1.4c-1.12,1.12-2.19,1.58-4.1,1.58s-3.19-.46-4.13-1.4c-.79-.82-1.21-2-1.21-3.31,0-2.58,1.79-4.44,5.32-4.44h4.07v-1.09c0-1.94-.97-2.89-3.37-2.89-1.7,0-2.52.4-3.37,1.49l-2.04-1.91c1.46-1.7,2.98-2.22,5.53-2.22,4.22,0,6.35,1.79,6.35,5.29v10.3h-3.04Zm-.06-6.81h-3.62c-1.82,0-2.76.82-2.76,2.22s.88,2.19,2.83,2.19c1.18,0,2.07-.09,2.89-.88.46-.46.67-1.18.67-2.28v-1.25Z" fill="#1d1d1b"/>
    <path d="m219.41,50.92c-.85.85-2.19,1.37-3.74,1.37-1.64,0-2.92-.43-4.04-1.76v7.81h-3.1v-21.63h3.04v1.64c1.15-1.4,2.4-1.82,4.07-1.82,1.55,0,2.92.52,3.77,1.37,1.55,1.55,1.73,4.16,1.73,6.5s-.18,4.98-1.73,6.53Zm-4.56-11.64c-2.79,0-3.22,2.37-3.22,5.1s.43,5.13,3.22,5.13,3.19-2.4,3.19-5.13-.39-5.1-3.19-5.1Z" fill="#1d1d1b"/>
    <path d="m236.01,50.92c-.85.85-2.19,1.37-3.74,1.37-1.64,0-2.92-.43-4.04-1.76v7.81h-3.1v-21.63h3.04v1.64c1.15-1.4,2.4-1.82,4.07-1.82,1.55,0,2.92.52,3.77,1.37,1.55,1.55,1.73,4.16,1.73,6.5s-.18,4.98-1.73,6.53Zm-4.56-11.64c-2.79,0-3.22,2.37-3.22,5.1s.43,5.13,3.22,5.13,3.19-2.4,3.19-5.13-.39-5.1-3.19-5.1Z" fill="#1d1d1b"/>
    <path d="m245.84,52.11c-2.95,0-4.22-1.97-4.22-4.25v-17.38h3.1v17.2c0,1.19.42,1.79,1.67,1.79h1.37v2.64h-1.91Z" fill="#1d1d1b"/>
    <path d="m250.86,33.67v-3.28h3.28v3.28h-3.28Zm.09,18.44v-15.4h3.1v15.4h-3.1Z" fill="#1d1d1b"/>
    <path d="m260.89,45.3c0,2.64,1.4,4.31,3.92,4.31,1.73,0,2.64-.49,3.74-1.58l1.97,1.85c-1.58,1.58-3.07,2.4-5.77,2.4-3.86,0-6.93-2.04-6.93-7.9,0-4.98,2.58-7.87,6.53-7.87s6.53,3.04,6.53,7.41v1.37h-10Zm6.5-4.25c-.49-1.15-1.58-1.94-3.04-1.94s-2.58.79-3.07,1.94c-.3.7-.36,1.15-.39,2.1h6.93c-.03-.94-.12-1.4-.43-2.1Z" fill="#1d1d1b"/>
    <path d="m283.67,52.11v-1.64c-1.15,1.4-2.4,1.82-4.07,1.82-1.55,0-2.92-.52-3.77-1.37-1.55-1.55-1.73-4.19-1.73-6.53s.18-4.95,1.73-6.5c.85-.85,2.19-1.37,3.74-1.37,1.64,0,2.92.4,4.04,1.73v-7.78h3.1v21.63h-3.04Zm-3.25-12.82c-2.79,0-3.22,2.37-3.22,5.1s.43,5.13,3.22,5.13,3.19-2.4,3.19-5.13-.39-5.1-3.19-5.1Z" fill="#1d1d1b"/>
    <path d="m303.91,52.29c-2.52,0-4.65-.43-6.47-2.22l2.04-2.04c1.25,1.28,2.92,1.61,4.44,1.61,1.88,0,3.37-.67,3.37-2.13,0-1.03-.58-1.7-2.07-1.82l-2.46-.21c-2.89-.24-4.56-1.55-4.56-4.25,0-3.01,2.58-4.71,5.8-4.71,2.31,0,4.28.49,5.71,1.73l-1.94,1.97c-.97-.82-2.34-1.12-3.8-1.12-1.85,0-2.79.82-2.79,1.98,0,.91.49,1.61,2.13,1.76l2.43.21c2.89.24,4.59,1.61,4.59,4.34,0,3.22-2.73,4.89-6.41,4.89Z" fill="#1d1d1b"/>
    <path d="m320.13,52.29c-3.46,0-6.87-2.13-6.87-7.9s3.4-7.87,6.87-7.87c2.13,0,3.62.61,5.07,2.16l-2.13,2.07c-.97-1.06-1.73-1.46-2.95-1.46s-2.19.49-2.86,1.37c-.67.85-.91,1.94-.91,3.74s.24,2.92.91,3.77c.67.88,1.67,1.37,2.86,1.37s1.97-.39,2.95-1.46l2.13,2.04c-1.46,1.55-2.95,2.19-5.07,2.19Z" fill="#1d1d1b"/>
    <path d="m328.44,33.67v-3.28h3.28v3.28h-3.28Zm.09,18.44v-15.4h3.1v15.4h-3.1Z" fill="#1d1d1b"/>
    <path d="m338.46,45.3c0,2.64,1.4,4.31,3.92,4.31,1.73,0,2.64-.49,3.74-1.58l1.97,1.85c-1.58,1.58-3.07,2.4-5.77,2.4-3.86,0-6.93-2.04-6.93-7.9,0-4.98,2.58-7.87,6.53-7.87s6.53,3.04,6.53,7.41v1.37h-10Zm6.5-4.25c-.49-1.15-1.58-1.94-3.04-1.94s-2.58.79-3.07,1.94c-.3.7-.36,1.15-.39,2.1h6.93c-.03-.94-.12-1.4-.43-2.1Z" fill="#1d1d1b"/>
    <path d="m361.63,52.11v-9.39c0-2.4-1.37-3.43-3.1-3.43s-3.19,1.06-3.19,3.43v9.39h-3.1v-15.4h3.04v1.55c1.06-1.15,2.55-1.73,4.1-1.73s2.89.52,3.8,1.4c1.18,1.15,1.55,2.61,1.55,4.34v9.84h-3.1Z" fill="#1d1d1b"/>
    <path d="m375.27,52.29c-3.46,0-6.87-2.13-6.87-7.9s3.4-7.87,6.87-7.87c2.13,0,3.62.61,5.07,2.16l-2.13,2.07c-.97-1.06-1.73-1.46-2.95-1.46s-2.19.49-2.86,1.37c-.67.85-.91,1.94-.91,3.74s.24,2.92.91,3.77c.67.88,1.67,1.37,2.86,1.37s1.97-.39,2.95-1.46l2.13,2.04c-1.46,1.55-2.95,2.19-5.07,2.19Z" fill="#1d1d1b"/>
    <path d="m385.71,45.3c0,2.64,1.4,4.31,3.92,4.31,1.73,0,2.64-.49,3.74-1.58l1.97,1.85c-1.58,1.58-3.07,2.4-5.77,2.4-3.86,0-6.93-2.04-6.93-7.9,0-4.98,2.58-7.87,6.53-7.87s6.53,3.04,6.53,7.41v1.37h-10Zm6.5-4.25c-.49-1.15-1.58-1.94-3.04-1.94s-2.58.79-3.07,1.94c-.3.7-.36,1.15-.39,2.1h6.93c-.03-.94-.12-1.4-.43-2.1Z" fill="#1d1d1b"/>
    <path d="m404.83,52.29c-2.52,0-4.65-.43-6.47-2.22l2.04-2.04c1.25,1.28,2.92,1.61,4.44,1.61,1.88,0,3.37-.67,3.37-2.13,0-1.03-.58-1.7-2.07-1.82l-2.46-.21c-2.89-.24-4.56-1.55-4.56-4.25,0-3.01,2.58-4.71,5.8-4.71,2.31,0,4.28.49,5.71,1.73l-1.94,1.97c-.97-.82-2.34-1.12-3.8-1.12-1.85,0-2.79.82-2.79,1.98,0,.91.49,1.61,2.13,1.76l2.43.21c2.89.24,4.59,1.61,4.59,4.34,0,3.22-2.73,4.89-6.41,4.89Z" fill="#1d1d1b"/>
  </g>
</svg>