<?xml version="1.0" encoding="UTF-8"?>
<svg id="h_da_rechts" data-name="h_da rechts" xmlns="http://www.w3.org/2000/svg" width="100.86mm" height="20.83mm" viewBox="0 0 285.89 59.05">
  <path d="m121.1,38.04c0,2.34-.36,3.88-1.39,4.83-1.68,1.61-3.36,1.83-6,1.83-3.73,0-5.49-1.76-5.49-4.39s1.9-4.32,5.34-4.32h7.53v2.05Zm9.51,14.05v-25.09c0-8.92-5.56-13.46-16.24-13.46-6.36,0-10.02,1.17-13.75,5.27l6.07,5.93c1.97-2.27,3.66-3.15,7.32-3.15,5.05,0,7.09,1.83,7.09,6v1.9h-9c-8.85,0-13.02,4.98-13.02,11.05,0,3.36,1.1,6.44,3.15,8.56,2.27,2.27,5.41,3.36,9.73,3.36s6.8-1.1,9.36-3.66v3.29h9.29Zm-48.42-19.09c0,6.22-.81,10.97-6.51,10.97s-6.43-4.75-6.43-10.97.73-10.9,6.43-10.9,6.51,4.68,6.51,10.9m9.51,19.09V0h-9.51v17.34c-2.49-2.78-5.41-3.81-9.29-3.81s-7.17,1.32-9.29,3.44c-3.81,3.81-3.88,10.31-3.88,16.02s.07,12.29,3.88,16.09c2.12,2.12,5.63,3.44,9.36,3.44,4.03,0,6.8-1.1,9.44-4.02v3.58h9.29Zm-32.53,4.81h-22.67v2.15h22.67v-2.15Zm-27.78-4.81v-24.65c0-8.05-4.39-13.9-12.73-13.9-3.37,0-6.59,1.32-9.14,3.95V0H0v52.08h9.51v-23.26c0-4.98,3.15-6.73,6.14-6.73s6.22,1.68,6.22,6.73v23.26h9.51Z" fill="#1d1d1b"/>
  <g>
    <path d="m167.43,26.45v-7.97c0-1.97-1.15-2.84-2.61-2.84s-2.64.9-2.64,2.84v7.97h-2.61V8.21h2.61v6.56c.9-.97,2.08-1.46,3.36-1.46,2.89,0,4.51,1.95,4.51,4.77v8.38h-2.61Z" fill="#1d1d1b"/>
    <path d="m182.56,25.07c-.84.87-2.13,1.54-3.89,1.54s-3.02-.67-3.87-1.54c-1.23-1.28-1.54-2.92-1.54-5.12s.31-3.82,1.54-5.1c.85-.87,2.1-1.54,3.87-1.54s3.05.67,3.89,1.54c1.23,1.28,1.54,2.92,1.54,5.1s-.31,3.84-1.54,5.12Zm-1.97-8.69c-.49-.49-1.15-.74-1.92-.74s-1.41.26-1.9.74c-.79.79-.9,2.15-.9,3.56s.1,2.77.9,3.56c.49.49,1.13.77,1.9.77s1.43-.28,1.92-.77c.79-.79.9-2.15.9-3.56s-.1-2.77-.9-3.56Z" fill="#1d1d1b"/>
    <path d="m192.65,26.61c-2.92,0-5.79-1.79-5.79-6.66s2.87-6.64,5.79-6.64c1.79,0,3.05.51,4.28,1.82l-1.79,1.74c-.82-.9-1.46-1.23-2.49-1.23s-1.84.41-2.41,1.15c-.56.72-.77,1.64-.77,3.15s.21,2.46.77,3.18c.56.74,1.41,1.15,2.41,1.15s1.67-.33,2.49-1.23l1.79,1.72c-1.23,1.31-2.49,1.84-4.28,1.84Z" fill="#1d1d1b"/>
    <path d="m207.63,26.45v-7.97c0-1.97-1.15-2.84-2.61-2.84s-2.64.9-2.64,2.84v7.97h-2.61V8.21h2.61v6.56c.9-.97,2.08-1.46,3.36-1.46,2.89,0,4.51,1.95,4.51,4.77v8.38h-2.61Z" fill="#1d1d1b"/>
    <path d="m218.42,26.61c-2.13,0-3.92-.36-5.46-1.87l1.72-1.72c1.05,1.08,2.46,1.36,3.74,1.36,1.59,0,2.84-.56,2.84-1.79,0-.87-.49-1.43-1.74-1.54l-2.08-.18c-2.43-.21-3.84-1.31-3.84-3.59,0-2.54,2.18-3.97,4.89-3.97,1.95,0,3.61.41,4.82,1.46l-1.64,1.67c-.82-.69-1.97-.95-3.2-.95-1.56,0-2.36.69-2.36,1.67,0,.77.41,1.36,1.79,1.49l2.05.18c2.43.21,3.87,1.36,3.87,3.66,0,2.72-2.31,4.12-5.41,4.12Z" fill="#1d1d1b"/>
    <path d="m232.14,26.61c-2.92,0-5.79-1.79-5.79-6.66s2.87-6.64,5.79-6.64c1.79,0,3.05.51,4.28,1.82l-1.79,1.74c-.82-.9-1.46-1.23-2.49-1.23s-1.84.41-2.41,1.15c-.56.72-.77,1.64-.77,3.15s.21,2.46.77,3.18c.56.74,1.41,1.15,2.41,1.15s1.67-.33,2.49-1.23l1.79,1.72c-1.23,1.31-2.49,1.84-4.28,1.84Z" fill="#1d1d1b"/>
    <path d="m247.12,26.45v-7.97c0-1.97-1.15-2.84-2.61-2.84s-2.64.9-2.64,2.84v7.97h-2.61V8.21h2.61v6.56c.9-.97,2.08-1.46,3.36-1.46,2.89,0,4.51,1.95,4.51,4.77v8.38h-2.61Z" fill="#1d1d1b"/>
    <path d="m261.34,26.45v-1.31c-.9.97-2.15,1.46-3.46,1.46s-2.43-.44-3.2-1.18c-1-.97-1.31-2.2-1.31-3.66v-8.3h2.61v7.92c0,2.02,1.15,2.9,2.61,2.9s2.69-.9,2.69-2.9v-7.92h2.61v12.99h-2.56Z" fill="#1d1d1b"/>
    <path d="m271.27,26.45c-2.49,0-3.56-1.67-3.56-3.59v-14.65h2.61v14.5c0,1,.36,1.51,1.41,1.51h1.15v2.23h-1.61Z" fill="#1d1d1b"/>
    <path d="m277.47,20.71c0,2.23,1.18,3.64,3.3,3.64,1.46,0,2.23-.41,3.15-1.33l1.67,1.56c-1.33,1.33-2.59,2.02-4.87,2.02-3.25,0-5.84-1.72-5.84-6.66,0-4.2,2.18-6.64,5.51-6.64s5.51,2.56,5.51,6.25v1.15h-8.43Zm5.48-3.59c-.41-.97-1.33-1.64-2.56-1.64s-2.18.67-2.59,1.64c-.26.59-.31.97-.33,1.77h5.84c-.03-.79-.1-1.18-.36-1.77Z" fill="#1d1d1b"/>
    <path d="m167.02,52.07v-1.38c-.97,1.18-2.02,1.54-3.43,1.54-1.31,0-2.46-.44-3.18-1.15-1.31-1.31-1.46-3.54-1.46-5.51s.15-4.18,1.46-5.48c.72-.72,1.84-1.15,3.15-1.15,1.38,0,2.46.33,3.41,1.46v-6.56h2.61v18.24h-2.56Zm-2.74-10.81c-2.36,0-2.72,2-2.72,4.3s.36,4.33,2.72,4.33,2.69-2.02,2.69-4.33-.33-4.3-2.69-4.3Z" fill="#1d1d1b"/>
    <path d="m180.56,52.07v-1.18c-.95.95-1.84,1.33-3.46,1.33s-2.69-.38-3.48-1.18c-.67-.69-1.02-1.69-1.02-2.79,0-2.18,1.51-3.74,4.48-3.74h3.43v-.92c0-1.64-.82-2.43-2.84-2.43-1.43,0-2.13.33-2.84,1.26l-1.72-1.61c1.23-1.44,2.51-1.87,4.66-1.87,3.56,0,5.35,1.51,5.35,4.46v8.69h-2.56Zm-.05-5.74h-3.05c-1.54,0-2.33.69-2.33,1.87s.74,1.84,2.38,1.84c1,0,1.74-.08,2.43-.74.38-.38.56-1,.56-1.92v-1.05Z" fill="#1d1d1b"/>
    <path d="m194.05,42.13c-.59-.59-1.05-.87-1.95-.87-1.41,0-2.59,1.13-2.59,2.92v7.89h-2.61v-12.99h2.56v1.41c.67-.92,2-1.56,3.46-1.56,1.26,0,2.2.33,3.1,1.23l-1.97,1.97Z" fill="#1d1d1b"/>
    <path d="m214.26,52.07v-7.92c0-2.02-1.15-2.9-2.61-2.9s-2.69.9-2.69,2.77v8.04h-2.61v-7.92c0-2.02-1.15-2.9-2.61-2.9s-2.69.9-2.69,2.9v7.92h-2.61v-12.99h2.56v1.31c.87-.95,2.15-1.46,3.46-1.46,1.61,0,2.87.64,3.69,1.9,1.05-1.28,2.36-1.9,4.07-1.9,1.33,0,2.51.44,3.28,1.18,1,.97,1.38,2.2,1.38,3.66v8.3h-2.61Z" fill="#1d1d1b"/>
    <path d="m225.07,52.23c-2.13,0-3.92-.36-5.46-1.87l1.72-1.72c1.05,1.08,2.46,1.36,3.74,1.36,1.59,0,2.84-.56,2.84-1.79,0-.87-.49-1.43-1.74-1.54l-2.07-.18c-2.43-.21-3.84-1.31-3.84-3.59,0-2.54,2.18-3.97,4.89-3.97,1.95,0,3.61.41,4.82,1.46l-1.64,1.67c-.82-.69-1.97-.95-3.2-.95-1.56,0-2.36.69-2.36,1.67,0,.77.41,1.36,1.79,1.49l2.05.18c2.43.21,3.87,1.36,3.87,3.66,0,2.72-2.31,4.12-5.41,4.12Z" fill="#1d1d1b"/>
    <path d="m237.6,52.07c-2.43,0-3.56-1.74-3.56-3.61v-7.15h-1.49v-2h1.49v-3.95h2.61v3.95h2.51v2h-2.51v7.02c0,.95.46,1.51,1.43,1.51h1.08v2.23h-1.56Z" fill="#1d1d1b"/>
    <path d="m249.55,52.07v-1.18c-.95.95-1.84,1.33-3.46,1.33s-2.69-.38-3.48-1.18c-.67-.69-1.02-1.69-1.02-2.79,0-2.18,1.51-3.74,4.48-3.74h3.43v-.92c0-1.64-.82-2.43-2.84-2.43-1.43,0-2.13.33-2.84,1.26l-1.72-1.61c1.23-1.44,2.51-1.87,4.66-1.87,3.56,0,5.35,1.51,5.35,4.46v8.69h-2.56Zm-.05-5.74h-3.05c-1.54,0-2.33.69-2.33,1.87s.74,1.84,2.38,1.84c1,0,1.74-.08,2.43-.74.38-.38.56-1,.56-1.92v-1.05Z" fill="#1d1d1b"/>
    <path d="m263.46,52.07v-1.38c-.97,1.18-2.02,1.54-3.43,1.54-1.31,0-2.46-.44-3.18-1.15-1.31-1.31-1.46-3.54-1.46-5.51s.15-4.18,1.46-5.48c.72-.72,1.84-1.15,3.15-1.15,1.38,0,2.46.33,3.41,1.46v-6.56h2.61v18.24h-2.56Zm-2.74-10.81c-2.36,0-2.72,2-2.72,4.3s.36,4.33,2.72,4.33,2.69-2.02,2.69-4.33-.33-4.3-2.69-4.3Z" fill="#1d1d1b"/>
    <path d="m273.88,52.07c-2.43,0-3.56-1.74-3.56-3.61v-7.15h-1.49v-2h1.49v-3.95h2.61v3.95h2.51v2h-2.51v7.02c0,.95.46,1.51,1.43,1.51h1.08v2.23h-1.56Z" fill="#1d1d1b"/>
  </g>
</svg>