<?xml version="1.0" encoding="UTF-8"?>
<svg xmlns="http://www.w3.org/2000/svg" version="1.1" viewBox="0 0 334.2 120.5">
  <defs>
    <style>
      .cls-1 {
        fill: #fff;
      }
    </style>
  </defs>
  <!-- Generator: Adobe Illustrator 28.7.1, SVG Export Plug-In . SVG Version: 1.2.0 Build 142)  -->
  <g>
    <g id="Ebene_1">
      <g id="Kombi_lang_2_schwarz">
        <path class="cls-1" d="M82.2,47.8c-2.5-2.8-5.4-3.8-9.3-3.8s-7.2,1.3-9.3,3.4c-3.8,3.8-3.9,10.3-3.9,16s0,12.3,3.9,16.1c2.1,2.1,5.6,3.4,9.4,3.4s6.8-1.1,9.4-4v3.6h9.3V30.5h-9.5v17.3ZM75.7,74.5c-5.7,0-6.4-4.8-6.4-11s.7-10.9,6.4-10.9,6.5,4.7,6.5,10.9-.8,11-6.5,11Z"/>
        <path class="cls-1" d="M114.4,44c-6.4,0-10,1.2-13.8,5.3l6.1,5.9c2-2.3,3.7-3.2,7.3-3.2s7.1,1.8,7.1,6v1.9h-9c-8.8,0-13,5-13,11s1.1,6.4,3.2,8.6c2.3,2.3,5.4,3.4,9.7,3.4s6.8-1.1,9.4-3.7v3.3h9.3v-25.1c0-8.9-5.6-13.5-16.2-13.5h0ZM121.1,68.6c0,2.3-.4,3.9-1.4,4.8-1.7,1.6-3.4,1.8-6,1.8s-5.5-1.8-5.5-4.4,1.9-4.3,5.3-4.3h7.5v2.1h0Z"/>
        <path class="cls-1" d="M18.6,44c-3.4,0-6.6,1.3-9.1,4v-17.5H0v52.1h9.5v-23.3c0-5,3.1-6.7,6.1-6.7s6.2,1.7,6.2,6.7v23.3h9.5v-24.7c0-8-4.4-13.9-12.7-13.9Z"/>
        <rect class="cls-1" x="36.5" y="87.4" width="22.7" height="2.2"/>
        <polygon class="cls-1" points="149.5 120.2 150.3 120.5 182.6 .2 181.8 0 149.5 120.2"/>
        <path class="cls-1" d="M240.4,23.5c0-1,.5-1.5,1.4-1.5s1.4.5,1.4,1.5v3.4h.8v-3.5c0-.9.6-1.4,1.4-1.4s1.4.5,1.4,1.5v3.4h.8v-3.5c0-.6-.2-1.2-.6-1.5-.3-.3-.8-.5-1.4-.5s-1.4.3-1.8.9c-.3-.6-.9-.9-1.7-.9s-1.2.2-1.6.7v-.6h-.8v5.5h.8v-3.4h0Z"/>
        <path class="cls-1" d="M252,27c1,0,1.5-.3,2-.9l-.5-.5c-.4.4-.8.6-1.5.6-1.1,0-1.6-.7-1.6-1.9h3.7v-.4c0-1.6-.8-2.7-2.3-2.7s-2.3,1-2.3,2.8,1,2.8,2.4,2.8h0v.2ZM250.6,22.8c.2-.5.7-.8,1.3-.8s1.1.3,1.3.8c.1.3.1.5.2.9h-2.9c0-.5,0-.6.2-.9h-.1Z"/>
        <path class="cls-1" d="M257.2,23.5c0-1,.5-1.5,1.4-1.5s1.4.5,1.4,1.5v3.4h.8v-3.5c0-.9.6-1.4,1.4-1.4s1.4.5,1.4,1.5v3.4h.8v-3.5c0-.6-.2-1.2-.6-1.5-.3-.3-.8-.5-1.4-.5s-1.4.3-1.8.9c-.3-.6-.9-.9-1.7-.9s-1.2.2-1.6.7v-.6h-.8v5.5h.8v-3.4h0Z"/>
        <path class="cls-1" d="M267.5,26.2c.5.6,1,.7,1.6.7s1.1-.2,1.4-.5c.6-.6.7-1.5.7-2.4s-.1-1.8-.7-2.4c-.3-.3-.8-.5-1.4-.5s-1.1.1-1.6.7v-3.1h-.8v8h.8v-.7h0v.2ZM268.9,22c1.2,0,1.4,1,1.4,2.1s-.2,2.1-1.4,2.1-1.4-1-1.4-2.1.2-2.1,1.4-2.1Z"/>
        <path class="cls-1" d="M275.5,27c1,0,1.5-.3,2-.9l-.5-.5c-.4.4-.8.6-1.5.6-1.1,0-1.6-.7-1.6-1.9h3.7v-.4c0-1.6-.8-2.7-2.3-2.7s-2.3,1-2.3,2.8,1,2.8,2.4,2.8h0v.2ZM274,22.8c.2-.5.7-.8,1.3-.8s1.1.3,1.3.8c.1.3.1.5.2.9h-2.9c0-.5,0-.6.2-.9h-.1Z"/>
        <path class="cls-1" d="M280.6,23.5c0-.8.5-1.5,1.3-1.5s.6.1,1,.4l.6-.6c-.4-.4-.8-.5-1.3-.5s-1.2.3-1.5.7v-.7h-.8v5.5h.8v-3.4h-.1Z"/>
        <path class="cls-1" d="M289.3,27c.7,0,1.2-.2,1.6-.6.6-.6.7-1.4.7-2.2s-.1-1.6-.7-2.2c-.4-.4-.9-.6-1.6-.6s-1.2.2-1.6.6c-.6.6-.7,1.4-.7,2.2s.1,1.6.7,2.2c.4.4.9.6,1.6.6ZM288.3,22.4c.3-.3.6-.4,1-.4s.8.1,1,.4c.4.4.4,1.1.4,1.7s0,1.3-.4,1.7c-.3.3-.6.4-1,.4s-.7-.1-1-.4c-.4-.4-.5-1.1-.5-1.7s0-1.3.5-1.7Z"/>
        <path class="cls-1" d="M293.9,26.9h.8v-4.9h1.2v-.6h-1.2v-1c0-.5.2-.8.7-.8h.4v-.7h-.6c-1,0-1.4.7-1.4,1.5v1h-.7v.6h.7v4.9h.1Z"/>
        <path class="cls-1" d="M226.5,93.3c.2-.3.4-.7.4-1.1,0-1.2-.8-1.8-2.3-1.8h-1.6v6.3h1v-2.6h.6l1.5,2.6h1.2l-1.7-2.7c.4,0,.7-.3,1-.6h-.1ZM223.9,93.3v-2.1h.7c.4,0,.7,0,.9.2.2.2.3.4.3.8s-.1.7-.3.8c-.2.2-.5.3-.9.3h-.7Z"/>
        <path class="cls-1" d="M299.3,93.3c.2-.3.4-.7.4-1.1,0-1.2-.8-1.8-2.3-1.8h-1.6v6.3h1v-2.6h.6l1.5,2.6h1.2l-1.7-2.7c.4,0,.7-.3,1-.6h-.1ZM296.8,93.3v-2.1h.7c.4,0,.7,0,.9.2.2.2.3.4.3.8s-.1.7-.3.8c-.2.2-.5.3-.9.3h-.7Z"/>
        <path class="cls-1" d="M291.2,101.1c-.7,0-1.3.3-1.7.9s-.6,1.4-.6,2.4.2,1.8.6,2.4.9.9,1.7.9,1.3-.3,1.7-.9.6-1.4.6-2.4-.2-1.8-.6-2.4-.9-.9-1.7-.9h0ZM292.2,106.2c-.2.4-.5.6-.9.6s-.7-.2-.9-.6c-.2-.4-.3-1-.3-1.8s.1-1.4.3-1.8.5-.6.9-.6.7.2.9.6c.2.4.3,1,.3,1.8s-.1,1.4-.3,1.8h0Z"/>
        <path class="cls-1" d="M231.4,101.1c-.7,0-1.3.3-1.7.9s-.6,1.4-.6,2.4.2,1.8.6,2.4.9.9,1.7.9,1.3-.3,1.7-.9.6-1.4.6-2.4-.2-1.8-.6-2.4-.9-.9-1.7-.9ZM232.3,106.2c-.2.4-.5.6-.9.6s-.7-.2-.9-.6c-.2-.4-.3-1-.3-1.8s.1-1.4.3-1.8c.2-.4.5-.6.9-.6s.7.2.9.6.3,1,.3,1.8-.1,1.4-.3,1.8h0Z"/>
        <path class="cls-1" d="M231.2,96.8c.7,0,1.3-.3,1.7-.9.4-.6.6-1.4.6-2.4s-.2-1.8-.6-2.4-.9-.9-1.7-.9-1.3.3-1.7.9-.6,1.4-.6,2.4.2,1.8.6,2.4.9.9,1.7.9ZM230.3,91.7c.2-.4.5-.6.9-.6s.7.2.9.6c.2.4.3,1,.3,1.8s-.1,1.4-.3,1.8c-.2.4-.5.6-.9.6s-.7-.2-.9-.6c-.2-.4-.3-1-.3-1.8s.1-1.4.3-1.8Z"/>
        <path class="cls-1" d="M297.8,104.8h1v1.7c-.3.2-.6.3-1,.3s-.8-.2-1.1-.6c-.2-.4-.4-1-.4-1.9s.1-1.4.4-1.8.7-.6,1.1-.6.4,0,.6,0c.2,0,.4.2.5.4l.6-.6c-.2-.2-.5-.4-.8-.6s-.6-.2-1-.2-.9,0-1.3.4c-.4.2-.7.6-.9,1.1-.2.5-.4,1.1-.4,1.8,0,1.1.2,1.9.6,2.4.4.6,1,.8,1.8.8s.7,0,1.1-.2.6-.2.9-.4v-3.1h-2.1v.8h.1l.3.2Z"/>
        <path class="cls-1" d="M219.4,94.4c0,.5,0,.9-.2,1.2s-.4.4-.8.4-.6,0-.8-.4c-.2-.2-.2-.6-.2-1.2v-4h-1v4.2c0,.7.2,1.2.5,1.6.4.4.9.6,1.5.6s.8,0,1.1-.3c.3-.2.5-.4.7-.8.2-.3.2-.7.2-1.1v-4.2h-1v4h0Z"/>
        <polygon class="cls-1" points="313.9 91.2 315.7 91.2 315.7 96.7 316.7 96.7 316.7 91.2 318.4 91.2 318.5 90.4 313.9 90.4 313.9 91.2"/>
        <polygon class="cls-1" points="322.6 93.3 321.2 90.4 320.1 90.4 322.1 94.3 322.1 96.7 323.1 96.7 323.1 94.3 325.1 90.4 324 90.4 322.6 93.3"/>
        <polygon class="cls-1" points="211.3 93.8 213.5 93.8 213.5 93.1 211.3 93.1 211.3 91.2 213.8 91.2 213.9 90.4 210.3 90.4 210.3 96.7 213.9 96.7 213.9 95.8 211.3 95.8 211.3 93.8"/>
        <polygon class="cls-1" points="303.8 104.2 302.4 101.2 301.4 101.2 303.3 105.1 303.3 107.5 304.3 107.5 304.3 105.1 306.3 101.2 305.3 101.2 303.8 104.2"/>
        <polygon class="cls-1" points="308.3 91.2 309.6 91.2 309.6 95.8 308.3 95.8 308.3 96.7 311.9 96.7 311.9 95.8 310.6 95.8 310.6 91.2 311.9 91.2 311.9 90.4 308.3 90.4 308.3 91.2"/>
        <path class="cls-1" d="M258.4,90.4h-.9v4.2c0,.4,0,.8.1,1.2l-1.9-5.3h-1.3v6.3h.9v-2.8c0-.7,0-1.5-.1-2.5l1.9,5.3h1.3v-6.3h0Z"/>
        <polygon class="cls-1" points="235.9 107.5 236.9 107.5 236.9 104.8 239.2 104.8 239.2 104 236.9 104 236.9 102 239.5 102 239.6 101.2 235.9 101.2 235.9 107.5"/>
        <polygon class="cls-1" points="293 91.2 293.1 90.4 289.6 90.4 289.6 96.7 293.2 96.7 293.2 95.8 290.6 95.8 290.6 93.8 292.7 93.8 292.7 93.1 290.6 93.1 290.6 91.2 293 91.2"/>
        <polygon class="cls-1" points="280.4 91.2 280.4 90.4 276.9 90.4 276.9 91.2 278.2 91.2 278.2 95.8 276.9 95.8 276.9 96.7 280.4 96.7 280.4 95.8 279.2 95.8 279.2 91.2 280.4 91.2"/>
        <path class="cls-1" d="M279.1,101.1c-.7,0-1.3.3-1.7.9s-.6,1.4-.6,2.4.2,1.8.6,2.4.9.9,1.7.9,1.3-.3,1.7-.9.6-1.4.6-2.4-.2-1.8-.6-2.4-.9-.9-1.7-.9h0ZM280,106.2c-.2.4-.5.6-.9.6s-.7-.2-.9-.6c-.2-.4-.3-1-.3-1.8s.1-1.4.3-1.8.5-.6.9-.6.7.2.9.6c.2.4.3,1,.3,1.8s-.1,1.4-.3,1.8Z"/>
        <polygon class="cls-1" points="267.2 103.8 265.3 103.8 265.3 101.2 264.3 101.2 264.3 107.5 265.3 107.5 265.3 104.6 267.2 104.6 267.2 107.5 268.2 107.5 268.2 101.2 267.2 101.2 267.2 103.8"/>
        <path class="cls-1" d="M260.9,106.6c-.2,0-.5,0-.7,0-.5,0-.9-.2-1.2-.6s-.5-1-.5-1.8.1-1.4.5-1.8c.3-.4.7-.6,1.2-.6s.9.2,1.2.5l.5-.7c-.2-.2-.5-.4-.8-.5-.3,0-.6-.2-1-.2s-.9,0-1.3.4-.7.6-1,1.1c-.2.5-.4,1.1-.4,1.8s.1,1.3.3,1.8.5.9.9,1.1.9.4,1.4.4c.8,0,1.4-.2,1.9-.7l-.5-.7c-.2.2-.4.3-.6.4h.1Z"/>
        <path class="cls-1" d="M271.5,93.8c0-.7,0-1.5-.1-2.5l1.9,5.3h1.3v-6.3h-.9v4.2c0,.4,0,.8.1,1.2l-1.9-5.3h-1.3v6.3h.9v-2.8h0Z"/>
        <path class="cls-1" d="M267.2,94.4c0,.5,0,.9-.2,1.2s-.4.4-.8.4-.6,0-.8-.4c-.2-.2-.2-.6-.2-1.2v-4h-1v4.2c0,.7.2,1.2.5,1.6.4.4.9.6,1.5.6s.8,0,1.1-.3c.3-.2.5-.4.7-.8.2-.3.2-.7.2-1.1v-4.2h-1v4h0Z"/>
        <path class="cls-1" d="M303.9,95.9c-.6,0-1.2-.2-1.6-.7l-.5.6c.5.6,1.3.8,2.2.8s.9,0,1.2-.2c.3-.2.6-.4.8-.7.2-.3.3-.6.3-1,0-.6-.1-1-.5-1.2-.3-.3-.7-.5-1.3-.7-.4,0-.6-.2-.8-.3-.2,0-.3-.2-.4-.3,0,0-.1-.3-.1-.4,0-.3.1-.5.3-.6.2,0,.5-.2.8-.2.5,0,1,.2,1.4.6l.5-.6c-.5-.5-1.2-.8-2-.8s-.7,0-1,.2c-.3,0-.5.3-.7.6-.2.3-.3.6-.3.9s.1.8.5,1.1c.3.3.8.5,1.5.7.3,0,.6.2.7.3.2,0,.3.2.4.3,0,0,.1.3.1.5,0,.3-.1.6-.4.8s-.5.3-.9.3h-.2Z"/>
        <polygon class="cls-1" points="245.4 102.1 247.1 102.1 247.1 107.5 248.1 107.5 248.1 102.1 249.8 102.1 249.9 101.2 245.4 101.2 245.4 102.1"/>
        <polygon class="cls-1" points="284.8 101.2 283.8 101.2 283.8 107.5 287.4 107.5 287.5 106.6 284.8 106.6 284.8 101.2"/>
        <path class="cls-1" d="M273.8,104.1v1.3c0,.4,0,.8.1,1.2l-1.9-5.3h-1.3v6.3h.9v-2.8c0-.7,0-1.5-.1-2.5l1.9,5.3h1.3v-6.3h-.9v2.8h0Z"/>
        <polygon class="cls-1" points="245.4 91.2 245.6 90.4 242 90.4 242 96.7 245.6 96.7 245.6 95.8 243 95.8 243 93.8 245.1 93.8 245.1 93.1 243 93.1 243 91.2 245.4 91.2"/>
        <polygon class="cls-1" points="285.1 95.7 283.7 90.4 282.7 90.4 284.5 96.7 285.7 96.7 287.5 90.4 286.5 90.4 285.1 95.7"/>
        <polygon class="cls-1" points="253 104.7 255.1 104.7 255.1 103.9 253 103.9 253 102 255.4 102 255.5 101.2 252 101.2 252 107.5 255.6 107.5 255.6 106.7 253 106.7 253 104.7"/>
        <path class="cls-1" d="M250.7,90.4h-1.2l-1.9,6.3h1l.4-1.5h2.1l.4,1.5h1l-1.9-6.3h.1ZM249.2,94.3l.9-3.1.9,3.1h-1.8Z"/>
        <path class="cls-1" d="M237.5,90.4h-1.6v6.3h1v-2.2h.7c.7,0,1.3-.2,1.7-.5.4-.3.6-.9.6-1.6s-.2-1.2-.6-1.5-1-.5-1.8-.5h0ZM238.5,93.3c-.2.2-.5.3-.9.3h-.7v-2.4h.7c.9,0,1.3.4,1.3,1.2s-.1.8-.3,1h-.1Z"/>
        <polygon class="cls-1" points="326.7 62.2 326.7 54.6 321.8 54.6 321.8 62.2 314.2 62.2 314.2 67.2 321.8 67.2 321.8 74.9 326.7 74.9 326.7 67.2 334.2 67.2 334.2 62.2 326.7 62.2"/>
        <rect class="cls-1" x="298.1" y="54.6" width="4.9" height="28"/>
        <path class="cls-1" d="M286.9,82.6v-33.6h27.4v-5h-32.3v33.6h-8.9c-5.1,0-8.8-3.4-8.8-8v-25.6h-4.9v16.2c0,9.7-7.4,17.3-16.8,17.3s-13.5-3.9-15.6-10.4h11.7c8.9,0,13.5-6.3,13.5-12.5s-4.5-11.9-13.1-11.9-17.8,8.7-17.8,18.9v.4h-20v5h20.6c2.2,9.4,10.3,15.4,20.7,15.4s13.4-3.3,17.4-8.9c1.8,5.4,6.9,8.9,13.1,8.9h13.8v.2ZM226.1,62.2v-.4c0-7.4,6-13.9,12.9-13.9s8.2,4.5,8.2,6.8c0,5.2-4.4,7.5-8.5,7.5h-12.6Z"/>
      </g>
    </g>
  </g>
</svg>