<?xml version="1.0" encoding="UTF-8"?>
<svg id="h_da_rechts_klein" data-name="h_da rechts klein" xmlns="http://www.w3.org/2000/svg" width="118.11mm" height="9.83mm" viewBox="0 0 334.81 27.86">
  <path d="m57.13,17.94c0,1.1-.17,1.83-.66,2.28-.79.76-1.59.86-2.83.86-1.76,0-2.59-.83-2.59-2.07s.9-2.04,2.52-2.04h3.55v.97Zm4.49,6.63v-11.84c0-4.21-2.62-6.35-7.66-6.35-3,0-4.73.55-6.49,2.48l2.86,2.8c.93-1.07,1.73-1.48,3.45-1.48,2.38,0,3.35.86,3.35,2.83v.9h-4.24c-4.18,0-6.14,2.35-6.14,5.21,0,1.59.52,3.04,1.48,4.04,1.07,1.07,2.55,1.59,4.59,1.59s3.21-.52,4.42-1.73v1.55h4.38Zm-22.84-9.01c0,2.93-.38,5.18-3.07,5.18s-3.04-2.24-3.04-5.18.34-5.14,3.04-5.14,3.07,2.21,3.07,5.14m4.48,9.01V0h-4.48v8.18c-1.17-1.31-2.55-1.8-4.38-1.8s-3.38.62-4.38,1.62c-1.8,1.8-1.83,4.87-1.83,7.56s.03,5.8,1.83,7.59c1,1,2.66,1.62,4.42,1.62,1.9,0,3.21-.52,4.45-1.9v1.69h4.38Zm-15.35,2.27h-10.69v1.02h10.69v-1.02Zm-13.11-2.27v-11.63c0-3.8-2.07-6.56-6-6.56-1.59,0-3.11.62-4.31,1.86V0H0v24.57h4.49v-10.97c0-2.35,1.48-3.18,2.9-3.18s2.93.79,2.93,3.18v10.97h4.49Z" fill="#1d1d1b"/>
  <g>
    <path d="m90.87,24.58v-7.97c0-1.97-1.15-2.84-2.61-2.84s-2.64.9-2.64,2.84v7.97h-2.61V6.34h2.61v6.56c.9-.97,2.08-1.46,3.36-1.46,2.89,0,4.51,1.95,4.51,4.77v8.38h-2.61Z" fill="#1d1d1b"/>
    <path d="m105.99,23.19c-.84.87-2.13,1.54-3.89,1.54s-3.02-.67-3.87-1.54c-1.23-1.28-1.54-2.92-1.54-5.12s.31-3.82,1.54-5.1c.85-.87,2.1-1.54,3.87-1.54s3.05.67,3.89,1.54c1.23,1.28,1.54,2.92,1.54,5.1s-.31,3.84-1.54,5.12Zm-1.97-8.69c-.49-.49-1.15-.74-1.92-.74s-1.41.26-1.9.74c-.79.79-.9,2.15-.9,3.56s.1,2.77.9,3.56c.49.49,1.13.77,1.9.77s1.43-.28,1.92-.77c.79-.79.9-2.15.9-3.56s-.1-2.77-.9-3.56Z" fill="#1d1d1b"/>
    <path d="m116.08,24.73c-2.92,0-5.79-1.79-5.79-6.66s2.87-6.64,5.79-6.64c1.79,0,3.05.51,4.28,1.82l-1.79,1.74c-.82-.9-1.46-1.23-2.49-1.23s-1.84.41-2.41,1.15c-.56.72-.77,1.64-.77,3.15s.21,2.46.77,3.18c.56.74,1.41,1.15,2.41,1.15s1.67-.33,2.49-1.23l1.79,1.72c-1.23,1.31-2.49,1.84-4.28,1.84Z" fill="#1d1d1b"/>
    <path d="m131.06,24.58v-7.97c0-1.97-1.15-2.84-2.61-2.84s-2.64.9-2.64,2.84v7.97h-2.61V6.34h2.61v6.56c.9-.97,2.08-1.46,3.36-1.46,2.89,0,4.51,1.95,4.51,4.77v8.38h-2.61Z" fill="#1d1d1b"/>
    <path d="m141.85,24.73c-2.13,0-3.92-.36-5.46-1.87l1.72-1.72c1.05,1.08,2.46,1.36,3.74,1.36,1.59,0,2.84-.56,2.84-1.79,0-.87-.49-1.43-1.74-1.54l-2.08-.18c-2.43-.21-3.84-1.31-3.84-3.59,0-2.54,2.18-3.97,4.89-3.97,1.95,0,3.61.41,4.82,1.46l-1.64,1.67c-.82-.69-1.97-.95-3.2-.95-1.56,0-2.36.69-2.36,1.67,0,.77.41,1.36,1.79,1.49l2.05.18c2.43.21,3.87,1.36,3.87,3.66,0,2.72-2.31,4.12-5.41,4.12Z" fill="#1d1d1b"/>
    <path d="m155.57,24.73c-2.92,0-5.79-1.79-5.79-6.66s2.87-6.64,5.79-6.64c1.79,0,3.05.51,4.28,1.82l-1.79,1.74c-.82-.9-1.46-1.23-2.49-1.23s-1.84.41-2.41,1.15c-.56.72-.77,1.64-.77,3.15s.21,2.46.77,3.18c.56.74,1.41,1.15,2.41,1.15s1.67-.33,2.49-1.23l1.79,1.72c-1.23,1.31-2.49,1.84-4.28,1.84Z" fill="#1d1d1b"/>
    <path d="m170.55,24.58v-7.97c0-1.97-1.15-2.84-2.61-2.84s-2.64.9-2.64,2.84v7.97h-2.61V6.34h2.61v6.56c.9-.97,2.08-1.46,3.36-1.46,2.89,0,4.51,1.95,4.51,4.77v8.38h-2.61Z" fill="#1d1d1b"/>
    <path d="m184.77,24.58v-1.31c-.9.97-2.15,1.46-3.46,1.46s-2.43-.44-3.2-1.18c-1-.97-1.31-2.2-1.31-3.66v-8.3h2.61v7.92c0,2.02,1.15,2.9,2.61,2.9s2.69-.9,2.69-2.9v-7.92h2.61v12.99h-2.56Z" fill="#1d1d1b"/>
    <path d="m194.7,24.58c-2.49,0-3.56-1.67-3.56-3.59V6.34h2.61v14.5c0,1,.36,1.51,1.41,1.51h1.15v2.23h-1.61Z" fill="#1d1d1b"/>
    <path d="m200.9,18.84c0,2.23,1.18,3.64,3.3,3.64,1.46,0,2.23-.41,3.15-1.33l1.67,1.56c-1.33,1.33-2.59,2.02-4.87,2.02-3.25,0-5.84-1.72-5.84-6.66,0-4.2,2.18-6.64,5.51-6.64s5.51,2.56,5.51,6.25v1.15h-8.43Zm5.48-3.59c-.41-.97-1.33-1.64-2.56-1.64s-2.18.67-2.59,1.64c-.26.59-.31.97-.33,1.77h5.84c-.03-.79-.1-1.18-.36-1.77Z" fill="#1d1d1b"/>
    <path d="m226.39,24.58v-1.38c-.97,1.18-2.02,1.54-3.43,1.54-1.31,0-2.46-.44-3.18-1.15-1.31-1.31-1.46-3.54-1.46-5.51s.15-4.18,1.46-5.48c.72-.72,1.84-1.15,3.15-1.15,1.38,0,2.46.33,3.41,1.46v-6.56h2.61v18.24h-2.56Zm-2.74-10.81c-2.36,0-2.72,2-2.72,4.3s.36,4.33,2.72,4.33,2.69-2.02,2.69-4.33-.33-4.3-2.69-4.3Z" fill="#1d1d1b"/>
    <path d="m239.93,24.58v-1.18c-.95.95-1.84,1.33-3.46,1.33s-2.69-.38-3.48-1.18c-.67-.69-1.02-1.69-1.02-2.79,0-2.18,1.51-3.74,4.48-3.74h3.43v-.92c0-1.64-.82-2.43-2.84-2.43-1.43,0-2.13.33-2.84,1.26l-1.72-1.61c1.23-1.44,2.51-1.87,4.66-1.87,3.56,0,5.35,1.51,5.35,4.46v8.69h-2.56Zm-.05-5.74h-3.05c-1.54,0-2.33.69-2.33,1.87s.74,1.84,2.38,1.84c1,0,1.74-.08,2.43-.74.38-.38.56-1,.56-1.92v-1.05Z" fill="#1d1d1b"/>
    <path d="m253.42,14.64c-.59-.59-1.05-.87-1.95-.87-1.41,0-2.59,1.13-2.59,2.92v7.89h-2.61v-12.99h2.56v1.41c.67-.92,2-1.56,3.46-1.56,1.26,0,2.2.33,3.1,1.23l-1.97,1.97Z" fill="#1d1d1b"/>
    <path d="m273.62,24.58v-7.92c0-2.02-1.15-2.9-2.61-2.9s-2.69.9-2.69,2.77v8.04h-2.61v-7.92c0-2.02-1.15-2.9-2.61-2.9s-2.69.9-2.69,2.9v7.92h-2.61v-12.99h2.56v1.31c.87-.95,2.15-1.46,3.46-1.46,1.61,0,2.87.64,3.69,1.9,1.05-1.28,2.36-1.9,4.07-1.9,1.33,0,2.51.44,3.28,1.18,1,.97,1.38,2.2,1.38,3.66v8.3h-2.61Z" fill="#1d1d1b"/>
    <path d="m284.44,24.73c-2.13,0-3.92-.36-5.46-1.87l1.72-1.72c1.05,1.08,2.46,1.36,3.74,1.36,1.59,0,2.84-.56,2.84-1.79,0-.87-.49-1.43-1.74-1.54l-2.07-.18c-2.43-.21-3.84-1.31-3.84-3.59,0-2.54,2.18-3.97,4.89-3.97,1.95,0,3.61.41,4.82,1.46l-1.64,1.67c-.82-.69-1.97-.95-3.2-.95-1.56,0-2.36.69-2.36,1.67,0,.77.41,1.36,1.79,1.49l2.05.18c2.43.21,3.87,1.36,3.87,3.66,0,2.72-2.31,4.12-5.41,4.12Z" fill="#1d1d1b"/>
    <path d="m296.97,24.58c-2.43,0-3.56-1.74-3.56-3.61v-7.15h-1.49v-2h1.49v-3.95h2.61v3.95h2.51v2h-2.51v7.02c0,.95.46,1.51,1.43,1.51h1.08v2.23h-1.56Z" fill="#1d1d1b"/>
    <path d="m308.91,24.58v-1.18c-.95.95-1.84,1.33-3.46,1.33s-2.69-.38-3.48-1.18c-.67-.69-1.02-1.69-1.02-2.79,0-2.18,1.51-3.74,4.48-3.74h3.43v-.92c0-1.64-.82-2.43-2.84-2.43-1.43,0-2.13.33-2.84,1.26l-1.72-1.61c1.23-1.44,2.51-1.87,4.66-1.87,3.56,0,5.35,1.51,5.35,4.46v8.69h-2.56Zm-.05-5.74h-3.05c-1.54,0-2.33.69-2.33,1.87s.74,1.84,2.38,1.84c1,0,1.74-.08,2.43-.74.38-.38.56-1,.56-1.92v-1.05Z" fill="#1d1d1b"/>
    <path d="m322.82,24.58v-1.38c-.97,1.18-2.02,1.54-3.43,1.54-1.31,0-2.46-.44-3.18-1.15-1.31-1.31-1.46-3.54-1.46-5.51s.15-4.18,1.46-5.48c.72-.72,1.84-1.15,3.15-1.15,1.38,0,2.46.33,3.41,1.46v-6.56h2.61v18.24h-2.56Zm-2.74-10.81c-2.36,0-2.72,2-2.72,4.3s.36,4.33,2.72,4.33,2.69-2.02,2.69-4.33-.33-4.3-2.69-4.3Z" fill="#1d1d1b"/>
    <path d="m333.24,24.58c-2.43,0-3.56-1.74-3.56-3.61v-7.15h-1.49v-2h1.49v-3.95h2.61v3.95h2.51v2h-2.51v7.02c0,.95.46,1.51,1.43,1.51h1.08v2.23h-1.56Z" fill="#1d1d1b"/>
  </g>
</svg>