<?xml version="1.0" encoding="utf-8"?>
<!-- Generator: Adobe Illustrator 23.0.6, SVG Export Plug-In . SVG Version: 6.00 Build 0)  -->
<svg version="1.1" id="Ebene_1" xmlns="http://www.w3.org/2000/svg" xmlns:xlink="http://www.w3.org/1999/xlink" x="0px" y="0px"
	 width="335.6px" height="110.3px" viewBox="0 0 335.6 110.3" style="enable-background:new 0 0 335.6 110.3;" xml:space="preserve"
	>
<rect x="111.8" y="54.7" transform="matrix(0.2579 -0.9662 0.9662 0.2579 71.9528 203.9794)" width="114" height="0.8"/>
<path d="M241.7,23.5c0-1,0.6-1.5,1.4-1.5s1.4,0.5,1.4,1.5v3.4h0.8v-3.5c0-0.9,0.6-1.4,1.4-1.4c0.8,0,1.4,0.5,1.4,1.5v3.4h0.8v-3.5
	c0-0.6-0.2-1.2-0.6-1.5c-0.3-0.3-0.8-0.5-1.4-0.5c-0.8,0-1.4,0.3-1.8,0.9c-0.3-0.6-0.9-0.9-1.7-0.9c-0.6,0-1.2,0.2-1.6,0.7v-0.6
	h-0.8v5.5h0.8V23.5z"/>
<path d="M253.4,27c0.9,0,1.5-0.3,2-0.9l-0.6-0.5c-0.4,0.4-0.8,0.6-1.5,0.6c-1.1,0-1.6-0.7-1.6-1.9h3.7V24c0-1.6-0.8-2.7-2.3-2.7
	c-1.4,0-2.3,1-2.3,2.8C251,26.1,251.9,27,253.4,27 M252,22.8c0.2-0.5,0.7-0.8,1.3-0.8c0.6,0,1.1,0.3,1.3,0.8
	c0.1,0.3,0.1,0.5,0.2,0.9h-2.9C251.8,23.3,251.8,23.1,252,22.8"/>
<path d="M258.5,23.5c0-1,0.6-1.5,1.4-1.5c0.8,0,1.4,0.5,1.4,1.5v3.4h0.8v-3.5c0-0.9,0.6-1.4,1.4-1.4c0.8,0,1.4,0.5,1.4,1.5v3.4h0.8
	v-3.5c0-0.6-0.2-1.2-0.6-1.5c-0.3-0.3-0.8-0.5-1.4-0.5c-0.8,0-1.4,0.3-1.8,0.9c-0.3-0.6-0.9-0.9-1.7-0.9c-0.6,0-1.2,0.2-1.6,0.7
	v-0.6h-0.8v5.5h0.8V23.5z"/>
<path d="M268.8,26.2c0.5,0.6,1,0.7,1.6,0.7c0.6,0,1.1-0.2,1.4-0.5c0.6-0.6,0.7-1.5,0.7-2.4c0-0.9-0.1-1.8-0.7-2.4
	c-0.3-0.3-0.8-0.5-1.4-0.5c-0.6,0-1.1,0.1-1.6,0.7v-3.1H268v8h0.8V26.2z M270.2,22c1.2,0,1.4,1,1.4,2.1c0,1.1-0.2,2.1-1.4,2.1
	c-1.2,0-1.4-1-1.4-2.1C268.8,23.1,269,22,270.2,22"/>
<path d="M276.8,27c0.9,0,1.5-0.3,2-0.9l-0.6-0.5c-0.4,0.4-0.8,0.6-1.5,0.6c-1.1,0-1.6-0.7-1.6-1.9h3.7V24c0-1.6-0.8-2.7-2.3-2.7
	c-1.4,0-2.3,1-2.3,2.8C274.4,26.1,275.4,27,276.8,27 M275.4,22.8c0.2-0.5,0.7-0.8,1.3-0.8c0.6,0,1.1,0.3,1.3,0.8
	c0.1,0.3,0.1,0.5,0.2,0.9h-2.9C275.2,23.3,275.3,23.1,275.4,22.8"/>
<path d="M281.9,23.5c0-0.8,0.5-1.5,1.3-1.5c0.4,0,0.7,0.1,1,0.4l0.6-0.6c-0.4-0.4-0.8-0.5-1.3-0.5c-0.6,0-1.2,0.3-1.6,0.7v-0.7h-0.8
	v5.5h0.8V23.5z"/>
<path d="M290.6,27c0.7,0,1.2-0.2,1.6-0.6c0.6-0.6,0.7-1.3,0.7-2.2c0-0.9-0.1-1.6-0.7-2.2c-0.4-0.4-0.9-0.6-1.6-0.6s-1.2,0.2-1.6,0.6
	c-0.6,0.6-0.7,1.3-0.7,2.2c0,0.9,0.1,1.6,0.7,2.2C289.4,26.7,290,27,290.6,27 M289.6,22.4c0.3-0.3,0.6-0.4,1-0.4
	c0.4,0,0.8,0.1,1,0.4c0.4,0.4,0.4,1.1,0.4,1.7c0,0.6,0,1.3-0.4,1.7c-0.3,0.3-0.6,0.4-1,0.4c-0.4,0-0.7-0.1-1-0.4
	c-0.4-0.4-0.5-1.1-0.5-1.7C289.2,23.5,289.2,22.8,289.6,22.4"/>
<path d="M295.2,26.9h0.8V22h1.2v-0.6H296v-1c0-0.5,0.2-0.8,0.7-0.8h0.4v-0.7h-0.6c-0.9,0-1.4,0.7-1.4,1.5v1h-0.7V22h0.7V26.9z"/>
<polygon points="328,62.2 328,54.6 323.1,54.6 323.1,62.2 315.6,62.2 315.6,67.2 323.1,67.2 323.1,74.9 328,74.9 328,67.2 
	335.6,67.2 335.6,62.2 "/>
<rect x="299.4" y="54.6" width="4.9" height="28"/>
<path d="M283.3,77.6h-8.8c-5.1,0-8.8-3.4-8.8-8V44h-4.9v16.2c-0.1,9.7-7.4,17.4-16.8,17.4c-7.7,0-13.5-3.9-15.6-10.4h11.7
	c8.8,0,13.5-6.3,13.5-12.5c0-5.9-4.5-11.9-13.1-11.9c-9.6,0-17.8,8.7-17.8,18.9c0,0.1,0,0.3,0,0.4h-20v5h20.6
	c2.2,9.4,10.3,15.4,20.7,15.4c6.9,0,13.4-3.3,17.4-8.9c1.8,5.4,6.9,8.9,13.1,8.9h13.8V49h27.4v-5h-32.3L283.3,77.6z M227.5,62.2
	c0-0.1,0-0.3,0-0.4c0-7.4,6-13.9,12.9-13.9c6.5,0,8.2,4.5,8.2,6.8c0,5.2-4.4,7.5-8.5,7.5H227.5z"/>
<path d="M121.1,68.6c0,2.3-0.4,3.9-1.4,4.8c-1.7,1.6-3.4,1.8-6,1.8c-3.7,0-5.5-1.8-5.5-4.4c0-2.7,1.9-4.3,5.3-4.3h7.5V68.6z
	 M130.6,82.7V57.6c0-8.9-5.6-13.5-16.2-13.5c-6.4,0-10,1.2-13.8,5.3l6.1,5.9c2-2.3,3.7-3.1,7.3-3.1c5,0,7.1,1.8,7.1,6v1.9h-9
	c-8.9,0-13,5-13,11c0,3.4,1.1,6.4,3.1,8.6c2.3,2.3,5.4,3.4,9.7,3.4c4.4,0,6.8-1.1,9.4-3.7v3.3H130.6z M82.2,63.6
	c0,6.2-0.8,11-6.5,11c-5.7,0-6.4-4.8-6.4-11c0-6.2,0.7-10.9,6.4-10.9C81.4,52.7,82.2,57.4,82.2,63.6 M91.7,82.7V30.6h-9.5v17.3
	c-2.5-2.8-5.4-3.8-9.3-3.8c-3.7,0-7.2,1.3-9.3,3.4c-3.8,3.8-3.9,10.3-3.9,16c0,5.7,0.1,12.3,3.9,16.1c2.1,2.1,5.6,3.4,9.4,3.4
	c4,0,6.8-1.1,9.4-4v3.6H91.7z M59.2,87.5H36.5v2.2h22.7V87.5z M31.4,82.7V58c0-8-4.4-13.9-12.7-13.9c-3.4,0-6.6,1.3-9.1,4V30.6H0
	v52.1h9.5V59.4c0-5,3.1-6.7,6.1-6.7c3,0,6.2,1.7,6.2,6.7v23.3H31.4z"/>
</svg>
