<?xml version="1.0" encoding="UTF-8"?>
<svg id="h_da_unten_groß" data-name="h_da unten groß" xmlns="http://www.w3.org/2000/svg" width="56.05mm" height="46.02mm" viewBox="0 0 158.89 130.46">
  <path d="m121.87,38.04c0,2.34-.36,3.88-1.39,4.83-1.68,1.61-3.36,1.83-6,1.83-3.73,0-5.49-1.76-5.49-4.39s1.9-4.32,5.34-4.32h7.53v2.05Zm9.51,14.05v-25.09c0-8.92-5.56-13.46-16.24-13.46-6.36,0-10.02,1.17-13.75,5.27l6.07,5.93c1.97-2.27,3.66-3.15,7.32-3.15,5.05,0,7.09,1.83,7.09,6v1.9h-9c-8.85,0-13.02,4.98-13.02,11.05,0,3.36,1.1,6.44,3.15,8.56,2.27,2.27,5.41,3.36,9.73,3.36s6.8-1.1,9.36-3.66v3.29h9.29Zm-48.42-19.09c0,6.22-.81,10.97-6.51,10.97s-6.43-4.75-6.43-10.97.73-10.9,6.43-10.9,6.51,4.68,6.51,10.9m9.51,19.09V0h-9.51v17.34c-2.49-2.78-5.41-3.81-9.29-3.81s-7.17,1.32-9.29,3.44c-3.81,3.81-3.88,10.31-3.88,16.02s.07,12.29,3.88,16.09c2.12,2.12,5.63,3.44,9.36,3.44,4.03,0,6.8-1.1,9.44-4.02v3.58h9.29Zm-32.53,4.81h-22.67v2.15h22.67v-2.15Zm-27.78-4.81v-24.65c0-8.05-4.39-13.9-12.73-13.9-3.37,0-6.59,1.32-9.14,3.95V0H.77v52.08h9.51v-23.26c0-4.98,3.15-6.73,6.14-6.73s6.22,1.68,6.22,6.73v23.26h9.51Z" fill="#1d1d1b"/>
  <g>
    <path d="m10.66,98.06v-10.02c0-2.48-1.45-3.58-3.29-3.58s-3.32,1.13-3.32,3.58v10.02H.77v-22.93h3.29v8.25c1.13-1.22,2.61-1.84,4.22-1.84,3.64,0,5.67,2.45,5.67,5.99v10.53h-3.29Z" fill="#1d1d1b"/>
    <path d="m29.59,96.32c-1.06,1.1-2.67,1.93-4.9,1.93s-3.8-.84-4.86-1.93c-1.55-1.61-1.93-3.67-1.93-6.44s.39-4.8,1.93-6.41c1.06-1.1,2.64-1.93,4.86-1.93s3.83.84,4.9,1.93c1.55,1.61,1.93,3.67,1.93,6.41s-.39,4.83-1.93,6.44Zm-2.48-10.92c-.61-.61-1.45-.93-2.42-.93s-1.77.32-2.38.93c-1,1-1.13,2.71-1.13,4.48s.13,3.48,1.13,4.48c.61.61,1.42.97,2.38.97s1.8-.35,2.42-.97c1-1,1.13-2.71,1.13-4.48s-.13-3.48-1.13-4.48Z" fill="#1d1d1b"/>
    <path d="m42.2,98.25c-3.67,0-7.28-2.25-7.28-8.38s3.61-8.34,7.28-8.34c2.25,0,3.83.64,5.38,2.29l-2.25,2.19c-1.03-1.13-1.84-1.55-3.12-1.55s-2.32.52-3.03,1.45c-.71.9-.97,2.06-.97,3.96s.26,3.09.97,3.99c.71.93,1.77,1.45,3.03,1.45s2.09-.42,3.12-1.55l2.25,2.16c-1.55,1.64-3.12,2.32-5.38,2.32Z" fill="#1d1d1b"/>
    <path d="m60.96,98.06v-10.02c0-2.48-1.45-3.58-3.29-3.58s-3.32,1.13-3.32,3.58v10.02h-3.29v-22.93h3.29v8.25c1.13-1.22,2.61-1.84,4.22-1.84,3.64,0,5.67,2.45,5.67,5.99v10.53h-3.29Z" fill="#1d1d1b"/>
    <path d="m74.44,98.25c-2.67,0-4.93-.45-6.86-2.35l2.16-2.16c1.32,1.35,3.09,1.71,4.7,1.71,2,0,3.58-.71,3.58-2.25,0-1.1-.61-1.8-2.19-1.93l-2.61-.23c-3.06-.26-4.83-1.64-4.83-4.51,0-3.19,2.74-4.99,6.15-4.99,2.45,0,4.54.52,6.06,1.84l-2.06,2.09c-1.03-.87-2.48-1.19-4.03-1.19-1.96,0-2.96.87-2.96,2.09,0,.97.51,1.71,2.25,1.87l2.58.23c3.06.26,4.86,1.71,4.86,4.61,0,3.41-2.9,5.19-6.8,5.19Z" fill="#1d1d1b"/>
    <path d="m91.62,98.25c-3.67,0-7.28-2.25-7.28-8.38s3.61-8.34,7.28-8.34c2.25,0,3.83.64,5.38,2.29l-2.25,2.19c-1.03-1.13-1.84-1.55-3.12-1.55s-2.32.52-3.03,1.45c-.71.9-.97,2.06-.97,3.96s.26,3.09.97,3.99c.71.93,1.77,1.45,3.03,1.45s2.09-.42,3.12-1.55l2.25,2.16c-1.55,1.64-3.12,2.32-5.38,2.32Z" fill="#1d1d1b"/>
    <path d="m110.37,98.06v-10.02c0-2.48-1.45-3.58-3.29-3.58s-3.32,1.13-3.32,3.58v10.02h-3.29v-22.93h3.29v8.25c1.13-1.22,2.61-1.84,4.22-1.84,3.64,0,5.67,2.45,5.67,5.99v10.53h-3.29Z" fill="#1d1d1b"/>
    <path d="m128.17,98.06v-1.64c-1.13,1.22-2.71,1.84-4.35,1.84s-3.06-.55-4.03-1.48c-1.26-1.22-1.64-2.77-1.64-4.61v-10.44h3.29v9.95c0,2.54,1.45,3.64,3.29,3.64s3.38-1.13,3.38-3.64v-9.95h3.29v16.33h-3.22Z" fill="#1d1d1b"/>
    <path d="m140.58,98.06c-3.12,0-4.48-2.09-4.48-4.51v-18.42h3.29v18.23c0,1.26.45,1.9,1.77,1.9h1.45v2.8h-2.03Z" fill="#1d1d1b"/>
    <path d="m148.29,90.84c0,2.8,1.48,4.57,4.16,4.57,1.84,0,2.8-.52,3.96-1.68l2.09,1.96c-1.68,1.68-3.25,2.54-6.12,2.54-4.09,0-7.34-2.16-7.34-8.38,0-5.28,2.74-8.34,6.93-8.34s6.92,3.22,6.92,7.86v1.45h-10.6Zm6.89-4.51c-.52-1.22-1.67-2.06-3.22-2.06s-2.74.84-3.25,2.06c-.32.74-.39,1.22-.42,2.22h7.34c-.03-1-.13-1.48-.45-2.22Z" fill="#1d1d1b"/>
    <path d="m10.15,130.27v-1.74c-1.22,1.48-2.54,1.93-4.32,1.93-1.64,0-3.09-.55-3.99-1.45-1.64-1.64-1.84-4.44-1.84-6.93s.19-5.25,1.84-6.89c.9-.9,2.32-1.45,3.96-1.45,1.74,0,3.09.42,4.28,1.84v-8.25h3.29v22.93h-3.22Zm-3.45-13.59c-2.96,0-3.41,2.51-3.41,5.41s.45,5.44,3.41,5.44,3.38-2.54,3.38-5.44-.42-5.41-3.38-5.41Z" fill="#1d1d1b"/>
    <path d="m27.09,130.27v-1.48c-1.19,1.19-2.32,1.68-4.35,1.68s-3.38-.48-4.38-1.48c-.84-.87-1.29-2.13-1.29-3.51,0-2.74,1.9-4.7,5.64-4.7h4.32v-1.16c0-2.06-1.03-3.06-3.58-3.06-1.8,0-2.67.42-3.58,1.58l-2.16-2.03c1.55-1.8,3.16-2.35,5.86-2.35,4.48,0,6.73,1.9,6.73,5.6v10.92h-3.22Zm-.06-7.22h-3.83c-1.93,0-2.93.87-2.93,2.35s.93,2.32,3,2.32c1.26,0,2.19-.1,3.06-.93.48-.48.71-1.26.71-2.42v-1.32Z" fill="#1d1d1b"/>
    <path d="m43.97,117.77c-.74-.74-1.32-1.1-2.45-1.1-1.77,0-3.25,1.42-3.25,3.67v9.92h-3.29v-16.33h3.22v1.77c.84-1.16,2.51-1.96,4.35-1.96,1.58,0,2.77.42,3.9,1.55l-2.48,2.48Z" fill="#1d1d1b"/>
    <path d="m69.3,130.27v-9.95c0-2.54-1.45-3.64-3.29-3.64s-3.38,1.13-3.38,3.48v10.11h-3.29v-9.95c0-2.54-1.45-3.64-3.29-3.64s-3.38,1.13-3.38,3.64v9.95h-3.29v-16.33h3.22v1.64c1.1-1.19,2.71-1.84,4.35-1.84,2.03,0,3.61.81,4.64,2.38,1.32-1.61,2.96-2.38,5.12-2.38,1.68,0,3.16.55,4.12,1.48,1.26,1.22,1.74,2.77,1.74,4.61v10.44h-3.29Z" fill="#1d1d1b"/>
    <path d="m82.82,130.46c-2.67,0-4.93-.45-6.86-2.35l2.16-2.16c1.32,1.35,3.09,1.71,4.7,1.71,2,0,3.58-.71,3.58-2.25,0-1.1-.61-1.8-2.19-1.93l-2.61-.23c-3.06-.26-4.83-1.64-4.83-4.51,0-3.19,2.74-4.99,6.15-4.99,2.45,0,4.54.52,6.06,1.84l-2.06,2.09c-1.03-.87-2.48-1.19-4.03-1.19-1.96,0-2.96.87-2.96,2.09,0,.97.51,1.71,2.25,1.87l2.58.23c3.06.26,4.86,1.71,4.86,4.61,0,3.41-2.9,5.19-6.8,5.19Z" fill="#1d1d1b"/>
    <path d="m98.5,130.27c-3.06,0-4.48-2.19-4.48-4.54v-8.99h-1.87v-2.51h1.87v-4.96h3.29v4.96h3.16v2.51h-3.16v8.83c0,1.19.58,1.9,1.8,1.9h1.35v2.8h-1.96Z" fill="#1d1d1b"/>
    <path d="m113.44,130.27v-1.48c-1.19,1.19-2.32,1.68-4.35,1.68s-3.38-.48-4.38-1.48c-.84-.87-1.29-2.13-1.29-3.51,0-2.74,1.9-4.7,5.64-4.7h4.32v-1.16c0-2.06-1.03-3.06-3.58-3.06-1.8,0-2.67.42-3.58,1.58l-2.16-2.03c1.55-1.8,3.16-2.35,5.86-2.35,4.48,0,6.73,1.9,6.73,5.6v10.92h-3.22Zm-.06-7.22h-3.83c-1.93,0-2.93.87-2.93,2.35s.93,2.32,3,2.32c1.26,0,2.19-.1,3.06-.93.48-.48.71-1.26.71-2.42v-1.32Z" fill="#1d1d1b"/>
    <path d="m130.85,130.27v-1.74c-1.22,1.48-2.54,1.93-4.32,1.93-1.64,0-3.09-.55-3.99-1.45-1.64-1.64-1.84-4.44-1.84-6.93s.19-5.25,1.84-6.89c.9-.9,2.32-1.45,3.96-1.45,1.74,0,3.09.42,4.28,1.84v-8.25h3.29v22.93h-3.22Zm-3.45-13.59c-2.96,0-3.41,2.51-3.41,5.41s.45,5.44,3.41,5.44,3.38-2.54,3.38-5.44-.42-5.41-3.38-5.41Z" fill="#1d1d1b"/>
    <path d="m143.88,130.27c-3.06,0-4.48-2.19-4.48-4.54v-8.99h-1.87v-2.51h1.87v-4.96h3.29v4.96h3.16v2.51h-3.16v8.83c0,1.19.58,1.9,1.8,1.9h1.35v2.8h-1.96Z" fill="#1d1d1b"/>
  </g>
</svg>