<?xml version="1.0" encoding="UTF-8"?>
<svg xmlns="http://www.w3.org/2000/svg" version="1.1" viewBox="0 0 489.3 120.5">
  <defs>
    <style>
      .cls-1 {
        fill: #fff;
      }
    </style>
  </defs>
  <!-- Generator: Adobe Illustrator 28.7.1, SVG Export Plug-In . SVG Version: 1.2.0 Build 142)  -->
  <g>
    <g id="Kombi_lang_2_schwarz">
      <path class="cls-1" d="M82.2,47.8c-2.5-2.8-5.4-3.8-9.3-3.8s-7.2,1.3-9.3,3.4c-3.8,3.8-3.9,10.3-3.9,16s0,12.3,3.9,16.1c2.1,2.1,5.6,3.4,9.4,3.4s6.8-1.1,9.4-4v3.6h9.3V30.5h-9.5v17.3ZM75.7,74.5c-5.7,0-6.4-4.8-6.4-11s.7-10.9,6.4-10.9,6.5,4.7,6.5,10.9-.8,11-6.5,11Z"/>
      <path class="cls-1" d="M114.4,44c-6.4,0-10,1.2-13.8,5.3l6.1,5.9c2-2.3,3.7-3.2,7.3-3.2s7.1,1.8,7.1,6v1.9h-9c-8.8,0-13,5-13,11s1.1,6.4,3.2,8.6c2.3,2.3,5.4,3.4,9.7,3.4s6.8-1.1,9.4-3.7v3.3h9.3v-25.1c0-8.9-5.6-13.5-16.2-13.5ZM121.1,68.6c0,2.3-.4,3.9-1.4,4.8-1.7,1.6-3.4,1.8-6,1.8s-5.5-1.8-5.5-4.4,1.9-4.3,5.3-4.3h7.5v2.1h0Z"/>
      <path class="cls-1" d="M18.6,44c-3.4,0-6.6,1.3-9.1,4v-17.5H0v52.1h9.5v-23.3c0-5,3.1-6.7,6.1-6.7s6.2,1.7,6.2,6.7v23.3h9.5v-24.7c0-8-4.4-13.9-12.7-13.9Z"/>
      <rect class="cls-1" x="36.5" y="87.4" width="22.7" height="2.2"/>
      <path class="cls-1" d="M165.6,43.9c-1.3,0-2.5.5-3.4,1.5v-6.6h-2.6v18.2h2.6v-8c0-2,1.2-2.8,2.6-2.8s2.6.9,2.6,2.8v8h2.6v-8.4c0-2.8-1.6-4.8-4.5-4.8Z"/>
      <path class="cls-1" d="M178.7,43.9c-1.8,0-3,.7-3.9,1.5-1.2,1.3-1.5,2.9-1.5,5.1s.3,3.8,1.5,5.1c.9.9,2.1,1.5,3.9,1.5s3.1-.7,3.9-1.5c1.2-1.3,1.5-2.9,1.5-5.1s-.3-3.8-1.5-5.1c-.9-.9-2.1-1.5-3.9-1.5ZM180.7,54.1c-.5.5-1.1.8-1.9.8s-1.4-.3-1.9-.8c-.8-.8-.9-2.2-.9-3.6s.1-2.8.9-3.6c.5-.5,1.1-.7,1.9-.7s1.4.3,1.9.7c.8.8.9,2.2.9,3.6s-.1,2.8-.9,3.6Z"/>
      <path class="cls-1" d="M192.7,46.2c1,0,1.7.3,2.5,1.2l1.8-1.7c-1.2-1.3-2.5-1.8-4.3-1.8-2.9,0-5.8,1.8-5.8,6.6s2.9,6.7,5.8,6.7,3.1-.5,4.3-1.8l-1.8-1.7c-.8.9-1.5,1.2-2.5,1.2s-1.8-.4-2.4-1.2c-.6-.7-.8-1.7-.8-3.2s.2-2.4.8-3.2c.6-.7,1.4-1.2,2.4-1.1Z"/>
      <path class="cls-1" d="M202.4,49c0-2,1.2-2.8,2.6-2.8s2.6.9,2.6,2.8v8h2.6v-8.4c0-2.8-1.6-4.8-4.5-4.8s-2.5.5-3.4,1.5v-6.6h-2.6v18.2h2.6s0-8,0-8Z"/>
      <path class="cls-1" d="M223.9,53c0-2.3-1.4-3.5-3.9-3.7l-2.1-.2c-1.4-.1-1.8-.7-1.8-1.5s.8-1.7,2.4-1.7,2.4.3,3.2,1l1.6-1.7c-1.2-1-2.9-1.5-4.8-1.5s-4.9,1.4-4.9,4,1.4,3.4,3.8,3.6l2.1.2c1.3,0,1.7.7,1.7,1.5s-1.3,1.8-2.8,1.8-2.7-.3-3.7-1.4l-1.7,1.7c1.5,1.5,3.3,1.9,5.4,1.9,3.1,0,5.4-1.4,5.4-4.1h0Z"/>
      <path class="cls-1" d="M234.6,53.6c-.8.9-1.5,1.2-2.5,1.2s-1.8-.4-2.4-1.2c-.6-.7-.8-1.7-.8-3.2s.2-2.4.8-3.2c.6-.7,1.4-1.2,2.4-1.2s1.7.3,2.5,1.2l1.8-1.7c-1.2-1.3-2.5-1.8-4.3-1.8-2.9,0-5.8,1.8-5.8,6.6s2.9,6.7,5.8,6.7,3.1-.5,4.3-1.8c0,0-1.8-1.7-1.8-1.7Z"/>
      <path class="cls-1" d="M241.9,49c0-2,1.2-2.8,2.6-2.8s2.6.9,2.6,2.8v8h2.6v-8.4c0-2.8-1.6-4.8-4.5-4.8s-2.5.5-3.4,1.5v-6.6h-2.6v18.2h2.6s0-8,0-8Z"/>
      <path class="cls-1" d="M261.3,55.7v1.3h2.6v-13h-2.6v7.9c0,2-1.2,2.9-2.7,2.9s-2.6-.9-2.6-2.9v-7.9h-2.6v8.3c0,1.5.3,2.7,1.3,3.7.8.7,1.9,1.2,3.2,1.2s2.6-.5,3.5-1.5h0Z"/>
      <path class="cls-1" d="M272.9,57v-2.2h-1.1c-1,0-1.4-.5-1.4-1.5v-14.5h-2.6v14.7c0,1.9,1.1,3.6,3.6,3.6h1.6Z"/>
      <path class="cls-1" d="M280.3,43.9c-3.3,0-5.5,2.4-5.5,6.6s2.6,6.7,5.8,6.7,3.5-.7,4.9-2l-1.7-1.6c-.9.9-1.7,1.3-3.1,1.3-2.1,0-3.3-1.4-3.3-3.6h8.4v-1.2c0-3.7-2-6.2-5.5-6.2h0ZM277.4,49.5c0-.8,0-1.2.3-1.8.4-1,1.4-1.6,2.6-1.6s2.1.7,2.6,1.6c.3.6.3,1,.4,1.8h-5.8,0Z"/>
      <path class="cls-1" d="M167.1,70.9c-.9-1.1-2-1.5-3.4-1.5s-2.4.4-3.1,1.2c-1.3,1.3-1.5,3.5-1.5,5.5s.1,4.2,1.5,5.5c.7.7,1.9,1.2,3.2,1.2s2.5-.4,3.4-1.5v1.4h2.6v-18.2h-2.6v6.6h0ZM164.4,80.4c-2.4,0-2.7-2-2.7-4.3s.4-4.3,2.7-4.3,2.7,2,2.7,4.3-.3,4.3-2.7,4.3Z"/>
      <path class="cls-1" d="M177.9,69.5c-2.1,0-3.4.4-4.7,1.9l1.7,1.6c.7-.9,1.4-1.2,2.8-1.2s2.8.8,2.8,2.4v.9h-3.4c-3,0-4.5,1.6-4.5,3.7s.4,2.1,1,2.8c.8.8,1.9,1.2,3.5,1.2s2.5-.4,3.5-1.3v1.2h2.6v-8.7c0-2.9-1.8-4.5-5.4-4.5ZM180.6,77.9c0,.9-.2,1.5-.6,1.9-.7.7-1.4.7-2.4.7-1.6,0-2.4-.7-2.4-1.8s.8-1.9,2.3-1.9h3.1v1.1h0Z"/>
      <path class="cls-1" d="M189.5,71v-1.4h-2.6v13h2.6v-7.9c0-1.8,1.2-2.9,2.6-2.9s1.4.3,1.9.9l2-2c-.9-.9-1.8-1.2-3.1-1.2s-2.8.6-3.5,1.6h0Z"/>
      <path class="cls-1" d="M212.3,69.5c-1.7,0-3,.6-4.1,1.9-.8-1.2-2.1-1.9-3.7-1.9s-2.6.5-3.5,1.5v-1.3h-2.6v13h2.6v-7.9c0-2,1.2-2.9,2.7-2.9s2.6.9,2.6,2.9v7.9h2.6v-8c0-1.9,1.3-2.8,2.7-2.8s2.6.9,2.6,2.9v7.9h2.6v-8.3c0-1.5-.4-2.7-1.4-3.7-.8-.7-1.9-1.2-3.3-1.2h0Z"/>
      <path class="cls-1" d="M226.6,75l-2.1-.2c-1.4-.1-1.8-.7-1.8-1.5s.8-1.7,2.4-1.7,2.4.3,3.2.9l1.6-1.7c-1.2-1.1-2.9-1.5-4.8-1.5s-4.9,1.4-4.9,4,1.4,3.4,3.8,3.6l2.1.2c1.3,0,1.7.7,1.7,1.5s-1.3,1.8-2.8,1.8-2.7-.3-3.7-1.4l-1.7,1.7c1.5,1.5,3.3,1.9,5.5,1.9,3.1,0,5.4-1.4,5.4-4.1s-1.4-3.5-3.9-3.7h0Z"/>
      <path class="cls-1" d="M236.7,65.9h-2.6v3.9h-1.5v2h1.5v7.2c0,1.9,1.1,3.6,3.6,3.6h1.6v-2.2h-1.1c-1,0-1.4-.6-1.4-1.5v-7h2.5v-2h-2.5v-3.9h0Z"/>
      <path class="cls-1" d="M246.8,69.5c-2.1,0-3.4.4-4.7,1.9l1.7,1.6c.7-.9,1.4-1.2,2.8-1.2s2.8.8,2.8,2.4v.9h-3.4c-3,0-4.5,1.6-4.5,3.7s.4,2.1,1,2.8c.8.8,1.9,1.2,3.5,1.2s2.5-.4,3.5-1.3v1.2h2.6v-8.7c0-2.9-1.8-4.5-5.4-4.5ZM249.5,77.9c0,.9-.2,1.5-.6,1.9-.7.7-1.4.7-2.4.7-1.6,0-2.4-.7-2.4-1.8s.8-1.9,2.3-1.9h3.1v1.1h0Z"/>
      <path class="cls-1" d="M263.4,70.9c-1-1.1-2-1.5-3.4-1.5s-2.4.4-3.1,1.2c-1.3,1.3-1.5,3.5-1.5,5.5s.1,4.2,1.5,5.5c.7.7,1.9,1.2,3.2,1.2s2.5-.4,3.4-1.5v1.4h2.6v-18.2h-2.6v6.6h0ZM260.7,80.4c-2.4,0-2.7-2-2.7-4.3s.4-4.3,2.7-4.3,2.7,2,2.7,4.3-.3,4.3-2.7,4.3Z"/>
      <path class="cls-1" d="M272.9,65.9h-2.6v3.9h-1.5v2h1.5v7.2c0,1.9,1.1,3.6,3.6,3.6h1.6v-2.2h-1.1c-1,0-1.4-.6-1.4-1.5v-7h2.5v-2h-2.5v-3.9h0Z"/>
      <polygon class="cls-1" points="304.6 120.2 305.4 120.5 337.7 .2 336.9 0 304.6 120.2"/>
      <path class="cls-1" d="M395.5,23.5c0-1,.5-1.5,1.4-1.5s1.4.5,1.4,1.5v3.4h.8v-3.5c0-.9.6-1.4,1.4-1.4s1.4.5,1.4,1.5v3.4h.8v-3.5c0-.6-.2-1.2-.6-1.5-.3-.3-.8-.5-1.4-.5s-1.4.3-1.8.9c-.3-.6-.9-.9-1.7-.9s-1.2.2-1.6.7v-.6h-.8v5.5h.8v-3.4h0Z"/>
      <path class="cls-1" d="M407.1,27c1,0,1.5-.3,2-.9l-.5-.5c-.4.4-.8.6-1.5.6-1.1,0-1.6-.7-1.6-1.9h3.7v-.4c0-1.6-.8-2.7-2.3-2.7s-2.3,1-2.3,2.8,1,2.8,2.4,2.8h0ZM405.7,22.8c.2-.5.7-.8,1.3-.8s1.1.3,1.3.8c.1.3.1.5.2.9h-2.9c0-.5,0-.6.2-.9h0Z"/>
      <path class="cls-1" d="M412.3,23.5c0-1,.5-1.5,1.4-1.5s1.4.5,1.4,1.5v3.4h.8v-3.5c0-.9.6-1.4,1.4-1.4s1.4.5,1.4,1.5v3.4h.8v-3.5c0-.6-.2-1.2-.6-1.5-.3-.3-.8-.5-1.4-.5s-1.4.3-1.8.9c-.3-.6-.9-.9-1.7-.9s-1.2.2-1.6.7v-.6h-.8v5.5h.8v-3.4h0Z"/>
      <path class="cls-1" d="M422.6,26.2c.5.6,1,.7,1.6.7s1.1-.2,1.4-.5c.6-.6.7-1.5.7-2.4s-.1-1.8-.7-2.4c-.3-.3-.8-.5-1.4-.5s-1.1.1-1.6.7v-3.1h-.8v8h.8v-.7h0ZM424,22c1.2,0,1.4,1,1.4,2.1s-.2,2.1-1.4,2.1-1.4-1-1.4-2.1.2-2.1,1.4-2.1Z"/>
      <path class="cls-1" d="M430.6,27c1,0,1.5-.3,2-.9l-.5-.5c-.4.4-.8.6-1.5.6-1.1,0-1.6-.7-1.6-1.9h3.7v-.4c0-1.6-.8-2.7-2.3-2.7s-2.3,1-2.3,2.8,1,2.8,2.4,2.8h0ZM429.1,22.8c.2-.5.7-.8,1.3-.8s1.1.3,1.3.8c.1.3.1.5.2.9h-2.9c0-.5,0-.6.2-.9h0Z"/>
      <path class="cls-1" d="M435.7,23.5c0-.8.5-1.5,1.3-1.5s.6.1,1,.4l.6-.6c-.4-.4-.8-.5-1.3-.5s-1.2.3-1.5.7v-.7h-.8v5.5h.8v-3.4h0Z"/>
      <path class="cls-1" d="M444.4,27c.7,0,1.2-.2,1.6-.6.6-.6.7-1.4.7-2.2s-.1-1.6-.7-2.2c-.4-.4-.9-.6-1.6-.6s-1.2.2-1.6.6c-.6.6-.7,1.4-.7,2.2s.1,1.6.7,2.2c.4.4.9.6,1.6.6ZM443.4,22.4c.3-.3.6-.4,1-.4s.8.1,1,.4c.4.4.4,1.1.4,1.7s0,1.3-.4,1.7c-.3.3-.6.4-1,.4s-.7-.1-1-.4c-.4-.4-.5-1.1-.5-1.7s0-1.3.5-1.7Z"/>
      <path class="cls-1" d="M449,26.9h.8v-4.9h1.2v-.6h-1.2v-1c0-.5.2-.8.7-.8h.4v-.7h-.6c-1,0-1.4.7-1.4,1.5v1h-.7v.6h.7v4.9h0Z"/>
      <path class="cls-1" d="M381.6,93.3c.2-.3.4-.7.4-1.1,0-1.2-.8-1.8-2.3-1.8h-1.6v6.3h1v-2.6h.6l1.5,2.6h1.2l-1.7-2.7c.4-.1.7-.3,1-.6h0ZM379,93.3v-2.1h.7c.4,0,.7,0,.9.2.2.2.3.4.3.8s-.1.7-.3.8c-.2.2-.5.3-.9.3h-.7,0Z"/>
      <path class="cls-1" d="M454.4,93.3c.2-.3.4-.7.4-1.1,0-1.2-.8-1.8-2.3-1.8h-1.6v6.3h1v-2.6h.6l1.5,2.6h1.2l-1.7-2.7c.4-.1.7-.3,1-.6ZM451.9,93.3v-2.1h.7c.4,0,.7,0,.9.2.2.2.3.4.3.8s-.1.7-.3.8c-.2.2-.5.3-.9.3h-.7,0Z"/>
      <path class="cls-1" d="M446.3,101.1c-.7,0-1.3.3-1.7.9s-.6,1.4-.6,2.4.2,1.8.6,2.4c.4.6.9.9,1.7.9s1.3-.3,1.7-.9.6-1.4.6-2.4-.2-1.8-.6-2.4c-.4-.6-.9-.9-1.7-.9h0ZM447.3,106.2c-.2.4-.5.6-.9.6s-.7-.2-.9-.6c-.2-.4-.3-1-.3-1.8s.1-1.4.3-1.8.5-.6.9-.6.7.2.9.6c.2.4.3,1,.3,1.8s-.1,1.4-.3,1.8h0Z"/>
      <path class="cls-1" d="M386.5,101.1c-.7,0-1.3.3-1.7.9s-.6,1.4-.6,2.4.2,1.8.6,2.4c.4.6.9.9,1.7.9s1.3-.3,1.7-.9.6-1.4.6-2.4-.2-1.8-.6-2.4c-.4-.6-.9-.9-1.7-.9ZM387.4,106.2c-.2.4-.5.6-.9.6s-.7-.2-.9-.6c-.2-.4-.3-1-.3-1.8s.1-1.4.3-1.8c.2-.4.5-.6.9-.6s.7.2.9.6.3,1,.3,1.8-.1,1.4-.3,1.8h0Z"/>
      <path class="cls-1" d="M386.3,96.8c.7,0,1.3-.3,1.7-.9.4-.6.6-1.4.6-2.4s-.2-1.8-.6-2.4c-.4-.6-.9-.9-1.7-.9s-1.3.3-1.7.9-.6,1.4-.6,2.4.2,1.8.6,2.4c.4.6.9.9,1.7.9ZM385.4,91.7c.2-.4.5-.6.9-.6s.7.2.9.6c.2.4.3,1,.3,1.8s-.1,1.4-.3,1.8c-.2.4-.5.6-.9.6s-.7-.2-.9-.6c-.2-.4-.3-1-.3-1.8s.1-1.4.3-1.8Z"/>
      <path class="cls-1" d="M452.9,104.8h1v1.7c-.3.2-.6.3-1,.3s-.8-.2-1.1-.6c-.2-.4-.4-1-.4-1.9s.1-1.4.4-1.8.7-.6,1.1-.6.4,0,.6.1c.2,0,.4.2.5.4l.6-.6c-.2-.2-.5-.4-.8-.6s-.6-.2-1-.2-.9.1-1.3.4c-.4.2-.7.6-.9,1.1-.2.5-.4,1.1-.4,1.8,0,1.1.2,1.9.6,2.4.4.6,1,.8,1.8.8s.7,0,1.1-.2.6-.2.9-.4v-3.1h-2.1v.8c.1,0,.1,0,.1,0Z"/>
      <path class="cls-1" d="M374.5,94.4c0,.5,0,.9-.2,1.2s-.4.4-.8.4-.6-.1-.8-.4c-.2-.2-.2-.6-.2-1.2v-4h-1v4.2c0,.7.2,1.2.5,1.6.4.4.9.6,1.5.6s.8,0,1.1-.3c.3-.2.5-.4.7-.8.2-.3.2-.7.2-1.1v-4.2h-1v4h0Z"/>
      <polygon class="cls-1" points="469 91.2 470.8 91.2 470.8 96.7 471.8 96.7 471.8 91.2 473.5 91.2 473.6 90.4 469 90.4 469 91.2"/>
      <polygon class="cls-1" points="477.7 93.3 476.3 90.4 475.2 90.4 477.2 94.3 477.2 96.7 478.2 96.7 478.2 94.3 480.2 90.4 479.1 90.4 477.7 93.3"/>
      <polygon class="cls-1" points="366.4 93.8 368.6 93.8 368.6 93.1 366.4 93.1 366.4 91.2 368.9 91.2 369 90.4 365.4 90.4 365.4 96.7 369 96.7 369 95.8 366.4 95.8 366.4 93.8"/>
      <polygon class="cls-1" points="458.9 104.2 457.5 101.2 456.5 101.2 458.4 105.1 458.4 107.5 459.4 107.5 459.4 105.1 461.4 101.2 460.4 101.2 458.9 104.2"/>
      <polygon class="cls-1" points="463.4 91.2 464.7 91.2 464.7 95.8 463.4 95.8 463.4 96.7 467 96.7 467 95.8 465.7 95.8 465.7 91.2 467 91.2 467 90.4 463.4 90.4 463.4 91.2"/>
      <path class="cls-1" d="M413.5,90.4h-.9v2.9c0,.5,0,.9,0,1.3,0,.4,0,.8.1,1.2l-1.9-5.3h-1.3v6.3h.9v-2.8c0-.7,0-1.5-.1-2.5l1.9,5.3h1.3v-6.3Z"/>
      <polygon class="cls-1" points="391 107.5 392 107.5 392 104.8 394.3 104.8 394.3 104 392 104 392 102 394.6 102 394.7 101.2 391 101.2 391 107.5"/>
      <polygon class="cls-1" points="448.1 91.2 448.2 90.4 444.7 90.4 444.7 96.7 448.3 96.7 448.3 95.8 445.7 95.8 445.7 93.8 447.8 93.8 447.8 93.1 445.7 93.1 445.7 91.2 448.1 91.2"/>
      <polygon class="cls-1" points="435.5 91.2 435.5 90.4 432 90.4 432 91.2 433.3 91.2 433.3 95.8 432 95.8 432 96.7 435.5 96.7 435.5 95.8 434.3 95.8 434.3 91.2 435.5 91.2"/>
      <path class="cls-1" d="M434.2,101.1c-.7,0-1.3.3-1.7.9s-.6,1.4-.6,2.4.2,1.8.6,2.4c.4.6.9.9,1.7.9s1.3-.3,1.7-.9.6-1.4.6-2.4-.2-1.8-.6-2.4c-.4-.6-.9-.9-1.7-.9h0ZM435.1,106.2c-.2.4-.5.6-.9.6s-.7-.2-.9-.6c-.2-.4-.3-1-.3-1.8s.1-1.4.3-1.8.5-.6.9-.6.7.2.9.6c.2.4.3,1,.3,1.8s-.1,1.4-.3,1.8Z"/>
      <polygon class="cls-1" points="422.3 103.8 420.4 103.8 420.4 101.2 419.4 101.2 419.4 107.5 420.4 107.5 420.4 104.6 422.3 104.6 422.3 107.5 423.3 107.5 423.3 101.2 422.3 101.2 422.3 103.8"/>
      <path class="cls-1" d="M416,106.6c-.2,0-.5.1-.7.1-.5,0-.9-.2-1.2-.6s-.5-1-.5-1.8.1-1.4.5-1.8c.3-.4.7-.6,1.2-.6s.9.2,1.2.5l.5-.7c-.2-.2-.5-.4-.8-.5-.3,0-.6-.2-1-.2s-.9.1-1.3.4c-.4.3-.7.6-1,1.1-.2.5-.4,1.1-.4,1.8s.1,1.3.3,1.8.5.9.9,1.1.9.4,1.4.4c.8,0,1.4-.2,1.9-.7l-.5-.7c-.2.2-.4.3-.6.4h0Z"/>
      <path class="cls-1" d="M426.6,93.8c0-.7,0-1.5-.1-2.5l1.9,5.3h1.3v-6.3h-.9v2.9c0,.5,0,.9,0,1.3,0,.4,0,.8.1,1.2l-1.9-5.3h-1.3v6.3h.9v-2.8h0Z"/>
      <path class="cls-1" d="M422.3,94.4c0,.5,0,.9-.2,1.2s-.4.4-.8.4-.6-.1-.8-.4c-.2-.2-.2-.6-.2-1.2v-4h-1v4.2c0,.7.2,1.2.5,1.6.4.4.9.6,1.5.6s.8,0,1.1-.3c.3-.2.5-.4.7-.8.2-.3.2-.7.2-1.1v-4.2h-1v4h0Z"/>
      <path class="cls-1" d="M459,95.9c-.6,0-1.2-.2-1.6-.7l-.5.6c.5.6,1.3.8,2.2.8s.9,0,1.2-.2c.3-.2.6-.4.8-.7.2-.3.3-.6.3-1,0-.6-.1-1-.5-1.2-.3-.3-.7-.5-1.3-.7-.4-.1-.6-.2-.8-.3-.2,0-.3-.2-.4-.3,0-.1-.1-.3-.1-.4,0-.3.1-.5.3-.6.2-.1.5-.2.8-.2.5,0,1,.2,1.4.6l.5-.6c-.5-.5-1.2-.8-2-.8s-.7,0-1,.2c-.3.1-.5.3-.7.6-.2.3-.3.6-.3.9s.1.8.5,1.1c.3.3.8.5,1.5.7.3,0,.6.2.7.3.2,0,.3.2.4.3,0,.1.1.3.1.5,0,.3-.1.6-.4.8s-.5.3-.9.3h0Z"/>
      <polygon class="cls-1" points="400.5 102.1 402.2 102.1 402.2 107.5 403.2 107.5 403.2 102.1 404.9 102.1 405 101.2 400.5 101.2 400.5 102.1"/>
      <polygon class="cls-1" points="439.9 101.2 438.9 101.2 438.9 107.5 442.5 107.5 442.6 106.6 439.9 106.6 439.9 101.2"/>
      <path class="cls-1" d="M428.9,104.1c0,.5,0,.9,0,1.3,0,.4,0,.8.1,1.2l-1.9-5.3h-1.3v6.3h.9v-2.8c0-.7,0-1.5-.1-2.5l1.9,5.3h1.3v-6.3h-.9v2.8h0Z"/>
      <polygon class="cls-1" points="400.5 91.2 400.7 90.4 397.1 90.4 397.1 96.7 400.7 96.7 400.7 95.8 398.1 95.8 398.1 93.8 400.2 93.8 400.2 93.1 398.1 93.1 398.1 91.2 400.5 91.2"/>
      <polygon class="cls-1" points="440.2 95.7 438.8 90.4 437.8 90.4 439.6 96.7 440.8 96.7 442.6 90.4 441.6 90.4 440.2 95.7"/>
      <polygon class="cls-1" points="408.1 104.7 410.2 104.7 410.2 103.9 408.1 103.9 408.1 102 410.5 102 410.6 101.2 407.1 101.2 407.1 107.5 410.7 107.5 410.7 106.7 408.1 106.7 408.1 104.7"/>
      <path class="cls-1" d="M405.8,90.4h-1.2l-1.9,6.3h1l.4-1.5h2.1l.4,1.5h1l-1.9-6.3h0ZM404.3,94.3l.9-3.1.9,3.1h-1.7Z"/>
      <path class="cls-1" d="M392.6,90.4h-1.6v6.3h1v-2.2h.7c.7,0,1.3-.2,1.7-.5.4-.3.6-.9.6-1.6s-.2-1.2-.6-1.5c-.4-.3-1-.5-1.8-.5h0ZM393.6,93.3c-.2.2-.5.3-.9.3h-.7v-2.4h.7c.9,0,1.3.4,1.3,1.2s-.1.8-.3,1h0Z"/>
      <polygon class="cls-1" points="481.8 62.2 481.8 54.6 476.9 54.6 476.9 62.2 469.3 62.2 469.3 67.2 476.9 67.2 476.9 74.9 481.8 74.9 481.8 67.2 489.3 67.2 489.3 62.2 481.8 62.2"/>
      <rect class="cls-1" x="453.2" y="54.6" width="4.9" height="28"/>
      <path class="cls-1" d="M442,82.6v-33.6h27.4v-5h-32.3v33.6h-8.9c-5.1,0-8.8-3.4-8.8-8v-25.6h-4.9v16.2c0,9.7-7.4,17.3-16.8,17.3s-13.5-3.9-15.6-10.4h11.7c8.9,0,13.5-6.3,13.5-12.5s-4.5-11.9-13.1-11.9-17.8,8.7-17.8,18.9v.4h-20v5h20.6c2.2,9.4,10.3,15.4,20.7,15.4s13.4-3.3,17.4-8.9c1.8,5.4,6.9,8.9,13.1,8.9h13.8ZM381.2,62.2v-.4c0-7.4,6-13.9,12.9-13.9s8.2,4.5,8.2,6.8c0,5.2-4.4,7.5-8.5,7.5h-12.5,0Z"/>
    </g>
  </g>
</svg>