<?xml version="1.0" encoding="utf-8"?>
<!-- Generator: Adobe Illustrator 24.0.2, SVG Export Plug-In . SVG Version: 6.00 Build 0)  -->
<svg version="1.1" id="Ebene_1" xmlns="http://www.w3.org/2000/svg" xmlns:xlink="http://www.w3.org/1999/xlink" x="0px" y="0px"
	 viewBox="0 0 30 30" style="enable-background:new 0 0 30 30;" xml:space="preserve">
<path d="M21.4,18c0,0-2.2,3.2-6.7,3.2s-6.4-2.1-7-3.2c0-3.2-0.1-4-0.1-4l7.1,2.8l6.8-2.8L21.4,18z"/>
<path d="M14.7,16.2l-8.9-3.5v1.4c0.2,0.1,0.4,0.2,0.4,0.4s-0.1,0.4-0.3,0.4c0.1,1,0.5,6.3,0.5,6.9c0,0.6-1.4,0.6-1.4,0
	c0-0.5,0.4-5.7,0.5-6.9c-0.3,0-0.5-0.2-0.5-0.4s0.2-0.4,0.4-0.5v-1.4l-4.6-1.8l13.8-5.3c0,0,9.1,3.6,13.7,5.3L14.7,16.2z"/>
</svg>
