<svg version="1.1" id="Ebene_1" xmlns="http://www.w3.org/2000/svg" xmlns:xlink="http://www.w3.org/1999/xlink" x="0px" y="0px"
     viewBox="0 0 11.6 5.2" style="enable-background:new 0 0 11.6 5.2;" xml:space="preserve">
<path d="M2.8,4.6V2.4c0-0.7-0.4-1.2-1.1-1.2c-0.3,0-0.6,0.1-0.8,0.4V0H0v4.6h0.8V2.6C0.8,2.1,1.1,2,1.4,2c0.3,0,0.6,0.1,0.6,0.6v2.1
    H2.8L2.8,4.6z M5.3,5.2V5.1h-2v0.2H5.3L5.3,5.2z M8.1,4.6V0H7.3v1.5C7.1,1.3,6.8,1.2,6.5,1.2c-0.3,0-0.6,0.1-0.8,0.3
    C5.3,1.8,5.3,2.4,5.3,2.9s0,1.1,0.3,1.4c0.2,0.2,0.5,0.3,0.8,0.3c0.4,0,0.6-0.1,0.8-0.4v0.3H8.1L8.1,4.6z M7.3,2.9
    c0,0.6-0.1,1-0.6,1c-0.5,0-0.6-0.4-0.6-1c0-0.6,0.1-1,0.6-1C7.2,2,7.3,2.4,7.3,2.9L7.3,2.9z M11.6,4.6V2.4c0-0.8-0.5-1.2-1.4-1.2
    c-0.6,0-0.9,0.1-1.2,0.5l0.5,0.5C9.7,2,9.8,1.9,10.1,1.9c0.4,0,0.6,0.2,0.6,0.5v0.2H10c-0.8,0-1.2,0.4-1.2,1c0,0.3,0.1,0.6,0.3,0.8
    c0.2,0.2,0.5,0.3,0.9,0.3c0.4,0,0.6-0.1,0.8-0.3v0.3H11.6L11.6,4.6z M10.8,3.4c0,0.2,0,0.3-0.1,0.4C10.5,4,10.3,4,10.1,4
    C9.8,4,9.6,3.8,9.6,3.6c0-0.2,0.2-0.4,0.5-0.4h0.7V3.4L10.8,3.4z"/>
</svg>
