<?xml version="1.0" encoding="utf-8"?>
<!-- Generator: Adobe Illustrator 23.0.6, SVG Export Plug-In . SVG Version: 6.00 Build 0)  -->
<svg version="1.1" id="Ebene_2" xmlns="http://www.w3.org/2000/svg" xmlns:xlink="http://www.w3.org/1999/xlink" x="0px" y="0px"
	 viewBox="0 0 187.1 22.8" style="enable-background:new 0 0 187.1 22.8;" xml:space="preserve">
<style type="text/css">
	.st0{fill:#1D1D1B;}
</style>
<path class="st0" d="M5.7,9.9L4.6,8.8C4.2,9.2,3.9,9.3,3.5,9.3c-0.4,0-0.7-0.1-1-0.4C2.2,8.5,2.1,8.1,2.1,7.4s0.1-1.2,0.4-1.5
	c0.2-0.3,0.6-0.4,1-0.4c0.4,0,0.7,0.2,1.1,0.5l1.1-1.1C5.1,4.2,4.4,3.9,3.5,3.9c-1.4,0-3,0.7-3,3.5c0,2.7,1.7,3.5,3,3.5
	C4.4,10.8,5.1,10.5,5.7,9.9L5.7,9.9z M11.8,9.9l-1.1-1.1C10.3,9.2,10,9.3,9.6,9.3c-0.4,0-0.7-0.1-1-0.4C8.3,8.5,8.2,8.1,8.2,7.4
	s0.1-1.2,0.4-1.5c0.2-0.3,0.6-0.4,1-0.4c0.4,0,0.7,0.2,1.1,0.5l1.1-1.1c-0.6-0.6-1.3-0.9-2.2-0.9c-1.4,0-3,0.7-3,3.5
	c0,2.7,1.7,3.5,3,3.5C10.5,10.8,11.2,10.5,11.8,9.9L11.8,9.9z M18.6,10.7V6.3c0-1.6-1-2.4-2.9-2.4c-1.1,0-1.8,0.2-2.4,0.9l1.1,1.1
	c0.4-0.4,0.7-0.6,1.3-0.6c0.9,0,1.3,0.3,1.3,1.1v0.3h-1.6c-1.6,0-2.3,0.9-2.3,2c0,0.6,0.2,1.1,0.6,1.5c0.4,0.4,1,0.6,1.7,0.6
	c0.8,0,1.2-0.2,1.7-0.6v0.6H18.6L18.6,10.7z M16.9,8.3c0,0.4-0.1,0.7-0.2,0.9c-0.3,0.3-0.6,0.3-1.1,0.3c-0.7,0-1-0.3-1-0.8
	c0-0.5,0.3-0.8,0.9-0.8h1.3V8.3L16.9,8.3z M25.9,8.6c0-1.1-0.7-1.9-2-2l-1.1-0.1c-0.6-0.1-0.7-0.3-0.7-0.6c0-0.3,0.3-0.7,1-0.7
	c0.6,0,1.2,0.1,1.6,0.5l1-1.1c-0.6-0.6-1.5-0.8-2.6-0.8c-1.4,0-2.6,0.8-2.6,2.2c0,1.2,0.8,1.8,2,1.9l1.1,0.1
	c0.5,0.1,0.7,0.3,0.7,0.6c0,0.5-0.6,0.7-1.2,0.7c-0.5,0-1.2-0.1-1.8-0.6l-1.1,1.1c0.9,0.9,1.8,1,2.9,1C24.6,10.8,25.9,10.1,25.9,8.6
	L25.9,8.6z M32.6,8.6c0-1.1-0.7-1.9-2-2l-1.1-0.1c-0.6-0.1-0.7-0.3-0.7-0.6c0-0.3,0.3-0.7,1-0.7c0.6,0,1.2,0.1,1.6,0.5l1-1.1
	c-0.6-0.6-1.5-0.8-2.6-0.8c-1.4,0-2.6,0.8-2.6,2.2c0,1.2,0.8,1.8,2,1.9l1.1,0.1c0.5,0.1,0.7,0.3,0.7,0.6c0,0.5-0.6,0.7-1.2,0.7
	c-0.5,0-1.2-0.1-1.8-0.6l-1.1,1.1c0.9,0.9,1.8,1,2.9,1C31.3,10.8,32.6,10.1,32.6,8.6L32.6,8.6z"/>
<g>
	<path class="st0" d="M42,21.8l-2.3-6.2h-0.6l-2.3,6.2h0.7l0.5-1.4h2.7l0.5,1.4H42L42,21.8z M40.6,19.8h-2.3l1.2-3.3L40.6,19.8
		L40.6,19.8z M47.7,17.4c0-1.1-0.8-1.8-1.9-1.8h-2.3v6.2h0.7v-2.5h1.6C46.9,19.2,47.7,18.5,47.7,17.4L47.7,17.4z M47,17.4
		c0,0.8-0.5,1.2-1.3,1.2h-1.6v-2.5h1.6C46.5,16.2,47,16.6,47,17.4L47,17.4z M53.4,17.4c0-1.1-0.8-1.8-1.9-1.8h-2.3v6.2h0.7v-2.5h1.6
		C52.6,19.2,53.4,18.5,53.4,17.4L53.4,17.4z M52.7,17.4c0,0.8-0.5,1.2-1.3,1.2h-1.6v-2.5h1.6C52.2,16.2,52.7,16.6,52.7,17.4
		L52.7,17.4z M58.7,21.8v-0.6h-3.2v-5.6h-0.7v6.2H58.7L58.7,21.8z M60.8,21.8v-6.2h-0.7v6.2H60.8L60.8,21.8z M66.8,21.8v-0.6h-3.2
		v-2.2h2.7v-0.6h-2.7v-2.2h3.2v-0.6H63v6.2H66.8L66.8,21.8z M72.8,18.6c0-0.9,0-1.8-0.6-2.4c-0.4-0.4-0.9-0.6-1.6-0.6h-2.1v6.2h2.1
		c0.6,0,1.2-0.2,1.6-0.6C72.8,20.5,72.8,19.5,72.8,18.6L72.8,18.6z M72.1,18.6c0,0.8,0,1.7-0.4,2.1c-0.3,0.3-0.7,0.5-1.2,0.5h-1.3
		v-5h1.3c0.5,0,0.9,0.1,1.2,0.5C72.1,17.1,72.1,17.8,72.1,18.6L72.1,18.6z M81,20.1c0-0.5-0.2-0.9-0.5-1.2c-0.3-0.2-0.5-0.3-1.1-0.4
		l-0.7-0.1c-0.3-0.1-0.6-0.2-0.8-0.3c-0.2-0.2-0.3-0.4-0.3-0.7c0-0.7,0.5-1.1,1.3-1.1c0.7,0,1.1,0.2,1.4,0.5l0.4-0.4
		c-0.5-0.5-1-0.7-1.8-0.7c-1.2,0-2,0.7-2,1.7c0,0.5,0.2,0.9,0.5,1.2c0.3,0.2,0.7,0.4,1.1,0.5l0.7,0.1c0.5,0.1,0.6,0.1,0.8,0.3
		c0.2,0.2,0.3,0.5,0.3,0.8c0,0.7-0.6,1.1-1.5,1.1c-0.7,0-1.2-0.2-1.7-0.7L76.7,21c0.6,0.6,1.2,0.8,2.1,0.8
		C80.1,21.8,81,21.1,81,20.1L81,20.1z M86.5,21.8v-0.6h-3.2v-2.2h2.7v-0.6h-2.7v-2.2h3.2v-0.6h-3.8v6.2H86.5L86.5,21.8z M92.8,21.8
		v-6.2h-0.7v4.9l-3.3-4.9h-0.6v6.2h0.7v-5l3.3,5H92.8L92.8,21.8z M98.7,20.1c0-0.5-0.2-0.9-0.5-1.2c-0.3-0.2-0.5-0.3-1.1-0.4
		l-0.7-0.1c-0.3-0.1-0.6-0.2-0.8-0.3c-0.2-0.2-0.3-0.4-0.3-0.7c0-0.7,0.5-1.1,1.3-1.1c0.7,0,1.1,0.2,1.4,0.5l0.4-0.4
		c-0.5-0.5-1-0.7-1.8-0.7c-1.2,0-2,0.7-2,1.7c0,0.5,0.2,0.9,0.5,1.2c0.3,0.2,0.7,0.4,1.1,0.5l0.7,0.1c0.5,0.1,0.6,0.1,0.8,0.3
		c0.2,0.2,0.3,0.5,0.3,0.8c0,0.7-0.6,1.1-1.5,1.1c-0.7,0-1.2-0.2-1.7-0.7L94.5,21c0.6,0.6,1.2,0.8,2.1,0.8
		C97.9,21.8,98.7,21.1,98.7,20.1L98.7,20.1z M104.5,18.7c0-1.3,0-1.9-0.6-2.5c-0.4-0.4-1-0.6-1.6-0.6c-0.6,0-1.2,0.2-1.6,0.6
		c-0.6,0.6-0.6,1.2-0.6,2.5c0,1.3,0,1.9,0.6,2.5c0.4,0.4,1,0.6,1.6,0.6c0.6,0,1.2-0.2,1.6-0.6C104.5,20.6,104.5,20,104.5,18.7
		L104.5,18.7z M103.9,18.7c0,1.3,0,1.7-0.4,2.1c-0.3,0.3-0.7,0.4-1.1,0.4c-0.4,0-0.8-0.2-1.1-0.4c-0.4-0.4-0.4-0.8-0.4-2.1
		c0-1.3,0-1.7,0.4-2.1c0.3-0.3,0.7-0.4,1.1-0.4c0.4,0,0.8,0.2,1.1,0.4C103.8,17,103.9,17.4,103.9,18.7L103.9,18.7z M110.7,21.8
		l-1.5-2.8c0.8-0.2,1.3-0.8,1.3-1.7c0-1.1-0.8-1.7-1.8-1.7h-2.4v6.2h0.7V19h1.5l1.4,2.7H110.7L110.7,21.8z M109.9,17.3
		c0,0.8-0.5,1.1-1.2,1.1H107v-2.3h1.6C109.4,16.2,109.9,16.6,109.9,17.3L109.9,17.3z M118.5,20.1c0-0.5-0.2-0.9-0.5-1.2
		c-0.3-0.2-0.5-0.3-1.1-0.4l-0.7-0.1c-0.3-0.1-0.6-0.2-0.8-0.3c-0.2-0.2-0.3-0.4-0.3-0.7c0-0.7,0.5-1.1,1.3-1.1
		c0.7,0,1.1,0.2,1.4,0.5l0.4-0.4c-0.5-0.5-1-0.7-1.8-0.7c-1.2,0-2,0.7-2,1.7c0,0.5,0.2,0.9,0.5,1.2c0.3,0.2,0.7,0.4,1.1,0.5l0.7,0.1
		c0.5,0.1,0.6,0.1,0.8,0.3c0.2,0.2,0.3,0.5,0.3,0.8c0,0.7-0.6,1.1-1.5,1.1c-0.7,0-1.2-0.2-1.7-0.7l-0.4,0.5c0.6,0.6,1.2,0.8,2.1,0.8
		C117.7,21.8,118.5,21.1,118.5,20.1L118.5,20.1z M123.9,15.6h-0.7l-1.4,3l-1.5-3h-0.7l1.8,3.6v2.5h0.7v-2.5L123.9,15.6L123.9,15.6z
		 M129,20.1c0-0.5-0.2-0.9-0.5-1.2c-0.3-0.2-0.5-0.3-1.1-0.4l-0.7-0.1c-0.3-0.1-0.6-0.2-0.8-0.3c-0.2-0.2-0.3-0.4-0.3-0.7
		c0-0.7,0.5-1.1,1.3-1.1c0.7,0,1.1,0.2,1.4,0.5l0.4-0.4c-0.5-0.5-1-0.7-1.8-0.7c-1.2,0-2,0.7-2,1.7c0,0.5,0.2,0.9,0.5,1.2
		c0.3,0.2,0.7,0.4,1.1,0.5l0.7,0.1c0.5,0.1,0.6,0.1,0.8,0.3c0.2,0.2,0.3,0.5,0.3,0.8c0,0.7-0.6,1.1-1.5,1.1c-0.7,0-1.2-0.2-1.7-0.7
		l-0.4,0.5c0.6,0.6,1.2,0.8,2.1,0.8C128.2,21.8,129,21.1,129,20.1L129,20.1z M134.3,16.2v-0.6h-4.2v0.6h1.8v5.6h0.7v-5.6H134.3
		L134.3,16.2z M139.7,21.8v-0.6h-3.2v-2.2h2.7v-0.6h-2.7v-2.2h3.2v-0.6h-3.8v6.2H139.7L139.7,21.8z M146.7,21.8v-6.2H146l-2,4.4
		l-2-4.4h-0.7v6.2h0.7v-4.7l1.7,3.7h0.6l1.7-3.7v4.7H146.7L146.7,21.8z M152.6,20.1c0-0.5-0.2-0.9-0.5-1.2c-0.3-0.2-0.5-0.3-1.1-0.4
		l-0.7-0.1c-0.3-0.1-0.6-0.2-0.8-0.3c-0.2-0.2-0.3-0.4-0.3-0.7c0-0.7,0.5-1.1,1.3-1.1c0.7,0,1.1,0.2,1.4,0.5l0.4-0.4
		c-0.5-0.5-1-0.7-1.8-0.7c-1.2,0-2,0.7-2,1.7c0,0.5,0.2,0.9,0.5,1.2c0.3,0.2,0.7,0.4,1.1,0.5l0.7,0.1c0.5,0.1,0.6,0.1,0.8,0.3
		c0.2,0.2,0.3,0.5,0.3,0.8c0,0.7-0.6,1.1-1.5,1.1c-0.7,0-1.2-0.2-1.7-0.7l-0.4,0.5c0.6,0.6,1.2,0.8,2.1,0.8
		C151.7,21.8,152.6,21.1,152.6,20.1L152.6,20.1z"/>
	<path class="st0" d="M41.4,8.8h-0.7c-0.2,0.8-0.7,1.2-1.5,1.2c-0.4,0-0.8-0.2-1.1-0.4c-0.4-0.4-0.4-0.8-0.4-2.1
		c0-1.3,0-1.7,0.4-2.1C38.5,5.1,38.8,5,39.3,5c0.8,0,1.3,0.5,1.5,1.2h0.7c-0.2-1.2-1-1.8-2.1-1.8c-0.6,0-1.2,0.2-1.6,0.6
		c-0.6,0.6-0.6,1.2-0.6,2.5c0,1.3,0,1.9,0.6,2.5c0.4,0.4,1,0.6,1.6,0.6C40.4,10.7,41.2,10,41.4,8.8L41.4,8.8z M47.3,7.5
		c0-1.3,0-1.9-0.6-2.5c-0.4-0.4-1-0.6-1.6-0.6c-0.6,0-1.2,0.2-1.6,0.6C43,5.6,43,6.2,43,7.5c0,1.3,0,1.9,0.6,2.5
		c0.4,0.4,1,0.6,1.6,0.6c0.6,0,1.2-0.2,1.6-0.6C47.3,9.4,47.3,8.8,47.3,7.5L47.3,7.5z M46.7,7.5c0,1.3,0,1.7-0.4,2.1
		c-0.3,0.3-0.7,0.4-1.1,0.4c-0.4,0-0.8-0.2-1.1-0.4c-0.4-0.4-0.4-0.8-0.4-2.1c0-1.3,0-1.7,0.4-2.1C44.4,5.1,44.8,5,45.2,5
		c0.4,0,0.8,0.2,1.1,0.4C46.6,5.8,46.7,6.2,46.7,7.5L46.7,7.5z M54.5,10.6V4.4h-0.7l-2,4.4l-2-4.4h-0.7v6.2h0.7V5.9l1.7,3.7h0.6
		l1.7-3.7v4.7H54.5L54.5,10.6z M60.8,6.2c0-1.1-0.8-1.8-1.9-1.8h-2.3v6.2h0.7V8.1h1.6C60,8.1,60.8,7.4,60.8,6.2L60.8,6.2z M60.1,6.2
		c0,0.8-0.5,1.2-1.3,1.2h-1.6V5h1.6C59.6,5,60.1,5.4,60.1,6.2L60.1,6.2z M66.3,10.6V10h-3.2V7.8h2.7V7.2h-2.7V5h3.2V4.4h-3.8v6.2
		H66.3L66.3,10.6z M71.8,5V4.4h-4.2V5h1.8v5.6H70V5H71.8L71.8,5z M77.2,10.6V10h-3.2V7.8h2.7V7.2h-2.7V5h3.2V4.4h-3.8v6.2H77.2
		L77.2,10.6z M83.5,10.6V4.4h-0.7v4.9l-3.3-4.9h-0.6v6.2h0.7v-5l3.3,5H83.5L83.5,10.6z M89.7,8.8H89c-0.2,0.8-0.7,1.2-1.5,1.2
		c-0.4,0-0.8-0.2-1.1-0.4C86.1,9.2,86,8.8,86,7.5c0-1.3,0-1.7,0.4-2.1C86.7,5.1,87.1,5,87.5,5c0.8,0,1.3,0.5,1.5,1.2h0.7
		c-0.2-1.2-1-1.8-2.1-1.8c-0.6,0-1.2,0.2-1.6,0.6c-0.6,0.6-0.6,1.2-0.6,2.5c0,1.3,0,1.9,0.6,2.5c0.4,0.4,1,0.6,1.6,0.6
		C88.6,10.7,89.5,10,89.7,8.8L89.7,8.8z M95.3,10.6V10h-3.2V7.8h2.7V7.2h-2.7V5h3.2V4.4h-3.8v6.2H95.3L95.3,10.6z M103.6,8.8H103
		c-0.2,0.8-0.7,1.2-1.5,1.2c-0.4,0-0.8-0.2-1.1-0.4C100,9.2,100,8.8,100,7.5c0-1.3,0-1.7,0.4-2.1c0.3-0.3,0.7-0.4,1.1-0.4
		c0.8,0,1.3,0.5,1.5,1.2h0.7c-0.2-1.2-1-1.8-2.1-1.8c-0.6,0-1.2,0.2-1.6,0.6c-0.6,0.6-0.6,1.2-0.6,2.5c0,1.3,0,1.9,0.6,2.5
		c0.4,0.4,1,0.6,1.6,0.6C102.6,10.7,103.4,10,103.6,8.8L103.6,8.8z M109.2,10.6V10H106V7.8h2.7V7.2H106V5h3.2V4.4h-3.8v6.2H109.2
		L109.2,10.6z M115.5,10.6V4.4h-0.7v4.9l-3.3-4.9h-0.6v6.2h0.7v-5l3.3,5H115.5L115.5,10.6z M121.3,5V4.4H117V5h1.8v5.6h0.7V5H121.3
		L121.3,5z M126.7,10.6V10h-3.2V7.8h2.7V7.2h-2.7V5h3.2V4.4h-3.8v6.2H126.7L126.7,10.6z M132.7,10.6l-1.5-2.8
		c0.8-0.2,1.3-0.8,1.3-1.7c0-1.1-0.8-1.7-1.8-1.7h-2.4v6.2h0.7V7.9h1.5l1.4,2.7H132.7L132.7,10.6z M131.9,6.2c0,0.8-0.5,1.1-1.2,1.1
		H129V5h1.6C131.4,5,131.9,5.4,131.9,6.2L131.9,6.2z M140.6,5V4.4h-3.8v6.2h0.7V7.9h2.7V7.3h-2.7V5H140.6L140.6,5z M146.1,7.5
		c0-1.3,0-1.9-0.6-2.5c-0.4-0.4-1-0.6-1.6-0.6c-0.6,0-1.2,0.2-1.6,0.6c-0.6,0.6-0.6,1.2-0.6,2.5c0,1.3,0,1.9,0.6,2.5
		c0.4,0.4,1,0.6,1.6,0.6c0.6,0,1.2-0.2,1.6-0.6C146.1,9.4,146.1,8.8,146.1,7.5L146.1,7.5z M145.5,7.5c0,1.3,0,1.7-0.4,2.1
		c-0.3,0.3-0.7,0.4-1.1,0.4c-0.4,0-0.8-0.2-1.1-0.4c-0.4-0.4-0.4-0.8-0.4-2.1c0-1.3,0-1.7,0.4-2.1c0.3-0.3,0.7-0.4,1.1-0.4
		c0.4,0,0.8,0.2,1.1,0.4C145.4,5.8,145.5,6.2,145.5,7.5L145.5,7.5z M152.2,10.6l-1.5-2.8c0.8-0.2,1.3-0.8,1.3-1.7
		c0-1.1-0.8-1.7-1.8-1.7h-2.4v6.2h0.7V7.9h1.5l1.4,2.7H152.2L152.2,10.6z M151.4,6.2c0,0.8-0.5,1.1-1.2,1.1h-1.6V5h1.6
		C150.9,5,151.4,5.4,151.4,6.2L151.4,6.2z"/>
</g>
</svg>
