<?xml version="1.0" encoding="UTF-8"?>
<svg id="Ebene_1" data-name="Ebene 1" xmlns="http://www.w3.org/2000/svg" width="297.42" height="146.96" viewBox="0 0 297.42 146.96">
  <g>
    <g>
      <path d="M7.85,22.7c-.32-.45-.42-.99-.64-1.48,.05-.15,.06-.4,.23-.4,.65,.04,.69-.24,.48-.76-.11-.27,.02-.47,.35-.5,.17-.02,.43,.09,.49-.16,.06-.27-.25-.3-.4-.43-.69-.59-1.41-1.41-1.29-2.19,.13-.83-.1-1.34-.48-1.94h0c.43-.05,.86-.23,1.29,.01,.35,1.63,1.94,2.17,2.82,3.34-.49-.98-1.31-1.69-1.94-2.56-.21-.29-.43-.7-.87-.8-.3-.43-.41-.83,.12-1.19,.13-.09,.24-.24,.16-.41-.13-.27-.33-.05-.49-.03-.13,.01-.27,.04-.38,.1-.13,.08-.23,.26-.39,.05-.12-.16-.09-.28,0-.49,.19-.45,.65-.08,.85-.38,1.24,.59,2.31,1.55,3.68,1.85,2.4,.52,4.38,1.94,6.57,2.91,.6,.27,1.22,.67,1.61,1.28,.22,.33,.53,.52,.91,.64,.39,.12,.76,.3,1.04,.6,.22,.3,.5,.53,.93,.77,.05-.52,.1-.93-.22-1.29-.45-1.46-1.63-2.14-2.87-2.83-.94-.52-1.41-1.51-1.96-2.4,.14-.37,.07-.63-.35-.74l-.02-.02c.09-1.08-.74-1.71-1.25-2.49-.15-.23-.46-.47-.82-.46-1.32-1.36-2.15-3.02-3.06-4.84,1.63,.64,3.18,.72,4.72,.85,1.47,.12,2.73,.72,3.83,1.73,.62,.58,1.35,1.04,2.02,1.56-.05,.36,.27,.39,.47,.53,.07,.35,.29,.56,.63,.67,.06,.1,.12,.21,.19,.31,.05,.06,.1,.11,.15,.17,.05,.05,.11,.11,.16,.16,.05,.11,.1,.22,.16,.33,.56,.74,1.11,1.48,1.68,2.21,.05,.06,.2,.03,.31,.04,.05,.06,.1,.11,.15,.17,.19,.63,.39,1.26,.82,1.78-.02,.6,.54,1.02,.49,1.62-.01,.02-.02,.05-.03,.07,.01-.02,.03-.04,.04-.07,.25,0,.37-.13,.26-.35-.23-.44-.3-.97-.74-1.29-.1-.68-.29-1.31-.81-1.8-.06-.05-.12-.1-.17-.15-.32-1.03-.86-1.88-1.89-2.32-.06-.11-.12-.21-.19-.32-.05-.05-.11-.11-.16-.17-.05-.05-.11-.11-.16-.16-.06-.1-.12-.2-.18-.3-.09-.34-.29-.58-.65-.66-.03-.26-.16-.42-.41-.49,.03-.64,.39-.71,.88-.49,2.19,.99,4.46,1.84,6.38,3.34,.27,.21,.54,.4,.9,.67-.09-1.7-.79-3.07-1.44-4.45-.66-1.39-1.11-2.87-1.79-4.26-.55-1.1-.07-1.72,1.15-1.74,2.32-.03,4.26,.98,5.87,2.49,2.35,2.21,4.3,4.76,5.38,7.86,.13,.38,.22,.78,.33,1.17-.15,.87,.29,1.62,.47,2.43,.6,2.66,.9,5.38,1.13,8.09,.28,3.12,.37,6.27,.5,9.4,.02,.58,.3,1.14,.09,1.83-1.13-2.4-1.57-4.92-2.39-7.33,.34,3.03,1.41,5.87,2.28,8.77-.71-.46-1.35-.89-1.23-1.88,.08-.6-.31-1.04-.96-1.09-.6-.05-1.32,.59-1.36,1.15-.05,.71,.55,1.74,1.11,1.69,1.14-.11,1.39,.8,1.93,1.41-.19,.17-.36,.12-.51,.09-.79-.17-1.61-.1-2.38-.45-.45-.21-1.12,.27-1.39,.08-.73-.51-1.65-.89-2.02-1.78-.4-.96-.79-1.92-1.44-2.75-.11-.15-.12-.58-.05-.52,.52,.42,.82-.46,1.33-.15,.32,.2,.61-.19,.73-.48,.12-.29,.2-.7-.2-.85-.46-.16-.35-.41-.3-.76,.08-.54,.44-.68,.87-.8,.67-.2,.81-.73,.62-1.29-.17-.51-.33-1.17-1.08-1.12-1.16,.07-1.79,1.31-1.12,2.26,.24,.34,.22,.6,.18,.96-.08,.85-.65,1.29-1.3,1.74-.23-.78,.02-1.47,.19-2.18,.24-1.02-.51-1.77-1.47-1.39-.45,.17-.49,.04-.58-.31-.25-1.02-.51-2.05-.77-3.07-.41-1.57-.88-3.11-1.59-4.58-.11-.67-.44-1.25-.8-1.82-.02,.73,.41,1.28,.74,1.87,.45,2.02,1.34,3.93,1.58,6.01,.12,1.09,.71,2.1,.66,3.35-1.17-1.57-1.8-3.33-2.92-4.79-.01,.52,.27,.92,.49,1.33,.29,.55,.57,1.05-.32,1.45,.6,.17,.79,.54,.97,.96,.33,.78,.64,1.55,1.35,2.12,.44,.35,.91,.75,1.15,1.33,.09,.23,.18,.5-.08,.53-.65,.08-.35,.42-.26,.72,.13,.44,.4,.99,.09,1.32-.29,.3-.36,.56-.29,.99-.29-.12-.48-.22-.68-.28-.17-.05-.37-.37-.53-.02-.12,.27,.12,.37,.31,.48,.42,.25,.85,.46,1.24,.76,.41,.32,.3,.49-.04,.71-.05,.02-.11,.02-.16,0-.36-.1-.64-.36-1.04-.4-1.17-.12-2.34-.35-3.45-.73-.92-.31-1.91-.29-2.8-.84-.67-.42-1.71-.17-2.2-1.07-.07-.13-.26-.34-.47-.17-.27,.23-.38-.08-.42-.17-.45-.91-1.49-.74-2.2-1.19-.56-.35-1.37-.34-2.02-.67-.29-.15-.55-.47-.96-.34h-.01c0-.32-.16-.34-.4-.25-.86-.26-1.4-.98-2.06-1.51,.02-.21,.1-.52-.07-.6-.64-.29-.56-.89-.7-1.4h0c.72-.26,1.15-.86,1.65-1.38,.11-.11,.17-.3,.06-.45-.11-.15-.33-.17-.43-.08-.49,.45-.77,.09-1.06-.24-.27-.3-.53-.41-.97-.34-.48,.07-.75,.34-1.11,.54-.39,.22-.46-.69-.93-.78-.21-.04-.43-.01-.64-.01-.04-.03-.06-.07-.07-.12,.2-.43,.05-.76-.25-1.09-.31-.33-.64-.69-.62-1.17,.02-.41-.21-.57-.49-.73,.02-.03,.04-.06,.06-.1-.03,.02-.06,.04-.1,.06-.32,.03-.24-.4-.5-.44m6.23-1.18l-.16-.16c-.14-.57-.75-.75-1.02-1.21-.05-.08-.15-.18-.27-.1-.13,.08-.11,.2-.07,.35,.21,.66,.86,.71,1.33,.99,.05,.05,.11,.11,.16,.16,.06,.05,.11,.11,.17,.16,0,.14,.05,.25,.18,.31,.44,.48,.81,1.06,1.45,1.32,.23,.57,.82,.83,1.16,1.31,.18,.26,0,.69,.45,.79,.5,.12,.8,.53,1.17,.85,.96,.82,1.94,1.63,2.91,2.44,.33,.16,.2,.61,.54,.78,.91,.44,1.79,.94,2.18,1.96,.06,.17,.23,.1,.34,.15,1.19,.52,2.02,1.48,2.94,2.35,.12,.11-.1,.41,.29,.43,.69,.04,.96,.47,.88,1.16-.03,.26-.04,.56,.05,.8,.13,.35,.34,.68,.81,.66,.45-.02,.6-.31,.63-.7,.02-.19,.09-.34,.2-.51,.46-.68,.09-1.51-.7-1.38-.83,.14-1.27-.31-1.72-.74-.49-.47-1.03-.86-1.56-1.27-1.06-.83-2.11-1.68-3.1-2.59-.52-.48-1.07-.88-1.7-1.18-.38-.69-.97-1.25-1.55-1.67-1.16-.84-2.16-1.82-3.13-2.86-.32-.34-.63-.64-1.07-.8-.37-.57-.76-1.11-1.47-1.3,.01-.14-.03-.26-.16-.33-.05-.05-.11-.11-.16-.16m5.85-9.27c.05,.05,.11,.11,.16,.16,0,.29,.16,.45,.44,.57,.09-.42-.25-.43-.43-.57-.05-.05-.11-.11-.16-.16-.06-.05-.09-.21-.21-.06,.07,.02,.14,.04,.21,.06m3.91,5.05c.04,.11,.04,.26,.21,.25,.02,0,.05-.04,.05-.05,0-.17-.14-.17-.26-.2,0-.24,0-.46-.32-.49l-.06-.04,.06,.04c.02,.22,.11,.4,.33,.49m2.61,4.22c-.02-.44-.26-.76-.6-1,.08,.41,.13,.83,.58,1.03,.3,1.38,1.17,2.46,1.92,3.61,.07,.19-.04,.48,.3,.57,.12-.29-.07-.46-.21-.64-.42-1.32-1.22-2.43-1.98-3.56m11.51-.72c.02,.15,.02,.31,.06,.46,.54,2.09,1.08,4.17,1.63,6.26,.03,.12,.02,.31,.21,.26,.2-.06,.2-.22,.12-.39-.26-.56-.37-1.17-.54-1.77-.46-1.6-.7-3.26-1.48-4.81m-1.45-4.16c.19,1.52,.65,2.48,1.21,2.79-.4-.93-.8-1.86-1.21-2.79m-12.13,1.77c.41,.59,.83,1.19,1.24,1.78-.21-1.23-.32-1.39-1.24-1.78m11.69-2.64c-.08-.44-.14-.77-.21-1.11-.03-.13,.07-.36-.22-.3-.21,.04-.26,.21-.19,.37,.15,.33,.25,.7,.61,1.04m-12.92,.45s-.06,.1-.05,.13c.01,.03,.08,.04,.12,.06,.02-.04,.06-.1,.05-.13-.01-.03-.08-.04-.12-.06m-15.03,5.02s.09,.04,.13,.06c.02-.04,.06-.1,.05-.13-.01-.03-.08-.04-.12-.06-.02,.04-.04,.09-.06,.13m2.92-2.85l-.02,.06h.08s0-.03-.02-.05c0-.01-.03,0-.05,0m13.25-.44s-.02-.04-.03-.07c-.02,.02-.04,.04-.04,.06,0,.02,.02,.04,.03,.07,.02-.02,.03-.04,.04-.06" fill="#4e8431"/>
      <path d="M29.57,21.34c.71,1.46,1.18,3.01,1.59,4.58,.27,1.02,.53,2.04,.77,3.07,.08,.35,.13,.48,.58,.31,.96-.38,1.71,.37,1.47,1.39-.17,.7-.41,1.39-.18,2.18,.65-.45,1.22-.89,1.3-1.74,.03-.36,.05-.62-.18-.96-.67-.95-.04-2.19,1.12-2.26,.76-.05,.91,.61,1.08,1.12,.19,.56,.05,1.09-.62,1.29-.43,.13-.79,.27-.87,.8-.05,.34-.16,.6,.3,.76,.4,.14,.32,.56,.2,.84-.12,.29-.41,.67-.73,.48-.52-.32-.82,.57-1.33,.15-.07-.06-.06,.37,.05,.52,.65,.83,1.04,1.78,1.44,2.75,.37,.9,1.3,1.27,2.02,1.78,.28,.19,.94-.28,1.39-.08,.77,.35,1.59,.28,2.38,.45,.15,.03,.32,.08,.51-.09-.54-.61-.78-1.52-1.93-1.41-.56,.05-1.16-.97-1.11-1.69,.04-.57,.76-1.2,1.36-1.15,.65,.05,1.03,.49,.96,1.09-.12,1,.52,1.42,1.23,1.88-.88-2.9-1.94-5.74-2.28-8.77,.82,2.4,1.26,4.93,2.39,7.33,.21-.69-.06-1.25-.09-1.83-.14-3.14-.23-6.28-.5-9.4-.24-2.71-.53-5.43-1.13-8.09-.18-.81-.62-1.56-.47-2.43,.29,.38,.39,.85,.58,1.33,.43-.35,.15-.92,.55-1.18,.04,.78-.24,1.55-.23,2.31,.02,1.96,.69,3.8,1.33,5.62,.1,.29,.38,.73,.84,.6,.31-.09,.84-.21,.77-.59-.1-.55,.18-.93,.34-1.37,.22-.61,.18-1.2-.12-1.78-.52-1.02-.81-2.11-1.06-3.26,.36,.06,.67,.83,.91,.15,.22-.62,.32-1.32,.41-2,.09-.68-.52-.87-.61-1.36,.25,.13,.49,.19,.65-.13-.03,.48,.19,.79,.57,1.08,.88,.66,1.71,1.38,2.55,2.09,2.01,1.72,2.91,4.15,4.16,6.35,.67,1.17,.92,2.54,1.49,3.76,1.15,2.44,1.74,5.04,2.42,7.63,.37,1.4,.65,2.82,1.25,4.16,1.13,2.47,2.52,4.75,4.46,6.67,.16,.16,.32,.35,.54,.3,.29-.07,.16-.35,.18-.55,.02-.3,.04-.59,.05-.89,.22,.3,.21,.66,.3,1,.17,.64,.38,1.19,1.15,1.41,.63,.19,.83,.95,.49,1.52-.13,.22-.22,.41-.23,.67,0,.42,.34,.64,.59,.81,.26,.18,.45-.21,.55-.41,.16-.31,.47-.43,.67-.68,.33-.42,.69-.68,.26-1.35-.34-.52,.29-.95,.77-1.22,.2-.12,.45-.16,.68-.24,.7,.08,1.05,.46,1.06,1.17-.03,1.09-.23,1.26-1.37,1.15-.31-.03-.62-.02-.73,.34-.11,.39-.4,.64-.68,.88-.66,.55-.84,1.13-.22,1.84,.19,.21,.26,.52,.4,.78,.47,.9,.89,1.82,1.87,2.34,.83,.44,1.69,.83,2.42,1.42-.61,.01-1.2-.11-1.79-.19-.62-.08-1.2-.65-1.87-.24-1.13-.49-2.27-.93-3.37-1.48-.66-.33-1.44-.48-1.97-1.05,.11-.47-.54-.37-.54-.68,0-.98-.89-1.34-1.37-1.97-.23-.3-.6-.72-1.14-.64-.22-.1-.45-.2-.72-.33,.19,.44,.54,.6,.89,.76,.05,.42,.52,.32,.72,.57,.11,.15,.35,.24,.16,.45-.15,.17-.28,0-.41-.1-.44-.33-.93-.57-1.46-.8v1.36c-.04,.56,.03,1.11,.19,1.64,.14,.46,.37,.39,.64,.12,.15,.06,.16,.18,.12,.31-.05,.34,.06,.62,.32,.83-.09,.06-.17,.15-.27,.17-.5,.12-.77-.32-1.13-.53-.46-.27-.97-.33-1.45-.29-.44,.03-.11,.58-.27,.82-.34,.49-.6,1.17-1.36,1.1-.74-.07-.74-.67-.71-1.23,.03-.43-.16-.58-.57-.55-.49,.03-.99,0-1.54,0,.16-.47,.48-.54,.75-.6,.74-.18,.84-.46,.21-.93-.38,.62-1,.93-1.62,1.24h0c.17-.66-.3-.29-.45-.26-3.39,.84-6.8,1.61-10.25,2.16-1.51,.24-2.89,.81-4.27,1.46-1.71,.79-3.5,1.4-5.29,2.01-.9,.31-1.71,.92-2.81,.98,.34-.34,.69-.41,1.01-.54,2.38-.98,4.8-1.83,7.14-2.9,1.33-.61,2.66-1.25,4.16-1.43,2.38-.27,4.7-.87,7.04-1.4,1.35-.3,2.78-.37,3.9-1.35,.08-.07,.23-.16,.29-.12,.61,.33,.87-.04,1.1-.52,.08-.17,.47-.26,.07-.53-.3-.2-.52-.27-.76,.04-.11,.14-.14,.35-.4,.34-.89-.04-1.77-.1-2.55-.58-.18-.64-.65-.63-1.16-.51-.63,.14-.95-.27-1.07-.74-.12-.48-.13-1.05,.45-1.35,.45-.23,.85-.26,1.16,.29,.26,.46,.54,.91,.75,1.47,.22-.45,.34-.88,.6-1.2,.3-.37,.78-.48,1.25-.31,.85,.3,1.22,1.12,.95,2.02-.27,.01-.44-.13-.58-.36-.18-.3-.41,.02-.63,0-.15-.02-.14,.26-.04,.31,.41,.26,.84,.53,1.29,.07,.62,.04,.78-.18,.98-.84,.32-1.07-.2-1.22-.93-1.61-1.88-1-3.79-1.97-5.76-2.78-1.1-.45-2.36-.29-3.39-1.28-.59-.58-1.75-.55-2.71-.13-.61,.27-1.31,.32-1.99,.36-.26,.02-.59,.02-.62,.38-.03,.33-.17,.71,.29,.91,.39,.17,.57,.57,.83,.87,.31,.36,.31,.84,0,1.2-.28,.32-.57,.81-1.11,.65-.52-.15-.73-.59-.76-1.13-.02-.36,.13-.69,.19-1.03,.12-.65,.17-1.29-.43-1.76-.06-.59-.51-.87-.93-.49-.29,.26-.62,.29-.91,.47-.75,.45-1.74,.19-2.41,.86-.44,.43-.9,.49-1.34,0-.2-.22-.44-.21-.68-.16-1.94,.36-3.9,.47-5.87,.58-1.21,.07-2.42,.01-3.75,.01,.19-.07,.25-.11,.32-.12,2.97-.04,5.93-.27,8.87-.64,.5-.06,.93-.1,.79-.79-.04-.2,.04-.43,.06-.64,.79-.54,1.55-.26,2.31,.1-.07,.12-.56-.12-.27,.33,.43,.67,1.37,.6,2.05-.18,.12-.05,.24-.11,.36-.17-.84,.08-1.2-.37-1.38-1.11-.19-.76,.3-1.44,1.08-1.28,.52,.11,.97,.14,1.47,0,.28-.08,.53,.03,.7,.42-.59-.09-.84,.33-1.1,.69-.22,.3-.18,.66,.18,.82,.31,.14,.54,.07,.56-.39,0-.12,.23-.81,.85-.33,.25,.19,.84-.2,1.3-.08,.23,.28,.58,.24,.83,.16,.44-.15,.75-.14,1.16,.14,.23,.16,.94,.5,.99-.08,.04-.52,.2-1.08,.03-1.65-.13-.44-.38-.62-.72-.6-.64,.03-1.41-.06-1.47,.95-.01,.22-.22,.42-.34,.63-.53,.03-.94-.15-1.18-.67-.19-.4-.61-.51-1-.62-.47-.13-.97-.16-1.42-.35-1.05-.44-1.75,.19-2.5,.72-.2,.14-.12,.31-.11,.5,.06,1.03-.43,1.36-1.33,.9-.26-.13-.42-.22-.71,.02-.39,.33-.87,.42-1.33,.04-.55-.44-.39-1.02-.21-1.49,.17-.44,.65-.66,1.15-.49,.59,.21,.65-.2,.72-.57,.12-.59-.39-.39-.64-.43-4.71-.78-9.21-2.17-13.25-4.8-.24-.16-.56-.25-.63-.59,.4-.13,.66,.2,.96,.34,.66,.33,1.46,.33,2.02,.67,.71,.44,1.75,.28,2.2,1.19,.04,.09,.15,.4,.42,.17,.21-.17,.4,.04,.47,.17,.49,.9,1.52,.65,2.2,1.07,.89,.55,1.88,.52,2.8,.84,1.11,.38,2.28,.61,3.45,.73,.4,.04,.68,.31,1.04,.4,.23,.77,.31,.78,1.05,.19-.29-.15-.64,.05-.9-.19,.35-.22,.45-.39,.04-.71-.39-.31-.83-.51-1.24-.76-.19-.11-.43-.22-.31-.48,.16-.35,.36-.03,.53,.02,.2,.06,.39,.16,.68,.28-.07-.43,0-.69,.29-.99,.31-.32,.04-.87-.09-1.32-.09-.3-.38-.64,.26-.72,.26-.03,.18-.31,.08-.53-.24-.58-.71-.98-1.15-1.33-.72-.57-1.02-1.34-1.35-2.12-.17-.41-.37-.78-.97-.96,.89-.4,.62-.9,.32-1.45-.22-.41-.51-.81-.49-1.33,1.11,1.46,1.75,3.22,2.92,4.79,.05-1.26-.54-2.27-.66-3.35-.24-2.09-1.13-3.99-1.58-6.01l.06-.05h0Zm18.36,22c-.05-.05-.11-.11-.16-.16-.99-.76-.76-1.98-1.08-3.06-.39,.3-.92,.32-.99,.88-.07-.03-.14-.07-.21-.11-.08-.3-.18-.59-.58-.83,.11,.43,.29,.66,.57,.83,.29,1.37,1.09,2.17,2.28,2.28,.05,.05,.11,.11,.16,.16,.06,.13,.12,.07,.18,0,2.04,1.47,4.36,2.42,6.49,3.67,.47-1.04,.09-1.71-.78-2.21-1.06-.61-1.79-1.62-2.99-2.15-1.31-.58-2.16-.59-2.74,.68-.05,.03-.1,.03-.16,0m-14.17-7.65c.14,.58-.39,.61-.78,.81,.81,.27,.8,.27,1.15-.34,.02-.03,.19,.02,.28,.03,.02,0,.04,.02,.07,.03-.02-.01-.04-.03-.06-.04,0-.83-.55-1.33-1.08-1.88-.22,.3-.15,.56,.1,.61,.41,.09,.3,.37,.32,.62-.02,.02-.06,.04-.06,.05,.01,.04,.04,.08,.06,.12m29.18,13.13c-.12,.06-.23,.13-.35,.18-.63,.28-.53,.51,.01,.81,.47,.26,.89,.61,1.31,.95,.25,.21,.59,.46,0,.89,.53-.08,.87-.23,.63-.58-.45-.67-.42-1.5-.83-2.16-.27,.09-.41-.95-.77-.09m-1.56-1.44c.64-.11,.79-.83,.28-1.44-.43-.51-1.01-.96-1.28-1.54-.81-1.76-2.14-3.24-2.77-5.09-.14-.42-.4-.8-.6-1.2-.12,.2-.15,.38-.11,.54,.38,1.49,.52,3.01,.72,4.53,.09,.66,.06,1.36,.41,1.96-.05,.08-.17,.18-.16,.24,.22,.93,.19,1.91,1.24,2.55,.56,.34,.73,.26,1.07-.11,.32-.34,.66-.65,1.19-.45m-18.74-16.32c-.17,1.53-.05,2.88,.15,4.19,.12,.77,.13,1.6,.57,2.34,.54,.92,.5,.94,1.09,.14,.22-.3,.46-.59,.68-.89,.06-.08,.15-.26,.14-.26-.78-.5-.42-1.42-.77-2.09-.57-1.09-1.11-2.2-1.86-3.41m14.52,20.95c-.12-.54-.22-1.01-.32-1.47-.05-.25,0-.56-.38-.62-.39-.07-.9-.05-1.03,.27-.21,.49-.67,.52-.98,.79-.14,.12-.35,.17-.25,.44,.97,.15,1.97,.2,2.97,.61m-14.08-11.93c.28,.45,.6,.32,.73,.08,.38-.68-.39-1.03-.49-1.81-.16,.72-.71,.79-.98,1.16-.25,.34-.39,.72-.39,1.09,0,.4,.45,.01,.58,.17,.58,.71,1.89,.15,2.15,1.53,.26-.83-.05-1.37-.35-1.77-.18-.25-.51,.32-.88,.53,0-.36-.41-.47-.39-.98m13.55,9.61c.18-.48,.12-.91,.09-1.32-.02-.28-.28-.47-.51-.4-.28,.09-.65,.16-.78,.49-.08,.19-.09,.51,.17,.54,.44,.06,.65,.43,1.02,.69m-21.75-11.44c-.29-.39-.59-.58-.99-.6-.29-.01-.46,.15-.45,.45,.02,.35,.2,.38,.5,.29,.27-.08,.56-.09,.94-.15m10.59,.32c-.07,.33-.56,.62-.14,.97,.14,.12,.39,.14,.5-.03,.3-.43-.22-.62-.36-.94m-12.24-5.84c.04-.52,.12-.97-.32-1.28-.08-.06-.24-.05-.26,.07-.08,.47,.02,.89,.58,1.21m4.72,12.58c-.33,.15-.59,.21-.78,.35-.15,.11-.54-.14-.44,.25,.08,.29,.41,.21,.63,.18,.37-.07,.43-.4,.59-.78m23.48,3.84c.18-.04,.2-.18,.14-.3-.07-.16-.06-.42-.32-.41-.18,.01-.29,.17-.23,.35,.06,.18,.19,.32,.4,.36" fill="#a0ad4f"/>
      <path d="M50.7,52.31c.62-.31,1.23-.61,1.62-1.24,.63,.47,.53,.75-.21,.92-.27,.07-.58,.13-.75,.61,.55,0,1.05,.02,1.54,0,.42-.02,.6,.13,.57,.55-.03,.56-.04,1.16,.71,1.23,.76,.07,1.02-.6,1.36-1.1,.17-.24-.17-.79,.27-.82,.47-.03,.99,.02,1.45,.29,.36,.21,.63,.64,1.13,.53,.1-.02,.18-.11,.27-.17,.28,.15,.57,.29,.84,.45,1.17,.71,2.57,.94,3.72,1.7-.91-.01-1.82-.02-2.73,.05-1.28,.09-2.41,.8-3.63,.88-2.81,.16-5.6,.65-8.43,.5-.2-.18-.41-.24-.7-.02,.27,.02,.48,.03,.69,.04,.15,.25,.49,.06,.74,.28-2.19,.76-4.01,2.04-5.95,3.1-.48,.26-.98,.42-1.37,.89-.28,.35-.94,.02-1.41,.16-.7,.09-1.16-.49-1.78-.62-.79-.18-1.56-.17-2.29,.29-.35,.23-.75,.39-1.13,.58,.03-.13,.04-.27,.11-.38,.38-.63,1.11-.8,1.65-1.22,.41-.32,.56-.73,.48-1.18-.07-.38-.36-.31-.61-.1h0c-1.1,.41-1.62,1.51-2.55,2.12-.02,.01-.02,.05-.02,.08,.02,.69-.52,.66-.98,.83-.61,.23-1.38,.17-1.83,.64-.79,.82-1.76,1.1-2.81,1.2-.43,.04-.7,.21-.91,.55-.09,0-.19,0-.28,.01-.2-.06-.41-.14-.49,.17,0,0-.05,.01-.04,.01-.52-.05-1.08-.35-1.46,.29-.62,.43-1.38,.43-2.08,.56-2.56,.46-5.13,.49-7.68-.22-.7-.2-1.43-.28-2.14-.41-.36-.26-.77-.32-1.2-.33-.03,0-.07-.01-.09-.04-.01-.16-.09-.4,.06-.45,1.08-.32,1.65-1.53,2.92-1.51-.27-.48-.39-.85,.26-.93,.07-.01,.14-.08,.2-.12,.91-.59,1.45-1.6,2.45-2.1,.41-.21,.08-.36-.08-.5,1.55-1.33,3.46-1.86,5.37-2.4,.23-.06,.47-.13,.7-.19,.22,.14,.38,.12,.45-.16h.03c.51,.18,.9-.18,1.31-.34,1.09-.44,2.29-.56,3.35-1.09,.23-.11,.62-.18,.52-.52-.2-.67,.22-.68,.65-.67,.42,.02,.83-.07,1.19-.22,1.35-.57,2.78-.89,4.18-1.31,.56-.16,.9-.33,.82-.96-.05-.01-.12-.05-.15-.03-.27,.2-.54,.4-.85,.08-.19-.2-.22-.53-.05-.66,.22-.17,.38-.56,.87-.27,.42,.25,.51-.19,.53-.53,2.84-.36,5.65-.15,8.44,.4,.78,.15,1.57,.45,2.38,.09,.26-.11,.53,0,.78,.13,.78,.48,1.66,.54,2.55,.58,.26,.01,.29-.19,.4-.34,.24-.31,.46-.24,.76-.04,.4,.27,.01,.36-.07,.53-.23,.47-.49,.84-1.1,.52-.06-.03-.21,.06-.29,.12-1.12,.98-2.55,1.05-3.9,1.35-2.34,.53-4.66,1.13-7.04,1.4-1.5,.17-2.82,.82-4.16,1.43-2.34,1.07-4.77,1.92-7.14,2.9-.32,.13-.67,.2-1.01,.54,1.1-.06,1.91-.68,2.81-.98,1.79-.6,3.58-1.21,5.29-2.01,1.39-.65,2.77-1.22,4.27-1.46,3.45-.56,6.86-1.32,10.25-2.16,.14-.03,.62-.4,.45,.25-.05,.05-.11,.11-.16,.16-.08,.02-.17,.01-.24,.05-1.88,1.03-3.78,2.01-5.59,3.15-.39,.25-1.18,.27-1.18,1.03-.23,0-.4,.11-.48,.33-.02,.02-.04,.05-.07,.07,.03-.02,.05-.04,.08-.06,.23-.01,.45-.03,.5-.32,.26,0,.47-.11,.68-.23,1.47-.85,2.95-1.68,4.41-2.56,.68-.41,1.42-.76,1.9-1.45,.05-.05,.11-.11,.16-.16m5.68,1.78c.27,1.16,.39,1.76,1.86,1.15,.52-.21,.68-.61,.68-1.07,0-.47-.27-.73-.81-.64-.15,.02-.33-.14-.5-.23-.68-.34-1.24,.02-1.23,.79m-40.45,7.49s-.03-.04-.04-.06c-.03,.03-.07,.05-.09,.08,0,0,.02,.04,.04,.06l.1-.08h0Z" fill="#4e8431"/>
      <path d="M48.43,56.69c2.83,.15,5.62-.34,8.43-.5,1.22-.07,2.35-.78,3.63-.88,.92-.07,1.82-.06,2.73-.05,.24,0,.41,.2,.68,.2,2-.04,3.96,.15,5.82,1,.37,.17,.9,.44,1.36,.03,.92,.47,1.69,1.29,2.84,1.26,.09,0,.2,.09,.28,.16,.4,.42,.95,.48,1.46,.66,.35,.12,.68,.03,.91-.15,.09-.08-.08-.52-.3-.73,.33-.05,.57,.16,.83,.29,1.77,.86,3.53,1.76,5.32,2.58,.49,.22,.97,.69,1.68,.43-.36-.53-.76-.9-1.24-1.2-1.64-1.01-3.15-2.16-4.36-3.68,.11-.11,.59,.13,.3-.38-1.82-3.21-3.65-6.42-5.38-9.68-.64-1.21-1.52-2.3-1.91-3.65l.05-.05c.08,.07,.17,.14,.23,.22,2.01,3.26,3.7,6.7,5.67,9.99,.35,.58,.52,1.37,1.25,1.7,0,.18-.02,.37,.16,.49,0,.02,.01,.04,.03,.05,0,0,.03,0,.04,.01l-.07-.07c0-.18,.03-.37-.16-.49-.91-1.59-.8-3.47-1.52-5.14-.48-1.12-.05-2.46-.48-3.67-.32-.89-.22-1.89-.7-2.77-.17-.3-.31-.76-.14-1.17,.44,.29,.53,.79,.73,1.22,1.81,3.77,2.7,7.81,3.44,11.89,.35,1.97,1.19,3.56,2.99,4.62,.79,.46,1.63,.96,2.06,1.86,.07,.14,.21,.33,.33,.34,.89,.06,1.14,1.03,1.88,1.31,.37,.14,.45,1.07,.19,1.36-.21,.22-.41,.05-.59-.03-1.46-.63-2.95-1.22-4.38-1.92-2.07-1.01-4.29-1.58-6.44-2.34-.35-.12-.74-.03-1.12,.07-1.53,.42-2.95,1.16-4.43,1.72-1.85,.7-3.72,1.3-5.71,1.46-.76,.06-1.49,.27-2.21,.5-2.21,.71-4.42,1.42-6.67,1.98-.34,.08-.7,.12-1.05,.08-3.02-.32-6.08-.5-8.88-1.89-1.08-.54-2.19-1.06-2.98-2.02-.23-.28-.25-.23-.26,.08,0,.04-.14,.12-.19,.11-.72-.22-1.53-.22-2.14-.76,.47-.13,1.13,.19,1.41-.16,.39-.48,.89-.63,1.37-.89,1.94-1.06,3.76-2.34,5.95-3.1-.25-.23-.59-.03-.74-.28l.02-.02h0Zm30.87-1.43s-.01-.05-.02-.07c0,0-.04,.01-.06,.02,0,.02,.01,.05,.02,.07,0,0,.04-.01,.06-.02" fill="#a0ad4f"/>
      <path d="M75.85,41.51c-.16,.41-.02,.87,.14,1.17,.48,.88,.38,1.88,.7,2.77,.43,1.21,0,2.55,.48,3.67,.72,1.66,.61,3.55,1.52,5.14h0c-.73-.33-.9-1.11-1.25-1.69-1.97-3.28-3.66-6.72-5.67-9.99-.05-.09-.15-.15-.23-.22-.09-.41-.29-.75-.64-.99,0-.27-.1-.5-.32-.66-.04-.18-.14-.31-.34-.33,0-.42-.27-.65-.7-.98,.12,.55,.35,.81,.66,1.03,.02,.18,.12,.31,.3,.36,.01,.26,.1,.49,.35,.62,.02,.45,.24,.78,.64,1,.39,1.34,1.26,2.44,1.9,3.65,1.73,3.26,3.57,6.46,5.38,9.68,.29,.51-.19,.27-.3,.38h0c-.13-.49-.26-.97-.93-.86-.26-.18-.52-.35-.68-.64,.09-.29,.13-.51-.19-.76-.84-.63-1.35-1.59-2.03-2.38-.32-.37-.75-.47-1.06-.78-.91-.93-1.59-2.09-2.79-2.72-.16-.08-.29-.25-.38-.4-.19-.33-.46-.39-.79-.33-.02-.05-.04-.1-.06-.15,0-.25,0-.48-.35-.47-.17-.2-.33-.4-.5-.6,.03-.12-.01-.2-.13-.23h0c0-.7-.36-1.08-1.06-1.16-.36-.96-.98-1.78-1.51-2.64-.73-1.17-1.37-2.38-1.82-3.68-.07-.74,.1-1.45,.22-2.23-.26,.3-.57,.29-.88,.29h0c.04-.34,.14-.68-.08-.99,0-.16,0-.33,0-.49,.2-.38,.1-.78,.07-1.18,.09-.72-.29-1.69,.55-2.06,.9-.4,1.94-.41,2.92-.06,.17,.06,.37,.15,.49,.28,.73,.82,1.86,1.14,2.6,1.91,1.92,1.99,3.99,3.88,5.13,6.5,.05,.12,.1,.25,.15,.38-.09,.24,.04,.35,.24,.42,.04,.03,.05,.07,.05,.12-.05,.17-.05,.3,.18,.3v.02s.01,0,.01,0Zm-6.41-2.41s-.06-.04-.09-.06c.02,.03,.04,.06,.06,.09,.03,.02,.06,.05,.1,.07-.02-.03-.04-.07-.07-.1m-2.13-3.08c-.02-.07-.04-.14-.07-.21-.02,.01-.06,.04-.06,.04,.04,.06,.08,.12,.12,.18,.02,.12,.02,.26,.2,.26,.02,0,.05-.03,.05-.05,.01-.17-.12-.19-.24-.21m1.2,1.68c-.18-.55-.48-.73-.79-.9,.15,.3,.29,.61,.79,.9" fill="#4e8431"/>
      <path d="M62.31,43.14c-.02,.29-.03,.59-.05,.89-.02,.2,.11,.49-.18,.56-.22,.05-.38-.14-.54-.3-1.94-1.92-3.34-4.2-4.46-6.67-.61-1.33-.88-2.76-1.25-4.16-.68-2.58-1.27-5.18-2.42-7.63-.57-1.21-.82-2.59-1.49-3.76-1.25-2.2-2.15-4.62-4.16-6.35-.84-.72-1.67-1.44-2.55-2.09-.39-.29-.61-.6-.57-1.08,.3-.51,.81-.78,1.3-.51,1.6,.88,3.42,1.39,4.73,2.76,2.83,2.96,5.31,6.17,6.94,9.96,.7,1.63,1.11,3.36,1.63,5.05,.59,1.93,1.29,3.82,1.71,5.8,.41,1.93,.79,3.87,1.02,5.83,.07,.56,.07,1.16,.35,1.69" fill="#4e8431"/>
      <path d="M30.34,42.26c-.02,.21-.1,.44-.06,.64,.14,.69-.29,.73-.79,.79-2.95,.36-5.9,.59-8.87,.64-.07,0-.14,.05-.32,.11,1.33,0,2.55,.06,3.75-.01,1.96-.11,3.93-.22,5.87-.58,.23-.04,.48-.05,.68,.16,.44,.48,.9,.43,1.34,0,.67-.67,1.66-.41,2.41-.86,.29-.17,.63-.21,.91-.47,.42-.37,.86-.1,.93,.49-.75,.28-1.51,.55-2.25,.85-2.6,1.05-5.18,2.13-7.89,2.87-2.04,.56-4.12,.77-6.21,.92-.09-.04-.17-.03-.24,.06-.65,.1-1.29,.08-1.94,.04-.05-.12-.11-.12-.16,0-2.03-.08-4.03-.44-5.95-1.03-1.35-.42-2.71-.99-3.81-2.01-.59-.54-1.29-.95-1.95-1.42,.34-.38,.79-.31,1.23-.28,1.4,.08,2.72,.54,4.09,.76,.21,.03,.52,.08,.58,.21,.24,.46,.62,.35,.98,.36,2.08,.07,4.15-.37,6.23-.16,.07,0,.15-.04,.44-.14-1.55-.02-2.87-.17-4.3-.47,.57-.64,1.25-.79,1.91-.84,.75-.05,1.5-.07,2.26,.11,.95,.22,1.79-.42,2.8-.36,1.89,.1,3.8-.09,5.71-.11,.77,0,1.54-.17,2.31-.26h.32s0,0,0,0Z" fill="#4e8431"/>
      <path d="M30.02,42.26c-.77,.09-1.54,.25-2.31,.26-1.91,.02-3.82,.21-5.71,.11-1.01-.05-1.85,.58-2.8,.36-.76-.17-1.51-.16-2.26-.11-.66,.04-1.34,.2-1.91,.84,1.43,.3,2.75,.45,4.3,.47-.29,.1-.37,.15-.44,.14-2.08-.21-4.15,.23-6.23,.16-.36-.01-.75,.1-.98-.36-.07-.14-.38-.18-.58-.21-1.37-.22-2.7-.68-4.09-.76-.44-.03-.89-.1-1.23,.28-1.73-.89-3.48-1.74-4.97-3.03-.13-.12-.33-.22-.27-.46l.02-.03c.91,.18,1.79,.61,2.46,1.12,1.22,.92,2.66,.93,3.97,1.45,.77,.31,1.63,.31,2.43,.57,.42,.13,.95,.24,1.3-.23,.25-.34,.62-.3,.96-.32,1.17-.08,2.23-.62,3.46-.54,2.39,.16,4.78-.09,7.17-.08,2.12,0,4.2,.51,6.33,.35,.46-.03,.92,.02,1.38,.03" fill="#a0ad4f"/>
      <path d="M43.99,12.69c.09,.49,.7,.68,.61,1.36-.09,.68-.19,1.38-.41,2-.24,.68-.55-.09-.91-.15,.25,1.15,.54,2.24,1.06,3.26,.3,.58,.34,1.17,.12,1.78-.16,.44-.44,.81-.34,1.37,.07,.38-.46,.5-.77,.59-.46,.13-.74-.31-.84-.6-.64-1.83-1.3-3.66-1.33-5.62,0-.77,.27-1.53,.23-2.31h0c.3-.27,.28-.64,.31-.99,.11-.54,.29-1.04,.67-1.46,.33,.13,.66,.18,.99,.01,.21,.25,.41,.5,.62,.75m-.6,2.66c-.09-.67-.18-1.34-.27-2.01-.07,.01-.14,.02-.21,.03,.03,.68,.09,1.35,.48,1.98" fill="#4e8431"/>
      <path d="M7.77,12.5c-.2,.29-.66-.07-.85,.38-.09,.21-.12,.32,0,.49,.16,.22,.26,.03,.39-.05,.11-.06,.25-.09,.38-.1,.16-.02,.36-.23,.49,.03,.09,.17-.03,.33-.16,.41-.53,.35-.42,.76-.12,1.19l-.02,.02c-.43-.24-.86-.06-1.29,0,.01-.11-.02-.27,.04-.31,.65-.52,.14-.57-.26-.66-.18-.04-.36-.03-.63-.04,.17,.49,.3,.92,.85,1.01,.38,.59,.61,1.1,.48,1.94-.12,.79,.6,1.6,1.29,2.19,.15,.13,.47,.16,.4,.43-.05,.24-.32,.14-.49,.16-.33,.03-.45,.23-.35,.5,.2,.51,.17,.79-.48,.76-.16,0-.17,.25-.23,.4-.69-1.7-1.2-3.42-1.34-5.27-.12-1.63-.69-3.18-1.41-4.66,.23-.03,.36-.1,.2-.36-.14-.23-.24-.47-.37-.7,.66,.13,.95,.76,1.47,1.08,.66,.4,1.33,.8,2,1.19m-2.82-.89s-.03,.04-.04,.07c.01-.02,.03-.04,.04-.07,.01-.02,.02-.05,.03-.07-.01,.02-.02,.05-.03,.07" fill="#a0ad4f"/>
      <path d="M37.02,49.06c-.02,.34-.11,.78-.53,.53-.48-.29-.65,.1-.86,.27-.17,.13-.14,.47,.05,.66,.3,.32,.58,.12,.85-.08,.03-.02,.1,.02,.15,.03,.08,.63-.26,.79-.82,.96-1.4,.42-2.82,.74-4.18,1.31-.36,.15-.77,.24-1.19,.22-.43-.02-.84,0-.65,.66,.1,.34-.29,.41-.52,.52-1.06,.53-2.25,.65-3.35,1.09-.41,.16-.8,.52-1.3,.33,1.16-.58,2.34-1.08,3.59-1.44,.63-.18,1.42-.09,1.22-1.21-.09-.51,.53-.85,.92-1.16,1.75-1.36,3.7-2.29,5.89-2.69,.23-.04,.48,0,.73,0" fill="#a0ad4f"/>
      <path d="M9.81,26.28c.21,0,.44-.03,.64,.01,.47,.09,.54,1,.93,.79,.36-.2,.64-.47,1.11-.54,.45-.06,.71,.04,.97,.34,.29,.33,.57,.69,1.06,.24,.11-.1,.33-.08,.43,.08,.11,.15,.04,.34-.06,.45-.49,.53-.93,1.12-1.65,1.38,0-.02-.01-.04-.03-.05,0,0-.03,0-.04,0,.02,.02,.04,.04,.07,.06,.14,.51,.06,1.11,.7,1.4,.18,.08,.09,.39,.07,.6-.25,0-.39-.19-.53-.34-1.35-1.36-2.65-2.78-3.69-4.41" fill="#a0ad4f"/>
      <path d="M27.76,63.91c.2-.35,.48-.51,.91-.55,1.05-.09,2.02-.38,2.81-1.2,.45-.47,1.22-.42,1.83-.64,.46-.17,.99-.15,.98-.83,0-.03,0-.07,.02-.08,.93-.61,1.45-1.71,2.55-2.11,.02,.12,.02,.26,.2,.24,.02,0,.05-.03,.05-.05,.01-.18-.13-.17-.24-.2,.25-.21,.54-.28,.61,.1,.08,.46-.06,.86-.48,1.18-.54,.42-1.27,.59-1.65,1.22-.06,.11-.07,.25-.11,.38-.03,.04-.04,.11-.08,.13-2.33,.98-4.66,1.97-7.16,2.45-.07,.01-.15-.03-.23-.05" fill="#a0ad4f"/>
      <path d="M18.12,58.32c.16,.15,.49,.3,.08,.5-.99,.5-1.54,1.51-2.45,2.1-.07,.04-.13,.11-.2,.12-.65,.09-.53,.45-.26,.93-1.27-.02-1.84,1.19-2.92,1.51-.15,.04-.07,.29-.06,.45-.88-.06-1.71-.45-2.63-.35,.47-.42,1.07-.34,1.61-.46,.24-.05,.55,0,.7-.15,.82-.74,1.94-1.13,2.64-1.95,.99-1.16,2.29-1.86,3.49-2.71" fill="#a0ad4f"/>
      <path d="M38.93,40.61c.12-.21,.32-.42,.34-.63,.06-1.01,.83-.93,1.47-.95,.33-.01,.59,.16,.72,.6,.17,.58,.01,1.14-.03,1.65-.04,.58-.76,.24-.99,.08-.41-.28-.72-.29-1.16-.14-.25,.08-.6,.12-.83-.16,.22-.08,.55-.05,.48-.45" fill="#4e8431"/>
      <path d="M7.85,22.7c.27,.04,.18,.47,.51,.44l.04,.04c.28,.17,.51,.33,.49,.73-.02,.48,.3,.84,.62,1.17,.31,.32,.45,.66,.25,1.09-.88-1.02-1.66-2.09-1.9-3.46" fill="#a0ad4f"/>
      <path d="M15.03,10.33c.36,0,.67,.22,.82,.46,.51,.78,1.34,1.41,1.25,2.49-.65-1.01-1.55-1.84-2.07-2.95" fill="#a0ad4f"/>
      <path d="M63.54,36.37c.31,0,.62,.01,.88-.29-.12,.78-.29,1.49-.22,2.23-.44-.57-.73-1.2-.66-1.94" fill="#a0ad4f"/>
      <path d="M34.43,42.51c-.68,.78-1.63,.85-2.05,.18-.29-.46,.19-.21,.27-.33,.57,.32,1.19,.07,1.79,.15" fill="#4e8431"/>
      <path d="M22.29,19.26c.31,.36,.26,.77,.22,1.29-.43-.24-.7-.47-.93-.77,.51,.19,.74,.01,.71-.52" fill="#a0ad4f"/>
      <path d="M4.29,10.23c.12,.24,.23,.48,.36,.7,.16,.26,.03,.33-.2,.36-.23-.3-.47-.61-.49-1.02,.08-.04,.17-.08,.25-.12,.04,0,.06,.03,.07,.07" fill="#4e8431"/>
      <path d="M43.37,11.93c-.33,.17-.66,.11-.99-.01,.38-.71,.51-.71,.99,.01" fill="#a0ad4f"/>
      <path d="M25.48,64.39c.38-.64,.94-.34,1.46-.29-.43,.36-.95,.31-1.46,.29" fill="#a0ad4f"/>
      <path d="M4.22,10.16c-.08,.04-.17,.08-.25,.12-.18-.12-.44-.31-.22-.47,.23-.17,.39,.13,.47,.35" fill="#a0ad4f"/>
      <path d="M17.12,13.29c.41,.11,.49,.37,.35,.74-.18-.21-.35-.44-.35-.74" fill="#a0ad4f"/>
      <path d="M12.39,63.98c.43,.01,.84,.07,1.2,.34-.44,.03-.84-.07-1.2-.34" fill="#a0ad4f"/>
      <path d="M63.53,33.71c.03,.4,.13,.79-.07,1.18-.09-.4-.16-.8,.07-1.18" fill="#a0ad4f"/>
      <path d="M41.71,13.38c-.03,.35,0,.72-.31,.98-.03-.37-.02-.73,.31-.98" fill="#a0ad4f"/>
      <path d="M22.63,9.62c.25,.07,.38,.24,.41,.49,0,0-.04,.05-.04,.05-.19-.14-.52-.17-.47-.53,0,0,.04-.04,.04-.04,0,0,.05,.03,.05,.03Z" fill="#a0ad4f"/>
      <path d="M63.46,35.38c.21,.32,.12,.66,.08,.99-.23-.31-.14-.65-.08-.99" fill="#a0ad4f"/>
      <path d="M16.09,32.54c.24-.09,.41-.07,.4,.24-.21,.04-.35-.02-.4-.24" fill="#a0ad4f"/>
      <path d="M24.64,55.57c-.07,.29-.23,.3-.45,.16,.11-.17,.27-.19,.45-.16" fill="#a0ad4f"/>
      <path d="M26.99,64.09c.08-.3,.29-.23,.49-.17-.11,.2-.28,.23-.49,.17" fill="#a0ad4f"/>
      <path d="M75.6,41.07c-.2-.07-.33-.18-.24-.42,.21,.06,.28,.21,.24,.42" fill="#a0ad4f"/>
      <path d="M.53,39.97c-.11,.03-.2,0-.24-.12,0-.02,.02-.06,.04-.06,.12-.03,.19,.03,.22,.15,0,0-.02,.03-.02,.03Z" fill="#a0ad4f"/>
      <path d="M75.83,41.49c-.23,0-.23-.13-.18-.3,.14,.05,.21,.15,.18,.3" fill="#a0ad4f"/>
      <path d="M19.59,47.87c.06-.09,.14-.1,.24-.06-.06,.09-.14,.11-.24,.06" fill="#a0ad4f"/>
      <path d="M17.49,47.91c.05-.12,.11-.11,.16,0-.05,0-.11,0-.16,0" fill="#a0ad4f"/>
      <path d="M21.62,28.66c.63,.3,1.17,.71,1.7,1.18,.99,.91,2.04,1.75,3.1,2.59,.53,.41,1.07,.8,1.56,1.27,.45,.43,.89,.88,1.72,.74,.78-.13,1.15,.7,.7,1.38-.11,.17-.18,.31-.2,.51-.03,.38-.17,.67-.63,.69-.47,.02-.68-.31-.81-.66-.09-.24-.08-.54-.05-.8,.08-.69-.19-1.12-.88-1.16-.39-.02-.17-.32-.29-.43-.91-.86-1.74-1.83-2.94-2.35-.11-.05-.28,.02-.34-.15-.39-1.02-1.27-1.52-2.18-1.96-.34-.16-.21-.62-.54-.78,.03-.03,.06-.05,.09-.08" fill="#a0ad4f"/>
      <path d="M21.53,28.73c-.97-.81-1.95-1.62-2.91-2.44-.37-.32-.67-.73-1.17-.85-.44-.11-.27-.54-.45-.79-.34-.49-.93-.74-1.16-1.31l.02-.02c.43,.16,.75,.46,1.07,.8,.96,1.04,1.97,2.02,3.13,2.86,.58,.42,1.18,.98,1.55,1.67-.03,.02-.06,.05-.09,.08" fill="#a0ad4f"/>
      <path d="M37.96,20.81c.78,1.55,1.03,3.21,1.48,4.81,.17,.59,.27,1.2,.54,1.77,.08,.17,.08,.33-.12,.39-.2,.05-.18-.13-.21-.26-.54-2.08-1.09-4.17-1.63-6.26-.04-.15-.04-.3-.06-.46" fill="#a0ad4f"/>
      <path d="M7.89,14.85c.43,.1,.65,.51,.86,.8,.63,.87,1.45,1.58,1.94,2.56-.88-1.17-2.47-1.71-2.83-3.34l.02-.02h0Z" fill="#a0ad4f"/>
      <path d="M24.39,11.72c1.04,.45,1.57,1.3,1.89,2.32,0,0,0,0,0,0-.11-.01-.26,.02-.31-.04-.57-.73-1.12-1.47-1.68-2.21,.03-.03,.07-.06,.1-.08" fill="#a0ad4f"/>
      <path d="M28.34,25.16c-.74-1.15-1.61-2.23-1.91-3.61l.03-.03c.76,1.13,1.56,2.24,1.98,3.56-.03,.03-.06,.05-.09,.07" fill="#a0ad4f"/>
      <path d="M36.51,16.64c.4,.93,.8,1.86,1.21,2.79-.56-.31-1.02-1.27-1.21-2.79" fill="#a0ad4f"/>
      <path d="M13.89,21.39c-.47-.29-1.12-.34-1.33-.99-.05-.15-.07-.26,.07-.35,.12-.08,.22,.02,.27,.1,.28,.46,.88,.64,1.02,1.21l-.03,.03h0Z" fill="#a0ad4f"/>
      <path d="M24.38,18.42c.93,.39,1.03,.55,1.24,1.78-.41-.59-.83-1.19-1.24-1.78" fill="#a0ad4f"/>
      <path d="M14.4,22.02c.71,.19,1.1,.73,1.47,1.3l-.02,.02c-.65-.26-1.01-.83-1.45-1.32h0s0,0,0,0Z" fill="#a0ad4f"/>
      <path d="M29.51,21.4c-.33-.59-.76-1.14-.74-1.87,.36,.57,.69,1.14,.8,1.82,0,0-.06,.05-.06,.05" fill="#a0ad4f"/>
      <path d="M36.06,15.78c-.36-.34-.46-.7-.61-1.04-.07-.17-.02-.33,.19-.37,.29-.06,.19,.17,.22,.3,.06,.34,.13,.67,.21,1.11" fill="#a0ad4f"/>
      <path d="M32.23,38.37c.25,.24,.61,.04,.9,.19-.74,.59-.83,.58-1.06-.19,.05,.02,.11,.02,.16,0" fill="#f8f8f0"/>
      <path d="M27.74,17.63c.05-.61-.51-1.03-.49-1.62h.02c.43,.31,.51,.84,.74,1.28,.11,.22-.01,.35-.26,.35h0Z" fill="#a0ad4f"/>
      <path d="M27.25,16.01c-.43-.52-.63-1.15-.82-1.78l.03-.03c.51,.49,.71,1.12,.81,1.8h-.02Z" fill="#a0ad4f"/>
      <path d="M26.42,21.55c-.45-.2-.5-.62-.58-1.03,.35,.25,.58,.56,.6,1l-.03,.03Z" fill="#a0ad4f"/>
      <path d="M23.63,10.83c-.33-.11-.55-.32-.63-.67,0,0,.04-.05,.04-.05,.35,.09,.56,.32,.65,.66-.02,.02-.04,.04-.07,.05" fill="#a0ad4f"/>
      <path d="M20.09,12.42c.18,.14,.53,.14,.43,.57-.27-.12-.43-.28-.44-.57h0s0,0,0,0Z" fill="#a0ad4f"/>
      <path d="M28.43,25.09c.13,.18,.32,.35,.21,.64-.33-.08-.22-.38-.3-.57,.03-.02,.06-.05,.09-.07" fill="#a0ad4f"/>
      <path d="M23.84,17.3c-.22-.09-.31-.27-.33-.49h0c.32,.03,.33,.25,.33,.49h0Z" fill="#a0ad4f"/>
      <path d="M23.83,17.31c.12,.02,.26,.02,.26,.2,0,.02-.03,.05-.05,.05-.17,0-.18-.14-.21-.25h0Z" fill="#a0ad4f"/>
      <path d="M23.15,16.23s.11,.03,.12,.06c.01,.03-.03,.09-.05,.13-.04-.02-.11-.03-.12-.06-.01-.03,.03-.09,.05-.13" fill="#a0ad4f"/>
      <path d="M8.11,21.25l.06-.13s.11,.03,.12,.06c.01,.03-.03,.08-.05,.13-.04-.02-.09-.04-.13-.06" fill="#a0ad4f"/>
      <path d="M23.7,10.77c.06,.1,.12,.2,.18,.3-.02,.02-.04,.04-.06,.06-.06-.1-.12-.21-.19-.31,.02-.02,.04-.03,.07-.05" fill="#a0ad4f"/>
      <path d="M14.24,21.69c.13,.07,.17,.19,.16,.33h0c-.12-.06-.17-.17-.18-.31,0,0,.02-.02,.02-.02Z" fill="#a0ad4f"/>
      <path d="M11.03,18.4s.04,0,.05,0c.01,.02,.01,.04,.02,.06h-.08s.02-.06,.02-.06h0Z" fill="#a0ad4f"/>
      <path d="M24.28,17.96s-.03,.04-.04,.06c-.01-.02-.03-.05-.03-.07,0-.02,.03-.04,.04-.06,.01,.02,.02,.04,.03,.07" fill="#a0ad4f"/>
      <path d="M19.93,12.26c-.07-.02-.14-.04-.21-.06,.12-.15,.15,0,.21,.06h0s0,0,0,0Z" fill="#a0ad4f"/>
      <path d="M24.2,11.4c.06,.11,.13,.21,.19,.32-.04,.03-.07,.05-.1,.08l-.16-.33s.05-.05,.07-.07" fill="#a0ad4f"/>
      <path d="M26.43,14.22c-.05-.06-.1-.11-.15-.17,0,0,0,0,0,0,.06,.05,.12,.1,.17,.15l-.03,.03h0Z" fill="#a0ad4f"/>
      <path d="M27.74,17.63s-.03,.05-.04,.07c.01-.02,.02-.05,.03-.07h0Z" fill="#a0ad4f"/>
      <path d="M20.09,12.42l-.16-.16h0c.05,.06,.11,.11,.16,.16,0,0,0,0,0,0Z" fill="#a0ad4f"/>
      <path d="M14.22,21.71c-.05-.05-.11-.11-.16-.16,0,0,.02-.03,.02-.03,.05,.05,.11,.11,.16,.16,0,0-.02,.02-.02,.02Z" fill="#a0ad4f"/>
      <path d="M8.35,23.14s.07-.04,.1-.06c-.02,.03-.04,.06-.06,.1l-.04-.04h0Z" fill="#a0ad4f"/>
      <path d="M13.92,21.37l.16,.16s-.02,.03-.02,.03c-.05-.05-.11-.11-.16-.16,0,0,.03-.03,.03-.03Z" fill="#a0ad4f"/>
      <polygon points="23.51 16.82 23.45 16.78 23.51 16.82 23.51 16.82" fill="#a0ad4f"/>
      <path d="M24.04,11.24c.05,.05,.11,.11,.16,.17-.02,.02-.05,.05-.07,.07-.05-.05-.11-.11-.16-.16,.03-.02,.05-.05,.07-.07" fill="#a0ad4f"/>
      <path d="M23.88,11.08c.05,.05,.11,.11,.16,.16-.02,.02-.05,.05-.07,.07-.05-.06-.1-.11-.15-.17,.02-.02,.04-.04,.06-.06" fill="#a0ad4f"/>
      <path d="M68.72,46.03c.17,.2,.33,.4,.5,.6-.02,.25,.12,.39,.35,.46,.02,.05,.04,.1,.06,.15,2.1,2.43,4.61,4.47,6.71,6.91,.05,.05,.14,.08,.21,.11l.03,.03c.03,.17,.13,.27,.3,.31,.16,.29,.42,.46,.68,.64,.22,.38,.53,.66,.93,.85h0c1.21,1.52,2.72,2.68,4.36,3.69,.48,.3,.88,.67,1.24,1.2-.72,.26-1.2-.21-1.68-.43-1.79-.82-3.55-1.72-5.32-2.58-.26-.12-.5-.34-.83-.29l-.02-.02c-.25-.37-.63-.51-1.06-.55l-.02-.02c-.02-.11-.09-.13-.19-.11-.15-.07-.3-.14-.45-.21-.04-.1-.1-.13-.2-.11-1.3-.8-2.67-1.47-4.04-2.14-.73-.59-1.59-.98-2.42-1.42-.98-.52-1.4-1.44-1.87-2.34-.14-.26-.21-.57-.4-.78-.62-.71-.44-1.29,.22-1.84,.29-.24,.57-.49,.68-.88,.11-.36,.42-.36,.73-.34,1.14,.11,1.34-.06,1.37-1.15h0c-.03,.11,0,.19,.13,.22" fill="#f8f8f0"/>
      <path d="M71.08,56.49c-.46,.41-.99,.14-1.36-.03-1.86-.85-3.82-1.04-5.82-1-.27,0-.43-.2-.68-.2-1.15-.76-2.54-.99-3.72-1.7-.27-.16-.56-.3-.83-.45-.26-.22-.37-.49-.32-.83,.23-.14,.39-.29,.45-.6,.12-.67,.59-.86,1.2-.52,.4,.23,.81,.39,1.27,.42,.54,.57,1.31,.72,1.97,1.05,1.09,.55,2.24,1,3.37,1.48,1.41,.75,2.81,1.49,4.22,2.24v.05l.03-.04c.07,.04,.15,.08,.22,.12" fill="#f8f8f0"/>
      <path d="M48.09,43.34c.58-1.27,1.43-1.27,2.74-.68,1.2,.53,1.92,1.54,2.99,2.15,.87,.5,1.25,1.17,.78,2.21-2.13-1.25-4.45-2.2-6.49-3.67h-.02s0,0,0,0Z" fill="#f8f8f0"/>
      <path d="M58.03,45.16c-.35-.61-.32-1.3-.41-1.96-.2-1.52-.34-3.04-.72-4.53-.04-.16,0-.35,.11-.54,.2,.4,.46,.78,.6,1.2,.64,1.85,1.96,3.33,2.77,5.09,.27,.59,.85,1.03,1.28,1.54,.51,.61,.36,1.33-.28,1.44-.98-.94-2.22-1.51-3.35-2.24m2.91,.6c-.02-.06-.01-.15-.06-.21-.37-.43-.89-.72-1.1-1.32-.05-.15-.43-.19-.66-.02-.16,.11-.21,.21-.08,.39,.42,.57,.88,1.08,1.54,1.39,.26,.12,.35,.04,.36-.23" fill="#4e8431"/>
      <path d="M70.83,56.36c-1.41-.75-2.81-1.49-4.22-2.24,.67-.41,1.26,.17,1.87,.24,.59,.07,1.18,.2,1.79,.18,1.37,.67,2.74,1.34,4.03,2.14-.03,.04-.05,.09-.04,.14-.07,.03-.13,.07-.2,.1,.02,.02,.04,.06,.05,.05,.07-.03,.13-.07,.19-.1,.07-.03,.14-.06,.2-.09,.15,.07,.3,.14,.45,.21,.02,.11,.08,.16,.19,.12l.02,.02c.14,.59,.52,.74,1.06,.55l.02,.02c.22,.21,.39,.65,.3,.73-.22,.18-.55,.28-.9,.15-.51-.18-1.06-.24-1.46-.66-.07-.08-.18-.16-.28-.16-1.15,.03-1.92-.79-2.84-1.26-.07-.04-.15-.08-.22-.12l-.03-.02h0Z" fill="#4e8431"/>
      <path d="M42.64,31.08c.76,1.21,1.29,2.32,1.86,3.41,.35,.67,0,1.59,.77,2.09,0,0-.08,.18-.14,.26-.22,.3-.46,.59-.68,.89-.6,.8-.55,.78-1.09-.13-.43-.73-.44-1.57-.57-2.34-.21-1.31-.33-2.66-.16-4.19" fill="#4e8431"/>
      <path d="M61.27,51.59c-.46-.03-.88-.19-1.27-.42-.61-.34-1.08-.16-1.2,.52-.05,.31-.22,.46-.45,.6,.03-.13,.02-.25-.12-.31,.04-.1,.07-.2,.11-.29,.54-1.06,.47-1.19-.71-1.45-.08-.02-.16-.01-.24-.02v-1.36c.53,.23,1.02,.47,1.46,.8,.12,.1,.26,.27,.41,.1,.18-.21-.05-.3-.16-.45-.2-.26-.66-.16-.72-.57,.12-.21-.12-.28-.17-.43,.54-.09,.92,.34,1.15,.64,.48,.63,1.37,.98,1.37,1.97,0,.31,.66,.21,.54,.68" fill="#4e8431"/>
      <path d="M58.03,45.16c1.13,.73,2.36,1.3,3.35,2.24-.53-.2-.88,.1-1.19,.45-.34,.37-.51,.45-1.07,.11-1.05-.64-1.02-1.62-1.24-2.55-.02-.06,.1-.16,.16-.24" fill="#f8f8f0"/>
      <path d="M57.16,52.02c-1-.41-2-.46-2.97-.61-.1-.27,.11-.32,.25-.44,.32-.26,.78-.29,.98-.79,.14-.32,.64-.33,1.03-.27,.38,.06,.33,.37,.38,.62,.1,.47,.2,.93,.32,1.47" fill="#f8f8f0"/>
      <path d="M43.08,40.09c-.03,.51,.38,.62,.39,.98,.36-.21,.69-.78,.87-.53,.29,.4,.61,.95,.35,1.77-.26-1.38-1.57-.82-2.15-1.53-.13-.16-.57,.23-.58-.17,0-.37,.14-.75,.39-1.09,.27-.37,.82-.44,.98-1.16,.1,.77,.87,1.13,.49,1.81-.13,.24-.45,.37-.73-.08" fill="#4e8431"/>
      <path d="M47.77,43.19c-1.19-.1-1.99-.9-2.28-2.28h0c.07,.03,.14,.06,.21,.1,.07-.57,.6-.58,.99-.88,.32,1.08,.09,2.29,1.08,3.06,0,0,0,0,0,0Z" fill="#4e8431"/>
      <path d="M63.71,48.92c.42,.66,.38,1.49,.84,2.16,.23,.35-.11,.5-.63,.58,.59-.43,.25-.68,0-.89-.41-.34-.84-.69-1.31-.95-.54-.3-.65-.52-.01-.81,.12-.05,.23-.12,.35-.18,.27-.08,.43,.76,.77,.09" fill="#4e8431"/>
      <path d="M57.39,50.21c.08,0,.16,0,.24,.02,1.18,.25,1.24,.39,.71,1.45-.05,.09-.08,.2-.11,.29-.27,.27-.51,.34-.64-.12-.16-.54-.23-1.09-.19-1.64" fill="#f8f8f0"/>
      <path d="M56.63,49.7c-.38-.26-.59-.63-1.02-.69-.26-.04-.25-.36-.17-.54,.13-.33,.5-.4,.78-.49,.23-.07,.49,.12,.51,.4,.02,.41,.09,.84-.09,1.32" fill="#4e8431"/>
      <path d="M33.76,35.54c-.02-.25,.09-.52-.32-.62-.24-.06-.32-.31-.1-.61,.53,.55,1.07,1.05,1.08,1.88h0c-.1,0-.26-.05-.28-.02-.35,.61-.35,.62-1.15,.34,.39-.2,.92-.23,.78-.81h.02c.07-.04,.14-.06,.21-.09l-.21-.07s0,0,0,0Z" fill="#4e8431"/>
      <path d="M34.89,38.26c-.37,.05-.66,.07-.94,.15-.3,.09-.48,.06-.5-.29-.01-.3,.16-.46,.45-.45,.4,.01,.7,.21,.99,.6" fill="#4e8431"/>
      <path d="M45.47,38.58c.14,.32,.66,.51,.36,.94-.12,.17-.36,.15-.5,.04-.42-.36,.07-.64,.14-.97" fill="#f8f8f0"/>
      <path d="M51.58,49.36c-.46,.46-.88,.19-1.29-.07-.09-.06-.1-.33,.05-.31,.21,.03,.45-.29,.63,0,.14,.23,.3,.37,.58,.36l.05,.02h0Z" fill="#4e8431"/>
      <path d="M33.23,32.74c-.56-.32-.66-.73-.58-1.21,.02-.12,.18-.13,.26-.07,.44,.31,.37,.76,.32,1.28" fill="#4e8431"/>
      <path d="M37.95,45.32c-.16,.38-.22,.72-.59,.78-.22,.04-.55,.12-.63-.17-.1-.39,.29-.15,.44-.25,.2-.14,.45-.21,.78-.35" fill="#f8f8f0"/>
      <path d="M63.71,48.92c-.34,.67-.5-.17-.77-.09,.36-.86,.5,.18,.77,.09" fill="#f8f8f0"/>
      <path d="M58.21,48.3c.04,.15,.28,.22,.17,.43-.34-.17-.7-.32-.89-.76,.27,.13,.5,.23,.72,.33" fill="#f8f8f0"/>
      <path d="M61.43,49.16c-.21-.03-.34-.18-.4-.36-.06-.18,.05-.34,.23-.35,.25-.01,.25,.25,.32,.41,.05,.13,.04,.27-.14,.3" fill="#4e8431"/>
      <path d="M45.48,40.91c-.28-.17-.46-.4-.57-.83,.4,.23,.5,.52,.58,.83,0,0,0,0,0,0Z" fill="#4e8431"/>
      <path d="M47.93,43.35c.05,.02,.1,.02,.16,0h.02c-.06,.08-.12,.14-.18,.01h0Z" fill="#4e8431"/>
      <path d="M47.77,43.19c.05,.05,.11,.11,.16,.16h0c-.05-.05-.11-.1-.16-.16h0s0,0,0,0Z" fill="#4e8431"/>
      <path d="M34.42,36.19s.04,.03,.06,.04c-.02-.01-.04-.02-.07-.03h0s0,0,0,0Z" fill="#4e8431"/>
      <path d="M33.76,35.7s-.04-.08-.06-.12c0,0,.04-.03,.06-.05h0c0,.06,0,.11,0,.16,0,0-.02,.01-.02,.01Z" fill="#4e8431"/>
      <path d="M56.38,54.09c0-.77,.56-1.14,1.23-.79,.17,.08,.35,.25,.5,.23,.53-.08,.8,.17,.81,.65,0,.46-.15,.86-.68,1.07-1.47,.61-1.59,.01-1.86-1.15" fill="#a0ad4f"/>
      <path d="M43.52,56.69c0-.77,.78-.78,1.18-1.03,1.81-1.14,3.72-2.12,5.59-3.15,.07-.04,.16-.03,.24-.05h0c-.48,.7-1.22,1.04-1.9,1.46-1.45,.88-2.94,1.71-4.41,2.56-.21,.12-.42,.24-.68,.23l-.02-.02h0Z" fill="#a0ad4f"/>
      <path d="M43.04,57.02c.09-.22,.25-.32,.48-.33l.02,.02c-.05,.28-.27,.31-.5,.32h-.01Z" fill="#a0ad4f"/>
      <path d="M48.41,56.71c-.21-.01-.42-.03-.69-.04,.29-.22,.5-.16,.7,.02l-.02,.02" fill="#a0ad4f"/>
      <path d="M15.93,61.58s-.07,.05-.1,.08c-.01-.02-.04-.05-.03-.06,.03-.03,.06-.05,.09-.08,.01,.02,.03,.04,.04,.06" fill="#a0ad4f"/>
      <path d="M50.7,52.31c-.05,.05-.11,.11-.16,.16h-.01c.05-.07,.11-.12,.16-.17,0,0,0,0,0,0Z" fill="#a0ad4f"/>
      <path d="M43.05,57.03s-.05,.04-.08,.06c.02-.02,.04-.05,.07-.07h.01s0,.01,0,.01Z" fill="#a0ad4f"/>
      <path d="M78.86,54.75c-.18-.12-.17-.3-.16-.49h0c.19,.12,.17,.3,.16,.49h0Z" fill="#4e8431"/>
      <path d="M79.3,55.26s-.05,.02-.06,.02c-.01-.02-.02-.04-.02-.07,.02,0,.05-.02,.06-.02,.01,.02,.02,.04,.02,.07" fill="#4e8431"/>
      <path d="M78.86,54.75l.07,.07s-.03,0-.04-.01c-.01-.02-.02-.04-.03-.05Z" fill="#4e8431"/>
      <path d="M76.54,54.27c-.07-.04-.16-.06-.21-.11-2.1-2.44-4.6-4.48-6.71-6.91,.33-.06,.61,0,.79,.33,.09,.16,.22,.32,.38,.4,1.2,.63,1.89,1.79,2.79,2.72,.31,.32,.75,.42,1.06,.78,.68,.79,1.18,1.74,2.03,2.38,.33,.24,.28,.47,.19,.76-.17-.04-.27-.14-.3-.31,.02-.03,.05-.06,.07-.1-.03,.02-.07,.04-.1,.06" fill="#a0ad4f"/>
      <path d="M78.48,56.1c-.39-.19-.71-.47-.93-.85,.67-.11,.8,.37,.93,.85" fill="#a0ad4f"/>
      <path d="M68.51,37.7c-.5-.29-.64-.59-.79-.9,.31,.17,.61,.35,.79,.9" fill="#a0ad4f"/>
      <path d="M71.5,42.41c-.39-.22-.61-.54-.64-1,0,0,.05-.04,.05-.04,.35,.24,.54,.58,.64,.99l-.05,.05h0Z" fill="#a0ad4f"/>
      <path d="M70.22,40.43c-.31-.22-.54-.48-.66-1.03,.43,.33,.7,.56,.71,.98,0,0-.04,.05-.04,.05Z" fill="#a0ad4f"/>
      <path d="M70.6,40.71c.22,.16,.32,.39,.32,.66,0,0-.05,.04-.05,.04-.25-.13-.33-.35-.35-.62,.03-.03,.05-.06,.08-.08" fill="#a0ad4f"/>
      <path d="M69.57,47.1c-.22-.07-.36-.21-.35-.46,.34-.01,.36,.22,.35,.46" fill="#a0ad4f"/>
      <path d="M70.52,40.8c-.18-.06-.27-.18-.29-.36l.04-.05c.2,.02,.29,.14,.34,.33-.03,.03-.05,.05-.08,.08" fill="#a0ad4f"/>
      <path d="M67.31,36.02c.12,.02,.25,.04,.24,.21,0,.02-.03,.05-.05,.05-.18,0-.17-.14-.19-.26,0,0,0,0,0,0Z" fill="#a0ad4f"/>
      <path d="M67.3,36.03c-.04-.06-.08-.12-.12-.18,0,0,.04-.03,.06-.04,.02,.07,.04,.14,.07,.21h0s0,0,0,0Z" fill="#a0ad4f"/>
      <path d="M68.72,46.03c-.12-.03-.16-.11-.13-.23,.12,.04,.16,.11,.13,.23" fill="#a0ad4f"/>
      <path d="M69.44,39.1s.04,.07,.07,.1c-.03-.02-.06-.05-.1-.07l.03-.03Z" fill="#a0ad4f"/>
      <path d="M69.4,39.13s-.04-.06-.06-.09c.03,.02,.06,.04,.09,.06,0,0-.03,.03-.03,.03" fill="#a0ad4f"/>
      <path d="M43.39,15.34c-.39-.63-.45-1.3-.48-1.98,.07-.01,.14-.02,.21-.03,.09,.67,.18,1.34,.27,2.01" fill="#a0ad4f"/>
      <path d="M6.58,14.86c-.56-.09-.68-.52-.85-1.01,.27,.02,.46,0,.63,.04,.4,.09,.91,.14,.26,.66-.06,.05-.03,.21-.04,.31h0s0,0,0,0Z" fill="#4e8431"/>
      <path d="M4.95,11.61s-.03,.04-.04,.07c.01-.02,.03-.04,.04-.07Z" fill="#4e8431"/>
      <path d="M4.95,11.61s.02-.05,.03-.07c-.01,.02-.02,.05-.03,.07Z" fill="#4e8431"/>
      <path d="M13.25,29.03s-.04-.04-.07-.07c.01,0,.03,0,.04,.01,.01,.01,.02,.03,.03,.05h0Z" fill="#4e8431"/>
      <path d="M36.86,58.49c.12,.02,.26,.02,.24,.2,0,.02-.03,.05-.05,.05-.18,.01-.18-.13-.2-.24h0Z" fill="#4e8431"/>
      <path d="M76.24,57.68c-.54,.19-.92,.04-1.06-.55,.43,.04,.81,.17,1.06,.55" fill="#a0ad4f"/>
      <path d="M74.52,56.8c-.07,.03-.14,.06-.2,.09l-.04-.05c-.01-.05,0-.1,.04-.14,.1-.03,.17,0,.2,.11" fill="#a0ad4f"/>
      <path d="M75.16,57.12c-.11,.04-.17,0-.19-.12,.1-.02,.17,0,.19,.12" fill="#a0ad4f"/>
      <polygon points="70.83 56.36 70.86 56.37 70.83 56.41 70.83 56.36" fill="#a0ad4f"/>
      <path d="M60.94,45.75c-.02,.27-.11,.35-.36,.23-.66-.31-1.12-.82-1.54-1.39-.13-.18-.07-.28,.08-.39,.24-.16,.61-.13,.66,.02,.2,.6,.73,.89,1.1,1.32,.05,.05,.04,.15,.06,.21" fill="#a0ad4f"/>
      <path d="M74.32,56.88c-.06,.03-.12,.07-.19,.1,0,0-.03-.03-.05-.05,.07-.03,.13-.07,.2-.1l.04,.05h0Z" fill="#a0ad4f"/>
      <path d="M33.78,35.69s0-.1,0-.15c.07,.02,.14,.05,.21,.07-.07,.03-.14,.05-.21,.08" fill="#a0ad4f"/>
      <path d="M76.54,54.27s.06-.04,.1-.06c-.02,.03-.05,.06-.07,.1,0,0-.03-.03-.03-.03" fill="#4e8431"/>
    </g>
    <g>
      <path d="M121.64,65.11v-4.3c-1.45,1.9-3.02,3.16-4.69,3.79-1.67,.63-3.5,.95-5.49,.95-1.84,0-3.51-.28-5.02-.84-1.5-.56-2.74-1.32-3.71-2.3-.92-.92-1.66-1.97-2.22-3.14-.56-1.17-.99-2.42-1.31-3.75-.31-1.34-.53-2.71-.65-4.12-.12-1.41-.18-2.82-.18-4.23s.06-2.82,.18-4.23c.12-1.41,.34-2.78,.65-4.12,.31-1.34,.75-2.59,1.31-3.76,.56-1.17,1.3-2.21,2.22-3.14,.97-.97,2.2-1.74,3.71-2.3,1.5-.56,3.17-.84,5.02-.84,1.99,0,3.8,.3,5.45,.91,1.65,.61,3.2,1.84,4.65,3.68V13.2h5.32v51.91h-5.25Zm-.07-17.94c0-1.75-.1-3.45-.29-5.1-.19-1.65-.61-3.11-1.23-4.38-.63-1.26-1.54-2.28-2.72-3.06-1.19-.78-2.75-1.17-4.68-1.17s-3.5,.39-4.68,1.17c-1.19,.78-2.09,1.8-2.72,3.06-.63,1.26-1.05,2.72-1.27,4.38-.22,1.65-.33,3.35-.33,5.1s.11,3.45,.33,5.1c.22,1.65,.64,3.11,1.27,4.37,.63,1.26,1.54,2.29,2.72,3.06,1.19,.78,2.75,1.17,4.68,1.17s3.5-.39,4.68-1.17c1.19-.78,2.09-1.8,2.72-3.06,.63-1.26,1.04-2.72,1.23-4.37,.19-1.65,.29-3.35,.29-5.1Z" fill="#4e8431"/>
      <path d="M156.54,65.11v-3.43c-1.46,1.46-2.95,2.47-4.48,3.03-1.53,.56-3.49,.84-5.87,.84s-4.51-.26-6.09-.77-2.93-1.35-4.05-2.52c-.88-.88-1.54-1.96-2-3.24-.46-1.29-.69-2.64-.69-4.05,0-3.16,1.06-5.67,3.17-7.55,2.12-1.87,5.19-2.81,9.22-2.81h10.79v-3.38c0-2.59-.71-4.53-2.12-5.83s-3.77-1.94-7.07-1.94c-2.33,0-4.16,.3-5.47,.91-1.31,.61-2.5,1.67-3.57,3.17l-3.57-3.28c1.61-2.15,3.39-3.59,5.36-4.34s4.41-1.12,7.33-1.12c4.86,0,8.47,1.01,10.83,3.03,2.36,2.02,3.54,4.99,3.54,8.93v24.35h-5.25Zm0-16.55h-9.98c-5.3,0-7.96,2.09-7.96,6.27,0,2.07,.65,3.59,1.95,4.58,1.3,.98,3.38,1.48,6.22,1.48,1.54,0,2.98-.12,4.3-.36,1.33-.24,2.54-.91,3.65-2.02,1.21-1.15,1.81-3.19,1.81-6.13v-3.82Z" fill="#4e8431"/>
      <path d="M177.39,18.16v19.1h22.75v4.96h-22.75v22.9h-5.54V13.2h32.23v4.96h-26.69Z" fill="#a0ad4f"/>
      <path d="M244.18,65.11l-27.56-41.63v41.63h-5.54V13.2h5.25l27.56,41.49V13.2h5.54v51.91h-5.25Z" fill="#a0ad4f"/>
      <path d="M258.1,65.11V13.2h32.23v4.96h-26.69v18.3h22.75v4.96h-22.75v18.74h26.69v4.96h-32.23Z" fill="#a0ad4f"/>
    </g>
  </g>
  <g isolation="isolate">
    <path d="M10.28,93.25c-.92,.92-2.25,1.37-3.77,1.37H1.39v-14.59H6.51c1.52,0,2.85,.45,3.77,1.37,1.58,1.58,1.48,3.71,1.48,5.82s.1,4.45-1.48,6.02Zm-1.52-10.25c-.61-.68-1.43-.98-2.48-.98H3.6v10.62h2.68c1.04,0,1.86-.31,2.48-.98,.76-.84,.78-2.42,.78-4.43s-.02-3.38-.78-4.22Z" fill="#508431"/>
    <path d="M20.25,94.63v-.94c-.76,.76-1.48,1.07-2.77,1.07s-2.15-.31-2.79-.94c-.53-.55-.82-1.35-.82-2.23,0-1.74,1.21-2.99,3.59-2.99h2.75v-.74c0-1.31-.66-1.95-2.27-1.95-1.15,0-1.7,.27-2.27,1l-1.37-1.29c.98-1.15,2.01-1.5,3.73-1.5,2.85,0,4.28,1.21,4.28,3.57v6.95h-2.05Zm-.04-4.59h-2.44c-1.23,0-1.86,.55-1.86,1.5s.59,1.48,1.91,1.48c.8,0,1.39-.06,1.95-.59,.31-.31,.45-.8,.45-1.54v-.84Z" fill="#508431"/>
    <path d="M31.09,86.68c-.47-.47-.84-.7-1.56-.7-1.13,0-2.07,.9-2.07,2.34v6.31h-2.09v-10.39h2.05v1.13c.53-.74,1.6-1.25,2.77-1.25,1,0,1.76,.27,2.48,.98l-1.58,1.58Z" fill="#508431"/>
    <path d="M46.89,94.63v-6.33c0-1.62-.92-2.32-2.09-2.32s-2.15,.72-2.15,2.21v6.43h-2.09v-6.33c0-1.62-.92-2.32-2.09-2.32s-2.15,.72-2.15,2.32v6.33h-2.09v-10.39h2.05v1.04c.7-.76,1.72-1.17,2.77-1.17,1.29,0,2.3,.51,2.95,1.52,.84-1.02,1.89-1.52,3.26-1.52,1.07,0,2.01,.35,2.62,.94,.8,.78,1.11,1.76,1.11,2.93v6.64h-2.09Z" fill="#508431"/>
    <path d="M55.42,94.75c-1.7,0-3.14-.29-4.36-1.5l1.37-1.37c.84,.86,1.97,1.09,2.99,1.09,1.27,0,2.27-.45,2.27-1.43,0-.7-.39-1.15-1.39-1.23l-1.66-.14c-1.95-.16-3.07-1.04-3.07-2.87,0-2.03,1.74-3.18,3.91-3.18,1.56,0,2.89,.33,3.85,1.17l-1.31,1.33c-.66-.55-1.58-.76-2.56-.76-1.25,0-1.89,.55-1.89,1.33,0,.61,.33,1.09,1.43,1.19l1.64,.14c1.95,.16,3.09,1.09,3.09,2.93,0,2.17-1.84,3.3-4.32,3.3Z" fill="#508431"/>
    <path d="M65.04,94.63c-1.95,0-2.85-1.39-2.85-2.89v-5.72h-1.19v-1.6h1.19v-3.16h2.09v3.16h2.01v1.6h-2.01v5.61c0,.76,.37,1.21,1.15,1.21h.86v1.78h-1.25Z" fill="#508431"/>
    <path d="M74.34,94.63v-.94c-.76,.76-1.48,1.07-2.77,1.07s-2.15-.31-2.79-.94c-.53-.55-.82-1.35-.82-2.23,0-1.74,1.21-2.99,3.59-2.99h2.75v-.74c0-1.31-.66-1.95-2.27-1.95-1.15,0-1.7,.27-2.27,1l-1.37-1.29c.98-1.15,2.01-1.5,3.73-1.5,2.85,0,4.28,1.21,4.28,3.57v6.95h-2.05Zm-5.14-12.38v-2.21h1.89v2.21h-1.89Zm5.1,7.79h-2.44c-1.23,0-1.86,.55-1.86,1.5s.59,1.48,1.91,1.48c.8,0,1.39-.06,1.95-.59,.31-.31,.45-.8,.45-1.54v-.84Zm-.68-7.79v-2.21h1.89v2.21h-1.89Z" fill="#508431"/>
    <path d="M85.43,94.63v-1.11c-.78,.94-1.62,1.23-2.75,1.23-1.05,0-1.97-.35-2.54-.92-1.04-1.05-1.17-2.83-1.17-4.41s.12-3.34,1.17-4.39c.57-.57,1.48-.92,2.52-.92,1.11,0,1.97,.27,2.73,1.17v-5.25h2.09v14.59h-2.05Zm-2.19-8.65c-1.89,0-2.17,1.6-2.17,3.44s.29,3.46,2.17,3.46,2.15-1.62,2.15-3.46-.27-3.44-2.15-3.44Z" fill="#508431"/>
    <path d="M93.76,94.63c-1.95,0-2.85-1.39-2.85-2.89v-5.72h-1.19v-1.6h1.19v-3.16h2.09v3.16h2.01v1.6h-2.01v5.61c0,.76,.37,1.21,1.15,1.21h.86v1.78h-1.25Z" fill="#508431"/>
    <path d="M99.01,90.04c0,1.78,.94,2.91,2.64,2.91,1.17,0,1.78-.33,2.52-1.07l1.33,1.25c-1.07,1.07-2.07,1.62-3.89,1.62-2.6,0-4.67-1.37-4.67-5.33,0-3.36,1.74-5.31,4.41-5.31s4.41,2.05,4.41,5v.92h-6.74Zm4.39-2.87c-.33-.78-1.07-1.31-2.05-1.31s-1.74,.53-2.07,1.31c-.21,.47-.25,.78-.27,1.41h4.67c-.02-.64-.08-.94-.29-1.41Z" fill="#508431"/>
    <path d="M114.09,86.68c-.47-.47-.84-.7-1.56-.7-1.13,0-2.07,.9-2.07,2.34v6.31h-2.09v-10.39h2.05v1.13c.53-.74,1.6-1.25,2.77-1.25,1,0,1.76,.27,2.48,.98l-1.58,1.58Z" fill="#508431"/>
    <path d="M124.47,82.03v4.45h6.07v1.99h-6.07v6.17h-2.21v-14.59h9.32v1.99h-7.11Z" fill="#508431"/>
    <path d="M140.13,93.52c-.68,.7-1.7,1.23-3.11,1.23s-2.42-.53-3.09-1.23c-.98-1.02-1.23-2.34-1.23-4.1s.25-3.05,1.23-4.08c.68-.7,1.68-1.23,3.09-1.23s2.44,.53,3.11,1.23c.98,1.02,1.23,2.34,1.23,4.08s-.25,3.07-1.23,4.1Zm-1.58-6.95c-.39-.39-.92-.59-1.54-.59s-1.13,.2-1.52,.59c-.64,.64-.72,1.72-.72,2.85s.08,2.21,.72,2.85c.39,.39,.9,.61,1.52,.61s1.15-.22,1.54-.61c.64-.64,.72-1.72,.72-2.85s-.08-2.21-.72-2.85Z" fill="#508431"/>
    <path d="M149.76,86.68c-.47-.47-.84-.7-1.56-.7-1.13,0-2.07,.9-2.07,2.34v6.31h-2.09v-10.39h2.05v1.13c.53-.74,1.6-1.25,2.77-1.25,1,0,1.76,.27,2.48,.98l-1.58,1.58Z" fill="#508431"/>
    <path d="M156.06,94.75c-1.7,0-3.14-.29-4.36-1.5l1.37-1.37c.84,.86,1.97,1.09,2.99,1.09,1.27,0,2.27-.45,2.27-1.43,0-.7-.39-1.15-1.39-1.23l-1.66-.14c-1.95-.16-3.07-1.04-3.07-2.87,0-2.03,1.74-3.18,3.91-3.18,1.56,0,2.89,.33,3.85,1.17l-1.31,1.33c-.66-.55-1.58-.76-2.56-.76-1.25,0-1.89,.55-1.89,1.33,0,.61,.33,1.09,1.43,1.19l1.64,.14c1.95,.16,3.1,1.09,3.1,2.93,0,2.17-1.84,3.3-4.32,3.3Z" fill="#508431"/>
    <path d="M166.88,94.75c-2.34,0-4.63-1.43-4.63-5.33s2.29-5.31,4.63-5.31c1.43,0,2.44,.41,3.42,1.46l-1.43,1.39c-.66-.72-1.17-.98-1.99-.98s-1.48,.33-1.93,.92c-.45,.57-.62,1.31-.62,2.52s.16,1.97,.62,2.54c.45,.59,1.13,.92,1.93,.92s1.33-.27,1.99-.98l1.43,1.37c-.98,1.04-1.99,1.48-3.42,1.48Z" fill="#508431"/>
    <path d="M178.87,94.63v-6.37c0-1.58-.92-2.27-2.09-2.27s-2.11,.72-2.11,2.27v6.37h-2.09v-14.59h2.09v5.25c.72-.78,1.66-1.17,2.68-1.17,2.32,0,3.61,1.56,3.61,3.81v6.7h-2.09Z" fill="#508431"/>
    <path d="M190.31,94.63v-1.04c-.72,.78-1.72,1.17-2.77,1.17s-1.95-.35-2.56-.94c-.8-.78-1.04-1.76-1.04-2.93v-6.64h2.09v6.33c0,1.62,.92,2.32,2.09,2.32s2.15-.72,2.15-2.32v-6.33h2.09v10.39h-2.05Z" fill="#508431"/>
    <path d="M201.87,94.63v-6.33c0-1.62-.92-2.32-2.09-2.32s-2.15,.72-2.15,2.32v6.33h-2.09v-10.39h2.05v1.04c.72-.78,1.72-1.17,2.77-1.17s1.95,.35,2.56,.94c.8,.78,1.05,1.76,1.05,2.93v6.64h-2.09Z" fill="#508431"/>
    <path d="M210.53,98.95c-1.58,0-2.58-.37-3.67-1.37l1.33-1.33c.66,.61,1.23,.92,2.25,.92,1.76,0,2.44-1.25,2.44-2.64v-1.33c-.76,.9-1.62,1.19-2.68,1.19s-1.91-.35-2.48-.92c-1-1-1.17-2.46-1.17-4.22s.16-3.22,1.17-4.22c.57-.57,1.46-.9,2.5-.9,1.11,0,1.95,.29,2.73,1.23v-1.11h2.03v10.33c0,2.54-1.68,4.39-4.45,4.39Zm.25-12.97c-1.89,0-2.13,1.62-2.13,3.26s.25,3.26,2.13,3.26,2.11-1.62,2.11-3.26-.23-3.26-2.11-3.26Z" fill="#508431"/>
    <path d="M221.51,94.75c-1.7,0-3.13-.29-4.36-1.5l1.37-1.37c.84,.86,1.97,1.09,2.99,1.09,1.27,0,2.28-.45,2.28-1.43,0-.7-.39-1.15-1.39-1.23l-1.66-.14c-1.95-.16-3.07-1.04-3.07-2.87,0-2.03,1.74-3.18,3.91-3.18,1.56,0,2.89,.33,3.85,1.17l-1.31,1.33c-.66-.55-1.58-.76-2.56-.76-1.25,0-1.88,.55-1.88,1.33,0,.61,.33,1.09,1.43,1.19l1.64,.14c1.95,.16,3.09,1.09,3.09,2.93,0,2.17-1.84,3.3-4.32,3.3Z" fill="#508431"/>
    <path d="M231.72,98.95c-1.58,0-2.58-.37-3.67-1.37l1.33-1.33c.66,.61,1.23,.92,2.25,.92,1.76,0,2.44-1.25,2.44-2.64v-1.33c-.76,.9-1.62,1.19-2.68,1.19s-1.91-.35-2.48-.92c-1-1-1.17-2.46-1.17-4.22s.16-3.22,1.17-4.22c.57-.57,1.46-.9,2.5-.9,1.11,0,1.95,.29,2.72,1.23v-1.11h2.03v10.33c0,2.54-1.68,4.39-4.45,4.39Zm.25-12.97c-1.88,0-2.13,1.62-2.13,3.26s.25,3.26,2.13,3.26,2.11-1.62,2.11-3.26-.23-3.26-2.11-3.26Z" fill="#508431"/>
    <path d="M245.07,86.68c-.47-.47-.84-.7-1.56-.7-1.13,0-2.07,.9-2.07,2.34v6.31h-2.09v-10.39h2.05v1.13c.53-.74,1.6-1.25,2.77-1.25,1,0,1.76,.27,2.48,.98l-1.58,1.58Z" fill="#508431"/>
    <path d="M254.48,94.63v-1.04c-.72,.78-1.72,1.17-2.77,1.17s-1.95-.35-2.56-.94c-.8-.78-1.04-1.76-1.04-2.93v-6.64h2.09v6.33c0,1.62,.92,2.32,2.09,2.32s2.15-.72,2.15-2.32v-6.33h2.09v10.39h-2.05Z" fill="#508431"/>
    <path d="M267.04,93.83c-.57,.57-1.48,.92-2.52,.92-1.11,0-1.97-.29-2.73-1.19v5.27h-2.09v-14.59h2.05v1.11c.78-.94,1.62-1.23,2.75-1.23,1.04,0,1.97,.35,2.54,.92,1.04,1.05,1.17,2.81,1.17,4.39s-.12,3.36-1.17,4.41Zm-3.07-7.85c-1.88,0-2.17,1.6-2.17,3.44s.29,3.46,2.17,3.46,2.15-1.62,2.15-3.46-.27-3.44-2.15-3.44Z" fill="#508431"/>
    <path d="M278.23,93.83c-.57,.57-1.47,.92-2.52,.92-1.11,0-1.97-.29-2.73-1.19v5.27h-2.09v-14.59h2.05v1.11c.78-.94,1.62-1.23,2.75-1.23,1.05,0,1.97,.35,2.54,.92,1.05,1.05,1.17,2.81,1.17,4.39s-.12,3.36-1.17,4.41Zm-3.07-7.85c-1.89,0-2.17,1.6-2.17,3.44s.29,3.46,2.17,3.46,2.15-1.62,2.15-3.46-.27-3.44-2.15-3.44Z" fill="#508431"/>
    <path d="M283.63,90.04c0,1.78,.94,2.91,2.64,2.91,1.17,0,1.78-.33,2.52-1.07l1.33,1.25c-1.07,1.07-2.07,1.62-3.89,1.62-2.6,0-4.67-1.37-4.67-5.33,0-3.36,1.74-5.31,4.41-5.31s4.41,2.05,4.41,5v.92h-6.74Zm4.39-2.87c-.33-.78-1.07-1.31-2.05-1.31s-1.74,.53-2.07,1.31c-.21,.47-.25,.78-.27,1.41h4.67c-.02-.64-.08-.94-.29-1.41Z" fill="#508431"/>
    <path d="M3.56,110.62v8.61H1.47v-8.61H.28v-1.6H1.47v-1.6c0-1.5,.9-2.89,2.85-2.89h1.31v1.78h-.92c-.78,0-1.15,.45-1.15,1.21v1.5h2.07v1.6H3.56Z" fill="#508431"/>
    <path d="M13.99,119.23v-1.04c-.72,.78-1.72,1.17-2.77,1.17s-1.95-.35-2.56-.94c-.8-.78-1.04-1.76-1.04-2.93v-6.64h2.09v6.33c0,1.62,.92,2.32,2.09,2.32s2.15-.72,2.15-2.32v-6.33h2.09v10.39h-2.05Zm-5.33-12.38v-2.21h1.89v2.21h-1.89Zm4.43,0v-2.21h1.89v2.21h-1.89Z" fill="#508431"/>
    <path d="M24.94,111.28c-.47-.47-.84-.7-1.56-.7-1.13,0-2.07,.9-2.07,2.34v6.31h-2.09v-10.39h2.05v1.13c.53-.74,1.6-1.25,2.77-1.25,1,0,1.76,.27,2.48,.98l-1.58,1.58Z" fill="#508431"/>
    <path d="M42.06,119.23l-6.74-10.27v10.27h-2.21v-14.59h2.03l6.74,10.25v-10.25h2.21v14.59h-2.03Z" fill="#508431"/>
    <path d="M53.11,119.23v-.94c-.76,.76-1.48,1.07-2.77,1.07s-2.15-.31-2.79-.94c-.53-.55-.82-1.35-.82-2.23,0-1.74,1.21-2.99,3.59-2.99h2.75v-.74c0-1.31-.66-1.95-2.27-1.95-1.15,0-1.7,.27-2.27,1l-1.37-1.29c.98-1.15,2.01-1.5,3.73-1.5,2.85,0,4.28,1.21,4.28,3.57v6.95h-2.05Zm-.04-4.59h-2.44c-1.23,0-1.86,.55-1.86,1.5s.59,1.48,1.91,1.48c.8,0,1.39-.06,1.95-.59,.31-.31,.45-.8,.45-1.54v-.84Z" fill="#508431"/>
    <path d="M62.33,119.35c-2.34,0-4.63-1.43-4.63-5.33s2.3-5.31,4.63-5.31c1.43,0,2.44,.41,3.42,1.46l-1.43,1.39c-.66-.72-1.17-.98-1.99-.98s-1.48,.33-1.93,.92c-.45,.57-.61,1.31-.61,2.52s.16,1.97,.61,2.54c.45,.59,1.13,.92,1.93,.92s1.33-.27,1.99-.98l1.43,1.37c-.98,1.04-1.99,1.48-3.42,1.48Z" fill="#508431"/>
    <path d="M74.32,119.23v-6.37c0-1.58-.92-2.27-2.09-2.27s-2.11,.72-2.11,2.27v6.37h-2.09v-14.59h2.09v5.25c.72-.78,1.66-1.17,2.68-1.17,2.32,0,3.61,1.56,3.61,3.81v6.7h-2.09Z" fill="#508431"/>
    <path d="M85.78,119.23v-6.37c0-1.58-.92-2.27-2.09-2.27s-2.11,.72-2.11,2.27v6.37h-2.09v-14.59h2.09v5.25c.72-.78,1.66-1.17,2.68-1.17,2.32,0,3.61,1.56,3.61,3.81v6.7h-2.09Z" fill="#508431"/>
    <path d="M96.54,119.23v-.94c-.76,.76-1.48,1.07-2.77,1.07s-2.15-.31-2.79-.94c-.53-.55-.82-1.35-.82-2.23,0-1.74,1.21-2.99,3.59-2.99h2.75v-.74c0-1.31-.66-1.95-2.27-1.95-1.15,0-1.7,.27-2.27,1l-1.37-1.29c.98-1.15,2.01-1.5,3.73-1.5,2.85,0,4.28,1.21,4.28,3.57v6.95h-2.05Zm-.04-4.59h-2.44c-1.23,0-1.86,.55-1.86,1.5s.59,1.48,1.91,1.48c.8,0,1.39-.06,1.95-.59,.31-.31,.45-.8,.45-1.54v-.84Z" fill="#508431"/>
    <path d="M104.46,119.23c-1.99,0-2.85-1.33-2.85-2.87v-11.72h2.09v11.6c0,.8,.29,1.21,1.13,1.21h.92v1.78h-1.29Z" fill="#508431"/>
    <path d="M111,119.23c-1.95,0-2.85-1.39-2.85-2.89v-5.72h-1.19v-1.6h1.19v-3.16h2.09v3.16h2.01v1.6h-2.01v5.61c0,.76,.37,1.21,1.15,1.21h.86v1.78h-1.25Z" fill="#508431"/>
    <path d="M114.71,106.79v-2.21h2.21v2.21h-2.21Zm.06,12.44v-10.39h2.09v10.39h-2.09Z" fill="#508431"/>
    <path d="M123.52,123.55c-1.58,0-2.58-.37-3.67-1.37l1.33-1.33c.66,.61,1.23,.92,2.25,.92,1.76,0,2.44-1.25,2.44-2.64v-1.33c-.76,.9-1.62,1.19-2.68,1.19s-1.91-.35-2.48-.92c-1-1-1.17-2.46-1.17-4.22s.16-3.22,1.17-4.22c.57-.57,1.46-.9,2.5-.9,1.11,0,1.95,.29,2.73,1.23v-1.11h2.03v10.33c0,2.54-1.68,4.39-4.45,4.39Zm.25-12.97c-1.89,0-2.13,1.62-2.13,3.26s.25,3.26,2.13,3.26,2.11-1.62,2.11-3.26-.23-3.26-2.11-3.26Z" fill="#508431"/>
    <path d="M132.69,114.64c0,1.78,.94,2.91,2.64,2.91,1.17,0,1.78-.33,2.52-1.07l1.33,1.25c-1.07,1.07-2.07,1.62-3.89,1.62-2.6,0-4.67-1.37-4.67-5.33,0-3.36,1.74-5.31,4.41-5.31s4.41,2.05,4.41,5v.92h-6.74Zm4.39-2.87c-.33-.78-1.07-1.31-2.05-1.31s-1.74,.53-2.07,1.31c-.21,.47-.25,.78-.27,1.41h4.67c-.02-.64-.08-.94-.29-1.41Z" fill="#508431"/>
    <path d="M147.08,119.23v-14.59h9.32v1.99h-7.11v4.26h6.07v1.97h-6.07v4.39h7.11v1.99h-9.32Z" fill="#508431"/>
    <path d="M165.38,119.23v-6.33c0-1.62-.92-2.32-2.09-2.32s-2.15,.72-2.15,2.32v6.33h-2.09v-10.39h2.05v1.04c.72-.78,1.72-1.17,2.77-1.17s1.95,.35,2.56,.94c.8,.78,1.04,1.76,1.04,2.93v6.64h-2.09Z" fill="#508431"/>
    <path d="M172.09,114.64c0,1.78,.94,2.91,2.64,2.91,1.17,0,1.78-.33,2.52-1.07l1.33,1.25c-1.07,1.07-2.07,1.62-3.89,1.62-2.6,0-4.67-1.37-4.67-5.33,0-3.36,1.74-5.31,4.41-5.31s4.41,2.05,4.41,5v.92h-6.74Zm4.38-2.87c-.33-.78-1.07-1.31-2.05-1.31s-1.74,.53-2.07,1.31c-.21,.47-.25,.78-.27,1.41h4.67c-.02-.64-.08-.94-.29-1.41Z" fill="#508431"/>
    <path d="M187.17,111.28c-.47-.47-.84-.7-1.56-.7-1.13,0-2.07,.9-2.07,2.34v6.31h-2.09v-10.39h2.05v1.13c.53-.74,1.6-1.25,2.77-1.25,1,0,1.76,.27,2.48,.98l-1.58,1.58Z" fill="#508431"/>
    <path d="M193.16,123.55c-1.58,0-2.58-.37-3.67-1.37l1.33-1.33c.66,.61,1.23,.92,2.25,.92,1.76,0,2.44-1.25,2.44-2.64v-1.33c-.76,.9-1.62,1.19-2.68,1.19s-1.91-.35-2.48-.92c-1-1-1.17-2.46-1.17-4.22s.16-3.22,1.17-4.22c.57-.57,1.46-.9,2.5-.9,1.11,0,1.95,.29,2.73,1.23v-1.11h2.03v10.33c0,2.54-1.68,4.39-4.45,4.39Zm.25-12.97c-1.89,0-2.13,1.62-2.13,3.26s.25,3.26,2.13,3.26,2.11-1.62,2.11-3.26-.23-3.26-2.11-3.26Z" fill="#508431"/>
    <path d="M200.73,106.79v-2.21h2.21v2.21h-2.21Zm.06,12.44v-10.39h2.09v10.39h-2.09Z" fill="#508431"/>
    <path d="M207.59,114.64c0,1.78,.94,2.91,2.64,2.91,1.17,0,1.78-.33,2.52-1.07l1.33,1.25c-1.07,1.07-2.07,1.62-3.89,1.62-2.6,0-4.67-1.37-4.67-5.33,0-3.36,1.74-5.31,4.41-5.31s4.41,2.05,4.41,5v.92h-6.74Zm4.39-2.87c-.33-.78-1.07-1.31-2.05-1.31s-1.74,.53-2.07,1.31c-.21,.47-.25,.78-.27,1.41h4.67c-.02-.64-.08-.94-.29-1.41Z" fill="#508431"/>
    <path d="M220.32,119.35c-1.7,0-3.13-.29-4.36-1.5l1.37-1.37c.84,.86,1.97,1.09,2.99,1.09,1.27,0,2.28-.45,2.28-1.43,0-.7-.39-1.15-1.39-1.23l-1.66-.14c-1.95-.16-3.07-1.04-3.07-2.87,0-2.03,1.74-3.18,3.91-3.18,1.56,0,2.89,.33,3.85,1.17l-1.31,1.33c-.66-.55-1.58-.76-2.56-.76-1.25,0-1.88,.55-1.88,1.33,0,.61,.33,1.09,1.43,1.19l1.64,.14c1.95,.16,3.09,1.09,3.09,2.93,0,2.17-1.84,3.3-4.32,3.3Z" fill="#508431"/>
    <path d="M230.31,121.3c-.2,.57-.45,.98-.76,1.29-.57,.57-1.33,.76-2.13,.76h-.84v-1.89h.53c.88,0,1.19-.27,1.5-1.11l.57-1.62-3.63-9.9h2.21l2.48,7.32,2.42-7.32h2.23l-4.59,12.46Z" fill="#508431"/>
    <path d="M239.86,119.35c-1.7,0-3.13-.29-4.36-1.5l1.37-1.37c.84,.86,1.97,1.09,2.99,1.09,1.27,0,2.28-.45,2.28-1.43,0-.7-.39-1.15-1.39-1.23l-1.66-.14c-1.95-.16-3.07-1.04-3.07-2.87,0-2.03,1.74-3.18,3.91-3.18,1.56,0,2.89,.33,3.85,1.17l-1.31,1.33c-.66-.55-1.58-.76-2.56-.76-1.25,0-1.88,.55-1.88,1.33,0,.61,.33,1.09,1.43,1.19l1.64,.14c1.95,.16,3.09,1.09,3.09,2.93,0,2.17-1.84,3.3-4.32,3.3Z" fill="#508431"/>
    <path d="M249.47,119.23c-1.95,0-2.85-1.39-2.85-2.89v-5.72h-1.19v-1.6h1.19v-3.16h2.09v3.16h2.01v1.6h-2.01v5.61c0,.76,.37,1.21,1.15,1.21h.86v1.78h-1.25Z" fill="#508431"/>
    <path d="M254.72,114.64c0,1.78,.94,2.91,2.64,2.91,1.17,0,1.78-.33,2.52-1.07l1.33,1.25c-1.07,1.07-2.07,1.62-3.89,1.62-2.6,0-4.67-1.37-4.67-5.33,0-3.36,1.74-5.31,4.41-5.31s4.41,2.05,4.41,5v.92h-6.74Zm4.39-2.87c-.33-.78-1.07-1.31-2.05-1.31s-1.74,.53-2.07,1.31c-.21,.47-.25,.78-.27,1.41h4.67c-.02-.64-.08-.94-.29-1.41Z" fill="#508431"/>
    <path d="M276.75,119.23v-6.33c0-1.62-.92-2.32-2.09-2.32s-2.15,.72-2.15,2.21v6.43h-2.09v-6.33c0-1.62-.92-2.32-2.09-2.32s-2.15,.72-2.15,2.32v6.33h-2.09v-10.39h2.05v1.04c.7-.76,1.72-1.17,2.77-1.17,1.29,0,2.3,.51,2.95,1.52,.84-1.02,1.89-1.52,3.26-1.52,1.07,0,2.01,.35,2.62,.94,.8,.78,1.11,1.76,1.11,2.93v6.64h-2.09Z" fill="#508431"/>
    <path d="M283.46,114.64c0,1.78,.94,2.91,2.64,2.91,1.17,0,1.78-.33,2.52-1.07l1.33,1.25c-1.07,1.07-2.07,1.62-3.89,1.62-2.6,0-4.67-1.37-4.67-5.33,0-3.36,1.74-5.31,4.41-5.31s4.41,2.05,4.41,5v.92h-6.74Zm4.38-2.87c-.33-.78-1.07-1.31-2.05-1.31s-1.74,.53-2.07,1.31c-.21,.47-.25,.78-.27,1.41h4.67c-.02-.64-.08-.94-.29-1.41Z" fill="#508431"/>
  </g>
</svg>