<svg id="Ebene_1" data-name="Ebene 1" xmlns="http://www.w3.org/2000/svg" viewBox="0 0 1280 400"><path d="M32.52,208.56V232.1h28v6.11h-28v28.21H25.69v-64H65.4v6.11Z"/><path d="M111.4,260.31a23.44,23.44,0,0,1-32.71,0c-6-6-6-12.31-6-25.88s0-19.85,6-25.87a23.44,23.44,0,0,1,32.71,0c6,6,6,12.31,6,25.87S117.41,254.29,111.4,260.31Zm-5.31-47.71a15.62,15.62,0,0,0-22.1,0c-4,4.13-4.49,8.45-4.49,21.83S80,252.13,84,256.26a15.6,15.6,0,0,0,22.1,0c4-4.13,4.5-8.44,4.5-21.83S110.14,216.73,106.09,212.6Z"/><path d="M169.34,266.42,154.79,238H139.42v28.39h-6.83v-64h24.53c11.14,0,19,6.74,19,17.79,0,9.34-5.66,15.45-13.93,17.16l15.19,29Zm-12.85-57.86H139.42V232h17.07c7.46,0,12.76-3.87,12.76-11.68S164,208.56,156.49,208.56Z"/><path d="M207.07,267c-9.61,0-15.9-2.43-21.92-8.45l4.67-4.67c5.3,5.3,10.24,7,17.43,7,9.34,0,15.09-4.41,15.09-11.86,0-3.33-1-6.2-3.05-8s-3.68-2.33-8.36-3.05l-7.45-1.17c-5-.81-9-2.43-11.77-4.85-3.24-2.88-4.85-6.83-4.85-11.95,0-10.87,7.81-18.06,20.48-18.06,8.18,0,13.57,2.07,19,7l-4.41,4.4c-3.95-3.59-8.17-5.48-14.91-5.48-8.53,0-13.48,4.76-13.48,11.86,0,3.14.9,5.66,2.88,7.37a18.49,18.49,0,0,0,8.62,3.5l7,1.08c6,.9,9,2.15,11.68,4.49,3.51,3,5.39,7.37,5.39,12.67C229.17,260,220.37,267,207.07,267Z"/><path d="M262.5,267a22.8,22.8,0,0,1-16.35-6.65c-6-6-6-12.31-6-25.88s0-19.85,6-25.87a22.8,22.8,0,0,1,16.35-6.65c11.5,0,20,7,22.19,19.05h-7C276,213.14,270.5,208,262.5,208a15.43,15.43,0,0,0-11.05,4.49c-4,4.13-4.49,8.54-4.49,21.92s.45,17.79,4.49,21.92a15.4,15.4,0,0,0,11.05,4.5c8,0,13.66-5.12,15.36-12.94h6.83C282.63,260,273.91,267,262.5,267Z"/><path d="M336.08,266.42v-29.2H305.71v29.2h-6.83v-64h6.83v28.66h30.37V202.45h6.83v64Z"/><path d="M381.9,267c-12.94,0-22.28-8.9-22.28-21.66V202.45h6.82v42.31c0,9.71,6.11,16.09,15.46,16.09s15.54-6.38,15.54-16.09V202.45h6.83V245.3C404.27,258.06,394.83,267,381.9,267Z"/><path d="M461.76,266.42l-34-51.3v51.3H421v-64h6.46l34,51.12V202.45h6.83v64Z"/><path d="M522.85,259.59a23.44,23.44,0,0,1-33.42.72c-6-6-6-12.31-6-25.88s0-19.85,6-25.87a22.65,22.65,0,0,1,16.35-6.65c12.22,0,20.49,7.91,22.37,19.14h-6.82c-1.8-8.09-7.55-13-15.55-13a15.51,15.51,0,0,0-11,4.58c-4,4.13-4.49,8.45-4.49,21.83s.45,17.79,4.49,21.92a15.4,15.4,0,0,0,11,4.5,15.58,15.58,0,0,0,12.13-5.48c2.61-3.15,3.6-6.65,3.6-11.59v-4.86H505.78v-6h22.55v10.15C528.33,250.42,526.81,255.37,522.85,259.59Z"/><path d="M559.78,267c-9.62,0-15.91-2.43-21.93-8.45l4.68-4.67c5.3,5.3,10.24,7,17.43,7,9.34,0,15.09-4.41,15.09-11.86,0-3.33-1-6.2-3.06-8s-3.68-2.33-8.35-3.05l-7.46-1.17c-5-.81-9-2.43-11.77-4.85-3.23-2.88-4.85-6.83-4.85-11.95,0-10.87,7.82-18.06,20.49-18.06,8.17,0,13.56,2.07,19,7l-4.4,4.4c-4-3.59-8.18-5.48-14.91-5.48-8.54,0-13.48,4.76-13.48,11.86,0,3.14.9,5.66,2.87,7.37a18.53,18.53,0,0,0,8.63,3.5l7,1.08c6,.9,9,2.15,11.68,4.49,3.5,3,5.39,7.37,5.39,12.67C581.88,260,573.07,267,559.78,267Z"/><path d="M632.28,259.59a23.44,23.44,0,0,1-33.42.72c-6-6-6-12.31-6-25.88s0-19.85,6-25.87a22.65,22.65,0,0,1,16.35-6.65c12.22,0,20.48,7.91,22.37,19.14h-6.83c-1.8-8.09-7.55-13-15.54-13a15.47,15.47,0,0,0-11.05,4.58c-4,4.13-4.5,8.45-4.5,21.83s.45,17.79,4.5,21.92a15.36,15.36,0,0,0,11.05,4.5,15.61,15.61,0,0,0,12.13-5.48c2.6-3.15,3.59-6.65,3.59-11.59v-4.86H615.21v-6h22.55v10.15C637.76,250.42,636.23,255.37,632.28,259.59Z"/><path d="M689.5,266.42,675,238H659.59v28.39h-6.83v-64h24.52c11.15,0,19,6.74,19,17.79,0,9.34-5.66,15.45-13.92,17.16l15.18,29Zm-12.84-57.86H659.59V232h17.07c7.45,0,12.75-3.87,12.75-11.68S684.11,208.56,676.66,208.56Z"/><path d="M732.18,267c-12.94,0-22.29-8.9-22.29-21.66V202.45h6.83v42.31c0,9.71,6.11,16.09,15.46,16.09s15.54-6.38,15.54-16.09V202.45h6.83V245.3C754.55,258.06,745.11,267,732.18,267Z"/><path d="M795.06,240.09h-17v26.33h-6.83v-64h23.81c11.68,0,19.77,7.28,19.77,18.78S806.74,240.09,795.06,240.09Zm-.63-31.53H778.08V234h16.35c8,0,13.57-4.31,13.57-12.75S802.43,208.56,794.43,208.56Z"/><path d="M850.76,240.09h-17v26.33H827v-64h23.81c11.68,0,19.77,7.28,19.77,18.78S862.44,240.09,850.76,240.09Zm-.63-31.53H833.78V234h16.35c8,0,13.57-4.31,13.57-12.75S858.13,208.56,850.13,208.56Z"/><path d="M882.65,266.42v-64h39.71v6.11H889.48v22.55h28v6.11h-28v23.09h32.88v6.11Z"/><path d="M964,208.56V232.1h28v6.11H964v28.21h-6.83v-64h39.71v6.11Z"/><path d="M1032,267c-12.94,0-22.28-8.9-22.28-21.66V202.45h6.83v42.31c0,9.71,6.11,16.09,15.45,16.09s15.55-6.38,15.55-16.09V202.45h6.82V245.3C1054.33,258.06,1044.9,267,1032,267Zm-12.76-71.43v-8h6.47v8Zm19,0v-8h6.47v8Z"/><path d="M1110,266.42,1095.48,238h-15.36v28.39h-6.83v-64h24.53c11.14,0,19,6.74,19,17.79,0,9.34-5.66,15.45-13.92,17.16l15.18,29Zm-12.84-57.86h-17.07V232h17.07c7.45,0,12.75-3.87,12.75-11.68S1104.64,208.56,1097.19,208.56Z"/><path d="M66.48,374.22l-34-51.3v51.3H25.69v-64h6.47l34,51.13V310.25h6.82v64Z"/><path d="M130.08,374.22,125,359.76H97L91.9,374.22H84.62l23.54-64h5.75l23.45,64Zm-19-54.17-12,33.78H123Z"/><path d="M168.08,374.76a22.76,22.76,0,0,1-16.35-6.65c-6-6-6-12.3-6-25.87s0-19.86,6-25.88a22.79,22.79,0,0,1,16.35-6.64c11.5,0,20,7,22.19,19h-7c-1.71-7.81-7.19-12.93-15.19-12.93A15.39,15.39,0,0,0,157,320.32c-4,4.13-4.49,8.53-4.49,21.92S153,360,157,364.16a15.39,15.39,0,0,0,11.05,4.49c8,0,13.66-5.12,15.36-12.93h6.83C188.21,367.75,179.49,374.76,168.08,374.76Z"/><path d="M243.91,374.22V345H213.54v29.2h-6.83v-64h6.83v28.67h30.37V310.25h6.82v64Z"/><path d="M307.78,374.22V345H277.41v29.2h-6.82v-64h6.82v28.67h30.37V310.25h6.83v64Z"/><path d="M371.75,374.22l-5.12-14.46H338.68l-5.12,14.46h-7.27l23.53-64h5.75l23.45,64Zm-19-54.17-12,33.78h23.9Z"/><path d="M390.7,374.22v-64h6.83v57.86h32.7v6.11Z"/><path d="M455.12,316.36v57.86h-6.83V316.36H429.78v-6.11h43.84v6.11Z"/><path d="M486.92,374.22v-64h6.83v64Z"/><path d="M550.61,367.4a23.45,23.45,0,0,1-33.42.71c-6-6-6-12.3-6-25.87s0-19.86,6-25.88a22.68,22.68,0,0,1,16.35-6.64c12.22,0,20.49,7.9,22.38,19.13h-6.83c-1.8-8.08-7.55-13-15.55-13a15.47,15.47,0,0,0-11,4.58c-4,4.13-4.49,8.44-4.49,21.83s.45,17.79,4.49,21.92a15.39,15.39,0,0,0,11,4.49,15.55,15.55,0,0,0,12.13-5.48c2.61-3.14,3.6-6.65,3.6-11.59v-4.85H533.54v-6H556.1v10.15C556.1,358.23,554.57,363.17,550.61,367.4Z"/><path d="M573.34,374.22v-64h39.71v6.11H580.17v22.56h28V345h-28v23.09h32.88v6.11Z"/><path d="M652.31,374.22v-64H692v6.11H659.14v22.56h28V345h-28v23.09H692v6.11Z"/><path d="M748.35,374.22l-34-51.3v51.3h-6.83v-64H714l34,51.13V310.25h6.83v64Z"/><path d="M774.67,374.22v-64h39.71v6.11H781.5v22.56h28V345h-28v23.09h32.88v6.11Z"/><path d="M866.66,374.22l-14.55-28.39H836.75v28.39h-6.83v-64h24.52c11.15,0,19,6.74,19,17.79,0,9.35-5.66,15.46-13.92,17.16l15.18,29Zm-12.84-57.86H836.75v23.45h17.07c7.45,0,12.75-3.86,12.75-11.68S861.27,316.36,853.82,316.36Z"/><path d="M927.21,367.4a23.45,23.45,0,0,1-33.42.71c-6-6-6-12.3-6-25.87s0-19.86,6-25.88a22.68,22.68,0,0,1,16.35-6.64c12.22,0,20.49,7.9,22.38,19.13h-6.83c-1.8-8.08-7.55-13-15.55-13a15.47,15.47,0,0,0-11,4.58c-4,4.13-4.49,8.44-4.49,21.83s.45,17.79,4.49,21.92a15.39,15.39,0,0,0,11,4.49,15.55,15.55,0,0,0,12.13-5.48c2.61-3.14,3.6-6.65,3.6-11.59v-4.85H910.14v-6h22.55v10.15C932.69,358.23,931.17,363.17,927.21,367.4Z"/><path d="M949.94,374.22v-64h6.83v64Z"/><path d="M976.62,374.22v-64h39.71v6.11H983.45v22.56h28V345h-28v23.09h32.88v6.11Z"/><path d="M1072.66,374.22l-34-51.3v51.3h-6.83v-64h6.47l34,51.13V310.25h6.83v64Z"/><path d="M71.42,136.41v-6.33c-4.65,5.17-9.56,7.11-16.66,7.11-6.59,0-12.79-2.33-16.54-6.07-6.72-6.72-6.85-18.35-6.85-28.42s.13-21.58,6.85-28.3C42,70.66,48,68.33,54.63,68.33c6.84,0,12,1.81,16.4,6.72V44.44h16.8v92Zm-11.88-53c-10.08,0-11.37,8.26-11.37,19.25s1.29,19.37,11.37,19.37S71,113.68,71,102.7,69.61,83.45,59.54,83.45Z"/><path d="M141.17,136.41V130.6c-4.52,4.52-8.78,6.46-16.53,6.46s-13.18-1.94-17.18-5.94c-3.62-3.75-5.56-9.18-5.56-15.12,0-10.72,7.37-19.51,23-19.51h15.89V93.14c0-7.37-3.62-10.6-12.53-10.6-6.46,0-9.44,1.55-12.92,5.56L104.62,77.63c6.58-7.23,13-9.3,24.28-9.3,18.86,0,28.68,8,28.68,23.77v44.31ZM140.79,108H127.48c-6.07,0-9.43,2.84-9.43,7.62s3.1,7.75,9.69,7.75c4.65,0,7.62-.38,10.59-3.23,1.81-1.67,2.46-4.39,2.46-8.52Z"/><path d="M194.91,60.45V83.06h36.3v16h-36.3v37.33H177v-92h60.59v16Z"/><path d="M307.55,136.41,271.12,80v56.45h-18v-92h16l36.43,56.32V44.44h18v92Z"/><path d="M345,136.41v-92h60.58v16H363V82h36.3V98H363v22.35h42.63v16Z"/><line x1="25.69" y1="172" x2="1209.99" y2="172" fill="none" stroke="#000" stroke-miterlimit="10" stroke-width="3"/><rect y="172" width="1871" height="228" fill="none"/></svg>