<?xml version="1.0" encoding="UTF-8"?>
<svg id="Ebene_1" data-name="Ebene 1" xmlns="http://www.w3.org/2000/svg" width="215mm" height="110mm" viewBox="0 0 609.45 311.81">
  <g>
    <path d="M223.22,75.72h-27.7l-15.72,54.56h-.42l-16.03-54.56h-27.65v76.85h18.4v-33.38c0-5.22-.37-12.54-1.1-21.97h.47l15.72,55.35h19.76l15.51-55.24h.47c-.42,8.34-.66,13.58-.71,15.72-.05,2.14-.08,4.08-.08,5.83v120.11h19.08V75.72Z" style="fill: #dddddd;"/>
    <path d="M258.18,138.16h24.97l3.78,14.4h22.71l-25.39-77.16h-27.7l-25.07,77.16h22.81l3.89-14.4Zm10.49-41.26c.93-4.1,1.55-7.04,1.87-8.83,.35,1.93,1.08,5.12,2.18,9.57,1.1,4.45,2.04,8.08,2.81,10.88l3.31,12.62h-16.35c3.19-12.05,5.25-20.13,6.18-24.23Z" style="fill: #dddddd;"/>
    <path d="M114.1,235.4v-41.42h-33.17v16.03h13.72v12.04c-2.59,.6-5.43,.89-8.51,.89-5.64,0-9.96-1.88-12.96-5.65-3-3.77-4.49-9.24-4.49-16.43s1.66-12.96,4.97-16.9c3.31-3.94,8-5.91,14.06-5.91,6.62,0,12.7,1.37,18.24,4.1l6.57-16.29c-3.19-1.4-6.93-2.56-11.22-3.47-4.29-.91-8.86-1.37-13.69-1.37-12.76,0-22.67,3.45-29.75,10.35s-10.62,16.56-10.62,28.96,3.23,22.51,9.7,29.38c6.47,6.87,15.62,10.3,27.46,10.3,10.79,0,20.69-1.54,29.7-4.62Z" style="fill: #dddddd;"/>
    <path d="M173.24,205.49c8.69-4.87,13.04-11.76,13.04-20.66,0-15.14-10.44-22.71-31.33-22.71h-25.18v76.85h20.76v-27.96h5.26l16.29,27.96h23.55l-22.39-33.48Zm-18.82-10.09h-3.89v-17.56h4.1c7.11,0,10.67,2.65,10.67,7.94,0,6.41-3.63,9.62-10.88,9.62Z" style="fill: #dddddd;"/>
    <path d="M305.33,198.92c0-11.91-3.36-21.03-10.07-27.33-6.71-6.31-16.23-9.46-28.57-9.46h-26.6v76.85h24.86c12.79,0,22.72-3.47,29.78-10.41,7.06-6.94,10.59-16.82,10.59-29.65Zm-25.97,17.53c-2.94,3.66-7.57,5.49-13.88,5.49h-4.62v-43.05h6.04c5.68,0,9.91,1.7,12.69,5.1,2.79,3.4,4.18,8.62,4.18,15.66,0,7.54-1.47,13.13-4.42,16.79Z" style="fill: #dddddd;"/>
    <path d="M583.41,60.31c0-18.11-14.74-32.85-32.85-32.85H58.89c-18.11,0-32.85,14.74-32.85,32.85V251.5c0,18.11,14.74,32.85,32.85,32.85h491.67c18.11,0,32.85-14.74,32.85-32.85V60.31Zm-32.85,210.05h-211.85V124.6h5.26l16.29,27.96h23.55l-22.39-33.48c8.69-4.87,13.03-11.76,13.03-20.66,0-15.14-10.44-22.71-31.33-22.71h-25.18v194.64H58.89c-10.39,0-18.85-8.46-18.85-18.85v-98.3c12.52,1.08,48.77,.85,53.23,.85,6.22,0,11.64-1.04,16.26-3.12,4.62-2.08,8.16-4.99,10.61-8.75,2.45-3.75,3.68-8.04,3.68-12.88,0-5.26-1.31-9.62-3.92-13.09-2.61-3.47-7.28-6.71-14-9.73-7-3.2-11.3-5.4-12.88-6.61-1.58-1.21-2.37-2.58-2.37-4.11,0-1.42,.62-2.61,1.87-3.57,1.24-.96,3.23-1.44,5.97-1.44,5.3,0,11.59,1.67,18.88,5.01l6.45-16.26c-8.39-3.73-16.62-5.6-24.69-5.6-9.14,0-16.32,2.01-21.54,6.03-5.23,4.02-7.84,9.62-7.84,16.8,0,3.84,.61,7.16,1.84,9.97,1.23,2.81,3.11,5.3,5.65,7.47,2.54,2.17,6.35,4.41,11.44,6.72,5.62,2.52,9.07,4.19,10.37,5.01,1.3,.82,2.24,1.63,2.83,2.43,.59,.8,.88,1.73,.88,2.8,0,1.71-.73,3.1-2.19,4.19-1.46,1.08-3.75,1.63-6.88,1.63s-40.82-.06-53.66-1.4V60.31c0-10.39,8.46-18.85,18.85-18.85h491.67c10.39,0,18.85,8.46,18.85,18.85v15.41h-184.24v16.98h18.76v59.87h20.76v-59.87h144.71V251.5c0,10.39-8.46,18.85-18.85,18.85ZM338.7,108.99v-17.56h4.1c7.11,0,10.67,2.65,10.67,7.94,0,6.41-3.63,9.62-10.88,9.62h-3.89Z" style="fill: #dddddd;"/>
  </g>
  <g>
    <path d="M441.39,161.84l-19.62,60.39h-39.04v-60.11h-20.76v76.87h77.16l3.89-14.4h24.97l17.96,59.71h23.71l-40.56-122.47h-27.7Zm5.94,45.73c3.19-12.05,5.25-20.13,6.18-24.23,.93-4.1,1.55-7.04,1.87-8.83,.35,1.93,1.08,5.12,2.18,9.57,1.1,4.45,2.04,8.08,2.81,10.88l3.31,12.62h-16.35Z" style="fill: #fff;"/>
    <path d="M556.76,205.05c-2.14-2.94-5.59-5.05-10.35-6.31v-.53c3.61-.88,6.52-2.84,8.73-5.89s3.31-6.73,3.31-11.04c0-6.55-2.53-11.38-7.6-14.48-5.06-3.1-12.82-4.65-23.26-4.65h-26.81v76.85h29.91c9.04,0,16.18-2,21.42-6.02,5.24-4.01,7.86-9.5,7.86-16.48,0-4.7-1.07-8.51-3.21-11.46Zm-35.22-27.17h5.83c6.52,0,9.78,2.15,9.78,6.46,0,2.42-.81,4.24-2.44,5.47s-3.93,1.84-6.91,1.84h-6.25v-13.77Zm7.31,45.1h-7.31v-16.14h6.89c3.29,0,5.81,.68,7.54,2.05,1.73,1.37,2.6,3.33,2.6,5.89,0,5.47-3.24,8.2-9.72,8.2Z" style="fill: #fff;"/>
  </g>
</svg>