<?xml version="1.0" encoding="utf-8"?>
<!-- Generator: Adobe Illustrator 23.0.6, SVG Export Plug-In . SVG Version: 6.00 Build 0)  -->
<svg version="1.1"
	 id="Ebene_1" shape-rendering="geometricPrecision" text-rendering="geometricPrecision" image-rendering="optimizeQuality"
	 xmlns="http://www.w3.org/2000/svg" xmlns:xlink="http://www.w3.org/1999/xlink" x="0px" y="0px" viewBox="0 0 56.9 120.3"
	 style="enable-background:new 0 0 56.9 120.3;" xml:space="preserve">
<style type="text/css">
	.st0{fill:#DADADA;stroke:#000000;stroke-width:4;stroke-linejoin:round;stroke-miterlimit:22.9256;}
</style>
<g id="Ebene_x0020_1">
	<path class="st0" d="M28.3,116.7c0.5-0.7,3.4-11.7,3.6-12.9l0.5-33.3c3.8-0.2,18.6-0.4,19.9-4.5c1.6-4.9-14.4-12.7-14.4-13
		c-0.7-13.2-1.9-27.3-3.1-40.5L42.5,6C39,1.7,17.6,1.7,14.2,6l7.7,6.5c-1.2,13.2-2.4,27.3-3.1,40.5c0,0.3-15.9,8.1-14.4,13
		c1.3,4.1,16.1,4.3,19.9,4.5l0.5,33.3C25,104.9,27.8,115.9,28.3,116.7z"/>
</g>
</svg>
